<svg xmlns="http://www.w3.org/2000/svg" viewBox="0 0 1161 484"><path d="M54.505 270.32c8.26 0 14.348-2.8 18.26-8.412 3.908-5.605 5.865-14.457 5.865-26.56 0-12.247-1.92-21.172-5.755-26.78s-9.96-8.41-18.37-8.41c-7.675 0-14.905 1.992-21.69 5.975v58.212c6.492 3.984 13.723 5.976 21.69 5.976zM6.033 337.825c-1.92 0-3.32-.408-4.205-1.216S.5 334.357.5 332.293v-147.63c0-2.065.443-3.504 1.328-4.316s2.285-1.217 4.205-1.217H21.97c3.393 0 5.457 1.625 6.197 4.87l1.55 5.755c4.427-4.28 9.773-7.67 16.047-10.18s12.65-3.763 19.145-3.763c14.31 0 25.637 5.24 33.975 15.715s12.505 24.644 12.505 42.495c0 12.25-2.068 22.947-6.197 32.095s-9.74 16.195-16.82 21.137-15.2 7.415-24.347 7.415c-6.052 0-11.808-.96-17.264-2.877-5.46-1.916-10.108-4.572-13.944-7.968v48.472c0 2.064-.408 3.504-1.217 4.316s-2.252 1.216-4.316 1.216H6.033m132.13-45.593c-1.92 0-3.32-.443-4.204-1.328s-1.328-2.285-1.328-4.205V184.67c0-2.065.443-3.504 1.328-4.316s2.285-1.217 4.204-1.217H154.1c3.393 0 5.457 1.625 6.2 4.87l2.876 11.952c5.9-6.49 11.472-11.1 16.71-13.833a35.62 35.62 0 0 1 16.712-4.095h3.1c2.064 0 3.54.408 4.425 1.217s1.328 2.25 1.328 4.316v18.592c0 1.92-.407 3.32-1.217 4.204s-2.25 1.33-4.315 1.33c-1.035 0-2.363-.072-3.985-.22s-3.69-.22-6.196-.22c-3.397 0-7.527.48-12.396 1.44s-9 2.18-12.395 3.652v74.368c0 1.92-.407 3.32-1.217 4.205s-2.25 1.328-4.315 1.328h-21.25m87.043 0c-1.92 0-3.32-.443-4.207-1.328s-1.328-2.285-1.328-4.205v-102.03c0-2.065.443-3.504 1.328-4.316s2.287-1.217 4.207-1.217h21.247c2.065 0 3.504.408 4.316 1.217s1.217 2.25 1.217 4.316v102.03c0 1.92-.408 3.32-1.217 4.205s-2.25 1.328-4.316 1.328zm10.623-130.6c-5.61 0-10.11-1.55-13.5-4.648s-5.09-7.304-5.09-12.616 1.695-9.517 5.09-12.616 7.892-4.648 13.5-4.648 10.105 1.55 13.5 4.648 5.092 7.304 5.092 12.616-1.7 9.517-5.092 12.616-7.896 4.648-13.5 4.648m48.64 130.6c-1.92 0-3.32-.443-4.204-1.328s-1.33-2.285-1.33-4.205v-102.03c0-2.065.443-3.504 1.33-4.316s2.284-1.217 4.204-1.217h15.936c3.393 0 5.457 1.625 6.197 4.87l1.772 5.976c7.82-5.164 14.863-8.816 21.136-10.957a59.66 59.66 0 0 1 19.367-3.208c13.28 0 22.65 4.724 28.11 14.165 7.524-5.015 14.607-8.632 21.247-10.845s13.5-3.32 20.585-3.32c10.325 0 18.332 2.876 24.013 8.632s8.52 13.8 8.52 24.125v78.13c0 1.92-.408 3.32-1.216 4.205-.815.885-2.253 1.328-4.317 1.328h-21.248c-1.92 0-3.32-.443-4.205-1.328s-1.327-2.285-1.327-4.205V215.66c0-10.032-4.504-15.05-13.503-15.05-7.968 0-16.012 1.92-24.125 5.753v80.345c0 1.92-.408 3.32-1.217 4.205s-2.252 1.328-4.316 1.328h-21.248c-1.92 0-3.32-.443-4.205-1.328s-1.328-2.285-1.328-4.205V215.66c0-10.032-4.503-15.05-13.5-15.05-8.267 0-16.38 1.992-24.348 5.975v80.124c0 1.92-.408 3.32-1.217 4.205s-2.252 1.328-4.316 1.328H284.47m256.3-79.415c0-10.793-7.612-13.885-16.988-13.885-6.167 0-12.147 2.227-16.228 6.695-3.98 4.357-6.44 10.983-7.48 19.316 0 0 16.588 3.01 28.58 1.027 6.22-1.027 12.116-4.485 12.116-13.152zm-13.45 82.952c-18.04 0-31.76-4.216-42.788-15.437-7.237-7.365-14.056-21.03-14.056-44.453 0-18.885 5.984-33.32 15.723-43.797s24.61-15.388 38.667-15.388c17.555 0 27.963 3.985 35.932 11.953 1.307 1.307 9.315 9.588 9.315 22.88 0 4.576.14 9.315-2.997 15.96-2.124 4.5-5.344 7.32-6.195 8.097-13.055 11.944-38.64 11.153-47.293 10.66l-14.012-2.132c.917 9.708 3.64 17.333 9.584 21.667 5.59 4.075 11.72 5.792 24.25 5.792 6.28 0 14.66-1.257 25.433-4.06.58-.157 1.71-.443 2.1-.503.252-.04 1.3-.156 2.04.095 1.18.4 2.51 1.52 2.51 4.727v10.183c0 2.36-.264 4.023-.928 4.98s-1.99 1.888-3.905 2.624c-11.216 4.13-21.688 6.156-33.38 6.156" fill="#4aaae4"/><path d="M1003.1 212.82c0-10.793-7.612-13.885-16.987-13.885-6.167 0-12.147 2.227-16.227 6.695-3.982 4.357-6.44 10.983-7.482 19.316 0 0 16.588 3.01 28.58 1.027 6.223-1.027 12.116-4.485 12.116-13.152zm-13.448 82.952c-18.04 0-31.76-4.216-42.79-15.437-7.236-7.365-14.055-21.03-14.055-44.453 0-18.885 5.983-33.32 15.72-43.797s24.61-15.388 38.667-15.388c17.556 0 27.964 3.985 35.932 11.953 1.308 1.307 9.316 9.588 9.316 22.88 0 4.576.14 9.315-2.997 15.96-2.125 4.5-5.345 7.32-6.195 8.097-13.056 11.944-38.64 11.153-47.295 10.66l-14.01-2.132c.916 9.708 3.64 17.333 9.583 21.667 5.59 4.075 11.723 5.792 24.25 5.792 6.28 0 14.66-1.257 25.432-4.06.58-.157 1.71-.443 2.1-.503.253-.04 1.303-.156 2.04.095 1.18.4 2.51 1.52 2.51 4.727v10.183c0 2.36-.264 4.023-.928 4.98s-1.99 1.888-3.905 2.624c-11.216 4.13-21.686 6.156-33.377 6.156m-322.1-3.537c-1.477 0-2.695-.184-3.65-.553a5.73 5.73 0 0 1-2.436-1.771c-.664-.813-1.292-1.953-1.88-3.43l-37.848-98.493-1.107-3.1c-.297-.885-.443-1.695-.443-2.435 0-2.213 1.473-3.32 4.428-3.32h22.132c2.36 0 4.096.443 5.203 1.328s1.953 2.36 2.544 4.427l22.797 78.352 23.24-78.352c.59-2.065 1.44-3.54 2.545-4.427s2.84-1.328 5.2-1.328h21.47c2.95 0 4.428 1.107 4.428 3.32 0 .74-.15 1.55-.443 2.435l-1.108 3.1-37.848 98.493c-.592 1.477-1.216 2.62-1.88 3.43s-1.44 1.404-2.325 1.77-2.14.553-3.763.553h-19.256m85.9 0c-1.918 0-3.318-.443-4.204-1.328s-1.328-2.285-1.328-4.205v-102.03c0-2.065.443-3.504 1.328-4.316s2.285-1.217 4.204-1.217h21.25c2.065 0 3.503.408 4.316 1.217s1.216 2.25 1.216 4.316v102.03c0 1.92-.407 3.32-1.216 4.205s-2.25 1.328-4.316 1.328zm10.625-130.6c-5.61 0-10.11-1.55-13.5-4.648-3.397-3.1-5.09-7.304-5.09-12.616s1.693-9.517 5.09-12.616c3.392-3.1 7.892-4.648 13.5-4.648s10.104 1.55 13.5 4.648 5.09 7.304 5.09 12.616-1.7 9.517-5.09 12.616c-3.397 3.1-7.896 4.648-13.5 4.648m94.463 108.67c7.083 0 13.868-2.065 20.363-6.197v-58.432c-6.345-3.687-13.65-5.533-21.912-5.533-7.823 0-13.65 2.916-17.485 8.743s-5.755 14.645-5.755 26.45 2.027 20.584 6.087 26.337 10.292 8.633 18.703 8.633zm-10.624 24.347c-9.593 0-17.928-2.47-25.01-7.415s-12.505-11.803-16.268-20.584-5.644-18.925-5.644-30.433c0-18.295 4.35-32.94 13.06-43.936 8.705-10.99 20.215-16.488 34.528-16.488 11.655 0 21.763 3.32 30.323 9.96v-51.792c0-2.065.443-3.504 1.328-4.316s2.285-1.217 4.205-1.217h21.248c2.064 0 3.503.407 4.316 1.217s1.217 2.25 1.217 4.316v152.72c0 1.92-.408 3.32-1.217 4.205s-2.252 1.328-4.316 1.328h-17.708c-1.77 0-3.137-.367-4.095-1.107s-1.66-1.993-2.103-3.763l-1.328-5.09c-9.15 8.265-19.996 12.395-32.536 12.395m255.86-23.904c15.49 0 23.236-11.73 23.236-35.192 0-23.313-7.747-34.97-23.236-34.97s-23.24 11.657-23.24 34.97c0 23.46 7.747 35.192 23.24 35.192zm0 24.79c-17.562 0-31.284-5.273-41.168-15.825s-14.83-25.267-14.83-44.156c0-18.737 4.943-33.384 14.83-43.935s23.607-15.825 41.168-15.825 31.276 5.277 41.17 15.825c9.88 10.55 14.827 25.197 14.827 43.935 0 18.89-4.947 33.608-14.827 44.156-9.893 10.552-23.613 15.825-41.17 15.825" fill="#232b39"/><path d="M281.77 353.75v1.816c.228 1.55 1.044 3.2 2.592 4.703 78.956 76.82 183.25 122.98 299.07 122.98 82.65 0 178.63-28.008 244.84-80.64 10.944-8.757 1.57-21.795-9.612-16.697-74.22 33.935-154.86 50.36-228.26 50.36-108.76 0-214.1-32.165-299.22-85.56-1.536-.96-2.99-1.376-4.275-1.376-2.756 0-4.737 1.91-5.125 4.416m491.9 8.297c-2.357 1.784-3.596 3.82-3.82 5.567v1.084c.276 2.013 2.152 3.365 5.455 2.945 21.307-2.753 68.82-8.86 77.284 2.805 8.473 11.64-9.407 59.645-17.395 81.028-2.4 6.44 2.775 9.1 8.21 4.162 35.535-31.878 44.707-98.72 37.41-108.36-3.472-4.62-19.776-8.943-39.96-8.943-21.58 0-47.61 4.93-67.185 19.712" fill="#4aaae4"/><path d="M232.46 35.034h-4.428v21.752h-10.356V1.115h16.978q5.698 0 9.76 1.174 4.062 1.174 6.66 3.292 2.6 2.117 3.81 5.063 1.213 2.945 1.213 6.487 0 2.81-.828 5.313-.828 2.503-2.387 4.543-1.56 2.04-3.85 3.58-2.29 1.54-5.217 2.464 1.964 1.117 3.388 3.195l13.937 20.56h-9.317q-1.347 0-2.29-.54-.943-.54-1.598-1.54L236.233 36.88q-.655-1-1.444-1.425-.79-.423-2.33-.423zm-4.428-25.9v18.48h6.468q2.926 0 5.1-.732 2.175-.732 3.58-2.02 1.405-1.3 2.098-3.06.693-1.77.693-3.89 0-4.235-2.79-6.507-2.79-2.27-8.528-2.27h-6.622zm39.732-8.008h35.112v8.24H278.2v15.438h19.442v7.97H278.2V48.5h24.678v8.277h-35.112V1.115zm69.646 48.048q3.503 0 6.102-.635 2.6-.635 4.947-1.752V36.65h-6.97q-1 0-1.578-.558-.577-.558-.577-1.367v-5.852h18.518v22.522q-2.118 1.54-4.408 2.676-2.29 1.136-4.89 1.867-2.6.73-5.563 1.097-2.964.366-6.4.366-6.083 0-11.204-2.117-5.12-2.117-8.855-5.89-3.734-3.773-5.833-9-2.098-5.236-2.098-11.434 0-6.276 2.04-11.512 2.04-5.236 5.794-9 3.754-3.773 9.105-5.852Q330.903.5 337.564.5q6.815 0 11.8 2.02 4.986 2.02 8.45 5.255l-3.003 4.697q-.886 1.425-2.35 1.425-.924 0-1.887-.616-1.232-.732-2.522-1.463-1.3-.732-2.85-1.27-1.56-.54-3.504-.885-1.944-.347-4.485-.347-4.12 0-7.45 1.386-3.33 1.386-5.68 3.966-2.348 2.58-3.62 6.2-1.27 3.62-1.27 8.085 0 4.812 1.348 8.566 1.347 3.754 3.773 6.333 2.425 2.58 5.775 3.946 3.35 1.367 7.315 1.367zm57.172-48.048l21.868 55.67h-8.008q-1.347 0-2.214-.674-.866-.674-1.25-1.675L400.82 43.08h-23.062L373.6 54.438q-.308.886-1.213 1.617-.905.732-2.214.732h-8.046l21.868-55.67h10.588zm-7.392 16.208l-6.776 18.442h17.748l-6.776-18.518q-.462-1.232-1.02-2.907-.558-1.675-1.097-3.638-.54 1.963-1.06 3.658-.52 1.694-1.02 2.964zm50.127 17.7H432.9v21.762h-10.356V1.115h16.978q5.698 0 9.76 1.174 4.062 1.174 6.66 3.292 2.6 2.117 3.812 5.063 1.213 2.945 1.213 6.487 0 2.81-.828 5.313-.828 2.503-2.387 4.543-1.56 2.04-3.85 3.58-2.29 1.54-5.217 2.464 1.964 1.117 3.388 3.195L466 56.787h-9.317q-1.347 0-2.29-.54-.943-.54-1.598-1.54L441.09 36.88q-.655-1-1.444-1.425-.79-.423-2.33-.423zm-4.428-25.9v18.48h6.468q2.926 0 5.1-.732 2.175-.732 3.58-2.02 1.405-1.3 2.098-3.06.693-1.77.693-3.89 0-4.235-2.79-6.507-2.79-2.27-8.528-2.27H432.9zm89.166 19.828q0 6.122-2.04 11.242-2.04 5.12-5.736 8.816-3.696 3.696-8.894 5.736-5.198 2.04-11.512 2.04h-21.252V1.117h21.252q6.314 0 11.512 2.06 5.198 2.06 8.894 5.737 3.696 3.677 5.736 8.797 2.04 5.12 2.04 11.242zm-10.588 0q0-4.582-1.232-8.22-1.232-3.638-3.503-6.16-2.272-2.522-5.525-3.87-3.253-1.348-7.334-1.348h-10.818v39.193h10.818q4.08 0 7.334-1.348 3.253-1.347 5.525-3.87 2.272-2.522 3.503-6.16 1.232-3.638 1.232-8.22zm18.7-27.836h35.112v8.24h-24.678v15.438h19.442v7.97h-19.442V48.5h24.678v8.277h-35.112V1.115zm59.213 33.918h-4.428v21.752h-10.356V1.115h16.978q5.698 0 9.76 1.174 4.062 1.174 6.66 3.292 2.6 2.117 3.812 5.063 1.213 2.945 1.213 6.487 0 2.81-.828 5.313-.828 2.503-2.387 4.543-1.56 2.04-3.85 3.58-2.29 1.54-5.217 2.464 1.963 1.117 3.388 3.195l13.937 20.56h-9.317q-1.347 0-2.29-.54-.943-.54-1.598-1.54L593.154 36.88q-.654-1-1.444-1.425-.79-.423-2.33-.423zm-4.416-25.9v18.48h6.468q2.926 0 5.1-.732 2.175-.732 3.58-2.02 1.405-1.3 2.098-3.06.693-1.77.693-3.89 0-4.235-2.79-6.507-2.79-2.27-8.528-2.27h-6.622zm86.972-2.772l-2.54 4.9q-.423.847-.982 1.194-.558.346-1.328.346-.77 0-1.732-.597-.963-.597-2.272-1.328-1.3-.732-3.06-1.328-1.752-.597-4.14-.597-2.156 0-3.754.52-1.598.52-2.695 1.444-1.097.924-1.636 2.214-.54 1.3-.54 2.83 0 1.964 1.097 3.272 1.097 1.3 2.907 2.233 1.8.924 4.12 1.656 2.3.732 4.716 1.56 2.406.828 4.716 1.925 2.3 1.097 4.12 2.772 1.8 1.675 2.907 4.1 1.097 2.425 1.097 5.9 0 3.773-1.3 7.065-1.3 3.292-3.773 5.736-2.483 2.445-6.064 3.85-3.58 1.405-8.2 1.405-2.657 0-5.236-.52-2.58-.52-4.947-1.482-2.368-.963-4.427-2.3-2.06-1.347-3.677-3.003l3.003-4.966q.423-.54 1.02-.905.597-.366 1.328-.366.962 0 2.08.79 1.116.79 2.637 1.752 1.52.962 3.58 1.752 2.06.79 4.947.79 4.428 0 6.853-2.098 2.425-2.098 2.425-6.025 0-2.194-1.097-3.58-1.097-1.386-2.907-2.33-1.81-.943-4.12-1.598-2.3-.654-4.697-1.424-2.387-.77-4.697-1.848-2.3-1.078-4.12-2.81-1.8-1.732-2.907-4.33-1.097-2.6-1.097-6.4 0-3.042 1.213-5.93 1.213-2.887 3.542-5.12 2.33-2.233 5.717-3.58Q651.416.5 655.767.5q4.928 0 9.086 1.54 4.158 1.54 7.084 4.312zm31.34 42.08q3.003 0 5.37-1 2.368-1 4.004-2.81 1.636-1.81 2.503-4.4.866-2.58.866-5.775V1.116h10.356v33.34q0 4.966-1.598 9.182-1.598 4.216-4.6 7.276-3.003 3.06-7.277 4.774-4.273 1.713-9.625 1.713-5.352 0-9.625-1.713-4.273-1.713-7.257-4.774-2.984-3.06-4.582-7.276-1.598-4.216-1.598-9.182V1.116h10.356v33.302q0 3.196.866 5.775.866 2.58 2.483 4.408 1.617 1.83 3.985 2.83 2.368 1 5.37 1zm48.778-13.398h-4.428v21.752H737.27V1.115h16.978q5.698 0 9.76 1.174 4.062 1.174 6.66 3.292 2.6 2.117 3.812 5.063 1.213 2.945 1.213 6.487 0 2.81-.828 5.313-.828 2.503-2.387 4.543-1.56 2.04-3.85 3.58-2.29 1.54-5.217 2.464 1.963 1.117 3.388 3.195l13.937 20.56h-9.317q-1.347 0-2.29-.54-.943-.54-1.598-1.54L755.828 36.88q-.654-1-1.444-1.425-.79-.423-2.33-.423zm-4.428-25.9v18.48h6.468q2.926 0 5.1-.732 2.175-.732 3.58-2.02 1.405-1.3 2.098-3.06.693-1.77.693-3.89 0-4.235-2.79-6.507-2.79-2.27-8.528-2.27h-6.622z" fill="#232b39"/><path d="M948 345.5h202.5v135H948z" fill="#ed2939"/><path d="M948 345.5h135v135H948z" fill="#fff"/><path d="M948 345.5h67.5v135H948z" fill="#002395"/></svg>