<svg xmlns="http://www.w3.org/2000/svg" viewBox="0 0 1161 493"><path d="M54.5052 279.5c8.262 0 14.3484-2.8013 18.26-8.4106s5.8652-14.4587 5.8652-26.56c0-12.2454-1.9194-21.172-5.7548-26.7814s-9.9594-8.4107-18.3703-8.4107c-7.674 0-14.9057 1.992-21.6907 5.976v58.2108c6.4918 3.984 13.7224 5.976 21.6907 5.976zm-48.472 67.5067c-1.9192 0-3.3203-.408-4.2052-1.2173S.5 343.5372.5 341.4733V193.844c0-2.064.4427-3.5027 1.328-4.316s2.286-1.2173 4.2052-1.2173h15.936c3.3927 0 5.4572 1.6254 6.1974 4.8693l1.5494 5.7547c4.4266-4.2773 9.773-7.6707 16.0464-10.1813s12.65-3.7627 19.1454-3.7627c14.3 0 25.6364 5.24 33.975 15.7146s12.5052 24.644 12.5052 42.496c0 12.2506-2.0683 22.9466-6.1973 32.0933s-9.7386 16.196-16.8214 21.1373-15.1996 7.4147-24.3464 7.4147c-6.052 0-11.8073-.9613-17.2645-2.8773s-10.1-4.572-13.944-7.968v48.472c0 2.064-.4082 3.504-1.2176 4.316s-2.25 1.2173-4.3157 1.2173H6.0333m132.1334-45.5946c-1.9187 0-3.32-.4426-4.204-1.328s-1.3282-2.2853-1.3282-4.2053V193.844c0-2.064.442-3.5027 1.3282-4.316s2.2854-1.2173 4.204-1.2173h15.9373c3.392 0 5.456 1.6253 6.1973 4.8693l2.876 11.952c5.9013-6.4907 11.472-11.1013 16.712-13.8333 5.2347-2.728 10.8067-4.0947 16.7107-4.0947h3.0973c2.0653 0 3.5427.408 4.4267 1.2173s1.328 2.252 1.328 4.316v18.592c0 1.92-.408 3.32-1.2173 4.2053s-2.2507 1.328-4.316 1.328c-1.0334 0-2.3614-.072-3.9827-.2214-1.6267-.1453-3.6907-.2213-6.1973-.2213-3.3974 0-7.5254.4814-12.396 1.4387s-9.0014 2.1787-12.3947 3.652v74.368c0 1.92-.408 3.32-1.2173 4.2053s-2.2507 1.328-4.3147 1.328h-21.2493m87.0413.0001c-1.9187 0-3.32-.4427-4.2053-1.328s-1.328-2.2853-1.328-4.2053V193.844c0-2.064.4426-3.5026 1.328-4.316s2.2866-1.2174 4.2053-1.2174h21.248c2.0653 0 3.504.408 4.316 1.2174s1.2173 2.252 1.2173 4.316v102.0347c0 1.92-.408 3.32-1.2173 4.2053s-2.2507 1.328-4.316 1.328zm10.624-130.5867c-5.6093 0-10.1093-1.5494-13.5013-4.648s-5.0907-7.304-5.0907-12.616 1.6947-9.5174 5.0907-12.616 7.892-4.648 13.5013-4.648 10.1054 1.5493 13.5014 4.648 5.0906 7.304 5.0906 12.616-1.6987 9.5173-5.0906 12.616-7.8947 4.648-13.5014 4.648m48.6386 130.5867c-1.92 0-3.32-.4426-4.2053-1.328s-1.328-2.2853-1.328-4.2053V193.844c0-2.064.4427-3.5027 1.328-4.316s2.2853-1.2173 4.2053-1.2173h15.936c3.392 0 5.4574 1.6254 6.1974 4.8693l1.7707 5.976c7.8186-5.1626 14.864-8.8147 21.1372-10.956 6.2694-2.136 12.7267-3.2093 19.3668-3.2093 13.28 0 22.648 4.724 28.1092 14.1653 7.5254-5.0146 14.608-8.632 21.248-10.8453s13.5013-3.32 20.584-3.32c10.3267 0 18.332 2.8773 24.0146 8.632s8.52 13.7987 8.52 24.1253v78.1307c0 1.92-.4066 3.32-1.216 4.2053s-2.252 1.328-4.316 1.328h-21.248c-1.9187 0-3.32-.4426-4.2053-1.328s-1.328-2.2853-1.328-4.2053v-71.048c0-10.032-4.5027-15.0507-13.5013-15.0507-7.968 0-16.012 1.92-24.1254 5.7547v80.344c0 1.92-.408 3.32-1.2173 4.2053s-2.252 1.328-4.316 1.328h-21.248c-1.92 0-3.32-.4426-4.2054-1.328s-1.328-2.2853-1.328-4.2053v-71.048c0-10.032-4.5027-15.0507-13.5014-15.0507-8.2653 0-16.3787 1.992-24.3466 5.976v80.1227c0 1.92-.408 3.32-1.2174 4.2053s-2.252 1.328-4.316 1.328h-21.248m256.2922-79.4147c0-10.7933-7.612-13.884-16.9866-13.884-6.1667 0-12.1468 2.2267-16.2267 6.6933-3.9814 4.3574-6.44 10.9827-7.4814 19.316 0 0 16.5867 3.0093 28.5787 1.028 6.2227-1.028 12.116-4.4866 12.116-13.1533zm-13.448 82.9534c-18.0387 0-31.7614-4.216-42.788-15.4387-7.2374-7.364-14.056-21.028-14.056-44.452 0-18.8867 5.984-33.32 15.7227-43.7987s24.6107-15.388 38.6666-15.388c17.5547 0 27.9627 3.9854 35.932 11.9534 1.3066 1.3066 9.3146 9.588 9.3146 22.88 0 4.5746.14 9.3146-2.9974 15.9573-2.1253 4.5-5.3453 7.32-6.1946 8.0973-13.0546 11.9454-38.6386 11.1534-47.2934 10.6614l-14.012-2.1334c.9173 9.708 3.6386 17.3334 9.584 21.6667 5.5893 4.0747 11.7213 5.792 24.2493 5.792 6.28 0 14.6586-1.256 25.432-4.0613.5814-.1574 1.7107-.4427 2.1027-.5014.252-.0387 1.3013-.1573 2.0387.0933 1.18.4014 2.5107 1.5214 2.5107 4.728v10.1813c0 2.3627-.2655 4.0227-.9294 4.9813s-1.9893 1.888-3.904 2.624c-11.216 4.1307-21.688 6.1574-33.3787 6.1574" fill="#4aaae4"/><path d="M1003.0774 221.9973c0-10.7933-7.612-13.884-16.9867-13.884-6.1667 0-12.1466 2.2267-16.228 6.6933-3.9814 4.3574-6.4387 10.9827-7.4814 19.316 0 0 16.588 3.0093 28.58 1.028 6.2227-1.028 12.116-4.4866 12.116-13.1533zm-13.4494 82.9534c-18.0374 0-31.76-4.216-42.788-15.4387-7.236-7.364-14.0546-21.028-14.0546-44.452 0-18.8867 5.9827-33.32 15.7213-43.7987s24.612-15.388 38.6667-15.388c17.556 0 27.964 3.9854 35.932 11.9534 1.3066 1.3066 9.316 9.588 9.316 22.88 0 4.5746.14 9.3146-2.9973 15.9573-2.1254 4.5-5.3454 7.32-6.1947 8.0973-13.056 11.9454-38.6386 11.1534-47.2947 10.6614l-14.0106-2.1334c.916 9.708 3.6387 17.3334 9.5826 21.6667 5.5894 4.0747 11.7227 5.792 24.2507 5.792 6.2787 0 14.6587-1.256 25.432-4.0613.58-.1574 1.7106-.4427 2.1014-.5014.252-.0387 1.3026-.1573 2.04.0933 1.18.4014 2.5093 1.5214 2.5093 4.728v10.1813c0 2.3627-.264 4.0227-.928 4.9813s-1.9893 1.888-3.9053 2.624c-11.216 4.1307-21.6867 6.1574-33.3786 6.1574M667.528 301.412c-1.476 0-2.6947-.1826-3.6507-.5533-.9627-.3666-1.7707-.9573-2.4347-1.7707s-1.2932-1.9533-1.8827-3.4306l-37.8466-98.4934-1.1067-3.0986c-.2986-.8854-.4426-1.6947-.4426-2.4347 0-2.2133 1.472-3.32 4.4267-3.32h22.132c2.3587 0 4.096.4427 5.2027 1.328s1.9533 2.3627 2.544 4.4267l22.7987 78.352 23.2386-78.352c.5894-2.064 1.4387-3.5413 2.5467-4.4267s2.8373-1.328 5.2-1.328h21.4693c2.9493 0 4.428 1.1067 4.428 3.32 0 .74-.1506 1.5493-.4426 2.4347l-1.1068 3.0986-37.8492 98.4934c-.5907 1.4773-1.216 2.6213-1.88 3.4306s-1.4387 1.404-2.324 1.7707-2.1413.5533-3.764.5533h-19.256m85.9105 0c-1.92 0-3.32-.4427-4.2053-1.328s-1.328-2.2853-1.328-4.2053V193.844c0-2.064.4427-3.5026 1.328-4.316s2.2854-1.2174 4.2053-1.2174h21.248c2.0654 0 3.5027.408 4.3173 1.2174.808.8133 1.216 2.252 1.216 4.316v102.0347c0 1.92-.408 3.32-1.216 4.2053-.8146.8854-2.252 1.328-4.3173 1.328zm10.624-130.5867c-5.6093 0-10.1093-1.5494-13.5-4.648-3.3973-3.0987-5.092-7.304-5.092-12.616s1.6947-9.5174 5.092-12.616c3.3907-3.0987 7.8907-4.648 13.5-4.648s10.1053 1.5493 13.5014 4.648 5.0906 7.304 5.0906 12.616-1.6987 9.5173-5.0906 12.616-7.8947 4.648-13.5014 4.648M858.5253 279.5c7.084 0 13.868-2.064 20.364-6.1973v-58.432c-6.3466-3.6867-13.652-5.5333-21.9134-5.5333-7.8226 0-13.6492 2.916-17.484 8.7426-3.84 5.8307-5.756 14.6467-5.756 26.4494s2.0266 20.584 6.0866 26.3386 10.292 8.632 18.7027 8.632zm-10.624 24.3467c-9.5933 0-17.928-2.4693-25.0106-7.4147s-12.504-11.8026-16.268-20.584-5.644-18.924-5.644-30.4333c0-18.2946 4.352-32.94 13.0587-43.9347s20.2146-16.4893 34.528-16.4893c11.656 0 21.764 3.32 30.324 9.96v-51.792c0-2.064.4427-3.5027 1.328-4.316s2.284-1.2173 4.204-1.2173h21.248c2.064 0 3.5028.408 4.316 1.2173s1.2173 2.252 1.2173 4.316v152.72c0 1.92-.408 3.32-1.2173 4.2053s-2.252 1.328-4.316 1.328h-17.7066c-1.7707 0-3.136-.3667-4.0947-1.1067s-1.66-1.992-2.1025-3.7627l-1.3267-5.0907c-9.152 8.2654-19.996 12.3947-32.5375 12.3947m255.8572-23.904c15.4933 0 23.2413-11.7307 23.2413-35.192 0-23.312-7.748-34.9707-23.2413-34.9707s-23.24 11.6587-23.24 34.9707c0 23.4613 7.7467 35.192 23.24 35.192zm0 24.7893c-17.5614 0-31.284-5.2733-41.168-15.8253s-14.8294-25.2667-14.8294-44.156c0-18.7374 4.9426-33.3827 14.8294-43.9347s23.6066-15.8253 41.168-15.8253 31.2813 5.2774 41.168 15.8253 14.8292 25.1973 14.8292 43.9347c0 18.8893-4.9453 33.608-14.8292 44.156s-23.6095 15.8253-41.168 15.8253" fill="#232b39"/><path d="M281.7653 362.9227v1.8145c.228 1.5495 1.044 3.2 2.592 4.704C363.312 446.26 467.608 492.42 583.4293 492.42c82.6493 0 178.6293-28.0078 244.8346-80.6412 10.944-8.7572 1.572-21.7937-9.612-16.6974-74.216 33.9345-154.86 50.36-228.2613 50.36-108.7653 0-214.088-32.164-299.2253-85.5588-1.536-.9585-2.9907-1.3772-4.2747-1.3772-2.756 0-4.7386 1.9106-5.1253 4.4174M773.656 371.22c-2.3573 1.7828-3.5947 3.8198-3.8187 5.565v1.0855c.276 2.012 2.1534 3.364 5.4547 2.9453 21.3067-2.7547 68.8213-8.86 77.284 2.8057 8.4747 11.6396-9.4067 59.6454-17.3947 81.0265-2.3987 6.4427 2.7747 9.1 8.2107 4.164 35.5333-31.8786 44.7053-98.723 37.4107-108.363-3.472-4.6198-19.776-8.9425-39.9613-8.9425-21.5827 0-47.6093 4.932-67.1854 19.7133" fill="#4aaae4"/><path d="M351.72 59.264c2.2054 0 4.4774-.484 6.8174-1.456s4.52-2.2933 6.5507-3.9707V42.3227c-3.884-.616-7.368-.9267-10.456-.9267-7.676 0-11.5146 3.0893-11.5146 9.264 0 2.7373.7493 4.8547 2.2507 6.3533s3.6173 2.2507 6.352 2.2507zm-5.4266 12.9706c-6.5293 0-11.7573-1.8533-15.6827-5.56s-5.8893-8.6453-5.8893-14.8226c0-4.3227 1.1253-8.14 3.3746-11.448s5.36-5.824 9.3307-7.544 8.5134-2.5814 13.632-2.5814c4.2347 0 8.9107.5747 14.0294 1.72v-6.6174c0-4.056-.84-6.836-2.5147-8.3373s-4.764-2.2507-9.264-2.2507c-6.0013 0-12.752 1.06-20.2507 3.176-.264.0894-.5293.156-.7933.1987s-.4867.0667-.6627.0667c-1.5013 0-2.2493-1.012-2.2493-3.044v-5.956c0-1.4094.176-2.3814.5293-2.9107s1.1454-1.06 2.3827-1.5893c3.0866-1.3227 6.816-2.3587 11.184-3.1094S352.2506.5 356.7493.5c9.088 0 15.728 1.832 19.92 5.4933s6.2867 9.4187 6.2867 17.2707v43.544c0 1.148-.2453 1.9853-.728 2.5146s-1.3467.7934-2.5814.7934h-9c-1.0587 0-1.876-.2187-2.448-.6614s-.9933-1.1906-1.2573-2.2493l-.7947-3.0453c-2.736 2.472-5.8893 4.4347-9.4627 5.8906s-7.0373 2.184-10.3906 2.184m63.528-2.1186c-1.148 0-1.9853-.264-2.5146-.7934s-.7947-1.3666-.7947-2.5146V5.7947c0-1.236.2654-2.096.7947-2.5814s1.3666-.728 2.5146-.728h9.5293c2.028 0 3.2627.972 3.7054 2.912l1.0586 3.5733c4.676-3.088 8.888-5.272 12.64-6.5506S444.3653.5 448.3347.5c7.9413 0 13.544 2.8253 16.8093 8.4706 4.5-2.9986 8.7346-5.1626 12.7053-6.4853S485.9227.5 490.1573.5c6.176 0 10.9626 1.72 14.36 5.1613s5.096 8.252 5.096 14.4267v46.72c0 1.148-.244 1.9853-.728 2.5146s-1.3453.7934-2.58.7934h-12.7067c-1.1467 0-1.9853-.264-2.5147-.7934s-.7933-1.3666-.7933-2.5146V24.3226c0-5.9986-2.6933-8.9986-8.0733-8.9986-4.7654 0-9.5746 1.1466-14.4267 3.44v48.044c0 1.148-.244 1.9853-.728 2.5146s-1.3466.7934-2.58.7934H451.776c-1.148 0-1.9854-.264-2.5147-.7934s-.7933-1.3666-.7933-2.5146V24.3226c0-5.9986-2.6934-8.9986-8.0733-8.9986-4.9427 0-9.7947 1.1906-14.5587 3.572v47.912c0 1.148-.244 1.9853-.728 2.5146s-1.3467.7934-2.5813.7934h-12.7054m146.1134-10.852c2.2053 0 4.4773-.484 6.8173-1.456s4.52-2.2933 6.5507-3.9707V42.3227c-3.884-.616-7.368-.9267-10.456-.9267-7.676 0-11.5146 3.0893-11.5146 9.264 0 2.7373.7492 4.8547 2.2506 6.3533s3.6173 2.2507 6.352 2.2507zm-5.4254 12.9706c-6.5306 0-11.7586-1.8533-15.684-5.56s-5.8893-8.6453-5.8893-14.8226c0-4.3227 1.1253-8.14 3.3747-11.448s5.36-5.824 9.3306-7.544 8.5134-2.5814 13.632-2.5814c4.236 0 8.9107.5747 14.0294 1.72v-6.6174c0-4.056-.84-6.836-2.5147-8.3373s-4.764-2.2507-9.264-2.2507c-6.0014 0-12.752 1.06-20.2507 3.176-.264.0894-.5294.156-.7933.1987s-.4868.0667-.6614.0667c-1.5014 0-2.2507-1.012-2.2507-3.044v-5.956c0-1.4094.176-2.3814.5293-2.9107s1.1454-1.06 2.3828-1.5893c3.088-1.3227 6.816-2.3587 11.184-3.1094S556.4654.5 560.964.5c9.088 0 15.728 1.832 19.92 5.4933s6.2867 9.4187 6.2867 17.2707v43.544c0 1.148-.244 1.9853-.7293 2.5146s-1.344.7934-2.58.7934h-9c-1.0586 0-1.8747-.2187-2.448-.6614s-.9934-1.1906-1.2574-2.2493l-.7947-3.0453c-2.736 2.472-5.8892 4.4347-9.4626 5.8906s-7.0374 2.184-10.3894 2.184m58.4974-2.1186c-1.148 0-1.9853-.264-2.5147-.7934s-.7933-1.3666-.7933-2.5146v-6.7494c0-1.4106.152-2.4933.4613-3.244s.8614-1.608 1.656-2.58L640.5053 16.78h-30.176c-1.1467 0-1.984-.2654-2.5134-.7947s-.7946-1.368-.7946-2.516V5.7947c0-1.236.264-2.096.7946-2.5814s1.3667-.728 2.5134-.728h48.176c1.2346 0 2.0947.244 2.5814.728s.728 1.3453.728 2.5814v7.0133c0 1.4133-.156 2.4947-.4626 3.2426s-.8613 1.612-1.6547 2.5814l-33.088 37.1906h32.5574c1.236 0 2.096.244 2.5826.728s.728 1.3467.728 2.5814v7.676c0 1.148-.2454 1.9853-.728 2.5146s-1.3466.7934-2.5826.7934h-50.16m100.8518-12.8374c9.264 0 13.896-7.0146 13.896-21.044 0-13.94-4.632-20.9107-13.896-20.9107s-13.8973 6.9707-13.8973 20.9107c0 14.0293 4.6333 21.044 13.8973 21.044zm0 14.8227c-10.5013 0-18.7066-3.1533-24.6173-9.4627s-8.868-15.1093-8.868-26.404c0-11.204 2.9546-19.9627 8.868-26.272S699.3573.5 709.8586.5s18.704 3.156 24.6173 9.4627 8.8667 15.068 8.8667 26.272c0 11.2946-2.9572 20.0973-8.8667 26.404s-14.1186 9.4627-24.6173 9.4627M766.9 70.116c-1.1467 0-1.984-.264-2.5147-.7934s-.7933-1.3666-.7933-2.5146V5.7947c0-1.236.264-2.096.7933-2.5814s1.368-.728 2.5147-.728h9.5306c2.028 0 3.2628.972 3.7054 2.912l1.1907 4.3667c7.94-6.1747 16.412-9.264 25.412-9.264 6.2626 0 11.0933 1.7 14.492 5.096s5.0948 8.228 5.0948 14.492v46.72c0 1.148-.2426 1.9853-.728 2.5146s-1.3453.7934-2.58.7934H810.312c-1.148 0-1.9866-.264-2.5147-.7934s-.7946-1.3666-.7946-2.5146V25.78c0-3.6173-.7946-6.2654-2.3827-7.9427s-4.016-2.5133-7.2786-2.5133c-4.8547 0-9.6614 1.5013-14.4267 4.4987V66.808c0 1.148-.244 1.9853-.728 2.5146s-1.3467.7934-2.5813.7934H766.9" fill="#232b39"/><g stroke="#232b39"><path d="M950.5 347.1666h200V480.5h-200z" stroke-width="2" fill="#fefefe"/><path d="M1010.5 413.8333c0-22.16 17.84-40 40-40s40 17.84 40 40-17.84 40-40 40-40-17.84-40-40z" fill="#bc002d"/></g></svg>