<svg xmlns="http://www.w3.org/2000/svg" xmlns:xlink="http://www.w3.org/1999/xlink" viewBox="0 0 1119 573"><path d="M52.2426 259.0102c7.972 0 13.8453-2.7033 17.6202-8.1173s5.66-13.95 5.66-25.6282c0-11.8177-1.8514-20.4303-5.553-25.8432s-9.61-8.116-17.727-8.116c-7.406 0-14.3832 1.9222-20.9307 5.7654v56.1725c6.2645 3.8445 13.2418 5.7667 20.9307 5.7667zm-46.774 65.1404c-1.8527 0-3.205-.3935-4.058-1.1733s-1.2815-2.173-1.2815-4.165V176.355c0-1.993.4272-3.3813 1.2815-4.1648s2.2053-1.1745 4.058-1.1745h15.3777c3.2744 0 5.2662 1.5683 5.9802 4.6986l1.495 5.5532c4.2716-4.129 9.43-7.402 15.4847-9.8247s12.2074-3.631 18.4746-3.631c13.8092 0 24.74 5.0564 32.7844 15.164s12.067 23.781 12.067 41.006c0 11.8217-1.9956 22.143-5.9802 30.9704s-9.3974 15.6273-16.232 20.397-14.6674 7.1547-23.4936 7.1547c-5.84 0-11.3943-.9277-16.659-2.7765-5.27-1.85-9.754-4.4118-13.4555-7.689v46.774c0 1.9917-.3938 3.381-1.1748 4.165s-2.173 1.1733-4.165 1.1733H5.4687m127.5044-43.996c-1.8516 0-3.2038-.427-4.0568-1.2813s-1.2815-2.2054-1.2815-4.0582v-98.46c0-1.993.4272-3.3813 1.2815-4.1648s2.2052-1.1747 4.0568-1.1747h15.3776c3.2745 0 5.266 1.5685 5.9816 4.6988l2.7753 11.5333c5.6945-6.2633 11.07-10.7124 16.1252-13.3486s10.4293-3.9514 16.1264-3.9514h2.99c1.9917 0 3.4173.3938 4.2703 1.1747s1.2816 2.172 1.2816 4.1648v17.9406c0 1.8527-.3925 3.2038-1.175 4.0568s-2.1717 1.283-4.1635 1.283c-.9984 0-2.28-.0695-3.8456-.2137s-3.56-.2135-5.98-.2135c-3.2782 0-7.263.4644-11.9616 1.388s-8.686 2.1025-11.9605 3.524v71.7627c0 1.8528-.3924 3.2036-1.1746 4.0582s-2.172 1.2813-4.1635 1.2813h-20.505m83.993 0c-1.8527 0-3.205-.427-4.0592-1.2813s-1.2815-2.2054-1.2815-4.0582v-98.46c0-1.993.427-3.3813 1.2815-4.1648s2.2065-1.1747 4.0592-1.1747h20.5024c1.993 0 3.3812.3937 4.1647 1.1747s1.1748 2.172 1.1748 4.1648v98.46c0 1.8528-.3937 3.2038-1.1748 4.0582s-2.1718 1.2816-4.1647 1.2816zm10.2506-126.0116c-5.4127 0-9.7552-1.495-13.0283-4.485s-4.9124-7.0482-4.9124-12.174 1.6354-9.184 4.9124-12.174 7.6156-4.4853 13.0283-4.4853 9.7513 1.495 13.0284 4.4853 4.9136 7.048 4.9136 12.174-1.6405 9.184-4.9136 12.174-7.6193 4.485-13.0284 4.485m46.9347 126.0116c-1.853 0-3.2038-.427-4.0568-1.2813s-1.2827-2.2054-1.2827-4.0582v-98.46c0-1.993.4272-3.3813 1.2827-4.1648s2.204-1.1745 4.0568-1.1745H289.53c3.2745 0 5.266 1.5683 5.9804 4.6986l1.7098 5.7666c7.5447-4.983 14.342-8.5072 20.3955-10.5734 6.0498-2.061 12.281-3.0956 18.6883-3.0956 12.8148 0 21.8558 4.5584 27.1258 13.67 7.2605-4.84 14.095-8.3295 20.5024-10.4652s13.0283-3.2038 19.8642-3.2038c9.9636 0 17.6897 2.7753 23.172 8.3295s8.2228 13.3154 8.2228 23.2802v75.3934c0 1.8528-.3937 3.2038-1.1732 4.0582-.7863.8542-2.1745 1.2813-4.1663 1.2813H409.347c-1.8514 0-3.2036-.427-4.058-1.2813s-1.2803-2.2054-1.2803-4.0582v-68.559c0-9.6804-4.3462-14.5234-13.0296-14.5234-7.6888 0-15.45 1.8516-23.28 5.5518v77.5305c0 1.8528-.3938 3.2038-1.1748 4.0582s-2.173 1.2813-4.1647 1.2813H341.856c-1.8527 0-3.2035-.427-4.058-1.2813s-1.2814-2.2054-1.2814-4.0582v-68.559c0-9.6804-4.345-14.5234-13.0272-14.5234-7.9768 0-15.806 1.9222-23.495 5.7655v77.3168c0 1.8528-.3938 3.2038-1.1747 4.0582s-2.173 1.2813-4.1648 1.2813h-20.5035M521.466 203.522c0-10.415-7.3453-13.399-16.3928-13.399-5.9505 0-11.72 2.1487-15.6594 6.46-3.8407 4.2046-6.213 10.598-7.218 18.6393 0 0 16.0068 2.9038 27.5788.9907 6.0034-.9907 11.6914-4.3282 11.6914-12.6912zm-12.978 80.046c-17.4066 0-30.6485-4.0683-41.289-14.8965-6.9838-7.1074-13.5636-20.2926-13.5636-42.896 0-18.2238 5.7743-32.1515 15.172-42.263s23.7483-14.849 37.312-14.849c16.9396 0 26.9828 3.8455 34.6732 11.5344 1.261 1.261 8.988 9.252 8.988 22.0772 0 4.4158.1353 8.9884-2.8924 15.3996-2.0495 4.3423-5.1566 7.0636-5.9775 7.8137-12.5974 11.5256-37.285 10.7626-45.6364 10.2865l-13.5212-2.0573c.8853 9.368 3.5114 16.7262 9.2483 20.9076 5.3936 3.932 11.3107 5.589 23.3998 5.589 6.0587 0 14.145-1.2132 24.5424-3.92.5596-.152 1.6495-.4273 2.0275-.485.243-.0375 1.256-.1507 1.9674.0913 1.14.387 2.423 1.468 2.423 4.561v9.826c0 2.2786-.255 3.8816-.8958 4.807s-1.9207 1.8218-3.7684 2.532c-10.823 3.9848-20.928 5.9404-32.209 5.9404" fill="#4aaae4"/><path d="M967.583 203.522c0-10.415-7.3455-13.399-16.3916-13.399-5.95 0-11.72 2.1487-15.6585 6.46-3.843 4.2046-6.2142 10.598-7.22 18.6393 0 0 16.0065 2.9038 27.579.9907 6.0045-.9907 11.6913-4.3282 11.6913-12.6912zm-12.977 80.046c-17.4067 0-30.6487-4.0683-41.2905-14.8965-6.9822-7.1074-13.5622-20.2926-13.5622-42.896 0-18.2238 5.773-32.1515 15.1707-42.263s23.7482-14.849 37.312-14.849c16.94 0 26.9844 3.8455 34.6733 11.5344 1.2623 1.261 8.9896 9.252 8.9896 22.0772 0 4.4158.1352 8.9884-2.8924 15.3996-2.0507 4.3423-5.158 7.0636-5.978 7.8137-12.5984 11.5256-37.285 10.7626-45.6375 10.2865l-13.5197-2.0573c.8837 9.368 3.511 16.7262 9.2468 20.9076 5.3948 3.932 11.312 5.589 23.401 5.589 6.06 0 14.1465-1.2132 24.54-3.92.56-.152 1.65-.4273 2.0278-.485.2447-.0375 1.257-.1507 1.9686.0913 1.1385.387 2.4213 1.468 2.4213 4.561v9.826c0 2.2786-.2548 3.8816-.8953 4.807s-1.9196 1.8218-3.7685 2.532c-10.8233 3.9848-20.9267 5.9404-32.208 5.9404M643.8 280.1544c-1.4253 0-2.6-.1774-3.5227-.534-.9288-.354-1.7098-.9237-2.3507-1.7086s-1.2464-1.885-1.815-3.3104l-36.5222-95.043-1.0678-3c-.2872-.8544-.4274-1.6353-.4274-2.3494 0-2.1357 1.422-3.2036 4.273-3.2036h21.3567c2.2755 0 3.9523.427 5.0202 1.2813s1.885 2.2788 2.4548 4.2717l21.9988 75.607 22.4257-75.607c.5687-1.993 1.388-3.4173 2.4563-4.2717s2.739-1.2813 5.019-1.2813h20.717c2.846 0 4.273 1.068 4.273 3.2036 0 .714-.1455 1.495-.4274 2.3494l-1.07 3-36.5222 95.043c-.5713 1.4254-1.1733 2.5294-1.8138 3.3104s-1.3886 1.355-2.244 1.7086-2.065.534-3.631.534H643.8m82.8996 0c-1.8515 0-3.2024-.427-4.0567-1.2813s-1.2814-2.2054-1.2814-4.0582v-98.46c0-1.993.427-3.3813 1.2814-4.1648s2.2052-1.1747 4.0567-1.1747h20.505c1.9928 0 3.3798.3937 4.1647 1.1747s1.1735 2.172 1.1735 4.1648v98.46c0 1.8528-.3925 3.2038-1.1735 4.0582s-2.172 1.2816-4.1647 1.2816zm10.253-126.0116c-5.413 0-9.755-1.4952-13.0285-4.485s-4.9123-7.0482-4.9123-12.1742 1.6343-9.184 4.9123-12.174 7.6155-4.485 13.0285-4.485 9.7498 1.495 13.0282 4.485c3.273 2.99 4.9126 7.0482 4.9126 12.174s-1.6395 9.184-4.9126 12.1742-7.6194 4.485-13.0282 4.485m91.1534 104.8674c6.8345 0 13.3823-1.993 19.6492-5.9804V196.645c-6.123-3.5575-13.1725-5.3395-21.144-5.3395-7.5487 0-13.1726 2.8138-16.873 8.4363s-5.553 14.1322-5.553 25.5228 1.9556 19.8628 5.8733 25.4146 9.9318 8.331 18.0476 8.331zm-10.252 23.4936c-9.257 0-17.3-2.3828-24.1345-7.1547s-12.067-11.3894-15.698-19.8628-5.4464-18.2624-5.4464-29.3672c0-17.654 4.1985-31.7862 12.601-42.397 8.4004-10.6044 19.5068-15.9104 33.3186-15.9104 11.2465 0 21 3.2038 29.2607 9.611v-49.9777c0-1.993.427-3.381 1.2813-4.1646s2.2052-1.1747 4.058-1.1747h20.5038c1.9918 0 3.38.3924 4.1648 1.1747s1.1745 2.1717 1.1745 4.1646V274.815c0 1.8528-.3935 3.2038-1.1745 4.0582s-2.173 1.2813-4.1648 1.2813h-17.087c-1.7087 0-3.0273-.3536-3.9512-1.0678s-1.602-1.9235-2.0294-3.6307l-1.2813-4.9124c-8.83 7.9758-19.2955 11.9603-31.396 11.9603m246.8933-23.0664c14.9466 0 22.422-11.3198 22.422-33.9593 0-22.4963-7.4755-33.7455-22.422-33.7455s-22.4256 11.2492-22.4256 33.7455c0 22.6395 7.4753 33.9593 22.4256 33.9593zm0 23.9208c-16.9462 0-30.1883-5.0885-39.7256-15.27s-14.3-24.3814-14.3-42.609c0-18.08 4.7695-32.2144 14.3-42.3955s22.7794-15.2708 39.7256-15.2708c16.94 0 30.1804 5.0926 39.727 15.2708 9.534 10.181 14.3072 24.3145 14.3072 42.3955 0 18.2277-4.7732 32.4306-14.3072 42.609-9.5465 10.1825-22.786 15.27-39.727 15.27" fill="#232b39"/><path d="M271.5408 339.5082v1.7522c.22 1.495 1.0075 3.0865 2.5012 4.538C350.232 419.927 450.8727 464.47 562.6366 464.47c79.7538 0 172.3713-27.027 236.2585-77.8162 10.5607-8.4506 1.5157-21.0312-9.2753-16.1125-71.6186 32.746-149.436 48.596-220.2672 48.596-104.9535 0-206.5864-31.0385-288.741-82.5627-1.4823-.925-2.8858-1.3277-4.125-1.3277-2.6594 0-4.5714 1.8436-4.9458 4.2614m474.658 8.0064c-2.2747 1.7214-3.47 3.6862-3.6848 5.3716v1.046c.2662 1.9428 2.0764 3.2475 5.2636 2.842 20.5602-2.657 66.4-8.5483 74.5764 2.707 8.1767 11.2322-9.077 57.5556-16.7852 78.1892-2.3146 6.2143 2.6774 8.7828 7.9232 4.0165 34.2896-30.7615 43.1402-95.2615 36.0997-104.5637-3.3502-4.4594-19.083-8.6292-38.5613-8.6292-20.8253 0-45.9414 4.7578-64.8316 19.0214" fill="#4aaae4"/><path d="M411.4827.1292l11.9 39.7272L435.3553.1292h12.1176l-18.394 52.8245H417.723L399.4012.1292h12.0815zm72.7413 21.4056v8.526h-20.8974V44.21h24.5255v8.7425h-35.4096V.1292h35.337v8.8162h-24.453v12.5894h20.8976zm39.4742 31.419l-9.9047-19.3376h-8.671v19.3376h-10.884V.1292h19.628q9.3603 0 14.4398 4.1723 5.079 4.1723 5.079 11.7912 0 5.4058-2.3402 9.0156-2.3397 3.609-7.0926 5.7506l11.4283 21.587v.508h-11.6822zM505.1227 8.9454V24.8h8.78q4.0996 0 6.35-2.0864 2.2483-2.086 2.2483-5.7503 0-3.737-2.1224-5.8776-2.1224-2.1404-6.5123-2.1404h-8.7428zm86.818 12.5894v8.526H571.044V44.21h24.5258v8.7425h-35.4095V.1292h35.337v8.8162h-24.4528v12.5894h20.8975zM644.92.1292v52.8245h-10.8845L612.848 18.197v34.7568h-10.884V.1292h10.884l21.224 34.8294V.1292h10.848z" fill="#232b39"/><g fill="#4f4f4f"><path d="M351.675 519.704v44.064h20.844v7.992h-30.528v-52.056h9.684z"/><use xlink:href="#B"/><path d="M428.535 572.336q-4.788 0-7.38-2.718-2.592-2.718-2.592-7.506v-20.628h-3.744q-.72 0-1.242-.468-.522-.468-.522-1.404v-3.528l5.94-.972 1.872-10.08q.144-.72.666-1.116.522-.396 1.314-.396h4.608v11.628h9.72v6.336h-9.72V561.5q0 1.728.864 2.7.864.972 2.304.972.828 0 1.386-.198.558-.198.972-.414.414-.216.738-.414.324-.198.648-.198.396 0 .648.198.252.198.54.594l2.664 4.32q-1.944 1.62-4.464 2.448-2.52.828-5.22.828z"/><use xlink:href="#C"/><path d="M472.67 571.76h-8.892v-36.936h5.436q1.728 0 2.268 1.62l.612 2.916q1.116-1.152 2.358-2.088 1.242-.936 2.628-1.62 1.386-.684 2.97-1.044 1.584-.36 3.456-.36 3.024 0 5.364 1.026 2.34 1.026 3.906 2.88 1.566 1.854 2.376 4.428.8 2.574.8 5.67v23.508h-8.892v-23.508q0-3.384-1.566-5.238-1.566-1.854-4.698-1.854-2.304 0-4.32 1.044-2.016 1.044-3.816 2.844v26.712zm71.748-52.056l20.448 52.056h-7.488q-1.26 0-2.07-.63-.8-.63-1.17-1.566l-3.888-10.62h-21.564l-3.888 10.62q-.288.828-1.134 1.512-.846.684-2.07.684h-7.524l20.448-52.056h9.9zm-6.912 15.156l-6.336 17.244h16.596l-6.336-17.316q-.432-1.152-.954-2.718-.522-1.566-1.026-3.402-.504 1.836-1 3.42-.486 1.584-.954 2.772zm41.114 36.9h-8.892v-36.936h5.436q1.728 0 2.268 1.62l.576 2.736q.972-1.08 2.034-1.98 1.062-.9 2.268-1.548 1.206-.648 2.592-1.026 1.386-.378 3.042-.378 3.492 0 5.742 1.9 2.25 1.9 3.366 5.022.864-1.836 2.16-3.15 1.296-1.314 2.844-2.142 1.548-.828 3.294-1.224 1.746-.396 3.5-.396 3.06 0 5.436.936 2.376.936 3.996 2.736 1.62 1.8 2.466 4.392.846 2.592.846 5.94v23.508H612.7v-23.508q0-3.528-1.548-5.3-1.548-1.782-4.536-1.782-1.368 0-2.538.468-1.17.468-2.052 1.35-.882.882-1.386 2.214-.504 1.332-.504 3.06v23.508h-8.928v-23.508q0-3.708-1.494-5.4-1.494-1.692-4.4-1.692-1.908 0-3.582.954-1.674.954-3.114 2.6v27.036zm66.996-37.512q3.492 0 6.426 1.116 2.934 1.116 5.058 3.258 2.124 2.142 3.312 5.256 1.188 3.114 1.188 7.1 0 1.008-.1 1.674-.1.666-.324 1.044-.234.378-.63.54-.396.162-1.008.162h-22.824q.396 5.688 3.06 8.352 2.664 2.664 7.056 2.664 2.16 0 3.726-.504 1.566-.504 2.736-1.116 1.17-.612 2.052-1.116.882-.504 1.7-.504.54 0 .936.216.396.216.684.612l2.592 3.24q-1.476 1.728-3.312 2.898-1.836 1.17-3.834 1.872-1.998.702-4.068 1-2.07.288-4.014.288-3.852 0-7.164-1.278-3.312-1.278-5.76-3.78-2.448-2.502-3.852-6.192-1.404-3.7-1.404-8.55 0-3.78 1.224-7.1 1.224-3.33 3.5-5.796 2.286-2.466 5.58-3.906 3.294-1.44 7.434-1.44zm.18 6.372q-3.888 0-6.084 2.196-2.196 2.196-2.808 6.228h16.704q0-1.728-.468-3.258-.468-1.53-1.44-2.682-.972-1.152-2.448-1.818-1.476-.666-3.456-.666zm31.93 31.14h-8.892v-36.936h5.22q1.368 0 1.908.504.54.504.72 1.728l.54 4.464q1.98-3.42 4.644-5.4 2.664-1.98 5.976-1.98 2.736 0 4.536 1.26l-1.152 6.66q-.108.648-.468.918-.36.27-.972.27-.54 0-1.476-.252-.936-.252-2.484-.252-2.772 0-4.752 1.53-1.98 1.53-3.348 4.482v23.004z"/><use xlink:href="#C" x="253.98"/><path d="M746.055 539.396l-2.34 3.24q-.396.504-.774.792-.378.288-1.098.288-.684 0-1.332-.414-.648-.414-1.548-.936-.9-.522-2.142-.936-1.242-.414-3.078-.414-2.34 0-4.104.846-1.764.846-2.934 2.43-1.17 1.584-1.746 3.834-.576 2.25-.576 5.094 0 2.952.63 5.256.63 2.304 1.818 3.87 1.188 1.566 2.88 2.376 1.692.8 3.816.8 2.124 0 3.438-.522 1.314-.522 2.214-1.152.9-.63 1.566-1.152.666-.522 1.494-.522 1.08 0 1.62.828l2.556 3.24q-1.476 1.728-3.204 2.898-1.728 1.17-3.582 1.872-1.854.702-3.834 1-1.98.288-3.924.288-3.42 0-6.444-1.278-3.024-1.278-5.274-3.726-2.25-2.448-3.564-5.994-1.314-3.546-1.314-8.082 0-4.068 1.17-7.542 1.17-3.474 3.438-6.012 2.268-2.538 5.616-3.978 3.348-1.44 7.704-1.44 4.14 0 7.254 1.332 3.114 1.332 5.598 3.816z"/><use xlink:href="#B" x="373.392"/></g><defs ><path id="B" d="M407.655 548.432v23.328h-3.996q-1.26 0-1.98-.378-.72-.378-1.08-1.53l-.792-2.628q-1.404 1.26-2.754 2.214-1.35.954-2.8 1.602-1.44.648-3.06.972-1.62.324-3.6.324-2.34 0-4.32-.63-1.98-.63-3.402-1.9-1.422-1.26-2.214-3.132-.792-1.872-.792-4.356 0-2.088 1.098-4.122 1.098-2.034 3.654-3.672 2.556-1.638 6.804-2.718 4.248-1.08 10.548-1.224v-2.16q0-3.708-1.566-5.5-1.566-1.782-4.554-1.782-2.16 0-3.6.504-1.44.504-2.502 1.134-1.062.63-1.962 1.134-.9.504-1.98.504-.9 0-1.548-.468-.648-.468-1.044-1.152l-1.62-2.844q6.372-5.832 15.372-5.832 3.24 0 5.778 1.062 2.538 1.062 4.302 2.952 1.764 1.9 2.682 4.518.918 2.628.918 5.76zm-17.28 17.784q1.368 0 2.52-.252 1.152-.252 2.178-.756 1.026-.504 1.98-1.242.954-.738 1.926-1.746v-6.228q-3.888.18-6.498.666-2.6.486-4.194 1.242-1.584.756-2.25 1.764-.666 1.008-.666 2.196 0 2.34 1.386 3.348 1.386 1.008 3.618 1.008z"/><path id="C" d="M444.843 534.824h8.892v36.936h-8.892v-36.936zm10.224-10.764q0 1.152-.468 2.16-.468 1.008-1.242 1.764-.774.756-1.818 1.206-1.044.45-2.232.45-1.152 0-2.178-.45-1.026-.45-1.782-1.206-.756-.756-1.206-1.764-.45-1.008-.45-2.16 0-1.188.45-2.232.45-1.044 1.206-1.8.756-.756 1.782-1.206 1.026-.45 2.178-.45 1.188 0 2.232.45 1.044.45 1.818 1.206.774.756 1.242 1.8.468 1.044.468 2.232z"/></defs></svg>