<svg xmlns="http://www.w3.org/2000/svg" xmlns:xlink="http://www.w3.org/1999/xlink" viewBox="0 0 1161 483"><style><![CDATA[.B{fill:#ad1519}.C{fill:#c8b100}.D{fill:#058e6e}.E{fill:#005bbf}.F{fill:#ccc}]]></style><path d="M54.5053 268.7795c8.2614 0 14.348-2.8013 18.26-8.412 3.908-5.6053 5.8654-14.4573 5.8654-26.5586 0-12.2467-1.9187-21.172-5.7547-26.7814s-9.96-8.4106-18.3707-8.4106c-7.6746 0-14.9053 1.992-21.6906 5.9746v58.212c6.492 3.984 13.7226 5.976 21.6906 5.976zM6.0333 336.285c-1.92 0-3.3213-.408-4.2053-1.216S.5 332.817.5 330.753V183.1235c0-2.0653.4427-3.504 1.328-4.316s2.2853-1.2173 4.2053-1.2173h15.936c3.3934 0 5.4574 1.6254 6.1974 4.8693l1.5493 5.7547c4.4267-4.2787 9.7733-7.6707 16.0467-10.1813s12.6506-3.7627 19.1453-3.7627c14.3107 0 25.6373 5.24 33.9747 15.7147s12.5053 24.644 12.5053 42.4946c0 12.2507-2.068 22.9467-6.1973 32.0947s-9.7387 16.1947-16.8214 21.1374-15.2 7.4146-24.3466 7.4146c-6.052 0-11.808-.9614-17.264-2.8774-5.4614-1.916-10.108-4.572-13.944-7.968v48.472c0 2.064-.408 3.504-1.2174 4.316s-2.252 1.216-4.316 1.216H6.0333m132.1334-45.5933c-1.9187 0-3.32-.4427-4.204-1.328s-1.328-2.2853-1.328-4.2054V183.1235c0-2.0653.4427-3.504 1.328-4.316s2.2853-1.2174 4.204-1.2174h15.936c3.3934 0 5.4573 1.6254 6.1987 4.8694l2.876 11.952c5.9013-6.4907 11.472-11.1013 16.7106-13.8333s10.808-4.0947 16.712-4.0947h3.0987c2.064 0 3.5413.408 4.4253 1.2173s1.328 2.2507 1.328 4.316v18.592c0 1.92-.4067 3.32-1.2173 4.204s-2.2507 1.3294-4.3147 1.3294c-1.0346 0-2.3627-.072-3.9853-.2214s-3.6894-.2213-6.196-.2213c-3.3973 0-7.5267.4813-12.396 1.4386s-9.0013 2.1787-12.3947 3.652v74.368c0 1.92-.4066 3.32-1.2173 4.2054s-2.2507 1.328-4.3147 1.328h-21.2493m87.0427 0c-1.92 0-3.3214-.4426-4.2067-1.328s-1.328-2.2854-1.328-4.2054V183.1235c0-2.0653.4426-3.504 1.328-4.316s2.2866-1.2174 4.2067-1.2174h21.2466c2.0653 0 3.504.408 4.316 1.2174s1.2173 2.2506 1.2173 4.316v102.0347c0 1.92-.408 3.32-1.2173 4.2054s-2.2507 1.328-4.316 1.328zM235.832 160.105c-5.6093 0-10.1093-1.5494-13.5013-4.648s-5.0907-7.304-5.0907-12.616 1.6947-9.5174 5.0907-12.616 7.892-4.648 13.5013-4.648 10.1054 1.5493 13.5014 4.648 5.092 7.304 5.092 12.616-1.7 9.5173-5.092 12.616-7.896 4.648-13.5014 4.648m48.6386 130.5865c-1.92 0-3.32-.4427-4.204-1.328s-1.3293-2.2853-1.3293-4.2053V183.1235c0-2.0653.4427-3.504 1.3293-4.316s2.284-1.2173 4.204-1.2173h15.936c3.3933 0 5.4573 1.6254 6.1973 4.8693l1.772 5.976c7.8186-5.164 14.8626-8.816 21.136-10.9573 6.2694-2.136 12.7267-3.208 19.3667-3.208 13.28 0 22.6494 4.724 28.1107 14.1653 7.524-5.0147 14.6066-8.632 21.2467-10.8453s13.5013-3.32 20.5853-3.32c10.3254 0 18.332 2.876 24.0133 8.632s8.5214 13.7987 8.5214 24.1253v78.1307c0 1.92-.408 3.32-1.216 4.2053-.8147.8853-2.2534 1.328-4.3174 1.328h-21.248c-1.9187 0-3.32-.4427-4.2054-1.328s-1.3267-2.2853-1.3267-4.2053v-71.048c0-10.032-4.504-15.0507-13.5027-15.0507-7.968 0-16.012 1.9187-24.1253 5.7534v80.3453c0 1.92-.408 3.32-1.2173 4.2053s-2.252 1.328-4.316 1.328h-21.248c-1.92 0-3.32-.4427-4.2053-1.328s-1.328-2.2853-1.328-4.2053v-71.048c0-10.032-4.5027-15.0507-13.5-15.0507-8.2666 0-16.38 1.992-24.348 5.9747v80.124c0 1.92-.408 3.32-1.2173 4.2053s-2.252 1.328-4.316 1.328h-21.248M540.764 211.277c0-10.7933-7.612-13.8854-16.988-13.8854-6.1666 0-12.1466 2.2267-16.228 6.6947-3.98 4.3573-6.4386 10.9827-7.48 19.316 0 0 16.588 3.0093 28.58 1.0267 6.2214-1.0267 12.116-4.4853 12.116-13.152zm-13.4493 82.952c-18.0387 0-31.7613-4.216-42.788-15.4374-7.2373-7.3653-14.056-21.0293-14.056-44.4533 0-18.8853 5.984-33.3187 15.7227-43.7973s24.6106-15.388 38.6667-15.388c17.5546 0 27.9626 3.9853 35.932 11.9533 1.3066 1.3067 9.3146 9.588 9.3146 22.8787 0 4.576.14 9.3146-2.9974 15.9586-2.124 4.5-5.344 7.32-6.1946 8.0974-13.0546 11.944-38.6387 11.1533-47.2933 10.66l-14.012-2.132c.9174 9.708 3.6388 17.3333 9.584 21.6666 5.5893 4.0747 11.7213 5.792 24.2493 5.792 6.2787 0 14.6587-1.2573 25.4333-4.0613.58-.1573 1.7094-.4427 2.1014-.5027.252-.0387 1.3013-.156 2.0387.0947 1.1813.4013 2.5107 1.5214 2.5107 4.7267v10.1826c0 2.3614-.264 4.0227-.928 4.9814s-1.9906 1.888-3.9053 2.624c-11.216 4.1293-21.688 6.156-33.3787 6.156" fill="#4aaae4"/><path d="M1003.0773 211.277c0-10.7933-7.612-13.8854-16.9867-13.8854-6.1667 0-12.1466 2.2267-16.2267 6.6947-3.9826 4.3573-6.44 10.9827-7.4825 19.316 0 0 16.5878 3.0093 28.58 1.0267 6.2226-1.0267 12.116-4.4853 12.116-13.152zm-13.448 82.952c-18.0387 0-31.7614-4.216-42.7893-15.4374-7.236-7.3653-14.0548-21.0293-14.0548-44.4533 0-18.8853 5.9828-33.3187 15.7214-43.7973s24.6106-15.388 38.6667-15.388c17.556 0 27.964 3.9853 35.932 11.9533 1.308 1.3067 9.316 9.588 9.316 22.8787 0 4.576.14 9.3146-2.9975 15.9586-2.1252 4.5-5.3452 7.32-6.1947 8.0974-13.056 11.944-38.6386 11.1533-47.2946 10.66l-14.0107-2.132c.916 9.708 3.6387 17.3333 9.5827 21.6666 5.5907 4.0747 11.7226 5.792 24.2506 5.792 6.28 0 14.66-1.2573 25.432-4.0613.58-.1573 1.7106-.4427 2.1013-.5027.2534-.0387 1.3027-.156 2.04.0947 1.18.4013 2.5093 1.5214 2.5093 4.7267v10.1826c0 2.3614-.264 4.0227-.928 4.9814s-1.9892 1.888-3.9053 2.624c-11.216 4.1293-21.6865 6.156-33.3773 6.156m-322.1-3.5375c-1.4772 0-2.6946-.184-3.6506-.5533-.9627-.3667-1.772-.9573-2.436-1.7706s-1.292-1.9534-1.8813-3.4307l-37.848-98.4934-1.1067-3.0986c-.2973-.8854-.4427-1.6947-.4427-2.4347 0-2.2133 1.4734-3.32 4.428-3.32h22.132c2.3585 0 4.096.4427 5.2026 1.328s1.9533 2.3614 2.544 4.4267l22.7973 78.352 23.24-78.352c.5893-2.0653 1.4386-3.5413 2.5454-4.4267s2.8387-1.328 5.2013-1.328h21.4693c2.9494 0 4.428 1.1067 4.428 3.32 0 .74-.1506 1.5493-.4427 2.4347l-1.108 3.0986-37.848 98.4934c-.592 1.4773-1.216 2.6213-1.88 3.4307s-1.4387 1.404-2.3254 1.7706-2.14.5533-3.7627.5533h-19.256m85.9093 0c-1.9186 0-3.3186-.4426-4.204-1.328s-1.328-2.2854-1.328-4.2054V183.1235c0-2.0653.4426-3.504 1.328-4.316s2.2853-1.2174 4.204-1.2174h21.2494c2.0653 0 3.5026.408 4.316 1.2174s1.216 2.2506 1.216 4.316v102.0347c0 1.92-.4067 3.32-1.216 4.2054s-2.2507 1.328-4.316 1.328zm10.6253-130.5866c-5.6092 0-10.1092-1.5494-13.5013-4.648-3.3973-3.0987-5.0906-7.304-5.0906-12.616s1.6933-9.5174 5.0906-12.616c3.392-3.0987 7.892-4.648 13.5013-4.648s10.104 1.5493 13.5014 4.648c3.392 3.0986 5.0908 7.304 5.0908 12.616s-1.6988 9.5173-5.0908 12.616c-3.3973 3.0986-7.896 4.648-13.5014 4.648m94.4628 108.6746c7.0827 0 13.868-2.0653 20.3628-6.1973v-58.432c-6.3454-3.6866-13.6508-5.5333-21.912-5.5333-7.8227 0-13.6507 2.916-17.4853 8.7426s-5.7547 14.6454-5.7547 26.4494 2.0266 20.584 6.0867 26.3373 10.292 8.6333 18.7026 8.6333zm-10.624 24.3467c-9.5933 0-17.928-2.4693-25.0106-7.4146s-12.5054-11.8027-16.268-20.584-5.644-18.9254-5.644-30.4334c0-18.2946 4.3506-32.94 13.0586-43.936 8.7053-10.9893 20.2147-16.488 34.528-16.488 11.6548 0 21.7627 3.32 30.323 9.96v-51.792c0-2.0653.4425-3.504 1.328-4.316s2.2852-1.2173 4.2053-1.2173h21.248c2.064 0 3.5028.4067 4.316 1.2173s1.2174 2.2507 1.2174 4.316v152.72c0 1.92-.408 3.32-1.2174 4.2053s-2.252 1.328-4.316 1.328H887.963c-1.7706 0-3.1372-.3666-4.0946-1.1066s-1.66-1.9934-2.1027-3.7627l-1.328-5.0906c-9.1508 8.2653-19.996 12.3946-32.536 12.3946m255.857-23.904c15.4893 0 23.236-11.7307 23.236-35.192 0-23.3133-7.7466-34.9707-23.236-34.9707s-23.24 11.6574-23.24 34.9707c0 23.4613 7.7467 35.192 23.24 35.192zm0 24.7893c-17.5615 0-31.2842-5.2733-41.168-15.8253s-14.8293-25.2667-14.8293-44.156c0-18.7374 4.9427-33.384 14.8293-43.9347s23.6066-15.8253 41.168-15.8253c17.556 0 31.276 5.2774 41.1692 15.8253 9.88 10.5507 14.8267 25.1973 14.8267 43.9347 0 18.8893-4.9467 33.608-14.8267 44.156-9.8933 10.552-23.6133 15.8253-41.1692 15.8253" fill="#232b39"/><path d="M281.7653 352.2v1.816c.228 1.5493 1.044 3.1986 2.592 4.7026 78.956 76.82 183.2506 122.98 299.072 122.98 82.6493 0 178.6293-28.008 244.836-80.6413 10.944-8.7573 1.5707-21.7946-9.612-16.6973-74.2188 33.9347-154.8614 50.36-228.264 50.36-108.764 0-214.0866-32.1653-299.224-85.56-1.536-.9587-2.9906-1.376-4.2747-1.376-2.756 0-4.7373 1.9106-5.1253 4.416m491.8907 8.2972c-2.3574 1.784-3.596 3.82-3.8187 5.5666v1.084c.276 2.0132 2.152 3.3653 5.4547 2.9453 21.3066-2.7533 68.8213-8.8587 77.284 2.8053 8.4734 11.64-9.4066 59.6453-17.3947 81.028-2.3985 6.44 2.7748 9.1015 8.2108 4.1624 35.5347-31.8784 44.7066-98.72 37.4106-108.36-3.472-4.6213-19.776-8.9426-39.9613-8.9426-21.5813 0-47.6093 4.9306-67.1853 19.712" fill="#4aaae4"/><path d="M426.7877.5l12.332 41.1694L451.527.5h12.5576l-19.062 54.7422h-11.768L414.2677.5h12.52zM502.17 22.6826v8.8355h-21.6562v14.663h25.416v9.06h-36.6953V.5h36.62v9.1362h-25.3408v13.0464H502.17zm40.9073 32.5596L532.813 35.2026h-8.9858v20.0396H512.548V.5h20.3403q9.7002 0 14.964 4.3237 5.2637 4.3238 5.2637 12.2193 0 5.602-2.425 9.343-2.425 3.74-7.3503 5.9592l11.8432 22.3706v.5264h-12.1064zm-19.25-45.606v16.4302h9.0986q4.2486 0 6.5796-2.162 2.33-2.1618 2.33-5.9592 0-3.8725-2.1995-6.0908-2.1995-2.2183-6.7488-2.2183h-9.06zm89.97 13.0464v8.8355H592.142v14.663h25.416v9.06h-36.695V.5h36.62v9.1362h-25.3408v13.0464h21.6562zM668.7.5v54.7422h-11.2793l-21.957-36.0186v36.0186h-11.2793V.5h11.2793l21.9946 36.0938V.5H668.7z" fill="#232b39"/><path d="M1000.5 370.5h151.5152v100H1000.5z" fill="#c60b1e"/><path d="M1000.5 395.5h151.5152v50H1000.5z" fill="#ffc400"/><path d="M1034.4374 414.948s-.103 0-.1596-.032-.2283-.192-.2283-.192l-.1373-.098-.1253-.17s-.1475-.236-.0808-.418.1838-.246.287-.3.3192-.118.3192-.118.1717-.074.2282-.084l.2627-.064s.0566-.032.113-.054.1374-.022.1838-.032.1596-.048.2283-.052c.105-.004.2748.02.3313.02l.3314.01.4444-.022c.0788 0 .1374-.01.2283 0s.2505.064.297.086.3192.118.4223.15.3535.074.4687.128.1838.144.2404.22.0686.156.091.21.0222.168 0 .222-.103.162-.103.162l-.1252.204-.1596.128s-.1152.108-.206.096-1.016-.172-1.61-.172-1.5434.172-1.5434.172h.002z" class="B"/><g class="C"><path d="M1035.708 413.636c0-.277.1243-.5.2788-.5s.2788.223.2788.5-.1244.5-.2788.5-.2788-.223-.2788-.5zm.1536 0c0-.2548.0577-.46.1293-.46s.1293.2052.1293.46-.0577.46-.1293.46-.1293-.2052-.1293-.46z"/><path d="M1035.803 413.108c0-.0964.0838-.174.188-.174s.1878.0776.1878.174-.0837.174-.1878.174-.188-.0776-.188-.174z"/><path d="M1036.2495 413.048v.116h-.51v-.116h.2v-.264h-.1253v-.114h.1253v-.114h.1212v.114h.1253v.114h-.1253v.264h.2m-.2587 1.868h-.9717l-.0222-.236-.0465-.246-.0464-.306c-.2687-.35-.5152-.58-.598-.53.0202-.064.0444-.112.095-.142.2384-.14.7293.196 1.1.748l.093.15h.802l.093-.15c.3677-.552.8606-.888 1.097-.748.0525.03.0747.078.095.142-.0828-.048-.3272.18-.598.53l-.0465.306-.0465.246-.0202.236h-.9778z"/><use xlink:href="#B"/><use xlink:href="#C"/><use xlink:href="#D"/><path d="M1035.993 414.398l.0566.01c-.01.024-.012.048-.012.076 0 .116.1.2.2262.2.1 0 .184-.062.2142-.146.002.002.0222-.076.0303-.076s.006.082.01.082c.014.106.111.178.2222.178.1252 0 .2242-.094.2242-.212 0-.008 0-.016-.002-.024l.0707-.07.0384.088a.199.199 0 0 0-.0202.092c0 .112.095.202.214.202.0748 0 .1394-.036.1778-.1l.0465-.058v.072c0 .068.0283.132.1.142 0 0 .0767.006.1838-.076s.1616-.15.1616-.15l.006.084s-.103.168-.196.22c-.0505.03-.1293.062-.192.05s-.111-.062-.1353-.122c-.0465.028-.103.044-.1617.044-.1272 0-.2424-.07-.2868-.172-.0586.062-.1394.1-.2344.1-.103 0-.196-.046-.2545-.116-.0566.054-.1354.086-.2202.086-.111 0-.212-.056-.2687-.138-.0586.082-.1576.138-.2707.138-.085 0-.1637-.032-.2202-.086-.0586.07-.1515.116-.2525.116s-.1778-.038-.2364-.1c-.0445.102-.1596.172-.287.172a.308.308 0 0 1-.1596-.044c-.0242.06-.0707.112-.1373.122-.0606.012-.1394-.02-.19-.05-.095-.052-.206-.22-.206-.22l.014-.084s.0586.068.1637.15.1838.076.1838.076c.0687-.01.1-.074.1-.142v-.072l.0445.058c.0383.054.103.1.1777.1.1192 0 .2142-.1.2142-.202 0-.034-.004-.064-.0202-.092l.0384-.088.0707.07c-.002.008-.002.016-.002.024 0 .118.1.212.2243.212.111 0 .208-.072.2242-.178.002 0 .002-.082.008-.082s.0283.078.0323.076c.0283.084.1132.146.2142.146.1232 0 .2242-.094.2242-.2 0-.028 0-.052-.01-.076l.0586-.01h.002z"/><path d="M1035.99 414.946c-.608.002-1.1555.074-1.5495.188-.0263.008-.0586-.012-.0667-.034s.01-.056.0364-.064c.394-.12.9556-.196 1.5798-.196s1.188.076 1.5818.196c.0263.008.0445.038.0364.064s-.0404.042-.0667.034c-.394-.114-.9434-.186-1.5515-.188zm-2.0688-.246c-.002.002-.0768-.096-.1313-.146-.0404-.036-.1374-.066-.1374-.066 0-.016.0566-.056.1172-.056.0363 0 .0707.014.09.04l.008-.04s.0484.01.0707.064.01.144.01.144-.01.04-.0283.06z"/><path d="M1034.302 414.544l-.0222.132-.283.03-.0424-.024.008-.046.214-.174.1253.082"/><use xlink:href="#E"/><use xlink:href="#F"/><path d="M1034.5747 414.508l.103.096.2465-.132.0182-.042-.0344-.034-.2828-.024-.0505.136"/><path d="M1034.8596 414.052l-.1354.128.1737.228.0465.018.0343-.036.0606-.274-.1797-.064"/><path d="M1035.3202 414.36l-.0525.126-.2828-.026-.0364-.032.0202-.044.2465-.128.105.104"/><use xlink:href="#G"/><use xlink:href="#H"/><path d="M1035.607 414.348l.0808.114.2707-.084.0283-.036-.0303-.04-.2687-.078-.0808.124"/><path d="M1035.9868 413.93l-.1737.104.1293.276.0444.028.0445-.028.1293-.276-.1738-.104"/><path d="M1036.3687 414.348l-.0788.114-.2707-.084-.0283-.036.0283-.04.2707-.078.0788.124"/><use xlink:href="#G" x="1.0425" y="-0.088"/><path d="M1036.5606 414.5c.004-.04-.016-.074-.0444-.078s-.0566.026-.0606.066.014.074.0424.076.0566-.026.0626-.064z"/><path d="M1036.6596 414.36l.0525.126.283-.026.0363-.032-.0202-.044-.2465-.128-.105.104"/><path d="M1037.1202 414.052l.1353.128-.1737.228-.0465.018-.0343-.036-.0606-.274.1798-.064"/><path d="M1037.405 414.508l-.103.096-.2465-.132-.0202-.042.0384-.034.2828-.024.0485.136"/><path d="M1036.9364 414.43c0-.052.044-.094.1-.094s.1.042.1.094-.0442.094-.1.094-.1-.042-.1-.094zm.602.246c.012-.036 0-.074-.0263-.084s-.0606.018-.0747.054 0 .076.0283.084.0586-.016.0727-.054z"/><path d="M1038.0212 414.7c.002.002.0768-.096.1334-.146.0384-.036.1353-.066.1353-.066 0-.016-.0565-.056-.117-.056-.0364 0-.0708.014-.09.04l-.008-.04s-.0485.01-.0728.064-.006.144-.006.144.008.04.0262.06z"/><path d="M1037.6394 414.544l.0222.132.283.03.0424-.024-.01-.046-.2122-.174-.1252.082"/><path d="M1038.0232 414.65c-.0222-.024-.0707-.018-.107.012s-.0485.076-.0243.1.0727.02.109-.012.0465-.076.0222-.1z"/></g><path d="M1034.4495 415.36l.0626-.1.1313.026-.0767.112-.1172-.038" class="B"/><path d="M1035.015 415.262l-.1394.022c-.0363.004-.0707-.018-.0768-.052s.0202-.064.0546-.07l.1414-.02.1435-.022c.0363-.004.0686.018.0747.05a.063.063 0 0 1-.0546.07l-.1434.022" class="D"/><use xlink:href="#I"/><use xlink:href="#J" class="B"/><use xlink:href="#I" x="1.003"/><use xlink:href="#K" class="D"/><g class="B"><path d="M1037.518 415.366l-.0504-.106-.1354.012.0646.118.1212-.024"/><use xlink:href="#L"/></g><use xlink:href="#M" class="E"/><use xlink:href="#N" class="F"/><use xlink:href="#O" class="E"/><use xlink:href="#P" class="F"/><use xlink:href="#Q" class="E"/><g class="C"><path d="M1034.2212 434.656c.01.042.0263.08.0263.124 0 .292-.2566.526-.5677.526h4.6343c-.313 0-.5677-.234-.5677-.526 0-.042.008-.082.0182-.124-.0262.01-.0585.012-.0888.012h-3.3718c-.0262 0-.0585-.004-.0828-.012z"/><use xlink:href="#R"/><path d="M1033.686 436.472h4.6202v-1.166h-4.6202v1.166z"/></g><path d="M1034.3485 434.164h3.2828v-15.926h-3.2828v15.926z" class="F"/><g class="C"><path d="M1033.7485 416.974h4.503v-1.168h-4.503v1.168z"/><use xlink:href="#S"/><use xlink:href="#T"/><use xlink:href="#U"/></g><g class="B"><path d="M1033.3242 430.224c-.4565.26-.7676.528-.717.662.0242.122.1697.214.3778.35.3272.226.5252.628.3696.814.2708-.216.4425-.538.4425-.898 0-.374-.182-.712-.4728-.928zm7.6606-6.03c-.715-.292-1.9333-.5-3.3313-.556-.4828.004-1.0182.05-1.5737.14-1.9637.326-3.4606 1.102-3.3414 1.734l.01.052-.7475-1.704c-.1313-.702 1.5273-1.564 3.707-1.924.6848-.114 1.3515-.158 1.9313-.152 1.394 0 2.606.178 3.3374.446l.008 1.964"/><path d="M1034.3425 426.194c-.91-.064-1.5313-.306-1.604-.682-.0565-.3.2525-.634.802-.936l.808.06-.006 1.558m3.295-1.218c.5697.086.996.226 1.208.398l.0202.034c.1.206-.398.644-1.2343 1.134l.006-1.566"/><path d="M1032.302 429.266c-.087-.256.802-.772 2.0565-1.228.5738-.202 1.0465-.414 1.6344-.67 1.7434-.764 3.0303-1.64 2.8727-1.958l-.0182-.034c.093.076.2384 1.648.2384 1.648.1576.292-1.0202 1.156-2.6263 1.916-.513.244-1.598.64-2.11.818-.917.314-1.8262.908-1.7434 1.128l-.305-1.618v-.002zm33.8242-14.682s-.1495.156-.2586.178-.2444-.098-.2444-.098-.097.102-.2182.128-.2848-.132-.2848-.132-.1152.16-.2162.198-.2283-.048-.2283-.048-.0465.078-.1313.122c-.0364.018-.097-.01-.097-.01l-.1212-.076-.1374-.144-.1252-.048-.0626-.214-.0162-.114c-.0263-.13.1758-.28.4647-.344.1656-.038.31-.036.416-.004.1152-.096.3596-.164.6465-.164.2606 0 .49.054.614.14.1232-.086.3515-.14.612-.14.287 0 .5293.068.6445.164.107-.032.2505-.034.4182.004.2868.064.49.214.4646.344l-.0162.114c-.006.032-.0646.214-.0646.214l-.1252.048-.1374.144-.1172.076s-.0606.028-.097.01c-.0868-.042-.1333-.122-.1333-.122s-.1252.084-.2283.048-.216-.198-.216-.198-.1657.16-.287.132-.2162-.128-.2162-.128-.1373.118-.2444.098-.2566-.178-.2566-.178z"/></g><g class="C"><path d="M1065.8414 413.74c0-.2172.1243-.392.2788-.392s.2788.1748.2788.392-.1244.392-.2788.392-.2788-.1748-.2788-.392zm.1586 0c0-.2005.0568-.362.1273-.362s.1272.1615.1272.362-.0567.362-.1272.362-.1273-.1615-.1273-.362z"/><path d="M1065.9364 413.3c0-.0975.0838-.176.188-.176s.188.0785.188.176-.0838.176-.188.176-.188-.0785-.188-.176z"/><path d="M1066.3848 413.228v.116h-.511v-.116h.19v-.26h-.1253v-.116h.1253v-.116h.1232v.116h.1232v.116h-.1232v.26h.198"/></g><use xlink:href="#V"/><use xlink:href="#V" x="2.5756"/><g class="C"><use xlink:href="#B" x="30.1354"/><use xlink:href="#C" x="30.1353"/><use xlink:href="#D" x="30.1354"/><path d="M1066.1283 414.398l.0566.01c-.01.024-.0122.048-.0122.076 0 .116.101.2.2263.2.1 0 .184-.062.2142-.146.002.002.0222-.076.0303-.076s.006.082.01.082c.014.106.111.178.2222.178.1252 0 .2242-.094.2242-.212 0-.008 0-.016-.002-.024l.0707-.07.0384.088a.199.199 0 0 0-.0202.092c0 .112.095.202.214.202.0748 0 .1394-.036.1778-.1l.0465-.058v.072c0 .068.0283.132.1.142 0 0 .0767.006.1838-.076s.1616-.15.1616-.15l.006.084s-.103.168-.196.22c-.0505.03-.1293.062-.192.05s-.111-.062-.1353-.122c-.0465.028-.103.044-.1617.044-.1272 0-.2424-.07-.2868-.172-.0586.062-.1394.1-.2344.1-.103 0-.196-.046-.2545-.116-.0566.054-.1354.086-.2202.086-.111 0-.212-.056-.2687-.138-.0586.082-.1576.138-.2707.138-.085 0-.1637-.032-.2202-.086-.0586.07-.1515.116-.2525.116s-.1778-.038-.2364-.1c-.0445.102-.1596.172-.287.172a.308.308 0 0 1-.1596-.044c-.0242.06-.0707.112-.1373.122-.0607.012-.1394-.02-.19-.05-.095-.052-.206-.22-.206-.22l.014-.084s.0586.068.1637.15.1838.076.1838.076c.0687-.01.1-.074.1-.142v-.072l.0445.058c.0383.054.103.1.1777.1.1192 0 .2142-.1.2142-.202 0-.034-.004-.064-.0202-.092l.0383-.088.0707.07c-.002.008-.002.016-.002.024 0 .118.1.212.2243.212.111 0 .208-.072.2242-.178.002 0 .002-.082.008-.082s.0283.078.0323.076c.0283.084.113.146.2142.146.1232 0 .2242-.094.2242-.2 0-.028 0-.052-.01-.076l.0586-.01h.002z"/><path d="M1066.1242 414.946c-.608.002-1.1556.074-1.5495.188-.0263.008-.0586-.012-.0667-.034s.01-.056.0364-.064c.394-.12.9555-.196 1.5798-.196s1.188.076 1.5818.196c.0263.008.0445.038.0364.064s-.0404.042-.0667.034c-.394-.114-.9434-.186-1.5515-.188zm-2.0686-.246c-.002.002-.0768-.096-.1313-.146-.0404-.036-.1374-.066-.1374-.066 0-.016.0566-.056.1172-.056.0363 0 .0707.014.09.04l.008-.04s.0485.01.0707.064.01.144.01.144-.01.04-.0283.06z"/><path d="M1064.4374 414.544l-.0222.132-.283.03-.0424-.024.008-.046.214-.174.1253.082"/><use xlink:href="#E" x="30.1354"/><use xlink:href="#F" x="30.1354"/><path d="M1064.71 414.508l.103.096.2465-.132.0182-.042-.0344-.034-.2828-.024-.0505.136"/><path d="M1064.995 414.052l-.1353.128.1737.228.0465.018.0343-.036.0607-.274-.18-.064"/><path d="M1065.4555 414.36l-.0525.126-.2828-.026-.0364-.032.0202-.044.2465-.128.105.104"/><path d="M1064.9828 414.43c0-.052.044-.094.1-.094s.1.042.1.094-.0442.094-.1.094-.1-.042-.1-.094z"/><use xlink:href="#H" x="30.1353"/><path d="M1065.7424 414.348l.0808.114.2707-.084.0283-.036-.0303-.04-.2687-.078-.0808.124"/><path d="M1066.1222 413.93l-.1737.104.1293.276.0444.028.0445-.028.1293-.276-.1738-.104"/><path d="M1066.504 414.348l-.0788.114-.2707-.084-.0283-.036.0283-.04.2707-.078.0788.124"/><use xlink:href="#G" x="31.1777" y="-0.088"/><path d="M1066.696 414.5c.004-.04-.0162-.074-.0444-.078s-.0566.026-.0606.066.014.074.0424.076.0566-.026.0626-.064z"/><path d="M1066.795 414.36l.0525.126.2828-.026.0364-.032-.0202-.044-.2465-.128-.105.104"/><path d="M1067.2556 414.052l.1353.128-.1737.228-.0465.018-.0343-.036-.0606-.274.1798-.064"/><path d="M1067.5404 414.508l-.103.096-.2465-.132-.0202-.042.0384-.034.2828-.024.0485.136"/><use xlink:href="#G" x="32.2242"/><path d="M1067.6737 414.676c.012-.036 0-.074-.0263-.084s-.0606.018-.0747.054 0 .076.0283.084.0585-.016.0727-.054z"/><path d="M1068.1565 414.7c.002.002.0768-.096.1334-.146.0384-.036.1353-.066.1353-.066 0-.016-.0565-.056-.1172-.056-.0363 0-.0707.014-.091.04l-.008-.04s-.0485.01-.0728.064-.006.144-.006.144.008.04.0262.06z"/><path d="M1067.7747 414.544l.0222.132.283.03.0424-.024-.01-.046-.212-.174-.1253.082"/><path d="M1068.1586 414.65c-.0222-.024-.0707-.018-.107.012s-.0484.076-.0242.1.0727.02.109-.012.0465-.076.0222-.1z"/></g><path d="M1064.585 415.36l.0626-.1.1313.026-.0767.112-.1172-.038" class="B"/><path d="M1065.1505 415.262l-.1394.022c-.0363.004-.0707-.018-.0768-.052s.0202-.064.0546-.07l.1414-.02.1434-.022c.0364-.004.0687.018.0748.05a.063.063 0 0 1-.0546.07l-.1434.022" class="D"/><use xlink:href="#I" x="30.1344"/><use xlink:href="#J" x="30.1353" class="B"/><path d="M1066.5384 415.16c0-.0454.0397-.082.089-.082s.089.0366.089.082-.0397.082-.089.082-.089-.0366-.089-.082z"/><use xlink:href="#K" x="30.1354" class="D"/><g class="B"><path d="M1067.6535 415.366l-.0505-.106-.1353.012.0646.118.1212-.024"/><use xlink:href="#L" x="30.1354"/></g><use xlink:href="#M" x="30.1353" class="E"/><use xlink:href="#N" x="30.1353" class="F"/><use xlink:href="#O" x="30.1353" class="E"/><use xlink:href="#P" x="30.1353" class="F"/><use xlink:href="#Q" x="30.1353" class="E"/><g class="C"><path d="M1064.3565 434.656c.01.042.0263.08.0263.124 0 .292-.2566.526-.5677.526h4.6343c-.313 0-.5676-.234-.5676-.526 0-.042.008-.082.0182-.124-.0263.01-.0586.012-.089.012h-3.3718c-.0262 0-.0585-.004-.0828-.012z"/><use xlink:href="#R" x="30.1354"/><path d="M1063.8212 436.472h4.6202v-1.166h-4.6202v1.166z"/></g><path d="M1064.4838 434.164h3.2828v-15.926h-3.2828v15.926z" class="F"/><g class="C"><path d="M1063.8838 416.974h4.503v-1.168h-4.503v1.168z"/><use xlink:href="#S" x="30.1353"/><use xlink:href="#T" x="30.1354"/><use xlink:href="#U" x="30.1354"/></g><g class="B"><path d="M1068.8 430.224c.4566.26.7677.528.7172.662-.0242.122-.1697.214-.3778.35-.3272.226-.5252.628-.3697.814-.2707-.216-.4424-.538-.4424-.898 0-.374.1818-.712.4727-.928zm-7.6596-6.03c.7152-.292 1.9333-.5 3.3313-.556.4828.004 1.0182.05 1.5738.14 1.9636.326 3.4606 1.102 3.3414 1.734l-.01.052.7474-1.704c.1314-.702-1.5272-1.564-3.707-1.924-.685-.114-1.3515-.158-1.9313-.152-1.394 0-2.606.178-3.3374.446l-.008 1.964"/><path d="M1067.783 426.194c.91-.064 1.5313-.306 1.604-.682.0566-.3-.2525-.634-.802-.936l-.808.06.006 1.558m-3.295-1.218c-.5697.086-.996.226-1.208.398l-.0202.034c-.1.206.398.644 1.2344 1.134l-.006-1.566"/><path d="M1069.8233 429.266c.0868-.256-.802-.772-2.0566-1.228-.5737-.202-1.0465-.414-1.6343-.67-1.7435-.764-3.0303-1.64-2.8728-1.958l.0182-.034c-.093.076-.2384 1.648-.2384 1.648-.1575.292 1.0202 1.156 2.6263 1.916.513.244 1.598.64 2.109.818.9172.314 1.8263.908 1.7434 1.128l.305-1.618v-.002z"/></g><g class="C"><path d="M1034.1202 423.43c.402-.144.6647-.316.5374-.628-.0828-.2-.3-.238-.6-.126l-.5475.198.493 1.206.1637-.068.1717-.052-.2182-.528v-.002zm-.2384-.582l.1394-.05c.1152-.042.2445.02.303.16.0425.106.0324.226-.1.3-.0424.026-.093.046-.1414.066l-.2-.486m1.5222-.494l-.1737.044-.1778.024.285 1.256.8848-.176c-.01-.024-.0242-.052-.0283-.076s-.006-.056-.008-.082l-.5272.132-.2546-1.122m1.7736 1.082c.1656-.456.3676-.892.5676-1.334l-.1.014a1.009 1.009 0 0 1-.11 0c-.107.322-.2384.642-.3778.96l-.5-.902-.208.024-.2.004.7354 1.246.1-.016c.0323-.002.0666.002.1.004m1.8533-.966l.097-.178c-.0485-.044-.194-.1-.3657-.126-.3616-.036-.5677.122-.592.338-.0525.452.6687.414.6343.714-.014.128-.1515.18-.3.166-.1637-.016-.285-.106-.305-.238l-.0444-.004c-.0243.078-.0586.154-.097.23.107.068.2444.106.3737.118.3697.038.6505-.108.6768-.348.0465-.43-.6808-.454-.6525-.708.012-.106.095-.176.2828-.158.1354.014.2182.086.2545.2l.0364.004m24.1488 1.026l.4424-1.374c-.0343.01-.0707.018-.107.022l-.1.01c-.0748.328-.1778.658-.287.988l-.5717-.86-.206.04-.2.022.8485 1.182c.0323-.008.0646-.02.1-.024s.0667-.004.1-.006m1.248-1.364l-.1778.006c-.0606 0-.1212-.008-.1798-.012l-.0242 1.282.907.016c-.006-.026-.0122-.056-.0122-.082s.008-.054.0142-.08l-.5475.016.0202-1.146m1.4134.2c.1455.012.285.038.4243.062-.002-.026-.006-.054-.004-.082s.0122-.052.0202-.078l-1.2262-.1c.002.028.006.054.004.08s-.012.054-.0202.08c.1253-.004.2768-.004.4465.01l-.107 1.154.1778.006c.0606.004.1192.014.1778.022l.107-1.154"/><path d="M1066.3606 423.606l.1778.03c.0566.012.115.03.1717.046l.1455-.588.016.002.1.238.1818.444.212.036.21.056-.0626-.134-.2848-.604c.2262.008.4-.072.4444-.252.0303-.124-.0202-.222-.1374-.306-.089-.062-.2585-.094-.3697-.12l-.493-.106-.311 1.258m.6343-1.084c.1435.032.3213.054.3213.214-.002.042-.006.07-.0122.096-.0464.188-.19.252-.4303.182l.1212-.492"/><path d="M1068.696 423.992c-.01.138-.0363.274-.0626.42l.1818.088c.0606.032.1152.068.1738.104l.1212-1.446-.083-.038a.592.592 0 0 1-.0747-.048l-1.289.8.103.05c.0344.018.0627.038.095.056.109-.1.2222-.164.3515-.26l.4828.262v.002zm-.3656-.332l.4303-.274-.0505.48-.3798-.206"/></g><path d="M1050.9343 407.044c1.3414 0 2.5374.198 3.3152.502.4444.2 1.0424.346 1.697.434.5.066.9717.078 1.384.048.5515-.012 1.3474.148 2.1454.496.6586.3 1.21.642 1.5758.982l-.3172.28-.091.792-.8687.984-.4343.366-1.0283.814-.5253.042-.1596.45-6.6485-.772-6.6707.772-.1595-.45-.5273-.042-1.0263-.814-.4343-.366-.8687-.984-.089-.792-.3192-.28c.3677-.34.9172-.692 1.5758-.982.798-.348 1.594-.508 2.1454-.496.412.03.885.018 1.3838-.048.6546-.088 1.2526-.234 1.697-.434.7798-.304 1.907-.502 3.2485-.502z" class="B"/><g class="C"><path d="M1046.0233 408.784l.2787.222.4202-.68c-.4545-.276-.7676-.756-.7676-1.302 0-.062.004-.122.012-.182.0424-.868 1.111-1.584 2.4646-1.584.703 0 1.3394.2 1.786.496l.0424-.372c-.491-.284-1.1313-.456-1.8283-.456-1.5575 0-2.7757.878-2.8343 1.914l-.01.184c0 .552.2545 1.052.6586 1.398l-.2222.362"/><path d="M1046.0414 408.792c-.5313-.394-.8626-.928-.8626-1.516 0-.676.4485-1.28 1.1273-1.682-.4182.334-.6727.766-.71 1.246l-.01.184c0 .552.2545 1.052.6586 1.398l-.204.37m-4.6912.686c-.3-.33-.4808-.758-.4808-1.224 0-.282.0667-.55.1838-.8.4303-.876 1.782-1.514 3.386-1.514.4364 0 .8545.046 1.2404.134-.085.092-.1515.194-.2182.296-.3212-.062-.6646-.096-1.0222-.096-1.4687 0-2.7.566-3.0546 1.33-.095.194-.1474.412-.1474.64 0 .464.2202.88.5636 1.164l-.5313.86-.2848-.224.3656-.576z"/><path d="M1041.894 406.596c-.386.242-.6788.538-.8405.868-.117.24-.1838.508-.1838.8 0 .466.1818.894.4808 1.224l-.3232.518c-.31-.392-.49-.852-.49-1.34 0-.84.5394-1.574 1.3556-2.06zm9.1192-1.842c.3555 0 .6626.232.7353.546.0465.276.0768.6.0828.924.002.036-.002.07-.002.104 0 .04.008.082.01.122.0122.704.1132 1.324.2566 1.704l-1.0828 1.028-1.097-1.028c.1454-.38.2465-1 .2606-1.704 0-.04.008-.082.008-.122l-.002-.104c.006-.334.0363-.648.0828-.924.0727-.314.392-.546.7475-.546z"/><path d="M1051.013 405.088c.1838 0 .3394.116.3778.278.0464.262.0747.56.0808.876l-.002.096c0 .04.006.078.008.118.01.664.107 1.25.2444 1.6l-.7152.67-.715-.67c.1353-.36.2323-.946.2444-1.6 0-.04.008-.078.008-.118l-.002-.096c.006-.316.0343-.614.0808-.876.0364-.162.206-.278.4-.278zm4.982 3.696l-.2808.222-.4202-.68c.4565-.276.7697-.756.7697-1.302a1.368 1.368 0 0 0-.0121-.182c-.0425-.868-1.1112-1.584-2.4647-1.584-.705 0-1.3394.2-1.786.496l-.0444-.372c.493-.284 1.1313-.456 1.8303-.456 1.5576 0 2.7758.878 2.8343 1.914l.01.184c0 .552-.2565 1.052-.6606 1.398l.2243.362"/><path d="M1055.9767 408.792c.5313-.394.8627-.928.8627-1.516 0-.676-.4485-1.28-1.1273-1.682.4182.334.6727.766.709 1.246l.01.184c0 .552-.2566 1.052-.6606 1.398l.206.37"/><path d="M1060.6677 409.478c.297-.33.4808-.758.4808-1.224a1.796 1.796 0 0 0-.1838-.79c-.4323-.876-1.7818-1.514-3.386-1.514-.4363 0-.8545.046-1.2424.134.087.092.1535.194.2202.296.3192-.062.6646-.096 1.0222-.096 1.4687 0 2.697.566 3.0526 1.33.095.194.1474.412.1474.64 0 .464-.2202.88-.5636 1.164l.5313.86.287-.224-.3657-.576z"/><path d="M1060.1242 406.596c.3858.242.6788.538.8404.868a1.796 1.796 0 0 1 .1838.79c0 .466-.1838.894-.4808 1.224l.3233.518c.309-.392.4868-.852.4868-1.34 0-.84-.5394-1.574-1.3535-2.06z"/></g><path d="M1050.1202 403.96c0-.4654.399-.84.895-.84s.895.3746.895.84-.3992.84-.895.84-.895-.3746-.895-.84z" class="E"/><path d="M1050.7808 401.608v.452h-.489v.46h.489v1.322h-.616c-.006.042-.0445.074-.0445.118 0 .116.0242.228.0707.328l1.6465.006c.0505-.106.0767-.218.0767-.334 0-.044-.0383-.076-.0444-.118h-.598v-1.322h.489v-.46h-.489v-.452h-.491z" class="C"/><use xlink:href="#W"/><use xlink:href="#W" y="-0.708"/><path d="M1050.706 406.82c0-.1596.137-.288.307-.288s.307.1284.307.288-.137.288-.307.288-.307-.1284-.307-.288z"/><use xlink:href="#X"/><path d="M1050.8354 405.536c0-.092.0793-.166.1778-.166s.1778.074.1778.166-.0793.166-.1778.166-.1778-.074-.1778-.166z"/><use xlink:href="#X" x="-10.3233" y="4.098"/><use xlink:href="#X" x="-10.6263" y="3.568"/><use xlink:href="#X" x="-10.8284" y="2.952"/><use xlink:href="#X" x="-10.8546" y="2.292"/><use xlink:href="#X" x="-10.691" y="1.644"/><use xlink:href="#X" x="-10.3496" y="1.064"/><use xlink:href="#X" x="-9.895" y="0.568"/><use xlink:href="#X" x="-9.3658" y="0.166"/><use xlink:href="#X" x="-8.7354" y="-0.164"/><use xlink:href="#X" x="-8.081" y="-0.398"/><use xlink:href="#X" x="-7.3496" y="-0.528"/><use xlink:href="#X" x="-6.6546" y="-0.564"/><use xlink:href="#X" x="-5.9738" y="-0.54"/><use xlink:href="#X" x="-5.2183" y="2.428"/><use xlink:href="#X" x="-5.596" y="1.894"/><use xlink:href="#X" x="-5.796" y="1.314"/><use xlink:href="#X" x="-5.7718" y="0.678"/><use xlink:href="#X" x="-5.6324" y="0.038"/><use xlink:href="#X" x="-5.293" y="-0.54"/><use xlink:href="#X" x="-4.776" y="-0.942"/><use xlink:href="#X" x="-4.1718" y="-1.274"/><use xlink:href="#X" x="-3.503" y="-1.472"/><use xlink:href="#X" x="-2.8102" y="-1.59"/><use xlink:href="#X" x="-2.1294" y="-1.58"/><use xlink:href="#X" x="-1.4243" y="-1.462"/><use xlink:href="#X" x="-0.7698" y="-1.238"/><use xlink:href="#X" x="0.7595" y="-1.238"/><use xlink:href="#X" x="1.414" y="-1.462"/><use xlink:href="#X" x="2.121" y="-1.58"/><use xlink:href="#X" x="2.8" y="-1.59"/><use xlink:href="#X" x="3.495" y="-1.472"/><use xlink:href="#X" x="4.1615" y="-1.274"/><use xlink:href="#X" x="4.7676" y="-0.942"/><use xlink:href="#X" x="5.2827" y="-0.54"/><use xlink:href="#X" x="5.6242" y="0.038"/><use xlink:href="#X" x="5.7636" y="0.678"/><use xlink:href="#X" x="5.7878" y="1.314"/><use xlink:href="#X" x="5.5858" y="1.894"/><use xlink:href="#X" x="5.209" y="2.428"/><use xlink:href="#X" x="5.9656" y="-0.54"/><use xlink:href="#X" x="6.6464" y="-0.564"/><use xlink:href="#X" x="7.3413" y="-0.528"/><use xlink:href="#X" x="8.0726" y="-0.398"/><use xlink:href="#X" x="8.7272" y="-0.164"/><use xlink:href="#X" x="9.3575" y="0.166"/><use xlink:href="#X" x="9.8847" y="0.568"/><use xlink:href="#X" x="10.3393" y="1.064"/><use xlink:href="#X" x="10.6807" y="1.644"/><use xlink:href="#X" x="10.8444" y="2.292"/><use xlink:href="#X" x="10.82" y="2.952"/><use xlink:href="#X" x="10.618" y="3.568"/><use xlink:href="#X" x="10.315" y="4.098"/><g class="C"><path d="M1051.0353 415.736c-2.4767-.004-4.697-.294-6.2808-.766-.115-.036-.1757-.14-.1697-.25-.002-.104.0586-.2.1697-.234 1.584-.472 3.804-.762 6.2808-.766 2.4788.004 4.697.294 6.2808.766.111.034.1697.13.1677.234.006.1-.0545.214-.1677.25-1.5838.472-3.802.762-6.2808.766"/><path d="M1051.0192 413.718c-2.507.006-4.7576.316-6.3414.8.1313-.062.1192-.224-.0444-.64-.198-.506-.505-.484-.505-.484 1.7495-.512 4.188-.832 6.9-.836 2.7152.004 5.1717.324 6.9232.836 0 0-.309-.022-.507.484-.1637.416-.1758.578-.0425.64-1.5838-.484-3.8767-.794-6.3838-.8"/><path d="M1051.0293 412.56c-2.7132.004-5.1515.324-6.9.836-.1172.034-.2404-.01-.2788-.12s.0242-.236.1414-.27c1.7596-.534 4.2586-.87 7.0384-.876 2.7818.006 5.291.342 7.0505.876.117.034.1798.16.1414.27s-.1616.154-.2788.12c-1.7515-.512-4.198-.832-6.913-.836"/><path d="M1051.0455 410.456l.2484.044c-.0383.1-.0484.2-.0484.326 0 .514.4464.93.994.93.4404 0 .8162-.27.9434-.642.0162.01.095-.336.1374-.332.0344.004.0303.36.0445.354.0626.468.497.786.9838.786.5475 0 .992-.416.992-.93 0-.038-.002-.076-.008-.114l.311-.304.1677.388c-.0666.122-.093.26-.093.406 0 .492.4242.888.9475.888.3293 0 .618-.156.788-.394l.2-.25-.002.306c0 .3.1334.586.4364.636 0 0 .3495.02.814-.34s.7172-.658.7172-.658l.0404.36s-.3838.6-.802.83c-.2303.132-.5778.27-.8545.226-.29-.048-.501-.28-.608-.548a1.418 1.418 0 0 1-.7172.194c-.5677 0-1.0768-.308-1.2768-.772-.2606.28-.6242.45-1.0505.45-.4525 0-.8667-.202-1.1252-.512-.2566.232-.602.374-.986.374-.5 0-.9475-.244-1.2-.6-.2525.366-.7.6-1.2.6-.3818 0-.7293-.142-.9838-.374-.2586.3-.6748.512-1.1273.512-.4263 0-.788-.17-1.0485-.45-.202.464-.711.772-1.2768.772a1.412 1.412 0 0 1-.7171-.194c-.109.268-.3172.5-.61.548-.2748.044-.6223-.094-.8526-.226-.4202-.24-.804-.83-.804-.83l.0404-.36s.2566.298.7192.658.812.34.812.34c.305-.05.4364-.326.4364-.636l-.002-.306.2.25c.1697.238.4606.394.7878.394.5233 0 .9475-.396.9475-.888 0-.146-.0262-.284-.093-.406l.1677-.388.311.304-.008.114c0 .514.4444.93.992.93.489 0 .9212-.318.986-.786.012.006.01-.35.0444-.354.0404-.004.1212.342.1354.332.1293.372.503.642.9454.642.5475 0 .992-.416.992-.93 0-.116-.006-.226-.0484-.326l.2606-.044"/><path d="M1042.595 411.764c-.0222-.074-.0707-.15-.1455-.212-.1596-.136-.3717-.158-.4767-.05-.0142.014-.0263.034-.0344.05 0 0-.2242-.416-.4868-.556s-.705-.104-.705-.104c0-.32.2626-.578.604-.578.2 0 .3878.082.5.222l.0464-.214s.2748.054.4.364-.012.76-.012.76.0687-.192.1717-.322.3657-.268.503-.332.2768-.158.2768-.158.006.036.01.122c.006.102-.002.166-.002.166.2505-.034.5434.008.7737.096-.1.2-.2848.368-.5293.46l.1677.15c.0687.068.089.098.089.098l-.2566.038c-.0868.01-.3717.056-.5434.044a3.209 3.209 0 0 1-.3515-.044"/></g><path d="M1041.9727 411.502c.105-.108.3172-.086.4768.05s.206.332.103.438-.3172.084-.4768-.05-.206-.332-.103-.438" class="B"/><path d="M1044.215 411.682c-.0565-.166-.006-.33.1152-.366s.2667.066.3232.232.006.33-.115.368-.2647-.068-.3233-.234"/><g class="C"><path d="M1046.1808 410.872c-.0666-.054-.119-.128-.1353-.216s.002-.174.0465-.246c0 0-.1778-.088-.3697-.138-.1455-.038-.402-.04-.4788-.04l-.2324-.006a1.258 1.258 0 0 0 .0566.11c.0546.092.1.15.1.15-.2565.058-.4747.224-.612.418.2.136.4647.22.7273.194 0 0-.0243.068-.0404.172l-.0122.122.2162-.078c.0707-.026.311-.1.4344-.192.1616-.108.299-.25.299-.25"/><path d="M1046.092 408.83c.214.134.4.358.4646.606 0 0 .0263-.05.1435-.118s.2202-.064.2202-.064l-.0505.264c-.0182.068-.0182.276-.0647.464s-.1273.336-.1273.336c-.0848-.068-.2-.102-.3192-.082s-.214.088-.2666.18c0 0-.1334-.116-.2445-.276s-.188-.356-.2283-.416-.1454-.23-.1454-.23.095-.036.2303-.01.1778.064.1778.064c-.0283-.256.0565-.524.21-.718"/><path d="M1046.7565 410.776c.0445-.07.0647-.158.0485-.246s-.0646-.162-.1333-.214c0 0 .1353-.142.297-.252.1212-.082.3636-.164.4343-.2l.2162-.08s0 .036-.0122.122c-.016.104-.0404.174-.0404.174.2627-.028.5293.058.7293.196-.1394.194-.3575.358-.614.416 0 0 .0464.056.1.148l.0566.112-.2324-.006c-.0767 0-.3333-.002-.4787-.04-.192-.05-.3718-.138-.3718-.138"/></g><path d="M1045.995 410.6c0-.2283.1955-.412.4384-.412s.4384.1837.4384.412-.1956.412-.4384.412-.4384-.1838-.4384-.412z" class="B"/><path d="M1048.5323 410.854c-.0222-.174.0627-.326.188-.34s.2485.114.2707.288-.0606.326-.188.34-.2464-.114-.2707-.288"/><g class="C"><path d="M1050.702 410.466c-.0647-.072-.107-.164-.107-.266a.39.39 0 0 1 .103-.264s-.1798-.134-.3818-.224c-.1555-.07-.4404-.118-.5252-.134l-.2586-.048s.008.04.0404.134c.0404.112.0808.186.0808.186-.297.016-.5758.162-.7697.352.194.188.4727.332.7697.35 0 0-.0404.072-.0808.186l-.0404.134.2586-.048c.0848-.016.3697-.064.5252-.134.202-.092.386-.222.386-.222"/><path d="M1051.0273 408.172c.212.2.3737.472.394.764 0 0 .0384-.054.1838-.106s.2586-.032.2586-.032l-.111.284c-.0343.074-.0788.306-.1697.506s-.212.352-.212.352c-.0808-.1-.202-.15-.3374-.15a.451.451 0 0 0-.3373.15s-.1233-.152-.2122-.352-.1353-.432-.1697-.506-.113-.284-.113-.284.113-.02.2586.032.1858.106.1858.106c.0203-.292.1738-.574.382-.764"/><path d="M1051.3606 410.466c.0667-.072.107-.164.107-.266s-.0384-.194-.103-.264c0 0 .1798-.134.384-.224.1535-.07.4384-.118.5252-.134l.2546-.048s-.004.04-.0384.134c-.0404.112-.0808.186-.0808.186.297.016.5778.162.7697.352-.192.188-.4707.332-.7697.35 0 0 .0404.072.0808.186.0323.092.0384.134.0384.134l-.2546-.048c-.0868-.016-.3717-.064-.5252-.134-.204-.092-.388-.222-.388-.222"/></g><use xlink:href="#Y" class="B"/><path d="M1053.5464 410.854c.0222-.174-.0606-.326-.188-.34s-.2484.114-.2707.288.0627.326.188.34.2485-.114.2707-.288"/><g class="C"><path d="M1055.3243 410.776a.356.356 0 0 1-.0505-.246c.0182-.088.0666-.162.1353-.214 0 0-.1353-.142-.297-.252-.1233-.082-.3637-.164-.4364-.2l-.214-.08s-.002.036.012.122c.016.104.0384.174.0384.174-.2606-.028-.5273.058-.7273.196.1374.194.3576.358.612.416 0 0-.0464.056-.1.148-.0444.078-.0565.112-.0565.112l.2303-.006c.0767 0 .3353-.002.4788-.04.192-.05.3717-.138.3717-.138"/><path d="M1055.989 408.83c-.214.134-.4.358-.4667.606 0 0-.0242-.05-.1434-.118s-.2202-.064-.2202-.064l.0525.264c.0182.068.0182.276.0627.464a1.559 1.559 0 0 0 .1292.336.401.401 0 0 1 .3172-.082c.1192.02.2142.088.2687.18 0 0 .1333-.116.2444-.276s.186-.356.2263-.416.1455-.23.1455-.23-.095-.036-.2303-.01-.1778.064-.1778.064c.0303-.256-.0566-.524-.208-.718"/><path d="M1055.898 410.872c.0687-.054.1212-.128.1354-.216s0-.174-.0445-.246c0 0 .1778-.088.3697-.138.1455-.038.402-.04.4768-.04l.2323-.006s-.012.034-.0566.1c-.0525.092-.1.15-.1.15.2546.058.4728.224.6122.418-.2.136-.4667.22-.7273.194 0 0 .0222.068.0384.172l.012.122-.214-.078c-.0728-.026-.3132-.1-.4364-.192-.1596-.108-.3-.25-.3-.25"/></g><use xlink:href="#Y" x="4.614" y="0.4" class="B"/><path d="M1057.8656 411.682c.0566-.166.006-.33-.115-.366s-.2667.066-.3253.232-.006.33.1152.368.2667-.068.3252-.234"/><path d="M1059.4838 411.764c.0222-.074.0728-.15.1455-.212.1596-.136.3737-.158.4767-.05a.21.21 0 0 1 .0364.05s.2222-.416.485-.556.707-.104.707-.104c0-.32-.2646-.578-.606-.578-.2 0-.388.082-.5.222l-.0465-.214s-.2747.054-.4.364.01.76.01.76-.0666-.192-.1697-.322-.3656-.268-.503-.332-.2768-.158-.2768-.158-.006.036-.012.122a1.124 1.124 0 0 0 .004.166c-.2525-.034-.5454.008-.7737.096.097.2.2828.368.5273.46l-.1677.15c-.0667.068-.087.098-.087.098l.2566.038c.087.01.3717.056.5414.044.1273-.008.2667-.028.3515-.044" class="C"/><path d="M1060.106 411.502c-.103-.108-.317-.086-.4767.05s-.206.332-.103.438.317.084.4767-.05.206-.332.103-.438m-9.0768 3.912c-2.2343-.002-4.2565-.258-5.794-.652 1.5374-.394 3.5596-.634 5.794-.638 2.2364.004 4.2687.244 5.806.638-1.5374.394-3.5697.65-5.806.652zm-6.7474-1.482l.2465-.318.6808.086-.5435.392-.3838-.16" class="B"/><use xlink:href="#Z"/><path d="M1047.7 413.514l-.4768.054c-.1232.014-.2363-.066-.2505-.18s.0707-.218.194-.23l.4788-.056.489-.056c.1212-.014.2323.066.2464.18s-.0727.218-.194.232l-.487.056" class="D"/><path d="M1049.094 413.17c0-.116.1-.208.2222-.208s.2222.092.2222.208-.1.208-.2222.208-.2222-.094-.2222-.208"/><path d="M1051.0354 413.332h-.6647c-.1212 0-.2242-.092-.2242-.206s.1-.208.2222-.208h1.3414c.1233 0 .2223.092.2223.208s-.103.206-.2243.206h-.6727" class="B"/><use xlink:href="#Z" x="6.7737" y="-0.386"/><path d="M1054.3707 413.514l.4768.054c.1212.014.2363-.066.2505-.18s-.0728-.218-.194-.23l-.4788-.056-.4888-.056c-.1233-.014-.2324.066-.2465.18s.0727.218.194.232l.487.056" class="D"/><use xlink:href="#Z" x="10.1091"/><path d="M1057.7868 413.932l-.2444-.318-.6808.086.5434.392.3818-.16" class="B"/><path d="M1051.104 439.366c-2.6424 0-5.2626-.64-7.4646-1.708-1.6222-.796-2.7-2.4-2.7-4.238v-6.66h20.287v6.66c0 1.838-1.0748 3.442-2.7 4.238-2.202 1.068-4.7798 1.708-7.4243 1.708z" class="F"/><path d="M1051.593 436.4c.4222.126.6364.438.6364.802 0 .476-.4647.836-1.0708.836s-1.095-.36-1.095-.836c0-.358.202-.76.6222-.788 0 0-.012-.038-.0485-.1l-.1293-.132s.1597-.03.2526.004a.538.538 0 0 1 .1555.094s.0424-.086.105-.152.1414-.106.1414-.106.093.076.1232.128a.725.725 0 0 1 .0505.118s.085-.07.1596-.098.1697-.052.1697-.052l-.0444.138c-.0182.046-.0283.144-.0283.144" fill="#ffd691"/><path d="M1051.0697 438.564s-.804-.536-1.1515-.608c-.4464-.094-.9474-.018-1.1636-.03.006.006.2606.186.3717.296s.4828.33.693.382c.6505.162 1.2505-.04 1.2505-.04m.2302.048s.513-.532 1.0525-.604c.6364-.088 1.0546.052 1.3.116.006 0-.204.098-.315.174s-.398.314-.8364.318-.9252-.046-1.004-.034l-.198.03" class="D"/><path d="M1051.1445 437.956c-.202-.186-.3273-.45-.3273-.744s.1253-.556.3293-.742c.2.186.3253.45.3253.742s-.1253.558-.3273.744" class="B"/><path d="M1050.9404 439.042s.1232-.304.1354-.566c.012-.218-.0304-.434-.0304-.434h.1617s.0787.232.0787.434-.0363.474-.0363.474-.111.016-.1475.034-.1616.058-.1616.058" class="D"/><path d="M1051.0697 433.414c0 2.632-2.2545 4.764-5.0606 4.764s-5.0808-2.132-5.0808-4.764v-6.67h10.1414v6.67" class="B"/><path d="M1040.9 433.324c.0303 1.404.596 2.45 1.1576 3.134v-9.894h-1.1435l-.014 6.76zm2.2324 4.022c.3172.166.7515.444 1.2182.554l-.0303-11.392h-1.188v10.838zm2.2726.804c.4647.046.8.038 1.186 0v-11.642h-1.186v11.642zm2.2304-.25c.4646-.092 1-.378 1.2182-.526v-10.866h-1.188l-.0303 11.392zm2.3212-1.552c.495-.436.9596-1.424 1.1293-2.552l.0283-7.288h-1.186l.0283 9.84z" class="C"/><path d="M1061.2374 426.744v6.67c0 2.632-2.2788 4.764-5.085 4.764s-5.0828-2.132-5.0828-4.764v-6.67h10.1677" class="B"/><g stroke="#c8b100" class="C"><path d="M1055.593 431.728c.01-.028.0242-.054.0384-.08l-.8606-.948-.3374.144-.6182-.678.202-.292-1.0788-1.198c-.014.004-.0404.004-.0545.008l.006.804.3535.1v.892l-.3535.096-.006.816c.1697.052.3.176.3515.334l.6485.002.103-.334h.9536l.1.334zm-1.41-3.7v.322h.5576v-.322zm-1.4748 4.074c.1293 0 .2344-.098.2344-.22s-.105-.222-.2344-.222-.2363.1-.2363.222.105.22.2363.22zm3.2303-1.946l-.3555-.096v-.892l.3555-.1-.002-.384c-.1717-.05-.305-.174-.3616-.334h-.5414l-.103.334h-.9516l-.103-.334h-.6242c-.0162.044-.0344.084-.0586.122l1.087 1.192.3373-.142.6182.68-.202.3.8444.928.0566-.024zm-1.4646-.278l-.2606.208.3576.396.2606-.2zm1.617 7.2372c-.2505-.013-.4555-.1804-.508-.4032-.3374-.046-.6566-.132-.9556-.26l.1697-.286c.2606.1.5374.182.8243.222a.532.532 0 0 1 .3192-.28l.002-1.124-.3556-.098v-.892l.3556-.096v-1.528a.177.177 0 0 1-.0404-.018l-.804.884.202.288-.6182.68-.3374-.142-.6667.734a.483.483 0 0 1-.0222.57c.19.2.41.396.6546.55l-.1697.288a3.531 3.531 0 0 1-.7657-.644c-.1758.052-.3758.022-.5253-.1-.2323-.186-.2606-.512-.0606-.728l.0283-.032c-.1394-.312-.2343-.648-.2666-1l.3454.002c.0283.3.103.586.2202.854.1-.012.202-.002.295.032l.6707-.736-.202-.3.618-.68.3374.144.806-.886c-.0182-.028-.0303-.058-.0424-.092l-.5576.002-.1.334h-.9536l-.103-.334-.6546-.002c-.0545.152-.1818.272-.3414.324l-.002.808-.3454-.002v-.802c-.2223-.066-.386-.262-.386-.494s.1657-.43.388-.496l.002-.8-.3556-.096v-.892l.3556-.1v-.8c-.2182-.07-.3717-.264-.3717-.5 0-.286.2464-.516.5515-.516.2465 0 .4546.148.5273.356h.6242l.103-.334h.9516l.103.334h.5414c.072-.2062.2753-.3535.517-.356l.0143 1.674h-.1717v.522h.1707l-.0043 4.318h-.1583v.522h.1574zm-1.1947-3.6612l-.2606-.208-.3596.396.2606.208zm-2.012-3.688h-.3415l-.002.522h.3435zm1.8505 2.282v-.32h-.5758v.32zm-2.1414 1.938l-.3556-.078-.0505-.9.3535-.116v.512c0 .198.0182.384.0526.572zm.295-1.104l.3535.082.01.444c-.008-.148.0384.448.0384.448l-.3555.116c-.0364-.18-.0485-.368-.0485-.558zm2.1838 3.386l.0788-.34c-.307-.096-.592-.236-.8424-.418l-.2545.222a3.363 3.363 0 0 0 1.0181.536zm-.1717.288l-.2626.244a3.909 3.909 0 0 1-.8323-.422l.0767-.354c.303.226.6485.406 1.0182.532z" stroke-width=".26"/><path d="M1056.605 431.728c-.0102-.028-.0243-.054-.0384-.08l.8606-.948.3373.144.6182-.678-.202-.292 1.0788-1.198c.014.004.0404.004.0545.008l-.006.804-.3536.1v.892l.3536.096.006.816c-.1697.052-.3.176-.3515.334l-.6485.002-.103-.334h-.9535l-.1.334zm1.4-3.7v.322h-.5575v-.322zm1.4748 4.074c-.1293 0-.2343-.098-.2343-.22s.105-.222.2343-.222.2364.1.2364.222-.105.22-.2364.22zm-3.2303-1.946l.3556-.096v-.892l-.3556-.1.002-.384c.1717-.05.305-.174.3616-.334h.5414l.103.334h.9515l.103-.334h.6243c.016.044.0343.084.0585.122l-1.0868 1.192-.3374-.142-.6182.68.202.3-.8444.928-.0566-.024zm1.4646-.278l.2607.208-.3576.396-.2606-.2zm-1.617 7.2372c.2505-.013.4556-.1804.508-.4032.3373-.046.6565-.132.9555-.26l-.1697-.286c-.2606.1-.5374.182-.8242.222-.0627-.132-.1738-.232-.3192-.28l-.002-1.124.3556-.098v-.892l-.3556-.096v-1.528c.0142-.004.0263-.01.0405-.018l.804.884-.202.288.6182.68.3373-.142.6667.734a.483.483 0 0 0 .0222.57c-.19.2-.41.396-.6545.55l.1697.288a3.533 3.533 0 0 0 .7656-.644c.1758.052.3758.022.5253-.1.2323-.186.2606-.512.0606-.728l-.0283-.032c.1394-.312.2343-.648.2667-1l-.3455.002c-.0283.3-.103.586-.2202.854a.641.641 0 0 0-.2949.032l-.6708-.736.202-.3-.6182-.68-.3374.144-.806-.886c.0182-.028.0303-.058.0424-.092l.5576.002.1.334h.9535l.103-.334.6546-.002c.0545.152.1818.272.3414.324l.002.808.3455-.002v-.802c.2222-.066.3858-.262.3858-.494s-.1656-.43-.3878-.496l-.002-.8.3556-.096v-.892l-.3556-.1v-.8c.2182-.07.3717-.264.3717-.5 0-.286-.2464-.516-.5515-.516-.2464 0-.4545.148-.5272.356h-.6243l-.103-.334h-.9515l-.103.334h-.5414c-.072-.2062-.2752-.3535-.517-.356l-.0144 1.674h.1717v.522h-.1707l.0043 4.318h.1583v.522h-.1574zm1.1947-3.6612l.2607-.208.3596.396-.2606.208zm2.0122-3.688h.3414l.002.522h-.3434zm-1.8505 2.282v-.32h.5757v.32zm2.1414 1.938l.3555-.078.0505-.9-.3535-.116v.512c0 .198-.0182.384-.0525.572zm-.295-1.104l-.3535.082-.01.444c.008-.148-.0384.448-.0384.448l.3556.116c.0363-.18.0485-.368.0485-.558zm-2.1838 3.386l-.0788-.34c.307-.096.592-.236.8424-.418l.2546.222c-.3.23-.6445.416-1.0182.536zm.1717.288l.2626.244a3.912 3.912 0 0 0 .8324-.422l-.0768-.354c-.303.226-.6485.406-1.0182.532z" stroke-width="-.26"/></g><path d="M1055.5687 431.888c0-.288.2485-.52.5535-.52s.5515.232.5515.52-.2464.516-.5515.516-.5535-.23-.5535-.516" class="D"/><path d="M1040.9283 426.75h10.1374v-11.144h-10.1374v11.144z" class="B"/><g class="C"><path d="M1044.407 418.182h-.186v-.184h-.3272v.738h.3272v.5h-.7v1.478h.3738v2.958h-.7475v1.526h5.7414v-1.526h-.7454v-2.958h.3737v-1.478h-.7v-.5h.3273v-.738h-.3273v.184h-.188v-.184h-.3252v.184h-.2344v-.184h-.3273v.738h.3273v.5h-.7v-1.618h.3717v-.74h-.3717v.186h-.188v-.186h-.3272v.186h-.186v-.186h-.3737v.74h.3737v1.618h-.7v-.5h.3273v-.738h-.3273v.184h-.186v-.184h-.3737v.184zm-1.2606 7.026h5.7414m-5.7414-.37h5.7414m-5.7414-.37h5.7414m-5.7414-.37h5.7414m-5.7414-.416h5.7414m-4.994-.324h4.2485m-4.2485-.37h4.2485m-4.2485-.416h4.2485m-4.2485-.368h4.2485m-4.2485-.37h4.2485m-4.2485-.37h4.2485m-4.2485-.37h4.2485m-4.6223-.37h4.996m-4.996-.37h4.996m-4.996-.37h4.996m-4.996-.368h4.996m-4.295-.37h3.594m-2.1475-.37h.7m-.7-.37h.7m-.7-.37h.7m-.7-.37h.7m-1.0747-.462h1.4464m-2.5192 1.572h.7455m-1.0727-.462h1.4m-1.4 6.794v-.37m0-.37v-.37m-.3738.37v.37m.7 0v-.37m.3718.74v-.37m0-.37v-.37m0-.416v-.324m0-.37v-.416m-.3718 1.526v-.416m-.7.416v-.416m1.4465 0v.416m.3273-.416v-.324m-1.0728-.37v.37m.7455-.37v.37m.7-.37v.37m-.3737-.37v-.416m.3737-.368v.368m0-1.108v.37m-.3737-.74v.37m.3737-.74v.37m-.7-.37v.37m-.7455-.37v.37m-.3272-.74v.37m.7-.37v.37m.7-.37v.37m.3737-.74v.37m-.7-.37v.37m-.7455-.37v.37m-.3272-.738v.368m1.4-.368v.368m-.7-1.108v.37m3.2222-.37h-.7475m1.0748-.462h-1.402m1.402 6.794v-.37m0-.37v-.37m.3737.37v.37m-.7 0v-.37m-.3738.74v-.37m0-.37v-.37m0-.416v-.324m0-.37v-.416m.3738 1.526v-.416m.7.416v-.416m-1.4485 0v.416m-.3273-.416v-.324m1.0748-.37v.37m-.7475-.37v.37m-.7-.37v.37m.3717-.37v-.416m-.3717-.368v.368m0-1.108v.37m.3717-.74v.37m-.3717-.74v.37m.7-.37v.37m.7475-.37v.37m.3273-.74v.37m-.701-.37v.37m-.7-.37v.37m-.3717-.74v.37m.7-.37v.37m.7475-.37v.37m.3273-.738v.368m-1.402-.368v.368m.7-1.108v.37m-1.4464 3.742v-.416m0-1.108v-.37m0 1.1v-.37m0-1.1v-.37m0-.37v-.368m0-.74v-.37m0-.37v-.37m-1.7738.97h.7455m.7-1.108h.7m.7 1.108h.7475"/><path d="M1046.9747 425.208v-.972c0-.184-.093-.74-.9798-.74-.8404 0-.9333.556-.9333.74v.972h1.913z"/><path d="M1045.387 424.282l-.4667-.046c0-.184.0465-.462.188-.554l.4202.324c-.0465.046-.1414.184-.1414.276zm.7938-.462l.2343-.416c-.093-.046-.2808-.092-.4202-.092-.093 0-.2808.046-.3737.092l.2323.416h.3273zm.4667.462l.4666-.046c0-.184-.0464-.462-.1858-.554l-.4202.324c.0464.046.1394.184.1394.276zm-1.3535-1.616v-1.018c0-.276-.186-.508-.5132-.508s-.513.232-.513.508v1.018h1.0263zm1.4464 0v-1.018c0-.276.188-.508.515-.508s.5132.232.5132.508v1.018h-1.0283zm-1.7737-2.496l.0465-.924h-.887l.095.924h.7455zm1.402 0l.093-.924h-.887l.0465.924h.7475zm.7 0l-.093-.924h.9333l-.093.924h-.7475z"/></g><path d="M1046.6475 425.208v-.832c0-.14-.093-.556-.6525-.556-.5132 0-.608.416-.608.556v.832h1.2606zm-1.4475-2.636v-.878c0-.23-.1394-.462-.4202-.462s-.4202.232-.4202.462v.878h.8404zm1.6354 0v-.878c0-.23.1394-.462.4202-.462s.4202.232.4202.462v.878h-.8404z" fill="#0039f0"/><path d="M1051.0616 426.75h10.1656v-11.144h-10.1656v11.144z" class="F"/><path d="M1056.2435 418.352l.01-.124.0182-.068s-.3252.026-.497-.022-.3253-.118-.485-.25-.2222-.22-.3374-.236c-.2747-.044-.4848.08-.4848.08a.92.92 0 0 0 .3596.262c.1535.188.3212.282.394.306.1192.036.5374.01.6505.014l.3718.038z" fill="#db4446"/><path d="M1057.7647 417.9l.016.28c.0122.134-.0444.248-.0222.322s.0323.132.0606.186.0424.188.0424.188l-.1495-.108-.1212-.088.0202.206c.008.062.0445.178.103.248s.1757.178.212.266.0283.288.0283.288-.093-.15-.1758-.178-.2545-.124-.2545-.124.1596.158.1596.3-.0647.32-.0647.32-.0727-.136-.1677-.224-.2282-.18-.2282-.18.105.234.105.4-.0303.494-.0303.494-.0788-.128-.1596-.192-.1758-.116-.206-.156.097.128.109.232.0647.47.388.938c.19.274.4828.754 1.111.596s.396-.994.2627-1.384-.198-.822-.2-.974.1172-.594.103-.678-.0485-.4.0283-.656c.0808-.266.1474-.37.192-.48s.0788-.172.093-.268.0142-.274.0142-.274l.1474.288c.0283.076.0283.3.0283.3s.0222-.224.198-.334.3798-.226.4303-.288.0667-.102.0667-.102-.0162.384-.1253.534c-.0727.098-.3576.418-.3576.418s.1475-.056.2485-.06.1758 0 .1758 0-.1253.096-.285.328-.095.252-.212.444-.212.2-.3596.316c-.2182.174-.1.868-.0727.972s.41.952.4182 1.158.0424.666-.3233.96c-.2343.2-.6202.192-.71.246s-.2607.226-.2607.582.1293.412.2324.502.2343.04.2626.1.0444.108.089.15.0727.088.0586.164-.184.246-.2425.37-.1757.446-.1757.494-.0142.198.0364.274c0 0 .1838.212.0585.252-.0808.028-.1576-.05-.196-.04-.109.028-.1677.094-.198.1-.0727-.014-.0727-.05-.0808-.152s-.002-.144-.0344-.144c-.0444 0-.0666.036-.0747.1s-.008.178-.0586.178-.1232-.1-.1677-.1-.1676-.04-.1757-.096.0727-.17.1535-.192.1535-.06.103-.102-.103-.04-.1535 0-.1596.008-.1535-.054.0222-.138.014-.172-.095-.102.0202-.164.1697.054.287.034.1737-.062.2182-.13.0363-.212-.0445-.3-.1596-.104-.19-.16-.0727-.184-.0727-.184.0222.24.008.274-.008.178-.008.178l-.1455-.158c-.0646-.068-.1313-.274-.1313-.274l-.006.268c0 .074.0868.144.0585.172s-.1676-.144-.206-.172-.1535-.116-.204-.212-.0888-.232-.103-.282-.0384-.262-.014-.316l.095-.226h-.2848c-.1536 0-.2626-.046-.3212.056s-.0303.308.0424.576.117.396.097.444-.1172.158-.1536.178-.1394.014-.1838-.006-.1152-.054-.2546-.054-.2262.006-.2767-.006-.1778-.076-.2364-.062-.1596.064-.1313.144c.0444.122-.0424.15-.103.144s-.107-.028-.182-.048-.1818 0-.1676-.084.0444-.088.0808-.148.0505-.104.008-.108c-.0506-.004-.103-.01-.1414.022s-.103.102-.1536.076-.093-.086-.093-.216-.1374-.24-.01-.234.2848.096.313.026.012-.102-.0565-.156-.1536-.086-.0627-.154.113-.07.1495-.108.0828-.158.1475-.128c.1252.06.004.146.1313.284s.204.188.4162.166.2686-.048.2686-.108-.018-.164-.0242-.208.0303-.198.0303-.198-.097.06-.1273.118-.0848.16-.0848.16-.0222-.12-.0162-.218c.004-.058.0243-.158.0222-.178-.006-.054-.0464-.188-.0464-.188s-.0323.146-.0566.188-.0323.214-.0323.214-.1354-.116-.097-.3c.0263-.15-.0242-.348.0223-.412s.1515-.328.416-.338l.5596.006c.091-.006.4162-.066.4162-.066l-.7354-.396c-.1374-.1-.3495-.326-.4182-.432s-.1313-.316-.1313-.316-.107.004-.206.058-.194.134-.2506.198-.1474.2-.1474.2l.016-.246c0-.058-.012-.172-.012-.172s-.0666.256-.204.352l-.297.23.0162-.176c0-.032.0343-.198.0343-.198s-.097.144-.2444.172-.3657.022-.384.112.0404.214.006.278-.109.108-.109.108-.0848-.07-.1596-.076-.1434.032-.1434.032-.0627-.08-.0384-.134.1353-.132.109-.166-.1212.012-.1778.038-.1778.054-.1657-.038.0404-.144.01-.208-.01-.106.0364-.122.2263.004.2445-.038-.0445-.096-.1657-.122-.1778-.098-.1152-.156.081-.076.109-.128.0404-.152.1495-.102.085.166.2.202.382-.016.4384-.048.2404-.166.303-.198.3252-.224.3252-.224l-.212-.16c-.0566-.054-.1576-.182-.21-.2s-.303-.122-.388-.128-.3475-.096-.3475-.096.1192-.038.1596-.07.1293-.112.1758-.106l.0565.004-.297-.026c-.0505-.016-.2-.108-.2566-.108s-.1697.022-.1697.022.1536-.096.2788-.118.2222-.016.2222-.016-.194-.054-.2404-.116l-.1252-.204c-.0344-.042-.0566-.112-.1192-.118s-.1717.076-.2344.07-.109-.044-.115-.134 0-.06-.0202-.108-.1152-.16-.0303-.186.2687.016.2868-.016-.097-.13-.1717-.166-.194-.102-.1313-.156.1253-.074.1596-.122.0747-.182.1495-.14.1757.252.2343.236.0606-.166.0505-.23 0-.176.0566-.166.103.086.194.092.2282-.022.216.042-.0626.142-.1252.212-.091.2-.0506.3.1435.238.2344.296.2626.102.3717.17.3596.268.4445.3.1717.064.1717.064.097-.042.2283-.042.4323.02.5474-.028.2627-.128.2182-.23-.297-.192-.2747-.272.115-.086.2687-.092.3636.028.404-.188.0525-.336-.1636-.384-.3778-.054-.4182-.208-.0788-.194-.0344-.236.1253-.064.285-.074.3434-.012.396-.05.0607-.138.1233-.182.309-.08.309-.08.295.142.5656.342c.2445.18.4647.446.4647.446" fill="#ed72aa"/><path d="M1055.6616 417.748l-.0404-.124c-.006-.026-.0242-.058-.0242-.058s.1778 0 .1717.054-.0565.054-.0687.074-.0384.054-.0384.054zm.8-.278l-.012-.086s.1556 0 .2283.052c.115.08.188.204.1838.2-.0202.018-.1-.054-.1717-.074 0 0-.0465.01-.1.01s-.0687-.022-.0748-.042.006-.06.006-.06l-.0687-.01zm-.804 1.058l.0667-.106.0687.098-.1354.008m.1636-.004l.0808-.106.087.096-.1677.01"/><path d="M1055.7586 417.866l.1657.058-.1495.076-.0162-.134m.2.054l.1475.036-.1192.092-.0283-.128"/><g fill="#db4446"><path d="M1053.405 417.716s.097.068.1717.08.1535.01.1657.01.0343-.108.0222-.182c-.0404-.24-.2626-.294-.2626-.294s.0666.146.0343.214c-.0465.096-.1313.172-.1313.172zm-.4626.208s-.0868-.154-.2687-.134-.303.162-.303.162.202-.006.2525.026c.0748.048.097.172.097.172s.1-.064.1434-.108.0788-.118.0788-.118zm-.2222.626s-.1556.022-.2404.118-.0727.28-.0727.28.1-.108.192-.108.2343.032.2343.032-.0444-.112-.0444-.16-.0687-.162-.0687-.162zm.5192 2.024s-.0848-.1-.2343-.064-.2465.194-.2465.194.1273-.034.202-.016.1253.1.1253.1.0687-.058.1-.1l.0626-.114zm-.1717.594s-.1253-.02-.2344.066-.113.25-.113.25.103-.086.1838-.074.1758.054.1758.054l.0222-.128c.0182-.076-.0343-.168-.0343-.168zm.293.548s-.01.158.0667.256.2283.118.2283.118-.0485-.106-.0566-.16c-.012-.08.0687-.15.0687-.15s-.0747-.076-.1475-.076-.1596.012-.1596.012zm1.4828 1.408s-.103-.128-.2445-.124-.293.138-.293.138.1778-.014.2242.044l.1.134s.0808-.042.115-.07.107-.122.107-.122zm-.4385.562s-.1878-.028-.2808.07-.0848.272-.0848.272.113-.122.216-.112.2182.064.2182.064l-.0303-.156c-.01-.048-.0384-.138-.0384-.138zm.395.594s-.093.128-.0242.23.212.15.212.15-.0525-.074-.0283-.16c.0182-.068.1354-.16.1354-.16l-.295-.06zm2.505.242s-.1636-.038-.2565.016-.1657.278-.1657.278.1495-.124.2586-.108a.629.629 0 0 1 .1879.06s.016-.092.004-.156c-.006-.038-.0283-.1-.0283-.1zm.082.598s-.1253.128-.08.236.1253.22.1253.22-.004-.16.0465-.204c.0747-.064.212-.074.212-.074s-.1-.096-.1435-.108-.1595-.07-.1595-.07z"/><path d="M1058.0252 425.308s-.0626.156.0566.256.2243.114.2243.114-.093-.162-.0647-.246c.0303-.1.109-.144.109-.144s-.1495-.05-.1717-.044-.1536.064-.1536.064z"/></g><path d="M1057.6475 417.042l-.0586.004a.299.299 0 0 1-.0525.07c-.0525.05-.1313.056-.1737.014a.096.096 0 0 1-.0283-.082c-.0344.018-.0707.018-.103-.002-.0525-.03-.0646-.1-.0282-.158.006-.012.012-.028.0222-.036l-.004-.064-.0707.016-.0202.038c-.0444.05-.109.062-.1414.034-.016-.014-.0283-.052-.0262-.054s-.0182.018-.0344.022c-.109.026-.1515-.2-.1555-.27l-.0344.05s.0323.14.0162.26-.0586.238-.0586.238c.1495.038.3757.16.6.33s.4.356.4727.484c0 0 .1172-.064.2384-.102s.2747-.04.2747-.04l.0445-.042c-.0646.01-.3192.02-.315-.086 0-.016.014-.036.016-.036s-.0424-.002-.0606-.012c-.0364-.026-.0364-.086.004-.138l.0364-.026.002-.068-.0687.01c-.006.008-.0222.018-.0303.026-.0545.046-.1313.05-.1737.006-.0263-.024-.0343-.058-.0222-.092-.0324.008-.0647.006-.091-.01-.0526-.03-.0627-.104-.0223-.16a.268.268 0 0 1 .0627-.064l-.0142-.06h-.002z" class="C"/><path d="M1057.193 417.18c.01-.014.0303-.012.0465 0s.0202.032.012.042-.0303.012-.0485-.002-.0202-.03-.01-.04z"/><path d="M1057.3848 417.338l-.0666-.05c-.012-.008-.0142-.024-.008-.032s.0242-.008.0364 0l.0666.052.0667.05c.01.008.0162.024.008.032s-.0243.008-.0364 0l-.0667-.052"/><path d="M1057.0333 417.1l-.0525-.03c-.0142-.008-.0202-.024-.0142-.034s.0223-.012.0344-.004l.0525.032.0525.03c.0122.006.0182.022.0142.032s-.0223.012-.0344.004l-.0525-.03"/><path d="M1056.8232 416.958c.01-.012.0324-.012.0485 0s.0202.032.01.044-.0303.01-.0464-.002-.0202-.03-.0122-.042zm.7738.526c.01-.01.006-.028-.01-.042s-.0384-.012-.0485 0-.004.03.0122.042.0363.012.0464 0z"/><path d="M1057.712 417.616l.0444.042c.01.01.0263.014.0364.006s.008-.022-.002-.032l-.0425-.042-.0444-.042c-.01-.01-.0283-.014-.0364-.006s-.008.022.002.032l.0424.042"/><path d="M1057.904 417.778c.01-.012.006-.03-.01-.042s-.0364-.014-.0465-.002-.006.03.01.044.0364.012.0465 0z"/><g class="C"><path d="M1057.3485 416.572l-.1192.002-.0222.174.012.028.0303-.002.1536-.102-.0546-.1"/><path d="M1057.0252 416.668l-.004.108.186.024.0303-.014-.004-.03-.107-.142-.1.054m.3835.216l-.1.054-.11-.142v-.03l.0283-.012.188.022-.006.108"/><path d="M1057.1686 416.75c.0162-.026.0526-.034.0788-.018s.0364.048.0202.074-.0525.034-.0788.018-.0363-.048-.0202-.074zm-.4343-.18c-.004.002-.0262-.092-.0525-.142-.0162-.038-.0788-.086-.0788-.086.006-.01.085-.038.1758.018.0767.062-.006.174-.006.174s-.0182.028-.0384.036z"/><path d="M1056.9424 416.632l-.0848.074-.1374-.12.012-.016.006-.03.1858-.014.0182.106"/><path d="M1056.7 416.558c.01-.03.0364-.046.0566-.04s.0303.036.0202.066-.0364.046-.0586.04-.0303-.036-.0182-.066zm1.097.296l-.1192-.012-.0505.17.01.028.0303.002.1677-.082-.0384-.106"/><path d="M1057.4717 416.906l-.0202.108.1818.046.0303-.008.002-.028-.0868-.158-.107.04m.3474.266l-.107.04-.0848-.156.002-.03.0303-.006.1798.046-.0202.106"/><path d="M1057.6 417.008c.0202-.024.0566-.026.0808-.008s.0303.052.01.076-.0565.026-.0828.008a.052.052 0 0 1-.0081-.076z"/><path d="M1058.205 417.222l.0222.1-.1758.06-.0323-.008-.002-.028.0727-.162.1152.028"/><path d="M1058.1748 417.54l-.1132.026-.0626-.166.008-.03.0303-.004.1717.07-.0343.104m-.307-.308l-.0364.104.1717.068.0323-.004.006-.028-.0606-.166-.113.026"/><path d="M1058.0576 417.426a.054.054 0 0 0 .004-.078c-.0222-.022-.0585-.022-.0828-.004s-.0242.056-.002.078a.06.06 0 0 0 .0808.004zm.2788.36c0 .002.1.006.1596.018.0404.008.105.054.105.054.012-.008.0242-.084-.0566-.158-.0788-.056-.1778.044-.1778.044s-.0242.024-.0303.042z"/><path d="M1058.2273 417.608l-.0586.092.1535.102.0182-.016.0263-.008-.0242-.176-.1152.006"/><path d="M1058.3525 417.806c.0283-.014.0424-.044.0303-.062s-.0445-.02-.0727-.004-.0404.044-.0283.062.0424.02.0707.004z"/></g><path d="M1047.807 426.702c0-2.0276 1.465-3.66 3.285-3.66s3.2848 1.6324 3.2848 3.66-1.465 3.66-3.2848 3.66-3.285-1.6324-3.285-3.66z" class="B"/><path d="M1048.7828 426.694c0-1.487 1.0308-2.684 2.311-2.684s2.311 1.197 2.311 2.684-1.0307 2.684-2.311 2.684-2.311-1.197-2.311-2.684z" class="E"/><g class="C"><path d="M1050 424.848s-.2727.296-.2727.572a1.263 1.263 0 0 0 .1152.508c-.0425-.1-.1536-.188-.285-.188-.1677 0-.303.126-.303.284 0 .044.0283.116.0485.154l.1.198c.0323-.074.109-.114.198-.114.1192 0 .2182.1.2182.202a.136.136 0 0 1-.0081.05l-.2464.002v.206h.2202l-.1636.322.216-.084.1636.182.1697-.182.2162.084-.1616-.322h.2182v-.206l-.2465-.002c-.004-.016-.004-.032-.004-.05 0-.112.095-.202.214-.202.089 0 .1657.04.198.114l.1-.198c.0202-.038.0485-.1.0485-.154 0-.158-.1354-.284-.3-.284-.1334 0-.2445.078-.285.188 0 0 .1152-.23.1152-.508s-.281-.572-.281-.572z"/><path d="M1049.5647 426.722h.8808v-.206h-.8808v.206zm2.5838-1.874s-.2728.296-.2728.572a1.263 1.263 0 0 0 .1152.508.318.318 0 0 0-.285-.188c-.1676 0-.303.126-.303.284 0 .044.0283.116.0485.154l.1.198c.0323-.074.11-.114.198-.114.1192 0 .218.1.218.202a.138.138 0 0 1-.008.05l-.2465.002v.206h.2202l-.1636.322.216-.084.1637.182.1697-.182.216.084-.1616-.322h.2182v-.206l-.2465-.002c-.004-.016-.004-.032-.004-.05 0-.112.095-.202.214-.202.09 0 .1657.04.198.114l.1-.198c.0202-.038.0485-.1.0485-.154 0-.158-.1354-.284-.3-.284-.1334 0-.2445.078-.285.188 0 0 .1152-.23.1152-.508s-.2808-.572-.2808-.572z"/><path d="M1051.712 426.722h.8808v-.206h-.8808v.206zm-.6383-.046s-.2727.296-.2727.572a1.263 1.263 0 0 0 .1152.508c-.0425-.1-.1536-.188-.285-.188-.1676 0-.303.126-.303.284 0 .044.0283.116.0485.154l.1.198c.0323-.074.11-.114.198-.114.1192 0 .2182.1.2182.202a.138.138 0 0 1-.008.05l-.2465.002v.206h.2202l-.1636.322.216-.084.1636.182.1697-.182.2162.084-.1616-.322h.2182v-.206l-.2465-.002c-.004-.016-.004-.032-.004-.05 0-.112.095-.202.214-.202.09 0 .1657.04.198.114l.1-.198c.0202-.038.0485-.1.0485-.154 0-.158-.1354-.284-.3-.284-.1333 0-.2444.078-.2848.188 0 0 .1152-.23.1152-.508s-.28-.572-.28-.572z"/><path d="M1050.6374 428.55h.8808v-.206h-.8808v.206z"/></g><defs ><path id="B" d="M1034.5566 415.35c-.0404-.114-.1172-.216-.1172-.216.394-.114.9414-.186 1.5495-.188s1.1616.074 1.5535.188l-.105.182c-.0344.06-.0788.162-.0768.162-.3535-.108-.812-.162-1.3737-.164s-1.103.07-1.386.172c.004 0-.0202-.064-.0464-.136h.002"/><path id="C" d="M1035.989 415.846c.491-.002 1.0323-.076 1.2323-.126.1333-.04.212-.098.198-.168-.008-.032-.0364-.06-.0748-.076-.295-.094-.8222-.16-1.3555-.16s-1.0647.066-1.3576.16c-.0384.016-.0667.044-.0748.076-.014.07.0647.128.198.168.2.05.7434.124 1.2344.126z"/><path id="D" d="M1037.5666 414.916l-.119-.106s-.1152.068-.2586.048-.188-.194-.188-.194-.1596.134-.291.124-.2162-.124-.2162-.124-.1434.102-.2687.092-.2444-.166-.2444-.166-.1273.16-.2525.172-.2283-.108-.2283-.108-.0566.118-.2162.144-.297-.124-.297-.124-.091.146-.2.184-.2505-.054-.2505-.054l-.0404.086c-.016.032-.0626.038-.0626.038l.0364.094c.39-.112.9212-.182 1.5212-.182s1.1454.07 1.5374.184l.0404-.108h-.002z"/><path id="E" d="M1033.9242 414.65c.0243-.024.0727-.018.107.012s.0485.076.0242.1-.0727.02-.107-.012-.0485-.076-.0243-.1z"/><path id="F" d="M1034.4434 414.676c-.012-.036 0-.074.0263-.084s.0606.018.0747.054 0 .076-.0283.084-.0585-.016-.0727-.054z"/><path id="G" d="M1034.8475 414.43c0-.052.0442-.094.1-.094s.1.042.1.094-.0442.094-.1.094-.1-.042-.1-.094z"/><path id="H" d="M1035.4233 414.5c-.006-.04.014-.074.0424-.078s.0566.026.0606.066-.014.074-.0424.076-.0566-.026-.0606-.064z"/><path id="I" d="M1035.4 415.16c0-.0454.0396-.082.089-.082s.089.0366.089.082-.0397.082-.089.082-.089-.0366-.089-.082z"/><path id="J" d="M1035.995 415.196h-.194c-.0364 0-.0667-.028-.0667-.062s.0283-.062.0646-.062h.396c.0384 0 .0667.028.0667.062s-.0303.062-.0667.062h-.2"/><path id="K" d="M1036.9646 415.262l.1394.022c.0364.004.0707-.018.0768-.052s-.0182-.064-.0546-.07l-.1414-.02-.1434-.022c-.0364-.004-.0707.018-.0748.05s.0182.066.0546.07l.1434.022"/><path id="L" d="M1035.9868 415.732c-.491 0-.9353-.044-1.2727-.13.3374-.086.7818-.138 1.2727-.14s.9394.054 1.2788.14c-.3394.086-.7858.13-1.2788.13z"/><path id="M" d="M1039.1424 436.636c-.311 0-.588-.066-.794-.174-.202-.102-.4768-.164-.7798-.164s-.586.064-.79.166-.485.172-.792.172-.59-.072-.794-.18c-.202-.098-.4707-.158-.7656-.158-.307 0-.5778.058-.7798.162s-.489.176-.798.176v.482c.309 0 .592-.07.798-.176s.4727-.164.7798-.164c.293 0 .5636.062.7656.16.204.106.483.18.794.18s.588-.066.792-.172.4848-.168.79-.168.5778.064.7798.166c.206.108.4788.174.79.174l.004-.482z"/><path id="N" d="M1039.1424 437.118c-.311 0-.588-.066-.794-.174-.202-.102-.4768-.166-.7798-.166s-.586.064-.79.168-.485.172-.792.172-.59-.074-.794-.18c-.202-.098-.4707-.16-.7656-.16-.307 0-.5778.06-.7798.164s-.489.176-.798.176v.482c.309 0 .592-.07.798-.176s.4727-.164.7798-.164c.293 0 .5636.062.7656.16.204.108.483.18.794.18s.588-.068.792-.172.4848-.168.79-.168.5778.064.7798.168.4788.172.79.172l.004-.482"/><path id="O" d="M1039.1424 437.6c-.311 0-.588-.066-.794-.172s-.4768-.168-.7798-.168-.586.064-.79.168-.485.172-.792.172-.59-.072-.794-.18c-.202-.098-.4707-.16-.7656-.16-.307 0-.5778.06-.7798.164s-.489.176-.798.176v.48c.309 0 .592-.068.798-.176.202-.102.4727-.16.7798-.16.293 0 .5636.06.7656.158.204.108.483.178.794.178s.588-.064.792-.17.4848-.166.79-.166.5778.062.7798.164c.206.1.4788.172.79.172l.004-.48"/><path id="P" d="M1039.1384 438.564c-.311 0-.584-.066-.79-.174-.202-.102-.4768-.164-.7798-.164s-.586.062-.79.166-.485.172-.792.172-.59-.074-.794-.18c-.202-.1-.4707-.158-.7656-.158-.307 0-.5778.058-.7798.162s-.489.176-.798.176v-.48c.309 0 .592-.072.798-.18.202-.102.4727-.16.7798-.16.293 0 .5636.06.7656.158.204.108.483.178.794.178s.588-.064.792-.17.4848-.166.79-.166.5778.062.7798.164c.206.1.4828.172.794.172l-.004.484"/><path id="Q" d="M1039.1384 439.046c-.311 0-.584-.066-.79-.172s-.4768-.168-.7798-.168-.586.064-.79.168-.485.172-.792.172-.59-.074-.794-.18c-.202-.1-.4707-.16-.7656-.16-.307 0-.5778.06-.7798.164s-.489.176-.798.176v-.478c.309 0 .592-.074.798-.18s.4727-.162.7798-.162c.293 0 .5636.06.7656.158.204.106.483.18.794.18s.588-.068.792-.172.4848-.166.79-.166.5778.062.7798.164c.206.108.4808.174.794.174l-.004.482z"/><path id="R" d="M1034.304 434.354h3.3717c.115 0 .206.07.206.156s-.091.158-.206.158h-3.3717c-.1132 0-.206-.072-.206-.158s.093-.156.206-.156z"/><path id="S" d="M1034.2212 417.752c.0283-.012.0485-.014.083-.014h3.3717a.274.274 0 0 1 .0929.016c-.1172-.038-.2-.142-.2-.264s.091-.228.208-.266c-.0283.008-.0667.016-.1.016h-3.3737c-.0344 0-.0667-.002-.095-.012l.0182.004c.1212.036.19.142.19.258s-.0768.226-.196.262z"/><path id="T" d="M1034.304 417.738h3.3717c.115 0 .206.07.206.156s-.091.158-.206.158h-3.3717c-.1132 0-.206-.07-.206-.158s.093-.156.206-.156z"/><path id="U" d="M1034.304 416.974h3.3737c.1152 0 .208.06.208.132s-.093.134-.208.134h-3.3737c-.1132 0-.206-.06-.206-.134s.093-.132.206-.132z"/><path id="V" d="M1064.7384 413.916c0-.0477.0406-.086.091-.086s.091.0383.091.086-.0405.086-.091.086-.091-.0384-.091-.086z"/><path id="W" d="M1050.6273 408.288c0-.1994.172-.36.386-.36s.3858.1606.3858.36-.172.36-.3858.36-.386-.1606-.386-.36z"/><path id="X" d="M1050.791 406.136c0-.1152.099-.208.2222-.208s.2222.0928.2222.208-.099.208-.2222.208-.2222-.0928-.2222-.208z"/><path id="Y" d="M1050.595 410.2c0-.2283.1955-.412.4384-.412s.4384.1837.4384.412-.1955.412-.4384.412-.4384-.1838-.4384-.412z"/><path id="Z" d="M1045.7586 413.556c0-.116.1-.208.2222-.208s.2222.092.2222.208-.099.208-.2222.208-.2222-.094-.2222-.208"/></defs></svg>