<svg xmlns="http://www.w3.org/2000/svg" viewBox="0 0 1161 483"><path d="M54.505 269.53c8.26 0 14.348-2.8 18.26-8.412 3.908-5.605 5.865-14.457 5.865-26.56 0-12.247-1.92-21.172-5.755-26.78s-9.96-8.4-18.37-8.4c-7.675 0-14.905 1.992-21.7 5.975v58.212c6.492 3.984 13.723 5.976 21.7 5.976zM6.033 337.037c-1.92 0-3.32-.408-4.205-1.216S.5 333.57.5 331.505v-147.63c0-2.065.443-3.504 1.328-4.316s2.285-1.217 4.205-1.217H21.97c3.393 0 5.457 1.625 6.197 4.87l1.55 5.755c4.427-4.28 9.773-7.67 16.047-10.18s12.65-3.763 19.145-3.763c14.3 0 25.637 5.24 33.975 15.715s12.505 24.644 12.505 42.495c0 12.25-2.068 22.947-6.197 32.095s-9.74 16.195-16.82 21.137-15.2 7.415-24.347 7.415c-6.052 0-11.808-.96-17.264-2.877s-10.108-4.572-13.944-7.968v48.472c0 2.064-.408 3.504-1.217 4.316s-2.252 1.216-4.316 1.216H6.033m132.133-45.593c-1.92 0-3.32-.443-4.204-1.328s-1.328-2.285-1.328-4.205V183.876c0-2.065.443-3.504 1.328-4.316s2.285-1.217 4.204-1.217h15.936c3.393 0 5.457 1.625 6.2 4.87l2.876 11.952c5.9-6.5 11.472-11.1 16.7-13.833a35.62 35.62 0 0 1 16.712-4.095h3.1c2.064 0 3.54.408 4.425 1.217s1.328 2.25 1.328 4.316v18.592c0 1.92-.407 3.32-1.217 4.204s-2.25 1.33-4.315 1.33c-1.035 0-2.363-.072-3.985-.22s-3.7-.22-6.196-.22c-3.397 0-7.527.48-12.396 1.44s-9 2.18-12.395 3.652V285.9c0 1.92-.407 3.32-1.217 4.205s-2.25 1.328-4.315 1.328h-21.25m87.043 0c-1.92 0-3.32-.443-4.207-1.328s-1.328-2.285-1.328-4.205V183.875c0-2.065.443-3.504 1.328-4.316s2.287-1.217 4.207-1.217h21.247c2.065 0 3.504.408 4.316 1.217s1.217 2.25 1.217 4.316V285.9c0 1.92-.408 3.32-1.217 4.205s-2.25 1.328-4.316 1.328zm10.623-130.587c-5.6 0-10.1-1.55-13.5-4.648s-5.1-7.304-5.1-12.616 1.695-9.517 5.1-12.616 7.892-4.648 13.5-4.648 10.105 1.55 13.5 4.648 5.092 7.304 5.092 12.616-1.7 9.517-5.092 12.616-7.896 4.648-13.5 4.648m48.64 130.587c-1.92 0-3.32-.443-4.204-1.328s-1.33-2.285-1.33-4.205V183.875c0-2.065.443-3.504 1.33-4.316s2.284-1.217 4.204-1.217h15.936c3.393 0 5.457 1.625 6.197 4.87l1.772 5.976c7.82-5.164 14.863-8.816 21.136-10.957a59.66 59.66 0 0 1 19.367-3.208c13.28 0 22.65 4.724 28.1 14.165 7.524-5.015 14.607-8.632 21.247-10.845a64.67 64.67 0 0 1 20.585-3.32c10.325 0 18.332 2.876 24.013 8.632s8.52 13.8 8.52 24.125v78.12c0 1.92-.408 3.32-1.216 4.205-.815.885-2.253 1.328-4.317 1.328h-21.248c-1.92 0-3.32-.443-4.205-1.328s-1.327-2.285-1.327-4.205v-71.048c0-10.032-4.504-15.05-13.503-15.05-7.968 0-16.012 1.92-24.125 5.753V285.9c0 1.92-.408 3.32-1.217 4.205s-2.252 1.328-4.316 1.328h-21.248c-1.92 0-3.32-.443-4.205-1.328s-1.328-2.275-1.328-4.205v-71.048c0-10.032-4.503-15.05-13.5-15.05-8.267 0-16.38 1.992-24.348 5.975V285.9c0 1.92-.408 3.32-1.217 4.205s-2.252 1.328-4.316 1.328h-21.25m256.293-79.404c0-10.793-7.612-13.885-16.988-13.885-6.167 0-12.147 2.227-16.228 6.695-3.98 4.357-6.44 10.983-7.48 19.316 0 0 16.588 3 28.58 1.027 6.22-1.027 12.116-4.485 12.116-13.152zm-13.45 82.952c-18.04 0-31.76-4.216-42.788-15.437-7.237-7.365-14.056-21.03-14.056-44.453 0-18.885 5.984-33.32 15.723-43.797s24.6-15.388 38.667-15.388c17.555 0 27.963 3.985 35.932 11.953 1.307 1.307 9.315 9.588 9.315 22.88 0 4.576.14 9.315-2.997 15.96-2.124 4.5-5.344 7.32-6.195 8.097-13.055 11.944-38.64 11.153-47.293 10.66l-14.012-2.132c.917 9.708 3.64 17.333 9.584 21.667 5.6 4.075 11.72 5.792 24.25 5.792 6.28 0 14.66-1.257 25.433-4.06.58-.157 1.7-.443 2.1-.503.252-.04 1.3-.156 2.04.095 1.18.4 2.5 1.52 2.5 4.727v10.183c0 2.36-.264 4.023-.928 4.98s-2 1.888-3.905 2.624c-11.216 4.13-21.688 6.156-33.38 6.156" fill="#4aaae4"/><path d="M1003.077 212.03c0-10.793-7.612-13.885-16.987-13.885-6.167 0-12.147 2.227-16.227 6.695-3.982 4.357-6.44 10.983-7.482 19.316 0 0 16.588 3 28.58 1.027 6.223-1.027 12.116-4.485 12.116-13.152zm-13.447 82.95c-18.04 0-31.76-4.216-42.8-15.437-7.236-7.365-14.055-21.03-14.055-44.453 0-18.885 5.983-33.32 15.72-43.797s24.6-15.388 38.667-15.388c17.556 0 27.964 3.985 35.932 11.953 1.308 1.307 9.316 9.588 9.316 22.88 0 4.576.14 9.315-2.997 15.96-2.125 4.5-5.345 7.32-6.195 8.097-13.056 11.944-38.64 11.153-47.295 10.66l-14-2.132c.916 9.708 3.64 17.333 9.583 21.667 5.6 4.075 11.723 5.792 24.25 5.792 6.28 0 14.66-1.257 25.432-4.06.58-.157 1.7-.443 2.1-.503.253-.04 1.303-.156 2.04.095 1.18.4 2.5 1.52 2.5 4.727v10.183c0 2.36-.264 4.023-.928 4.98s-2 1.888-3.905 2.624c-11.216 4.13-21.687 6.156-33.377 6.156m-322.1-3.537c-1.477 0-2.695-.184-3.65-.553a5.73 5.73 0 0 1-2.436-1.771c-.664-.813-1.292-1.953-1.88-3.43L621.714 187.2l-1.107-3.1c-.297-.885-.443-1.695-.443-2.435 0-2.213 1.473-3.32 4.428-3.32h22.132c2.358 0 4.096.443 5.203 1.328s1.953 2.36 2.544 4.427l22.797 78.352 23.24-78.352c.6-2.065 1.44-3.54 2.545-4.427s2.84-1.328 5.2-1.328h21.47c2.95 0 4.428 1.107 4.428 3.32 0 .74-.15 1.55-.443 2.435l-1.108 3.1-37.848 98.493c-.592 1.477-1.216 2.62-1.88 3.43s-1.44 1.404-2.325 1.77-2.14.553-3.763.553h-19.256m85.9 0c-1.92 0-3.32-.443-4.204-1.328s-1.328-2.285-1.328-4.205V183.875c0-2.065.443-3.504 1.328-4.316s2.285-1.217 4.204-1.217h21.25c2.065 0 3.503.408 4.316 1.217s1.216 2.25 1.216 4.316V285.9c0 1.92-.407 3.32-1.216 4.205s-2.25 1.328-4.316 1.328zm10.625-130.587c-5.6 0-10.1-1.55-13.5-4.648-3.397-3.1-5.1-7.304-5.1-12.616s1.693-9.517 5.1-12.616 7.892-4.648 13.5-4.648 10.104 1.55 13.5 4.648 5.1 7.304 5.1 12.616-1.7 9.517-5.1 12.616c-3.397 3.1-7.896 4.648-13.5 4.648m94.463 108.675c7.083 0 13.868-2.065 20.363-6.197v-58.432c-6.345-3.687-13.65-5.533-21.912-5.533-7.823 0-13.65 2.916-17.485 8.743s-5.755 14.645-5.755 26.45 2.027 20.584 6.087 26.337 10.292 8.633 18.703 8.633zM847.9 293.878c-9.593 0-17.928-2.47-25-7.415s-12.505-11.803-16.268-20.584-5.644-18.925-5.644-30.433c0-18.295 4.35-32.94 13.06-43.936 8.705-11 20.215-16.488 34.528-16.488 11.655 0 21.763 3.32 30.323 9.96V133.2c0-2.065.442-3.504 1.328-4.316s2.285-1.217 4.205-1.217h21.248c2.064 0 3.503.407 4.316 1.217s1.217 2.25 1.217 4.316v152.72c0 1.92-.408 3.32-1.217 4.205s-2.252 1.328-4.316 1.328h-17.707c-1.77 0-3.137-.367-4.095-1.107s-1.66-1.993-2.103-3.763l-1.328-5.1c-9.15 8.265-19.996 12.395-32.536 12.395m255.857-23.914c15.5 0 23.236-11.73 23.236-35.192 0-23.313-7.747-34.97-23.236-34.97s-23.24 11.657-23.24 34.97c0 23.46 7.747 35.192 23.24 35.192zm0 24.8c-17.562 0-31.284-5.273-41.168-15.825s-14.83-25.267-14.83-44.156c0-18.737 4.943-33.384 14.83-43.935s23.607-15.825 41.168-15.825 31.276 5.277 41.17 15.825c9.88 10.55 14.827 25.197 14.827 43.935 0 18.9-4.947 33.608-14.827 44.156-9.893 10.552-23.613 15.825-41.17 15.825" fill="#232b39"/><path d="M281.765 352.953v1.816c.228 1.55 1.044 3.2 2.592 4.703 78.956 76.82 183.25 122.98 299.072 122.98 82.65 0 178.63-28.008 244.836-80.64 10.944-8.757 1.57-21.795-9.612-16.697-74.22 33.935-154.86 50.36-228.264 50.36-108.764 0-214.087-32.165-299.224-85.56-1.536-.96-3-1.376-4.275-1.376-2.756 0-4.737 1.9-5.125 4.416m491.9 8.297c-2.357 1.784-3.596 3.82-3.82 5.567v1.084c.276 2.013 2.152 3.365 5.455 2.945 21.307-2.753 68.82-8.86 77.284 2.805 8.473 11.64-9.407 59.645-17.395 81.028-2.4 6.44 2.775 9.1 8.2 4.162 35.535-31.878 44.707-98.72 37.4-108.36-3.472-4.62-19.776-8.943-39.96-8.943-21.58 0-47.6 4.93-67.185 19.712" fill="#4aaae4"/><path d="M360.603 1.252l8.986 38.95 7.37-38.95h11.24l-12.144 54.742h-11.354l-8.9-36.62-8.9 36.62h-11.355L323.382 1.252h11.242l7.407 38.876 9.024-38.876h9.55zm66.773 54.742l-3.797-11.28h-19.776l-3.76 11.28H388.05l20.378-54.742h10.452l20.5 54.742h-11.994zm-13.723-40.906l-6.805 20.5h13.686l-6.88-20.5zM481.18 1.252v9.136H464.4v45.606h-11.28V10.388H436.6V1.252h44.6zm37.07 36.507h11.28q-.64 8.835-6.523 13.9-5.884 5.076-15.5 5.076-10.527 0-16.562-7.087Q484.9 42.56 484.9 30.2v-3.346q0-7.896 2.782-13.9 2.782-6.016 7.952-9.23Q500.805.5 507.648.5q9.475 0 15.265 5.076 5.8 5.076 6.692 14.25h-11.28q-.414-5.3-2.95-7.7-2.538-2.387-7.726-2.387-5.64 0-8.44 4.042-2.8 4.042-2.876 12.54v4.136q0 8.873 2.688 12.97 2.688 4.098 8.478 4.098 5.226 0 7.8-2.388 2.575-2.387 2.95-7.388zM581.5 1.252v54.742h-11.3v-23.46h-21.995v23.46h-11.28V1.252h11.28v22.183H570.2V1.252h11.28zm73.992 26.168v2.444q0 8.083-2.857 14.174-2.857 6.1-8.178 9.4-5.32 3.3-12.2 3.3-6.805 0-12.144-3.27-5.34-3.27-8.27-9.343-2.933-6.072-2.97-13.967V27.46q0-8.084 2.914-14.23 2.914-6.147 8.234-9.437Q625.33.5 632.17.5q6.843 0 12.163 3.3 5.32 3.3 8.234 9.437 2.914 6.147 2.914 14.193zm-11.43 2.632v-2.67q0-8.6-3.083-13.084-3.083-4.474-8.798-4.474-5.677 0-8.76 4.418-3.083 4.418-3.12 12.952v2.67q0 8.384 3.083 13 3.083 4.624 8.873 4.624 5.677 0 8.723-4.455 3.045-4.455 3.083-13zm64.142-28.8v54.742h-11.28l-21.957-36.02v36.02h-11.28V1.252h11.28l21.995 36.094V1.252h11.242z" fill="#232b39"/></svg>