<svg xmlns="http://www.w3.org/2000/svg" viewBox="0 0 1161 499"><title>Amazon Prime Video - Germany</title><path d="M54.5053 284.666c8.2613 0 14.348-2.8013 18.26-8.412 3.908-5.6053 5.8653-14.4573 5.8653-26.5586 0-12.2467-1.9186-21.172-5.7546-26.7814s-9.96-8.4106-18.3707-8.4106c-7.6746 0-14.9053 1.992-21.6906 5.9746V278.7c6.492 3.984 13.7226 5.976 21.6906 5.976zm-48.472 67.5054c-1.92 0-3.3213-.408-4.2053-1.216S.5 348.7034.5 346.6395V199c0-2.0653.4427-3.504 1.328-4.316s2.2853-1.2174 4.2053-1.2174h15.936c3.3933 0 5.4573 1.6253 6.1973 4.8693l1.5494 5.7547c4.4266-4.2787 9.7733-7.6707 16.0466-10.1813s12.6507-3.7627 19.1454-3.7627c14.3106 0 25.6373 5.24 33.9746 15.7147s12.5054 24.644 12.5054 42.4946c0 12.2507-2.068 22.9467-6.1973 32.0947s-9.7387 16.1947-16.8214 21.1373-15.2 7.4147-24.3467 7.4147c-6.052 0-11.808-.9614-17.264-2.8773-5.4613-1.916-10.108-4.572-13.944-7.968v48.472c0 2.064-.408 3.504-1.2174 4.316s-2.252 1.216-4.316 1.216H6.0333m132.1334-45.5933c-1.9187 0-3.32-.4427-4.204-1.328s-1.328-2.2854-1.328-4.2054V199c0-2.0654.4427-3.504 1.328-4.316s2.2853-1.2173 4.204-1.2173h15.936c3.3933 0 5.4573 1.6253 6.1987 4.8693l2.876 11.952c5.9013-6.4907 11.472-11.1013 16.7106-13.8333s10.808-4.0947 16.712-4.0947h3.0987c2.064 0 3.5413.408 4.4253 1.2173s1.328 2.2507 1.328 4.316v18.592c0 1.92-.4067 3.32-1.2173 4.204s-2.2507 1.3294-4.3147 1.3294c-1.0346 0-2.3627-.072-3.9853-.2214s-3.6894-.2213-6.196-.2213c-3.3973 0-7.5267.4813-12.396 1.4387s-9.0013 2.1786-12.3947 3.652v74.368c0 1.92-.4066 3.32-1.2173 4.2054s-2.2507 1.328-4.3147 1.328h-21.2493m87.0427.01c-1.92 0-3.3214-.4426-4.2067-1.328s-1.328-2.2854-1.328-4.2054V199c0-2.0653.4426-3.504 1.328-4.316s2.2866-1.2174 4.2067-1.2174h21.2466c2.0653 0 3.504.408 4.316 1.2174s1.2174 2.2506 1.2174 4.316v102.0347c0 1.92-.408 3.32-1.2174 4.2054s-2.2507 1.328-4.316 1.328zm10.6226-130.5866c-5.6093 0-10.1093-1.5494-13.5013-4.648s-5.0907-7.304-5.0907-12.616 1.6947-9.5174 5.0907-12.616 7.892-4.648 13.5013-4.648 10.1054 1.5493 13.5014 4.648 5.092 7.304 5.092 12.616-1.7 9.5173-5.092 12.616-7.896 4.648-13.5014 4.648m48.6386 130.5866c-1.92 0-3.32-.4426-4.204-1.328s-1.3293-2.2853-1.3293-4.2053V199c0-2.0653.4427-3.504 1.3293-4.316s2.284-1.2174 4.204-1.2174h15.936c3.3934 0 5.4574 1.6253 6.1974 4.8693l1.772 5.976c7.8186-5.164 14.8626-8.816 21.136-10.9573 6.2694-2.136 12.7267-3.208 19.3667-3.208 13.28 0 22.6493 4.724 28.1107 14.1653 7.524-5.0146 14.6066-8.632 21.2467-10.8453s13.5013-3.32 20.5853-3.32c10.3254 0 18.332 2.876 24.0133 8.632s8.5214 13.7987 8.5214 24.1253v78.1307c0 1.92-.408 3.32-1.216 4.2053-.8147.8854-2.2534 1.328-4.3174 1.328h-21.248c-1.9187 0-3.32-.4426-4.2054-1.328s-1.3267-2.2853-1.3267-4.2053v-71.048c0-10.032-4.504-15.0507-13.5027-15.0507-7.968 0-16.012 1.9187-24.1253 5.7533v80.3454c0 1.92-.408 3.32-1.2173 4.2053s-2.252 1.328-4.316 1.328h-21.248c-1.92 0-3.32-.4426-4.2053-1.328s-1.328-2.2853-1.328-4.2053v-71.048c0-10.032-4.5027-15.0507-13.5-15.0507-8.2666 0-16.38 1.992-24.348 5.9747v80.124c0 1.92-.408 3.32-1.2173 4.2053s-2.252 1.328-4.316 1.328h-21.248m256.2933-79.4044c0-10.7933-7.612-13.8853-16.988-13.8853-6.1667 0-12.1467 2.2266-16.228 6.6947-3.98 4.3573-6.4387 10.9826-7.48 19.316 0 0 16.588 3.0094 28.58 1.0267 6.2214-1.0267 12.116-4.4853 12.116-13.152zm-13.4494 82.952c-18.0387 0-31.7613-4.216-42.788-15.4373-7.2375-7.3654-14.056-21.0294-14.056-44.4534 0-18.8853 5.984-33.3186 15.7227-43.7973s24.6106-15.388 38.6666-15.388c17.5547 0 27.9627 3.9854 35.932 11.9533 1.3066 1.3067 9.3146 9.588 9.3146 22.8787 0 4.576.14 9.3147-2.9973 15.9587-2.124 4.5-5.344 7.32-6.1947 8.0973-13.0547 11.944-38.6387 11.1533-47.2933 10.66l-14.012-2.132c.9174 9.708 3.6386 17.3333 9.584 21.6667 5.5893 4.0747 11.7213 5.792 24.2493 5.792 6.2787 0 14.6586-1.2573 25.4334-4.0613.58-.1573 1.7093-.4426 2.1013-.5026.252-.0387 1.3013-.156 2.0387.0946 1.1813.4013 2.5107 1.5214 2.5107 4.7267v10.1827c0 2.3613-.264 4.0226-.928 4.9813s-1.9906 1.888-3.9053 2.624c-11.216 4.1293-21.688 6.156-33.3787 6.156" fill="#4aaae4"/><path d="M1003.0773 227.1635c0-10.7933-7.612-13.8853-16.9867-13.8853-6.1667 0-12.1466 2.2266-16.2267 6.6947-3.9826 4.3573-6.44 10.9826-7.4825 19.316 0 0 16.5878 3.0094 28.58 1.0267 6.2226-1.0267 12.116-4.4853 12.116-13.152zm-13.448 82.952c-18.0387 0-31.7614-4.216-42.7893-15.4373-7.236-7.3654-14.0548-21.0294-14.0548-44.4534 0-18.8853 5.9828-33.3186 15.7214-43.7973s24.6106-15.388 38.6667-15.388c17.556 0 27.964 3.9854 35.932 11.9533 1.308 1.3067 9.316 9.588 9.316 22.8787 0 4.576.14 9.3147-2.9975 15.9587-2.1252 4.5-5.3452 7.32-6.1946 8.0973-13.056 11.944-38.6386 11.1533-47.2947 10.66l-14.0107-2.132c.916 9.708 3.6387 17.3333 9.5827 21.6667 5.5907 4.0747 11.7227 5.792 24.2506 5.792 6.28 0 14.66-1.2573 25.432-4.0613.58-.1573 1.7107-.4426 2.1013-.5026.2534-.0387 1.3027-.156 2.04.0946 1.18.4013 2.5093 1.5214 2.5093 4.7267v10.1827c0 2.3613-.264 4.0226-.928 4.9813s-1.9892 1.888-3.9053 2.624c-11.216 4.1293-21.6865 6.156-33.3773 6.156m-322.1-3.5376c-1.4772 0-2.6946-.184-3.6506-.5533-.9627-.3667-1.772-.9573-2.436-1.7707s-1.292-1.9533-1.8813-3.4307L621.712 202.33l-1.1067-3.0986c-.2973-.8854-.4427-1.6947-.4427-2.4347 0-2.2133 1.4734-3.32 4.428-3.32h22.132c2.3586 0 4.096.4427 5.2026 1.328s1.9533 2.3613 2.544 4.4267l22.7972 78.352 23.24-78.352c.5892-2.0654 1.4386-3.5414 2.5453-4.4267s2.8386-1.328 5.2013-1.328h21.4694c2.9492 0 4.428 1.1067 4.428 3.32 0 .74-.1506 1.5493-.4427 2.4347L732.6 202.33l-37.848 98.4933c-.592 1.4774-1.216 2.6213-1.88 3.4307s-1.4388 1.404-2.3254 1.7707-2.14.5533-3.7627.5533h-19.256m85.9093 0c-1.9186 0-3.3186-.4426-4.204-1.328s-1.328-2.2854-1.328-4.2054V199c0-2.0653.4426-3.504 1.328-4.316s2.2854-1.2174 4.204-1.2174h21.2494c2.0653 0 3.5026.408 4.316 1.2174s1.216 2.2506 1.216 4.316v102.0347c0 1.92-.4067 3.32-1.216 4.2054s-2.2507 1.328-4.316 1.328zm10.6253-130.5866c-5.6092 0-10.1092-1.5494-13.5013-4.648-3.3973-3.0987-5.0906-7.304-5.0906-12.616s1.6933-9.5174 5.0906-12.616c3.392-3.0987 7.892-4.648 13.5013-4.648s10.104 1.5493 13.5014 4.648c3.392 3.0986 5.0907 7.304 5.0907 12.616s-1.6987 9.5173-5.0907 12.616c-3.3973 3.0986-7.896 4.648-13.5014 4.648m94.4627 108.6748c7.0827 0 13.868-2.0654 20.3628-6.1973v-58.432c-6.3454-3.6867-13.6508-5.5334-21.912-5.5334-7.8227 0-13.6507 2.916-17.4853 8.7426s-5.7547 14.6454-5.7547 26.4494 2.0266 20.584 6.0867 26.3373 10.292 8.6334 18.7026 8.6334zm-10.624 24.3466c-9.5933 0-17.928-2.4693-25.0106-7.4146s-12.5054-11.8027-16.268-20.584-5.644-18.9253-5.644-30.4333c0-18.2946 4.3506-32.94 13.0586-43.936 8.7053-10.9893 20.2147-16.488 34.528-16.488 11.6548 0 21.7627 3.32 30.323 9.96v-51.792c0-2.0653.4425-3.504 1.328-4.316s2.2852-1.2173 4.2053-1.2173h21.248c2.064 0 3.5026.4067 4.316 1.2173s1.2174 2.2507 1.2174 4.316v152.72c0 1.92-.408 3.32-1.2174 4.2054s-2.252 1.328-4.316 1.328h-17.7067c-1.7706 0-3.1372-.3667-4.0946-1.1067s-1.66-1.9933-2.1027-3.7627l-1.328-5.0906c-9.1508 8.2653-19.996 12.3946-32.536 12.3946m255.8572-23.904c15.4893 0 23.236-11.7307 23.236-35.192 0-23.3133-7.7466-34.9707-23.236-34.9707s-23.24 11.6574-23.24 34.9707c0 23.4613 7.7467 35.192 23.24 35.192zm0 24.7893c-17.5615 0-31.284-5.2733-41.168-15.8253s-14.8293-25.2667-14.8293-44.156c0-18.7374 4.9427-33.384 14.8293-43.9347s23.6066-15.8253 41.168-15.8253c17.556 0 31.276 5.2773 41.1692 15.8253 9.88 10.5507 14.8267 25.1973 14.8267 43.9347 0 18.8893-4.9467 33.608-14.8267 44.156-9.8933 10.552-23.6133 15.8253-41.1692 15.8253" fill="#232b39"/><path d="M281.7653 368.0875v1.816c.228 1.5493 1.044 3.1986 2.592 4.7027 78.956 76.82 183.2508 122.9798 299.072 122.9798 82.6493 0 178.6293-28.008 244.836-80.6412 10.944-8.7573 1.5707-21.7947-9.612-16.6973-74.2187 33.9347-154.8614 50.36-228.264 50.36-108.764 0-214.0866-32.1653-299.224-85.56-1.536-.9587-2.9907-1.376-4.2747-1.376-2.756 0-4.7373 1.9106-5.1253 4.416m491.8907 8.2973c-2.3574 1.784-3.596 3.82-3.8187 5.5667v1.084c.276 2.0134 2.152 3.3654 5.4546 2.9454 21.3067-2.7533 68.8214-8.8586 77.284 2.8053 8.4734 11.64-9.4066 59.6454-17.3947 81.028-2.3985 6.44 2.7748 9.1015 8.2108 4.1625 35.5347-31.8784 44.7066-98.72 37.4106-108.36-3.472-4.6214-19.776-8.9427-39.9613-8.9427-21.5813 0-47.6093 4.9307-67.1853 19.712" fill="#4aaae4"/><path d="M286.52 71.13l-3.7973-11.2793h-19.7764L259.1866 71.13H247.193l20.378-54.7422h10.4522L298.514 71.13H286.52zm-13.723-40.9063l-6.8052 20.4908h13.6856l-6.8804-20.4908zm75.3456-13.836V71.13h-11.2793l-21.957-36.0186V71.13H303.627V16.3867h11.2793l21.9946 36.0938V16.3867h11.2417zm38.2368 40.3788q0-3.1958-2.256-4.9065-2.2558-1.7107-8.12-3.6093-5.8652-1.8987-9.2866-3.74-9.3242-5.038-9.3242-13.5728 0-4.4365 2.5002-7.9143 2.5003-3.4777 7.1812-5.4328 4.68-1.955 10.5085-1.955 5.8653 0 10.4522 2.1243 4.587 2.1242 7.1247 5.9968 2.538 3.8726 2.538 8.7978H386.417q0-3.7597-2.3687-5.8464-2.3686-2.0867-6.6548-2.0867-4.1357 0-6.4292 1.7483-2.2934 1.7483-2.2934 4.6057 0 2.6695 2.6882 4.4742 2.6883 1.8047 7.9143 3.3838 9.625 2.895 14.024 7.18 4.4 4.286 4.4 10.6777 0 7.106-5.3765 11.1477-5.3764 4.0418-14.475 4.0418-6.3164 0-11.505-2.3123-5.1884-2.3122-7.9143-6.3352-2.7258-4.023-2.7258-9.3242h11.317q0 9.06 10.828 9.06 4.023 0 6.2788-1.6354 2.256-1.6355 2.256-4.5682zm51.8846-18.1972v8.8355h-21.656v14.663h25.416v9.06h-36.6953v-54.74h36.62v9.1362H416.608v13.0464h21.6562zm54.9303-22.1826V71.13H481.915V47.67h-21.9946v23.46H448.64V16.3867h11.2793v22.1826h21.9946V16.3867h11.2793zm42.7862 22.1826v8.8355h-21.6562v14.663h25.416v9.06H503.045v-54.74h36.62v9.1362h-25.3408v13.0464h21.6562zm54.8925-22.1826V71.13h-11.2793l-21.957-36.0186V71.13h-11.2793V16.3867h11.2793l21.9946 36.0938V16.3867h11.2417zM654.6 71.13l-3.7973-11.2793h-19.7764L627.2676 71.13H615.274l20.378-54.7422h10.4522L666.595 71.13H654.6zm-13.723-40.9063l-6.8052 20.4908h13.6856l-6.8804-20.4908zm60.3076-13.837h11.317V52.443q0 8.9858-5.62 14.212-5.6208 5.226-15.3586 5.226-9.5874 0-15.227-5.0756-5.6396-5.0757-5.7524-13.9488v-36.47h11.2793V52.518q0 5.3765 2.5754 7.8392 2.5755 2.4626 7.1248 2.4626 9.5122 0 9.6626-10v-36.432zm53.5014 23.273v9.0987h-21.6562V71.13h-11.2793V16.3867h35.6426v9.1362h-24.3633v14.1367h21.6562z" fill="#232b39"/><path d="M1000.5 400.5h150v90h-150z"/><path d="M1000.5 430.5h150v60h-150z" fill="#d00"/><path d="M1000.5 460.5h150v30h-150z" fill="#ffce00"/></svg>