<svg viewBox="0 0 591 186" version="1.1" xmlns="http://www.w3.org/2000/svg" xmlns:xlink="http://www.w3.org/1999/xlink">
    <g id="Page-1" stroke="none" stroke-width="1" fill="none" fill-rule="evenodd">
        <g id="MODLogoDarkBG" transform="translate(-1.000000, 78.000000)">
            <g id="smile" transform="translate(14.000000, 68.000000)" fill="#F89922">
                <path d="M154.23,18 C135.59,31.76 108.56,39.07 85.29,39.07 C54.2018168,39.2448809 24.16801,27.8083553 1.07,7 C-0.68,5.43 0.88,3.28 2.98,4.5 C28.6410307,19.1707384 57.6912668,26.8788585 87.25,26.86 C109.334361,26.7504881 131.17942,22.2781642 151.53,13.7 C154.68,12.31 157.32,15.73 154.23,18 Z" id="Path"></path>
                <path d="M162,9.15 C159.62,6.1 146.24,7.7 140.23,8.42 C138.41,8.64 138.13,7.05 139.77,5.9 C150.44,-1.6 167.93,0.57 169.96,3.08 C171.99,5.59 169.42,23.14 159.42,31.51 C157.88,32.79 156.42,32.11 157.1,30.41 C159.34,24.79 164.38,12.21 162,9.15 Z" id="Path"></path>
            </g>
            <path d="M2.55,58.39 C2.12310859,58.4509927 1.69241412,58.3074324 1.38749086,58.0025091 C1.0825676,57.6975859 0.939007294,57.2668914 1,56.84 L1,20.62 C0.939007294,20.1931086 1.0825676,19.7624141 1.38749086,19.4574909 C1.69241412,19.1525676 2.12310859,19.0090073 2.55,19.07 L6,19.07 C6.42608544,19.0415046 6.85010533,19.1501378 7.21,19.38 C7.53771262,19.6834579 7.74386123,20.0957551 7.79,20.54 L8.21,23 C13.1766667,19.58 18.01,17.8733333 22.71,17.88 C27.5166667,17.88 30.7766667,19.7133333 32.49,23.38 C37.6033333,19.7066667 42.72,17.8733333 47.84,17.88 C51.4066667,17.88 54.1466667,18.88 56.06,20.88 C57.98,22.88 58.93,25.77 58.93,29.49 L58.93,56.79 C58.9909927,57.2168914 58.8474324,57.6475859 58.5425091,57.9525091 C58.2375859,58.2574324 57.8068914,58.4009927 57.38,58.34 L52.81,58.34 C52.3824412,58.40015 51.9513736,58.2567203 51.6450866,57.9523967 C51.3387996,57.6480731 51.1926008,57.2179368 51.25,56.79 L51.25,31.71 C51.25,29.13 50.76,27.21 49.78,25.97 C48.61185,24.648835 46.88705,23.958915 45.13,24.11 C41.0791103,24.1888122 37.1307619,25.397561 33.73,27.6 C33.7832701,27.9843711 33.81,28.3719551 33.81,28.76 L33.81,56.84 C33.8673992,57.2679368 33.7212004,57.6980731 33.4149134,58.0023967 C33.1086264,58.3067203 32.6775588,58.45015 32.25,58.39 L27.68,58.39 C27.2531086,58.4509927 26.8224141,58.3074324 26.5174909,58.0025091 C26.2125676,57.6975859 26.0690073,57.2668914 26.13,56.84 L26.13,31.71 C26.13,29.13 25.64,27.21 24.65,25.97 C23.48185,24.648835 21.75705,23.958915 20,24.11 C15.977969,24.1391503 12.0489126,25.3227265 8.68,27.52 L8.68,56.84 C8.74099271,57.2668914 8.5974324,57.6975859 8.29250914,58.0025091 C7.98758588,58.3074324 7.55689141,58.4509927 7.13,58.39 L2.55,58.39 Z" id="Path" fill="#F89922" fill-rule="nonzero"></path>
            <path d="M85.61,59.55 C79.25,59.55 74.44,57.7933333 71.18,54.28 C67.92,50.7666667 66.2933333,45.57 66.3,38.69 C66.3,32.13 67.9266667,27.0233333 71.18,23.37 C74.4333333,19.7166667 78.9833333,17.8966667 84.83,17.91 C89.75,17.91 93.5266667,19.2933333 96.16,22.06 C98.7933333,24.8266667 100.126667,28.7433333 100.16,33.81 C100.155114,35.4840701 100.024749,37.1554191 99.77,38.81 C99.7386713,39.2658114 99.5636156,39.6999495 99.27,40.05 C98.9446736,40.2816912 98.5481577,40.3914411 98.15,40.36 L73.74,40.36 C73.8533333,44.8 74.9533333,48.0833333 77.04,50.21 C79.1266667,52.3366667 82.37,53.3966667 86.77,53.39 C88.2620758,53.3907721 89.7523787,53.287186 91.23,53.08 C93.0565737,52.7726181 94.8580911,52.3314302 96.62,51.76 L97.55,51.49 C97.7760548,51.4153611 98.0119925,51.3749147 98.25,51.37 C98.92,51.37 99.25,51.84 99.25,52.77 L99.25,55 C99.3036207,55.4842497 99.216838,55.973704 99,56.41 C98.6356452,56.8058008 98.1835391,57.1106299 97.68,57.3 C95.8963865,58.0480741 94.0348691,58.5947901 92.13,58.93 C89.9821065,59.3489386 87.7983584,59.5565956 85.61,59.55 L85.61,59.55 Z M93.05,35.28 C93.1175875,34.6155999 93.1443045,33.9476758 93.13,33.28 C93.13,30.13 92.4,27.75 90.92,26.15 C89.44,24.55 87.29,23.74 84.45,23.74 C81.6162585,23.5731718 78.847662,24.6332528 76.85,26.65 C75.0433333,28.59 74.0066667,31.4733333 73.74,35.3 L93.05,35.28 Z" id="Shape" fill="#F89922" fill-rule="nonzero"></path>
            <path d="M121.9,59.24 C118.759504,59.3213285 115.671044,58.4269328 113.06,56.68 C110.515836,54.8988381 108.537277,52.4239046 107.36,49.55 C105.971245,46.181364 105.290463,42.5630089 105.36,38.92 C105.270134,35.0819405 105.981965,31.2673442 107.45,27.72 C108.661913,24.7684988 110.708949,22.2349005 113.34,20.43 C115.944775,18.7301858 119.000196,17.8522312 122.11,17.91 C126.465089,17.8866336 130.684018,19.4265961 134,22.25 L134,2.55 C133.939007,2.12310859 134.082568,1.69241412 134.387491,1.38749086 C134.692414,1.0825676 135.123109,0.939007294 135.55,1 L140.13,1 C140.556891,0.939007294 140.987586,1.0825676 141.292509,1.38749086 C141.597432,1.69241412 141.740993,2.12310859 141.68,2.55 L141.68,56.84 C141.740993,57.2668914 141.597432,57.6975859 141.292509,58.0025091 C140.987586,58.3074324 140.556891,58.4509927 140.13,58.39 L136.72,58.39 C136.31985,58.4103931 135.923729,58.3017229 135.59,58.08 C135.240408,57.7498945 135.008586,57.3143503 134.93,56.84 L134.31,54.36 C132.615052,55.9221278 130.645069,57.1563343 128.5,58 C126.398603,58.8283497 124.158749,59.2491708 121.9,59.24 Z M124.23,53.04 C127.783272,52.9183597 131.205401,51.6678989 134,49.47 L134,27.52 C132.534515,26.4050087 130.90069,25.5307095 129.16,24.93 C127.420007,24.3648388 125.599342,24.0878546 123.77,24.11 C116.73,24.11 113.213333,28.97 113.22,38.69 C113.22,48.23 116.89,53 124.23,53 L124.23,53.04 Z" id="Shape" fill="#F89922" fill-rule="nonzero"></path>
            <path d="M155.41,12.09 C154.107995,12.1627057 152.832808,11.7003148 151.88,10.81 C151.005494,9.91211675 150.542082,8.69203844 150.6,7.44 C150.541695,6.18493013 151.004962,4.96161449 151.88,4.06 C153.924269,2.35432615 156.895731,2.35432615 158.94,4.06 C159.807311,4.96585566 160.266198,6.18714537 160.21,7.44 C160.266975,8.69000236 159.80778,9.9084957 158.94,10.81 C157.986573,11.699303 156.711832,12.1615319 155.41,12.09 L155.41,12.09 Z M153.08,58.39 C152.653109,58.4509927 152.222414,58.3074324 151.917491,58.0025091 C151.612568,57.6975859 151.469007,57.2668914 151.53,56.84 L151.53,20.62 C151.469007,20.1931086 151.612568,19.7624141 151.917491,19.4574909 C152.222414,19.1525676 152.653109,19.0090073 153.08,19.07 L157.66,19.07 C158.086891,19.0090073 158.517586,19.1525676 158.822509,19.4574909 C159.127432,19.7624141 159.270993,20.1931086 159.21,20.62 L159.21,56.84 C159.270993,57.2668914 159.127432,57.6975859 158.822509,58.0025091 C158.517586,58.3074324 158.086891,58.4509927 157.66,58.39 L153.08,58.39 Z" id="Shape" fill="#F89922" fill-rule="nonzero"></path>
            <path d="M178.67,59.4 C175.437026,59.5570381 172.2733,58.4281629 169.87,56.26 C167.623605,54.0497051 166.423673,50.9880599 166.57,47.84 C166.438921,44.3826808 167.915906,41.0594648 170.57,38.84 C173.236667,36.5933333 176.853333,35.4666667 181.42,35.46 C184.717419,35.5119368 187.997022,35.9550357 191.19,36.78 L191.19,31.63 C191.19,28.8433333 190.556667,26.88 189.29,25.74 C188.023333,24.6 185.88,24.02 182.86,24 C179.312695,23.9980075 175.784574,24.5203178 172.39,25.55 C171.661863,25.813387 170.907533,25.9977785 170.14,26.1 C169.52,26.1 169.21,25.63 169.21,24.7 L169.21,22.64 C169.171372,22.1272826 169.278859,21.6141171 169.52,21.16 C169.846361,20.7669933 170.27574,20.4726606 170.76,20.31 C172.712623,19.4871568 174.757402,18.9029342 176.85,18.57 C179.26893,18.1330931 181.72193,17.9122227 184.18,17.91 C189.093333,17.91 192.713333,18.93 195.04,20.97 C197.366667,23.01 198.526667,26.1266667 198.52,30.32 L198.52,56.84 C198.578879,57.2609951 198.438995,57.6854713 198.141361,57.9889799 C197.843727,58.2924884 197.422065,58.4406403 197,58.39 L193.67,58.39 C193.246799,58.4286489 192.826008,58.2940905 192.503752,58.0170637 C192.181497,57.7400369 191.985306,57.3442076 191.96,56.92 L191.58,54.36 C189.747893,55.9391566 187.661779,57.196911 185.41,58.08 C183.266568,58.9407296 180.979767,59.3885897 178.67,59.4 Z M180.53,53.58 C182.358295,53.5641961 184.169436,53.225665 185.88,52.58 C187.80327,51.8795406 189.607617,50.8879929 191.23,49.64 L191.23,41.72 C188.539893,41.0589078 185.780146,40.7231721 183.01,40.72 C177.17,40.72 174.25,42.97 174.25,47.47 C174.137146,49.1413335 174.728124,50.783746 175.88,52 C177.158215,53.1240773 178.831562,53.6926556 180.53,53.58 Z" id="Shape" fill="#F89922" fill-rule="nonzero"></path>
            <path d="M239.83,59.79 C233.936667,59.79 229.336667,57.9566667 226.03,54.29 C222.723333,50.6233333 221.056667,45.5033333 221.03,38.93 C221.03,32.4233333 222.696667,27.33 226.03,23.65 C229.363333,19.97 233.963333,18.1366667 239.83,18.15 C245.716667,18.15 250.32,19.9833333 253.64,23.65 C256.96,27.3166667 258.626667,32.41 258.64,38.93 C258.64,45.4966667 256.973333,50.6166667 253.64,54.29 C250.306667,57.9633333 245.703333,59.7966667 239.83,59.79 Z M239.83,53.59 C247.116667,53.59 250.763333,48.7033333 250.77,38.93 C250.776667,29.1566667 247.13,24.2966667 239.83,24.35 C232.536667,24.35 228.893333,29.21 228.9,38.93 C228.906667,48.65 232.55,53.5366667 239.83,53.59 L239.83,53.59 Z" id="Shape" fill="#303942" fill-rule="nonzero"></path>
            <path d="M267.67,58.63 C267.243109,58.6909927 266.812414,58.5474324 266.507491,58.2425091 C266.202568,57.9375859 266.059007,57.5068914 266.12,57.08 L266.12,20.86 C266.059007,20.4331086 266.202568,20.0024141 266.507491,19.6974909 C266.812414,19.3925676 267.243109,19.2490073 267.67,19.31 L271.08,19.31 C271.506085,19.2815046 271.930105,19.3901378 272.29,19.62 C272.619216,19.9223273 272.825668,20.3352307 272.87,20.78 L273.33,23.65 C277.750108,20.152986 283.204247,18.218894 288.84,18.15 C292.62,18.15 295.49,19.15 297.45,21.15 C299.41,23.15 300.393333,26.0333333 300.4,29.8 L300.4,57.1 C300.460993,57.5268914 300.317432,57.9575859 300.012509,58.2625091 C299.707586,58.5674324 299.276891,58.7109927 298.85,58.65 L294.27,58.65 C293.843109,58.7109927 293.412414,58.5674324 293.107491,58.2625091 C292.802568,57.9575859 292.659007,57.5268914 292.72,57.1 L292.72,32.34 C292.72,29.6 292.163333,27.5833333 291.05,26.29 C289.936667,24.9966667 288.193333,24.35 285.82,24.35 C281.513433,24.4278311 277.33079,25.8046175 273.82,28.3 L273.82,57.08 C273.880993,57.5068914 273.737432,57.9375859 273.432509,58.2425091 C273.127586,58.5474324 272.696891,58.6909927 272.27,58.63 L267.67,58.63 Z" id="Path" fill="#303942" fill-rule="nonzero"></path>
            <path d="M338.87,59.48 C335.719343,59.5675805 332.619465,58.6729146 330,56.92 C327.457775,55.1367718 325.47972,52.6624674 324.3,49.79 C322.912343,46.4210382 322.231605,42.8029134 322.3,39.16 C322.236155,35.3312558 322.968285,31.5309885 324.45,28 C325.661913,25.0484988 327.708949,22.5149005 330.34,20.71 C332.944775,19.0101858 336.000196,18.1322312 339.11,18.19 C343.46061,18.1519154 347.680152,19.6779061 351,22.49 L351,2.79 C350.941121,2.3690049 351.081005,1.9445287 351.378639,1.64102013 C351.676273,1.33751157 352.097935,1.18935971 352.52,1.24 L357.1,1.24 C357.526891,1.17900729 357.957586,1.3225676 358.262509,1.62749086 C358.567432,1.93241412 358.710993,2.36310859 358.65,2.79 L358.65,57.08 C358.710993,57.5068914 358.567432,57.9375859 358.262509,58.2425091 C357.957586,58.5474324 357.526891,58.6909927 357.1,58.63 L353.69,58.63 C353.290385,58.6456083 352.895711,58.5373348 352.56,58.32 C352.210408,57.9898945 351.978586,57.5543503 351.9,57.08 L351.28,54.59 C349.582175,56.140864 347.612456,57.3647337 345.47,58.2 C343.36991,59.0373748 341.130863,59.4716142 338.87,59.48 L338.87,59.48 Z M341.2,53.27 C344.762755,53.1589476 348.196645,51.9115343 351,49.71 L351,27.76 C349.532452,26.6457276 347.899292,25.7684103 346.16,25.16 C344.415046,24.6023282 342.591779,24.3288382 340.76,24.35 C333.726667,24.35 330.213333,29.21 330.22,38.93 C330.2,48.49 333.86,53.27 341.2,53.27 L341.2,53.27 Z" id="Shape" fill="#303942" fill-rule="nonzero"></path>
            <path d="M385.48,59.79 C379.12,59.79 374.313333,58.0333333 371.06,54.52 C367.806667,51.0066667 366.176667,45.81 366.17,38.93 C366.17,32.3633333 367.8,27.2566667 371.06,23.61 C374.32,19.9633333 378.87,18.14 384.71,18.14 C389.623333,18.14 393.396667,19.5233333 396.03,22.29 C398.663333,25.0566667 399.986667,28.96 400,34 C399.99436,35.673661 399.86736,37.3447098 399.62,39 C399.588624,39.4576224 399.409671,39.8927245 399.11,40.24 C398.786613,40.4757354 398.388574,40.5859071 397.99,40.55 L373.62,40.55 C373.72,44.9966667 374.816667,48.28 376.91,50.4 C379.003333,52.52 382.25,53.58 386.65,53.58 C388.138926,53.5858545 389.626267,53.482242 391.1,53.27 C392.930496,52.9888122 394.736057,52.564171 396.5,52 L397.43,51.73 C397.653019,51.6582544 397.885727,51.621156 398.12,51.62 C398.8,51.62 399.12,52.08 399.12,53.01 L399.12,55.18 C399.164888,55.6803182 399.056786,56.1824728 398.81,56.62 C398.442826,57.0125071 397.991543,57.3167812 397.49,57.51 C395.723312,58.254425 393.883175,58.8108237 392,59.17 C389.851228,59.5828367 387.668071,59.7904375 385.48,59.79 L385.48,59.79 Z M392.93,35.52 C392.992257,34.8552332 393.018962,34.1876155 393.01,33.52 C393.01,30.3733333 392.273333,27.9933333 390.8,26.38 C389.326667,24.7666667 387.166667,23.9733333 384.32,24 C381.486259,23.8331718 378.717662,24.8932528 376.72,26.91 C374.906667,28.85 373.873333,31.7333333 373.62,35.56 L392.93,35.52 Z" id="Shape" fill="#303942" fill-rule="nonzero"></path>
            <path d="M408.83,58.63 C408.402441,58.69015 407.971374,58.5467203 407.665087,58.2423967 C407.3588,57.9380731 407.212601,57.5079368 407.27,57.08 L407.27,20.86 C407.208239,20.431114 407.353016,19.998292 407.660396,19.6928822 C407.967776,19.3874724 408.40152,19.2454817 408.83,19.31 L412.24,19.31 C412.662734,19.2836602 413.082917,19.3922073 413.44,19.62 C413.774765,19.9181126 413.982369,20.3333207 414.02,20.78 L414.49,23.26 C419.45,19.8533333 424.283333,18.1466667 428.99,18.14 C433.803333,18.14 437.06,19.9766667 438.76,23.65 C443.88,19.9833333 449,18.1466667 454.12,18.14 C457.69,18.14 460.42,19.14 462.34,21.14 C464.26,23.14 465.21,26.02 465.21,29.75 L465.21,57.05 C465.270993,57.4768914 465.127432,57.9075859 464.822509,58.2125091 C464.517586,58.5174324 464.086891,58.6609927 463.66,58.6 L459.08,58.6 C458.653109,58.6609927 458.222414,58.5174324 457.917491,58.2125091 C457.612568,57.9075859 457.469007,57.4768914 457.53,57.05 L457.53,32 C457.53,29.4066667 457.04,27.4933333 456.06,26.26 C454.88686,24.939877 453.159725,24.2505055 451.4,24.4 C447.354478,24.4670343 443.407351,25.6580973 440,27.84 C440.05327,28.2243711 440.08,28.6119551 440.08,29 L440.08,57.08 C440.140993,57.5068914 439.997432,57.9375859 439.692509,58.2425091 C439.387586,58.5474324 438.956891,58.6909927 438.53,58.63 L434,58.63 C433.573109,58.6909927 433.142414,58.5474324 432.837491,58.2425091 C432.532568,57.9375859 432.389007,57.5068914 432.45,57.08 L432.45,32 C432.45,29.4066667 431.96,27.4933333 430.98,26.26 C429.80968,24.9358655 428.080443,24.2456548 426.32,24.4 C422.302967,24.4142546 418.374304,25.5803597 415,27.76 L415,57.08 C415.060993,57.5068914 414.917432,57.9375859 414.612509,58.2425091 C414.307586,58.5474324 413.876891,58.6909927 413.45,58.63 L408.83,58.63 Z" id="Path" fill="#303942" fill-rule="nonzero"></path>
            <path d="M484.21,59.63 C480.972972,59.7941426 477.803504,58.6645028 475.4,56.49 C473.158846,54.2810458 471.962666,51.2233333 472.11,48.08 C471.98045,44.6229753 473.457149,41.3004023 476.11,39.08 C478.776667,36.8333333 482.396667,35.71 486.97,35.71 C490.276176,35.7510774 493.565815,36.1841013 496.77,37 L496.77,31.87 C496.77,29.08 496.14,27.11 494.87,25.98 C493.6,24.85 491.44,24.27 488.39,24.27 C484.842824,24.2697589 481.314958,24.7920313 477.92,25.82 C477.193904,26.0765996 476.443259,26.2575587 475.68,26.36 C475.06,26.36 474.74,25.9 474.74,24.97 L474.74,22.87 C474.703561,22.3594569 474.814638,21.8491988 475.06,21.4 C475.384151,21.0045775 475.814284,20.709728 476.3,20.55 C478.247434,19.7201067 480.289367,19.1323792 482.38,18.8 C484.798987,18.3635118 487.251949,18.1426447 489.71,18.14 C494.623333,18.14 498.243333,19.1633333 500.57,21.21 C502.896667,23.2566667 504.06,26.37 504.06,30.55 L504.06,57.08 C504.120993,57.5068914 503.977432,57.9375859 503.672509,58.2425091 C503.367586,58.5474324 502.936891,58.6909927 502.51,58.63 L499.17,58.63 C498.746166,58.6686676 498.324934,58.5324931 498.003941,58.2530404 C497.682948,57.9735877 497.490065,57.5751208 497.47,57.15 L497.08,54.59 C495.252326,56.1777852 493.165255,57.4394991 490.91,58.32 C488.777736,59.1701029 486.505426,59.6143904 484.21,59.63 L484.21,59.63 Z M486.07,53.82 C487.897732,53.7984407 489.707882,53.4600948 491.42,52.82 C493.34698,52.101037 495.15153,51.0891397 496.77,49.82 L496.77,42 C494.078988,41.3438682 491.319836,41.008205 488.55,41 C482.71,41 479.79,43.25 479.79,47.75 C479.680201,49.4220681 480.266498,51.0651451 481.41,52.29 C482.699074,53.3976153 484.375258,53.9479503 486.07,53.82 Z" id="Shape" fill="#303942" fill-rule="nonzero"></path>
            <path d="M515.07,58.63 C514.643109,58.6909927 514.212414,58.5474324 513.907491,58.2425091 C513.602568,57.9375859 513.459007,57.5068914 513.52,57.08 L513.52,20.86 C513.459007,20.4331086 513.602568,20.0024141 513.907491,19.6974909 C514.212414,19.3925676 514.643109,19.2490073 515.07,19.31 L518.48,19.31 C518.906085,19.2815046 519.330105,19.3901378 519.69,19.62 C520.021538,19.9205718 520.228465,20.3344266 520.27,20.78 L520.73,23.65 C525.14955,20.1507337 530.603341,18.213249 536.24,18.14 C540.02,18.14 542.89,19.14 544.85,21.14 C546.81,23.14 547.793333,26.0233333 547.8,29.79 L547.8,57.09 C547.860993,57.5168914 547.717432,57.9475859 547.412509,58.2525091 C547.107586,58.5574324 546.676891,58.7009927 546.25,58.64 L541.67,58.64 C541.243109,58.7009927 540.812414,58.5574324 540.507491,58.2525091 C540.202568,57.9475859 540.059007,57.5168914 540.12,57.09 L540.12,32.34 C540.12,29.6 539.563333,27.5833333 538.45,26.29 C537.336667,24.9966667 535.593333,24.35 533.22,24.35 C528.913433,24.4278311 524.73079,25.8046175 521.22,28.3 L521.22,57.08 C521.280993,57.5068914 521.137432,57.9375859 520.832509,58.2425091 C520.527586,58.5474324 520.096891,58.6909927 519.67,58.63 L515.07,58.63 Z" id="Path" fill="#303942" fill-rule="nonzero"></path>
            <path d="M571.69,59.48 C568.546371,59.5614301 565.454694,58.6671145 562.84,56.92 C560.297775,55.1367718 558.31972,52.6624674 557.14,49.79 C555.756973,46.4196665 555.076416,42.8025086 555.14,39.16 C555.066662,35.3333669 555.788561,31.5331809 557.26,28 C558.471913,25.0484988 560.518949,22.5149005 563.15,20.71 C565.754775,19.0101858 568.810196,18.1322312 571.92,18.19 C576.266678,18.1730551 580.475096,19.7166148 583.78,22.54 L583.78,2.79 C583.719007,2.36310859 583.862568,1.93241412 584.167491,1.62749086 C584.472414,1.3225676 584.903109,1.17900729 585.33,1.24 L589.91,1.24 C590.336891,1.17900729 590.767586,1.3225676 591.072509,1.62749086 C591.377432,1.93241412 591.520993,2.36310859 591.46,2.79 L591.46,57.08 C591.520993,57.5068914 591.377432,57.9375859 591.072509,58.2425091 C590.767586,58.5474324 590.336891,58.6909927 589.91,58.63 L586.5,58.63 C586.100385,58.6456083 585.705711,58.5373348 585.37,58.32 C585.020408,57.9898945 584.788586,57.5543503 584.71,57.08 L584.09,54.59 C582.392175,56.140864 580.422456,57.3647337 578.28,58.2 C576.183037,59.0361429 573.947498,59.4703598 571.69,59.48 Z M574,53.27 C577.552404,53.1526103 580.974835,51.9055423 583.77,49.71 L583.77,27.76 C582.302452,26.6457276 580.669292,25.7684103 578.93,25.16 C577.188315,24.6030497 575.368454,24.3295641 573.54,24.35 C566.513333,24.35 563,29.21 563,38.93 C563,48.49 566.666667,53.27 574,53.27 Z" id="Shape" fill="#303942" fill-rule="nonzero"></path>
        </g>
        <path d="M186.307006,28 C187.411181,28 188.548701,27.7832998 189.720267,27.3481084 C190.891833,26.9129169 191.983291,26.3213342 193,25.5703156 L193,20.4149093 C191.055401,20.139109 189.31107,20 187.765004,20 C183.921868,20 182,21.3831654 182,24.1477502 C182,25.3733154 182.375151,26.3213342 183.126856,26.9922991 C183.87856,27.6632639 184.937926,28 186.307106,28 L186.307006,28 Z M184.372116,33 C181.232738,33 178.719043,32.1474282 176.831657,30.4422385 C174.94427,28.7370488 174,26.4651493 174,23.6234119 C174,21.6348443 174.54106,19.8787754 175.622554,18.3569993 C176.704049,16.8352232 178.199716,15.6777901 180.108884,14.8865401 C182.018051,14.0952901 184.202244,13.6990211 186.663338,13.6990211 C188.69944,13.6990211 190.947725,13.9633998 193.408867,14.4902711 L193.408867,11.4460748 C193.408867,9.580197 193.004983,8.30131624 192.199764,7.61067463 C191.394546,6.92003301 189.909167,6.57528724 187.745505,6.57528724 C184.859997,6.57528724 181.614168,7.06291803 178.008689,8.03633951 C177.881754,8.0774661 177.754194,8.10810404 177.627259,8.12774728 C177.500325,8.14739052 177.393247,8.15843122 177.308624,8.15843122 C176.586778,8.15843122 176.22713,7.69288182 176.22713,6.75810278 L176.22713,4.01816975 C176.22713,3.36980481 176.311753,2.92265657 176.481624,2.67916319 C176.651496,2.43566982 177.032348,2.1915324 177.627259,1.94803902 C179.111339,1.3395586 180.904486,0.862968498 183.004681,0.517624689 C185.104876,0.17228088 187.23642,0 189.399457,0 C193.769093,0 196.961696,0.842773222 198.977268,2.52707759 C200.992839,4.21138196 202,6.85995322 202,10.4721013 L202,30.5036063 C202,31.0317197 201.882056,31.416902 201.649968,31.6603954 C201.417879,31.9038888 201.002456,32.0253825 200.408795,32.0253825 L196.08147,32.0253825 C195.572433,32.0253825 195.179464,31.9247741 194.904438,31.7211192 C194.629413,31.5174644 194.426846,31.1734086 194.299911,30.6863759 L193.917808,29.2854494 C192.602302,30.4226412 191.086152,31.3255403 189.368011,31.9952966 C187.649871,32.6650528 185.98438,33 184.372067,33 L184.372116,33 Z M215.604878,32 C215.048144,32 214.642087,31.8786486 214.385398,31.6353022 C214.128708,31.3919559 214,31.0071248 214,30.47943 L214,2.43378534 C214,1.86564008 214.128708,1.47032866 214.385398,1.24720754 C214.642087,1.02408642 215.048144,0.912571823 215.604878,0.912571823 L220.226207,0.912571823 C221.209705,0.912571823 221.808485,1.35936566 222.023177,2.25111469 L222.536556,3.89363365 C224.804228,2.47418984 226.84688,1.47028269 228.666449,0.882555734 C230.486019,0.294828775 232.357334,0 234.282334,0 C238.133546,0 240.850631,1.29868996 242.434171,3.89363365 C244.616491,2.51528384 246.670102,1.52056998 248.595733,0.912571823 C250.521363,0.304573661 252.511008,0 254.564619,0 C257.559732,0 259.881041,0.790622845 261.528644,2.3724661 C263.176247,3.95430935 264,6.1656171 264,9.00390715 L264,30.47943 C264,31.0071248 263.88167,31.3920018 263.646949,31.6353022 C263.412229,31.8786026 262.994533,32 262.395753,32 L256.233512,32 C255.677409,32 255.270721,31.8786486 255.013983,31.6353022 C254.757246,31.3919559 254.629265,31.0071248 254.629265,30.47943 L254.629265,10.9504022 C254.629265,8.19305907 253.323122,6.81406573 250.714038,6.81406573 C248.403009,6.81406573 246.07074,7.34111698 243.717666,8.39531142 L243.717666,30.47943 C243.717666,31.0071248 243.599336,31.3920018 243.364615,31.6353022 C243.129895,31.8786026 242.711568,32 242.113419,32 L235.951227,32 C235.394493,32 234.988387,31.8786486 234.731698,31.6353022 C234.475009,31.3919559 234.346979,31.0071248 234.346979,30.47943 L234.346979,10.9504022 C234.346979,8.19305907 233.040788,6.81406573 230.431752,6.81406573 C228.034741,6.81406573 225.681715,7.36134222 223.371366,8.45598713 L223.371366,30.47943 C223.371366,31.0071248 223.253036,31.3920018 223.018315,31.6353022 C222.783594,31.8786026 222.365219,32 221.766488,32 L215.604878,32 L215.604878,32 Z M285.307056,28 C286.411181,28 287.548701,27.7832998 288.720267,27.3481084 C289.891833,26.9129169 290.983291,26.3213342 292,25.5703156 L292,20.4149093 C290.055401,20.139109 288.31107,20 286.765004,20 C282.921868,20 281,21.3831654 281,24.1477502 C281,25.3733154 281.375101,26.3213342 282.126806,26.9922991 C282.87851,27.6632639 283.937876,28 285.307056,28 Z M282.372723,33 C279.232726,33 276.719035,32.1474282 274.831652,30.4422385 C272.944269,28.7370488 272,26.4651493 272,23.6234119 C272,21.6348443 272.541059,19.8787754 273.6226,18.3569993 C274.70414,16.8352232 276.199757,15.6777901 278.108873,14.8865401 C280.017989,14.0952901 282.202227,13.6990211 284.663316,13.6990211 C286.70004,13.6990211 288.947696,13.9633998 291.408834,14.4902711 L291.408834,11.4460748 C291.408834,9.580197 291.004951,8.30131624 290.199733,7.61067463 C289.394516,6.92003301 287.90914,6.57528724 285.745482,6.57528724 C282.859931,6.57528724 279.614154,7.06291803 276.008682,8.03633951 C275.881747,8.0774661 275.75414,8.10810404 275.627253,8.12774728 C275.500367,8.14739052 275.393193,8.15843122 275.309243,8.15843122 C274.587351,8.15843122 274.227078,7.69288182 274.227078,6.75810278 L274.227078,4.01816975 C274.227078,3.36980481 274.311701,2.92265657 274.481572,2.67916319 C274.651443,2.43566982 275.032295,2.1915324 275.627253,1.94803902 C277.112004,1.3395586 278.904474,0.862968498 281.004666,0.517624689 C283.104857,0.17228088 285.236493,0 287.399478,0 C291.769107,0 294.961705,0.842773222 296.977273,2.52707759 C298.992841,4.21138196 300,6.85995322 300,10.4721013 L300,30.5036063 C300,31.0317197 299.882682,31.416902 299.649343,31.6603954 C299.416005,31.9038888 299.00313,32.0253825 298.408846,32.0253825 L294.081529,32.0253825 C293.57254,32.0253825 293.180149,31.9247741 292.904499,31.7211192 C292.628848,31.5174644 292.426859,31.1734086 292.299924,30.6863759 L291.917822,29.2854494 C290.602318,30.4226412 289.086218,31.3255403 287.368081,31.9952966 C285.649944,32.6650528 283.984408,33 282.372723,33 L282.372723,33 Z M310.631316,32 C310.065188,32 309.65228,31.8750863 309.39121,31.6245965 C309.13014,31.3741067 309,30.9779789 309,30.4347937 L309,27.2412617 C309,26.5738252 309.074958,26.0615371 309.227487,25.7063375 C309.380016,25.3511379 309.65228,24.9454996 310.044131,24.4855901 L326.16462,6.76365024 L311.283546,6.76365024 C310.71806,6.76365024 310.305151,6.63807413 310.044082,6.38763165 C309.783012,6.13718918 309.652231,5.74035165 309.652231,5.19716638 L309.652231,1.56586875 C309.652231,0.98104559 309.78242,0.574129796 310.044082,0.344458951 C310.305743,0.114788107 310.71806,0 311.283546,0 L335.041188,0 C335.650022,0 336.074174,0.115450528 336.314186,0.344458951 C336.554199,0.573467375 336.673194,0.980998274 336.673194,1.56586875 L336.673194,4.88426706 C336.673194,5.55298112 336.596264,6.06465407 336.445067,6.41852886 C336.293869,6.77240366 336.020323,7.1812594 335.629063,7.63993867 L319.311959,25.2369649 L335.367402,25.2369649 C335.976926,25.2369649 336.401029,25.3524154 336.640992,25.5814238 C336.880955,25.8104322 337,26.2186256 337,26.8028336 L337,30.4347937 C337,30.9779789 336.878983,31.374154 336.640992,31.6245965 C336.403001,31.875039 335.976926,32 335.367402,32 L310.631365,32 L310.631316,32 Z M360.500304,25 C364.833435,25 367,21.6561077 367,14.9682276 C367,8.32296501 364.833435,5 360.500304,5 C356.167173,5 354,8.32296501 354,14.9682276 C354,21.65606 356.167173,25 360.500304,25 Z M359.000311,32.9999539 C353.982465,32.9999539 350.061719,31.5466457 347.237404,28.6387389 C344.413089,25.7308321 343,21.6750915 343,16.4695355 C343,11.3057817 344.411799,7.26902966 347.237404,4.36116892 C350.063009,1.45330818 353.982465,0 359.000311,0 C364.018156,0 367.937659,1.45455256 370.763217,4.361215 C373.588774,7.26787744 375,11.3058278 375,16.4695816 C375,21.6750915 373.586959,25.7321226 370.763217,28.638785 C367.939475,31.5454474 364.016914,33 359.000311,33 L359.000311,32.9999539 Z M387.58193,32 C387.033563,32 386.633155,31.8786486 386.379367,31.6353022 C386.125579,31.3919559 386,31.0071248 386,30.47943 L386,2.43378534 C386,1.86564008 386.126248,1.47032866 386.379367,1.24720754 C386.632485,1.02408642 387.033563,0.912571823 387.58193,0.912571823 L392.13959,0.912571823 C393.109407,0.912571823 393.699905,1.35936566 393.911562,2.25111469 L394.480971,4.25833142 C398.277985,1.42004137 402.329409,0 406.63333,0 C409.628189,0 411.938295,0.781429556 413.563598,2.34245001 C415.188902,3.90347047 416,6.12456906 416,9.00390715 L416,30.47943 C416,31.0071248 415.883985,31.3920018 415.651861,31.6353022 C415.419736,31.8786026 415.00852,32 414.41807,32 L408.34213,32 C407.793141,32 407.392111,31.8786486 407.139567,31.6353022 C406.887022,31.3919559 406.759578,31.0071248 406.759578,30.47943 L406.759578,11.6203172 C406.759578,9.95757297 406.37959,8.74033556 405.620139,7.96934038 C404.860688,7.19834521 403.699634,6.81406573 402.139415,6.81406573 C399.817833,6.81406573 397.519204,7.50415996 395.240374,8.88195817 L395.240374,30.47943 C395.240374,31.0071248 395.12369,31.3920018 394.892235,31.6353022 C394.660779,31.8786026 394.248225,32 393.657822,32 L387.58193,32 L387.58193,32 Z" id="Shape" fill="#232B39" fill-rule="nonzero"></path>
    </g>
</svg>