<svg version="1.1" viewBox="0 0 1161 484" xmlns="http://www.w3.org/2000/svg"><path d="m54.505 270.32c8.2614 0 14.348-2.8014 18.26-8.412 3.908-5.6053 5.8654-14.457 5.8654-26.559 0-12.247-1.9187-21.172-5.7547-26.781s-9.96-8.4106-18.371-8.4106c-7.6746 0-14.905 1.992-21.691 5.9746v58.212c6.492 3.984 13.723 5.976 21.691 5.976zm-48.472 67.505c-1.92 0-3.3213-0.408-4.2053-1.216s-1.328-2.2521-1.328-4.316v-147.63c0-2.0653 0.4427-3.504 1.328-4.316s2.2853-1.2173 4.2053-1.2173h15.936c3.3934 0 5.4574 1.6253 6.1974 4.8693l1.5493 5.7547c4.4267-4.2787 9.7733-7.6707 16.047-10.181s12.651-3.7627 19.145-3.7627c14.311 0 25.637 5.24 33.975 15.715s12.505 24.644 12.505 42.495c0 12.251-2.068 22.947-6.1973 32.095s-9.7387 16.195-16.821 21.137-15.2 7.4146-24.347 7.4146c-6.052 0-11.808-0.9613-17.264-2.8773-5.4614-1.916-10.108-4.572-13.944-7.968v48.472c0 2.064-0.408 3.504-1.2174 4.316s-2.252 1.216-4.316 1.216h-21.248m132.13-45.593c-1.9187 0-3.32-0.4427-4.204-1.328s-1.328-2.2853-1.328-4.2054v-102.03c0-2.0654 0.4427-3.504 1.328-4.316s2.2853-1.2174 4.204-1.2174h15.936c3.3933 0 5.4573 1.6254 6.1987 4.8694l2.876 11.952c5.9013-6.4907 11.472-11.101 16.711-13.833s10.808-4.0947 16.712-4.0947h3.0987c2.064 0 3.5413 0.408 4.4253 1.2173s1.328 2.2507 1.328 4.316v18.592c0 1.92-0.4067 3.32-1.2173 4.204s-2.2507 1.3294-4.3147 1.3294c-1.0347 0-2.3626-0.072-3.9853-0.2214s-3.6894-0.2213-6.196-0.2213c-3.3973 0-7.5267 0.4813-12.396 1.4387s-9.0013 2.1786-12.395 3.652v74.368c0 1.92-0.4066 3.32-1.2173 4.2054s-2.2507 1.328-4.3147 1.328h-21.249m87.043 0c-1.92 0-3.3213-0.4427-4.2066-1.328s-1.328-2.2853-1.328-4.2053v-102.03c0-2.0654 0.4426-3.504 1.328-4.316s2.2866-1.2174 4.2066-1.2174h21.247c2.0653 0 3.504 0.408 4.316 1.2174s1.2173 2.2506 1.2173 4.316v102.03c0 1.92-0.408 3.32-1.2173 4.2053s-2.2507 1.328-4.316 1.328zm10.623-130.59c-5.6093 0-10.109-1.5494-13.501-4.648s-5.0907-7.304-5.0907-12.616 1.6947-9.5173 5.0907-12.616 7.892-4.648 13.501-4.648 10.105 1.5493 13.501 4.648 5.092 7.304 5.092 12.616-1.7 9.5173-5.092 12.616-7.896 4.648-13.501 4.648m48.639 130.59c-1.92 0-3.32-0.4426-4.204-1.328s-1.3293-2.2853-1.3293-4.2053v-102.03c0-2.0653 0.4426-3.504 1.3293-4.316s2.284-1.2173 4.204-1.2173h15.936c3.3934 0 5.4574 1.6253 6.1974 4.8693l1.772 5.976c7.8186-5.164 14.863-8.816 21.136-10.957 6.2694-2.136 12.727-3.208 19.367-3.208 13.28 0 22.649 4.724 28.111 14.165 7.524-5.0146 14.607-8.632 21.247-10.845s13.501-3.32 20.585-3.32c10.325 0 18.332 2.876 24.013 8.632s8.5214 13.799 8.5214 24.125v78.131c0 1.92-0.408 3.32-1.216 4.2053-0.8146 0.8854-2.2533 1.328-4.3173 1.328h-21.248c-1.9187 0-3.32-0.4426-4.2053-1.328s-1.3267-2.2853-1.3267-4.2053v-71.048c0-10.032-4.504-15.051-13.503-15.051-7.968 0-16.012 1.9187-24.125 5.7534v80.345c0 1.92-0.408 3.32-1.2173 4.2053s-2.252 1.328-4.316 1.328h-21.248c-1.92 0-3.32-0.4426-4.2053-1.328s-1.328-2.2853-1.328-4.2053v-71.048c0-10.032-4.5026-15.051-13.5-15.051-8.2667 0-16.38 1.992-24.348 5.9747v80.124c0 1.92-0.408 3.32-1.2173 4.2053s-2.252 1.328-4.316 1.328h-21.248m256.29-79.415c0-10.793-7.612-13.885-16.988-13.885-6.1666 0-12.147 2.2267-16.228 6.6947-3.98 4.3574-6.4386 10.983-7.48 19.316 0 0 16.588 3.0094 28.58 1.0267 6.2214-1.0267 12.116-4.4854 12.116-13.152zm-13.449 82.952c-18.039 0-31.761-4.216-42.788-15.437-7.2374-7.3654-14.056-21.029-14.056-44.453 0-18.885 5.984-33.319 15.723-43.797s24.611-15.388 38.667-15.388c17.555 0 27.963 3.9853 35.932 11.953 1.3066 1.3067 9.3146 9.588 9.3146 22.879 0 4.576 0.14 9.3147-2.9974 15.959-2.124 4.5-5.344 7.32-6.1946 8.0974-13.055 11.944-38.639 11.153-47.293 10.66l-14.012-2.132c0.9174 9.708 3.6387 17.333 9.584 21.667 5.5893 4.0747 11.721 5.792 24.249 5.792 6.2787 0 14.659-1.2573 25.433-4.0613 0.58-0.1573 1.7094-0.4427 2.1014-0.5027 0.252-0.0386 1.3013-0.156 2.0386 0.0947 1.1814 0.4013 2.5107 1.5214 2.5107 4.7267v10.183c0 2.3614-0.264 4.0227-0.928 4.9814s-1.9907 1.888-3.9053 2.624c-11.216 4.1293-21.688 6.156-33.379 6.156" fill="#4aaae4"/><path d="m1003.1 212.82c0-10.793-7.612-13.885-16.987-13.885-6.1667 0-12.147 2.2267-16.227 6.6947-3.9825 4.3574-6.44 10.983-7.4825 19.316 0 0 16.588 3.0094 28.58 1.0267 6.2227-1.0267 12.116-4.4854 12.116-13.152zm-13.448 82.952c-18.039 0-31.761-4.216-42.789-15.437-7.236-7.3654-14.055-21.029-14.055-44.453 0-18.885 5.9827-33.319 15.721-43.797s24.611-15.388 38.667-15.388c17.556 0 27.964 3.9853 35.932 11.953 1.308 1.3067 9.316 9.588 9.316 22.879 0 4.576 0.14 9.3147-2.9974 15.959-2.1253 4.5-5.3454 7.32-6.1947 8.0974-13.056 11.944-38.639 11.153-47.295 10.66l-14.011-2.132c0.916 9.708 3.6386 17.333 9.5827 21.667 5.5906 4.0747 11.723 5.792 24.251 5.792 6.28 0 14.659-1.2573 25.432-4.0613 0.58-0.1573 1.7107-0.4427 2.1014-0.5027 0.2533-0.0386 1.3027-0.156 2.04 0.0947 1.18 0.4013 2.5094 1.5214 2.5094 4.7267v10.183c0 2.3614-0.264 4.0227-0.928 4.9814s-1.9892 1.888-3.9053 2.624c-11.216 4.1293-21.686 6.156-33.377 6.156m-322.1-3.5374c-1.4774 0-2.6947-0.184-3.6507-0.5533-0.9627-0.3667-1.772-0.9573-2.436-1.7707s-1.292-1.9533-1.8813-3.4306l-37.848-98.493-1.1066-3.0987c-0.2973-0.8854-0.4427-1.6947-0.4427-2.4347 0-2.2133 1.4734-3.32 4.428-3.32h22.132c2.3587 0 4.096 0.4427 5.2028 1.328s1.9532 2.3613 2.544 4.4267l22.797 78.352 23.24-78.352c0.5892-2.0654 1.4386-3.5414 2.5453-4.4267s2.8387-1.328 5.2013-1.328h21.469c2.9493 0 4.428 1.1067 4.428 3.32 0 0.74-0.1506 1.5493-0.4426 2.4347l-1.108 3.0987-37.848 98.493c-0.592 1.4773-1.216 2.6213-1.88 3.4306s-1.4387 1.404-2.3254 1.7707-2.14 0.5533-3.7626 0.5533h-19.256m85.91 1e-4c-1.9185 0-3.3185-0.4427-4.204-1.328s-1.328-2.2853-1.328-4.2053v-102.03c0-2.0654 0.4426-3.504 1.328-4.316s2.2854-1.2174 4.204-1.2174h21.249c2.0653 0 3.5027 0.408 4.316 1.2174s1.216 2.2506 1.216 4.316v102.03c0 1.92-0.4067 3.32-1.216 4.2053s-2.2507 1.328-4.316 1.328zm10.625-130.59c-5.6094 0-10.109-1.5494-13.501-4.648-3.3972-3.0987-5.0906-7.304-5.0906-12.616s1.6934-9.5173 5.0906-12.616c3.392-3.0987 7.892-4.648 13.501-4.648s10.104 1.5493 13.501 4.648c3.392 3.0987 5.0906 7.304 5.0906 12.616s-1.6987 9.5173-5.0906 12.616c-3.3974 3.0986-7.896 4.648-13.501 4.648m94.463 108.67c7.0827 0 13.868-2.0654 20.363-6.1974v-58.432c-6.3453-3.6866-13.651-5.5333-21.912-5.5333-7.8226 0-13.651 2.916-17.485 8.7426s-5.7547 14.645-5.7547 26.449 2.0267 20.584 6.0867 26.337 10.292 8.6334 18.703 8.6334zm-10.624 24.347c-9.5933 0-17.928-2.4693-25.011-7.4146s-12.505-11.803-16.268-20.584-5.644-18.925-5.644-30.433c0-18.295 4.3506-32.94 13.059-43.936 8.7053-10.989 20.215-16.488 34.528-16.488 11.655 0 21.763 3.32 30.323 9.96v-51.792c0-2.0653 0.4426-3.504 1.328-4.316s2.2853-1.2173 4.2053-1.2173h21.248c2.064 0 3.5028 0.4067 4.316 1.2173s1.2173 2.2507 1.2173 4.316v152.72c0 1.92-0.408 3.32-1.2173 4.2053s-2.252 1.328-4.316 1.328h-17.708c-1.7706 0-3.1373-0.3666-4.0947-1.1066s-1.66-1.9934-2.1026-3.7627l-1.328-5.0906c-9.1507 8.2653-19.996 12.395-32.536 12.395m255.86-23.904c15.489 0 23.236-11.731 23.236-35.192 0-23.313-7.7466-34.971-23.236-34.971s-23.24 11.657-23.24 34.971c0 23.461 7.7467 35.192 23.24 35.192zm0 24.789c-17.562 0-31.284-5.2733-41.168-15.825s-14.829-25.267-14.829-44.156c0-18.737 4.9427-33.384 14.829-43.935s23.607-15.825 41.168-15.825c17.556 0 31.276 5.2774 41.169 15.825 9.88 10.551 14.827 25.197 14.827 43.935 0 18.889-4.9467 33.608-14.827 44.156-9.8933 10.552-23.613 15.825-41.169 15.825" fill="#232b39"/><path d="m281.77 353.75v1.816c0.228 1.5493 1.044 3.1987 2.592 4.7026 78.956 76.82 183.25 122.98 299.07 122.98 82.649 0 178.63-28.008 244.84-80.641 10.944-8.7573 1.5706-21.795-9.612-16.697-74.219 33.935-154.86 50.36-228.26 50.36-108.76 0-214.09-32.165-299.22-85.56-1.536-0.9587-2.9907-1.376-4.2747-1.376-2.756 0-4.7373 1.9106-5.1253 4.416m491.89 8.2972c-2.3573 1.784-3.596 3.82-3.8187 5.5667v1.084c0.276 2.0133 2.152 3.3653 5.4547 2.9453 21.307-2.7534 68.821-8.8587 77.284 2.8053 8.4734 11.64-9.4066 59.645-17.395 81.028-2.3986 6.44 2.7748 9.1015 8.2107 4.1624 35.535-31.878 44.707-98.72 37.411-108.36-3.472-4.6213-19.776-8.9426-39.961-8.9426-21.581 0-47.609 4.9306-67.185 19.712" fill="#4aaae4"/><path d="m232.46 35.034h-4.4275v21.752h-10.356v-55.671h16.978q5.698 0 9.7598 1.1743 4.0617 1.1742 6.6605 3.2917 2.5987 2.1175 3.8115 5.0628 1.2127 2.9452 1.2127 6.4872 0 2.8105-0.8277 5.313-0.8278 2.5025-2.387 4.543-1.5593 2.0405-3.85 3.5805-2.2908 1.54-5.2168 2.464 1.9635 1.1165 3.388 3.1955l13.937 20.56h-9.317q-1.3475 0-2.2907-0.54-0.9433-0.54-1.5978-1.54l-11.704-17.826q-0.6545-1-1.4437-1.4245-0.7893-0.4235-2.3293-0.4235zm-4.4275-25.91v18.48h6.468q2.926 0 5.1013-0.7315 2.1752-0.7315 3.5805-2.0212 1.4052-1.2898 2.0982-3.0608 0.693-1.77 0.693-3.8885 0-4.235-2.7912-6.5065-2.7913-2.2715-8.5278-2.2715h-6.622zm39.732-8.008h35.112v8.24h-24.678v15.438h19.442v7.9695h-19.442v15.746h24.678v8.2775h-35.112v-55.672zm69.646 48.048q3.5035 0 6.1023-0.6352 2.5987-0.6353 4.9472-1.7518v-10.126h-6.9685q-1 0-1.5785-0.5582-0.5775-0.5583-0.5775-1.3668v-5.852h18.518v22.522q-2.1175 1.54-4.4082 2.6758-2.2908 1.1357-4.8895 1.8672-2.5988 0.7315-5.5633 1.0973-2.9645 0.3657-6.4 0.3657-6.083 0-11.204-2.1175t-8.855-5.8905-5.8327-9q-2.0983-5.236-2.0983-11.434 0-6.2755 2.0405-11.512t5.7943-9q3.7537-3.773 9.1052-5.852 5.3605-2.097 12.021-2.097 6.8145 0 11.8 2.0213 4.9858 2.0212 8.4508 5.2552l-3.003 4.697q-0.8855 1.4245-2.3485 1.4245-0.924 0-1.8865-0.616-1.232-0.7315-2.5217-1.463-1.2898-0.7315-2.85-1.2705-1.5593-0.54-3.5035-0.8855-1.9443-0.3465-4.4853-0.3465-4.1195 0-7.4497 1.386-3.3303 1.386-5.6788 3.9655t-3.62 6.1985q-1.2705 3.62-1.2705 8.085 0 4.8125 1.3475 8.5663 1.3475 3.7537 3.773 6.3332t5.775 3.9463q3.3495 1.3667 7.315 1.3667zm57.172-48.048l21.868 55.67h-8.008q-1.3475 0-2.2137-0.6737-0.8663-0.6738-1.2513-1.6748l-4.158-11.358h-23.062l-4.158 11.358q-0.308 0.8855-1.2128 1.617-0.9047 0.7315-2.2137 0.7315h-8.0465l21.868-55.67h10.588zm-7.392 16.208l-6.776 18.442h17.748l-6.776-18.518q-0.462-1.232-1.0202-2.9067-0.5583-1.6748-1.0973-3.6383-0.54 1.9635-1.0588 3.6575-0.5197 1.694-1.0202 2.9645zm50.127 17.7h-4.4275v21.762h-10.356v-55.671h16.978q5.698 0 9.7598 1.1743 4.0617 1.1742 6.6605 3.2917 2.5987 2.1175 3.8115 5.0628 1.2127 2.9452 1.2127 6.4872 0 2.8105-0.8277 5.313-0.8278 2.5025-2.387 4.543-1.5593 2.0405-3.85 3.5805-2.2908 1.54-5.2168 2.464 1.9635 1.1165 3.388 3.1955l13.937 20.56h-9.317q-1.3475 0-2.2907-0.54-0.9433-0.54-1.5978-1.54l-11.704-17.826q-0.6545-1-1.4437-1.4245-0.7893-0.4235-2.3293-0.4235zm-4.4275-25.9v18.48h6.468q2.926 0 5.1013-0.7315 2.1752-0.7315 3.5805-2.0212 1.4052-1.2898 2.0982-3.0608 0.693-1.77 0.693-3.8885 0-4.235-2.7912-6.5065-2.7913-2.2715-8.5278-2.2715h-6.622zm89.166 19.828q0 6.1215-2.0405 11.242t-5.7365 8.8165-8.8935 5.7365-11.512 2.0405h-21.252v-55.671h21.252q6.314 0 11.512 2.0598 5.1975 2.0597 8.8935 5.7365 3.696 3.6767 5.7365 8.7972t2.0405 11.242zm-10.588 0q0-4.5815-1.232-8.2198-1.232-3.6382-3.5035-6.16t-5.5247-3.8693q-3.2533-1.3475-7.3343-1.3475h-10.818v39.193h10.818q4.08 0 7.3343-1.3475 3.2532-1.3475 5.5247-3.8692 2.2715-2.5218 3.5035-6.16 1.232-3.6383 1.232-8.2198zm18.7-27.836h35.112v8.24h-24.678v15.438h19.442v7.9695h-19.442v15.746h24.678v8.2775h-35.112v-55.672zm59.213 33.918h-4.4275v21.752h-10.356v-55.671h16.978q5.698 0 9.7598 1.1743 4.0617 1.1742 6.6605 3.2917 2.5987 2.1175 3.8115 5.0628 1.2127 2.9452 1.2127 6.4872 0 2.8105-0.8277 5.313-0.8278 2.5025-2.387 4.543-1.5593 2.0405-3.85 3.5805-2.2908 1.54-5.2168 2.464 1.9635 1.1165 3.388 3.1955l13.937 20.56h-9.317q-1.3475 0-2.2907-0.54-0.9433-0.54-1.5978-1.54l-11.704-17.826q-0.6545-1-1.4437-1.4245-0.7893-0.4235-2.3293-0.4235zm-4.4165-25.91v18.48h6.468q2.926 0 5.1013-0.7315 2.1752-0.7315 3.5805-2.0212 1.4052-1.2898 2.0982-3.0608 0.693-1.77 0.693-3.8885 0-4.235-2.7912-6.5065-2.7913-2.2715-8.5278-2.2715h-6.622zm86.972-2.772l-2.54 4.8895q-0.4235 0.847-0.9817 1.1935-0.5583 0.3465-1.3283 0.3465t-1.7325-0.5967q-0.9625-0.5968-2.2715-1.3283-1.3-0.7315-3.0607-1.3282-1.7518-0.5968-4.1388-0.5968-2.156 0-3.7537 0.5198-1.5978 0.5197-2.695 1.4437-1.0973 0.924-1.6363 2.2138-0.54 1.2897-0.54 2.8297 0 1.9635 1.0973 3.2725 1.0972 1.3 2.9067 2.233 1.8095 0.924 4.1195 1.6555 2.3 0.7315 4.7163 1.5593 2.4062 0.8277 4.7162 1.925 2.3 1.0973 4.1195 2.772 1.8095 1.6747 2.9068 4.1002 1.0972 2.4255 1.0972 5.8905 0 3.773-1.2897 7.0648-1.2898 3.2917-3.773 5.7365-2.4833 2.4447-6.0638 3.85-3.5805 1.4052-8.2005 1.4052-2.6565 0-5.236-0.5197-2.5795-0.5198-4.9472-1.4823-2.3678-0.9625-4.4275-2.3-2.0598-1.3475-3.6768-3.003l3.003-4.9665q0.4235-0.54 1.0203-0.9047 0.5967-0.3658 1.3282-0.3658 0.9625 0 2.08 0.7893 1.1165 0.7892 2.6373 1.7517 1.5207 0.9625 3.5805 1.7518 2.0597 0.7892 4.9472 0.7892 4.4275 0 6.853-2.0982 2.4255-2.0983 2.4255-6.0253 0-2.1945-1.0972-3.5805-1.0973-1.386-2.9068-2.3292-1.8095-0.9433-4.1195-1.5978-2.3-0.6545-4.697-1.4245-2.387-0.77-4.697-1.848-2.3-1.078-4.1195-2.8105-1.8095-1.7325-2.9067-4.3312-1.0973-2.5988-1.0973-6.4103 0-3.0415 1.2128-5.93 1.2127-2.8875 3.542-5.1205 2.3292-2.233 5.7172-3.5805 3.387-1.3565 7.7375-1.3565 4.928 0 9.086 1.54t7.084 4.312zm31.34 42.08q3.003 0 5.3708-1 2.3677-1 4.004-2.8105 1.6362-1.8095 2.5025-4.4 0.8662-2.5795 0.8662-5.775v-33.331h10.356v33.34q0 4.9665-1.5977 9.1823-1.5978 4.2157-4.6008 7.2765-3.003 3.0607-7.2765 4.774-4.2735 1.7132-9.625 1.7132t-9.625-1.7132q-4.2735-1.7133-7.2572-4.774-2.9838-3.0608-4.5815-7.2765-1.5978-4.2158-1.5978-9.1823v-33.34h10.356v33.302q0 3.1955 0.8663 5.775 0.8662 2.5795 2.4832 4.4083 1.617 1.8287 3.9848 2.8297 2.3677 1 5.3707 1zm48.778-13.398h-4.4275v21.752h-10.356v-55.671h16.978q5.698 0 9.7598 1.1743 4.0617 1.1742 6.6605 3.2917 2.5987 2.1175 3.8115 5.0628 1.2127 2.9452 1.2127 6.4872 0 2.8105-0.8277 5.313-0.8278 2.5025-2.387 4.543-1.5593 2.0405-3.85 3.5805-2.2908 1.54-5.2168 2.464 1.9635 1.1165 3.388 3.1955l13.937 20.56h-9.317q-1.3475 0-2.2907-0.54-0.9433-0.54-1.5978-1.54l-11.704-17.826q-0.6545-1-1.4437-1.4245-0.7893-0.4235-2.3293-0.4235zm-4.4275-25.91v18.48h6.468q2.926 0 5.1013-0.7315 2.1752-0.7315 3.5805-2.0212 1.4052-1.2898 2.0982-3.0608 0.693-1.77 0.693-3.8885 0-4.235-2.7912-6.5065-2.7913-2.2715-8.5278-2.2715h-6.622z" fill="#232b39"/><path d="M948 345.5h202.5v135H948z" fill="#ed2939"/><path d="M948 345.5h135v135H948z" fill="#fff"/><path d="M948 345.5h67.5v135H948z" fill="#002395"/></svg>
