<svg xmlns="http://www.w3.org/2000/svg" viewBox="0 0 1161 493"><path d="M54.505 279.5c8.262 0 14.348-2.8 18.26-8.41s5.865-14.46 5.865-26.56c0-12.245-1.92-21.172-5.755-26.78s-9.96-8.41-18.37-8.41c-7.674 0-14.906 1.992-21.69 5.976v58.21c6.492 3.984 13.722 5.976 21.69 5.976zM6.033 347.007c-1.92 0-3.32-.408-4.205-1.217S.5 343.537.5 341.473v-147.63c0-2.064.443-3.503 1.328-4.316s2.286-1.217 4.205-1.217H21.97c3.393 0 5.457 1.625 6.197 4.87l1.55 5.755c4.427-4.277 9.773-7.67 16.046-10.18s12.65-3.763 19.145-3.763c14.3 0 25.636 5.24 33.975 15.715s12.505 24.644 12.505 42.496c0 12.25-2.068 22.947-6.197 32.093s-9.74 16.196-16.82 21.137-15.2 7.415-24.346 7.415c-6.052 0-11.807-.96-17.265-2.877s-10.1-4.572-13.944-7.968v48.472c0 2.064-.408 3.504-1.218 4.316s-2.25 1.217-4.316 1.217H6.033m132.133-45.595c-1.92 0-3.32-.443-4.204-1.328s-1.328-2.285-1.328-4.205V193.844c0-2.064.442-3.503 1.328-4.316s2.285-1.217 4.204-1.217h15.937c3.392 0 5.456 1.625 6.197 4.87l2.876 11.952c5.9-6.49 11.472-11.1 16.712-13.833a35.65 35.65 0 0 1 16.711-4.095h3.097c2.065 0 3.543.408 4.427 1.217s1.328 2.252 1.328 4.316v18.592c0 1.92-.408 3.32-1.217 4.205s-2.25 1.328-4.316 1.328c-1.033 0-2.36-.072-3.983-.22-1.627-.145-3.69-.22-6.197-.22-3.397 0-7.525.48-12.396 1.44s-9 2.18-12.395 3.652v74.368c0 1.92-.408 3.32-1.217 4.205s-2.25 1.328-4.315 1.328h-21.25m87.04 0c-1.92 0-3.32-.443-4.205-1.328s-1.328-2.285-1.328-4.205V193.844c0-2.064.443-3.503 1.328-4.316s2.287-1.217 4.205-1.217h21.248c2.065 0 3.504.408 4.316 1.217s1.217 2.252 1.217 4.316V295.88c0 1.92-.408 3.32-1.217 4.205s-2.25 1.328-4.316 1.328zm10.624-130.587c-5.61 0-10.11-1.55-13.5-4.648s-5.09-7.304-5.09-12.616 1.695-9.517 5.09-12.616 7.892-4.648 13.5-4.648 10.105 1.55 13.5 4.648 5.09 7.304 5.09 12.616-1.7 9.517-5.09 12.616-7.895 4.648-13.5 4.648m48.64 130.587c-1.92 0-3.32-.443-4.205-1.328s-1.328-2.285-1.328-4.205V193.844c0-2.064.443-3.503 1.328-4.316s2.285-1.217 4.205-1.217h15.936c3.392 0 5.457 1.625 6.197 4.87l1.77 5.976c7.82-5.163 14.864-8.815 21.137-10.956a59.66 59.66 0 0 1 19.367-3.209c13.28 0 22.648 4.724 28.11 14.165 7.525-5.015 14.608-8.632 21.248-10.845s13.5-3.32 20.584-3.32c10.327 0 18.332 2.877 24.015 8.632s8.52 13.8 8.52 24.125v78.13c0 1.92-.407 3.32-1.216 4.205s-2.252 1.328-4.316 1.328h-21.248c-1.92 0-3.32-.443-4.205-1.328s-1.328-2.285-1.328-4.205V224.83c0-10.032-4.503-15.05-13.5-15.05-7.968 0-16.012 1.92-24.125 5.755v80.344c0 1.92-.408 3.32-1.217 4.205s-2.252 1.328-4.316 1.328h-21.248c-1.92 0-3.32-.443-4.205-1.328s-1.328-2.285-1.328-4.205V224.83c0-10.032-4.503-15.05-13.5-15.05-8.265 0-16.38 1.992-24.347 5.976v80.123c0 1.92-.408 3.32-1.217 4.205s-2.252 1.328-4.316 1.328H284.47m256.292-79.415c0-10.793-7.612-13.884-16.987-13.884-6.167 0-12.147 2.227-16.227 6.693-3.98 4.357-6.44 10.983-7.48 19.316 0 0 16.587 3.01 28.58 1.028 6.223-1.028 12.116-4.487 12.116-13.153zm-13.448 82.953c-18.04 0-31.76-4.216-42.788-15.44-7.237-7.364-14.056-21.028-14.056-44.452 0-18.887 5.984-33.32 15.723-43.8s24.61-15.388 38.667-15.388c17.555 0 27.963 3.985 35.932 11.953 1.307 1.307 9.315 9.588 9.315 22.88 0 4.575.14 9.315-2.997 15.957-2.125 4.5-5.345 7.32-6.195 8.097-13.055 11.945-38.64 11.153-47.293 10.66l-14.012-2.133c.917 9.708 3.64 17.333 9.584 21.667 5.59 4.075 11.72 5.792 24.25 5.792 6.28 0 14.66-1.256 25.432-4.06.58-.157 1.71-.443 2.103-.5.252-.04 1.3-.157 2.04.093 1.18.4 2.51 1.52 2.51 4.728v10.18c0 2.363-.266 4.023-.93 4.98s-1.99 1.888-3.904 2.624c-11.216 4.13-21.688 6.157-33.38 6.157" fill="#4aaae4"/><path d="M1003.077 221.997c0-10.793-7.612-13.884-16.987-13.884-6.167 0-12.147 2.227-16.228 6.693-3.98 4.357-6.44 10.983-7.48 19.316 0 0 16.588 3.01 28.58 1.028 6.223-1.028 12.116-4.487 12.116-13.153zm-13.45 82.953c-18.037 0-31.76-4.216-42.788-15.44-7.236-7.364-14.055-21.028-14.055-44.452 0-18.887 5.983-33.32 15.72-43.8s24.612-15.388 38.667-15.388c17.556 0 27.964 3.985 35.932 11.953 1.307 1.307 9.316 9.588 9.316 22.88 0 4.575.14 9.315-2.997 15.957-2.125 4.5-5.345 7.32-6.195 8.097-13.056 11.945-38.64 11.153-47.295 10.66l-14.01-2.133c.916 9.708 3.64 17.333 9.583 21.667 5.59 4.075 11.723 5.792 24.25 5.792 6.28 0 14.66-1.256 25.432-4.06.58-.157 1.71-.443 2.1-.5.252-.04 1.303-.157 2.04.093 1.18.4 2.51 1.52 2.51 4.728v10.18c0 2.363-.264 4.023-.928 4.98s-1.99 1.888-3.905 2.624c-11.216 4.13-21.687 6.157-33.38 6.157m-322.1-3.54c-1.476 0-2.695-.183-3.65-.553-.963-.367-1.77-.957-2.435-1.77s-1.293-1.953-1.883-3.43l-37.847-98.493-1.107-3.1c-.3-.885-.443-1.695-.443-2.435 0-2.213 1.472-3.32 4.427-3.32h22.132c2.36 0 4.096.443 5.203 1.328s1.953 2.363 2.544 4.427l22.8 78.352 23.24-78.352c.59-2.064 1.44-3.54 2.547-4.427s2.837-1.328 5.2-1.328h21.47c2.95 0 4.428 1.107 4.428 3.32 0 .74-.15 1.55-.443 2.435l-1.107 3.1-37.85 98.493c-.59 1.477-1.216 2.62-1.88 3.43s-1.44 1.404-2.324 1.77-2.14.553-3.764.553h-19.256m85.9 0c-1.92 0-3.32-.443-4.205-1.328s-1.328-2.285-1.328-4.205V193.844c0-2.064.443-3.503 1.328-4.316s2.285-1.217 4.205-1.217h21.248c2.065 0 3.503.408 4.317 1.217.808.813 1.216 2.252 1.216 4.316V295.88c0 1.92-.408 3.32-1.216 4.205-.815.885-2.252 1.328-4.317 1.328zm10.624-130.587c-5.61 0-10.11-1.55-13.5-4.648-3.397-3.1-5.092-7.304-5.092-12.616s1.695-9.517 5.092-12.616c3.39-3.1 7.89-4.648 13.5-4.648s10.105 1.55 13.5 4.648 5.09 7.304 5.09 12.616-1.7 9.517-5.09 12.616-7.895 4.648-13.5 4.648M858.525 279.5c7.084 0 13.868-2.064 20.364-6.197V214.87c-6.347-3.687-13.652-5.533-21.913-5.533-7.823 0-13.65 2.916-17.484 8.743-3.84 5.83-5.756 14.647-5.756 26.45s2.027 20.584 6.087 26.34 10.292 8.632 18.703 8.632zM847.9 303.847c-9.593 0-17.928-2.47-25.01-7.415s-12.504-11.803-16.268-20.584-5.644-18.924-5.644-30.433c0-18.295 4.352-32.94 13.06-43.935s20.215-16.49 34.528-16.49c11.656 0 21.764 3.32 30.324 9.96V143.16c0-2.064.443-3.503 1.328-4.316s2.284-1.217 4.204-1.217h21.248c2.064 0 3.503.408 4.316 1.217s1.217 2.252 1.217 4.316v152.72c0 1.92-.408 3.32-1.217 4.205s-2.252 1.328-4.316 1.328h-17.707c-1.77 0-3.136-.367-4.095-1.107s-1.66-1.992-2.103-3.763l-1.327-5.09c-9.152 8.265-19.996 12.395-32.538 12.395m255.857-23.904c15.493 0 23.24-11.73 23.24-35.192 0-23.312-7.748-34.97-23.24-34.97s-23.24 11.66-23.24 34.97c0 23.46 7.747 35.192 23.24 35.192zm0 24.79c-17.56 0-31.284-5.273-41.168-15.825s-14.83-25.267-14.83-44.156c0-18.737 4.943-33.383 14.83-43.935s23.607-15.825 41.168-15.825 31.28 5.277 41.168 15.825 14.83 25.197 14.83 43.935c0 18.89-4.945 33.608-14.83 44.156s-23.6 15.825-41.168 15.825" fill="#232b39"/><path d="M281.765 362.923v1.814c.228 1.55 1.044 3.2 2.592 4.704 78.955 76.82 183.25 122.98 299.072 122.98 82.65 0 178.63-28.008 244.835-80.64 10.944-8.757 1.572-21.794-9.612-16.697-74.216 33.935-154.86 50.36-228.26 50.36-108.765 0-214.088-32.164-299.225-85.56-1.536-.96-2.99-1.377-4.275-1.377-2.756 0-4.74 1.91-5.125 4.417m491.89 8.297c-2.357 1.783-3.595 3.82-3.82 5.565v1.085c.276 2.012 2.153 3.364 5.455 2.945 21.307-2.755 68.82-8.86 77.284 2.806 8.475 11.64-9.407 59.645-17.395 81.027-2.4 6.443 2.775 9.1 8.21 4.164 35.533-31.88 44.705-98.723 37.41-108.363-3.472-4.62-19.776-8.942-39.96-8.942-21.583 0-47.61 4.932-67.185 19.713" fill="#4aaae4"/><path d="M351.72 59.264c2.205 0 4.477-.484 6.817-1.456s4.52-2.293 6.55-3.97V42.323c-3.884-.616-7.368-.927-10.456-.927-7.676 0-11.515 3.09-11.515 9.264 0 2.737.75 4.855 2.25 6.353s3.617 2.25 6.352 2.25zm-5.427 12.97c-6.53 0-11.757-1.853-15.683-5.56s-5.89-8.645-5.89-14.823c0-4.323 1.125-8.14 3.375-11.448s5.36-5.824 9.33-7.544 8.513-2.58 13.632-2.58c4.235 0 8.91.575 14.03 1.72V25.38c0-4.056-.84-6.836-2.515-8.337s-4.764-2.25-9.264-2.25c-6 0-12.752 1.06-20.25 3.176a4.93 4.93 0 0 1-.793.199 4.35 4.35 0 0 1-.663.067c-1.5 0-2.25-1.012-2.25-3.044V9.235c0-1.41.176-2.38.53-2.91s1.145-1.06 2.383-1.59c3.087-1.323 6.816-2.36 11.184-3.11S352.25.5 356.75.5c9.088 0 15.728 1.832 19.92 5.493s6.287 9.42 6.287 17.27v43.544c0 1.148-.245 1.985-.728 2.515s-1.347.793-2.58.793h-9c-1.06 0-1.876-.22-2.448-.66s-.993-1.19-1.257-2.25l-.795-3.045c-2.736 2.472-5.89 4.435-9.463 5.89s-7.037 2.184-10.39 2.184m63.528-2.12c-1.148 0-1.985-.264-2.515-.793s-.795-1.367-.795-2.515V5.795c0-1.236.265-2.096.795-2.58s1.367-.728 2.515-.728h9.53c2.028 0 3.263.972 3.705 2.912l1.06 3.573c4.676-3.088 8.888-5.272 12.64-6.55S444.365.5 448.335.5c7.94 0 13.544 2.825 16.81 8.47 4.5-3 8.735-5.163 12.705-6.485A38.69 38.69 0 0 1 490.157.5c6.176 0 10.963 1.72 14.36 5.16s5.096 8.252 5.096 14.427v46.72c0 1.148-.244 1.985-.728 2.515s-1.345.793-2.58.793H493.6c-1.147 0-1.985-.264-2.515-.793s-.793-1.367-.793-2.515V24.323c0-6-2.693-9-8.073-9-4.765 0-9.575 1.147-14.427 3.44v48.044c0 1.148-.244 1.985-.728 2.515s-1.347.793-2.58.793h-12.707c-1.148 0-1.985-.264-2.515-.793s-.793-1.367-.793-2.515V24.323c0-6-2.693-9-8.073-9-4.943 0-9.795 1.19-14.56 3.572v47.912c0 1.148-.244 1.985-.728 2.515s-1.347.793-2.58.793H409.82m146.113-10.852c2.205 0 4.477-.484 6.817-1.456s4.52-2.293 6.55-3.97V42.323c-3.884-.616-7.368-.927-10.456-.927-7.676 0-11.515 3.09-11.515 9.264 0 2.737.75 4.855 2.25 6.353s3.617 2.25 6.352 2.25zm-5.425 12.97c-6.53 0-11.76-1.853-15.684-5.56s-5.89-8.645-5.89-14.823c0-4.323 1.125-8.14 3.375-11.448s5.36-5.824 9.33-7.544 8.513-2.58 13.632-2.58c4.236 0 8.91.575 14.03 1.72V25.38c0-4.056-.84-6.836-2.515-8.337s-4.764-2.25-9.264-2.25c-6 0-12.752 1.06-20.25 3.176a4.93 4.93 0 0 1-.793.199c-.264.043-.487.067-.66.067-1.5 0-2.25-1.012-2.25-3.044V9.235c0-1.41.176-2.38.53-2.91s1.145-1.06 2.383-1.59c3.088-1.323 6.816-2.36 11.184-3.11A78.38 78.38 0 0 1 560.964.5c9.088 0 15.728 1.832 19.92 5.493s6.287 9.42 6.287 17.27v43.544c0 1.148-.244 1.985-.73 2.515s-1.344.793-2.58.793h-9c-1.06 0-1.875-.22-2.448-.66s-.993-1.19-1.257-2.25l-.795-3.045c-2.736 2.472-5.89 4.435-9.463 5.89s-7.037 2.184-10.39 2.184m58.497-2.12c-1.148 0-1.985-.264-2.515-.793s-.793-1.367-.793-2.515v-6.75c0-1.41.152-2.493.46-3.244s.86-1.608 1.656-2.58l32.69-37.455H610.33c-1.147 0-1.984-.265-2.513-.795s-.795-1.368-.795-2.516V5.795c0-1.236.264-2.096.795-2.58s1.367-.728 2.513-.728h48.176c1.235 0 2.095.244 2.58.728s.728 1.345.728 2.58v7.013c0 1.413-.156 2.495-.463 3.243s-.86 1.612-1.655 2.58l-33.088 37.19h32.557c1.236 0 2.096.244 2.583.728s.728 1.347.728 2.58v7.676c0 1.148-.245 1.985-.728 2.515s-1.347.793-2.583.793h-50.16M709.86 57.28c9.264 0 13.896-7.015 13.896-21.044 0-13.94-4.632-20.91-13.896-20.91s-13.897 6.97-13.897 20.91c0 14.03 4.633 21.044 13.897 21.044zm0 14.823c-10.5 0-18.707-3.153-24.617-9.463s-8.868-15.11-8.868-26.404c0-11.204 2.955-19.963 8.868-26.272S699.357.5 709.86.5s18.704 3.156 24.617 9.463 8.867 15.068 8.867 26.272c0 11.295-2.957 20.097-8.867 26.404S720.357 72.1 709.86 72.1m57.04-1.985c-1.147 0-1.984-.264-2.515-.793s-.793-1.367-.793-2.515V5.795c0-1.236.264-2.096.793-2.58s1.368-.728 2.515-.728h9.53c2.028 0 3.263.972 3.705 2.912l1.19 4.367C789.267 3.59 797.74.5 806.74.5c6.263 0 11.093 1.7 14.492 5.096s5.095 8.228 5.095 14.492v46.72c0 1.148-.243 1.985-.728 2.515s-1.345.793-2.58.793h-12.706c-1.148 0-1.987-.264-2.515-.793s-.795-1.367-.795-2.515V25.78c0-3.617-.795-6.265-2.383-7.943s-4.016-2.513-7.28-2.513c-4.855 0-9.66 1.5-14.427 4.5v46.985c0 1.148-.244 1.985-.728 2.515s-1.347.793-2.58.793H766.9" fill="#232b39"/><g stroke="#232b39"><path d="M950.5 347.167h200V480.5h-200z" stroke-width="2" fill="#fefefe"/><path d="M1010.5 413.833c0-22.16 17.84-40 40-40s40 17.84 40 40-17.84 40-40 40-40-17.84-40-40z" fill="#bc002d"/></g></svg>