<svg xmlns="http://www.w3.org/2000/svg" viewBox="0 0 1161 499"><path d="M54.505 284.666c8.26 0 14.348-2.8 18.26-8.412 3.908-5.605 5.865-14.457 5.865-26.56 0-12.247-1.92-21.172-5.755-26.78s-9.96-8.41-18.37-8.41c-7.675 0-14.905 1.992-21.69 5.975V278.7c6.492 3.984 13.723 5.976 21.69 5.976zM6.033 352.17c-1.92 0-3.32-.408-4.205-1.216S.5 348.703.5 346.64V199c0-2.065.443-3.504 1.328-4.316s2.285-1.217 4.205-1.217H21.97c3.393 0 5.457 1.625 6.197 4.87l1.55 5.755c4.427-4.28 9.773-7.67 16.047-10.18s12.65-3.763 19.145-3.763c14.31 0 25.637 5.24 33.975 15.715s12.505 24.644 12.505 42.495c0 12.25-2.068 22.947-6.197 32.095s-9.74 16.195-16.82 21.137-15.2 7.415-24.347 7.415c-6.052 0-11.808-.96-17.264-2.877-5.46-1.916-10.108-4.572-13.944-7.968v48.472c0 2.064-.408 3.504-1.217 4.316s-2.252 1.216-4.316 1.216H6.033m132.133-45.593c-1.92 0-3.32-.443-4.204-1.328s-1.328-2.285-1.328-4.205V199c0-2.065.443-3.504 1.328-4.316s2.285-1.217 4.204-1.217h15.936c3.393 0 5.457 1.625 6.2 4.87l2.876 11.952c5.9-6.49 11.472-11.1 16.71-13.833a35.62 35.62 0 0 1 16.712-4.095h3.1c2.064 0 3.54.408 4.425 1.217s1.328 2.25 1.328 4.316v18.592c0 1.92-.407 3.32-1.217 4.204s-2.25 1.33-4.315 1.33c-1.035 0-2.363-.072-3.985-.22s-3.69-.22-6.196-.22c-3.397 0-7.527.48-12.396 1.44s-9 2.18-12.395 3.652v74.368c0 1.92-.407 3.32-1.217 4.205s-2.25 1.328-4.315 1.328h-21.25m87.043.01c-1.92 0-3.32-.443-4.207-1.328s-1.328-2.285-1.328-4.205V199c0-2.065.443-3.504 1.328-4.316s2.287-1.217 4.207-1.217h21.247c2.065 0 3.504.408 4.316 1.217s1.217 2.25 1.217 4.316v102.035c0 1.92-.408 3.32-1.217 4.205s-2.25 1.328-4.316 1.328zm10.623-130.587c-5.61 0-10.11-1.55-13.5-4.648s-5.09-7.304-5.09-12.616 1.695-9.517 5.09-12.616 7.892-4.648 13.5-4.648 10.105 1.55 13.5 4.648 5.092 7.304 5.092 12.616-1.7 9.517-5.092 12.616-7.896 4.648-13.5 4.648m48.64 130.587c-1.92 0-3.32-.443-4.204-1.328s-1.33-2.285-1.33-4.205V199c0-2.065.443-3.504 1.33-4.316s2.284-1.217 4.204-1.217h15.936c3.393 0 5.457 1.625 6.197 4.87l1.772 5.976c7.82-5.164 14.863-8.816 21.136-10.957a59.66 59.66 0 0 1 19.367-3.208c13.28 0 22.65 4.724 28.11 14.165 7.524-5.015 14.607-8.632 21.247-10.845s13.5-3.32 20.585-3.32c10.325 0 18.332 2.876 24.013 8.632s8.52 13.8 8.52 24.125v78.13c0 1.92-.408 3.32-1.216 4.205-.815.885-2.253 1.328-4.317 1.328h-21.248c-1.92 0-3.32-.443-4.205-1.328s-1.327-2.285-1.327-4.205v-71.048c0-10.032-4.504-15.05-13.503-15.05-7.968 0-16.012 1.92-24.125 5.753v80.345c0 1.92-.408 3.32-1.217 4.205s-2.252 1.328-4.316 1.328h-21.248c-1.92 0-3.32-.443-4.205-1.328s-1.328-2.285-1.328-4.205v-71.048c0-10.032-4.503-15.05-13.5-15.05-8.267 0-16.38 1.992-24.348 5.975v80.124c0 1.92-.408 3.32-1.217 4.205s-2.252 1.328-4.316 1.328H284.47m256.293-79.404c0-10.793-7.612-13.885-16.988-13.885-6.167 0-12.147 2.227-16.228 6.695-3.98 4.357-6.44 10.983-7.48 19.316 0 0 16.588 3.01 28.58 1.027 6.22-1.027 12.116-4.485 12.116-13.152zm-13.45 82.952c-18.04 0-31.76-4.216-42.788-15.437-7.237-7.365-14.056-21.03-14.056-44.453 0-18.885 5.984-33.32 15.723-43.797s24.61-15.388 38.667-15.388c17.555 0 27.963 3.985 35.932 11.953 1.307 1.307 9.315 9.588 9.315 22.88 0 4.576.14 9.315-2.997 15.96-2.124 4.5-5.344 7.32-6.195 8.097-13.055 11.944-38.64 11.153-47.293 10.66l-14.012-2.132c.917 9.708 3.64 17.333 9.584 21.667 5.59 4.075 11.72 5.792 24.25 5.792 6.28 0 14.66-1.257 25.433-4.06.58-.157 1.71-.443 2.1-.503.252-.04 1.3-.156 2.04.095 1.18.4 2.51 1.52 2.51 4.727v10.183c0 2.36-.264 4.023-.928 4.98s-1.99 1.888-3.905 2.624c-11.216 4.13-21.688 6.156-33.38 6.156" fill="#4aaae4"/><path d="M1003.077 227.164c0-10.793-7.612-13.885-16.987-13.885-6.167 0-12.147 2.227-16.227 6.695-3.983 4.357-6.44 10.983-7.482 19.316 0 0 16.588 3.01 28.58 1.027 6.223-1.027 12.116-4.485 12.116-13.152zm-13.448 82.952c-18.04 0-31.76-4.216-42.79-15.437-7.236-7.365-14.055-21.03-14.055-44.453 0-18.885 5.983-33.32 15.72-43.797s24.61-15.388 38.667-15.388c17.556 0 27.964 3.985 35.932 11.953 1.308 1.307 9.316 9.588 9.316 22.88 0 4.576.14 9.315-2.997 15.96-2.125 4.5-5.345 7.32-6.195 8.097-13.056 11.944-38.64 11.153-47.295 10.66l-14.01-2.132c.916 9.708 3.64 17.333 9.583 21.667 5.59 4.075 11.723 5.792 24.25 5.792 6.28 0 14.66-1.257 25.432-4.06.58-.157 1.71-.443 2.1-.503.253-.04 1.303-.156 2.04.095 1.18.4 2.51 1.52 2.51 4.727v10.183c0 2.36-.264 4.023-.928 4.98s-1.99 1.888-3.905 2.624c-11.216 4.13-21.687 6.156-33.377 6.156m-322.1-3.538c-1.477 0-2.695-.184-3.65-.553a5.73 5.73 0 0 1-2.436-1.771c-.664-.813-1.292-1.953-1.88-3.43l-37.85-98.493-1.107-3.1c-.297-.885-.443-1.695-.443-2.435 0-2.213 1.473-3.32 4.428-3.32h22.132c2.36 0 4.096.443 5.203 1.328s1.953 2.36 2.544 4.427l22.797 78.352 23.24-78.352c.59-2.065 1.44-3.54 2.545-4.427s2.84-1.328 5.2-1.328h21.47c2.95 0 4.428 1.107 4.428 3.32 0 .74-.15 1.55-.443 2.435l-1.108 3.1-37.848 98.493c-.592 1.477-1.216 2.62-1.88 3.43s-1.44 1.404-2.325 1.77-2.14.553-3.763.553h-19.256m85.91 0c-1.92 0-3.32-.443-4.204-1.328s-1.328-2.285-1.328-4.205V199c0-2.065.443-3.504 1.328-4.316s2.285-1.217 4.204-1.217h21.25c2.065 0 3.503.408 4.316 1.217s1.216 2.25 1.216 4.316v102.035c0 1.92-.407 3.32-1.216 4.205s-2.25 1.328-4.316 1.328zm10.625-130.587c-5.61 0-10.11-1.55-13.5-4.648-3.397-3.1-5.09-7.304-5.09-12.616s1.693-9.517 5.09-12.616c3.392-3.1 7.892-4.648 13.5-4.648s10.104 1.55 13.5 4.648c3.392 3.1 5.09 7.304 5.09 12.616s-1.7 9.517-5.09 12.616c-3.397 3.1-7.896 4.648-13.5 4.648m94.463 108.675c7.083 0 13.868-2.065 20.363-6.197v-58.432c-6.345-3.687-13.65-5.533-21.912-5.533-7.823 0-13.65 2.916-17.485 8.743s-5.755 14.645-5.755 26.45 2.027 20.584 6.087 26.337 10.292 8.633 18.703 8.633zM847.9 309.013c-9.593 0-17.928-2.47-25.01-7.415s-12.505-11.803-16.268-20.584-5.644-18.925-5.644-30.433c0-18.295 4.35-32.94 13.06-43.936 8.705-10.99 20.215-16.488 34.528-16.488 11.655 0 21.763 3.32 30.323 9.96v-51.792c0-2.065.442-3.504 1.328-4.316s2.285-1.217 4.205-1.217h21.248c2.064 0 3.503.407 4.316 1.217s1.217 2.25 1.217 4.316v152.72c0 1.92-.408 3.32-1.217 4.205s-2.252 1.328-4.316 1.328h-17.707c-1.77 0-3.137-.367-4.095-1.107s-1.66-1.993-2.103-3.763l-1.328-5.09c-9.15 8.265-19.996 12.395-32.536 12.395m255.857-23.904c15.49 0 23.236-11.73 23.236-35.192 0-23.313-7.747-34.97-23.236-34.97s-23.24 11.657-23.24 34.97c0 23.46 7.747 35.192 23.24 35.192zm0 24.79c-17.562 0-31.284-5.273-41.168-15.825s-14.83-25.267-14.83-44.156c0-18.737 4.943-33.384 14.83-43.935s23.607-15.825 41.168-15.825c17.556 0 31.276 5.277 41.17 15.825 9.88 10.55 14.827 25.197 14.827 43.935 0 18.89-4.947 33.608-14.827 44.156-9.893 10.552-23.613 15.825-41.17 15.825" fill="#232b39"/><path d="M281.765 368.088v1.816c.228 1.55 1.044 3.2 2.592 4.703 78.956 76.82 183.25 122.98 299.072 122.98 82.65 0 178.63-28.008 244.836-80.64 10.944-8.757 1.57-21.795-9.612-16.697-74.22 33.935-154.86 50.36-228.264 50.36-108.764 0-214.087-32.165-299.224-85.56-1.536-.96-2.99-1.376-4.275-1.376-2.756 0-4.737 1.91-5.125 4.416m491.89 8.297c-2.357 1.784-3.596 3.82-3.82 5.567v1.084c.276 2.013 2.152 3.365 5.455 2.945 21.307-2.753 68.82-8.86 77.284 2.805 8.473 11.64-9.407 59.645-17.395 81.028-2.4 6.44 2.775 9.1 8.21 4.162 35.535-31.878 44.707-98.72 37.41-108.36-3.472-4.62-19.776-8.943-39.96-8.943-21.58 0-47.61 4.93-67.185 19.712" fill="#4aaae4"/><path d="M286.52 71.13l-3.797-11.28h-19.776l-3.76 11.28h-11.994l20.378-54.742h10.452l20.49 54.742H286.52zm-13.723-40.906l-6.805 20.49h13.686l-6.88-20.49zm75.346-13.836V71.13h-11.28l-21.957-36.02v36.02h-11.28V16.387h11.28L336.9 52.48V16.387h11.242zm38.237 40.38q0-3.196-2.256-4.907-2.256-1.71-8.12-3.61-5.865-1.9-9.287-3.74-9.324-5.038-9.324-13.573 0-4.436 2.5-7.914 2.5-3.478 7.18-5.433 4.68-1.955 10.508-1.955 5.865 0 10.452 2.124 4.587 2.124 7.125 5.997 2.538 3.873 2.538 8.798h-11.28q0-3.76-2.37-5.846-2.37-2.087-6.655-2.087-4.136 0-6.43 1.748-2.293 1.748-2.293 4.606 0 2.67 2.688 4.474 2.688 1.805 7.914 3.384 9.625 2.895 14.024 7.18 4.4 4.286 4.4 10.678 0 7.106-5.377 11.148-5.376 4.042-14.475 4.042-6.316 0-11.505-2.312-5.188-2.312-7.914-6.335Q355.7 59.2 355.7 53.91h11.317q0 9.06 10.828 9.06 4.023 0 6.28-1.635 2.256-1.636 2.256-4.568zm51.885-18.197v8.836h-21.656v14.663h25.416v9.06H405.33v-54.74h36.62v9.136h-25.34V38.57h21.656zm54.93-22.183V71.13h-11.28V47.67H459.92v23.46h-11.28V16.387h11.28V38.57h21.995V16.387h11.28zM535.98 38.57v8.836h-21.656v14.663h25.416v9.06h-36.695v-54.74h36.62v9.136h-25.34V38.57h21.656zm54.893-22.183V71.13h-11.28l-21.957-36.02v36.02h-11.28V16.387h11.28L579.63 52.48V16.387h11.242zM654.6 71.13l-3.797-11.28h-19.776l-3.76 11.28h-11.994l20.378-54.742h10.452l20.49 54.742H654.6zm-13.723-40.906l-6.805 20.49h13.686l-6.88-20.49zm60.308-13.837h11.317v36.056q0 8.986-5.62 14.212-5.62 5.226-15.36 5.226-9.587 0-15.227-5.076-5.64-5.076-5.752-13.95v-36.47h11.28v36.13q0 5.377 2.575 7.84 2.576 2.463 7.125 2.463 9.512 0 9.663-10V16.388zm53.5 23.273v9.1H733.03V71.13h-11.28V16.387h35.643v9.136H733.03V39.66h21.656z" fill="#232b39"/><path d="M1000.5 400.5h150v90h-150z"/><path d="M1000.5 430.5h150v60h-150z" fill="#d00"/><path d="M1000.5 460.5h150v30h-150z" fill="#ffce00"/></svg>