<svg xmlns="http://www.w3.org/2000/svg" viewBox="0 0 5267 943" fill-rule="nonzero"><path d="M1550.6 941.28c-12-3.5-24-11-33-20-13-12-11-9.7-108-171L967 13.28l197 .053 65 111 296 503 54 90c.5.57 8-11 17-26l41-70 172-292 187-316c.82-.54 43-1 93-1l92-.02-23 38-505 837c-26 41-46 55-81 55-6.5-.042-15-1-19-2.4l-2.4 1.367zM.6 930.64c-1.9-.77 23-43 154-262l376-624c12-18 24-30 40-37 13-6.3 13-6.4 28-7 18-.7 28 1 41 7.1 11 5.4 27 21 36 33 5.2 7.8 77 127 292 484l242 406c-.54.54-44 .98-96 .98h-95l-136-229-216-.96-217-1.8c-1.2-1.2 6.5-15 41-75l31-54 140-.34 140-1.4c0-1.6-22-38-92-156l-111-185c-.37.023-2.4 2.9-4.5 6.3-9.8 16-202 340-376 635l-37 62-89 .24c-49 .13-90-.17-92-.68l.5-.44zm1945 0c-1.9-.77 23-43 154-262l376-624c12-18 24-30 40-37 13-6.3 13-6.4 28-7 18-.7 28 1 41 7.1 11 5.4 27 21 36 33 5.2 7.8 77 127 292 484l242 406c-.54.54-44 .98-96 .98h-95l-136-229-216-.96-217-1.8c-1.2-1.2 6.5-15 41-75l31-54 140-.34 140-1.2c0-1.6-9.3-17-53-91l-150-249c-1.1.015-73 121-324 547l-93 157-89 .24c-49 .13-90-.17-92-.68v-2.34zm1331-459v-460h161v920h-161v-460zm341 0v-460h163v759h619v161h-781l-1-460z" fill="#000"/><path d="M5023.6 933.48c-1.2-2.4-33-108-93-305l-54-187c2.1-2.5 83-2.6 85-.1 1.5 1.8 7 21 42 147l56 205 10 41c.55 1.5 3.8-9.6 8.7-29 12-47 40-145 94-325l12-40 11-.96c15-1.3 69 .2 71 2 2.6 2.6-6.8 32-114 362l-44 131c-.93.3-20 .9-43 1.4-39 .8-42 .7-43-1.6l1.3-.75zm-442-.44c-.47-.75-1.2-96-1.6-212l-.78-211-64-.77c-44-.53-64-1.2-65-2.3-2.2-2.2-2.1-63 .084-66 1.2-1.2 39-1.6 163-1.5l170 1 8.3.88v32c0 21-.5 33-1.4 33-.76.47-30 1.2-65 1.6l-64 .76-.7 209-2.1 212-1.5 3.7h-37c-24 0-38-.5-38-1.4l-.314 1.03z" fill="#e10104"/></svg>