<svg xmlns="http://www.w3.org/2000/svg" viewBox="0 0 337.05243 129.10608" fill-rule="nonzero"><path d="M278.17 1.043c0 .378 1.607 1.335 2.24 1.335.37 0 .118-.845-.39-1.304-.7-.633-1.852-.653-1.852-.03m-.737 8.522c-.447.494-.478.686-.168 1.06.513.618.82.573 1.224-.18.54-1.007-.304-1.7-1.056-.88m47.85 2.84c0 .793-.15 1.376-.375 1.45-.296.1-.293.227.018.603.216.262.35.723.3 1.024-.064.376.12.578.582.643.803.115.914-.574.19-1.175-.383-.318-.452-.77-.328-2.138.086-.953.035-1.734-.115-1.734s-.27.597-.27 1.326m-6.902 1.78c0 .222.276.653.612.957 1.296 1.173 2.495 4.303 2.124 5.542-.394 1.314-.432 3.283-.075 3.846.418.66 2.357.965 2.792.44.323-.39.4-.375.6.11.125.305.153-.12.062-.946-.18-1.603.63-3.11 1.567-2.913.23.048.42-.053.42-.225s-.212-.313-.47-.313c-.797 0-.39-1.3.47-1.502.958-.224 1.085-.907.34-1.825l-.587-.724-.2.833c-.36 1.427-1.193 1.587-1.783.343-.574-1.2-1.088-1.508-1.858-1.077-.618.346-1.6-.054-1.6-.65 0-.393-1.816-2.3-2.2-2.3-.116 0-.21.182-.21.404m4.652 4.327c.736.54 1.178 1.896.8 2.485a2.68 2.68 0 0 0-.361 1.189c0 .5-.96 1.197-1.652 1.197-.133 0 .148-4.176.318-4.726.13-.42.44-.472.885-.145m-7.803 9.673c-.323.522.156.968.624.58.23-.19.346-.468.255-.614-.218-.355-.65-.338-.88.034m6.812.36c-.658.658-.448 1.507.315 1.276 1.023-.308 1.268-.653.836-1.174-.463-.557-.677-.576-1.15-.102m-3.526 1.417c-.157.152-.653.32-1.102.375-1.17.14-.594.924.71.966 1.38.044 2.875 1.016 3.26 2.118.257.736.375.827.604.465.915-1.446-2.292-5.07-3.472-3.924m-65.646 4.984c-.68 1.426-.635 2.483.16 3.74l1.04 1.65a11.38 11.38 0 0 1 .715 1.425c.186.454.515.825.73.825s.514.507.664 1.125c.2.817.422 1.113.816 1.078.465-.04.52.125.38 1.16-.137 1.015-.07 1.23.414 1.358.43.112.576.417.576 1.194 0 .79.145 1.08.6 1.2.33.086.6.34.6.563s.17.364.375.314.274-.035.15.034c-.412.23-.232 1.593.234 1.772.29.11.393.384.28.742-.11.35-.013.63.258.734.353.136.374.335.106 1.044-.47 1.247-.06 1.508 2.453 1.554 2.79.052 3.145.832.38.832-2.033 0-2.735.646-2.735 2.516 0 .994 1.404 1.88 2.013 1.272.093-.093.564.11 1.046.455.977.695.946 1.096-.044.566-1.36-.728-2.85.828-2.658 2.775.086.87.186.95 1.29 1.018.658.04 1.243.216 1.3.388s.296.312.53.312.425.135.425.3c0 .432-.326.37-.93-.177-.64-.578-1.773-.307-1.767.423.003.483 1.767 1.855 2.385 1.855.37 0 1.352 1.46 1.13 1.682-.09.09-.59-.058-1.11-.328-1.82-.94-3.347.604-2.092 2.116.21.252.232.43.056.43-.536 0-.634 1.492-.117 1.78.416.233.423.363.058 1.046-.376.7-.36.825.16 1.212.566.423.564.442-.08.902-1.02.727-1.27 3.01-.418 3.802l.65.604-.762.6c-.884.695-.965 1.335-.266 2.107.448.495.45.55.018.55-.693 0-.89.488-.467 1.164.292.468.287.684-.027 1.062-.306.368-.314.57-.038.904.286.344.23.497-.282.77-.465.25-.555.444-.33.716.214.258.214.724.001 1.497-.17.618-.256 1.284-.2 1.48s-.094.517-.356.712c-.375.28-.398.434-.112.725s.257.448-.14.737c-.435.32-.446.437-.084.874.335.403.343.553.04.74-.47.29-.262 4.632.252 5.25.186.224.304.523.263.664s.1.57.313.955c.92 1.66 2.02 7.104 1.773 8.78-.184 1.256.48 3.3 1.627 5.037.48.722.95 1.735 1.048 2.25s.35 1.14.56 1.388.48 1 .597 1.65c.845 4.758 3.618 6.292 3.342 1.85-.148-2.38-.656-3.185-1.627-2.58-1.204.752-2.128-.848-1.917-3.322.035-.412-.22-1.56-.57-2.55l-1.264-3.6c-.88-2.507-.846-7.552.07-10.353 1.948-5.97 3.147-10.68 3.896-15.304l.757-4.5c.616-3.583.955-6.166 1.36-10.352.176-1.816.517-4.72.76-6.452 1.566-11.23.964-31.508-.936-31.508-.814 0-3.94 1.07-4.832 1.655-.374.245-1.007.446-1.407.446s-1.856.404-3.236.898c-3.21 1.15-2.844 1.24-4.91-1.198-2.044-2.41-2.256-2.486-2.945-1.04m56.083-.8c-.088.143.107.5.433.797s.593.43.593.303.202-.065.45.14c.374.3.45.276.45-.203 0-1.018-1.453-1.8-1.926-1.037m6.018 2.292c-.473.247-1.396.45-2.05.45-.82 0-1.15.116-1.062.375.214.623 3.352.472 4.09-.197 1.06-.96.434-1.363-.978-.627m-8.292 2.172c.001.46 1.667 2.132 2.22 2.228 1.085.2.738-.505-.737-1.478-.816-.537-1.483-.875-1.482-.75m26.706 3.993c0 .925.85 2.386 1.4 2.386.354 0 .428-.187.292-.732-.1-.403-.05-.816.117-.918.783-.484.303-1.35-.75-1.35-.86 0-1.05.112-1.05.615m-17.31.587c-.36.145-1.373 1.352-2.25 2.682s-1.832 2.494-2.12 2.588-.676.452-.86.796c-.28.524-.258.596.14.443.26-.1.555-.054.652.104.34.55 1.06.282 1.358-.502.165-.434.6-1.21.967-1.722s.892-1.427 1.166-2.032.78-1.2 1.125-1.3c.465-.147 1.004-1.454.553-1.34-.042.01-.37.138-.73.283m-7.297 10.483c0 .32-.135.666-.3.768s-.3.043-.3-.132-.117-.318-.26-.318c-.352 0-.6 2.472-.376 3.614l.188.92.58-.992c.32-.546.792-1.153 1.05-1.35.372-.283.398-.474.125-.92-.19-.31-.275-.926-.2-1.37.093-.484.02-.804-.18-.804-.185 0-.335.262-.335.582m-7.952 1.518c.102.165.38.3.618.3s.432-.135.432-.3-.278-.3-.618-.3-.534.135-.432.3m3.9.6c.102.166.38.3.617.3s.433-.135.433-.3-.278-.3-.618-.3-.534.135-.432.3m29.08.314c-1.913.708-1.96 3.814-.092 6.08 2.608 3.163 4.03-.942 1.656-4.775-.795-1.283-1.05-1.495-1.564-1.305M267.168 58.5c.44.493.8 1.135.798 1.425 0 .342-.225.16-.638-.517-.35-.575-.856-1.212-1.124-1.416s-.34-.375-.162-.38.686.395 1.126.89m37.684 1.616c-.805 1.074-1.604 1.835-1.925 1.836-.725.001-.94.697-.293.946.342.13.818-.117 1.45-.755a24.37 24.37 0 0 1 2.036-1.788c1.047-.802 1.073-.865.6-1.456-.486-.606-.52-.583-1.87 1.217m29.874-1.03c.577 1.115.6 2.416.042 2.416-.726 0-1.71-2.576-1.184-3.1.38-.38.686-.196 1.142.685m-31.73.795c-.394.393.135 1.048.56.694.227-.188.338-.46.247-.607a.49.49 0 0 0-.808-.087m-2.02 4.772c0 .275.145.45.322.392s.323-.236.323-.392-.145-.334-.323-.393-.322.118-.322.393m-239.3.768c-11.16 1.868-18.35 11.918-19.412 27.14-.394 5.647-.27 6.276 1.18 6.05.608-.096 2.05-.253 3.206-.35s2.865-.33 3.8-.52l1.7-.34.193-3.77c.56-10.907 4.054-16.795 10.663-17.973 7.332-1.306 13.016 4.89 14.08 15.345.305 2.99.275 2.966 3.335 2.562 1.398-.185 3.486-.42 4.642-.52l2.1-.183-.012-2.264c-.052-9.444-6.237-20.524-12.978-23.25l-2.614-1.056c-2.468-.998-6.825-1.382-9.88-.87m122.54.145c-3.74.746-7.59 2.91-10.574 5.94-2.67 2.713-4.43 5.676-6.236 10.5l-.542 1.45 2.158-.14c2.354-.152 7.492-.727 8.475-.95.338-.077.846-.623 1.128-1.215 2.974-6.236 12.08-7.532 16.995-2.42 1.22 1.268 2.28 1.367 6.768.63 1.485-.244 3.207-.446 3.826-.45 1.502-.006 1.47-.478-.22-3.368-2.338-3.994-7.97-8.94-10.178-8.94a2.57 2.57 0 0 1-1.008-.28c-2.086-1.12-7.01-1.472-10.59-.757m150.5.467c-.216.678.224 1.35.693 1.06.333-.205.114-1.69-.25-1.69-.134 0-.334.284-.444.63M.446 66.67c-.1.372-.126 8.7-.08 18.53l.083 17.854 2.55.1c1.403.055 3.665-.068 5.026-.273l2.476-.374v-1.27c0-.882.145-1.326.475-1.452.96-.368 18.106-.202 18.72.18.456.285 1.042.285 2.702 0 1.166-.2 2.692-.366 3.4-.368a10.83 10.83 0 0 0 2.543-.386l1.273-.38.068-32.688-9.966-.164v23.428L10.65 89.25l-.066-11.24-.216-11.628c-.308-.804-9.724-.532-9.923.286m89.935-.315c-.434.434-.526 25.61-.095 25.875.146.1 1.26.023 2.476-.15a81.38 81.38 0 0 1 4.536-.485l2.325-.17v-7.138c0-9.092-.7-8.09 5.66-8.084 5.184.005 6.322.165 8.058 1.134 2.756 1.54 3.847 7.328 2.057 10.916-.654 1.31-.612 1.32 3.51.752 2.02-.28 4.152-.506 4.74-.505 1.696.003 2.02-.448 2.37-3.283 1.084-8.825-2.574-15.717-9.74-18.347-2.498-.917-25.047-1.364-25.897-.514m38.6.015c-.06.564.094 21.37.16 21.443.03.034 1.265-.134 2.744-.374s3.27-.437 3.983-.438c2.454-.002 2.456-.005 2.456-5.238 0-6.176-.617-5.565 5.624-5.565 8.353 0 10.583 1.343 11.078 6.677l.193 2.073 1.68-.128c.924-.07 3.132-.306 4.906-.524l3.226-.396v-2.463c0-3.057-1.01-6.382-2.72-8.938-.65-.974-1.182-1.842-1.182-1.93 0-.97-4.82-3.44-8.102-4.152-2.673-.58-23.985-.623-24.046-.048m84.272.024c-.084.22-.078 2.933.013 6.03l.167 5.63.93-.19c.51-.103 1.74-.257 2.73-.34 2.018-.172 5.166-.7 5.85-.963.248-.098 2.543-.353 5.1-.566 6.366-.53 9.667-.884 10.396-1.115.338-.107 1.885-.338 3.437-.512 6.232-.7 5.968-.546 4.4-2.553-2.543-3.232-4.516-4.425-8.92-5.393-2.75-.603-23.865-.63-24.095-.03m37.49 10.854c-.803.803-.438 3.72.626 5.003.304.366.953 2.606.974 3.36.004.144-.207.083-.47-.135-.423-.35-.465-.278-.375.64.1 1.012.077 1.036-1.104 1.123-2.245.166-2.972-1.036-3.098-5.12-.083-2.678-.202-3.42-.6-3.723-1.006-.765-2.807-.302-4.288 1.103l-.79.75.716 1.48c1.4 2.92.836 8.51-1.046 10.193-.352.314-.64.74-.64.95 0 1.4-3.366 2.475-4.67 1.5-.445-.336-1.553-.443-4.672-.45-4.642-.01-4.677-.027-4.82-2.248-.086-1.35-.17-1.493-.987-1.7-1.485-.395-1.943-1.3-1.95-3.857-.006-1.958-.09-2.305-.636-2.646-.89-.555-1.89.336-1.66 1.48.4 1.994-1.423 2.278-2.074.323-.442-1.325-1.64-2.872-1.97-2.542-.158.158-.24 9.52-.194 22.46l.077 22.188h9.302l.157-23.23 1.093-.205c2.284-.428 9.787.057 11.07.716 2.843 1.462 3.737 3.5 3.732 8.55-.005 4.566.63 13.48.995 13.95.22.287 1.395.362 4.667.3l4.37-.083-.083-7.952c-.082-7.776-.518-12.73-1.285-14.608-1.1-2.718-1.618-3.572-2.823-4.743-1.627-1.58-1.63-1.62-.16-2.722 1.412-1.06 3.41-3.96 4.03-5.856 1.844-5.62.77-16.416-1.414-14.23m-29.3 3.75c0 .165.27.3.6.3s.6-.135.6-.3-.27-.3-.6-.3-.6.135-.6.3m-10.323 1.68c-.343.895-.176 1.88.57 3.365.742 1.477 1.008 3.357.475 3.357-.15 0-.335-.17-.41-.375-.077-.218-.245-.264-.4-.11s-.11.322.11.4c.62.22.428.64-.5 1.126-2.235 1.156-4.236-.203-4.43-3-.207-2.963-.94-3.734-3.55-3.734-1.525 0-1.547.05-.745 1.712 4.644 9.6 1.42 28.483-5.413 31.702-9.923 4.674-17.663-4.104-17.68-20.053-.003-1.973-.526-5.264-1.307-8.22-.963-3.643-4.5-4.066-6.162-.737-.344.69-.886 1.336-1.204 1.437-.94.298-1.344 2.752-1.36 8.262-.066 20.784 11.257 33.533 26.888 30.274 4.645-.968 9.187-3.877 11.895-7.618.597-.826 1.158-1.568 1.246-1.65.162-.15.423-.614 1.27-2.25.455-.88.64-1.297 1.534-3.45.386-.93.96-2.82 1.548-5.1 1.336-5.18 1.185-16.297-.296-21.756-.27-1-.563-2.175-.653-2.634-.2-1.016-1.144-1.64-1.414-.937m15.05-.307c-.124.125-.225.974-.225 1.888 0 1.166.094 1.566.317 1.343.175-.175.276-1.024.225-1.888s-.193-1.47-.317-1.343m-61.962 6.504c-.65.823-.707 2.043-.137 2.866 1.567 2.262.162 4.555-2.234 3.645-.96-.365-1.262-1.114-1.245-3.078.026-2.876-1.567-3.902-2.76-1.778-.69 1.23-2.15 2.372-3.5 2.74-.813.22-.855.317-.855 1.94 0 1.19-.137 1.794-.45 1.995-.3.192-.325.3-.075.293.585.007.44.85-.206 1.195-1.646.88-3.254-.513-3.38-2.93l-.09-1.71-3.103-.086c-2.16-.06-3.316-.225-3.804-.545-1.23-.806-2.136 2.493-1.27 4.626.247.61.778 2.12 1.18 3.357l.732 2.25 5.088.184c9.028.326 9.695 1.12 10.05 11.966.27 8.233.52 10.982 1.037 11.412.23.192 2.017.28 4.658.228l4.283-.084-.07-7.77c-.11-12.236-1-16.54-4.1-19.532-1.648-1.602-1.683-1.33.438-3.407 1.6-1.566 3.625-4.862 3.625-5.9 0-.89-3.317-2.516-3.822-1.873m-31.45 2.4c-.08.207-.108 8.4-.065 18.23l.078 17.854h9.302l.158-21.455h-1.66c-2.373 0-2.955-.935-2.707-4.35.287-3.947-.747-7.774-2.657-9.835-.795-.857-2.194-1.1-2.45-.443m-14.83 1.346c-1.536.287-1.863 2.152-.754 4.297 1.515 2.93-1.144 5.635-3.656 3.72-.923-.703-1.003-.897-1.003-2.4 0-3.657-.717-4.186-5.522-4.074-3.7.085-4.557.36-4.21 1.35.402 1.143.296 3.21-.18 3.512-1.57.992-2.993-.18-2.993-2.46 0-1.998.07-1.985-5.33-.967l-.677.128.155 31.645 4.726.083c3.67.064 4.73-.003 4.737-.3.006-.21.001-5.278-.01-11.26-.026-13.624-.738-12.202 6.012-12.008 6.55.187 7.6.61 9.127 3.7l.886 1.782.202 7.952c.11 4.373.325 8.424.476 9.002l.274 1.05 9.207.166-.193-2.483c-.107-1.366-.267-5.725-.358-9.686-.154-6.77-.513-9.9-1.318-11.522-.132-.264-.424-.886-.65-1.38s-1.05-1.548-1.835-2.34c-1.392-1.406-1.73-2.01-1.126-2.01.165 0 .3-.33.3-.732s-.136-.816-.3-.918-.3-.437-.3-.744c0-2.328-2.5-3.685-5.69-3.087m7.9 2.344c-.257 1.024.045 1.252.778.588.77-.696.773-1.352.008-1.352-.387 0-.662.267-.786.764m-42.725 1.86c-1.94.17-2.01.303-2.254 4.2-.856 13.8-8.64 20.896-17.475 15.933-.55-.31-1.46-.56-2.02-.56-1.494 0-2.904-2.062-2.367-3.462.087-.228-.172-1.13-.577-2.003s-.967-2.532-1.248-3.688l-.792-3.185c-.154-.597-.28-1.353-.28-1.68 0-2.022-3.258-1.9-4.325.163-.745 1.442-.9 4.082-.316 5.087.906 1.533.162 3.887-1.126 3.563-1.01-.253-1.434-1.368-1.434-3.755 0-3.793-1.86-4.35-2.045-.613-.108 2.18.158 3.274 1.812 7.47 7.56 19.18 32.788 18.893 39.657-.45l.764-2.1c1.014-2.623 1.014-2.636-.105-3.6-1.24-1.068-1.674-2.098-1.674-3.966 0-3.52-1.21-7.62-2.226-7.535l-1.97.17m-36.165 5.478c-.102.165.093.3.433.3s.617-.135.617-.3-.194-.3-.432-.3-.516.135-.618.3m-8.102.363c-1.473.844-1.686 2.02-.743 4.096.72 1.586.76 2.615.11 2.864-.346.133-.396.292-.175.558 1.172 1.413-2.518 2.125-3.726.72l-.716-.832v17.452l9.752-.165.157-23.52-1.007-.768c-1.086-.83-2.617-1-3.65-.405m-25.55 3.608c-.253.41-.193 6.142.08 7.5.377 1.895.716.225.716-3.53s-.228-4.893-.795-3.98m-8.507.28l-.75.25.07 10.108c.038 5.56.184 10.222.323 10.36s2.335.215 4.88.17l4.628-.083.083-4.117c.046-2.264-.04-4.763-.19-5.55-.257-1.342-.277-1.366-.31-.37-.03.92-.168 1.113-1.03 1.425-2.312.836-3.67-.263-3.894-3.155-.56-7.16-1.655-9.76-3.81-9.04" fill="#b81e2c"/><path d="M158.6 14.38c-.102.165-.904.3-1.78.3-1.053 0-1.723.153-1.97.45-.228.275-.885.45-1.687.45-.722 0-1.314.135-1.314.3s-.458.3-1.018.3c-.628 0-1.084.172-1.19.45-.095.247-.447.45-.782.45s-.61.135-.61.3-.254.3-.564.3-.73.203-.937.45-.566.45-.8.45-.765.338-1.178.75-.915.75-1.118.75c-.47 0-5.606 5.146-5.606 5.618 0 .196-.338.693-.75 1.106s-.75.942-.75 1.177-.203.595-.45.8-.45.627-.45.937-.135.563-.3.563-.3.39-.3.864-.202 1.03-.45 1.237-.45.754-.45 1.22-.135.93-.3 1.03-.3.904-.3 1.782c0 1.052-.153 1.723-.45 1.97-.36.298-.45 1.182-.45 4.35s.09 4.054.45 4.35c.297.247.45.917.45 1.97 0 .878.135 1.68.3 1.78s.3.566.3 1.03.203 1.014.45 1.22.45.754.45 1.22.135.93.3 1.03.3.387.3.633.338.76.75 1.142.75.892.75 1.133.337.756.75 1.143.75.884.75 1.103c0 .498 2.272 2.798 2.764 2.798.2 0 .935.56 1.632 1.245l1.268 1.244 4.595.225c5.37.262 6.974.688 9.98 2.65l2.084 1.362 3.767-.087c2.072-.047 3.895-.2 4.052-.362s.865-.276 1.575-.276 1.3-.135 1.3-.3.477-.3 1.06-.3c.665 0 1.124-.168 1.232-.45.103-.27.555-.45 1.12-.45a1.72 1.72 0 0 0 1.51-.75c.3-.412.775-.75 1.034-.75s.97-.488 1.582-1.085c1.235-1.206 1.765-1.136 1.765.235 0 .754.09.876.525.695 1.264-.53 3.167-.82 6.526-1.002l3.6-.193.157-25.657h-27.33l.166 9.153 6.976.08 6.977.08v1.195c0 .657-.135 1.194-.3 1.194s-.3.59-.3 1.314c0 .8-.176 1.46-.45 1.687a1.39 1.39 0 0 0-.45.937c0 .3-.135.563-.3.563s-.3.244-.3.542c0 .678-1.804 2.46-2.5 2.46-.28 0-.51.135-.51.3s-.254.3-.564.3a1.4 1.4 0 0 0-.937.45c-.205.248-.754.45-1.22.45s-.93.135-1.03.3-1.25.3-2.554.3c-1.932 0-2.42.095-2.658.52-.275.49-.32.49-.864 0-.438-.397-1.114-.52-2.875-.52-1.335 0-2.302-.126-2.302-.3 0-.165-.477-.3-1.06-.3-.665 0-1.124-.168-1.232-.45-.095-.247-.407-.45-.694-.45s-.766-.27-1.065-.6-.703-.6-.898-.6c-.587 0-2.553-1.838-2.553-2.386 0-.28-.337-.827-.75-1.215s-.75-.95-.75-1.252-.135-.548-.3-.548-.3-.254-.3-.564-.203-.73-.45-.937c-.257-.212-.45-.867-.45-1.52 0-.63-.135-1.23-.3-1.33-.184-.114-.3-2.598-.3-6.452s.116-6.338.3-6.452c.165-.102.3-.566.3-1.03s.203-1.014.45-1.22.45-.627.45-.937.135-.564.3-.564.3-.18.3-.404c0-1.182 2.794-4.697 3.735-4.697.2 0 .678-.337 1.066-.75s.893-.75 1.124-.75.622-.203.87-.45.846-.45 1.33-.45.88-.136.88-.3c0-.19 2.045-.3 5.534-.3 3.365 0 5.606.118 5.72.3.102.165.587.3 1.077.3.516 0 .965.19 1.065.45.095.247.42.45.723.45s.634.135.736.3.395.3.65.3c.58 0 3.1 2.52 3.1 3.1 0 .235.202.595.45.8s.45.63.45.942c0 .545.296.566 6.827.49l6.826-.08.09-.776c.05-.43-.117-.947-.376-1.162s-.465-.75-.465-1.197c0-.477-.31-1.1-.75-1.516-.413-.388-.75-.893-.75-1.123s-.473-.863-1.05-1.408-1.05-1.21-1.05-1.48-.197-.5-.438-.5-.99-.54-1.662-1.2-1.398-1.2-1.6-1.2-.703-.337-1.09-.75-.95-.75-1.253-.75-.547-.135-.547-.3-.477-.3-1.06-.3c-.665 0-1.124-.168-1.232-.45-.095-.248-.42-.45-.724-.45s-.633-.135-.735-.3-.7-.3-1.332-.3c-.652 0-1.306-.193-1.52-.45-.246-.297-.917-.45-1.97-.45-.877 0-1.68-.135-1.78-.3-.113-.183-2.398-.3-5.85-.3s-5.74.117-5.852.3M.97 40.263l.077 25.58 9.602.3.182 3.16 18.723-.158.124-2.626c.024-.478.48-.525 5.127-.525h5.1v.9c0 .495.135.9.3.9a.3.3 0 0 0 .3-.3c0-.165.476-.3 1.06-.3.665 0 1.124-.167 1.233-.45.095-.247.404-.45.688-.45s.833-.337 1.22-.75.892-.75 1.12-.75c.565 0 4.28-3.713 4.28-4.277 0-.248.203-.62.45-.825a1.39 1.39 0 0 0 .45-.937c0-.31.135-.563.3-.563s.3-.388.3-.863.203-1.032.45-1.237c.338-.28.45-1.033.45-3.006 0-2.062-.098-2.67-.45-2.804-.282-.11-.45-.568-.45-1.233 0-.583-.135-1.06-.3-1.06s-.3-.237-.302-.526c-.004-.657-4.57-5.176-5.23-5.176a.76.76 0 0 1-.66-.45.79.79 0 0 0-.694-.45c-.484 0-1.515-.87-1.515-1.277 0-.225 1.778-1.124 2.224-1.124.506 0 3.478-3.195 3.478-3.74 0-.264.202-.557.45-.652s.45-.42.45-.723.135-.634.3-.736.3-.893.3-1.758.162-1.735.36-1.933c.28-.28.28-.44 0-.72-.198-.198-.36-1.068-.36-1.933s-.135-1.656-.3-1.758-.3-.56-.3-1.016c0-.497-.3-1.112-.75-1.535-.413-.387-.75-.95-.75-1.252 0-.328-.217-.548-.54-.548-.298 0-1-.473-1.56-1.05s-1.243-1.05-1.517-1.05-.753-.337-1.063-.75c-.4-.534-.848-.75-1.552-.75-.602 0-1.056-.176-1.16-.45s-.563-.45-1.19-.45c-.56 0-1.018-.135-1.018-.3 0-.17-.888-.3-2.064-.3-1.468 0-2.17-.13-2.437-.45-.324-.4-2.553-.45-16.693-.45H.893L.97 40.263m53.34.975l.094 26.556c.052 0 .76-.32 1.575-.708 3.032-1.45 5.462-1.992 8.943-1.992h2.89V14.68H54.3v26.557M74.315 14.88c-.1.1-.2 11.846-.2 26.08v25.88L77.73 69.3l4.72-.083 4.718-.082.08-12.19c.068-10.573.018-12.238-.375-12.565-.564-.467-.692-16.024-.135-16.368.425-.263 1.482.72 1.482 1.376 0 .287.202.6.45.695s.45.44.45.764.135.675.3.777.3.4.3.66.337.786.75 1.168.75.88.75 1.108.338.73.75 1.116.75.952.75 1.253.135.548.3.548.3.246.3.548.337.865.75 1.252.75.89.75 1.117.338.725.75 1.108.75.9.75 1.15.202.622.45.827.45.595.45.866.337.746.75 1.056.75.752.75.984.276.717.614 1.08c.702.753 1.487 2.227 1.487 2.79 0 .21.337.648.75.973s.75.783.75 1.02.338.747.75 1.135.75.902.75 1.143.338.75.75 1.134.75.88.75 1.107.337.73.75 1.117.75.95.75 1.253.135.547.3.547.3.247.3.548.338.865.75 1.253.75.9.75 1.117.337.725.75 1.107.75.92.75 1.193c0 .636.828.958 3.496 1.358 2.385.358 4.56 1.19 6.023 2.307.927.707 1.127.734 4.8.654l3.835-.084.1-1.576c.05-.866.22-1.575.375-1.575.177 0 .285-9.698.285-25.663V14.67l-12.153.162-.078 17.82c-.07 15.878-.026 17.857.392 18.163.356.26.448.778.378 2.135-.103 2-.425 2.18-1.25.696-.306-.552-.745-1.112-.975-1.244s-.418-.504-.418-.825-.135-.586-.3-.586-.3-.246-.3-.548-.337-.865-.75-1.252-.75-.902-.75-1.143-.338-.752-.75-1.134-.75-.896-.75-1.142-.135-.53-.3-.632-.3-.43-.3-.726-.337-.794-.75-1.104-.75-.778-.75-1.04-.338-.794-.75-1.18-.75-.9-.75-1.117-.337-.725-.75-1.107-.75-.893-.75-1.134-.338-.756-.75-1.143-.75-.902-.75-1.143-.338-.752-.75-1.134-.75-.88-.75-1.108-.337-.73-.75-1.116-.75-.952-.75-1.253-.135-.548-.3-.548-.3-.246-.3-.548-.338-.865-.75-1.252-.75-.89-.75-1.117-.337-.725-.75-1.108-.75-.892-.75-1.133-.338-.756-.75-1.143-.75-.9-.75-1.135-.338-.695-.75-1.02-.75-.84-.75-1.146-.337-.822-.75-1.147-.75-.82-.75-1.104-.338-.78-.75-1.104-.75-.83-.75-1.122c0-1.44-.534-1.525-9.5-1.525-4.622 0-8.494.1-8.604.2m122.23 25.75v25.952l1.275.65c.7.357 1.697.97 2.212 1.362.924.703 1.024.713 6.902.632l5.965-.08.182-3.187 12.512.106c13.247.11 13.36.122 16.246 1.626l.767.4.1-1.474c.05-.822.282-1.633.525-1.835.294-.244.435-.96.435-2.215 0-1.04.158-2.01.36-2.213.28-.28-3.413-.36-16.622-.36-15.208 0-17-.05-17.164-.475-.27-.704-.212-13.117.064-13.55.18-.287 3.69-.4 15.224-.45l14.988-.078.165-9.152h-15.13c-13.52 0-15.15-.05-15.312-.475-.36-.937-.202-11.088.178-11.468.27-.27 4.25-.36 16.062-.36h15.702l-.166-9.153-45.46-.154V40.63m53.413-22.662c0 1.435.9 2.032 1.972 1.323l.75-.492-.918-.56c-.996-.605-1.804-.727-1.804-.272m-221.76 5.715c0 .172.903.3 2.11.3 1.6 0 2.152.11 2.283.45.1.26.55.45 1.064.45.956 0 2.646 1.4 2.646 2.2 0 .24.202.605.45.81.295.245.45.914.45 1.95s-.155 1.705-.45 1.95c-.248.206-.45.56-.45.787 0 .808-2.343 2.814-3.286 2.814-.487 0-1 .205-1.14.455-.22.393-1.403.444-8.642.375l-8.388-.08-.162-12.754h6.758c4.305 0 6.758.11 6.758.3m4.35 22.206c.102.165.56.3 1.015.3.5 0 1.1.297 1.51.725.375.4 1.006.806 1.403.906.45.113.722.4.722.758 0 .317.135.66.3.762s.3.566.3 1.03.202 1.014.45 1.22.45.746.45 1.2-.202.995-.45 1.2-.45.754-.45 1.22-.135.93-.3 1.032-.3.38-.3.617-.27.703-.6 1.033-.795.6-1.033.6-.516.135-.618.3-.452.3-.777.3-.67.203-.765.45c-.126.33-.646.45-1.94.45-.98 0-1.768.134-1.768.3 0 .192-2.7.3-7.502.3h-7.502V45.59h8.835c5.566 0 8.903.11 9.02.3" fill="#0f0f0f"/><path d="M277.87.424c-.595.717-.137 1.3 1.666 2.126 1.974.902 2.185.818 1.512-.6-.826-1.74-2.38-2.487-3.178-1.525m2.15.65c.507.46.76 1.304.39 1.304-.634 0-2.24-.957-2.24-1.335 0-.622 1.152-.602 1.852.03m-12.655 5.33c0 .426.135.775.3.775s.3-.202.3-.45l.023-.667c.012-.12-.123-.266-.3-.326s-.323.242-.323.668m2.878.13c-.307.497.16 1.244.776 1.244.44 0 .565-.17.493-.672-.1-.695-.954-1.08-1.27-.572m16.975.808c-.44.97-.437 1.037.07 1.037.43 0 .782-.62.782-1.375 0-.68-.473-.493-.852.338m-10.78 1.764l-.68.717.78.928c.928 1.103 1.484 1.166 2.245.253 1.558-1.868-.668-3.67-2.347-1.898m2.05 1.338c-.403.753-.71.798-1.224.18-.57-.69.512-1.867 1.14-1.24.33.33.35.564.085 1.06m37.266.19c-.494.882-.07 2.45.778 2.887.438.225.952.613 1.14.86l1.008 1.2c1.196 1.35 2.173 3.86 1.956 5.02-.24 1.28.307 1.086.59-.21.22-1.006-1.18-4.292-2.237-5.25-.336-.304-.612-.68-.612-.833s-.42-.865-.933-1.58c-.924-1.287-.952-1.95-.082-1.95.248 0 .367-.135.265-.3-.286-.462-1.6-.355-1.875.154m8.827 1.247c-.308.307-.237 1.542.1 1.75.178.1.3-.247.3-.883 0-1.096-.054-1.214-.4-.867m.02 3.885c-.19.31.253 1.25.475 1.007.07-.078.034-.402-.082-.722s-.293-.447-.393-.285m-8.023 1.284c0 .33.778.654 1.012.42.095-.094.1-.287.012-.43-.21-.34-1.024-.333-1.024.01m10.843 1.097c-.022.338-.19.765-.375.95s-.273.514-.2.734c.21.633.893-.87.744-1.638-.12-.614-.13-.617-.17-.045m-5.276.5c-.17.55-.45 4.726-.318 4.726.69 0 1.652-.696 1.652-1.197a2.68 2.68 0 0 1 .361-1.189c.287-.46.27-.75-.075-1.42-.648-1.257-1.387-1.676-1.62-.92m4.37 2.1c-.02.29-.16.525-.313.525s-.56.748-.9 1.662c-.66 1.762-.825 3.3-.32 2.99.165-.102.3-.53.3-.95s.343-1.448.762-2.283.706-1.732.635-1.994c-.105-.393-.133-.384-.162.05m-7.537 1.543c0 .23-.232.507-.517.616-.41.157-.433.25-.115.447.234.144.73.076 1.192-.165.767-.4.796-.383.976.56s.187.937.225-.26c.038-1.18.005-1.227-.755-1.082-.55.105-.73.046-.583-.19.117-.19.07-.344-.105-.344s-.318.188-.318.418m-1.8 2.733c0 .247.12.45.268.45s.345-.203.44-.45c.106-.274.001-.45-.268-.45-.242 0-.44.202-.44.45m3.632 1.89c-.16.298-.18.717-.05.93.16.26.286.082.377-.54.157-1.066.082-1.155-.328-.4m3.127.937c-.277.833-.628 1.593-.78 1.687s-.266.737-.253 1.43l.024 1.258.435-1.35.912-2.8c.262-.792.407-1.5.322-1.595s-.382.528-.66 1.362m-8.924-.203c-1.175.92-.993 2.277.486 3.635 1.586 1.457 1.882 2.944.78 3.94-.53.48-.546.578-.13.882.876.64-.53 1.477-2.715 1.616-1.884.12-1.915.11-2.396-.82-.268-.518-.886-1.297-1.373-1.73-.667-.595-.805-.886-.562-1.18.4-.48.11-1.008-.57-1.04-.316-.015-.365-.08-.13-.176.208-.083.3-.275.207-.427-.1-.164-.4-.152-.74.03-.62.333-.495 1.197.175 1.197.305 0 .364.35.24 1.425-.15 1.313-.078 1.524.914 2.674 1.133 1.312 1.344 1.902.68 1.902-.22 0-.388.302-.375.676.018.514-.12.65-.576.575-.548-.1-.933-.44-2.252-2.05l-3.536-4.25c-.693-.744-3.665-5.385-3.665-5.722 0-.676.863-.296 1.466.646.344.536.627.86.63.72.023-1.147-2.145-2.736-3.07-2.25-.612.32-.707 1.154-.13 1.154.68 0 3.04 3.42 2.797 4.055-.08.21.084.63.366.938s.908 1.098 1.393 1.758 2 2.378 3.366 3.816c2.638 2.774 2.76 3.005 2.007 3.76-.44.44-.43.52.113.954.893.712 1.01 2.07.303 3.472-.635 1.255-.94 2.52-1.432 5.948-.16 1.125-.382 2.19-.49 2.365-.114.184-.02.26.22.182.23-.075.46-.633.5-1.24.08-.957.657-1.645.657-.784 0 .175.136.234.3.132s.3-.447.3-.768.202-.582.45-.582.45-.16.45-.357.27-.066.602.3c.665.713 1.177.65 1.716-.213.3-.48.246-.64-.345-1.028-1.29-.844-1.077-2.99.35-3.53.164-.062 1.004-1.168 1.867-2.458 1.536-2.295 2.755-3.29 2.96-2.42.053.227-.116.625-.376.885-.6.6-.608.835-.038.516.404-.226 2.867-3.474 2.867-3.78 0-.077.594-1.404 1.32-2.95 1.738-3.705 2.318-5.124 2.16-5.283-.072-.072-.336.253-.586.72l-.455.852-.327-.915c-.392-1.097-1.888-2.073-3.243-2.118-.54-.017-1.014-.085-1.053-.15a55.46 55.46 0 0 0-1.069-1.407c-.958-1.238-.935-2.56.034-1.962.18.112.222.048.098-.153-.274-.444-.548-.437-1.143.028m-4.568 5.595c-.2.325.672.704 1.063.462a.33.33 0 0 0 .106-.451c-.22-.356-.95-.362-1.17-.01m-39.113.932c.003.413.108 1.155.234 1.65l.23.9.006-.9a6.4 6.4 0 0 0-.235-1.65l-.24-.75.006.75m-19.677 1.826c-.32 1.705.056 2.862 2.41 7.417 3.887 7.52 5.028 11.27 5.954 19.564 1.014 9.093.563 18.162-1.44 28.958-.77 4.147-1.008 9.438-.5 11.092.427 1.4 1.12 4.26 1.45 6.012.124.66.37 1.47.55 1.8s.46 1.276.626 2.1c.39 1.922 1.268 5.226 1.598 6 .46 1.085.802 4.175.537 4.87-.275.724-.08 1.582.358 1.582.148 0 .268.154.268.342 0 .6 4.014 2.96 5.015 2.96.466 0 1.887-1.525 1.887-2.025 0-.306-.168-.235-.544.23-1.108 1.37-2.9-.7-3.494-4.056-.118-.66-.386-1.403-.597-1.65s-.463-.872-.56-1.388-.57-1.53-1.048-2.25c-1.148-1.727-1.81-3.78-1.627-5.037.246-1.676-.853-7.12-1.773-8.78-.213-.384-.354-.814-.313-.955s-.077-.44-.263-.664c-.514-.62-.722-4.96-.252-5.25.303-.187.295-.337-.04-.74-.362-.437-.35-.555.084-.874.396-.29.426-.447.14-.737s-.263-.446.112-.725c.262-.195.422-.516.356-.712s.02-.863.2-1.48c.213-.773.213-1.24-.001-1.497-.226-.272-.136-.467.33-.716.493-.264.562-.434.302-.748-.25-.3-.24-.56.038-1.005.3-.48.298-.69-.01-1.06-.447-.54-.203-1.088.483-1.088.432 0 .43-.054-.018-.55-.7-.772-.618-1.412.266-2.107l.762-.6-.65-.604c-.852-.793-.6-3.075.418-3.802.644-.46.646-.48.08-.902-.52-.387-.536-.51-.16-1.212.365-.683.358-.813-.058-1.046-.517-.29-.42-1.78.117-1.78.176 0 .153-.18-.056-.43-1.255-1.512.272-3.057 2.092-2.116.522.27 1.022.417 1.11.328.222-.222-.76-1.682-1.13-1.682-.618 0-2.382-1.372-2.385-1.855-.006-.73 1.128-1 1.767-.423.604.547.93.61.93.177 0-.165-.192-.3-.425-.3s-.472-.14-.53-.312-.642-.347-1.3-.388c-1.103-.07-1.203-.148-1.29-1.018-.19-1.947 1.3-3.503 2.658-2.775 1 .53 1.02.13.044-.566-.482-.344-.953-.548-1.046-.455-.61.61-2.013-.278-2.013-1.272 0-1.87.702-2.516 2.735-2.516 2.765 0 2.41-.78-.38-.832-2.513-.046-2.924-.307-2.453-1.554.268-.71.247-.908-.106-1.044-.27-.104-.37-.384-.258-.734.113-.358.01-.63-.28-.742-.466-.18-.646-1.54-.234-1.772.124-.07.057-.084-.15-.034s-.375-.09-.375-.314-.27-.477-.6-.563c-.455-.12-.6-.41-.6-1.2 0-.777-.147-1.082-.576-1.194-.485-.127-.55-.343-.414-1.358.138-1.035.084-1.2-.38-1.16-.394.035-.617-.26-.816-1.078-.15-.618-.45-1.125-.664-1.125s-.544-.37-.73-.825a11.38 11.38 0 0 0-.715-1.425l-1.04-1.65c-.365-.577-.673-1.388-.685-1.8-.045-1.514-.467-2.05-.687-.875m12.56-.326c-.102.165-.583.3-1.068.3s-.883.15-.883.332.214.25.475.15.868-.182 1.35-.182c.578 0 .876-.153.876-.45 0-.51-.47-.603-.75-.15m7.716 2.25c-.003.66.103 1.538.235 1.95l.24.75.012-.75c.007-.413-.1-1.29-.235-1.95l-.25-1.2-.004 1.2m.686 13.503c0 9.97.02 10.384.253 5.364.14-2.992.14-7.853 0-10.803-.232-4.92-.253-4.47-.253 5.44m62.154-10.115c-.096.155-.515.217-.932.138-1.19-.228-1.113 2.182.113 3.494 1.11 1.19 3.04 1.052 3.03-.215-.012-1.408-1.77-4.128-2.2-3.417m.71 1.245c0 .32-.135.667-.3.77s-.218.515-.117.918c.27 1.074-.65.96-1.224-.154-.786-1.518-.62-2.115.592-2.115.84 0 1.05.117 1.05.582m-32.294 1.354c-.21.545.095 1.065.622 1.065.455 0 .852-.816.598-1.228-.262-.424-1.034-.32-1.22.163m-7.44 3.958c-.104.272-.124.558-.045.638.28.28 1.07-.217 1.07-.67 0-.614-.787-.59-1.026.033m10.945.237c-.345.416-.133 1.37.305 1.37.23 0 .878-.956.878-1.3 0-.365-.895-.42-1.183-.072m-6.3 6.393c-1.76.33-1.924.69-1.973 4.322-.048 3.482.585 5.553 1.59 5.207.207-.07.376.01.376.182s.258.23.574.13c.86-.273.99.26.26 1.043l-.645.692.88-.205c.818-.2 2.235-1.53 3.818-3.6a18.43 18.43 0 0 1 1.457-1.65c1.092-1.072 2.36-3.013 2.348-3.597-.008-.382-.082-.358-.355.113-.19.328-.592.86-.892 1.182s-.548.73-.553.904-.488.656-1.074 1.07-1.483 1.19-1.99 1.725c-1.244 1.312-2.808 1.15-1.638-.17 1.02-1.152.364-4.486-1.204-6.124l-.783-.817.723-.3c.752-.3.36-.346-.918-.106m3.838.454c-.635.508-.927 1.738-.36 1.52.282-.11.478.142.604.772.232 1.158.442 1.17 1.097.062 1.067-1.807.1-3.506-1.34-2.355m1.555.675c0 .248-.195.45-.433.45-.58 0-.867-.51-.394-.7.655-.264.827-.212.827.25m27.532.078c-.454.28-.825.638-.825.794s-.223.528-.496.83c-1.222 1.35 1.786 7.042 3.396 6.424.247-.095.57-.173.714-.173 1.424 0 1.213-3.775-.356-6.37-1.365-2.26-1.29-2.212-2.433-1.503m3.222 4.516c.476 2.903-1.12 4.008-2.817 1.95-1.868-2.266-1.82-5.372.092-6.08.782-.29 2.404 2.168 2.725 4.13m-34.714-1.67c-.073 1.256-.204 1.594-.652 1.68-.386.073-.488-.01-.33-.27.15-.244.1-.3-.116-.16-.192.12-.536.03-.764-.2-.514-.515-.12-1.345.82-1.724.617-.25.62-.264.05-.302l-.6-.04.6-.258c1.016-.437 1.084-.35.99 1.272m-35.613-.582c.268.204.774.84 1.124 1.416.413.677.638.86.638.517.002-.603-1.433-2.328-1.924-2.314-.18.006-.106.177.162.38m67.38.4c-.525.525.458 3.1 1.184 3.1.557 0 .535-1.3-.042-2.416-.456-.88-.762-1.065-1.142-.685m-61.57 6.785c-.114 1.062-.15 2.187-.078 2.5s.236-.484.367-1.77.166-2.412.077-2.5-.253.71-.366 1.77m25.66-.383c0 .386.152.6.375.525.206-.07.375-.305.375-.525a.59.59 0 0 0-.375-.525c-.223-.075-.375.138-.375.525m-229.47.402c.062.186.71.448 1.44.58s1.597.356 1.927.493c1.983.824 2.25.897 2.25.608 0-.166-.236-.38-.525-.472a24.04 24.04 0 0 1-.975-.34c-1.657-.626-4.216-1.167-4.117-.87m266.2.348c-.455.695-.455.805 0 1.5.996 1.52 2.218.47 1.486-1.275-.49-1.17-.832-1.223-1.486-.225m-142.36-.176c0 .15.57.37 1.264.487s1.502.362 1.793.544c.397.247.625.233.912-.06.2-.214.248-.358.082-.32s-.502-.004-.75-.094c-.637-.23-2.883-.832-3.1-.832-.105 0-.19.123-.19.274m-62.416.4c.001.124 3.208.198 7.128.164 7.17-.062 6.345-.17-2.4-.312-2.6-.042-4.727.024-4.727.148m205.93.382c.16.832-.252 1.286-.73.807-.33-.328-.06-1.564.34-1.564.135 0 .31.34.4.757M.196 65.894c-.11.1-.2 8.6-.2 18.87v18.67l.676.18c1.766.474 8.562-.044 9.902-.754.365-.193.525-.64.525-1.468v-1.19h9.093c6.653 0 9.188.096 9.45.358.278.28.866.274 2.622-.02 1.245-.21 3.338-.49 4.65-.62s2.59-.41 2.84-.616c.556-.46.7-31.397.144-31.054-.205.127-.3 5.3-.284 15.38l.023 15.19-1.29.386a10.91 10.91 0 0 1-2.561.391c-.698.002-2.224.168-3.4.368-1.66.285-2.246.285-2.702 0-.614-.383-17.76-.55-18.72-.18-.33.126-.475.57-.475 1.452v1.27l-2.476.374c-1.36.205-3.623.328-5.026.273l-2.55-.1-.025-37.36c-.014 0-.115.1-.225.2m89.404.275c-.452 1.178-.196 26.245.27 26.424.427.164 5.422-.252 8.7-.726l1.5-.217.16-14.9 5.77.098c5.996.102 6.41.186 7.92 1.622 1.664 1.58 2.263 7.104 1.033 9.517-1.17 2.294-1.5 2.206 5.07 1.346l4.193-.51c2.073-.22 2.352-.934 2.386-6.087.025-3.764-.356-5.808-1.573-8.445-.756-1.64-3.15-4.854-3.415-4.59-.086.087.316.74.895 1.45 2.935 3.605 4.176 8.583 3.503 14.06-.35 2.835-.674 3.286-2.37 3.283-.587-.001-2.72.226-4.74.505-4.123.568-4.165.56-3.51-.752 1.8-3.588.7-9.377-2.057-10.916-1.736-.97-2.874-1.13-8.058-1.134-6.36-.005-5.66-1.008-5.66 8.084v7.138l-2.325.17a81.38 81.38 0 0 0-4.536.485c-1.216.173-2.33.24-2.476.15-.467-.29-.335-25.503.136-25.894.27-.225 3.605-.36 10.277-.416l9.877-.083-10.395-.07c-9.245-.063-10.416-.018-10.578.404m89.17.86c-5.07 2.516-9.567 8.144-11.826 14.795-.675 1.99-.41 2.42 1.32 2.136.782-.128 3.298-.445 5.59-.706 4.816-.548 4.37-.386 5.115-1.857 2.92-5.772 11.345-7.116 16.07-2.563l1.65 1.588 4.353-.48c5.85-.647 6.716-.772 6.97-1.007.652-.604-5.214-9.3-6.293-9.33-.536-.014-.543-.026 1.304 1.947 1.77 1.9 4.322 5.914 4.322 6.814 0 .413-.25.532-1.125.536-.62.003-2.34.205-3.826.45-4.488.738-5.548.64-6.768-.63-4.915-5.113-14.02-3.817-16.995 2.42-.282.592-.8 1.138-1.128 1.215-.983.222-6.12.797-8.475.95l-2.158.14.542-1.45c1.84-4.915 3.59-7.834 6.37-10.62 1.813-1.818 5.138-4.18 5.883-4.18.164 0 .467-.202.673-.45.512-.618.1-.542-1.57.286M51.74 69.557c-5.707 4.73-8.994 12.088-10.01 22.407-.698 7.086-.477 7.605 2.99 7.036 1.23-.202 3.343-.464 4.696-.583 3.28-.287 3.388-.4 3.406-3.577.042-7.48 2.328-14.396 5.487-16.6.523-.365 1.018-.744 1.1-.843.526-.63 3.127-1.2 5.48-1.2 6.847 0 10.677 5.107 11.813 15.754.292 2.733.022 2.674 7.464 1.646 4.246-.586 3.857-.255 3.623-3.087-.315-3.797-2.052-10.808-2.912-11.748a1.17 1.17 0 0 1-.26-.68c0-1.285-5.457-8.487-6.43-8.487-.165 0 .314.64 1.065 1.425 4.65 4.858 7.866 12.82 7.903 19.567l.012 2.264-2.1.183c-1.156.1-3.244.335-4.642.52-3.06.404-3.03.427-3.335-2.562-1.063-10.456-6.747-16.65-14.08-15.345-6.61 1.178-10.102 7.066-10.663 17.973l-.193 3.77-1.7.34c-.934.188-2.644.42-3.8.52s-2.598.254-3.206.35c-1.45.227-1.574-.402-1.18-6.05.718-10.295 4.06-18.032 9.798-22.687 1.067-.866 1.94-1.686 1.94-1.822 0-.366.02-.38-2.266 1.515m192.38-.023c1.635 1.517 3.13 3.372 3.13 3.885 0 .322-.374.388-5.372.95-1.552.174-3.1.405-3.437.512-.73.23-4.03.586-10.396 1.115-2.558.213-4.853.468-5.1.566-.685.273-3.833.79-5.85.963-.99.084-2.24.242-2.776.35l-.975.197v-4.24c0-3.2-.093-4.238-.375-4.24-.593 0-.354 8.6.245 8.82.242.093 1.55-.028 2.9-.268s3.08-.44 3.82-.44 1.958-.2 2.7-.438 3.714-.657 6.602-.93c10.76-1.017 15.507-1.646 18.372-2.433.99-.272-3.537-5.846-4.706-5.795-.172.008.372.65 1.21 1.426m27.36.81c-.346 3.046-.536 5.417-.41 5.1.273-.677.842-5.456.732-6.15-.07-.438-.203-.001-.323 1.05m-260.92 9.077l.08 9.828 19.055.158-.138-19.963-.312 19.505H11.24l-.08-9.678c-.05-6.197-.187-9.677-.38-9.677s-.273 3.424-.22 9.827m117.86-.6l.15 9.228 1.5-.01c2.133-.01 8.045-.788 8.402-1.104.165-.146.368-2.454.45-5.128l.15-4.862h11.8l1.152.918c1.453 1.157 2.473 3.176 2.495 4.933.037 3.085.062 3.09 7.713 1.897 3.588-.56 3.556-.517 3.225-4.416-.298-3.5-1.84-7.35-3.92-9.76-.69-.8-.142.605.768 1.968 1.713 2.566 2.725 5.888 2.725 8.948V83.9l-3.226.396c-1.774.218-3.982.454-4.906.524l-1.68.128-.193-2.073c-.495-5.334-2.725-6.677-11.078-6.677-6.24 0-5.624-.61-5.624 5.565 0 5.233-.001 5.235-2.456 5.24-1.186.002-3.99.364-6.017.776l-.82.167-.08-9.075c-.05-5.712-.19-9.112-.38-9.175-.198-.066-.25 3.042-.15 9.127m121.94-2.396c-.424.274-.993 2.27-.85 2.99l.267 1.308c.09.426.57 1.29 1.068 1.917.992 1.248 1.157 2.1.457 2.367-.263.1-.45.55-.45 1.083 0 1.118-.674 1.195-1.87.216-.777-.637-.835-.862-1.078-4.23-.304-4.2-.72-4.857-2.902-4.513-.66.105-1.538.214-1.95.242-1.465.102-3.552 1.6-2.686 1.94 3.182 1.215 2.735 12.654-.494 12.654-.247 0-.68.404-.96.898-.58 1.018-1.872 1.215-2.894.442-.436-.33-1.49-.44-4.2-.444-5.19-.006-4.97.114-4.97-2.714 0-2.435-.387-3.282-.893-1.95-.66 1.737-1.515.542-1.827-2.557-.135-1.332-.404-2.614-.6-2.85-.904-1.09-3.095-.04-2.974 1.424.167 2.017-.27 1.917-1.284-.294-.787-1.714-1.93-2.738-2.597-2.326-.542.335-.457 45.3.087 45.75.284.235 1.92.318 5.176.26l4.76-.082.3-23.406 4.92-.083c9.297-.156 9.84.518 10.243 12.686.25 7.56.51 10.093 1.102 10.685.162.16 2.338.248 5.062.2l4.78-.082-.077-1.5c-.042-.825-.19-5.35-.33-10.052-.244-8.17-.454-10.193-1.265-12.17-.995-2.425-1.322-2.973-2.528-4.232l-1.305-1.36 1.553-1.58c1.372-1.395 2.604-3.436 3.812-6.314.21-.5.442-2.732.523-5.034.236-6.724-1.072-10.614-3.125-9.3m20.21.933a8.94 8.94 0 0 0-.179 1.801c.022.52.125.327.302-.563.15-.743.23-1.553.18-1.8s-.186.005-.302.562m-18.027 1.76c1.777 6.872-.207 15.06-4.414 18.216-1.468 1.102-1.466 1.14.16 2.722 1.205 1.17 1.713 2.025 2.823 4.743.767 1.877 1.203 6.832 1.285 14.608l.083 7.952-4.37.083c-3.272.062-4.447-.013-4.667-.3-.365-.472-1-9.385-.995-13.95.005-5.04-.89-7.09-3.732-8.55-1.282-.66-8.785-1.144-11.07-.716l-1.093.205-.157 23.23h-9.302l-.077-22.188.194-22.46c.33-.33 1.53 1.217 1.97 2.542.65 1.955 2.473 1.67 2.074-.323-.23-1.144.77-2.035 1.66-1.48.547.34.63.688.636 2.646.008 2.556.466 3.462 1.95 3.857.818.217.9.36.987 1.7.142 2.22.177 2.237 4.82 2.248 3.12.007 4.227.114 4.672.45 1.303.985 4.67-.09 4.67-1.5 0-.208.287-.635.64-.95 1.882-1.684 2.456-7.273 1.046-10.193l-.716-1.48.79-.75c1.48-1.405 3.282-1.868 4.288-1.103.398.303.517 1.045.6 3.723.126 4.085.853 5.287 3.098 5.12 1.18-.087 1.204-.11 1.104-1.123-.1-.917-.048-1 .375-.64.263.218.474.28.47.135-.02-.755-.67-2.995-.974-3.36-1.064-1.282-1.43-4.2-.626-5.003.682-.682 1.304-.035 1.797 1.87m-26.635 1.176c-.498.6-.684 5.015-.245 5.834.81 1.512 1.184.652 1.184-2.712 0-3.328-.204-4.007-.94-3.122m-4.462.072c-.682.2-.783.378-.645 1.2.174 1.04 2.445.227 2.445-.875 0-.624-.44-.703-1.8-.325m1.2.632c0 .165-.27.3-.6.3s-.6-.135-.6-.3.27-.3.6-.3.6.135.6.3m47.13 1.704c-.22 1.16-.323 2.297-.232 2.528s.177.04.2-.423.173-1.435.355-2.158.276-1.48.208-1.685-.302.58-.52 1.738m-59.424-.45c-.892 1.463-.413 4.446.713 4.446.81 0 .788.92-.04 1.633-.678.583-.75.775-.433 1.157.585.704-1.05.964-2.263.36-.984-.5-1.09-.76-1.445-3.644-.252-2.054-.96-2.684-3.312-2.947-2.217-.25-2.715.107-2.098 1.5 1.694 3.82 2.117 6.46 2.117 13.195 0 13.167-3.922 19.79-11.703 19.766-6.955-.022-11.236-6.052-12.01-16.915-.563-7.92-.938-10.615-1.68-12.074-.146-.287-.265-.7-.265-.917s-.463-.844-1.03-1.393c-1.84-1.784-5.872-.772-5.872 1.475 0 .31-.352.84-.783 1.18-1.664 1.308-2.318 10.82-1.15 16.724.637 3.223 1.318 6.025 1.695 6.97l.545 1.388c7.14 18.578 29.994 20.213 39.38 2.816 3.37-6.243 5.15-18.572 3.833-26.522-1.28-7.724-2.746-10.583-4.2-8.197m2.185 1.362c.1.46.384 1.644.653 2.634 1.48 5.46 1.632 16.577.296 21.756-.588 2.28-1.162 4.17-1.548 5.1-.893 2.154-1.08 2.572-1.534 3.45-.848 1.636-1.11 2.1-1.27 2.25-.088.083-.65.825-1.246 1.65-5.292 7.31-15.292 9.977-24.332 6.486-6.335-2.448-11.012-8.803-13.384-18.19-1.62-6.41-1.432-18.667.294-19.215.318-.1.86-.748 1.204-1.437 1.663-3.33 5.2-2.906 6.162.737.78 2.955 1.304 6.246 1.307 8.22.018 15.95 7.758 24.727 17.68 20.053 6.834-3.22 10.057-22.092 5.413-31.702-.802-1.66-.78-1.712.745-1.712 2.61 0 3.343.77 3.55 3.734.195 2.807 2.196 4.166 4.43 3 .938-.485 1.13-.905.5-1.126-.218-.078-.263-.245-.11-.4s.323-.11.4.11c.074.206.258.375.41.375.533 0 .267-1.88-.475-3.357-.746-1.486-.913-2.47-.57-3.365.27-.704 1.214-.08 1.414.937m13.727 1.987c-.223.223-.317-.177-.317-1.343 0-2.16.423-2.584.542-.545.05.864-.05 1.713-.225 1.888m42.786 1.16c-.1.378-.172.957-.158 1.288s.15.073.3-.57c.292-1.247.167-1.875-.143-.717m-101.15.335c-.46.336-.49.507-.188 1.07.435.813 1.03.685 1.168-.25s-.31-1.31-.98-.82m-7.264.352c-.263.685.105 1.35.746 1.35.728 0 1.366-.755 1.14-1.347s-1.66-.6-1.885-.004m3.426.976c-1.09 1.245-1.31 2.698-.536 3.523.55.587.633.842.358 1.117-.195.196-.356.734-.356 1.196 0 .694-.13.84-.743.84-.935 0-1.79-1.206-1.502-2.117.84-2.645-2.586-5.623-3.62-3.147-.718 1.718-2.285 2.857-4.562 3.315-1.095.22-1.166.382-.535 1.217.563.744.58 1.855.036 2.4a1.19 1.19 0 0 0-.265 1.029c.214.815-.71.795-1.712-.038-.608-.506-.778-.973-.9-2.466l-.15-1.842-3.118-.086c-2.55-.07-3.252-.192-3.86-.67l-.743-.585-.57.726c-.8 1.017-1.322 3.785-.918 4.87l1.06 2.844c.637 1.706.687 2.08.347 2.564-.22.313-.443.967-.498 1.455-.08.708-.264.905-.91.98-1.336.155-2.05-1.613-1.83-4.532.214-2.827-.244-4.748-1.97-8.27-1.046-2.134-3.51-3.22-4.233-1.865-.473.884-.426 36.393.05 36.868.552.553 9.652.5 10.116-.058.253-.305.324-3.524.262-11.853l-.086-11.435h5.002c9.055.001 9.726.82 9.97 12.154.14 6.507.546 10.436 1.155 11.185.234.287 1.51.362 5.145.3l4.834-.082-.08-1.35c-.044-.742-.2-5.266-.343-10.052-.33-10.904-1.03-13.88-3.945-16.706l-1.22-1.183 1.758-1.88c2.877-3.076 4.254-6.77 2.704-7.26-.37-.117-1.093-.532-1.603-.92-1.11-.846-1.386-.87-1.99-.182m2.5 1.025c.807.523 1.467 1.107 1.467 1.298 0 1.04-2.024 4.335-3.625 5.9-2.12 2.076-2.086 1.805-.438 3.407 3.08 2.993 3.98 7.296 4.1 19.532l.07 7.77-4.283.084c-2.64.05-4.427-.036-4.658-.228-.518-.43-.767-3.18-1.037-11.412-.354-10.847-1.02-11.64-10.05-11.966l-5.088-.184-.732-2.25c-.403-1.238-.934-2.748-1.18-3.357-.865-2.133.04-5.432 1.27-4.626.488.32 1.643.485 3.804.545l3.103.086.09 1.71c.127 2.417 1.735 3.81 3.38 2.93.646-.346.79-1.188.206-1.195-.25-.003-.225-.1.075-.293.313-.2.45-.806.45-1.995 0-1.623.042-1.72.855-1.94 1.35-.367 2.808-1.508 3.5-2.74 1.194-2.124 2.787-1.098 2.76 1.778-.017 1.964.285 2.713 1.245 3.078 2.396.9 3.8-1.383 2.234-3.645-.57-.823-.512-2.043.137-2.866.432-.55.732-.477 2.355.575m101.76.798c-.513 2.217-.428 2.965.1.965.242-.9.4-1.847.35-2.1s-.256.257-.46 1.136m-133.12 1.47c1.9 2.06 2.944 5.888 2.657 9.835-.248 3.416.334 4.35 2.707 4.35h1.66l-.158 21.455h-9.302l-.078-17.854.065-18.23c.256-.667 1.655-.414 2.45.443m6.252-.498c-.276.447.045.7.62.47.265-.102.398-.32.295-.488-.243-.393-.664-.385-.914.018m-15.72.3c-.668.266-.69.332-.25.77.652.652 2.03.31 2.03-.505 0-.654-.587-.742-1.78-.265m-7.8.595c-1.835.36-2.434.987-2.434 2.548 0 1.55.232 2.23.762 2.23.72 0 .848 1.204.192 1.815-.38.353-.544.79-.444 1.174.088.336.02.612-.15.612s-.505.074-.743.166c-1.102.422-2.243-1.248-2.368-3.467-.172-3.03-.603-3.39-4.22-3.528-5.187-.195-7.624.525-6.604 1.952.684.957.77 1.35.42 1.912-.19.306-.347.76-.347 1s-.255.454-.566.454c-.753 0-1.535-1.688-1.535-3.315v-1.275l-2.48.175c-1.364.096-2.85.316-3.303.488l-.824.313.155 32.572h10.202l.157-23.556h4.967c9.306 0 9.803.7 10.212 14.358.128 4.286.356 7.433.586 8.102l.377 1.096h9.763l-.076-8.336c-.042-4.585-.2-8.77-.353-9.3s-.276-1.515-.276-2.188c0-2.504-1.866-6.77-3.678-8.413-1.244-1.128-1.165-1.775.313-2.566 1.64-.878 2.434-3.262 1.167-3.503-.906-.173-1.703.807-1.703 2.095 0 1.556-.374 1.453-.996-.276-1.123-3.124-2.768-4.016-6.173-3.347m3.83.752c.9.53 1.837 1.977 1.837 2.83 0 .307.135.642.3.744s.3.515.3.918-.136.732-.3.732c-.605 0-.266.605 1.126 2.01.784.792 1.6 1.845 1.835 2.34l.65 1.38c.805 1.612 1.164 4.752 1.318 11.522l.358 9.686.193 2.483-9.207-.166-.274-1.05c-.15-.578-.365-4.63-.476-9.002l-.202-7.952-.886-1.782c-1.537-3.09-2.577-3.513-9.127-3.7-6.75-.194-6.038-1.616-6.012 12.008l.01 11.26c-.008.297-1.067.364-4.737.3l-4.726-.083-.155-31.645.677-.128c5.4-1.018 5.33-1.03 5.33.967 0 2.282 1.424 3.453 2.993 2.46.476-.3.582-2.37.18-3.512-.348-.99.508-1.264 4.21-1.35 4.805-.112 5.522.417 5.522 4.074 0 1.513.08 1.707 1.003 2.4 2.512 1.916 5.17-.79 3.656-3.72-.655-1.267-.842-3.077-.378-3.663.702-.886 3.735-1.116 4.984-.378m145.72 1.024c-.114.52-.14 1.01-.057 1.093s.243-.274.357-.793.14-1.01.058-1.093-.244.274-.358.793m-140.28.704c0 .495-1.133 1.564-1.388 1.31-.1-.102-.098-.528.008-.95.202-.808 1.38-1.115 1.38-.36m139.57 2.207c-.222.792-.736 2.52-1.14 3.84l-1.017 3.322c-.153.507-.26 1.52-.238 2.25s.09.992.15.58c.227-1.558.754-4.08 1.003-4.8a65.03 65.03 0 0 0 .763-2.551c.278-1 .64-2.165.804-2.6s.25-.96.19-1.14-.292.317-.514 1.1m-184.26-.383c-1.948.414-2.077.653-2.105 3.906-.112 12.59-7.82 20.618-15.918 16.582-.894-.446-2.038-.813-2.542-.815-1.426-.007-2.567-1.496-2.567-3.35 0-.498-.186-1.263-.413-1.7-.898-1.73-1.57-4-2-6.798-.566-3.662-1.76-4.48-4.775-3.272-1.292.517-1.295.525-1.664 4.022-.136 1.288-.044 1.914.416 2.85.363.74.482 1.3.31 1.486-.153.157-.278.528-.278.825 0 .718-.798.69-1.2-.04-.17-.32-.3-1.406-.3-2.416 0-2.214-.617-3.605-1.598-3.605-2.304 0-1.88 5.697.866 11.636.402.87.732 1.662.732 1.758 0 .51 3.324 4.706 4.986 6.293 6.65 6.352 19.71 6.905 26.392 1.12a35.55 35.55 0 0 1 1.336-1.107c1.507-1.14 5.996-7.412 5.996-8.38a1.18 1.18 0 0 1 .258-.683c.142-.157.496-1.028.786-1.935s.647-1.885.792-2.172c.7-1.4-.156-3.485-1.46-3.52-.207-.005-.375-.116-.375-.247 0-.8-.97-7.34-1.252-8.465-.616-2.446-1.126-2.673-4.424-1.973m3.506.848c.475.966 1.27 5.29 1.27 6.912 0 1.868.435 2.898 1.674 3.966 1.12.964 1.12.977.105 3.6a126.03 126.03 0 0 0-.764 2.101c-6.87 19.343-32.096 19.63-39.657.45-1.654-4.197-1.92-5.29-1.812-7.47.184-3.737 2.045-3.18 2.045.613 0 2.387.425 3.502 1.434 3.755 1.288.324 2.032-2.03 1.126-3.563-.594-1.005-.43-3.645.316-5.087 1.067-2.062 4.325-2.185 4.325-.163 0 .326.126 1.082.28 1.68l.792 3.185c.28 1.156.842 2.815 1.248 3.688s.664 1.775.577 2.003c-.537 1.4.873 3.462 2.367 3.462.56 0 1.47.252 2.02.56 8.835 4.963 16.62-2.133 17.475-15.933.268-4.307-.003-4.026 4.223-4.38.383-.032.753.21.957.623m-39.238 4.572c-.483.582-.174 1.354.54 1.354.6 0 1.557-.88 1.557-1.45 0-.507-1.66-.432-2.098.095m-7.887.122c-1.27.204-2.314 1.438-2.315 2.733 0 1.268.602 3 1.043 3 .98 0 .828 1.342-.19 1.664-.378.12-.555.405-.497.8.15 1.033-.744 1.33-1.78.594-.803-.572-.915-.848-1.057-2.616-.158-1.972-.345-2.523-.727-2.14-.4.4-.507 20.74-.123 21.457.346.646.466.66 5.366.58l5.01-.082.157-24.448-1.25-.904c-1.26-.913-1.582-.97-3.64-.637m9.084.332c0 .165-.278.3-.617.3s-.535-.135-.433-.3.38-.3.618-.3.432.135.432.3m-5.5.768l1.007.768-.157 23.52-9.752.165v-17.452l.716.832c1.208 1.405 4.898.693 3.726-.72-.22-.266-.17-.425.175-.558.65-.25.6-1.278-.11-2.864-1.575-3.47 1.403-5.972 4.394-3.69m-29.53 2.308c-1.188 1.496-1.62 7.125-.623 8.088 1.22 1.176 1.55 2.264.806 2.662-.48.257-.585.525-.455 1.173.204 1.02-.716 1.338-2.144.738-1.225-.515-1.384-.856-1.6-3.434-.598-7.105-1.948-9.808-4.33-8.667l-.883.423v21.598l4.802.085c2.64.047 5.105.01 5.476-.08l.675-.167v-22.794h-.713c-.393 0-.848.17-1.01.375m1.124 4.876c0 3.754-.34 5.424-.716 3.53-.272-1.368-.332-7.1-.08-7.5.567-.912.795.232.795 3.98m-6.9-2.35c.64 1.364 1.133 4.03 1.42 7.688.225 2.892 1.582 3.99 3.894 3.155.862-.312 1-.504 1.03-1.425.032-.997.052-.973.31.37.15.788.237 3.287.19 5.55l-.083 4.117-4.628.083c-2.546.046-4.742-.03-4.88-.17s-.285-4.802-.323-10.36l-.07-10.108.75-.25c1.177-.394 1.714-.09 2.392 1.35m257.2 2.63c-.02.813.1 1.894.246 2.4 1.12 3.645 1.55 5.366 1.485 5.95-.26 2.347.72 3.99 1.93 3.234.55-.343.71-.28 1.46.558 1.308 1.463.998.387-.688-2.39-2.683-4.417-3.723-6.845-4.165-9.73l-.23-1.5-.037 1.48m6.034 14.275c0 .577.06.814.137.525a2.48 2.48 0 0 0 0-1.05c-.076-.29-.137-.053-.137.525" fill="#592323"/><path d="M328.9 5.454c-.14.37-.347 1.148-.462 1.725s-.42 1.726-.68 2.55l-.585 1.91c-.077.28-.306.164-.73-.375-1.172-1.5-1.832-.9-1.47 1.315l.22 1.35.037-1.425c.02-.784.16-1.426.31-1.426s.2.78.115 1.734c-.124 1.368-.055 1.82.328 2.138.773.64.617 1.325-.264 1.156-.748-.143-1.02.172-.45.524.485.3.354 1.052-.15.858-.248-.095-.45-.422-.45-.727 0-.69-1.88-1.137-2.53-.6-.334.278-.46.228-.61-.24-.103-.324-.62-.923-1.15-1.33s-1.37-1.43-1.864-2.272c-.88-1.498-1.418-1.86-1.81-1.224-.238.384 1.3 2.683 1.793 2.683.45 0 2.27 1.868 2.27 2.33 0 .572.998.96 1.6.62.73-.41 1.273-.146 1.75.853.59 1.23 1.388 1.26 1.803.07l.34-.973.536.662c.527.65.54.653.853.07.397-.74.41-1.532.027-1.532-.16 0-.203-.23-.095-.5.16-.414.223-.43.344-.075.235.693 1.578-4.554 2.085-8.148.327-2.325-.437-3.49-1.113-1.695m-3.768 1.405c-.3.486.352.634.74.167.3-.363.283-.447-.1-.447-.258 0-.546.126-.64.28M323 13.526c-.127.205-.07.422.125.487s.353.25.353.41-.135.21-.3.107-.3-.065-.3.082c0 .562.422.65.924.197.48-.434.538-.42.72.15.2.635.757.87.757.318 0-.167-.17-.606-.375-.975l-.375-.71c0-.285-1.357-.344-1.53-.067m-164.56.555c0 .165-.726.3-1.614.3-1.042 0-1.74.154-1.974.435-.198.24-.99.485-1.762.546l-1.402.11 1.39.054c.922.036 1.514-.097 1.762-.396s.917-.45 1.97-.45c.877 0 1.68-.135 1.78-.3.113-.183 2.398-.3 5.852-.3s5.738.117 5.85.3c.102.165.904.3 1.78.3 1.053 0 1.724.153 1.97.45.213.257.867.45 1.52.45.63 0 1.23.135 1.332.3s.433.3.735.3.63.202.724.45c.108.282.567.45 1.232.45.583 0 1.06.135 1.06.3s.246.3.547.3.865.338 1.253.75.878.75 1.09.75.936.54 1.6 1.2 1.42 1.2 1.662 1.2.438.22.438.5.473.935 1.05 1.48 1.05 1.178 1.05 1.408.337.735.75 1.123c.44.415.75 1.04.75 1.516 0 .446.2.985.465 1.197s.426.73.376 1.162l-.09.776-6.826.08c-6.53.077-6.827.056-6.827-.49 0-.312-.203-.737-.45-.942s-.45-.566-.45-.8c0-.58-2.52-3.1-3.1-3.1-.256 0-.55-.135-.65-.3s-.433-.3-.736-.3-.628-.203-.723-.45c-.1-.26-.55-.45-1.065-.45-.5 0-.975-.136-1.077-.3-.113-.182-2.354-.3-5.72-.3-3.49 0-5.534.11-5.534.3 0 .165-.395.3-.88.3s-1.08.202-1.33.45-.638.45-.87.45-.736.337-1.124.75-.867.75-1.066.75c-.94 0-3.735 3.515-3.735 4.697 0 .223-.135.404-.3.404s-.3.152-.3.337c0 .233.14.222.45-.037.247-.205.45-.627.45-.936s.135-.564.3-.564.3-.23.3-.514c0-.662 2.373-3.087 3.02-3.087.273 0 .75-.337 1.06-.75s.785-.75 1.056-.75.66-.203.866-.45.754-.45 1.22-.45.93-.135 1.03-.3c.113-.182 2.304-.3 5.57-.3 3.39 0 5.384.112 5.384.3 0 .165.458.3 1.018.3.628 0 1.084.172 1.19.45.095.247.44.45.764.45s.676.135.778.3.373.3.603.3c.49 0 2.495 1.984 2.88 2.85.146.33.392.802.545 1.05s.353.686.442.975c.148.48.75.525 7.013.525l7.178.327c.234.234.392.218.563-.058.137-.22.088-.433-.116-.5-.195-.065-.354-.502-.354-.972s-.202-1.056-.45-1.303-.45-.812-.45-1.254c0-.5-.283-1.027-.75-1.394-.413-.324-.75-.825-.75-1.112s-.42-.92-.93-1.403-1.048-1.186-1.192-1.557-.44-.675-.66-.675-.924-.54-1.568-1.2-1.353-1.2-1.574-1.2-.698-.276-1.06-.613c-.882-.822-2.26-1.487-3.077-1.487-.367 0-.835-.203-1.04-.45a1.39 1.39 0 0 0-.937-.45c-.3 0-.563-.136-.563-.3s-.59-.3-1.314-.3c-.8 0-1.46-.175-1.687-.45-.246-.297-.917-.45-1.97-.45-.877 0-1.68-.135-1.78-.3-.113-.183-2.454-.3-6.02-.3-3.69 0-5.834.1-5.834.3m96.512.46c-.25.653-.382.574 1.763 1.047 2.544.56 4.8.566 4.8.01 0-.295-.63-.562-1.95-.83-3.836-.776-4.392-.803-4.613-.227m-254.15.04C.524 14.86.55 65.994.827 65.994c.123 0 .19-11.545.146-25.656L.895 14.68h16.32c14.14 0 16.37.06 16.694.45.266.32.97.45 2.437.45 1.176 0 2.064.13 2.064.3 0 .165.458.3 1.018.3.628 0 1.085.172 1.19.45s.56.45 1.16.45c.704 0 1.15.216 1.552.75.3.413.788.75 1.063.75s.957.473 1.517 1.05 1.26 1.05 1.56 1.05c.324 0 .54.22.54.548 0 .3.338.865.75 1.252.45.423.75 1.038.75 1.535 0 .457.135.914.3 1.016s.3.893.3 1.758.162 1.735.36 1.933c.28.28.28.44 0 .72-.198.198-.36 1.068-.36 1.933s-.135 1.656-.3 1.758-.3.433-.3.736-.203.628-.45.723-.45.388-.45.652c0 .545-2.972 3.74-3.478 3.74-.5 0-2.224.912-2.224 1.176 0 .39 1.07 1.225 1.567 1.225a.75.75 0 0 1 .642.45.76.76 0 0 0 .66.45c.685 0 5.22 4.523 5.265 5.25.035.558.048.56.183.036.17-.668-4.54-5.587-5.352-5.587-.275 0-.578-.203-.673-.45s-.42-.45-.722-.45c-.564 0-1.27-.534-1.27-.96 0-.132.27-.24.6-.24s.6-.136.6-.3.232-.3.516-.3c.667 0 3.985-3.276 3.985-3.934 0-.276.202-.58.45-.675s.45-.44.45-.765.135-.675.3-.777.3-.893.3-1.758.162-1.735.36-1.933c.28-.28.28-.44 0-.72-.198-.198-.36-1.068-.36-1.933s-.135-1.656-.3-1.758-.3-.56-.3-1.016c0-.493-.3-1.1-.734-1.52-.404-.38-.775-.977-.826-1.327-.054-.382-.344-.675-.72-.728-.347-.05-1.083-.556-1.635-1.126s-1.193-1.035-1.426-1.035-.69-.337-1.013-.75c-.38-.482-.892-.75-1.432-.75-.463 0-1-.203-1.215-.45s-.755-.45-1.22-.45-.93-.136-1.03-.3-1.108-.3-2.236-.3c-1.546 0-2.093-.1-2.224-.45-.18-.473-32.83-.718-33.3-.25m53.418-.005c-.28.28-.262 53.52.02 53.52.124 0 .2-12.018.147-26.707L54.31 14.68h13.51v25.182c0 19.864-.08 25.213-.375 25.332-.223.1-.162.16.152.175.5.023.523-1.32.45-25.407l-.077-25.432-6.77-.08c-3.724-.045-6.863.012-6.977.125m19.96.165c-.64.64-.508 52.332.132 52.578.392.15.423.104.15-.226-.255-.306-.324-7.182-.268-26.338l.077-25.924 8.523-.08c9.122-.085 9.632-.008 9.632 1.455 0 .293.337.798.75 1.122s.75.822.75 1.104.338.78.75 1.104.75.84.75 1.147.338.822.75 1.146.75.784.75 1.02.337.747.75 1.135.75.902.75 1.143.338.75.75 1.133.75.88.75 1.108.338.73.75 1.117.75.95.75 1.252.135.548.3.548.3.247.3.548.338.865.75 1.253.75.9.75 1.116.338.725.75 1.108.75.892.75 1.134.337.755.75 1.143.75.902.75 1.143.338.75.75 1.134.75.88.75 1.107.338.73.75 1.117.75.92.75 1.18.337.73.75 1.04.75.807.75 1.104.135.624.3.726.3.386.3.632.338.76.75 1.142.75.893.75 1.134.337.755.75 1.143.75.95.75 1.252.135.548.3.548.3.264.3.586.188.693.418.825.67.692.975 1.244.693.99.858.975c.46-.044.382-3.713-.083-3.807-.2-.043-.244-.01-.075.075.397.197.404 3.403.008 3.403-.165 0-.3-.22-.3-.49s-.338-.803-.75-1.186-.75-.896-.75-1.142-.135-.53-.3-.632-.3-.386-.3-.632-.337-.76-.75-1.142-.75-.892-.75-1.134-.338-.755-.75-1.143-.75-.95-.75-1.252-.135-.548-.3-.548-.3-.247-.3-.548-.337-.865-.75-1.253-.75-.877-.75-1.09-.338-.72-.75-1.134-.75-.935-.75-1.162-.338-.728-.75-1.116-.75-.9-.75-1.117-.337-.725-.75-1.107-.75-.893-.75-1.134-.338-.755-.75-1.143-.75-.898-.75-1.134-.337-.696-.75-1.02-.75-.762-.75-.972c0-.603-.837-2.125-1.498-2.723-.33-.3-.605-.76-.608-1.024s-.34-.797-.75-1.185-.745-.872-.745-1.073-.337-.684-.75-1.07-.75-.933-.75-1.21-.338-.76-.75-1.07-.75-.778-.75-1.04-.337-.794-.75-1.182-.75-.932-.75-1.2-.338-.76-.75-1.07-.75-.778-.75-1.04-.313-.77-.695-1.13c-.828-.778-17.098-1.045-17.85-.293m43.05-.14c-.078.127 2.612.192 5.98.144l6.12-.086.16 51.486-.005-51.613-6.055-.08c-3.33-.045-6.12.023-6.2.15m79.16.156c-.3.8-.3 51.832.01 51.947.2.076.273-8.666.22-25.955l-.078-26.07 45.468.154.166 9.153h-15.702c-11.812 0-15.79.09-16.062.36-.38.38-.538 10.53-.178 11.468.163.424 1.792.475 15.312.475h15.13l-.165 9.152-14.988.078c-11.533.06-15.043.163-15.224.45-.276.434-.334 12.847-.064 13.55.163.425 1.954.475 17.14.475 16.108 0 16.938.026 16.547.525-.375.478-.364.487.126.102 1.076-.845-.246-.924-16.754-1l-16.792-.078V46.04l30.148-.156.166-.672c.09-.37.127-2.563.08-4.873l-.086-4.2-30.308-.3V24.434l31.808-.3.083-4.46c.057-3.034-.027-4.593-.262-4.876-.485-.586-45.523-.626-45.742-.04m66.645 1.217c.227.592.72.7 3.58.782 2.59.076 2.817-.2.53-.644-3-.582-4.297-.625-4.1-.138m-113.5.36c-.095.247-.42.45-.723.45s-.634.135-.736.3-.45.3-.777.3-.67.202-.764.45-.405.45-.69.45-.833.338-1.22.75-.88.75-1.095.75-1.608 1.22-3.098 2.71-2.71 2.884-2.71 3.1-.338.707-.75 1.094-.75.937-.75 1.22-.203.593-.45.688-.45.44-.45.765-.135.675-.3.777-.3.566-.3 1.03-.202 1.014-.45 1.22-.45.754-.45 1.22-.135.93-.3 1.03-.3.904-.3 1.782c0 1.052-.153 1.723-.45 1.97-.36.3-.45 1.204-.45 4.547 0 3.434.08 4.205.45 4.347.33.126.45.646.45 1.94 0 .98.134 1.768.3 1.768s.3.39.3.864.202 1.03.45 1.237.45.83.45 1.387.135 1.013.3 1.013.3.247.3.548.338.865.75 1.253.75.86.75 1.05.337.663.75 1.05.75.918.752 1.178c.003.6 2.454 3.023 3.07 3.023.26 0 .92.54 1.465 1.2.79.955 1.18 1.19 1.903 1.155.84-.04.85-.054.13-.165-.428-.067-1.3-.654-1.936-1.306s-1.332-1.185-1.546-1.185c-.51 0-2.8-2.286-2.8-2.798 0-.22-.337-.715-.75-1.103s-.75-.902-.75-1.143-.338-.75-.75-1.133-.75-.897-.75-1.142-.135-.53-.3-.633-.3-.566-.3-1.03-.202-1.014-.45-1.22-.45-.754-.45-1.22-.135-.93-.3-1.03-.3-.903-.3-1.78c0-1.053-.153-1.723-.45-1.97-.36-.297-.45-1.18-.45-4.35s.09-4.053.45-4.35c.297-.246.45-.917.45-1.97 0-.878.135-1.68.3-1.782s.3-.566.3-1.03.203-1.014.45-1.22.45-.762.45-1.237.135-.864.3-.864.3-.253.3-.563.203-.732.45-.937.45-.566.45-.8.337-.764.75-1.177.75-.9.75-1.106c0-.472 5.135-5.618 5.606-5.618.203 0 .706-.338 1.118-.75s.943-.75 1.178-.75.595-.202.8-.45.627-.45.937-.45.564-.135.564-.3.263-.3.585-.3.693-.192.825-.426.713-.483 1.3-.552l1.05-.126-1.134-.048c-.766-.033-1.19.098-1.308.402m104.62-.073c0 .55.903 1.03 2.94 1.557 2.544.66 3.962.624 3.962-.1 0-.607-.757-.92-2.25-.936-.495-.004-1.44-.203-2.1-.44-1.5-.54-2.55-.574-2.55-.08m-5.7.898c.01 1.43.713 6.088 1.2 8.003.328 1.268.596 2.77.595 3.34-.01 4.692-.03 4.55.82 5.648.453.585.908 1.272 1 1.526.137.337.334.158.73-.663.732-1.515.924-1.452 2.983.976 2.03 2.39 1.778 2.303 4.18 1.465 2.167-.756 2.42-.952 2.058-1.6-.248-.444-.354-.43-1.093.153-.96.754-1.824.525-3.99-1.06-1.828-1.338-2.193-2.65-.967-3.473.132-.09.05-.527-.18-.974-.25-.478-.354-1.227-.257-1.824.132-.813.034-1.102-.497-1.475-1.19-.832-.794-4.718.48-4.718.394 0 .712-.1.707-.225-.02-.467-1.156-1.575-1.614-1.575-.262 0-.477-.118-.477-.263 0-.3 1.455-.638 2.738-.638.475 0 .863-.135.863-.3s-.37-.303-.825-.306-1.77-.354-2.926-.778-2.406-.843-2.78-.93-.753-.277-.843-.422c-.255-.412-1.93-.315-1.926.11m13.854.706c.1.51.348.558 2.356.466 2.56-.118 3.637-.645 1.327-.65-.817-.002-2.006-.1-2.64-.195-1.025-.17-1.143-.126-1.042.38m-10.552.377l.918.56-.75.492c-1.006.66-1.215.624-1.624-.273-.677-1.485-.16-1.76 1.456-.778m74.015 1.142c-.1.1-.2.458-.2.773 0 .817 1.025.55 1.146-.3.092-.647-.484-.934-.946-.472m-64.488.913c.374.072.914.07 1.2-.006s-.02-.134-.68-.13-.895.065-.522.137m63.74 1.506c-.62.772-.913 2.483-.424 2.483.257 0 1.383-2.99 1.196-3.176-.065-.065-.413.247-.772.693m-5.6-.224c-.213.345.663.993 1.033.764.173-.106.314-.305.314-.44 0-.34-1.165-.618-1.347-.323M14.776 29.76l.08 6.377 8.443.08c7.836.074 8.458.042 8.645-.45.162-.425.127-.455-.176-.155-.284.282-2.418.376-8.57.376h-8.192V23.683h6.434c3.966 0 6.505.116 6.62.3.102.165 1.11.3 2.237.3 1.546 0 2.093.1 2.223.45.095.248.54.45.99.45.84 0 2.5 1.308 2.5 1.97 0 .196.203.525.45.73.5.416.65 3.6.17 3.6-.154 0-.37.304-.483.676s-.756 1.25-1.433 1.95-1.134 1.275-1.018 1.275c.4 0 2.614-2.394 2.614-2.814 0-.227.202-.58.45-.787.295-.245.45-.914.45-1.95s-.155-1.705-.45-1.95c-.248-.206-.45-.57-.45-.81 0-.79-1.7-2.2-2.646-2.2-.515 0-.964-.2-1.064-.45-.13-.34-.684-.45-2.283-.45-1.206 0-2.11-.13-2.11-.3 0-.19-2.453-.3-6.758-.3h-6.758l.08 6.377m309.06-4.786c-.264.32-.638.382-1.334.225-.84-.2-.974-.137-1.024.408a18.56 18.56 0 0 1-.233 1.527c-.236 1.205.213 1.913.868 1.37.382-.317.56-.32.93-.013.56.463.545.48 1.136-1.294.537-1.61.32-3.022-.343-2.223m-7.934 2.927c.257.27.274.502.058.763-.893 1.076 1.335 2.12 2.703 1.265.476-.297.743-.223 1.626.45.58.444 1.2.806 1.353.806s.385.407.495.903c.295 1.346.75.776.75-.94 0-1.366-.054-1.485-.6-1.312-.33.105-.6.08-.602-.055-.003-.372-2.757-.42-3.197-.055-.424.352-1.034-.09-1.377-.996-.105-.278-.503-.666-.884-.862-.565-.29-.624-.285-.324.034m-229.28.184c-.462.46-.222 15.912.254 16.306.393.327.443 1.992.375 12.565l-.08 12.19-9.602.33 9.902-.03.08-12.353c.067-10.692.017-12.415-.375-12.807-.454-.454-.728-16.1-.282-16.1.34 0 1.028.866 1.028 1.292 0 .24.203.603.45.808s.45.627.45.937.135.563.3.563.3.247.3.548.337.865.75 1.253.75.898.75 1.134.338.696.75 1.02.75.834.75 1.132.202.7.45.915c.31.258.45.27.45.037 0-.186-.135-.337-.3-.337s-.3-.247-.3-.548-.338-.865-.75-1.253-.75-.9-.75-1.116-.337-.725-.75-1.108-.75-.908-.75-1.168-.135-.557-.3-.66-.3-.45-.3-.777-.203-.67-.45-.764-.45-.408-.45-.695c0-.81-1.157-1.758-1.6-1.314m212.85.707c0 .397 2.805 4.703 4.1 6.29 1.963 2.41 5.554 5.454 5.96 5.05.086-.086-.397-.54-1.072-1.007s-1.387-1.077-1.58-1.353-1.096-1.346-2.003-2.38-2.275-2.978-3.038-4.32c-1.234-2.17-2.364-3.26-2.364-2.282m-28.057 2.26c-.495.4-1.24 1.08-1.653 1.49s-.893.744-1.064.744c-.74 0-3.585 1.697-3.68 2.197-.1.518-.057.52.852.05 1.186-.614 3.54-1.34 4.356-1.345 1.872-.01 2.46 20.377.908 31.505-.242 1.733-.583 4.636-.76 6.452-.405 4.186-.744 6.77-1.36 10.352l-.757 4.5c-.75 4.625-1.948 9.334-3.896 15.304-.92 2.82-.946 7.854-.052 10.353.354 1 .56 1.395.455.9-.38-1.808-.445-8.392-.094-9.602l2.117-7.052c.323-.977 1.757-7.293 2.384-10.503.83-4.247 2.072-13.032 2.714-19.205.86-8.28 1.023-23.516.29-27.306-.144-.743-.432-2.552-.64-4.02l-.38-2.668.805-.693c.443-.38.806-.8.806-.91s.223-.462.496-.764c.804-.888-.732-.708-1.847.217m-123.12 2c-.196.195-.356.725-.356 1.177s-.135.906-.3 1.008c-.184.114-.3 2.598-.3 6.452s.116 6.338.3 6.452c.165.102.3.7.3 1.33 0 .74.186 1.287.526 1.543.446.338.47.335.15-.023-.207-.232-.375-1-.375-1.71s-.136-1.3-.3-1.3c-.2 0-.3-2.3-.3-6.302s.1-6.302.3-6.302c.165 0 .3-.46.3-1.025s.168-1.085.375-1.16.298-.218.205-.32-.33-.027-.525.17m161.68.907c.414.217.797.72.854 1.12.095.665.057.69-.43.293-.377-.307-.3-.037.263.912.777 1.313 1.598 2.03 1.233 1.078-.15-.39.06-.475 1.182-.475.75 0 1.43-.104 1.507-.23s-.368-.182-.992-.122c-1.2.114-2.19-.772-2.458-2.198-.078-.415-.39-.626-1.01-.686l-.897-.085.75.393m-216.13 5.35c.37.423.677.963.68 1.2s.34.75.75 1.137.745.88.745 1.09.195.543.433.74.49.653.56 1.012c.126.65.127.65.168.015.022-.35-.162-.806-.41-1.012s-.45-.577-.45-.827-.338-.767-.75-1.15-.75-.88-.75-1.108-.37-.74-.825-1.14l-.825-.728.675.77m70.496-.123c-.253.252-.27 8.58-.02 9.23.158.414 1.064.475 7.05.475h6.87v.882c0 .486-.135.966-.3 1.068s-.3.777-.3 1.5-.127 1.393-.28 1.488c-.322.2-1.22 1.916-1.22 2.332 0 .444-1.712 2.03-2.2 2.03-.24 0-.605.203-.8.45-.258.31-.27.45-.037.45.185 0 .337-.135.337-.3s.243-.3.54-.3c.678 0 2.46-1.803 2.46-2.5 0-.28.135-.51.3-.51s.3-.253.3-.563a1.39 1.39 0 0 1 .45-.937c.274-.228.45-.886.45-1.687 0-.723.135-1.314.3-1.314s.3-.537.3-1.194V48.6l-13.953-.16-.166-9.153h27.322v12.74c0 11.815-.038 12.76-.525 13.044-.468.273-.452.307.153.315l.68.01-.157-26.257-13.675-.078c-7.52-.043-13.767.014-13.878.125m150.8 6.334c-.28.62-.81 1.548-1.18 2.06s-.802 1.288-.967 1.722c-.303.795-1.02 1.05-1.37.484-.316-.512-.748-.007-.726.848.02.72.05.743.28.207s.26-.52.28.193c.025.915.78 1.362 1.033.612a6.34 6.34 0 0 1 .433-.955 19.71 19.71 0 0 0 .556-1.05c.16-.33.866-1.647 1.568-2.926s1.123-2.325.94-2.325-.566.508-.846 1.13M97.52 45.3c0 .17.202.384.45.48s.45.405.45.69.338.833.75 1.22.75.952.75 1.253.135.548.3.548.3.246.3.548.337.865.75 1.252.75.933.75 1.21.338.76.75 1.07.75.778.75 1.04.338.794.75 1.18.75.89.75 1.117.337.725.75 1.108.75.828.75 1c0 .523 1 2.323 1.553 2.822.3.267.548.682.548.923s.33.748.734 1.127.775.976.825 1.325c.052.365.347.673.69.724.55.08.555.06.075-.237-.29-.18-.525-.54-.525-.802s-.338-.788-.75-1.17-.75-.88-.75-1.107-.338-.73-.75-1.117-.75-.95-.75-1.253-.135-.548-.3-.548-.3-.246-.3-.547-.337-.865-.75-1.253-.75-.9-.75-1.117-.338-.725-.75-1.107-.75-.893-.75-1.134-.337-.755-.75-1.143-.75-.898-.75-1.135-.338-.695-.75-1.02-.75-.762-.75-.973c0-.564-.785-2.038-1.487-2.79-.338-.362-.614-.837-.614-1.055s-.27-.627-.6-.91-.6-.376-.6-.208m-82.82 7.8v7.502h7.502c4.8 0 7.502-.108 7.502-.3 0-.166.79-.3 1.768-.3 1.408 0 1.81-.107 1.968-.526s.126-.45-.177-.15c-.208.207-1.086.375-1.95.375s-1.656.135-1.758.3c-.115.186-2.904.3-7.37.3H15V45.89h8.702c5.602 0 8.703.107 8.703.3 0 .165.434.3.965.3a1.98 1.98 0 0 1 1.58.715c.338.393.882.765 1.2.828.342.065.636.4.692.786.052.37.22.672.375.672s.28.388.28.863.202 1.032.45 1.237.45.705.45 1.11-.202.937-.45 1.185-.45.845-.45 1.33-.135.88-.3.88-.3.25-.3.553c0 .656-.903 1.547-1.567 1.547-.258 0-.56.236-.67.525-.16.42-.125.45.178.15.208-.206.554-.375.768-.375.525 0 1.59-1.094 1.59-1.633 0-.237.135-.515.3-.617s.3-.566.3-1.032.202-1.014.45-1.22.45-.746.45-1.2-.202-.995-.45-1.2-.45-.754-.45-1.22-.135-.93-.3-1.03-.3-.445-.3-.762c0-.36-.273-.645-.722-.758-.397-.1-1.028-.507-1.403-.906-.4-.428-1.02-.725-1.51-.725-.456 0-.913-.135-1.015-.3-.117-.19-3.454-.3-9.02-.3H14.7v7.502m36.957-4.117c-.032.765.1 1.19.402 1.308.353.135.45.742.45 2.804 0 1.973-.113 2.725-.45 3.006-.247.205-.45.762-.45 1.237s-.135.863-.3.863-.3.254-.3.563a1.39 1.39 0 0 1-.45.937c-.247.206-.45.577-.45.825 0 .564-3.716 4.277-4.28 4.277-.228 0-.733.337-1.12.75s-.937.75-1.22.75-.593.203-.688.45c-.103.267-.553.45-1.104.45-.512 0-1.134.203-1.38.45s-.314.45-.147.45.388-.135.5-.3.566-.3 1.03-.3 1.014-.202 1.22-.45.566-.45.8-.45.74-.337 1.123-.75.886-.75 1.12-.75c.586 0 4.46-3.954 4.46-4.552a.76.76 0 0 1 .45-.658c.248-.095.45-.44.45-.765s.135-.675.3-.777.3-.566.3-1.03.203-1.014.45-1.22c.63-.523.65-5.56.024-5.912-.235-.132-.483-.713-.553-1.3l-.126-1.05-.048 1.135m97.47 3.414c.17.084.308.388.308.676s.337.84.75 1.227.75.934.75 1.215c0 .523 1.955 2.386 2.505 2.386.17 0 .654.304 1.077.675l.77.675-.727-.825c-.4-.454-.873-.827-1.05-.83-.512-.007-2.274-1.68-2.274-2.158 0-.238-.33-.744-.734-1.123s-.775-.966-.825-1.304-.263-.65-.474-.7-.244-.008-.075.076m160.27 1.206c-.228.827-.2 1.223.123 1.683.4.586.426.58.62-.193.11-.436.32-.793.467-.793.452 0 .298-.57-.322-1.19-.585-.586-.59-.582-.888.492m-8.05 1.2c.552.16.733.707.234.707-.16 0 .04.487.442 1.08s.818 1.53.92 2.08.387 1.075.63 1.17c.37.142.34.3-.175.956-.814 1.035-.437 1.663.397.66 1.676-2.017 2.267-2.82 2.278-3.095.007-.165.27.034.583.443l.57.743.205-.818c.238-.95-.037-2.318-.466-2.318-.16 0-.294.206-.294.46a.74.74 0 0 1-.45.632c-.248.095-.45.405-.45.69s-.345.84-.766 1.235c-.934.878-1.315.49-1.344-1.365-.03-1.867-.853-3.29-1.942-3.355-.495-.03-.663.014-.374.097m-145.2 4.676c.042.2.572.424 1.178.476s1.102.22 1.102.375 1.036.282 2.302.282c1.76 0 2.437.122 2.875.52.544.49.59.49.864 0 .237-.424.726-.52 2.658-.52 1.303 0 2.452-.135 2.554-.3s.566-.3 1.03-.3 1.014-.203 1.22-.45c.26-.31.27-.45.037-.45-.185 0-.337.135-.337.3s-.472.3-1.05.3-1.05.135-1.05.3c0 .174-.988.3-2.364.3-1.715 0-2.464.12-2.73.44-.323.39-.42.39-.81 0-.31-.31-1.106-.44-2.653-.44-1.216 0-2.295-.135-2.397-.3s-.64-.3-1.193-.3-1.076-.138-1.16-.307-.118-.136-.077.075m22.99 5.78c-.562.58-1.246 1.054-1.52 1.054s-.753.338-1.063.75a1.72 1.72 0 0 1-1.51.75c-.626 0-1.015.18-1.147.526-.16.42-.125.45.178.15.208-.207.733-.375 1.166-.375.452 0 1.088-.32 1.493-.75.387-.412.877-.75 1.088-.75s.842-.472 1.403-1.05 1.108-1.05 1.215-1.05.195.472.195 1.05.113 1.05.252 1.05c.356 0-.037-2.18-.416-2.305-.17-.057-.77.37-1.333.95m63.938-.327c-.212.255-.314 1.032-.247 1.883l.113 1.45.054-1.55c.032-.926.205-1.604.43-1.684.207-.074.293-.223.193-.332s-.344-.004-.542.235m57.593.106c-.002.37.13.675.296.675.376 0 .376-.318 0-.9-.236-.364-.292-.32-.296.225m-290.18 2.728l.15 1.698 9.527.08c5.24.044 9.528-.024 9.528-.15s-4.253-.192-9.452-.146l-9.453.083v-1.49c0-.82-.102-1.553-.226-1.63s-.158.624-.075 1.557m161.14 1.248c0 .165-.6.3-1.332.3s-1.416.135-1.518.3c-.106.17-1.634.302-3.544.305-1.847.002-3.515.103-3.706.225s1.36.176 3.45.12 3.844-.223 3.9-.375.68-.276 1.388-.276c.78 0 1.437-.178 1.662-.45.26-.31.27-.45.037-.45-.185 0-.337.135-.337.3m-46.96.3l-3.9.177 3.976.062c2.49.038 3.976-.05 3.976-.24 0-.165-.034-.273-.075-.24s-1.83.14-3.976.24m82.22 0l-6 .17 6.076.066c3.895.04 6.077-.043 6.077-.235 0-.165-.034-.27-.075-.235s-2.776.142-6.077.235m62.7 55.65c.005 1.885.07 2.18.38 1.757.487-.66.483-2.832-.006-3.5-.32-.438-.38-.16-.375 1.744" fill="#76745e"/><path d="M281.34 3.246c-.18.293 1.564 2.13 2.026 2.13.135.001.203-.295.15-.658-.107-.737-1.886-1.942-2.176-1.473m46.172 1.38c-.815.413-1.633.752-1.82.753s-.488.18-.67.4-1.11.646-2.063.948a34.36 34.36 0 0 0-3.261 1.25c-.84.387-1.745.704-2.007.704s-.552.12-.642.265-.537.334-.993.417-1.64.38-2.63.66c-3.597 1.015-10.104 2.56-10.783 2.56-.383 0-1.18.202-1.773.45s-1.993.583-3.112.746c-2.348.34-3.08.476-4.737.87-3.857.918-6.27 1.153-15.454 1.504-4.925.187-5.948.114-8.28-.592-.51-.155-2.467-.486-4.35-.735s-4.302-.654-5.375-.9a18.28 18.28 0 0 0-3.761-.399c-.996.025-2.116-.118-2.49-.318-1.4-.748-2.536-.316-3.283 1.248-.374.784-.876 1.426-1.115 1.426-.913 0-1.073 1.06-.756 5.014l.623 8.332c.33 4.683.254 4.412 2.294 8.334.556 1.07.535 1.103.535-.9 0-1.307-.163-1.954-.673-2.67-.67-.942-.68-1.002-.67-5.493.001-.57-.267-2.072-.595-3.34-.497-1.915-1.2-6.572-1.2-8.003-.003-.426 1.67-.523 1.926-.11.1.145.47.335.843.422s1.625.506 2.78.93 2.472.775 2.926.778.825.14.825.306-.388.3-.863.3c-1.283 0-2.738.34-2.738.638 0 .145.215.263.477.263.458 0 1.593 1.108 1.614 1.575.005.124-.313.225-.707.225-1.26 0-1.65 3.898-.47 4.724.523.366.62.66.49 1.47-.097.597.008 1.346.257 1.824.232.447.313.885.18.974-1.226.823-.86 2.135.967 3.473 2.173 1.6 3.028 1.814 4 1.05.482-.378.876-.518.938-.33.19.57 1.922.343 2.88-.375 1-.757 3.483-2.004 3.975-2.004.168 0 .66-.37 1.092-.825 1.757-1.843 5-3.395 3.4-1.627-.273.302-.496.646-.496.764s-.34.514-.752.877c-.646.568-.713.788-.476 1.56l.276.9.026-.84c.03-.982 1.645-1.82 5.277-2.737 1.155-.292 3.007-.865 4.115-1.274 2.72-1.003 8.55-1.004 9.843-.002 1.44 1.118 2.402 2.878 2.597 4.75.182 1.754.158 1.873-.302 1.494-.426-.35-.5-.347-.5.028 0 .243-.27.685-.6.984s-.6.657-.6.797c0 .33-1.125 1.453-1.456 1.453-.14 0-.62.338-1.066.75s-.937.75-1.094.75-.285.1-.287.225-.44.48-.975.79l-4.367 2.457c-1.494.78-2.84 2.83-1.86 2.83.144 0 1.153.878 2.242 1.95s2.1 1.95 2.27 1.95.29.184.29.41c0 .263.243.362.682.278.71-.136 1.297.312 3.15 2.405.54.6 1.112 1.11 1.27 1.11s.372.34.477.758.426.922.714 1.125.805.984 1.148 1.737c.347.762.944 1.515 1.346 1.698.464.21.966.928 1.403 2.007.375.923.81 1.678.964 1.678s.208.12.117.268c-.21.338.566 2.225 1.09 2.648.286.23.84.1 2.042-.446.908-.42 1.482-.82 1.276-.89s-.375-.468-.375-.882c0-.462-.204-.8-.526-.9-1.753-.49-2.674-8.14-1.11-9.21 2.4-1.64 4.635-.187 4.635 3.016 0 .905.144 1.368.462 1.5.54.207 1.64-.688 1.64-1.334 0-.245.194-.596.43-.78s.583-1.21.768-2.284.463-2.526.62-3.23.282-1.536.282-1.85.327-1.223.726-2.02c.825-1.65.757-2.967-.192-3.724-.544-.434-.553-.514-.113-.954.754-.754.63-.985-2.007-3.76-1.367-1.438-2.878-3.155-3.356-3.816s-1.655-1.957-2.615-2.882c-1.5-1.445-1.745-1.835-1.745-2.775 0-.602-.135-1.094-.3-1.094-.502 0-.335-.86.225-1.154 1.11-.582 2.476.615 3.374 2.954.838 2.18 6.636 8.702 7.737 8.702.934 0 .835-.46-.41-1.902-.992-1.15-1.064-1.36-.914-2.674.123-1.075.064-1.425-.24-1.425-.633 0-.8-.852-.23-1.174.397-.224.657-.108 1.154.51.6.746.695.772 1.432.378.81-.435 1.847-.04 1.103.42-1.432.885.963 3.124 2.744 2.564 2.867-.9 3.6-3.12 1.567-4.68-1.363-1.04-1.676-1.647-1.444-2.805.403-2.013 1.985-1.646 3.36.78.3.533.333.534.71.022.34-.46.534-.486 1.383-.2.543.19 1.03.295 1.085.235.297-.335.47-1.46.224-1.46-.596 0-.596-.89 0-1.65l.62-.787-.612-.658c-.336-.36-.656-1.028-.7-1.48-.095-.79-.133-.806-.9-.41-.46.24-.958.31-1.192.165-.32-.2-.304-.286.088-.436.27-.104.574-.524.677-.934.142-.566.325-.7.76-.563 1.55.492.69-3.723-1.192-5.85a27.6 27.6 0 0 1-1.008-1.2c-.19-.247-.703-.635-1.14-.86-1.432-.74-1.282-3.34.194-3.34.572 0 .916.372 1.692 1.83.536 1.005 1.417 2.165 1.957 2.577s1.065 1.014 1.168 1.338c.15.47.274.518.613.236.242-.2.81-.276 1.313-.176 1.007.202 1.34-.124 1.054-1.027-.182-.572-.238-.583-.727-.14s-.563.44-.93-.003c-.532-.64.012-1.5.882-1.412.44.05.633-.096.633-.48 0-2.1 1.06-2.946 2.074-1.656.424.54.653.656.73.375a101.83 101.83 0 0 1 .581-1.911c.258-.825.63-2.22.828-3.1.35-1.555 1.03-2.295 1.463-1.593.337.546-.343 4.82-1.295 8.143-.26.908-.46 2.055-.446 2.55.055 1.77 2.288-7.83 2.34-10.052.04-1.7-1.1-2.086-3.144-1.054m-42.852 1.2c-.704.297-.767.398-.35.56.863.33 1.66.217 1.66-.237 0-.64-.35-.727-1.31-.322m41.224 1.2c-.204.246-.493.37-.642.28-.383-.236-.017-.726.543-.726.382 0 .4.084.1.447m-161.62 6.68c3.908.06 5.826.203 6.152.457.417.325.424.306.06-.157-.37-.472-.993-.518-6.15-.457l-5.74.068 5.68.09m95.296 1.06c1.322.268 1.95.535 1.95.83 0 .556-2.257.55-4.8-.01-2.145-.473-2.013-.394-1.763-1.047.22-.576.777-.55 4.613.227m-205.7-.01c-.08.207-.108 12.258-.065 26.782l.077 26.407.15-26.782.066-26.782c-.047 0-.15.17-.228.375m14.265 24.92l.15 25.267.077-25.04-.15-25.266c-.124-.125-.16 11.143-.077 25.04m48.613-7.01c0 11.868.105 18.352.3 18.472.446.276.378 1.95-.075 1.84-.207-.05-.274-.035-.15.034s.225.385.225.7.135.575.3.575.3-.743.3-1.65c0-.917-.136-1.65-.305-1.65-.203 0-.278-6.066-.225-18.304l-.145-18.305c-.124 0-.225 8.23-.225 18.287m12.903 7.31l.15 25.567.077-25.34-.15-25.566c-.125-.125-.16 11.278-.077 25.34m24.906-25.312c0 .156-.63.325-1.402.375-.835.054-1.432.246-1.478.474-.04.2-.007.244.077.075s.732-.308 1.44-.308c.78 0 1.436-.178 1.662-.45.258-.31.27-.45.037-.45-.185 0-.337.128-.337.284m19.467.09c.278.355.83.525 1.7.525.71 0 1.357.14 1.44.308s.12.135.077-.075c-.044-.222-.63-.423-1.397-.478-.727-.053-1.526-.255-1.777-.45-.4-.3-.404-.29-.044.17m22.082 0c-.08.207-.11 11.853-.066 25.882l.078 25.506.15-25.88.065-25.882c-.046 0-.15.17-.227.375M.446 40.338l.082 12.655-.001-25.506c-.044-6.96-.08-1.178-.08 12.85M34.81 15.166c1.79.225 3.833.247 3.705.04-.077-.123-1.1-.204-2.297-.18s-1.82.088-1.408.14m232.34.945c2.286.443 2.058.72-.53.644-2.86-.083-3.352-.2-3.58-.782-.187-.487 1.1-.444 4.1.138m-226.38.114c.363.483 2.55.96 2.26.494-.08-.13-.516-.237-.97-.237s-1.012-.17-1.243-.375c-.354-.316-.362-.298-.05.118m137.73 0c.364.483 2.55.96 2.262.494-.08-.13-.517-.237-.97-.237s-1.012-.17-1.243-.375c-.355-.316-.362-.298-.05.118m78.22.115c.66.238 1.605.437 2.1.44 1.494.015 2.25.33 2.25.936 0 .935-4.498.422-6.33-.723-1.543-.963-.153-1.422 1.98-.654m60.89.7c.088.142.083.335-.012.43-.234.235-1.012-.088-1.012-.42 0-.343.813-.35 1.024-.01m7.078.01c0 .147.202.345.45.44.274.106.45.001.45-.268 0-.242-.203-.44-.45-.44s-.45.12-.45.268m3.2-.068c-.1.1-.19.48-.18.825.018.575.043.567.307-.094.294-.734.233-1.1-.126-.73m-61.88.697c2.3.005 1.234.532-1.327.65-2.008.092-2.255.043-2.356-.466s.017-.548 1.042-.38c.635.105 1.824.193 2.64.195m-221.74.516c.33.08 1.106.63 1.725 1.226s1.125.988 1.125.872c0-.485-2.273-2.308-2.838-2.276-.602.034-.602.037-.012.178m99.91.958c-.156.15-.555.336-.885.416-.57.136-.567.146.04.18a1.38 1.38 0 0 0 1.012-.416c.407-.5.293-.614-.166-.18m161.7 1.41c-.115.3-.28.36-.47.167-.344-.344-.01-1.034.382-.792.146.09.186.372.09.625m-43.38-.273c-.287.075-.827.078-1.2.006s-.138-.133.522-.137.965.056.68.13m-213.6 1.993c.764.842.93.946.913.576-.005-.124-.376-.484-.825-.8l-.816-.576.728.8m48.912 1.5c.765.84.93.945.914.576-.005-.124-.377-.485-.826-.8l-.815-.577.727.802m71.516.2c.08.293.53.463 1.298.488 1.128.036 1.133.032.13-.1-.576-.075-1.16-.295-1.298-.488-.17-.24-.212-.207-.13.1m-141.14.39c.132.132 1.173.198 2.312.147l2.07-.092-2.312-.147c-1.272-.08-2.204-.04-2.07.092m129.46-.174c-.524.066-1.125.348-1.336.627-.324.43-.318.45.038.133.23-.207.79-.375 1.243-.375s.906-.135 1.008-.3.144-.28.093-.252-.522.1-1.046.167m31.936.526c.076.398.4.96.72 1.25.532.48.565.483.387.018-.107-.28-.316-.508-.463-.508s-.268-.262-.268-.583-.116-.653-.257-.74-.194.167-.118.565m36.834-.445l-15.904.154v11.402l29.858.01-29.708-.164V24.584h15.736c10.167 0 15.802-.107 15.922-.3.102-.165.144-.27.093-.23s-7.25.14-15.997.225m-176.37.603c.206.232.375 1.1.375 1.95s.156 1.687.347 1.878c.247.246.255.46.03.735-.362.443-.645 3.857-.302 3.643.124-.077.225-.874.225-1.772s.135-1.633.3-1.633.3-.27.3-.6-.135-.6-.3-.6-.3-.726-.3-1.614c0-1.185-.14-1.72-.525-2.01-.447-.338-.47-.335-.15.023m267.85.15c-.095.247-.293.45-.44.45s-.268-.203-.268-.45.198-.45.44-.45c.27 0 .374.176.268.45m-180.42.315c-.02.338-.17.778-.334.976s-.084.174.18-.054.413-.668.333-.977c-.13-.505-.147-.5-.178.055m35.635.2c.227.29.7.51 1.05.5.606-.033.608-.042.038-.182-.33-.08-.803-.302-1.05-.5-.392-.3-.397-.275-.04.182m18.12 1.875c.003.66.065.895.136.522s.07-.913-.006-1.2-.133.018-.13.678M36 27.848c0 .185.13.337.286.337s.333.776.393 1.725l.108 1.725.057-1.688c.04-1.2-.076-1.8-.393-2.062-.31-.26-.45-.27-.45-.037m64.794.436c.764.842.93.945.913.576-.005-.124-.376-.485-.825-.8l-.816-.576.728.8m-14.02 7.928c.063 8.5.182 7.697.312-2.1.043-3.26-.023-5.927-.147-5.927s-.198 3.613-.165 8.028m63.916-7.367c-.198.198-.344.637-.325.975.034.603.038.603.182.015.08-.33.285-.77.452-.975.39-.48.165-.5-.31-.015m26.047.503c0 .185.135.337.3.337s.3.262.3.582.115.654.257.742c.42.26.012-1.276-.44-1.652-.303-.25-.417-.254-.417-.01m-88.63.937c.19.248.41.72.49 1.05.14.57.15.568.182-.038.02-.35-.202-.824-.5-1.05-.457-.358-.48-.353-.183.038m46.52-.1c-.1.1-.2.556-.2 1s-.17.98-.375 1.21c-.316.354-.297.362.118.05.272-.204.55-.84.615-1.41.133-1.134.133-1.13-.158-.84m57.678.67c.227.144.317.42.198.6-.16.26-.34.25-.713-.04-.45-.35-.457-.336-.074.15.37.473.48.486.86.104.463-.462.272-1.097-.327-1.09-.235.003-.216.094.056.266m-89.536.93c.3.33.678.6.843.6s-.012-.27-.393-.6-.76-.6-.842-.6.093.27.392.6m46.422.06c-.198.2-.345.637-.326.976.035.602.038.603.183.015.08-.33.284-.77.452-.975.388-.48.165-.5-.31-.016m-.89 2.34c0 .578.062.814.137.525a2.45 2.45 0 0 0 0-1.05c-.075-.29-.137-.053-.137.525m-15.013.36c-.198.198-.36 1.076-.36 1.95s-.135 1.6-.3 1.6-.3.152-.3.337c0 .233.14.22.45-.037.294-.244.45-.912.45-1.927 0-.855.162-1.716.36-1.914s.292-.36.2-.36-.312.162-.5.36m-101.64.84c-.114.186-3.356.327-8.494.37l-8.3.07 8.102.088c4.892.053 8.34-.03 8.702-.208a5.8 5.8 0 0 1 1.351-.416c.623-.1.588-.13-.208-.163-.526-.022-1.04.094-1.143.26m59.865.6c.38.33.76.6.843.6s-.094-.27-.393-.6-.677-.6-.842-.6.012.27.392.6m1.534 2.55c-.008.33.353.86.8 1.176l.816.576-.637-.726c-.35-.4-.71-.928-.8-1.176-.117-.318-.17-.275-.18.15m71.28.375c-.077.124 6.114.225 13.757.225s13.834-.1 13.757-.225-6.267-.225-13.757-.225-13.68.1-13.757.225m-119.93.625c0 .193-.27.35-.6.35-.74 0-.77.392-.075.938.476.373.487.363.114-.113-.355-.452-.347-.525.057-.525.52 0 .967-.538.685-.82-.1-.1-.18-.022-.18.17m287.47 1.85c0 .333.2.6.45.6s.45-.267.45-.6-.2-.6-.45-.6-.45.266-.45.6m-235.86 2.064c0 .185.126.336.28.336s.322.294.375.652.268.686.478.728.244.007.075-.077-.307-.395-.307-.69a1.37 1.37 0 0 0-.45-.912c-.31-.258-.45-.27-.45-.036m176.9 7.04c0 4.1.093 6.936.207 6.3.255-1.41.243-9.132-.017-11.805-.105-1.073-.2 1.404-.2 5.504m31.49-6.732c.254.412-.143 1.228-.598 1.228-.527 0-.83-.52-.622-1.065.186-.484.958-.587 1.22-.163m11.284 1.87c-.563.92-1.784 3.328-2.996 5.91-.258.55-.908 1.455-1.445 2s-.975 1.266-.975 1.58-.27.813-.6 1.112-.6.69-.6.87c.002.376 1.472-1.335 1.488-1.73.006-.143.475-.893 1.042-1.665s1.53-2.344 2.136-3.49l1.993-3.688c.98-1.764.942-2.518-.044-.908m-105.2 7.31v6.6l33.46.008-33.297-.163-.18-13.048.008 6.602M33.3 46.7c.576.076 1.16.296 1.298.49.17.24.212.207.13-.1-.08-.294-.53-.463-1.298-.488-1.128-.037-1.133-.032-.13.1m99.75 2.466c.02 1.443.14 1.957.477 2.048.315.086.343.046.092-.133-.197-.14-.412-1.062-.477-2.048l-.118-1.794.026 1.927m163.72-1.317c0 .454-.792.95-1.07.67-.08-.08-.06-.366.045-.638.24-.622 1.026-.647 1.026-.033m-245.17.038c.17.084.307.6.307 1.146 0 .644.174 1.06.493 1.182.373.143.416.096.177-.193-.174-.2-.362-.777-.418-1.26s-.274-.91-.484-.953-.244-.007-.075.077m47.65.253c.18.33.4.836.49 1.125s.336.514.547.5c.3-.018.303-.056.01-.175-.207-.083-.376-.393-.376-.7s-.224-.723-.498-.95c-.446-.37-.464-.35-.172.19m208.62.05c0 .343-.647 1.3-.878 1.3-.438 0-.65-.955-.305-1.37.288-.347 1.183-.293 1.183.072M35.9 48.184c.36.078.725.37.808.65.11.365.134.34.1-.093-.04-.408-.3-.616-.808-.65-.626-.04-.64-.026-.1.094m112.37 1.17c-.03.668.07 1.343.218 1.5s.336.555.416.885c.11.454.153.4.18-.225.02-.453-.093-.825-.248-.825s-.335-.574-.398-1.275l-.115-1.275-.052 1.215m29.255 1.535c-.1.1-.2.785-.2 1.5s-.135 1.3-.3 1.3-.3.152-.3.337c0 .242.118.24.422-.014.3-.248.857-3.326.603-3.324-.014 0-.115.1-.225.2m-140.04.664c0 .185.126.337.28.337s.335.438.402.975l.12.975.048-.94c.027-.52-.152-1.104-.402-1.312-.31-.258-.45-.27-.45-.036m96.324 1.5c0 .185.127.337.282.337s.335.506.4 1.125l.117 1.125.05-1.088c.03-.655-.13-1.238-.4-1.462-.31-.258-.45-.27-.45-.037m16.503 1.086c.387.412.77.683.85.602.146-.146-1.1-1.35-1.398-1.35-.086 0 .16.337.547.75m155.38.81c.504.504.448 1.348-.155 2.37-.595 1.006-.985 1.122-.985.292 0-.318-.203-.78-.45-1.028-.6-.6-.57-1.295.076-1.67.698-.407 1.08-.397 1.515.036m-201.7.84c.35.413.71.953.802 1.2.14.385.168.382.188-.023.013-.26-.348-.8-.8-1.2l-.826-.728.637.75m-51.72.368c-.378.474-.664 2.358-.326 2.15.135-.084.246-.538.246-1s.168-.918.375-.99.293-.224.192-.333-.32-.026-.487.184m101.2 1.417c.33.135.857.53 1.172.88s.82.635 1.125.635.554.135.554.3.438.282.975.26c.817-.035.854-.063.225-.176-.413-.074-.88-.258-1.035-.41s-.52-.275-.804-.275-.784-.337-1.108-.75-.84-.742-1.147-.73c-.512.017-.508.04.043.265m-118.98.866c0 .193-.243.35-.54.35s-.668.127-.825.282-.96.334-1.786.396l-1.5.114 1.558.054c.856.03 1.64-.08 1.743-.246s.44-.3.75-.3c.596 0 1.085-.515.78-.82-.1-.1-.18-.022-.18.17m102.33.54c0 .216 1.2 1.31 1.448 1.31.086 0-.16-.338-.548-.75-.73-.777-.9-.883-.9-.56m33.383.617a2.45 2.45 0 0 0 1.05 0c.29-.075.053-.137-.525-.137s-.814.062-.525.137m73.798 1.06c-.203.203-.355 1.224-.355 2.395 0 1.16-.13 2.04-.3 2.04s-.277.7-.247 1.575l.052 1.576.117-1.35c.064-.742.243-1.478.397-1.635s.28-1.192.28-2.3c0-1.34.126-2.06.376-2.15.206-.074.298-.218.205-.32s-.33-.027-.526.17m28.546 3.085c.001.99.057 1.36.124.82s.065-1.35-.003-1.8-.123-.01-.12.98m-131.95-.106c.088.14.42.257.74.257s.583.12.583.267.23.356.508.464c.465.178.463.145-.018-.387-.517-.57-2.124-1.104-1.814-.6m157.8 1.157c0 .22-.17.456-.375.525-.223.074-.375-.14-.375-.525s.152-.6.375-.525a.59.59 0 0 1 .375.525m-118.14.6c.072.495.184.9.248.9s.116-.405.116-.9-.112-.9-.248-.9-.19.405-.116.9m-1.24.25c-.273.3-.497.66-.497.796s.27-.064.6-.445.6-.74.6-.796c0-.225-.228-.08-.703.445m93.196 1.25c0 .578.062.814.137.525a2.45 2.45 0 0 0 0-1.05c-.075-.29-.137-.052-.137.525m-96.844 1.12c-.495.07-1.028.252-1.185.405s-.647.277-1.09.277-.982.236-1.2.525c-.338.447-.335.47.023.15.23-.206.79-.375 1.243-.375s.906-.135 1.008-.3.575-.3 1.05-.3.95-.135 1.05-.3.143-.28.092-.256-.498.103-.993.174m-6.45 1.832c0 .244-1.112.37-3.676.415l-3.676.064 3.576.096c3.31.088 4.562-.14 3.98-.72-.113-.113-.205-.048-.205.145m102.66 2.3c-.025.33-.114.937-.2 1.35l-.155.75.322-.736c.177-.405.266-1.013.2-1.35-.12-.6-.123-.6-.167-.014m-.6 4.35a14.81 14.81 0 0 1-.209 1.8l-.155.75.323-.74c.178-.406.272-1.217.21-1.8l-.114-1.06-.054 1.05m-1.06 6.64c-.25 1.25-.007 1.493.263.262.114-.518.145-1.005.068-1.082s-.225.293-.33.82m-.45 2.813c-.025.33-.115.938-.2 1.35l-.154.75.32-.737c.177-.404.267-1.012.2-1.35-.12-.598-.124-.6-.167-.014m-4.672 18.92c-.113.603-.145 1.155-.072 1.23s.226-.36.34-.962.145-1.155.072-1.228-.226.36-.34.96m-.397 3.435c0 .577.062.814.137.525s.076-.762 0-1.05-.137-.052-.137.526" fill="#353d36"/></svg>