<svg viewBox="0 0 1301 223" version="1.1" xmlns="http://www.w3.org/2000/svg" xmlns:xlink="http://www.w3.org/1999/xlink">
    <g id="blumelogoblackhires" stroke="none" stroke-width="1" fill="none" fill-rule="evenodd">
        <path d="M174.198,171.793 C178.915,171.793 182.954,170.029 186.318,166.493 C189.679,162.962 191.361,158.718 191.361,153.76 C191.361,148.805 189.679,144.534 186.318,140.947 C182.954,137.363 178.915,135.57 174.198,135.57 L47.125,135.57 L47.125,171.793 L174.198,171.793 Z M174.198,221.304 L0,221.304 L0,122.394 C0,102.326 15.484,86.058 34.585,86.058 L174.198,86.058 C178.915,86.058 182.954,84.266 186.318,80.68 C189.679,77.097 191.361,72.825 191.361,67.867 C191.361,62.912 189.679,58.668 186.318,55.134 C182.954,51.602 178.915,49.835 174.198,49.835 L23.563,49.835 C10.549,49.835 0,38.752 0,25.079 C0,11.407 10.549,0.324 23.563,0.324 L174.198,0.324 C183.029,0.324 191.336,2.064 199.115,5.544 C206.893,9.024 213.743,13.876 219.667,20.097 C232.212,33.596 238.487,49.573 238.487,68.026 C238.487,75.724 237.181,83.424 234.572,91.12 C232.062,98.396 228.498,104.988 223.882,110.893 C233.617,123.97 238.487,138.259 238.487,153.76 C238.487,171.793 232.212,187.718 219.667,201.531 C213.743,207.754 206.893,212.605 199.115,216.084 C191.336,219.565 183.029,221.304 174.198,221.304 L174.198,221.304 Z" id="Fill-1" fill="#0A0B09"></path>
        <path d="M495.191,179.95 L495.191,213.106 L437.335,213.106 L379.312,213.272526 L321.455,213.272526 C282.771,213.38 263.432,196.86 263.432,163.703 L263.101,13.839 L296.256,14.171 L296.256,146.794 C296.256,168.9 310.07,179.95 337.701,179.95 L495.191,179.95" id="Fill-3" fill="#0A0B09"></path>
        <path d="M495.191,179.95 L495.191,213.106 L437.335,213.106 L379.312,213.272526 L321.455,213.272526 C282.771,213.38 263.432,196.86 263.432,163.703 L263.101,13.839 L296.256,14.171 L296.256,146.794 C296.256,168.9 310.07,179.95 337.701,179.95 L495.191,179.95 Z" id="Stroke-4" stroke="#0A0B09" stroke-width="19"></path>
        <path d="M719.985,14.171 L753.142,14.171 L753.142,113.638 C753.142,179.95 714.515,213.16 637.261,213.272263 C560.009,213.38 521.382,180.281 521.382,113.97 L521.382,14.502 L554.207,14.171 L554.207,113.638 C554.207,157.847 581.835,179.95 637.095,179.95 C692.356,179.95 720.041,157.901 720.151,113.804 L720.151,64.236 L719.985,14.171" id="Fill-6" fill="#0A0B09"></path>
        <path d="M719.985,14.171 L753.142,14.171 L753.142,113.638 C753.142,179.95 714.515,213.16 637.261,213.272263 C560.009,213.38 521.382,180.281 521.382,113.97 L521.382,14.502 L554.207,14.171 L554.207,113.638 C554.207,157.847 581.835,179.95 637.095,179.95 C692.356,179.95 720.041,157.901 720.151,113.804 L720.151,64.236 L719.985,14.171 Z" id="Stroke-7" stroke="#0A0B09" stroke-width="19"></path>
        <path d="M1004.84,14.834 C1015.89,14.834 1021.42,21.465 1021.42,34.727 L1021.42,213.106 L988.267,213.106 L988.267,81.146 L938.201,180.281 L924.607,203.49 C919.523,209.236 913.111,212.551 905.377,213.438 C897.751,212.551 891.34,209.182 886.147,203.324 L872.221,180.281 L822.155,81.146 L822.155,213.106 L789,213.106 L789,34.727 C789,21.465 794.525,14.834 805.578,14.834 L814.199,14.834 C819.943,15.277 825.746,21.522 831.606,33.567 L897.42,163.703 C900.624,170.003 903.331,173.153 905.543,173.153 C907.42,172.821 909.907,169.672 913.003,163.703 L978.817,33.567 C984.674,21.522 990.477,15.277 996.225,14.834 L1004.84,14.834" id="Fill-9" fill="#0A0B09"></path>
        <path d="M1004.84,14.834 C1015.89,14.834 1021.42,21.465 1021.42,34.727 L1021.42,213.106 L988.267,213.106 L988.267,81.146 L938.201,180.281 L924.607,203.49 C919.523,209.236 913.111,212.551 905.377,213.438 C897.751,212.551 891.34,209.182 886.147,203.324 L872.221,180.281 L822.155,81.146 L822.155,213.106 L789,213.106 L789,34.727 C789,21.465 794.525,14.834 805.578,14.834 L814.199,14.834 C819.943,15.277 825.746,21.522 831.606,33.567 L897.42,163.703 C900.624,170.003 903.331,173.153 905.543,173.153 C907.42,172.821 909.907,169.672 913.003,163.703 L978.817,33.567 C984.674,21.522 990.477,15.277 996.225,14.834 L1004.84,14.834 Z" id="Stroke-10" stroke="#0A0B09" stroke-width="19"></path>
        <path d="M1059.28,213.438 L1291.04,213.438 L1291.04,180.281 L1059.28,180.281 L1059.28,213.438 Z M1059.28,130.547 L1291.04,130.547 L1291.04,97.392 L1059.28,97.392 L1059.28,130.547 Z M1059.28,47.658 L1291.37,47.658 L1291.37,14.502 L1059.28,14.502 L1059.28,47.658 Z" id="Fill-12" fill="#0A0B09"></path>
        <path d="M1059.28,213.438 L1291.04,213.438 L1291.04,180.281 L1059.28,180.281 L1059.28,213.438 Z M1059.28,130.547 L1291.04,130.547 L1291.04,97.392 L1059.28,97.392 L1059.28,130.547 Z M1059.28,47.658 L1291.37,47.658 L1291.37,14.502 L1059.28,14.502 L1059.28,47.658 Z" id="Stroke-13" stroke="#0A0B09" stroke-width="19"></path>
    </g>
</svg>