<svg xmlns="http://www.w3.org/2000/svg" viewBox="0 0 505 122" fill="#00248F"><path d="M225.3308 61.3364s.2094.066.3907.0474l.1387-27.25c.4-.1515 8.5187-1.2348 10.0573-1.3458.0147.098.0413.198.0413.298l-.464 45.3312-.0546 3.3188c-.0027.1036-.0173.2073-.0294.35l-10.784 1.064c-.044-.1026-.0933-.1927-.124-.2886l-5.688-17.2374c-1.22-3.7646-2.6546-9.15-2.6546-9.15l-.3627.0172.0014.476-.2014 26.7308c-.0013.0896-.008.1787-.0147.3167-1.0933.1817-2.1946.2312-3.2853.3557-1.1133.1265-2.2306.2125-3.3466.322l-3.3227.3364c-.016-.1276-.0413-.227-.04-.326l.9027-47.864c.0026-.0746.0106-.15.0186-.2724 1.1454-.2027 2.3013-.3063 3.4493-.4658l3.5094-.4577 3.4987-.44c.0666.1714.1373.334.1933.5016l4.124 12.3567zm-22.3973 23.963l-10.5813 1.04c-.0427.0043-.088-.0083-.1853-.0187l-.6667-4.6937-.6694-4.7573-8.2933.8754-1.828 9.7386-10.1213 1c-.0373-.04-.0507-.0494-.0573-.062s-.0134-.0306-.0107-.0437l12.348-48.6c.0147-.0573.0493-.1098.092-.203l9.784-1.2543c.0587.0323.0733.0376.0853.047s.0214.0214.0293.0344c.0147.0255.0347.0515.0414.0796l10.428 46.7328c-.1413.0344-.2667.0798-.3947.0928zM169.4428 42.2l-1.3293 44.6176-.0853 1.9c-1.0867.1557-2.1827.228-3.2747.3433l-3.256.316-3.3226.3348c-.0147-.1276-.04-.2276-.0374-.327l.1467-4.315 1.308-40.8437c.0186-.5427.056-1.0844.0867-1.665l9.7626-1.2547.0013.8828zm-13.7826 10.2843l-8.296 1.0297c-.0187.0907-.0413.16-.044.2323l-1.344 36.9177c-.0027.0735-.0187.1464-.0333.2626l-9.4894.94c-.008-.1562-.0253-.2844-.02-.4114l.0494-.9527 1.3653-35.3244c.0067-.148 0-.2964 0-.4995l-7.8396.9558.3817-9.2954 25.5712-3.2906-.3013 9.437zM126.795 78.868c-.1688 2.0188-.6432 3.9704-1.4615 5.8303-1.0693 2.4333-2.5864 4.553-4.5182 6.3734-1.8083 1.7036-3.8916 2.9287-6.3178 3.5318-1.2552.312-2.5317.4693-3.826.4046-1.6765-.0844-3.303-.4297-4.8634-1.0453-.8016-.316-1.5767-.7-2.3626-1.0563-.0808-.037-.1526-.0926-.2693-.165l.5443-11.3312.4625.44c.8677.8756 1.8 1.658 2.864 2.3.8724.5323 1.7974.9365 2.8004 1.1563 2.5715.564 4.7948-.3088 6.3038-2.473.7046-1.01 1.0702-2.1317 1.112-3.3582.0546-1.62-.5907-2.9095-1.872-3.89-.7855-.6-1.6328-1.1016-2.5172-1.5385-1.1287-.5584-2.2453-1.135-3.2803-1.858-1.3-.9088-2.4686-1.9557-3.378-3.2697-.792-1.1448-1.248-2.4224-1.438-3.79-.4068-2.9276-.0375-5.7683 1.0557-8.5125.6907-1.7344 1.686-3.2812 2.9094-4.6896 1.2084-1.3907 2.6256-2.512 4.2718-3.334 1.4068-.7025 2.8995-1.1276 4.4574-1.354 2.6568-.387 5.1838.08 7.638 1.0864.154.0636.3062.1308.4584.1994.0254.0115.0448.04.113.1006l-.4448 10.8433-1.06-.96c-.9635-.8468-2.0115-1.5598-3.2343-1.9828-1.1136-.3853-2.2552-.5176-3.3928-.1624-1.84.5744-3.0787 1.8-3.5525 3.677-.2678 1.064-.127 2.1145.5125 3.0453.4375.6375 1.0577 1.0728 1.716 1.4615.865.5 1.8006.8667 2.714 1.2724 1.8255.8104 3.5194 1.8203 4.9828 3.2052 1.3563 1.2828 2.2032 2.8337 2.6038 4.6427.1708.7702.2504 1.55.315 2.3374.0782.958.034 1.9115-.0453 2.86zM99.17 95.45c-.3588.1417-7.9192.9245-9.0328.937l2.273-44.8126c.008-.1177.0396-.2338.0662-.3854l8.8474-1.1348c.0203.0724.0588.14.0562.2082zM87.6794 66.5014c-.578 1.8-1.4953 3.4038-2.7303 4.832-1.354 1.566-2.977 2.7937-4.7724 3.8063-.1286.0728-.252.1546-.4557.2796.2204.0537.3552.0974.4937.1188 1.8172.285 3.1448 1.2634 4.0475 2.8473.64 1.1224.9864 2.3443 1.1672 3.6095l.8265 6.2557.7766 6.1255.247 1.7984c.0213.1604.0244.324.0385.527l-9.6474.9532c-.0323-.3265-.0724-.6224-.09-.9198l-.238-4.4927-.1848-3.1745-.2833-4.488c-.0866-1.0552-.236-2.1078-.625-3.1047-.115-.2943-.26-.5812-.4317-.8464-.3964-.615-.9828-.9317-1.7068-.977-.5126-.0317-1.024-.0145-1.5292.1142-.0208.1213-.0454.2082-.05.2968l-.9906 17.6912c-.01.1625-.04.324-.0646.513l-8.5568.8427c-.1328-.197-.073-.3823-.063-.5547l.1328-1.9484 2.388-40.5886c.026-.436.0656-.8708.1022-1.3443l1.077-.1615 3.2875-.4082 3.24-.4287 3.2426-.4047 2.3855-.3104c1.5943-.204 3.172-.1776 4.7093.36 2.3808.8338 3.896 2.4833 4.588 4.8964.2647.9208.3746 1.865.4032 2.8238.0552 1.8626-.1625 3.6834-.7333 5.4604zm-26.602-8.2838l-2.4495 40.548c-.015.24-.0516.478-.0844.775l-8.4968.8412c-.0043-.1516-.0177-.2803-.01-.4073l1.144-18.1c-.475-.1115-.8996.058-1.3292.074-.4522.0172-.9016.1036-1.3527.1547l-1.3093.137-1.3527.1568c-.43.06-.8687.0625-1.2957.166l-.1038 1.26-1.0806 16.958c-.0047.073-.0292.1453-.0547.2682l-8.25.8187c.022-.475 2.7697-41.746 2.8604-43.0453.0135-.1938.05-.386.0797-.622l8.1-1.0396c.1188.2193.0604.4177.0494.6084L45.14 73.887c.4005.0552 6.1333-.6 6.5822-.7557l.1022-1.298.9104-14.784c.0145-.2406.0525-.4802.0842-.7636l8.4068-1.0786c.0047.166.0188.297.01.4256l-.1604 2.5848zm-27.56 11.07c-.3156-.284-.6193-.577-.9437-.8453-1.6027-1.3256-3.5932-1.1823-5.1136-.1828-.987.6484-1.688 1.5525-2.2812 2.553-.9136 1.5407-1.4714 3.2172-1.8823 4.948-.3573 1.5042-.5792 3.03-.7428 4.5667-.186 1.7504-.29 3.503-.2203 5.262.0584 1.4396.2303 2.8666.6412 4.2548.237.8.54 1.576.984 2.2885.35.5583.7656 1.0563 1.327 1.4115 1.0276.6504 2.113.6645 3.225.253.997-.3693 1.8317-.9958 2.6256-1.6833.2943-.2552.5776-.524.9463-.86l-.6698 9.872-1.113.678c-1.2954.7438-2.653 1.3364-4.134 1.5932-1.804.313-3.565.1798-5.235-.6286-1.0375-.502-1.9088-1.225-2.653-2.102-1.113-1.3-1.8713-2.8224-2.478-4.4167-.725-1.9068-1.1563-3.8824-1.4-5.9048-.2104-1.7484-.2995-3.502-.2495-5.2604.0422-1.4833.1427-2.9624.3104-4.44.3693-3.2462 1.0912-6.4098 2.1797-9.4885.9-2.5448 2.1058-4.93 3.785-7.0572 1.53-1.938 3.2994-3.5928 5.59-4.6 1.4605-.65 2.9865-1 4.5923-.8968 1.25.08 2.4442.4063 3.6068.925.0338.5438-.6047 9.4636-.696 9.77zm231.724-59.124l-252.17 35.223c-4.0344.5724-6.5537 2.8312-7.4422 6.823C5.3036 53.6778.9662 112.6976 1 115.2512c.0464 3.478 2.1224 5.276 5.51 5.0698 2.4443-.1485 245.4598-21.4902 256.1518-22.4724-11.4494-12.708-17.1094-26.3006-17.1547-43.1312-.032-12.2418 5.8933-33.5215 19.7333-44.5527M184.1948 68.868l3.096-16.5875.1093.012 2.2347 15.9745c-.3827.1536-4.9693.6646-5.44.6"/><path d="M78.742 68.55c-.4922 1.1124-1.2318 2.0213-2.376 2.5192-.3853.1683-.8005.2907-1.214.3636-.6.1077-1.2308.1536-1.847.2235-.0714.0082-.1448.0014-.2875.002l.5416-9.4854.823-.1125 2.1204-.2213c.18-.0167.365-.0027.5438.0254 1.2822.203 2.0306.9787 2.2432 2.3298.2364 1.503.0682 2.9634-.5474 4.3557m419.946 39.4186l.6506.0417c.328.0214.56-.024.696-.1354s.2-.3063.1947-.584c-.0067-.2458-.0787-.4333-.2187-.5625s-.348-.203-.624-.2208l-.7333-.0468zm-.7307 3.1006l-.128-5.547 1.8827.1208c.468.0302.8106.2058 1.028.526s.3306.697.34 1.1292c.0093.427-.0707.765-.2413 1.013s-.4347.4058-.7907.4735c.1613.097.2933.2224.3933.3766s.26.4833.476.9874l.4934 1.1422-.9934-.064-.3533-.915c-.2107-.5448-.3934-.9198-.548-1.125s-.3534-.3157-.5974-.3313l-.2106-.0135.0533 2.2786zm1.6133-6.886c-.896-.058-1.624.3118-2.184 1.1098s-.8253 1.7646-.7986 2.9016c.0266 1.16.3426 2.1692.948 3.0276s1.3226 1.315 2.1506 1.3682c.8227.0526 1.5187-.3135 2.088-1.1s.84-1.7558.8133-2.9115c-.028-1.2052-.3547-2.2276-.9814-3.0672s-1.304-1.2828-2.036-1.3296zm-.2106-1.0355c1.1293.0724 2.0627.6557 2.7973 1.75s1.12 2.337 1.152 3.7292c.0334 1.437-.304 2.6437-1.0106 3.6203s-1.5734 1.4318-2.6 1.3656-1.916-.635-2.6706-1.7078-1.148-2.325-1.18-3.7578c-.024-.9917.14-1.8927.4893-2.7036s.808-1.4052 1.376-1.782 1.1173-.5484 1.6467-.514m-106.724-41.0733l-.2587-.088.0013.1615.0374 1.227.1773 2.8578.2427 3.673.0066.1817.1413 4.546.2054 5.8618.1907 5.27.084 2.226.0027.4322-.056.05c-.012.0078-.0253.0172-.0386.0172-.06-.0006-.1214.0032-.1814-.0067l-7.7547-1.2943c-.0413-.0068-.08-.038-.1346-.065l-.028-.215-1.5413-46.762c-.0014-.0265.0226-.0542.0346-.0807.368-.027 6.8214 1.277 8.5213 1.725l.1894.5162 2.048 6.878 3.824 13.0276 1.9413 7 .2987.0625c-.0133-.0765-.0133-.1245-.016-.164l-.088-1.4515-.3373-5.0333-.0947-1.6792-.148-4.4-.2014-5.4072-.184-4.725-.0987-2.6354-.0014-.447c.396-.0046 6.7214 1.286 7.8254 1.5937l.088 1.195 1.7747 44.565.0026.3287-.0547.063s-.0266.015-.04.0145l-.2707-.0203-8.0307-1.34-.1466-.396-3.6134-12.1443-4.3186-15.1104m51.0934 33.4818l.0813 1.2588c-.1533 0-.2693.0166-.38-.0016l-5.6493-.9364-1.5533-.2584c-.0187-.1234-.048-.238-.052-.353l-2.0667-43.508-.0587-.9066c-.004-.1.016-.2038.0307-.3563l8.3733 1.7396 5.372 17.7104.0827-.004 3.5973-15.8215 8.1307 1.6964.056.4.0947 1.6792 2.288 41.352c.012.1938.0026.4.004.637-.828-.06-1.6187-.2485-2.4174-.3704l-2.4653-.4125-2.412-.415-.0427-.2525-1.1826-28.8c0-.118-.0133-.237-.02-.3724l-.3507-.0807-3.464 17.035-.8053 3.8134-6.6053-22.918c-.0774-.032-.2294-.0912-.3534-.1183l1.768 28.573m-10.7627-.5474c-.1413.0005-.2307.013-.3147-.001l-19.3-3.2-.0373-.4238-1.8587-45.1568-.0013-.475 19.336 4.032c.0227.0838.048.14.0507.1978l.1013 2.1.2907 6.2224.0013.5036-11.3187-2.237c-.064.3578.224 7.387.3373 8.3374l3.488.6875 3.5707.7 3.5253.678c.0213.0797.0466.135.0506.1917l.3867 8.2656c.004.1016-.012.2042-.0227.3574l-10.608-1.934c-.056 1.122.0827 2.2036.104 3.2875l.1534 3.2693.1333 3.3135 11.4533 2c.0227.1364.0587.2646.064.3943l.4147 8.9115m56.4293 20.7948l.9414.1562c.3667.0485.6653.2328.8906.5026.628.748.904 1.6016.6854 2.5776-.032.1464-.084.2917-.1493.4266-.264.5453-.6614.76-1.2534.674l-1.796-.2714-138.8587-20.914-1.2226-.2.1733-1.1823c.0294-.408-.0067-.8188.0067-1.228.012-.4016-.1107-.7762-.1973-1.1584l-.2787-1.1604c.1413-.0006.228-.012.312.001l5.1187.798L489.396 115.82M348.984 22.7036c-.216-.0474-.428-.1194-.6413-.1803.276-1.487.164-2.9353.104-4.4244.1267.0125.2413.0125.352.037l141.2387 31.4068c.632.1328 1.06.4948 1.3707 1.0266.3226.55.4653 1.15.4092 1.788-.0333.3713-.1493.7-.424.9802-.2427.2386-.524.3448-.868.2688l-3.2414-.7057-138.3-30.197m18.9816 60.386c-.976.4353-1.9546.7416-2.972.9223-.7506.1333-1.508.1485-2.2666.1204-1.2414-.0464-2.4227-.3642-3.568-.824-2.0307-.815-3.6854-2.1448-5.1014-3.7844-1.844-2.1348-3.1453-4.5948-4.212-7.1864-1.1587-2.8136-1.9494-5.7328-2.4067-8.7375l-.4747-4.013c-.1893-1.888-.2307-3.7844-.1627-5.6786.084-2.3626.3214-4.712.8054-7.0318.3626-1.7385.816-3.4494 1.508-5.088.7506-1.775 1.7386-3.4006 3.1173-4.7637 1.1373-1.1244 2.436-1.9964 3.9853-2.454a8.394 8.394 0 0 1 1.8294-.328c2.1533-.1427 4.1506.3745 6.0093 1.4307l2.34 1.4843c.088.0563.1653.1314.268.2157l.06.6614.028 1.3647.132 5.1833.0867 3 .0013.5375-.2827-.3126c-.712-.914-1.5013-1.7453-2.4826-2.3806-.7254-.4704-1.5147-.7756-2.3707-.862-1.3-.1318-2.3813.3396-3.2307 1.3202-.8613.9933-1.364 2.175-1.7333 3.4214-.4107 1.386-.6067 2.8-.7387 4.2438-.156 1.7083-.192 3.4208-.1373 5.1334.0813 2.5333.3307 5.0468.9987 7.504.4986 1.8385 1.1773 3.598 2.2773 5.1713.508.7266 1.104 1.3673 1.8507 1.8563 1.4386.94 2.936 1.0463 4.4933.3203a9.366 9.366 0 0 0 1.732-1.0812l.2773-.1995c.02.1063.0427.177.0467.248l.072 1.9084.1427 5.7744.0773 2.454.0013.4496"/><path d="M476.5148 85.9093c-.192-1.5427-2.6413-14.7495-2.8253-15.2006L472.62 85.2c1.3014.2676 2.576.4776 3.8947.7203zm-7.2426-25.7823l.304-2.2412 7.136 1.4896 10.68 44.7088c-1.3266-.1765-2.6-.4197-3.8786-.628l-3.892-.6444-1.6253-8.888-5.888-1.0307c-.036.1282-.0814.223-.088.3198l-.2013 2.8562-.32 4.1683c-.0186.2416-.0213.485-.0373.727-.0107.1478-.0347.2948-.0573.487l-7.4707-1.24c-.0707-.4578.0573-.8698.108-1.2828l5.2307-38.8005m-98.627-22.34l-.0013-.45c.38-.027 7.14 1.3417 8.66 1.7516l.076 1 1.3466 42.9932.0947 2.9536.0013.385-8.7466-1.4495c-.0307-.1005-.0613-.1703-.0707-.2427-.0133-.1052-.012-.212-.0147-.3182l-1.3453-46.6328M325.6108 81.858s2.9174-2.6984 3.3414-3.4478c.284-.5022-1.9347-3.5355-2.564-3.54-.6987-.0047-4.0907 2.287-4.0907 2.287l3.3133 4.7"/><path d="M307.9228 109.3895l-4.2773-.196c-14.4227-1.2312-27.504-8.005-36.832-19.074s-13.7867-25.1078-12.556-39.5306 8.0053-27.5037 19.0733-36.832 25.1107-13.79 39.532-12.5557c7.6094.6495 13.5734 2.3652 19.9427 5.7376 4.4547 2.3036 7.4133 5.916 8.3107 10.162.828 3.928-.1614 8-2.716 11.176-4.4827 5.572-11.448 6.6568-18.628 2.901-2.4387-1.2756-5.984-2.2407-9.2534-2.5194-7.0866-.6057-13.9893 1.5864-19.4293 6.1708s-8.7693 11.0142-9.3747 18.1027 1.5867 13.989 6.1707 19.4296 11.0147 8.7693 18.1026 9.3745c6.0694.5183 11.9467-.987 17.004-4.3516 1.0693-.7118 2.5146-.4218 3.2266.649s.4227 2.5156-.648 3.2276c-5.9426 3.9536-12.852 5.7213-19.9786 5.1135-8.328-.7104-15.88-4.622-21.2667-11.013s-7.96-14.498-7.2493-22.8255 4.6213-15.8806 11.0133-21.2666 14.5-7.9588 22.8253-7.25c3.9027.3328 8.02 1.4666 11.0147 3.0328 3.6867 1.9276 8.9067 3.1984 12.844-1.6943 1.6747-2.0817 2.3267-4.7407 1.7867-7.2953-.6107-2.8943-2.656-5.3146-5.9134-6.9984-5.8013-3.0724-11.2333-4.6312-18.18-5.2246-27.2213-2.317-51.248 17.9287-53.5706 45.1448s17.9293 51.247 45.1453 53.57c12.024 1.0286 23.9773-2.358 33.6653-9.527 1.0334-.7652 2.4907-.5474 3.256.4864s.548 2.4912-.4866 3.2557c-9.448 6.9927-20.868 10.6938-32.5534 10.62"/><path d="M307.9882 96.608l-3.256-.1494c-22.752-1.9416-39.6813-22.0318-37.74-44.7833s22.04-39.6812 44.7827-37.7397c5.748.4907 11.2106 2.1246 16.236 4.8558l.036.016a.998.998 0 0 1 .496 1.3208.998.998 0 0 1-1.3214.4953c-.068-.0306-.1253-.0588-.1613-.0786-4.784-2.5995-9.984-4.154-15.4546-4.6214-21.6534-1.8494-40.7774 14.2662-42.6254 35.9214s14.2654 40.7772 35.9213 42.626c7.6774.6557 15.3374-.954 22.1494-4.654 2.4333-1.3224 2.9026-1.6272 5.012-3.2584 3.4867-2.6948 4.428-5.723 2.584-8.3063-.7614-1.0666-2.0254-1.7552-3.384-1.8416-1.104-.073-2.7734.228-4.46 2.0495a.997.997 0 0 1-1.4093.0541c-.4054-.3745-.4294-1.0057-.0547-1.41 1.732-1.8698 3.8786-2.8208 6.0506-2.685 1.9507.1245 3.776 1.124 4.8814 2.6735.9427 1.3208 3.512 6.0192-2.988 11.0448-2.2013 1.7016-2.744 2.0546-5.28 3.4322-6.192 3.363-13.052 5.0823-20.0147 5.038"/></svg>