<svg xmlns="http://www.w3.org/2000/svg" viewBox="0 0 638.56 90.17"><path d="M77.1 13.08A45.16 45.16 0 0 0 48.82 0a1.32 1.32 0 0 0-1.25.66l-.2.34a2.75 2.75 0 0 0-.23.33L11.3 62.68a2.35 2.35 0 0 0 2 3.53h4.13l-3 5.2a40.49 40.49 0 0 1 2.06-55A40 40 0 0 1 40.3 4.83a2.34 2.34 0 0 0-.16-4.67H40A45.13 45.13 0 0 0 0 45a44.87 44.87 0 0 0 13.09 31.8 2.34 2.34 0 0 0 .67.58 2.31 2.31 0 0 0 1.78.23 2.34 2.34 0 0 0 1.46-1.1l5.9-10.3h54.38a2.34 2.34 0 0 0 2-3.51L51.36 14.3a2.36 2.36 0 0 0-4.06 0L20 61.52h-2.6L50.5 4.9A40.48 40.48 0 0 1 85.65 45a40.49 40.49 0 0 1-63.29 33.46l-.12-.08a2.44 2.44 0 0 0-1.24-.33 2.34 2.34 0 0 0-1.85 3.76 1.42 1.42 0 0 0 .39.42A45.18 45.18 0 0 0 90.34 45a44.86 44.86 0 0 0-13.23-31.92M25.44 61.5l23.9-41.37 23.9 41.37zM124 27.83a20.35 20.35 0 0 1 14.18 5.44 1.09 1.09 0 0 1 .06 1.64l-2.58 2.64c-.4.53-.94.53-1.46 0a15.91 15.91 0 0 0-10.14-3.92c-8.38 0-14.7 7-14.7 15.22A14.94 14.94 0 0 0 124.16 64c4.28 0 7.26-1.7 10.08-3.87a1.07 1.07 0 0 1 1.4-.06l2.7 2.64a1.11 1.11 0 0 1-.06 1.58A20.08 20.08 0 0 1 124 70a21.09 21.09 0 1 1 0-42.17m40.53 0a21.09 21.09 0 1 1-21 21.14 21 21 0 0 1 21-21.14m0 36.32A15.23 15.23 0 1 0 149.35 49a15.23 15.23 0 0 0 15.18 15.18M194 28.88a1.1 1.1 0 0 1 1.11-1.05h1.46L222 57.23h.06v-27.7a1.11 1.11 0 0 1 1.11-1.11h3.75a1.15 1.15 0 0 1 1.08 1.11V69a1.11 1.11 0 0 1-1.08 1h-1.52L200 39.78h-.06V68.3a1.1 1.1 0 0 1-1.11 1.11h-3.7a1.14 1.14 0 0 1-1.14-1.11V28.88zm42.76 34.62l1.53-2.4a1.32 1.32 0 0 1 2-.47c.35.3 4.86 4 9.37 4 4 0 6.62-2.46 6.62-5.44 0-3.52-3-5.74-8.84-8.15-6-2.52-10.67-5.62-10.67-12.42 0-4.56 3.52-10.83 12.84-10.83a19.77 19.77 0 0 1 10.83 3.46 1.39 1.39 0 0 1 .36 2l-1.47 2.22a1.39 1.39 0 0 1-2.05.59c-.4-.24-4.5-2.93-7.9-2.93-4.92 0-6.62 3.1-6.62 5.27 0 3.34 2.58 5.4 7.44 7.38 6.8 2.75 12.6 6 12.6 13.12 0 6.1-5.45 11.08-13.07 11.08a18.94 18.94 0 0 1-12.59-4.63 1.24 1.24 0 0 1-.36-1.88M289 27.83a20.35 20.35 0 0 1 14.17 5.44 1.09 1.09 0 0 1 .06 1.64l-2.58 2.64c-.4.53-.93.53-1.46 0a15.87 15.87 0 0 0-10.14-3.92c-8.37 0-14.7 7-14.7 15.22A14.94 14.94 0 0 0 289.14 64c4.28 0 7.27-1.7 10.08-3.87a1.08 1.08 0 0 1 1.41-.06l2.7 2.64a1.11 1.11 0 0 1-.06 1.58A20.08 20.08 0 0 1 289 70a21.09 21.09 0 1 1 0-42.17m22.64 1.7a1.16 1.16 0 0 1 1.11-1.12h3.87a1.15 1.15 0 0 1 1.11 1.12V68.3a1.15 1.15 0 0 1-1.11 1.11h-3.87a1.16 1.16 0 0 1-1.11-1.11zm35.5-1.7a21.09 21.09 0 1 1-21 21.14 21.06 21.06 0 0 1 21-21.14m0 36.32A15.23 15.23 0 1 0 332 49a15.24 15.24 0 0 0 15.17 15.18m28.9-34.65a1.16 1.16 0 0 1 1.12-1.12h3.92a1.11 1.11 0 0 1 1.11 1.12v24.2c0 5.86 3.75 10.43 9.73 10.43s9.85-4.5 9.85-10.3v-24.3a1.11 1.11 0 0 1 1.11-1.12h3.92a1.16 1.16 0 0 1 1.16 1.12v24.6a15.94 15.94 0 0 1-31.88 0v-24.6zm40.08 33.97l1.52-2.4a1.32 1.32 0 0 1 2-.47c.36.3 4.87 4 9.38 4 4 0 6.62-2.46 6.62-5.44 0-3.52-3.05-5.74-8.85-8.15-6-2.52-10.66-5.62-10.66-12.42 0-4.56 3.5-10.83 12.82-10.83a19.91 19.91 0 0 1 10.85 3.46 1.39 1.39 0 0 1 .35 2l-1.47 2.22a1.39 1.39 0 0 1-2 .59c-.4-.24-4.5-2.93-7.9-2.93-4.92 0-6.62 3.1-6.62 5.27 0 3.34 2.58 5.4 7.44 7.38 6.8 2.75 12.6 6 12.6 13.12-.06 6.1-5.5 11.1-13.13 11.1a19 19 0 0 1-12.59-4.63 1.23 1.23 0 0 1-.35-1.88M482 27.83a20.06 20.06 0 0 1 14.18 5.44.76.76 0 0 1 .06 1.06l-.94 1c-.3.3-.64.36-1 0a18 18 0 0 0-12.36-4.91 18.45 18.45 0 0 0 0 36.9c7.15 0 11.6-2.75 12.2-3.22v-11h-10c-.65 0-.76-.23-.76-.76v-1.2c0-.47.1-.7.76-.7h12a.76.76 0 0 1 .76.7v13.6a1.61 1.61 0 0 1-.82 1.52A27 27 0 0 1 482 70a21.09 21.09 0 1 1 0-42.17m43.37 0A21.09 21.09 0 1 1 504.27 49a21.06 21.06 0 0 1 21.1-21.14m0 39.6A18.51 18.51 0 1 0 506.85 49a18.48 18.48 0 0 0 18.52 18.46m48.8-39.63A21.09 21.09 0 1 1 553.07 49a21.07 21.07 0 0 1 21.1-21.14m0 39.6A18.51 18.51 0 1 0 555.65 49a18.48 18.48 0 0 0 18.52 18.46m30.63-38.28a.76.76 0 0 1 .7-.76h12.42a20.5 20.5 0 1 1 0 41H605.5a.77.77 0 0 1-.7-.76zm12.65 37.72a18 18 0 1 0 0-36h-9.9v36z"/></svg>