<svg enable-background="new 0 0 59.73 40" version="1.1" viewBox="0 0 59.73 40" xml:space="preserve" xmlns="http://www.w3.org/2000/svg"><path d="m29.41 21.419c0 1.047-0.849 1.896-1.896 1.896s-1.896-0.849-1.896-1.896 0.849-1.896 1.896-1.896 1.896 0.849 1.896 1.896zm21.956 4.359l2.658 9.015-11.738-6.55-0.907 6.55-3.762-5.383-7.683 10.57-2.173-12.644-7.71 6.967-0.107-6.175-10.364 5.855 4.758-8.694-14.338-4.542 15.239-4.208-0.982-10.812 10 8.421 1.712-6.284 2.777 4.148 10.985-12.012 0.427 13.121 6.641-3.804-2.243 6.907 15.174-3.804-8.364 13.358zm-28.542-2.451h-2.804c-1.055 0-1.907-0.857-1.907-1.91 0-1.055 0.852-1.912 1.907-1.912h2.798v-3.03h-2.798c-0.253 0-0.5 0.021-0.743 0.057-2.376 0.36-4.197 2.41-4.197 4.885s1.824 4.528 4.203 4.885c0.24 0.034 0.487 0.055 0.737 0.055h2.803l1e-3 -3.03zm9.627-1.908c0-2.728-2.209-4.937-4.937-4.937-2.725 0-4.937 2.209-4.937 4.937 0 2.725 2.212 4.937 4.937 4.937 2.727 1e-3 4.937-2.211 4.937-4.937zm9.21-0.927h-1.475v-1.592h1.475v-2.418h-2.871v4.356l-3.387-4.356h-2.871v9.875h2.871v-4.713l3.387 4.713h2.871v-5.865zm2.983-1.332h-4.197v1.071h1.563v5.995h1.071v-5.995h1.563v-1.071zm6.506 0h-1.344l-1.639 5.268-1.652-5.268h-1.308l2.306 7.066h1.329l2.308-7.066z"/></svg>
