<svg id="svg" version="1.1" viewBox="0 0 317.31 141.96" xmlns="http://www.w3.org/2000/svg"><g id="svgg" transform="translate(-40.166 -26.78)"><path d="m115.85 27.613c-20.501 3.874-43.05 20.857-58.534 44.085-32.973 49.464-16.423 98.442 32.78 97.008 22.908-0.668 40.108-10.255 60.215-33.564l4.883-5.661-1.771-1.526c-0.973-0.839-1.882-1.529-2.018-1.533s-3.426 3.131-7.311 6.967c-21.899 21.622-42.53 28.217-60.585 19.365-26.75-13.113-24.653-61.452 4.243-97.801 20.345-25.594 49.281-29.751 49.254-7.076-0.013 10.955-4.437 18.418-13.771 23.236-3.868 1.997-3.932 2.231-1.031 3.787 7.837 4.205 21.91-3.343 27.663-14.838 10.006-19.991-8.173-37.332-34.017-32.449m166.11 36.841c-0.973 0.695-3.732 1.945-6.132 2.779-5.137 1.784-6.423 3.959-2.358 3.986 3.012 0.021 2.948-0.528 2.948 25.501v23.606l-1.103 1.103c-0.61 0.61-1.995 1.255-3.093 1.44-1.792 0.303-1.975 0.457-1.845 1.552l0.145 1.217 10.141-3e-3 10.142-3e-3v-1.126c0-0.94-0.371-1.23-2.249-1.761-4.062-1.147-3.883 0.029-3.883-25.554 0-12.335 0.106-24.97 0.236-28.078 0.27-6.467 0.056-6.805-2.949-4.659m-21.815-0.113c-8.765 2.779-15.579 12.212-16.577 22.949-0.326 3.506-0.427 3.611-4.414 4.584-3.205 0.782-2.33 2.669 1.318 2.842l2.97 0.141-0.139 12.991-0.14 12.991-1.117 0.905c-0.615 0.497-1.942 1.036-2.949 1.197-1.586 0.254-1.83 0.458-1.83 1.53v1.237h10.136c10.392 0 11-0.109 10.336-1.841-0.14-0.364-1.032-0.807-1.982-0.985-4.149-0.779-4.333-1.464-4.336-16.16l-3e-3 -11.439h5.138c5.651 0 6.227-0.375 5.433-3.538-0.293-1.168-0.342-1.179-5.497-1.179h-5.2l0.221-7.265c0.369-12.154 4.088-16.922 10.042-12.876 3.184 2.163 7.965 1.536 8.917-1.169 1.433-4.077-4.326-6.818-10.327-4.915m41.509 4.501c-3.897 1.595-3.473 7.52 0.622 8.694 2.755 0.79 5.746-1.488 5.746-4.377 0-3.285-3.346-5.554-6.368-4.317m-171.78 18.934c-10.114 1.272-17.29 10.466-16.537 21.186 1.545 21.971 33.833 25.062 39.296 3.762 3.721-14.505-7.552-26.861-22.759-24.948m174.47 0.889c-1.11 0.73-3.817 1.9-6.014 2.6-4.911 1.563-5.561 2.932-1.861 3.922 2.942 0.786 3.054 1.277 3.054 13.349 0 13.082-0.553 14.55-5.492 14.575-0.296 1e-3 -0.661 0.321-0.81 0.71-0.685 1.784-0.125 1.887 10.312 1.887s10.997-0.103 10.312-1.887c-0.15-0.389-0.514-0.709-0.811-0.71-5.415-0.027-5.676-1.007-5.362-20.163 0.29-17.691 0.498-16.799-3.328-14.283m-118.74 0.084c-3.372 0.171-9.529 0.196-13.682 0.055l-7.55-0.257-1.766 5.229c-2.083 6.17-2.089 6.224-0.65 6.224 0.854 0 1.385-0.524 2.266-2.236 2.126-4.131 4.113-5.048 11.339-5.232l6.153-0.157-1.117 1.572c-0.614 0.865-5.848 8.134-11.63 16.154s-10.447 14.779-10.366 15.021c0.086 0.26 6.49 0.433 15.679 0.424l15.534-0.016 0.786-2.741c0.433-1.508 1.234-3.902 1.78-5.319 1.424-3.695-0.702-4.947-2.373-1.398-2.202 4.676-4.857 5.736-13.858 5.53l-6.154-0.14 11.223-15.566c6.172-8.561 11.236-15.778 11.254-16.038 0.017-0.259 0.216-0.014 0.442 0.546 0.241 0.597 1.012 1.149 1.868 1.337 3.844 0.844 4.566 2.117 11.093 19.547 5.891 15.732 5.668 12.744 1.604 21.527-3.936 8.503-4.008 8.588-6.575 7.741-5.134-1.694-8.469 5.349-3.7 7.815 5.91 3.057 7.187 1.35 20.449-27.34 13.712-29.661 13.046-28.511 16.929-29.24 1.717-0.322 2.371-1.13 1.741-2.15-0.278-0.45-2.396-0.61-8.329-0.629l-7.956-0.026-0.141 1.18c-0.122 1.013 0.128 1.261 1.761 1.75 2.164 0.648 3.073 1.94 2.653 3.765-0.351 1.52-8.417 19.379-8.763 19.399-0.328 0.019-7.359-18.217-7.757-20.12-0.359-1.714 0.705-2.722 3.453-3.272 1.297-0.259 1.511-0.489 1.39-1.49l-0.143-1.183-9.906 0.017c-5.448 9e-3 -10.118-0.121-10.377-0.289s-3.231-0.165-6.604 6e-3m129.21 0.363c-0.895 0.895-0.05 2.32 1.556 2.621 3.787 0.711 5.182 2.048 12.092 11.588l3.942 5.444-3.512 4.226c-6.693 8.055-8.241 9.353-11.837 9.928-1.882 0.301-2.623 1.048-2.181 2.199 0.325 0.848 16.143 0.849 16.469 1e-3 0.363-0.948-0.247-2.006-1.158-2.006-1.695 0-3.027-1.584-2.367-2.817 1.402-2.62 6.275-9.024 6.592-8.663 0.931 1.059 4.711 6.712 5.414 8.094 0.947 1.864 0.487 2.708-1.799 3.3-1.134 0.294-1.473 0.642-1.473 1.512v1.129l10.377 2e-3c10.356 2e-3 10.378 0 10.528-1.044 0.083-0.575-0.129-1.13-0.471-1.233-0.343-0.103-1.635-0.449-2.872-0.769-3.043-0.787-9.959-8.498-14.633-16.314-1.154-1.931 10.146-13.518 13.954-14.309 2.871-0.596 3.372-0.979 2.964-2.265-0.235-0.738-1.074-0.821-8.291-0.821-7.218 0-8.057 0.083-8.291 0.821-0.362 1.143 0.059 1.652 1.66 2.003 3.129 0.688 2.986 1.486-1.333 7.42-3.242 4.454-2.675 4.51-6.129-0.602-3.628-5.37-3.648-5.824-0.294-6.906 1.035-0.333 1.416-0.75 1.416-1.551v-1.095l-10.063-0.045c-5.535-0.025-10.151 0.044-10.26 0.152m-178.73 1.978c10.386 2.853 11.107 27.367 0.943 32.072-8.44 3.908-15.757-5.054-14.679-17.98 0.89-10.667 6.237-16.153 13.736-14.092" fill-rule="evenodd"/></g></svg>
