<svg xmlns="http://www.w3.org/2000/svg" viewBox="0 0 320 144"><path d="M76.682 1.833c-20.5 3.874-43.05 20.857-58.534 44.085-32.973 49.464-16.423 98.442 32.78 97.008 22.908-.668 40.108-10.255 60.215-33.564l4.883-5.66-1.77-1.526c-.973-.84-1.882-1.53-2.018-1.533s-3.426 3.13-7.3 6.967c-21.9 21.622-42.53 28.217-60.585 19.365-26.75-13.113-24.653-61.452 4.243-97.8C68.93 3.58 97.865-.575 97.84 22.1c-.013 10.955-4.437 18.418-13.77 23.236-3.868 1.997-3.932 2.23-1.03 3.787 7.837 4.205 21.9-3.343 27.663-14.838 10.006-20-8.173-37.332-34.017-32.45m166.11 36.84c-.973.695-3.732 1.945-6.132 2.78-5.137 1.784-6.423 3.96-2.358 3.986 3.012.02 2.948-.528 2.948 25.5v23.606l-1.103 1.103c-.6.6-1.995 1.255-3.093 1.44-1.792.303-1.975.457-1.845 1.552l.145 1.217 20.283-.006v-1.126c0-.94-.37-1.23-2.25-1.76-4.062-1.147-3.883.03-3.883-25.554l.236-28.078c.27-6.467.056-6.805-2.95-4.66m-21.815-.113c-8.765 2.78-15.58 12.212-16.577 22.95-.326 3.506-.427 3.6-4.414 4.584-3.205.782-2.33 2.67 1.318 2.842l2.97.14-.28 25.982-1.117.905c-.615.497-1.942 1.036-2.95 1.197-1.586.254-1.83.458-1.83 1.53v1.237h10.136c10.392 0 11-.1 10.336-1.84-.14-.364-1.032-.807-1.982-.985-4.15-.78-4.333-1.464-4.336-16.16l-.003-11.44h5.138c5.65 0 6.227-.375 5.433-3.538-.293-1.168-.342-1.18-5.497-1.18h-5.2l.22-7.265c.37-12.154 4.088-16.922 10.042-12.876 3.184 2.163 7.965 1.536 8.917-1.17 1.433-4.077-4.326-6.818-10.327-4.915m41.51 4.5c-3.897 1.595-3.473 7.52.622 8.694 2.755.8 5.746-1.488 5.746-4.377 0-3.285-3.346-5.554-6.368-4.317M90.706 61.993C80.592 63.265 73.416 72.46 74.17 83.18c1.545 21.97 33.833 25.062 39.296 3.762 3.72-14.505-7.552-26.86-22.76-24.948m174.473.9c-1.1.73-3.817 1.9-6.014 2.6-4.91 1.563-5.56 2.932-1.86 3.922 2.942.786 3.054 1.277 3.054 13.35 0 13.082-.553 14.55-5.492 14.575-.296.001-.66.32-.8.7-.685 1.784-.125 1.887 10.312 1.887s10.997-.103 10.312-1.887c-.15-.4-.514-.7-.8-.7-5.415-.027-5.676-1.007-5.362-20.163.3-17.7.498-16.8-3.328-14.283m-118.736.084c-3.372.17-9.53.196-13.682.055l-7.55-.257-1.766 5.23c-2.083 6.17-2.09 6.224-.65 6.224.854 0 1.385-.524 2.266-2.236 2.126-4.13 4.113-5.048 11.34-5.232l6.153-.157-1.117 1.572-11.63 16.154c-5.782 8.02-10.447 14.78-10.366 15.02.086.26 6.5.433 15.68.424l15.534-.016.786-2.74a77.32 77.32 0 0 1 1.78-5.32c1.424-3.695-.702-4.947-2.373-1.398-2.202 4.676-4.857 5.736-13.858 5.53l-6.154-.14 11.223-15.566 11.254-16.038c.017-.26.216-.014.442.546.24.597 1.012 1.15 1.868 1.337 3.844.844 4.566 2.117 11.093 19.547 5.89 15.732 5.668 12.744 1.604 21.527-3.936 8.503-4.008 8.588-6.575 7.74-5.134-1.694-8.47 5.35-3.7 7.815 5.9 3.057 7.187 1.35 20.45-27.34 13.712-29.66 13.046-28.5 16.93-29.24 1.717-.322 2.37-1.13 1.74-2.15-.278-.45-2.396-.6-8.33-.63l-7.956-.026-.14 1.18c-.122 1.013.128 1.26 1.76 1.75 2.164.648 3.073 1.94 2.653 3.765-.35 1.52-8.417 19.38-8.763 19.4-.328.02-7.36-18.217-7.757-20.12-.36-1.714.705-2.722 3.453-3.272 1.297-.26 1.5-.5 1.4-1.5l-.143-1.183-9.906.017c-5.448.01-10.118-.12-10.377-.3s-3.23-.165-6.604.006m129.206.363c-.895.895-.05 2.32 1.556 2.62 3.787.7 5.182 2.048 12.092 11.588l3.942 5.444-3.512 4.226c-6.693 8.055-8.24 9.353-11.837 9.928-1.882.3-2.623 1.048-2.18 2.2.325.848 16.143.85 16.47.001.363-.948-.247-2.006-1.158-2.006-1.695 0-3.027-1.584-2.367-2.817 1.402-2.62 6.275-9.024 6.592-8.663.93 1.06 4.7 6.712 5.414 8.094.947 1.864.487 2.708-1.8 3.3-1.134.294-1.473.642-1.473 1.512v1.13l10.377.002c10.356.002 10.378 0 10.528-1.044.083-.575-.13-1.13-.47-1.233s-1.635-.45-2.872-.77c-3.043-.787-9.96-8.498-14.633-16.314-1.154-1.93 10.146-13.518 13.954-14.3 2.87-.596 3.372-.98 2.964-2.265-.235-.738-1.074-.82-8.29-.82s-8.057.083-8.29.82c-.362 1.143.06 1.652 1.66 2.003 3.13.688 2.986 1.486-1.333 7.42-3.242 4.454-2.675 4.5-6.13-.602-3.628-5.37-3.648-5.824-.294-6.906 1.035-.333 1.416-.75 1.416-1.55v-1.095l-10.063-.045c-5.535-.025-10.15.044-10.26.152M96.936 65.297c10.386 2.853 11.107 27.367.943 32.072-8.44 3.908-15.757-5.054-14.68-17.98.9-10.667 6.237-16.153 13.736-14.092" fill="#c22f4e"/></svg>