<svg xmlns="http://www.w3.org/2000/svg" viewBox="0 0 400 109.271" fill-rule="evenodd"><path d="M64.958.204c-.435.09-.79.228-.79.304s-.338.19-.75.25-.75.174-.75.25-.338.188-.75.25-.75.176-.75.254-.375.192-.834.253-.833.168-.833.24-.45.18-1 .245-1 .176-1 .25-.45.186-1 .25-1 .175-1 .247-.425.184-.943.25C52.99 3.442 53 3.423 53 5.873 53 7.18 53.064 8 53.167 8c.11 0 .166 4.582.166 13.413v13.413l-.458-.203c-.252-.11-.557-.297-.68-.413s-.327-.2-.458-.2-.238-.07-.238-.153-.225-.203-.5-.264-.5-.173-.5-.25-.225-.19-.5-.25-.5-.173-.5-.25-.225-.19-.5-.25-.5-.18-.5-.263-.13-.156-.292-.16-.59-.15-.958-.328-.835-.324-1.042-.327-.375-.076-.375-.162-.356-.2-.79-.274-1.078-.218-1.428-.34-1.137-.273-1.75-.335-1.168-.194-1.233-.295c-.167-.257-10.095-.257-10.262 0-.065.1-.732.233-1.48.295s-1.65.21-2 .334-.994.276-1.43.34-.79.178-.79.252-.31.176-.69.227-.736.164-.792.25-.42.212-.81.278-.708.18-.708.257-.225.188-.5.248-.5.17-.5.245-.263.184-.584.244-.583.175-.583.256-.225.195-.5.255-.5.17-.5.246-.187.182-.417.24-.416.173-.416.255-.225.2-.5.26-.5.18-.5.264-.115.153-.256.153a.4.4 0 0 0-.345.235c-.05.13-.272.28-.495.336s-.404.176-.404.266-.115.163-.256.163-.298.112-.35.25-.2.25-.33.25-.363.15-.52.333-.375.334-.484.334-.224.057-.255.128-.46.464-.956.875c-1.16.963-3.516 3.306-3.516 3.5 0 .08-.262.403-.583.715s-.584.625-.584.697-.187.305-.416.517-.417.453-.417.535c0 .13-.178.378-.83 1.152-.094.1-.17.254-.17.32s-.1.24-.243.388c-.33.365-1.6 2.83-1.6 3.113 0 .125-.07.227-.154.227s-.203.225-.263.5-.175.5-.256.5-.195.263-.255.584-.173.583-.25.583-.2.263-.25.583-.168.584-.24.584-.18.337-.24.75-.175.75-.25.75-.188.337-.25.75-.177.75-.256.75-.197.506-.262 1.125S.565 57.954.496 58c-.625.41-.612 15.167.013 15.167.07 0 .177.45.24 1s.175 1 .247 1 .183.412.246.916.177.917.254.917.19.3.253.667.17.666.243.666.18.3.238.667.177.667.263.667.207.262.267.583.17.583.244.583.185.225.245.5.18.5.263.5.155.094.156.21.224.62.494 1.125.57 1.09.664 1.304a2.57 2.57 0 0 0 .424.637c.137.137.25.348.25.47s.112.264.25.317a.41.41 0 0 1 .25.351c0 .14.056.257.125.26s.31.303.534.667.468.662.54.662.133.087.133.192.263.446.584.758.583.626.583.698c0 .224 3.534 3.68 3.774 3.693.08.004.327.23.552.5s.506.493.625.493.216.056.217.125.282.31.625.54.66.453.707.5c.13.132.707.482 1.167.71.23.113.515.3.637.415s.327.21.458.21.238.067.238.148.205.2.457.263.495.17.54.237c.173.246 2.448 1.304 3.048 1.417.342.064.62.183.62.265s.337.2.75.262.75.176.75.254.375.192.833.253.833.168.833.24.47.183 1.042.25 1.08.18 1.128.256.855.19 1.792.254 1.705.18 1.705.26 1.725.143 3.833.143 3.834-.065 3.834-.143.69-.195 1.537-.26 1.577-.177 1.625-.252.594-.19 1.213-.254 1.125-.183 1.125-.262.337-.194.75-.256.75-.174.75-.25.337-.188.75-.25.75-.17.75-.24.225-.172.5-.227.833-.252 1.24-.437.82-.338.916-.338.176-.07.176-.153.225-.203.5-.264.5-.17.5-.245.188-.182.417-.24.416-.178.416-.268.103-.163.228-.163.418-.15.65-.334.468-.333.523-.333.098 1.098.098 2.44v2.44l2.04-.12c1.12-.065 2.078-.18 2.125-.252s.892-.187 1.877-.254 1.792-.18 1.792-.25.825-.182 1.833-.248 1.833-.187 1.833-.27.45-.153 1-.153h1V0l-.54.02a10.12 10.12 0 0 0-1.334.184m86.71.774c0 .08-.6.198-1.334.262S149 1.417 149 1.492s-.638.188-1.417.253-1.416.18-1.416.255-.638.2-1.417.255-1.417.177-1.417.25-.637.185-1.416.25-1.417.174-1.417.243-.45.177-1 .24l-1 .113v97.507l.958-.118c.527-.064.996-.173 1.042-.242s.702-.178 1.458-.244 1.375-.18 1.375-.255.638-.188 1.417-.253 1.417-.177 1.417-.25.637-.185 1.416-.25S149 99.07 149 99s.506-.178 1.125-.24 1.38-.156 1.694-.21l.57-.098-.226-25.802.79.758c.435.417.848.758.918.758s.566.45 1.103 1 1.03 1 1.097 1 .445.318.84.708c.86.848 1.387 1.292 1.532 1.292.06 0 .546.45 1.082 1s1.02 1 1.074 1 .552.45 1.107 1 1.067 1 1.138 1 .578.45 1.128 1 1.065 1 1.143 1 .262.13.406.29c.445.494 1.61 1.542 1.712 1.542.054 0 .536.45 1.073 1s1.027 1 1.1 1 .578.45 1.144 1 1.084 1 1.152 1 .575.45 1.127 1 1.05 1 1.107 1 .558.45 1.113 1 1.067 1 1.138 1 .58.45 1.13 1 1.05 1 1.112 1 .566.45 1.12 1 1.07 1 1.145 1 .64.506 1.255 1.125c1.14 1.145 2.6 1.6 3.024.94.066-.102.4-.236.744-.3s.625-.178.625-.255.263-.2.584-.25.583-.18.583-.27.137-.16.305-.16c.286 0 1.794-.555 2.97-1.093.29-.132.6-.24.69-.24s.38-.112.642-.25.61-.25.77-.25.292-.07.292-.154.225-.203.5-.264.5-.17.5-.242.3-.18.666-.238.667-.173.667-.253.262-.195.583-.256.584-.188.584-.286c0-.206-1.996-2.308-2.192-2.308-.074 0-.816-.675-1.65-1.5s-1.58-1.5-1.66-1.5-.74-.6-1.467-1.333-1.364-1.334-1.413-1.334-.7-.6-1.45-1.333-1.427-1.333-1.507-1.333-.778-.638-1.552-1.417-1.46-1.417-1.522-1.417-.69-.584-1.39-1.297-1.53-1.475-1.838-1.692-1.07-.907-1.69-1.535-1.185-1.142-1.25-1.142-.71-.582-1.43-1.292-1.694-1.63-2.165-2.042a38.88 38.88 0 0 1-1.485-1.375c-.346-.343-.682-.625-.746-.625s-.79-.675-1.616-1.5-1.554-1.5-1.62-1.5-.76-.618-1.54-1.375-1.66-1.568-1.953-1.803l-.53-.43 4.335-4.337 4.335-4.442c0-.057 4.912-5.013 10.916-11.013L193.5 33.358c0-.092-.412-.22-.917-.282s-.916-.173-.916-.246-.45-.183-1-.247-1-.18-1-.26-.375-.195-.834-.255-.833-.17-.833-.24-.45-.18-1-.245-1-.173-1-.243-.326-.173-.724-.227a9.67 9.67 0 0 1-1.459-.347 10.25 10.25 0 0 0-1.609-.361c-.48-.063-.875-.173-.875-.244s-.375-.18-.833-.244-.875-.183-.926-.266c-.243-.393-.843.106-4.322 3.6-2.055 2.063-3.795 3.75-3.87 3.752s-1.868 1.744-3.99 3.875l-5.167 5.143-3.345 3.334-4.375 4.366-2.34 2.303V28.428l-.25-27.595c-.138 0-.25.066-.25.145M98.625 32.114c-.435.04-.792.133-.792.21s-.562.19-1.25.255-1.25.176-1.25.248-.372.18-.826.24-.868.176-.918.257-.4.198-.757.26-.665.172-.665.244-.3.178-.667.237-.667.172-.667.253-.262.195-.583.255-.583.175-.583.256-.225.195-.5.255-.5.18-.5.264-.2.153-.422.153-.464.108-.514.24-.31.288-.578.346-.486.17-.486.247-.22.19-.486.247-.528.215-.58.347a.4.4 0 0 1-.347.24c-.14 0-.255.067-.255.15s-.225.23-.5.325-.5.253-.5.35-.107.176-.237.176-.462.225-.737.5-.554.5-.62.5c-.225 0-3.447 3.147-4.36 4.26-1.57 1.912-2.188 2.764-2.586 3.572-.113.23-.3.516-.415.637s-.21.327-.21.458-.07.238-.153.238-.203.225-.263.5-.173.5-.25.5-.2.225-.25.5-.173.5-.25.5-.2.225-.25.5-.17.5-.245.5-.184.263-.244.584-.177.583-.26.583-.2.337-.26.75-.174.75-.25.75-.188.337-.25.75-.172.75-.244.75c-.257 0-.97 4.026-1.204 6.79-.222 2.64.302 10.21.708 10.21.07 0 .18.487.243 1.083s.177 1.084.253 1.084.19.45.253 1 .175 1 .247 1 .182.337.244.75.178.75.26.75.197.337.258.75.176.75.253.75.19.262.25.583.17.583.244.583.185.23.247.512a4.63 4.63 0 0 0 .346.958c.128.246.233.535.234.64s.057.22.126.25.31.412.538.848.465.79.53.79.163.22.222.486.214.528.346.58a.4.4 0 0 1 .24.347c0 .14.075.255.167.255s.166.113.166.252.15.38.334.537.333.38.333.498.07.213.155.213.207.16.27.357.33.57.595.828.48.533.48.6.375.522.833 1 .834.893.834.944c0 .153 1.165 1.27 1.325 1.27.08 0 .598.45 1.148 1s1.077 1 1.172 1 .23.096.305.212.32.333.55.48a10.15 10.15 0 0 1 .833.618c.695.583 1.186.912 1.833 1.228.23.113.454.244.5.293.162.172 1.925 1 2.128 1 .113 0 .206.07.206.154s.225.203.5.263.5.17.5.245.262.184.583.244.583.18.583.27.132.16.292.16.5.1.757.243.725.292 1.042.35.576.166.576.237.412.18.917.244.916.177.916.253.47.192 1.042.258 1.08.182 1.13.258.893.19 1.875.255 1.787.18 1.787.258 1.5.142 3.333.142 3.333-.065 3.333-.143.768-.196 1.705-.26 1.744-.18 1.792-.254.555-.2 1.128-.256 1.042-.178 1.042-.25.3-.177.667-.236.666-.176.666-.26.338-.205.75-.267.75-.173.75-.247.225-.184.5-.244.5-.17.5-.245.263-.184.584-.244.583-.175.583-.255.225-.196.5-.256.5-.18.5-.263.09-.154.202-.154c.32 0 2.965-1.333 2.965-1.494 0-.08.225-.195.5-.256s.5-.18.5-.263.107-.153.238-.153.337-.095.458-.21.408-.302.637-.415c.455-.224 1.035-.576 1.167-.708.236-.236 1.173-.833 1.308-.833.086 0 .2-.112.252-.25s.183-.25.3-.25.37-.187.58-.417.456-.416.542-.416c.185 0 3.193-2.89 3.193-3.07 0-.067.113-.234.25-.372.2-.2.25-.664.25-1.974 0-.948.064-1.75.142-1.78.243-.095.39-19.64.147-19.636-.252.004-.955.725-.955.98 0 .102-.07.185-.156.185s-.207.162-.27.36-.293.525-.51.728-.398.42-.398.48c0 .152-.718 1.168-.875 1.238-.068.03-.125.145-.125.254s-.15.328-.333.485-.333.4-.333.52-.113.277-.25.33a.41.41 0 0 0-.25.351c0 .14-.068.255-.15.255-.13 0-.805.956-.997 1.417-.038.09-.246.332-.46.533s-.39.44-.39.53-.225.387-.5.662-.5.554-.5.62-.263.376-.584.688-.583.63-.583.706-.656.805-1.458 1.62-1.61 1.682-1.792 1.928-.4.45-.48.455-.628.495-1.218 1.09-1.147 1.083-1.238 1.083-.338.188-.55.417-.468.417-.567.417-.24.093-.315.208-.808.546-1.633.958-1.538.8-1.585.862-.29.163-.542.227-.456.172-.456.244-.338.18-.75.242-.75.176-.75.253-.375.193-.833.256-.873.178-.92.256-.612.193-1.254.256-1.207.18-1.256.26c-.116.187-5.236.19-5.236.002 0-.08-.54-.193-1.202-.255s-1.24-.174-1.29-.25-.447-.19-.882-.255-.792-.187-.792-.274-.13-.156-.292-.157-.493-.106-.738-.234a4.64 4.64 0 0 0-.959-.346c-.28-.062-.51-.175-.51-.252s-.225-.2-.5-.25-.5-.174-.5-.252-.347-.315-.77-.526-.807-.48-.852-.595a.36.36 0 0 0-.314-.211c-.13 0-.362-.15-.52-.333s-.348-.333-.423-.333c-.187 0-3.104-2.98-3.6-3.686-.222-.3-.503-.624-.625-.698s-.22-.242-.22-.375-.075-.24-.167-.24c-.38 0-.13-.316.333-.417.275-.06.5-.177.5-.26s.19-.198.42-.255.474-.19.542-.295c.142-.22.622-.535 1.177-.774a2.45 2.45 0 0 0 .637-.417c.137-.137.348-.25.47-.25s.264-.113.317-.25a.41.41 0 0 1 .351-.25c.14 0 .255-.074.255-.163s.182-.2.405-.266.445-.207.494-.336a.4.4 0 0 1 .346-.235c.14 0 .255-.067.255-.15s.188-.195.417-.253.416-.178.416-.268.115-.163.256-.163.298-.113.35-.25.195-.25.316-.25.32-.095.44-.21.408-.302.637-.415c.634-.312 1.12-.637 1.818-1.21.22-.18.465-.33.545-.33s.71-.375 1.403-.833 1.328-.834 1.413-.834.155-.073.155-.163.187-.21.416-.268.417-.172.417-.253.115-.15.255-.15a.4.4 0 0 0 .346-.235c.05-.13.272-.28.494-.336s.405-.176.405-.266.115-.163.255-.163a.4.4 0 0 0 .347-.24c.05-.132.305-.286.565-.343s.513-.212.564-.344.207-.24.347-.24.255-.073.255-.163.182-.21.405-.265.445-.207.495-.337a.4.4 0 0 1 .345-.235c.14 0 .255-.067.255-.148s.188-.196.417-.253.417-.18.417-.27.078-.163.174-.163.627-.3 1.18-.667 1.073-.666 1.158-.666.155-.075.155-.167.078-.167.174-.167c.197 0 1.214-.685 1.3-.875.03-.068.164-.125.296-.125s.283-.108.334-.24.31-.288.578-.347.486-.174.486-.257.182-.196.405-.252.445-.207.494-.336a.4.4 0 0 1 .346-.235c.14 0 .255-.074.255-.164s.188-.2.417-.268.416-.17.416-.253.115-.15.256-.15.295-.105.345-.235.272-.28.495-.336.404-.175.404-.265.115-.164.256-.164.298-.112.35-.25.195-.25.316-.25.32-.097.44-.215.464-.315.762-.437.542-.287.542-.368.115-.146.255-.146a.41.41 0 0 0 .351-.25c.053-.138.195-.25.317-.25s.32-.095.44-.21.408-.302.637-.415c.53-.26 1.007-.567 1.297-.833.125-.114.326-.208.447-.208s.264-.113.316-.25.21-.25.35-.25.256-.075.256-.167.1-.166.224-.166c.198 0 .423-.153 1.227-.83.11-.093.245-.17.298-.17.114 0 1.128-.698 1.252-.862.047-.062.29-.163.542-.227.446-.112.718-1.078.303-1.078-.084 0-.203-.225-.263-.5s-.175-.5-.256-.5-.195-.263-.255-.583-.176-.584-.258-.584-.148-.08-.148-.177c0-.44-1.73-3.666-2.035-3.795-.072-.03-.13-.164-.13-.297s-.106-.282-.235-.33-.28-.273-.337-.495-.175-.405-.265-.405-.163-.097-.163-.216-.222-.4-.493-.625-.496-.495-.5-.6c-.01-.26-2.554-2.806-3.682-3.686C120.484 37.03 120.44 37 120.234 37c-.11 0-.242-.113-.294-.25s-.21-.25-.35-.25-.256-.067-.256-.15-.187-.195-.416-.253-.417-.172-.417-.255-.225-.2-.5-.26-.5-.173-.5-.25-.225-.19-.5-.25-.5-.173-.5-.25-.225-.19-.5-.25-.5-.175-.5-.255-.263-.195-.583-.256-.584-.172-.584-.25-.263-.2-.585-.25-.625-.174-.673-.253-.46-.192-.915-.252-.827-.168-.827-.24-.468-.182-1.04-.248-1.095-.204-1.16-.307c-.12-.188-8.745-.318-10.507-.16M38.57 43.477c.048.078.572.192 1.164.253s1.285.22 1.542.352.787.3 1.18.35.713.167.713.24.225.184.5.245.5.173.5.25.225.19.5.25.5.18.5.263.115.153.255.153a.4.4 0 0 1 .345.235c.05.13.273.28.495.337s.405.175.405.265.115.163.255.163.297.1.35.244.24.3.42.348c.38.12 1.817 1.617 2.475 2.575a10.61 10.61 0 0 0 .541.708c.16.19.292.436.292.55s.112.25.25.302.25.21.25.35.07.256.153.256.203.225.264.5.178.5.26.5.2.3.258.666.17.667.244.667.187.262.248.583.176.584.257.584.148 4.383.148 10.25c0 6.64-.058 10.25-.164 10.25-.09 0-.213.3-.272.666s-.166.667-.238.667-.18.22-.24.486-.215.528-.347.578-.24.207-.24.347-.075.256-.166.256-.167.078-.167.173c0 .197-.685 1.215-.875 1.3-.07.03-.125.132-.125.226 0 .154-.327.52-2.36 2.635-.335.35-.766.684-.958.745s-.35.18-.35.266-.115.156-.255.156-.295.104-.344.23-.42.324-.828.438-.74.267-.74.34-.23.182-.512.244a4.63 4.63 0 0 0-.958.346c-.246.128-.578.233-.74.234s-.29.067-.29.148-.432.202-.96.267-1.012.206-1.077.31c-.168.27-7.927.27-8.095 0-.066-.105-.55-.245-1.078-.31s-.958-.18-.958-.252-.32-.186-.708-.25-.746-.166-.792-.223-.496-.24-1-.408c-1.12-.37-2.667-1.122-2.667-1.294 0-.07-.218-.174-.486-.233s-.527-.215-.578-.347-.207-.24-.347-.24-.255-.07-.255-.156-.162-.207-.36-.27-.525-.293-.727-.51-.426-.398-.497-.398-.87-.768-1.773-1.708c-2.015-2.094-2.083-2.174-2.22-2.61-.062-.192-.18-.35-.267-.35s-.155-.115-.155-.256-.108-.296-.24-.347-.288-.31-.347-.578-.174-.486-.257-.486-.197-.187-.255-.417-.168-.416-.245-.416-.2-.263-.25-.584S15.4 74 15.322 74s-.2-.263-.25-.585-.172-.624-.248-.67-.2-.44-.254-.873-.18-.83-.26-.88-.192-.67-.252-1.375-.172-1.283-.25-1.283-.142-1.275-.142-2.833.064-2.833.142-2.833.19-.614.247-1.364.17-1.406.25-1.458.2-.45.263-.887.18-.79.255-.79.188-.338.25-.75.177-.75.255-.75.193-.225.253-.5.173-.5.25-.5.2-.225.25-.5.18-.5.264-.5.153-.068.153-.15c0-.238 1.862-3.017 2.022-3.017.08 0 .145-.084.145-.186 0-.232 2.582-2.814 2.814-2.814.093 0 .23-.094.302-.2s.414-.397.758-.625.624-.47.625-.54.116-.125.256-.125.297-.108.347-.24.31-.288.578-.346.486-.17.486-.247.225-.2.5-.25.5-.173.5-.25.225-.2.5-.25.5-.176.5-.256.263-.195.584-.255.583-.173.583-.25.28-.187.625-.242.926-.21 1.293-.34 1.138-.286 1.713-.347 1.086-.173 1.134-.25c.115-.187 5.69-.186 5.804.001m65.93 1.67c0 .08.487.2 1.083.264s1.084.185 1.084.27.15.153.334.153c.418 0 2.603 1.123 3.162 1.625.23.207.463.375.52.375.12 0 .985.783.985.89 0 .04-.188.12-.417.178s-.417.178-.417.268-.115.163-.255.163a.4.4 0 0 0-.345.235c-.05.13-.273.28-.495.337s-.405.175-.405.265-.115.163-.255.163-.298.113-.35.25-.185.25-.294.25-.345.116-.524.258c-.593.47-3.103 2.076-3.243 2.076-.076 0-.163.056-.194.125-.08.182-1.098.875-1.285.875-.087 0-.184.056-.215.125-.08.182-1.098.875-1.285.875-.087 0-.184.056-.215.125-.08.18-1.097.875-1.28.875-.085 0-.2.112-.25.25s-.21.25-.35.25-.256.073-.256.163-.182.21-.404.265-.445.207-.495.337a.4.4 0 0 1-.345.235c-.14 0-.256.073-.256.163s-.188.21-.418.27-.475.2-.542.295c-.14.217-.62.533-1.165.77-.206.09-.375.24-.375.333s-.1.17-.224.17-.38.13-.568.29-.51.404-.71.542-.54.38-.75.542-.455.29-.546.29-.207.113-.26.25-.21.25-.35.25-.255.074-.255.164-.182.21-.405.265-.445.207-.495.336-.205.235-.345.235-.255.074-.255.164-.182.21-.405.265-.445.207-.495.336-.205.235-.345.235-.255.074-.255.164-.188.2-.417.268-.417.173-.417.257-.168.23-.375.324c-.8.37-1.29.68-1.29.83 0 .086-.078.157-.174.157-.194 0-1.176.66-1.365.917-.17.23-.133-3.453.044-4.583.26-1.66.73-3.75.86-3.804.07-.03.173-.31.232-.625s.17-.57.248-.57.2-.263.25-.584.17-.583.244-.583.185-.225.245-.5.177-.5.26-.5.197-.187.255-.417.17-.416.253-.416.15-.115.15-.256.112-.298.25-.35.25-.2.25-.33.15-.363.333-.52.333-.352.333-.434c0-.177 3.125-3.277 3.303-3.277.068 0 .252-.15.41-.333s.4-.334.52-.334.277-.112.33-.25a.41.41 0 0 1 .351-.25c.14 0 .255-.07.255-.153s.225-.203.5-.263.5-.173.5-.25.225-.2.5-.25.5-.178.5-.262.3-.2.667-.258.666-.165.666-.237.32-.184.71-.25.75-.186.803-.268.597-.197 1.21-.254 1.113-.168 1.113-.246.75-.143 1.666-.143 1.667.066 1.667.147" fill="#d42c2c"/><path d="M209.5.978c0 .08-.6.198-1.333.262s-1.334.176-1.334.25-.598.186-1.33.25-1.37.18-1.417.256-.724.194-1.503.26-1.416.177-1.416.25-.638.185-1.417.25-1.417.184-1.417.265-.22.147-.486.147-.605.045-.75.1c-.24.092-.264 4.542-.264 48.75v48.65h.75c.413 0 .75-.066.75-.147s.638-.2 1.417-.265 1.417-.178 1.417-.25.637-.185 1.416-.25S204 99.575 204 99.5s.637-.2 1.417-.255 1.416-.174 1.416-.243.47-.176 1.042-.237l1.833-.2.792-.098V85.562l.072-12.895c.04 0 .5.45 1.025 1s1.017 1 1.094 1 .58.45 1.116 1 1.03 1 1.097 1 .33.206.586.458c.826.815 1.665 1.542 1.78 1.542.062 0 .552.45 1.09 1s1.02 1 1.072 1 .558.45 1.122 1 1.078 1 1.143 1 .478.358.92.795 1.063 1 1.384 1.228.893.74 1.272 1.12.735.69.79.69.54.45 1.077 1 1.028 1 1.09 1 .577.45 1.143 1 1.085 1 1.154 1 .582.45 1.14 1 1.07 1 1.142 1 .65.497 1.285 1.104c2.57 2.454 3.053 2.896 3.163 2.896.064 0 .425.3.804.69s.95.884 1.272 1.12.952.798 1.403 1.246c.825.82 2.04 1.064 2.4.483.057-.1.348-.217.646-.28s.54-.177.54-.25.3-.18.667-.24.667-.17.667-.25.225-.19.5-.244.833-.252 1.24-.437.82-.338.916-.338.176-.065.176-.145.3-.194.667-.252.666-.173.666-.253.263-.195.584-.256.583-.17.583-.247.3-.186.667-.244.666-.173.666-.253.263-.195.584-.256.583-.172.583-.25.266-.2.592-.25c.88-.165.895-.507.063-1.355-.4-.406-.782-.738-.852-.738s-.81-.675-1.645-1.5-1.582-1.5-1.66-1.5-.738-.6-1.467-1.333-1.364-1.334-1.412-1.334-.697-.6-1.44-1.333-1.423-1.333-1.508-1.333-.788-.638-1.562-1.417-1.453-1.417-1.508-1.417-.682-.58-1.392-1.29-1.553-1.488-1.874-1.728-1.085-.934-1.698-1.542-1.166-1.105-1.228-1.105-.7-.582-1.42-1.292-1.63-1.57-2.022-1.914-1.052-.958-1.464-1.37-.812-.75-.888-.753-.788-.637-1.583-1.408c-1.7-1.65-4.315-4.07-5.413-5.014-.426-.367-.777-.72-.78-.788s6.784-6.91 15.08-15.205c16.31-16.313 15.957-15.9 13.958-15.922-.206-.001-.375-.074-.375-.163s-.375-.21-.833-.27-.834-.17-.834-.24-.45-.18-1-.245-1-.177-1-.25-.318-.184-.708-.243-.858-.174-1.042-.255-.858-.258-1.5-.394c-2.228-.47-2.835-.62-3.1-.772-.153-.084-.66-.203-1.125-.265s-.848-.178-.848-.258c0-.817-1.046.01-4.93 3.897l-5.097 5.06c-.58.56-1.71 1.703-2.512 2.54s-1.522 1.524-1.602 1.524-3.085 2.925-6.675 6.5l-6.606 6.5c-.043 0-.078-12.338-.078-27.417V.833h-.5c-.275 0-.5.066-.5.145m68 28.667c0 .08-.675.198-1.5.263s-1.5.178-1.5.252-.43.188-.958.254-1.034.176-1.125.247-.467.183-.834.25-.98.263-1.366.438-.853.32-1.04.32-.343.07-.343.16-.262.208-.583.268-.583.17-.583.245-.225.184-.5.244-.5.173-.5.25-.225.2-.5.25-.5.173-.5.25-.225.2-.5.25-.5.162-.5.225-.338.3-.75.525-.75.468-.75.54-.115.128-.256.128-.298.112-.35.25-.2.25-.33.25-.363.15-.52.333-.354.334-.437.334-.326.187-.54.416-.46.417-.55.417-.55.375-1.02.833-.91.834-.98.834c-.148 0-1.188 1.055-1.188 1.205 0 .058-.375.49-.833.96s-.837.945-.84 1.053-.23.38-.5.606-.493.48-.493.564-.187.33-.416.542-.417.453-.417.535-.15.322-.333.534-.334.485-.334.61-.07.224-.155.224-.208.17-.273.375-.163.413-.22.458c-.167.136-.517.717-.73 1.21-.108.252-.25.458-.314.458s-.166.225-.226.5-.18.5-.264.5-.153.094-.154.208-.106.4-.234.656a4.63 4.63 0 0 0-.346.958c-.062.28-.18.51-.266.51s-.153.12-.153.267-.106.503-.235.79c-.415.93-.95 2.835-1.05 3.734-.053.48-.155.875-.226.875s-.183.506-.247 1.125-.2 1.23-.305 1.36c-.267.333-.264 10.872.004 11.2.105.128.245.815.31 1.525s.178 1.292.25 1.292.182.442.245.98.212 1.17.333 1.403.27.728.333 1.102.175.68.25.68.182.262.243.583.17.583.247.583.186.3.244.667.175.667.258.667.2.225.262.5.17.5.245.5.187.205.25.456.165.495.226.542.286.44.5.877.45.79.528.79.2.22.25.486.214.528.346.58a.4.4 0 0 1 .24.347c0 .14.07.255.155.255s.207.162.27.36.293.525.51.728.397.438.397.523.222.34.493.564.496.505.5.623c.008.247 4.42 4.703 4.657 4.703.087 0 .383.225.658.5s.583.5.685.5.225.106.275.235.272.28.494.336.405.176.405.266.115.163.255.163a.41.41 0 0 1 .351.25c.053.138.19.25.303.25s.38.15.59.333.485.334.61.334.224.073.224.163.188.21.417.268.417.166.417.24.225.185.5.245.5.18.5.264.08.153.175.153c.19 0 1.486.543 2.158.905.23.123.735.276 1.125.34s.708.18.708.258.338.193.75.255.75.173.75.247.488.186 1.084.25 1.083.175 1.083.246.62.184 1.375.25 1.425.2 1.485.295c.153.242 9.123.246 9.278.004.062-.096.768-.23 1.57-.295s1.46-.18 1.46-.25.45-.182 1-.244 1-.177 1-.256.375-.194.833-.257.833-.168.833-.234.394-.22.875-.343.988-.285 1.125-.36c.52-.282 1.822-.814 1.99-.814.097 0 .176-.067.176-.15s.205-.2.457-.263.495-.165.54-.226c.108-.142.63-.472 1.17-.736a3.15 3.15 0 0 0 .637-.416c.12-.115.327-.2.458-.2s.238-.075.238-.167.115-.166.255-.166a.41.41 0 0 0 .351-.25c.053-.138.202-.25.33-.25s.362-.15.52-.334.354-.333.438-.333.326-.187.538-.417.46-.416.553-.416.422-.263.733-.584.634-.584.717-.586c.18-.003 2.9-2.734 2.9-2.912 0-.068.293-.408.65-.755s.698-.782.756-.965.216-.376.35-.428.243-.18.243-.288.188-.368.417-.58.417-.454.417-.536.15-.322.333-.533.333-.485.333-.61.07-.224.156-.224.208-.17.272-.375.163-.413.22-.46c.258-.21 1.686-2.993 1.686-3.286 0-.074.144-.405.32-.735s.373-.873.435-1.206.172-.606.243-.606.18-.338.242-.75.177-.75.257-.75.196-.413.26-.917.173-.916.246-.916.184-.47.25-1.042.183-1.082.26-1.13.192-1.005.255-2.125.18-2.036.257-2.036.14-1.162.14-2.583-.063-2.583-.14-2.583-.187-.907-.242-2.016-.173-2.102-.26-2.208-.21-.7-.276-1.318-.18-1.125-.255-1.125-.187-.413-.25-.917-.176-.916-.25-.916-.188-.338-.25-.75-.18-.75-.26-.75-.148-.11-.148-.247c0-.293-.86-2.466-1.026-2.588-.063-.047-.166-.29-.23-.542s-.175-.457-.25-.457-.185-.225-.245-.5-.173-.5-.25-.5-.2-.225-.25-.5-.17-.5-.245-.5-.183-.187-.24-.416-.178-.417-.268-.417-.164-.1-.164-.224-.15-.398-.333-.61-.333-.452-.333-.534-.188-.323-.417-.535-.417-.474-.417-.58-.11-.236-.243-.288-.294-.252-.356-.446-.327-.54-.6-.77-.477-.484-.477-.564c0-.206-3.55-3.78-3.755-3.78-.094-.001-.36-.216-.6-.48s-.578-.528-.772-.6-.395-.22-.446-.355-.208-.244-.35-.244-.255-.074-.255-.163-.182-.2-.405-.266-.445-.207-.494-.336a.4.4 0 0 0-.346-.235c-.14 0-.255-.07-.255-.155s-.165-.208-.367-.272-.462-.2-.578-.303c-.556-.494-.724-.598-1.124-.698-.237-.06-.43-.17-.43-.243s-.225-.185-.5-.246-.5-.173-.5-.25-.225-.19-.5-.25-.5-.175-.5-.255-.263-.195-.583-.256-.584-.172-.584-.25-.274-.192-.61-.255-.804-.215-1.042-.34-.582-.227-.765-.228-.542-.11-.796-.243-.9-.292-1.458-.354-.996-.172-.996-.245-.675-.186-1.5-.25-1.5-.183-1.5-.263-2.063-.145-4.584-.145-4.583.065-4.583.145m72.667.002c0 .08-.713.2-1.584.265s-1.583.178-1.583.25-.43.185-.958.25-1.04.186-1.142.268-.588.227-1.083.32-.925.244-.956.334-.218.166-.417.17-.66.15-1.027.327-.76.325-.875.328-.21.08-.21.172-.154.167-.342.167c-.35 0-1.545.586-1.953.958-.126.115-.336.21-.467.21s-.238.07-.238.153-.218.202-.486.26-.527.215-.578.347-.207.24-.347.24-.255.073-.255.163-.188.21-.417.268-.417.174-.417.26-.13.202-.29.26-.457.282-.66.495-.44.387-.53.387-.387.225-.662.5-.566.5-.646.5c-.166 0-4.046 3.916-4.046 4.083 0 .06-.225.334-.5.61s-.5.6-.5.72-.113.262-.25.315-.25.183-.25.3-.187.37-.417.58-.416.453-.416.535-.15.322-.334.534-.333.485-.333.61-.074.224-.163.224-.21.188-.27.417-.165.416-.24.416-.185.225-.246.5-.173.5-.25.5-.19.225-.25.5-.173.5-.25.5-.19.225-.25.5-.17.5-.246.5-.227.375-.337.834-.267.833-.35.833-.15.13-.15.292-.1.5-.244.757-.29.724-.35 1.04-.167.577-.24.577-.183.45-.247 1-.178 1-.253 1-.19.506-.256 1.125-.182 1.165-.26 1.215-.19 1.044-.253 2.208-.177 2.118-.255 2.118-.14 1.013-.14 2.25.063 2.25.14 2.25.19.952.248 2.114.174 2.157.256 2.21.202.638.27 1.302.18 1.21.25 1.21.182.412.245.916.18.917.26.917.196.337.257.75.17.75.242.75.178.262.24.583.167.584.237.584.223.375.34.833.276.833.35.833.188.226.25.502c.142.648.567 1.498.748 1.498.078 0 .19.225.25.5s.17.5.246.5.182.188.24.417.18.417.27.417.163.1.163.224.15.398.333.61.334.45.334.533.187.323.416.536.417.473.417.58.1.237.244.288.294.252.355.446.327.54.6.772.478.484.478.563c0 .207 3.548 3.78 3.754 3.78.094.001.36.216.59.48s.578.528.77.59.395.222.446.356.18.244.288.244.36.178.563.397.53.448.727.51.36.178.36.256.218.19.486.25.527.215.578.347.207.24.347.24.255.07.255.153.225.203.5.263.5.173.5.25.225.2.5.25.5.173.5.25.225.2.5.25.5.18.5.264.08.153.176.153.52.156.938.347 1.016.39 1.325.44.56.154.56.23.375.19.834.25.833.167.833.236.43.18.958.246 1 .183 1.048.262.723.195 1.5.258 1.46.19 1.52.285c.153.234 9.13.23 9.28-.004.06-.095.767-.226 1.57-.292s1.458-.18 1.458-.256.45-.187 1-.25 1-.18 1-.256.338-.19.75-.253.75-.167.75-.233.413-.214.917-.327.917-.275.917-.36.15-.154.334-.154.613-.15.955-.334.717-.333.833-.333.21-.07.21-.153.225-.203.5-.264.5-.162.5-.226.206-.212.458-.327c.845-.387 1.21-.608 1.21-.736 0-.07.1-.127.224-.127.198 0 .423-.153 1.227-.83.11-.093.282-.17.38-.17s.222-.113.275-.25.2-.25.33-.25.362-.15.52-.334.35-.333.428-.333.367-.225.642-.5.57-.5.653-.5c.21 0 3.988-3.77 3.988-3.98 0-.094.263-.426.584-.737s.583-.625.583-.697.18-.297.397-.5.45-.53.51-.728.184-.36.27-.36.155-.115.155-.255a.4.4 0 0 1 .24-.347c.132-.05.288-.31.347-.58s.17-.486.248-.486.316-.356.528-.79.437-.83.5-.877.163-.29.227-.542.175-.456.25-.456.185-.225.246-.5.178-.5.26-.5.2-.3.258-.667.17-.667.244-.667.187-.262.248-.583.17-.583.247-.583.19-.338.25-.75.173-.75.246-.75.184-.32.246-.71a11.19 11.19 0 0 1 .328-1.375c.118-.366.27-1.19.335-1.833s.207-1.22.312-1.286c.27-.167.272-11.425.003-11.595-.104-.065-.244-.68-.312-1.365s-.228-1.54-.354-1.896-.23-.81-.23-1.004-.105-.554-.233-.8a4.6 4.6 0 0 1-.347-1.125c-.063-.374-.175-.68-.248-.68s-.183-.263-.243-.583-.175-.584-.256-.584-.196-.23-.258-.51-.217-.712-.345-.958-.234-.54-.235-.656-.068-.208-.15-.208-.2-.205-.263-.457-.165-.495-.227-.54-.286-.442-.5-.877-.448-.792-.523-.792-.184-.187-.24-.416-.18-.417-.27-.417-.163-.1-.163-.244-.22-.468-.486-.742-.535-.65-.595-.84-.178-.342-.264-.342-.155-.097-.155-.216-.222-.4-.493-.625-.496-.505-.5-.622c-.01-.278-4.1-4.368-4.377-4.377-.117-.004-.397-.23-.622-.5s-.48-.493-.564-.493-.32-.18-.524-.397-.53-.45-.727-.51-.36-.184-.36-.27-.108-.155-.24-.155a.5.5 0 0 1-.375-.209c-.16-.25-.638-.567-1.26-.834-.252-.108-.458-.25-.458-.314s-.225-.166-.5-.227-.5-.173-.5-.25-.225-.19-.5-.25-.5-.173-.5-.25-.225-.19-.5-.25-.5-.18-.5-.263-.094-.154-.208-.154-.418-.11-.674-.244-.725-.292-1.042-.35-.576-.165-.576-.235-.448-.214-.995-.322-1.034-.26-1.083-.338-.538-.195-1.088-.26-1-.178-1-.253-.75-.2-1.666-.255-1.667-.184-1.667-.264-1.988-.145-4.417-.145c-2.436 0-4.416.066-4.416.147M284 42.976c0 .08.615.194 1.366.257s1.445.177 1.542.255.51.196.922.264.898.22 1.083.336a3.26 3.26 0 0 0 .879.326c.298.062.54.176.54.253s.225.19.5.25.5.173.5.25.225.19.5.25.5.18.5.263.078.153.174.153c.197 0 1.214.686 1.3.875.03.07.158.125.283.125s.288.1.36.22.39.403.702.625c1.005.715 3.848 3.728 3.848 4.078 0 .114.112.25.25.303s.25.21.25.35.06.256.132.256.34.45.59 1 .525 1 .605 1 .198.237.26.527.293.86.51 1.266.44.995.5 1.306.165.567.236.567.182.432.248.96.206 1.012.31 1.077c.27.17.27 8.76 0 8.93-.105.065-.245.55-.31 1.077s-.18.958-.252.958-.184.3-.246.666-.18.708-.264.76-.152.206-.152.343c0 .38-1.263 3.168-1.502 3.316-.077.047-.187.304-.246.57s-.214.526-.346.576-.24.173-.24.27c0 .192-.03.233-.912 1.248-.32.367-.582.72-.584.783-.006.175-2.04 2.16-2.687 2.622-.312.222-.627.503-.7.625s-.208.22-.3.22-.256.077-.366.17c-.804.678-1.03.83-1.227.83-.124 0-.225.07-.225.154s-.225.203-.5.263-.5.18-.5.263-.08.154-.177.154c-.16 0-1.682.647-2.33.99-.14.075-.59.19-1 .26s-.833.195-.942.283-.765.202-1.458.255-1.26.16-1.26.238-.938.142-2.084.142S280 87.27 280 87.19s-.614-.19-1.363-.247-1.406-.174-1.46-.258-.45-.207-.886-.272-.792-.18-.792-.253-.218-.182-.484-.24-.77-.252-1.118-.43-.732-.323-.85-.323-.215-.067-.215-.15-.187-.196-.416-.253-.417-.172-.417-.255-.225-.2-.5-.26-.5-.18-.5-.268-.13-.207-.292-.266-.457-.282-.658-.495-.427-.39-.5-.4-.985-.883-2.027-1.96c-2.322-2.4-2.356-2.437-2.356-2.678 0-.107-.074-.194-.164-.194s-.21-.182-.265-.405-.207-.445-.336-.494a.4.4 0 0 1-.235-.346c0-.14-.07-.255-.154-.255s-.203-.225-.263-.5-.18-.5-.263-.5-.154-.095-.154-.21-.15-.5-.333-.833-.334-.715-.334-.83-.11-.42-.244-.675-.293-.743-.354-1.083-.168-.693-.238-.785-.18-.58-.248-1.083-.207-.97-.3-1.035c-.262-.166-.262-7.43.001-7.597.103-.065.24-.587.307-1.16s.177-1.04.248-1.04.18-.315.24-.7.174-.78.25-.875.232-.475.348-.842.266-.742.335-.833.178-.41.242-.71.185-.54.27-.54.154-.115.154-.256.108-.296.24-.347.288-.31.347-.578.174-.486.257-.486.197-.187.255-.417.174-.416.258-.416.204-.132.265-.292c.125-.33.318-.552 2.243-2.583.76-.802 1.437-1.46 1.503-1.46s.34-.206.6-.458c.722-.677 1.232-1.042 1.455-1.042.11 0 .242-.112.295-.25a.41.41 0 0 1 .351-.25c.14 0 .255-.07.255-.153s.225-.203.5-.263.5-.17.5-.246.205-.186.457-.25.495-.172.54-.242c.113-.168 2.59-1.013 2.97-1.013.164 0 .373-.075.465-.166s.743-.215 1.45-.275 1.284-.172 1.284-.25.862-.143 1.916-.143 1.917.065 1.917.143m72.667 0c0 .078.578.19 1.284.25s1.36.184 1.45.275.3.166.464.166c.37 0 2.854.842 2.968 1.005.046.066.327.172.625.237s.542.185.542.268.188.197.417.255.416.17.416.253.115.148.256.148a.4.4 0 0 1 .345.235c.05.13.272.28.495.337s.404.175.404.265.088.163.195.163c.25 0 .342.084 2.708 2.44 2.288 2.278 2.43 2.437 2.43 2.7 0 .107.073.195.163.195s.21.182.265.404.207.445.337.495a.4.4 0 0 1 .235.345c0 .14.07.256.153.256s.203.225.263.5.173.5.25.5.2.225.25.5.173.5.25.5.192.243.255.54.21.767.33 1.042c.402.927.914 2.802.914 3.348 0 .297.085.57.187.603.23.077.223 6.982-.008 7.125-.083.05-.204.636-.27 1.3s-.18 1.207-.254 1.207-.186.34-.248.752-.172.79-.243.833-.22.456-.33.915-.262.834-.337.834-.186.225-.247.5-.173.5-.25.5-.19.225-.25.5-.173.5-.25.5-.19.225-.25.5-.177.5-.26.5-.196.182-.252.404-.207.445-.336.495-.235.17-.235.27-.187.354-.417.566-.416.445-.416.517c0 .16-3.24 3.414-3.4 3.414-.063 0-.28.175-.482.388s-.5.435-.66.495-.292.178-.292.266-.225.208-.5.268-.5.174-.5.252-.168.195-.375.26-.412.167-.458.227c-.1.146-3.113 1.303-3.75 1.446-.275.062-.577.172-.67.245s-.75.186-1.46.25-1.287.182-1.287.26-1.012.143-2.25.143-2.25-.065-2.25-.145-.6-.197-1.333-.26-1.333-.18-1.333-.257-.32-.193-.71-.258-.783-.172-.875-.24-.766-.336-1.5-.597-1.393-.572-1.466-.69-.242-.218-.375-.218-.242-.075-.242-.167-.1-.167-.224-.167c-.198 0-.424-.152-1.227-.83-.11-.093-.276-.17-.367-.17s-.225-.1-.3-.22-.39-.403-.702-.625c-.963-.685-3.848-3.77-3.848-4.115 0-.094-.112-.214-.25-.267a.41.41 0 0 1-.25-.351c0-.14-.06-.255-.132-.255s-.338-.45-.59-1-.53-1-.618-1-.16-.157-.16-.35-.11-.55-.243-.792c-.423-.77-.923-1.998-.923-2.267 0-.142-.067-.26-.148-.26s-.2-.43-.267-.958-.185-1-.266-1.05-.197-.97-.26-2.042-.175-1.95-.252-1.95-.142-.3-.142-.666.064-.667.142-.667.185-.817.238-1.816.172-1.954.266-2.125.217-.665.273-1.1.164-.79.24-.79.188-.338.25-.75.18-.75.262-.75.198-.263.258-.584.176-.583.258-.583.148-.08.148-.177c0-.25.825-1.965.997-2.072.08-.048.192-.306.25-.572s.214-.526.346-.577.24-.18.24-.286.188-.368.417-.58.416-.436.416-.5c0-.112.7-.955 1.72-2.07.293-.32.727-.71.964-.862s.66-.5.943-.792.596-.513.698-.513.228-.113.28-.25.166-.25.25-.25c.157 0 1.153-.655 1.31-.862.046-.06.3-.163.54-.226s.457-.176.457-.25.225-.185.5-.245.5-.173.5-.25.244-.19.542-.253.693-.21.878-.326.673-.268 1.084-.336.83-.2.93-.27.757-.196 1.458-.256 1.275-.17 1.275-.25.9-.143 2-.143 2 .064 2 .143" fill="#4cb3cc"/></svg>