<svg xmlns="http://www.w3.org/2000/svg" viewBox="0 0 99.749 40"><path d="M0 0l2.343.488 34.147 7.9c.627.144.777.4.775.997l-.013 21.365c.001.595-.2.807-.755.935L1.044 39.858c-1.04.24-1.043.236-1.043-.78L0 0zm3.982 33.716l5.837-1.38c1.924-.588 3.107-2.004 3.13-4.053l.003-16.04c-.015-1.674-.864-2.962-2.38-3.725-2.058-1.034-4.352-1.073-6.6-1.63v26.826zm11.155-13.44l.002 2.16.13 5.557c.135 1.592 1.267 2.49 2.87 2.554 1.453.06 2.794-.328 4.032-1.07 1.37-.823 2.066-2.06 2.074-3.65l-.001-11.133c-.008-1.456-.608-2.673-1.874-3.405-.823-.476-1.746-.858-2.673-1.063-2.955-.656-4.548.656-4.558 3.654l-.002 6.396zm19.636 1.277c-1 0-1.85.023-2.7-.008-.565-.02-.793.172-.768.76l-.003 2.576c-.006.72-.415 1.083-1.09 1.087-.76.004-.754-.59-.754-1.13l.01-9.226c.001-.51-.02-1.045.703-1.088.7-.042 1.105.336 1.133 1.115l.032 2.41c.015.225.26.6.42.62.957.058 1.92.03 2.97.03l-.002-2.707c-.012-1.172-.517-2.1-1.512-2.7-1.378-.844-2.897-1.238-4.508-1.22-1.655.018-2.6.93-2.6 2.576l-.002 11.303c.01 1.64.954 2.567 2.61 2.58 1.52.01 2.962-.37 4.29-1.12.798-.45 1.485-1.076 1.59-2.016.146-1.276.136-2.57.19-3.838zm42.118-8.412l.593 5.842 1.367 11.96c.024.202.212.528.36.55l3.102.334 2.075-18.63v18.846l3.008.31V8.27l-4.532.497c-.21.027-.53.31-.55.5l-1.17 11.23-.306 4.75-1.455-16.146-4.527.454c-.73.038-.91.27-.908.982l.01 19.536.043.9 2.892.27-.001-18.113zM99.75 33.627l-3.118-.322c-.206-.032-.483-.4-.513-.64l-.66-6.02c-.01-.107-.043-.212-.08-.383h-2.13l-.758 6.623-3.46-.354.48-4.394 1.614-14.095.668-5.77c.022-.176.188-.464.314-.48l5.083-.537 2.56 26.37zm-5.245-21.994l-.205-.005-.74 11.2h1.617l-.672-11.205zm-29.42 18.42l-3.452-.373.6-4.226 2.115-14.112c.042-.27.337-.682.558-.712l4.88-.523 2.554 20.68-3.135-.315c-.203-.03-.482-.357-.518-.58l-.518-4.03c-.058-.736-.31-1.057-1.06-.974-.38.042-.77.007-1.258.007l-.777 5.16zm2.693-7.743l-.67-8.73-.207.01-.742 8.72h1.618zm-10.092-1.276l2.582 8.533-3.493-.442c-.172-.03-.32-.468-.396-.74l-1.516-5.683c-.156-.62-.442-.838-1.148-.567v6.882l-3.6-.39v-1.565l.06-14.203c-.002-.742.23-.932.93-.964l4.384-.35c.494-.035.998-.015 1.492.037 1.644.176 2.525 1.158 2.543 2.815l-.002 2.907c-.002 2.158-.143 2.45-1.837 3.73zm-3.91-2.168c1.158.233 1.982.003 2.032-.663.096-1.293.138-2.61.005-3.894-.083-.807-.895-.737-1.546-.717-.638.02-.483.487-.485.842l-.006 4.432zm-8.166-6.42c-.656.034-.864.292-.858.97V24.64c-.003.99-.444 1.333-1.35 1.072-.6-.173-.688-.63-.687-1.172l.008-11.774-3.462.364c-.027.192-.06.325-.062.457l-.016 11.388c-.001 1.24.683 2.025 1.75 2.487 1.53.66 3.154.875 4.8.695 1.84-.202 2.535-1.045 2.542-2.932l.004-13.023-2.67.246zM9.453 27.7V12.662c-.004-1.233-.63-1.756-1.95-1.7v18.51c1.45-.123 1.946-.54 1.95-1.76zm9.263-7.438l.006 6.15c.004.505.055 1.06.747 1.085.63.023 1.05-.293 1.192-.93.03-.134.06-.272.06-.41l-.003-11.885c-.004-.832-.518-1.344-1.21-1.296-.846.058-.788.73-.793 1.3l-.006 5.984z"/></svg>