<svg xmlns="http://www.w3.org/2000/svg" viewBox="0 0 148.875 39.856"><path d="M148.875 30.394l-3.086.11c-.675-.001-1.046-.468-1.373-1.024l-4.113-6.875-.716-1.142-.278.096V30.4h-3.617V7.92l1.175-.092 5.177-.024c2.643-.163 5.762 1.614 6.605 4.756.043.16.15.306.226.458v2.853c-.895 2.458-2.442 4.285-5.15 5.075l5.15 8.67v.778zm-9.533-12.946c1.308-.083 2.48-.044 3.602-.257 1.365-.26 2.26-1.494 2.25-2.784-.01-1.32-1.02-2.62-2.408-2.804-1.124-.148-2.283-.03-3.444-.03v5.875zM91.27 7.967V20.53l-.215.04-5.8-12.747h-3.417v22.6c1.23.14 2.352.274 3.55-.122V17.735l.254-.076 5.763 12.688c1.412.316 2.526.273 3.455-.112V7.83c-1.278.034-2.38-.117-3.58.137zm-14.72 22.44h-3.627v-7.953h-5.9v7.963h-3.636l-.098-1.127.003-15.025c.017-3.225 2.388-5.965 5.485-6.427 3.474-.518 6.656 1.385 7.583 4.596.212.735.292 1.53.296 2.298l.01 14.507c0 .338-.065.677-.115 1.168zm-9.37-11.8h5.68l-.027-4.684c-.103-1.36-1.388-2.403-2.745-2.457-1.347-.053-2.736.81-2.867 2.093-.167 1.645-.04 3.32-.04 5.048zm33.25 11.735V7.823l4.197.008c1.287.035 2.605-.017 3.852.243 2.697.56 4.73 2.755 4.864 5.5.176 3.612.15 7.24.053 10.857-.094 3.446-3.276 6-6.006 6.038l-6.336.046c-.2 0-.4-.11-.624-.174zm3.654-3.576c1.003 0 1.944.04 2.88-.01 1.592-.085 2.74-1.248 2.758-2.848l.003-9.45c-.013-1.538-.944-2.685-2.445-2.88-1.043-.136-2.118-.026-3.195-.026v15.214zM.006 19.845C-.145 9.04 9.05-.148 20.246.002c9.782.13 19.65 7.973 19.654 19.947.004 10.926-8.61 19.882-19.958 19.896-11.974.014-20.193-9.89-19.936-20zM19.91 38.193c9.962.15 18.323-8.152 18.356-18.18.033-9.844-7.906-18.353-18.31-18.392C9.84 1.583 1.538 9.862 1.587 19.97c.05 10.648 8.938 18.408 18.322 18.224zm111.08-18.988l-.003 4.924c-.03 3.48-2.937 6.345-6.49 6.4-3.605.066-6.66-2.768-6.7-6.3l-.002-9.977c.036-3.332 2.723-6.106 6.122-6.395 3.26-.277 6.414 2.08 7.024 5.263.064.335.057.687.058 1.032l.002 5.053zm-3.65.04l-.01-4.656c-.037-1.446-.89-2.536-2.16-2.885-1.963-.54-3.683.846-3.726 3.114-.055 2.93-.03 5.863-.003 8.795.01.97.287 1.882 1.094 2.522.923.732 1.95.873 3.032.41 1.15-.494 1.714-1.438 1.758-2.642.054-1.552.012-3.105.013-4.657zM50.13 17.24V11.44h9.393c.148-1.243.227-2.36-.04-3.55H46.5c-.33 1.257-.29 21.494.037 22.504h3.51V20.95l3.206-.002 3.086-.06V17.24H50.13zM25.46 30.806l-6.756-4.784-6.665 4.72c-.062-.502-.135-.817-.135-1.132l-.005-13.985c0-3.025 1.318-5.352 3.922-6.82 2.69-1.516 5.5-1.49 8.08.244 2.43 1.633 4.72 3.477 7.066 5.234.615.46 1.213.944 2 1.55l-7.496 5.4v9.572zm-.3-9.523c-.722-.356-1.34-.578-1.865-.936-1.188-.8-1.68-2.23-1.083-3.396.318-.622.906-1.128 1.44-1.61 1.128-1.02 1.356-2.02.604-3.33-.252-.44-.586-.872-.98-1.182-1.778-1.4-3.79-1.645-5.85-.823-2.013.805-3.435 2.34-3.608 4.524-.203 2.566-.048 5.16-.048 7.828l4.94 3.527 6.45-4.6zm-5.783-9.178c-.788 0-1.426.64-1.426 1.426s.64 1.426 1.426 1.426 1.426-.64 1.426-1.426-.638-1.426-1.426-1.426z"/></svg>