<svg xmlns="http://www.w3.org/2000/svg" viewBox="0 0 332.236 39.856"><path d="M37.165 20.493c-2.214-.62-3.56-1.932-4.465-3.954v-3.1l1.685-2.513L31.363-.01l-6.9 2-9.533 2.47L7.164 6.5c-.752.163-1.565.308-2.253.575-.773.3-1.53.34-2.287.525C1.66 7.846.77 8.38 0 8.72l2.794 10.472C5.527 20.774 8.12 23.2 6.707 26.63c-.36.875-.777 1.32-1.307 2.112l3.004 11.114 3.573-1.148 9.54-2.455 9.224-2.522 9.237-2.426-1.638-5.308c-.582-1.885 0 0-1.175-5.504zm-20.1 7.745c.74 2.402 1.723 4.552 1.747 7.07L9.5 37.732l-1.25-4.5-1.037-3.985 1.205-3.07c.662-1.987.037-3.277-.56-4.74C7.35 20.2 6.378 19.6 4.504 18.62c-1.246-2.857-1.803-6-2.497-9.167l9.427-2.466c3.136-.618 6.046-2.24 9.544-2.22l1.8 6.933-9.54 2.526c1.28 2.208.9 4.84 2.365 6.617l9.044-2.372 2.05 7.218-9.622 2.55zM325.88 8.194c-.26.254-.755.512-.755.77-.006 3.03-1.312 5.796-1.734 8.742-.26 1.822-.827 3.6-1.305 5.602-1.458-2.816-1.6-5.725-2.52-8.42-.74-2.195-1.172-4.495-1.728-6.7h-4.5l-3.964 14.965-.37.036-3.5-14.963h-6.583c2.358 7.84 4.223 15.687 6.865 23.23h6.002c1.37-4.543 2.4-9.247 3.555-13.897l.552.052 3.305 13.78h6.247c.243-.496.638-1.008.75-1.576.674-3.4 1.8-6.653 2.784-9.953.646-2.148 1.097-4.354 1.695-6.518.47-1.704 1.032-3.383 1.577-5.152h-6.356zm-60.812 1.31c-.05 3.56.042 7.214-.37 11.002-1.738-2.017-3.386-3.984-4.855-6.134-1.5-2.2-3.314-4.216-4.857-6.147h-5.993v23.133h6.057l.008-6.765c.036-2.135-.177-4.285.143-6.37 3.6 4.35 6.484 9.138 9.984 13.2h5.33V8.182h-5.45v1.32z" fill="#FF7301"/><path d="M109.444 9.433c-.13 3.968.1 7.723-.173 11.894L99.53 8.125h-5.962c-.374 2.227-.48 17.258-.16 23.232h5.998l.008-6.764c.036-2.135-.176-4.286.166-6.535l9.837 13.274h5.455V8.18h-5.433l.006 1.252zm76 .143V21.3l-9.62-13.104h-6.312v23.167h6.058l.005-12.848c0-.077.06-.164.113-.228.05-.058.127-.1.225-.155l9.76 13.207h5.38V8.182l-5.6.001v1.393zm-46.96 1.68c-1.967-1.893-4.3-2.866-6.77-3.05-4.025-.298-8.1-.08-12.298-.08l.001 1.7-.04 17.175c-.036 3.103.186 4.456 2.016 4.46l7.72.023a15.44 15.44 0 0 0 7.304-1.779c3.553-1.852 5.43-4.998 5.74-8.895.294-3.682-.888-6.88-3.676-9.564zm-2.968 11.494c-1.144 2.44-3.3 3.42-5.825 3.696-1.278.14-2.585.024-4.068.024-.2-4.38-.018-8.766-.116-13.246h6.102c2.22 0 3.322.95 3.747 2.55.333 1.667.83 2.98.8 4.446-.026.938-.268 1.756-.63 2.53zm70.7-4.62v4.934c1.877.206 3.7-.104 5.46.193v2.377c-.628.4-1.193.598-2 .833-1.536.446-3.33.466-4.928.001-2.534-.738-3.832-2.536-4.182-4.316-.16-.817 0-1.665 0-2.497 0-.82-.127-1.654 0-2.177.454-1.873 1.85-3.078 3.337-3.724 1.255-.546 2.2-1.343 4.278-.626 1.718.595 2.805 1.32 4.028 2.454l4.487-2.152c-.263-1.462-1.164-2.457-2.2-3.305-2.02-1.652-4.48-2.282-6.987-2.517-2.303-.216-4.456.6-6.57 1.5-2.563 1.093-4.226 2.893-5.5 5.406-1.268 2.522-1.677 5.16-1 7.64.433 1.585 1 2.816 2.06 4.42.864 1.308 1.438 1.583 2.696 2.728 2.402 2.185 4.357 2.718 8.04 2.718 1.22 0 3.6-.714 3.835-.788 2.416-.732 4.594-1.835 6.074-3.958v-9.15h-10.94z" fill="#007AC5"/><path fill="#FF7301" d="M298.917 16.76c-.91-2.487-2.092-4.92-4.288-6.52-2.113-1.54-4.558-2.46-7.206-2.665-2.8-.218-5.38.536-7.83 1.85-2.545 1.365-4 3.6-5.096 6.166-.97 2.28-.216 7.418-.167 7.658.65 3.155 2.634 5.366 5.295 6.882 2.283 1.3 4.913 1.8 7.53 1.825.886.008 1.922-.28 2.8-.55 2.662-.818 5.2-1.884 6.817-4.47 1.44-2.306 2.354-4.682 2.192-7.2 0-1.145.252-2.162-.047-2.976zm-5.476 4.36c-.77 2.63-2.048 4.173-3.954 5.07-1.954.918-4.012.8-6 .07-2.08-.754-2.972-2.626-3.922-4.723-.358-2.665.127-5.13 2.22-7.062 1.34-1.237 3-1.927 4.763-1.846 1.837.084 3.667.664 4.895 2.185 1.506 1.865 2.28 2.803 1.998 6.308z"/><path d="M238.544 9.048c-1.167-.54-2.445-.55-3.46-1.02-2.212-1.027-4.204-.175-6.232.16-1.22.2-2.33 1.035-3.5 1.558-2.545 1.136-3.547 3.538-4.643 5.8-.974 2-.788 4.966-.198 7.278.814 3.2 2.74 5.262 5.38 7.185 2.227 1.622 4.573 1.802 6.983 1.968.564.04 1.693-.02 1.693-.02 3.218-.068 5.88-1.94 7.806-4.314 1.824-2.248 2.867-5 2.712-8.05-.12-4.78-1.975-8.427-6.54-10.545zm.942 13.25c-2.715 4.65-6.1 5.2-9.67 4.066-1.822-.583-3.295-2.24-3.948-4.32-.62-1.974-.207-3.86.435-6.022 4.482-5.425 10.287-3.872 13.182 1.278.68 1.667.646 3.214 0 5zM74.378 8.176c-1.732 3.695-2.935 7.63-4.43 11.444L65.413 31.4h6.75l1.324-3.205h9.717l1.952 3.177h5.682L82 8.176h-7.633zm1.093 14.84c.126-3.17 1.905-5.824 2.763-8.836 1.12 2.908 2.52 5.638 2.916 8.836h-5.68zm75.035-14.842l-8.758 23.2h6.618l1.264-3.18h9.725c0 .478 0 0 .647 3.2l6.88-.01-8.74-23.2h-7.636zm.64 14.46l1.63-4.432a39.6 39.6 0 0 0 1.393-4.175l.525.392 2.7 8.62-6.258-.404zM56.103 18.06v-5.03h11.562V8.233H49.44v23.12h6.665V23.16h6.824c1.753-1.457 1.516-3.222 1.376-5.1h-8.2zm227.364 7.042l9.276-5.278c-3.133-2.27-6.286-3.7-9.276-5.595v10.873z" fill="#007AC5"/></svg>