<svg viewBox="0 0 832.94574 375.0249" xmlns="http://www.w3.org/2000/svg"><g transform="translate(92.356 -42.368)"><path d="m622.82 417.22c-1.9095-0.21553-40.579-8.236-246.78-51.186-24.732-5.1514-45.014-9.3196-45.071-9.2626-0.057 0.057-1.5668 6.809-3.3552 15.005s-3.568 15.733-3.9546 16.75c-2.85 7.4954-9.8626 13.126-17.979 14.435-4.6996 0.75813-1.9808 1.2888-73.85-14.413-36.38-7.9484-66.741-14.644-67.469-14.879-9.8013-3.1665-16.598-13.127-15.932-23.347 0.0936-1.4354 1.2787-7.4347 3.2143-16.272 1.6863-7.6989 3.035-14.026 2.9971-14.06-0.0379-0.0342-47.233-9.8978-104.88-21.919-70.743-14.753-105.32-21.857-106.38-21.857-0.86457 0-3.4683 0.18961-5.7861 0.42137-2.6736 0.26733-5.7133 0.38233-8.3152 0.31459-3.6058-0.0939-4.3511-0.19329-6.1722-0.82328-8.7248-3.0184-13.145-12.073-14.866-30.456-0.58116-6.2073-0.77496-17.079-0.42241-23.696 1.256-23.573 6.2125-34.35 17.186-37.369 1.7294-0.4757 2.7592-0.55706 7.0522-0.55717 2.7649-7e-5 6.7535 0.13374 8.8635 0.29735l3.8365 0.29746 338.53-70.62c186.19-38.841 339.67-70.813 341.05-71.048 3.4452-0.5865 11.809-0.80286 15.758-0.40767 28.251 2.8268 54.038 24.902 73.026 62.513 15.317 30.34 24.506 66.91 27.144 108.03 0.42447 6.6144 0.42738 27.66 5e-3 34.396-2.6233 41.808-12.101 78.424-28.115 108.62-7.6164 14.363-15.712 25.547-25.758 35.586-14.38 14.369-29.659 22.539-47.03 25.145-3.2612 0.48937-13.436 0.71012-16.547 0.35901zm-319.28-35.713c0.35213-0.3891 1.3578-4.5205 3.5908-14.751 1.7059-7.8155 3.0606-14.251 3.0104-14.301-0.21508-0.21522-134.6-28.117-134.74-27.976-0.24447 0.24447-5.8659 26.115-5.8768 27.046-0.0227 1.942-5.1578 0.67894 66.02 16.239 35.789 7.8237 65.619 14.238 66.287 14.254 0.91332 0.022 1.3374-0.10504 1.7049-0.51104zm304.66-77.875v-43.226l2.8939-14.123c5.0979-24.878 11.545-58.313 18.515-96.011 6.2723-33.928 7.6421-41.407 7.5941-41.46-0.0485-0.0536-17.733 2.5911-17.788 2.6603-0.0169 0.0209-1.0103 5.8126-2.2076 12.87-7.1943 42.407-16.461 95.515-16.666 95.513-0.0802-7.9e-4 -1.9727-10.091-4.2056-22.423-3.5782-19.762-11.378-62.067-13.877-75.27-0.48882-2.582-0.9507-4.7565-1.0264-4.8322-0.12107-0.12107-17.68 2.4261-17.843 2.5883-0.0349 0.0349 0.35156 2.027 0.85882 4.427 4.2118 19.927 10.498 50.509 16.369 79.637 1.804 8.9495 5.0718 25.127 7.2618 35.95l3.9818 19.679v84.832l1.2568 0.18775c0.69122 0.10326 4.1143 0.63388 7.6068 1.1792s6.5584 1.0039 6.813 1.0191c0.43921 0.0262 0.46302-2.1966 0.46302-43.198zm-86.386 33.167c7.4223-2.3432 13.502-8.5532 19.832-20.257 9.869-18.247 14.341-36.387 16.3-66.125 0.44839-6.8061 0.62299-30.652 0.27411-37.439-0.93924-18.27-3.2105-32.649-7.3108-46.285-3.9179-13.029-10.917-27.036-17.018-34.058-3.4288-3.9457-7.8084-6.9528-12.077-8.2917-2.358-0.73971-6.9988-0.99744-9.806-0.54458-5.5389 0.89352-10.174 3.454-15.096 8.3394-5.7074 5.6645-10.273 12.878-15.663 24.748-4.8294 10.635-7.8673 20.174-10.226 32.109-4.553 23.037-5.0177 53.364-1.1762 76.767 2.8971 17.65 7.6936 32.064 15.462 46.466 8.0632 14.949 16.543 22.765 27.113 24.991 2.4922 0.52486 7.0426 0.32089 9.3927-0.42103zm-11.517-37.004c-2.8112-0.89977-4.781-2.1688-7.4366-4.7912-3.7326-3.6858-6.8171-8.6548-10.767-17.345-6.1469-13.524-8.822-29.728-8.4283-51.054 0.19489-10.558 0.71818-16.411 2.188-24.474 1.5297-8.3908 3.6835-14.766 7.6869-22.754 3.2046-6.394 5.2663-9.5967 8.1159-12.607 3.8218-4.0374 7.4006-5.882 11.862-6.1138 3.0368-0.15781 5.1733 0.37904 7.8562 1.974 6.4807 3.8529 13.666 16.788 17.105 30.794 4.964 20.216 4.9642 52.76 0 72.975-1.7292 7.0424-3.587 12.044-6.8897 18.547-4.2452 8.3596-8.8059 13.34-13.575 14.823-2.1612 0.67217-5.6636 0.68416-7.7187 0.0265zm-55.555-69.75c0-51.587-0.0406-93.795-0.0902-93.795s-3.5548 0.53578-7.7892 1.1906c-4.2344 0.65484-7.8253 1.1906-7.9796 1.1906-0.19637 0-0.28059 10.992-0.28059 36.629v36.629l-1.1245 0.13557c-0.61846 0.0746-6.2442 0.26276-12.502 0.41821-6.2574 0.15545-12.836 0.35599-14.618 0.44564l-3.2412 0.163v-34.829c0-19.156-0.0406-34.829-0.0902-34.829s-3.5548 0.53578-7.7892 1.1906c-4.2344 0.65484-7.8253 1.1906-7.9796 1.1906-0.19714 0-0.28059 25.059-0.28059 84.265v84.265l0.59531 0.13769c0.94835 0.21931 14.556 2.2536 15.075 2.2536 0.44699 0 0.46924-1.7208 0.46924-36.282v-36.282l4.6964 0.16272c2.583 0.0895 7.9706 0.22529 11.972 0.30175 4.0018 0.0765 8.9727 0.20942 11.046 0.29544l3.7703 0.15642v38.205c0 21.013 0.0893 38.212 0.19844 38.22 0.10914 9e-3 3.4131 0.53036 7.3422 1.1594 3.9291 0.62899 7.4712 1.1577 7.8714 1.1749l0.7276 0.0313zm-72.6 82.484c-0.0771-0.25466-1.1624-5.166-2.4119-10.914-6.38-29.352-15.221-68.388-22.323-98.557-3.4595-14.697-11.801-49.333-12.047-50.022-0.0991-0.2775-12.365 1.4198-12.701 1.7576-0.0844 0.0847-1.3492 5.2044-2.8108 11.377-9.5612 40.379-19.968 82.022-29.668 118.71-2.2028 8.3327-3.9569 15.197-3.8979 15.253 0.22392 0.2141 17.578 2.7282 17.744 2.5706 0.16352-0.15571 3.2962-11.84 7.7261-28.816 1.0741-4.1162 2.0237-7.5549 2.1103-7.6415 0.2114-0.21138 30.682 1.9943 30.888 2.2359 0.0888 0.10433 0.54748 1.9161 1.0193 4.0262 5.0684 22.667 8.4751 37.649 8.5865 37.76 0.14292 0.14293 16.256 2.6517 17.313 2.6957 0.46625 0.0193 0.57954-0.0854 0.47294-0.43752zm-48.38-73.024c-2.1464-0.0445-3.9069-0.16698-3.9121-0.27223-0.0156-0.31539 9.0975-45.563 9.1632-45.497 0.0978 0.0994 9.1025 45.221 9.1025 45.611 0 0.36128-2.9555 0.39373-14.354 0.15757zm-82.219-9.3271c0-54.441-0.0522-63.235-0.37561-63.235-0.91593 0-21.469 3.2211-21.61 3.3868-0.0869 0.10178-1.3167 4.769-2.733 10.372-6.9313 27.418-20.7 79.288-20.974 79.014-0.0293-0.0293-1.3785-4.9309-2.9982-10.892-6.187-22.772-15.288-54.772-19.733-69.379l-0.66432-2.1834-0.97599 0.15087c-0.53682 0.083-5.5004 0.8311-11.03 1.6625l-10.054 1.5116-0.0668 49.667c-0.0368 27.317-0.0368 49.667 0 49.668s3.6345 0.536 7.9951 1.1906c4.3605 0.65463 8.0213 1.1902 8.1351 1.1902 0.11374 0 0.23696-17.353 0.27384-38.563l0.067-38.563 4.5616 16.007c6.2534 21.944 11.739 41.885 16.486 59.928 0.61257 2.3283 1.1893 4.3184 1.2816 4.4223 0.0923 0.10395 3.2022 0.64993 6.911 1.2133 6.0311 0.91616 6.7641 0.98002 6.942 0.60476 0.57192-1.2065 9.4733-35.445 16.618-63.92l5.7756-23.019 0.0148 45.383 0.0148 45.383 7.0776 1.0836c3.8927 0.59595 7.5241 1.0988 8.0698 1.1174l0.99219 0.0338v-63.235zm-100.81 39.711v-8.708l-0.99219-0.15282c-0.5457-0.0841-6.1119-0.63185-12.369-1.2173-6.2574-0.58548-11.764-1.1279-12.237-1.2053l-0.85989-0.14083v-72.514l-0.72761 0.15064c-0.97785 0.20244-14.526 2.2727-14.874 2.2727-0.18765 0-0.27389 13.19-0.27389 41.886v41.886l11.179 1.6796c8.3078 1.2482 28.243 4.2998 30.956 4.7386 0.10914 0.0176 0.19844-3.8865 0.19844-8.6759zm-59.267-39.578c0-21.61-0.04059-39.291-0.0902-39.291s-3.5548 0.53578-7.7892 1.1906c-4.2344 0.65484-7.7657 1.1906-7.8473 1.1906-0.08157 0-0.1483 16.602-0.1483 36.893v36.893l1.1245 0.16955c0.61846 0.0933 4.0415 0.62431 7.6068 1.1801 3.5653 0.55582 6.6311 1.0226 6.813 1.0373 0.26322 0.0213 0.33073-7.9936 0.33073-39.264zm-57.15 18.256v-12.568l1.3891-7.9e-4c1.1766-5.3e-4 16.854 0.39117 23.945 0.59839l2.1829 0.0639-3.9e-5 -6.2839-3.7e-5 -6.2838-1.7859 0.0149c-0.98226 8e-3 -7.0842 0.16961-13.56 0.35874-6.4757 0.18914-11.863 0.29449-11.972 0.23411-0.10914-0.0604-0.19844-3.2021-0.19844-6.9816 0-5.2629 0.07744-6.8974 0.33073-6.981 0.1819-0.06 6.1053-0.65091 13.163-1.3131 7.0578-0.66217 13.338-1.2715 13.957-1.354l1.1245-0.15004v-6.3516c0-5.9209-0.0314-6.343-0.46302-6.2253-0.25466 0.0695-10.256 1.5922-22.225 3.3839l-21.762 3.2576v56.735l1.2568 0.18398c0.69122 0.1012 4.1143 0.63237 7.6068 1.1804s6.4988 1.0083 6.6807 1.0228c0.26031 0.0208 0.33073-2.6494 0.33073-12.541z" fill="#9b0000" stroke-width=".26458"/></g></svg>
