<svg xmlns="http://www.w3.org/2000/svg" viewBox="0 0 16000 4370" preserveAspectRatio="xMidYMid meet"><path d="M1027 3343c-4-3-7-521-7-1150l15-1149c9-4 205 8 438 25l592 42c94 6 173 13 178 16 4 2 7 105 7 227 0 167-3 226-12 233-8 5-82 6-178 2l-590-22v147c0 145 0 146 23 146 177 2 553 22 560 29 6 6 7 90 1 233l-9 223-287 3-288 2v480c0 335-3 481-11 486-11 6-319 33-390 34-20 0-39-3-42-7zm12913-54c-286-32-473-117-663-298-104-100-168-185-227-306-126-258-142-598-40-878 139-380 453-636 863-702 332-54 645 27 856 221 36 34 80 82 98 106l32 45-110 128-154 178-43 49-60-60c-97-97-204-162-325-197-72-21-222-21-300 0-217 57-390 239-441 462-82 366 147 725 506 789 198 36 375-18 469-143 74-98 92-89-187-96-135-4-249-9-254-12-12-8-13-432-2-439 5-3 236-6 513-6l504-1-2 133c-4 366-130 676-341 844-114 90-298 161-477 183-99 12-107 12-215 0zm-11379-52c-17-17-16-2071 2-2085 13-11 416 10 436 23 8 4 11 246 11 803v797l252-8c139-4 259-5 266-2 9 3 12 54 12 208 0 152-3 207-12 214-7 6-85 13-173 17-147 6-557 29-716 40-42 3-71 0-78-7zm9809-47l-166-9-51-1-114-177-363-558-251-379-10 1079-180-4c-99-2-200-6-225-10l-45-6-3-925 7-933c5-5 98-13 208-17 179-8 200-7 214 8 24 25 181 254 473 691l256 385 2-560 3-559 75-6c42-3 141-8 220-10l145-4v2000l-40 1c-22 1-92-2-155-6zm-8412-26c-5-4-8-441-8-971 0-850 2-964 15-969 8-4 109-2 223 2l207 9 3 954-5 962c-11 10-426 23-435 13zm836-35c-7-11 164-268 473-712 95-137 170-253 167-259-4-6-73-105-153-222-266-383-460-673-455-679 8-8 465 4 489 13 11 4 101 125 200 268s183 259 186 256c3-2 72-97 154-211l182-250 34-43h244c158 0 246 4 250 10s-28 59-71 118l-534 750c0 7 376 534 557 782 59 81 88 128 82 135-6 6-111 11-252 13l-242 4-200-281c-110-154-203-279-208-278-4 1-94 128-200 282-114 164-204 285-218 291-34 16-475 28-485 13zm5158-31c-9-9-12-216-12-905 0-855 1-893 18-902 26-14 422-16 431-3 3 5 4 417 1 914l-5 903-210 3c-155 2-214-1-223-10zm-924-8c-290-3-461-9-468-16s-9-301-8-890l3-879h440l3 697 2 698 263 2 262 3 3 184c2 182-2 214-32 209-6-1-217-4-468-8zm-2013-11c-3-8-4-410-3-894l3-880h593c429 0 596 3 603 11 5 7 8 91 7 195l-3 184-377 3-378 2v230l288 2 287 3v380l-287 3-288 2v375c0 205-4 376-8 379-5 3-104 8-220 12-177 6-212 5-217-7z" fill="#040706"/><path d="M0 2185V-2l73 5c39 4 151 11 247 16l355 26c1244 107 3344 218 4805 255l510 15c228 12 3077 17 3645 6 1927-37 3973-135 5630-272l420-30 243-16 72-5v4374l-72-5c-40-4-149-11-243-16-93-5-253-17-355-25-1671-139-3747-240-5695-277-574-11-3392-6-3650 6l-510 15c-1484 39-3380 139-4740 251l-420 30-242 16-73 5V2185zm1239 1134c80-5 161-12 178-15l33-5 2-482 3-482 286-3 287-2 7-211c4-115 5-212 2-215s-132-10-287-15c-156-5-287-12-291-15-5-3-9-75-9-160 0-134 2-155 16-161 17-6 701 15 742 23l22 4v-220c0-154-3-220-11-220-31 0-523-34-808-55l-347-25h-24v2270h26c14 0 92-5 173-11zm12916-50c106-13 229-47 321-89 295-133 458-442 481-909 6-125 5-134-11-128-10 4-233 7-497 7h-479v407l113 6c61 4 174 7 249 7 83 0 139 4 143 10 16 26-85 155-158 203-147 97-367 100-552 8-227-113-375-348-375-598 0-199 73-363 222-497 116-105 248-156 405-157 173-1 321 64 473 209l62 60 33-37c18-20 82-94 143-165l111-129-32-45c-99-138-304-260-510-303-113-23-295-25-424-4-356 58-637 256-788 555-125 248-155 541-84 825 25 100 102 259 168 346 112 147 301 292 454 347 93 34 200 58 317 71 108 12 116 12 215 0zm-11205-64l408-21 162-7v-400l-137 7c-194 9-369 10-382 2-8-5-11-238-11-801v-793l-37-6c-21-3-96-8-168-11-71-3-149-8-172-12l-43-5v2071l68-5 312-19zm9600-1011v-986l-87 6-205 12-118 6v558c0 563-3 608-34 556-28-46-454-684-583-873l-145-211-136 4-199 10-63 6v1826l63 6c34 3 128 7 210 9l147 4v-543c0-347 4-545 10-549 9-6 408 588 641 954 57 90 108 165 114 167 8 3 215 16 353 23l32 1v-986zm-8322 949l152-6V1250h-53c-30 0-122-3-205-7l-152-6v1913h53c30 0 122-3 205-7zm1028-39c28-4 52-35 234-299 166-240 206-293 217-282 7 7 100 134 206 282l194 270 192 3c105 1 211-1 236-5l45-8-206-285-321-448-115-163 18-27c20-32 380-535 506-707l87-120-236-3c-181-2-240 1-249 10-6 7-89 121-183 253-95 132-177 240-183 240-9 0-324-442-368-515-7-12-50-16-242-22l-235-4c-4 4 419 625 579 852l29 41-132 189-513 752c-6 10 33 11 201 7 114-3 222-8 239-11zm5116-910l1-897c-1-1-93 0-205 3l-203 5-5 1785h410l2-896zm-862 706v-180l-262-2-263-3-3-697-2-698h-410v1740l23 1c12 1 218 5 457 8l448 9c9 2 12-40 12-178zm-2192 163l122-6 2-376 3-376 288-3 287-2v-350l-287-2-288-3v-260l378-3 377-2v-355l-585-4-585-3v1752h83c46 0 139-3 205-7z" fill="#fbb117"/></svg>