<svg xmlns="http://www.w3.org/2000/svg" viewBox="0 0 58.48 40"><path d="M26.314 30.407c.343-.427.652-.888 1.04-1.27.28-.28.64-.517 1.007-.665.86-.344 1.33.094 1.307 1.025-.005.197-.035.394.017.615l.69-.898c.416-.525.917-.922 1.6-1.044.484-.087.884.112.942.597.056.47.022.968-.06 1.438l-.506 2.28c-.056.272-.058.56-.043.84.006.117.1.303.187.324.12.03.29-.04.4-.12.096-.068.145-.206.2-.315.42-.712.7-1.47.8-2.296.1-.747.37-1.434.84-2.03.24-.302.54-.514.938-.527.457-.015.674.245.55.68-.347 1.22-.57 2.463-.692 3.724-.01.114-.04.235-.017.342.03.125.096.325.17.336a.47.47 0 0 0 .383-.152c.322-.448.582-.934.656-1.494.13-.97.45-1.86 1.092-2.616.625-.736 1.418-1.2 2.36-1.402.16-.034.33-.034.496-.025 1.02.057 1.533.872 1.125 1.806-.348.798-.96 1.378-1.647 1.88-.35.256-.728.474-1.1.713-.355.234-.386.413-.14.758.27.378.782.494 1.32.267.616-.26 1.084-.72 1.494-1.232.707-.88 1.052-1.92 1.25-3.014.047-.262-.05-.478-.27-.633-.342-.24-.413-.573-.306-.95.144-.505.438-.894.946-1.082.316-.117.527.015.57.35.02.15.01.306.01.46.003.388.053.464.447.426l1.82-.252c.845-.143 1.004-.005.765.812l-.786 2.363c-.165.548-.265 1.116-.392 1.675-.014.062-.013.127-.015.19-.005.197-.006.44.224.467.157.02.393-.073.5-.196.323-.413.58-.867.684-1.397.094-.475.173-.964.356-1.407.608-1.475 1.69-2.412 3.3-2.664.276-.044.59.013.86.104.544.183.79.72.67 1.345-.095.495-.368.893-.693 1.26-.573.648-1.254 1.16-2 1.594-.204.12-.477.208-.418.523s.27.52.56.63c.316.118.63.066.93-.07.524-.235.953-.593 1.31-1.036a6.83 6.83 0 0 0 1.215-2.245c.054-.17.17-.345.304-.462s.267-.053.263.153c-.001.063-.012.128-.028.19-.413 1.622-1.238 2.965-2.68 3.87-.678.425-1.428.625-2.233.515a1.87 1.87 0 0 1-1.472-1.042c-.04-.077-.1-.15-.16-.264l-.57.74c-.322.374-.7.67-1.2.777-.522.1-.937-.086-1.174-.56-.31-.622-.244-1.272-.105-1.913l.58-2.38.053-.254-1.1.138c-.082.016-.154.19-.19.306l-.424 1.472c-.416 1.22-1.143 2.218-2.2 2.976-.572.414-1.212.676-1.915.713-.798.042-1.48-.228-1.956-.91l-.244-.37-.278.373c-.25.287-.466.624-.767.84-.754.54-1.522.265-1.824-.606l-.185-.627-.263.388c-.277.332-.524.702-.85.977-.75.632-1.568.4-1.932-.51-.194-.486-.246-.993-.154-1.506l.415-2.144c.017-.088.055-.176.05-.262-.004-.106-.04-.21-.064-.316-.112.04-.25.05-.33.123a1.94 1.94 0 0 0-.366.441c-.65 1.076-1.208 2.194-1.462 3.438-.048.237-.054.482-.09.722-.06.407-.44.678-.92.663-.407-.013-.703-.27-.72-.697-.017-.42-.022-.85.052-1.258l.57-2.66c.04-.192.165-.44-.078-.55-.232-.103-.363.128-.473.297-.846 1.305-1.563 2.668-1.853 4.218-.055.295-.156.57-.436.734-.58.34-1.158.093-1.27-.57-.05-.308-.01-.632-.01-1.042l-.33.366c-.645.716-1.39 1.3-2.337 1.534-.742.19-1.486.187-2.122-.307-.284-.22-.492-.537-.762-.84l-.174.222c-.29.41-.615.783-1.058 1.038-.832.478-1.626.148-1.792-.792-.074-.42-.076-.874-.001-1.292l.577-2.5c.076-.312.042-.363-.285-.318-.076.01-.154.047-.226.036-.497-.076-.708.175-.8.63-.068.336-.195.66-.303.99-.04.12-.077.256-.16.344-.075.08-.21.108-.316.16-.022-.112-.083-.232-.06-.334l.4-1.52c.082-.28-.02-.43-.264-.547-.152-.072-.244-.053-.363.072-1.334 1.406-2.988 2.198-4.882 2.523l-.45.092c-.29.06-.493.228-.56.516l-.71 3.174c-.03.137-.032.28-.055.418-.055.34-.29.536-.666.56-.396.026-.588-.118-.7-.5-.17-.572-.083-1.148.01-1.7l.746-4.185.578-4.17c.036-.285.13-.458.408-.51.287-.054.574-.13.864-.14.386-.013.655.177.722.554.07.384.125.8.052 1.173l-.82 3.66-.13.544c.125.012.213.04.292.025 1.496-.3 2.823-.906 3.765-2.163.635-.848 1.037-1.787 1.005-2.874-.03-1.026-.51-1.758-1.465-2.132-1.452-.567-4.12-.22-5.376 1.1-.64.678-.943 1.473-.847 2.4.075.732-.118.936-.864.923a.98.98 0 0 1-.971-1.31c.243-.866.81-1.508 1.5-2.032a10.09 10.09 0 0 1 4.727-1.963c.9-.13 1.807-.245 2.707-.063.493.1.998.252 1.434.494.957.532 1.36 1.483 1.18 2.57-.067.4-.19.79.075 1.18.077.115.03.323.018.487-.026.355.007.425.366.397l1.785-.21.606-.08c.23-.01.365.114.344.355-.016.177-.036.358-.1.526l-.803 2.438c-.166.56-.267 1.14-.384 1.716-.042.206-.033.43.202.524s.424-.03.556-.227c.33-.49.583-1.005.68-1.607.268-1.665 1.122-2.913 2.703-3.598.503-.218 1.027-.308 1.57-.167.72.186 1.077.83.84 1.538-.262.783-.817 1.353-1.44 1.85-.417.334-.877.616-1.327.906-.408.262-.45.495-.125.864s.877.426 1.407.123c.724-.414 1.312-.973 1.736-1.694.47-.798.685-1.674.753-2.59l.076-1.107c.017-.126.13-.302.238-.34.298-.104.615-.183.93-.206.435-.032.72.176.805.606.07.358.055.733.07 1.1.004.108-.02.217-.033.326a.63.63 0 0 0 .062.002zm12.45 1.363l.28-.237c.707-.72 1.052-1.6 1.198-2.586.033-.223.145-.55-.135-.646-.27-.092-.4.22-.522.416-.572.917-.83 1.93-.82 3.053zm10.37-.755l.128.032.17-.146c.84-.798 1.166-1.83 1.3-2.935.013-.1-.064-.254-.148-.312-.062-.043-.22.003-.307.056s-.176.156-.22.256l-.703 1.685c-.137.434-.158.907-.23 1.364zm-29.17 1.868l.1.032c.06-.044.128-.08.178-.134.682-.723 1.12-1.574 1.306-2.55a1.32 1.32 0 0 0 .003-.456c-.017-.1-.082-.222-.163-.27-.048-.03-.195.04-.254.106-.152.17-.302.347-.412.545-.37.665-.58 1.385-.683 2.136l-.065.592zm26.983-8.44l-.265.33-.19.283-.243.317-.142.215-.27.336-.183.28c-.14.106-.3.206-.036.403l-.216.067c-.623.157-.623.156-.86-.44-.23-.575-.748-.82-1.338-.615-.656.23-1.088.694-1.35 1.328l-.14.38-.884-.277.277-.373 4.78-6.284c.623-.82.625-.988.042-1.824l-4.967-7.142c-.076-.11-.142-.313-.09-.4.058-.097.255-.15.392-.154l2.108-.01c.506-.005.826.275 1.09.667l3.173 4.7.338.464c.274.32.497.324.75-.01l.95-1.346 2.494-3.633c.408-.61.92-.915 1.672-.843.456.044.92-.015 1.378.013.168.01.394.095.472.22.062.1-.02.344-.11.473l-4.873 6.834c-.506.706-.512.994-.001 1.682l4.55 6.122.468.606c.066.105.122.292.072.377-.062.104-.235.188-.367.198l-1.68.075c-.416.013-.755-.1-1.11-.38-1.217-.99-1.85-2.427-2.84-3.586-.364-.427-.673-.9-1.02-1.343-.344-.438-.615-.447-.948-.004l-2.92 3.94c-.1.148-.175.286.03.44l.19-.22 2.782-3.758c.328-.443.448-.448.767-.02l2.435 3.3.36.526c-.245.107-.374.03-.5-.15l-1.115-1.558c-.08-.112-.14-.225-.33-.176-.083.022-.206-.08-.3-.14l-1.5-.974-.187.228c.04.043.06.077.088.095l1.424.902c.043.027.107.052.12.09.034.107.045.22.065.332-.103-.001-.23.036-.305-.01l-1.415-.916c-.228-.16-.34-.1-.42.136l-.147.223zm2.37-.5c-.35-.495-.628-.946-1.17-1.17l-.17.257 1.34.913zM.67 24.155l.004 2.722c.003.374.1.48.477.5.28.014.566-.02.843.015.536.068.908-.084 1.188-.586.167-.3.292-.568.287-.918l-.005-3.144.02-1.226c.02-.378.196-.547.578-.576.165-.013.332-.01.498-.01l5.022-.004c.153 0 .306-.013.457-.033.27-.036.412-.203.417-.467l-.002-1.533c-.01-.317-.16-.462-.473-.504-.164-.022-.33-.018-.497-.02-1.75-.002-3.502.002-5.252-.004-.612-.002-.754-.14-.758-.74l.001-3.335c.005-.578.174-.74.758-.772l.383-.003 5.674-.004.536-.022c.318-.045.522-.238.535-.558l-.005-1.532c-.017-.333-.173-.464-.513-.514a2.32 2.32 0 0 0-.344-.018c-3.042-.001-6.083-.002-9.125 0-.623 0-.703.083-.703.7L.67 24.155zm16.14 2.25c0 .203.027.407.038.6.017.31.2.454.5.488.114.013.23.018.344.018H26.88a3.04 3.04 0 0 0 .381-.029c.292-.037.49-.21.498-.495l-.014-1.833c-.015-.3-.22-.48-.53-.512l-.723-.058-5.634-.003c-.887 0-.89 0-.89-.9l-.003-11.804c0-.19.003-.385-.03-.572-.063-.364-.227-.523-.6-.532l-2.027-.002c-.268.002-.433.138-.46.412l-.047.648V26.405zm17.75.592c-.233-.84-.044-1.578.588-2.167a.88.88 0 0 0 .311-.725L35.45 11.88l-.006-.345c-.04-.474-.233-.66-.7-.666-.485-.006-.97-.005-1.456 0-.62.006-.703.09-.703.713v15.06l.01.344c.02.2.134.356.334.363l1.747.006-.11-.36zM12.6 38.008c.402.484.957.7 1.546.76l2.82.227 4.474-.196 4.044-.33 5.325-.585 6.175-.552c1.733-.135 3.47-.147 5.203.017.674.064 1.342.186 1.955.504.357.186.636.435.654.872.01.238.154.33.353.29.322-.065.66-.12.947-.27.98-.507 1.033-1.72.088-2.285a3.93 3.93 0 0 0-1.317-.488c-.764-.134-1.544-.23-2.318-.235a38.96 38.96 0 0 0-3.364.142 82.01 82.01 0 0 0-3.956.433l-4.357.63-5.82.634-5.303.418-4.214.001c-.693-.026-1.392-.176-2.064-.36-.568-.156-.655-.368-.624-.96-.56.334-.643.853-.245 1.33zm43.076-12.33l-.626-.862-.302-.377-.55-.72.045-.033.908.488.092-.114c-.117-.135-.215-.296-.356-.397-.195-.14-.415-.253-.638-.346-.426-.178-.77-.435-.963-.867l-.3-.388-.495-.65.047-.05.617.294.074-.083c-.062-.094-.105-.217-.19-.278-.26-.183-.52-.388-.81-.5-.46-.178-.596-.602-.855-.94.305.15.582.33.856.512.146.097.318.278.46.078.16-.223-.11-.298-.24-.388L51 19.08l.23-.284.147-.158.3-.463.162-.235.162-.246 1.403.894a1.52 1.52 0 0 0 .379.171c.056.016.165-.022.2-.07s-.01-.157-.056-.193l-.652-.463-1.04-.688.31-.34.086-.153.3-.387.15-.22.243-.317.144-.226.274-.433.16-.156.16-.33 1.442.93c.154.094.357.342.514.085.146-.24-.147-.336-.303-.442l-1.388-.912.2-.26.174-.246.207-.322.16.095 1.44.948c.11.07.276.184.352-.008.033-.082-.06-.263-.146-.334-.228-.183-.487-.328-.73-.49l-.837-.563.24-.256.145-.208.285-.447.108-.103.224-.38 1.464.99c.14.1.337.27.47.077.147-.216-.1-.334-.25-.435l-1.48-.97.065-.433c.053.09.084.204.158.254l1.634 1.068c.06.038.18-.015.272-.026-.03-.088-.045-.184-.1-.263-.03-.05-.1-.078-.152-.113l-1.636-1.068c-.146-.097-.3-.196-.412-.326-.225-.26-.49-.4-.836-.386-.664.008-1.33-.025-1.993.013-.307.018-.65.096-.898.264a3.38 3.38 0 0 0-.822.839l-2.922 4.224c-.065.094-.13.202-.223.256-.066.04-.218.036-.264-.012-.228-.243-.433-.507-.646-.764l.055-.056.536.182.05-.108c-.218-.144-.42-.326-.66-.423-.325-.132-.522-.35-.644-.66l-.215-.29-.4-.633-.128-.26-.5-.57.043-.023.746.404.047-.078c-.15-.26-.415-.397-.677-.49-.386-.14-.567-.44-.787-.818l.872.44c-.022-.105-.064-.172-.125-.212L44.16 10.4c-.198-.115-.462-.152-.698-.158-.766-.02-1.533 0-2.3-.01-.394-.005-.704.13-.892.48s-.1.687.112 1.006l4.842 6.95c.628.905.652.665-.04 1.578l-4.708 6.194c-.128.17-.21.373-.312.56l.113.09c.1-.06.204-.102.267-.183l1.363-1.804 3.875-5.094c.344-.454.34-.6.037-1.066l-.13-.2-5-7.166c-.158-.226-.242-.46-.122-.715.127-.27.383-.303.652-.3l1.877-.004c.785-.062 1.297.262 1.716.903l3.146 4.673c.313.462.45.458.777-.006l.6-.85 2.65-3.852c.316-.46.7-.834 1.29-.854l2.184.001c.465.014.717.437.548.874a1.37 1.37 0 0 1-.169.298l-2.8 3.935-2.168 3.02c-.304.425-.303.617-.008 1.038l.158.217 3.616 4.858 1.358 1.807c.175.234.213.492.082.756-.123.248-.36.315-.612.322l-1.753.03c-.25.003-.522.053-.664-.328-.038.666-.015.686.545.592.6-.1.974.22.952.827-.004.114-.025.228-.046.34-.134.725-.41 1.398-.775 2.032-.73 1.264-1.7 2.28-3.12 2.75-1.162.384-2.292.372-3.272-.51-.026-.023-.068-.03-.115-.047-.828.816-1.735 1.356-3.006.7.368.392.646.51 1.113.538.665.04 1.214-.226 1.722-.623.373-.292.375-.264.772-.042a3.2 3.2 0 0 0 .879.355c1.31.28 2.472-.098 3.53-.868.923-.672 1.557-1.574 2.026-2.597.32-.695.6-1.404.58-2.248l.53.253c.08.03.18-.005.273-.01-.04-.085-.064-.184-.124-.25-.067-.073-.17-.112-.253-.17l-.514-.356.058-.115c.14.053.29.09.42.163l1.26.726c.088.047.228-.003.344-.008-.06-.094-.098-.217-.18-.278l-.84-.56.325-.18.26-.254.118-.414c.452.24.806.572 1.3.67-.01-.122-.028-.238-.096-.287l-1.1-.744c-.057-.038-.138-.056-.176-.107l-.45-.66-.285-.368zM30.592 2.604c-.143.035-.335.128-.38.243-.053.14 0 .34.056.498.034.095.157.163.248.23L31.87 4.58c.21.146.277.275.187.536l-.57 1.87c-.07.24-.045.466.192.606.216.128.4.054.598-.092l1.49-1.14c.16-.127.276-.125.435 0l1.43 1.095c.23.183.467.29.73.11.25-.17.184-.427.113-.663l-.555-1.793c-.072-.218-.026-.358.16-.5l1.1-.832c.172-.132.376-.246.493-.418.095-.138.128-.356.104-.528-.028-.207-.232-.24-.423-.247l-1.606-.06c-.647-.013-.647-.006-.83-.63l-.02-.074L34.458.4c-.07-.22-.195-.387-.454-.4-.27-.014-.386.158-.466.375l-.08.256-.495 1.61c-.053.177-.14.285-.346.3l-1.42.06c-.25.007-.436-.03-.605.01zm-1.575 25.018c-.184-.11-.358-.246-.555-.32-.21-.08-.21-.21-.198-.4l.057-1.22c-.025-1.175-.417-1.562-1.58-1.577l-3.794-.037-2.432-.001V22.51l1.203.806c.135.084.32.304.456.105s-.1-.334-.255-.44l-1.178-.788c-.178-.118-.336-.24-.2-.51l.357.23 1.026.672c.067.04.18.007.272.008-.018-.093-.006-.2-.06-.272-.098-.113-.23-.2-.355-.286l-1.087-.717c-.17-.112-.283-.244-.146-.477l.272.178 1.1.715c.07.044.183.02.275.028l-.047-.312c-.007-.03-.05-.058-.08-.08l-1.278-.847c-.065-.04-.18-.006-.278-.006l-.033-.6.24.17 1.162.742c.077.046.205.008.3.008-.027-.103-.034-.216-.086-.304-.042-.07-.135-.113-.2-.162l-.873-.554c-.403-.21-.652-.474-.513-.965.023-.082-.008-.178-.008-.267l-.001-1.337c.114.132.186.254.292.33l1.02.68c.125.08.29.21.386.016.038-.077-.077-.28-.175-.36-.236-.193-.487-.385-.763-.5-.586-.268-.877-.648-.77-1.332.07-.443.013-.905.013-1.354.117.123.204.247.32.332l.857.577c.154.087.35.37.514.12.158-.244-.148-.366-.312-.482l-1.148-.765c-.11-.08-.218-.232-.23-.36-.03-.367-.01-.738-.01-1.096.143.132.264.266.407.37l.832.548c.136.084.29.307.45.07.13-.19-.092-.284-.2-.395-.052-.054-.124-.09-.188-.13l-1.058-.693c-.243-.144-.29-.324-.223-.53l1.17.78c.154.095.343.373.51.144.157-.214-.134-.35-.286-.46l-1.216-.8c-.144-.094-.314-.18-.172-.423l1.323.872c.08.05.2.034.3.05-.034-.1-.034-.27-.11-.323l-1.4-.94c-.094-.063-.215-.127-.255-.22-.216-.5-.616-.703-1.126-.714-.613-.014-1.227-.016-1.84 0-.695.018-1.055.4-1.077 1.08l-.002.383.004 15.258c.032.622.357.97.975 1.016.305.023.614-.003.92.02.158.012.327.057.462.137.285.168.56.356.823.56.243.187.43.153.635-.1l-.784-.576c.395-.132.636.1.888.29.31.234.36.235.705-.05l-.34-.223.016-.072c.192.03.438-.002.565.106.32.274.66.163 1.08.174l-.357-.227c.375-.128.623.077.867.257.238.176.453.383.683.58.234-.413.078-.658-.253-.864a2.09 2.09 0 0 0 1.506-.281.83.83 0 0 0-.317-.061c-1.495-.001-3 .002-4.486.001-.843-.001-1.687.001-2.53-.012-.5-.008-.682-.2-.7-.702l-.01-.46V11.817l.01-.536c.03-.437.205-.653.632-.67l2.07.002c.485.022.697.283.723.773l.01.575.005 11.5c0 .204.02.408.032.612.013.23.143.347.365.365a5.38 5.38 0 0 0 .421.012l5.597.004.727.035c.33.046.612.217.634.567.04.66.06 1.323.02 1.98-.028.44-.273.605-.725.624l-.958.01c-.077.002-.153.034-.21.048l.914.815c.132-.143.436-.214.16-.558a.89.89 0 0 0 .933-.335c.037-.044.133-.06.197-.053l.78.12a.71.71 0 0 1 .014-.09zm-16.3-14.082l.738.48c.084.05.206.033.31.046-.023-.115-.022-.242-.075-.34-.045-.082-.15-.135-.234-.19l-1.028-.668c-.3-.183-.512-.388-.43-.792.043-.207.001-.432-.004-.65-.014-.653-.393-1.08-1.042-1.162-.15-.02-.306-.015-.46-.015-3.03-.001-6.057-.001-9.086 0-.115 0-.23-.002-.345.005-.61.04-.907.295-1.015.895a3.45 3.45 0 0 0-.047.609l-.001 14.72c0 .19.004.385.033.573.094.614.358.85.974.95.178.03.354.118.51.213l.827.553c.144-.484-.323-.49-.48-.722.666-.094.666-.094.698-.38-.45 0-.893.006-1.336-.001-.656-.01-.83-.18-.88-.837-.006-.076-.005-.153-.005-.23l.001-14.913c.001-.932.17-1.094 1.097-1.094h8.703l.652.006c.59.028.83.258.855.854a22.09 22.09 0 0 1 .005 1.456c-.013.516-.275.814-.784.87-.405.046-.815.063-1.223.065l-5.367.006c-.4.001-.52.09-.523.44l-.003 3.374a.36.36 0 0 0 .373.399l.42.022 3.72.002 1.686.02c.516.02.76.246.78.75a18.77 18.77 0 0 1 .003 1.609c-.02.473-.24.685-.715.738-.152.017-.306.012-.46.013l-5.137.004c-.593.001-.673.078-.675.654v3.795c0 .11.015.218.025.358.342-.117.32-.367.32-.606l-.006-3.526c-.002-.25.076-.332.33-.33l3.755-.002 2.21-.1c.1-.004.21.05.3.104l1.405.86c.083.048.225-.01.34-.018-.05-.098-.077-.23-.156-.287a23.36 23.36 0 0 0-1.215-.801c-.208-.128-.237-.237-.045-.4l1.385.913c.12.074.388.134.426.082.147-.2-.067-.303-.197-.417-.028-.025-.065-.04-.097-.062l-1.053-.698c-.32-.184-.475-.394-.347-.773.037-.1-.018-.25-.022-.378l-.001-.44-.058.113.46.263 1.05.704c.076.048.197.025.297.034-.024-.104-.03-.22-.08-.31-.04-.07-.136-.112-.2-.162l-1.234-.843c-.13-.097-.254-.25-.304-.404-.158-.5-.495-.728-.984-.78a8.45 8.45 0 0 0-.841-.047L4.5 17.715c-.252.001-.4-.04-.405-.35l.01-2.76c.004-.422.03-.43.433-.426l4.558.012 1.72-.056c.14-.002.297.052.422.123l1.048.636c.108.06.27.02.407.026-.07-.108-.115-.244-.2-.32-.22-.174-.463-.318-.695-.476l-.276-.208c.13-.156.2-.25.414-.095a17.69 17.69 0 0 0 1.36.926c.133.084.434.16.456.12.137-.235-.105-.33-.246-.43l-1.568-1.07.09-.313.7.485zm23.575-1.882a25.81 25.81 0 0 0 1.244.828c.066.04.183.001.277-.001-.024-.09-.028-.192-.078-.263-.056-.08-.15-.138-.233-.195l-1.273-.854a1.08 1.08 0 0 1-.311-.317 1.15 1.15 0 0 0-1.073-.611c-.51 0-1.022-.001-1.533.001-1.05.004-1.374.32-1.4 1.366l.003 14.947c0 .228.036.458.078.683.036.194.16.28.36.203-.037-.32-.103-.633-.103-.945l-.002-14.717a3.3 3.3 0 0 1 .049-.57c.075-.433.226-.593.65-.608l2.03-.006c.4.01.683.29.74.698.022.163.016.33.016.497l.001 11.996c0 .128-.013.258.01.382.013.07.088.126.135.188.06-.057.162-.107.173-.172.03-.174.027-.355.027-.534l-.004-3.79v-8.52c.08.118.125.25.217.316zM13.486 39.542c.927.284 1.88.366 2.835.392 1.953.053 3.903-.035 5.85-.212l3.28-.264 3.386-.36 3.802-.428 2.665-.257 3.018-.163a67.02 67.02 0 0 1 3.67.024c.505.018 1 .147 1.505.264.214.05.405.2.607.303-.053-.13-.128-.29-.25-.35a3.94 3.94 0 0 0-.823-.302c-1.215-.29-2.46-.3-3.693-.273l-4.774.276-4.83.517-6.398.628-4.043.288h-3.67a9.57 9.57 0 0 1-2-.286c-.502-.127-.964-.41-1.4-.602.326.34.737.643 1.266.805zm22.538-12.178c.776-.06 1.542-.936 1.504-1.72-.017-.344-.167-.54-.494-.647-.946-.31-1.9.392-1.9 1.398 0 .595.38 1.008.9.968zm6.538 5.525c-.762.936-1.702 1.614-2.903 1.877-.886.194-1.727.105-2.49-.424-.348-.242-.344-.248-.647.048l-.195.184c-.636.505-1.346.604-2.088.308-.248-.1-.448-.32-.694-.502-.365.385-.784.715-1.325.843s-1.047.025-1.535-.257a1.85 1.85 0 0 0 .578.422c.764.33 1.448.117 2.074-.36.353-.27.44-.274.8-.024.146.1.307.188.474.242.8.255 1.455-.052 2.066-.512.358-.27.326-.254.732-.056.442.216.91.403 1.385.518.27.064.58-.04.87-.075.245-.03.54.092.693-.223 1.002-.383 1.827-1.003 2.49-1.846.17-.218.367-.416.597-.675v-.75l-.892 1.264zm-16.287.273l-.35 1.444c-.157.684-.62 1.036-1.274 1.16-.634.12-1.163-.052-1.522-.623-.038-.06-.092-.1-.144-.17-1.594 1.13-3.214 1.608-4.895.357-.472.29-.902.612-1.38.83-.508.233-1.052.12-1.647-.12.47.51 1.27.65 1.913.36.32-.146.62-.345.9-.55.223-.16.396-.198.65-.036.752.477 1.572.622 2.458.455.654-.123 1.237-.394 1.79-.746.23-.146.423-.17.598.065.595.8 2.446.545 2.76-.64.04-.15.176-.272.262-.4v-1.38l-.128-.005zm-13.6-1.46a8.85 8.85 0 0 1-4.076 1.751c-.486.076-.718.276-.8.777l-.567 2.85c-.07.45-.247.76-.627.982-.493.286-1 .335-1.567.117.036.1.1.126.173.17.847.583 2.283-.115 2.302-1.06.004-.203.015-.4.056-.61l.514-2.357c.066-.306.236-.49.555-.553l1.34-.32c.874-.258 1.672-.678 2.462-1.13.304-.174.4-.353.432-.713-.11.053-.16.067-.2.096zm-4.232-5.928c.658.5.846.87.842 1.73-.005 1.16-.317 2.27-.606 3.38l-.127.58.433-.163.07-.574.417-1.985c.166-.858.177-1.697-.313-2.48-.148-.236-.055-.38.29-.403.85-.058 1.658.05 2.313.692-.456-.886-2.39-1.334-3.317-.78zm29.603-.915c.483 1.434-.18 2.378-1.432 3.12.407.287.357.694.355 1.15l.825-1.014c-.073-.046-.132-.074-.18-.115-.055-.047-.1-.106-.17-.183.98-.613 1.47-2.506.602-2.956zm9.188 13.744c-.677 1.035-1.706 1.3-2.955.937.53.538 1.13.476 1.692.335.893-.223 1.584-.738 1.774-1.697.165-.833-.065-1.56-.785-2.08.666.778.83 1.655.274 2.506zM26.93 35.428c.522.473 1.128.5 1.75.28.585-.206.95-.62 1.008-1.266.022-.24.067-.478.114-.8l.23.302-.224-1.312-.108-.01c-.1.545-.254 1.088-.287 1.637-.04.657-.407.984-.953 1.197-.525.204-1.04.162-1.54-.13.005.06-.002.093.01.104zM54.92 17.02c.065.043.2-.02.3-.034-.023-.1-.013-.246-.075-.3a44.67 44.67 0 0 0-1.492-.985c-.045-.03-.122-.008-.184-.01l-.144.226 1.594 1.093zm-2.132 2.865c.086.057.244.005.368.004-.05-.113-.072-.268-.16-.332a24.25 24.25 0 0 0-1.304-.872c-.083-.052-.2-.034-.317-.05l-.147.158 1.56 1.09zm-37.44 7.873c-.043.28.13.592.202.89.11-.054.16-.104.16-.152l-.063-1.95a2.54 2.54 0 0 0-.904-1.786c.694.9.773 1.917.605 2.998zm38.44-12.386l1.634 1.1c.043.028.206-.03.213-.066.017-.084.001-.228-.055-.264L53.9 15.11l-.16.156c.015.036.018.086.044.104zm-.832 1.163l1.6 1.09c.05.033.157-.02.237-.034-.026-.1-.02-.247-.084-.29l-1.625-1.055-.15.22c.006.024.005.06.022.07zM46.2 25.75l1.465.97c.072.046.2.002.304 0-.037-.11-.04-.267-.115-.318l-1.606-1.026-.142.215c.03.054.048.128.094.16zm9.46-12.5a43.13 43.13 0 0 0 1.28.833c.08.05.197.038.296.054-.034-.118-.03-.285-.11-.347a19.11 19.11 0 0 0-1.181-.839c-.12-.08-.277-.1-.417-.162l-.145.208c.09.085.173.184.276.253zm-7.554 12.868c.077.048.22-.007.33-.015-.043-.095-.06-.228-.133-.278l-1.622-1.06-.19.283 1.615 1.07zm4.466-9.016l1.595 1.095c.04.027.184-.014.196-.05.022-.068.01-.19-.038-.23a8.08 8.08 0 0 0-.77-.56l-.925-.516-.086.153c.01.036.005.092.028.108zm-5.555 7.464l1.565 1.02c.057.036.175-.027.264-.043-.037-.096-.046-.233-.116-.28L47.1 24.22l-.152.224c.022.045.033.108.07.132zm4.905-6.12l1.252.804c.093.055.304.064.354.005.13-.156-.045-.242-.156-.317l-1.526-1.012-.162.235c.08.096.14.218.238.285zm4.1-5.84l1.33.885c.052.034.112.07.172.076s.148-.006.166-.04c.03-.056.04-.153.008-.203a.74.74 0 0 0-.214-.21l-1.272-.833c-.074-.046-.186-.03-.28-.044l-.108.103c.065.09.112.207.198.267zM4.426 16.596l1.123.72c.076.046.197.017.298.022-.02-.112-.001-.28-.068-.328l-1.55-1.05c-.138.33-.01.5.198.635zm31.887-.84l1.184.773c.072.044.203-.008.306-.016-.03-.108-.028-.26-.1-.315-.293-.223-.61-.418-.918-.62l-.586-.372c-.113.257-.06.43.114.55zm-24.04-3.376l1.145.754c.1.056.225.04.34.057-.034-.12-.03-.293-.1-.35l-1.507-1.033c-.147.3-.063.445.132.573zm23.832 4.613c.056.14.07.335.174.412.408.304.84.576 1.273.844.063.04.18-.012.274-.022-.02-.1-.01-.222-.064-.262l-1.523-1.067-.134.095zm0 .84c.058.15.073.352.182.436.382.294.79.555 1.202.81.07.044.2-.01.304-.018-.022-.1-.01-.25-.072-.293l-1.504-1.016-.112.082zM11.412 20.34l1.15.757c.08.05.218.003.33.001-.03-.1-.03-.24-.096-.29l-1.535-1.07c-.09.292-.053.468.15.6zm24.697-4.204c.052.14.063.333.163.408.407.306.838.58 1.27.852.066.04.183 0 .277-.002-.02-.102-.003-.24-.064-.3-.144-.14-.32-.25-.49-.36l-1.052-.668-.103.07zm20.036-.876c.068.044.2-.012.302-.022-.036-.086-.046-.2-.11-.253l-1.633-1.048-.174.246 1.616 1.077zm-52.02 6.788c.07.142.103.334.217.417.4.293.826.555 1.25.814.07.043.182.017.275.023-.023-.102-.012-.252-.076-.298l-1.528-1.058-.138.102zm32.232 1.395l1.09.7c.09.055.22.047.332.068-.032-.124-.022-.305-.102-.364l-1.474-1.005c-.12.312-.043.474.153.6zm-.008-9.373l1.183.765c.064.04.178-.001.27-.005-.02-.1-.003-.247-.062-.3l-1.53-1.048c-.128.314-.04.46.14.578zm-32.204.288c.04.13.038.315.126.38l1.36.91c.054.034.158-.012.24-.02l-.034-.247c-.002-.01-.014-.02-.025-.028l-1.553-1.068-.113.073zm32.152 5.627a28.39 28.39 0 0 0 1.212.796c.073.044.204-.007.308-.015-.035-.098-.04-.236-.1-.29l-.97-.678-.517-.314c-.14.23-.09.385.076.5zm-15.5-.676a23.49 23.49 0 0 0 1.084.711c.077.047.203.015.306.02-.022-.112-.005-.28-.072-.33l-1.493-1.005c-.062.426-.065.44.175.604zm15.525-.155l1.143.753c.077.047.202.015.305.02-.022-.113-.005-.28-.073-.33l-1.52-1.014c-.05.413-.054.434.145.57zm-15.786-3.77c.046.146.047.352.147.427.407.303.84.57 1.272.84.048.03.164.02.202-.018s.038-.14.018-.204-.076-.137-.136-.178l-1.384-.934-.12.068zM36.37 21.73l1.15.748c.072.044.197.001.298-.003-.024-.088-.02-.216-.078-.26l-1.504-1.08c-.183.33-.042.473.134.593zM4.4 15.71l1.127.71c.09.052.225.024.34.033-.04-.11-.048-.27-.127-.325l-1.523-1.013c-.047.418-.05.44.183.596zm31.912-.838l1.2.79c.073.045.198.005.298.005-.027-.1-.02-.25-.086-.297l-1.526-1.027c-.098.26-.07.415.104.53zm-.185-2.132c.048.136.056.328.152.4.418.306.86.583 1.302.854.06.037.176-.016.266-.028-.018-.08-.02-.17-.06-.24-.035-.062-.107-.107-.17-.15l-1.378-.916-.114.08zm21.22 15.885a1.48 1.48 0 0 0 .426.151c.045.01.128-.04.154-.084.022-.038.005-.14-.028-.16l-1.508-.944-.26.254 1.216.783zm-19.78-5.74l-.834-.54-.52-.32c-.133.272-.043.427.15.552l1.124.725c.08.05.175.076.28.12.113-.28-.03-.42-.202-.538zM4.135 22.88c.054.136.068.326.168.4l1.308.857c.058.036.16.001.242-.001-.014-.09.006-.228-.046-.265L4.25 22.8l-.115.08zm16.6-4.482l1.1.73c.086.052.224.017.338.022-.038-.1-.043-.264-.12-.323-.322-.245-.665-.463-1.004-.685-.133-.087-.277-.157-.426-.24-.077.343-.083.365.103.495zm-.193-2.116c.056.135.074.322.175.397.378.28.78.533 1.183.777.072.043.198-.004.3-.01-.033-.1-.035-.243-.104-.292l-1.416-.96-.137.087zm.238-2.118l1.087.716c.086.052.22.024.333.033-.04-.11-.05-.264-.128-.32l-1.45-.987c-.105.288-.022.44.157.56zm15.524 6.7l1.19.746c.07.04.182.01.275.014-.03-.097-.03-.237-.097-.285l-1.463-1.003c-.118.257-.08.416.094.528zm-31.91 3.373c.204.13.424.243.603.402.294.26.568.3.845.03l-1.622-1.023c-.1.307-.02.466.174.6zm23.964 1.445c.06.137.085.323.2.402.396.297.816.562 1.235.828.06.037.16.007.242.008-.02-.1-.01-.22-.067-.262L28.5 25.572l-.134.1zm-13.974 9.42c-.296.44-.594.804-.802 1.214-.223.438-.03.81.47.993a.74.74 0 0 1-.099-1.002c.18-.262.236-.706.75-.68l-.32-.526zm14.005-8.554c.04.114.045.273.125.334a20.2 20.2 0 0 0 1.221.853c.072.047.2.007.303.007-.034-.1-.036-.243-.106-.296l-.913-.626-.54-.335-.09.063zm5.06 1.52c.27-.148.414.102.61.193.073.034.203.072.233.04.06-.064.067-.176.1-.283.222-.001.482.02.692-.327-.696-.018-1.327-.033-2.033.022l.183.204c.07.055.146.1.22.148l-.004.003zM3 29.974c.204.276.466.433.784.52.422.118.83.05 1.246-.033.1-.02.213.038.334.063l.12-.634c-.866.476-1.667.558-2.484.083zm33.11-17.99c.056.107.084.253.17.315l1.27.847c.064.04.176.002.266 0-.027-.078-.03-.19-.086-.23l-1.486-1.037-.134.104zm-24.082-.758c.053.1.077.26.164.322l1.326.89c.053.034.152-.006.23-.01-.01-.07.003-.175-.037-.203L12.15 11.13l-.1.096zM7.052 21.765l1.266.687c.057.03.155-.02.234-.034-.02-.08-.013-.194-.064-.234-.212-.162-.428-.334-.67-.44-.217-.096-.47-.11-.707-.162l-.06.184zm1.307-.022l1.2.716c.06.033.184-.024.26-.07.024-.015.012-.17-.025-.192-.428-.27-.79-.718-1.386-.554l-.05.1zm-2.633-.04c.508.29.87.77 1.503.695-.34-.59-.956-.87-1.503-.695zm-.14.714c.043.027.088.072.132.072.093-.001.186-.026.28-.042-.032-.085-.04-.198-.1-.25-.164-.14-.35-.252-.526-.377-.262-.187-.547-.255-.9-.1l1.113.707zm5.305.04c.053.03.165-.014.228-.056.022-.015.006-.157-.034-.188-.42-.32-.808-.73-1.47-.497l1.275.74zm9.828 1.053c.352.2.66.59 1.222.318l-1.31-.856c-.088.348-.09.436.087.538zM6.07 15.008c.057.028.168-.01.228-.055.027-.02.014-.162-.024-.2-.412-.304-.817-.648-1.427-.392l1.223.637zm3.378-.23c.153.088.318.16.486.216a.22.22 0 0 0 .195-.066c.027-.038.001-.158-.04-.192-.378-.3-.755-.618-1.37-.42l.73.463zm-.844.227c.062.034.173-.02.262-.034-.02-.08-.016-.2-.067-.233-.372-.312-.755-.612-1.368-.43l1.173.697zM11.117 15c.076.043.204-.004.308-.01-.007-.077.016-.198-.025-.226-.388-.267-.742-.645-1.372-.444l1.09.68zm-4.515-.388l.653.384c.074.035.194-.03.294-.05-.036-.085-.048-.202-.112-.248-.366-.267-.73-.563-1.292-.384l.457.298zM57.17 26.716c-.15-.45-1.034-1.037-1.484-1.038l.282.367c.366.254.728.517 1.202.67zm-.99-1.286c0-.09.015-.137-.002-.16-.358-.46-.855-.7-1.4-.86-.004-.001-.014.02-.022.03l.302.377c.344.24.682.488 1.12.614zm-1.96-2.44c-.13-.46-.76-.897-1.224-.928l.3.388.923.54zM4.642 25.212c.2.088.3-.003.4-.187l-.81-.537c-.077.403.023.55.42.724zm.458-7.788l-.885-.623c-.086.53.16.714.823.713l.062-.1zm9.165 16.248l.056-.557-.04-.075c-.33.334-.724.352-1.2.255.335.465.835.135 1.175.377zm19.185-5.618l.3 1.14.374-.694-.677-.442.004-.004zm13.16-1.66l-.774-.47-.183.28c.252.254.523.427.957.19zM18.604 30c.135-.235.328-.416.302-.56-.044-.245-.224-.465-.375-.75l.073 1.31zm29.178-2c.38-.304.34-.744-.068-1.05l.068 1.05zm-11.653-4.2c.03.12.02.3.098.35.195.133.426.118.708.007l-.726-.408-.08.05zm11.42-9.506l.046-.098c-.26-.218-.483-.5-.885-.48l.215.29.624.287zm-.627-.887l.057-.1c-.216-.234-.466-.416-.796-.483l.128.26.61.324z"/></svg>