<svg xmlns="http://www.w3.org/2000/svg" viewBox="0 0 6600 3540" preserveAspectRatio="xMidYMid meet" fill="#0c0c0d"><path d="M1260 3100c-35-35-20-63 16-29 29 28 68 22 72-10 3-19-8-36-47-72-28-26-51-55-51-66 0-35 29-63 64-63 37 0 77 33 59 51-7 7-14 5-23-6-17-20-59-19-67 1-4 12 10 31 45 64 44 41 52 54 52 83 0 61-76 91-120 47zm460-2c-108-73-54-238 77-238 52 0 103 26 103 52 0 23-6 23-37-2-56-44-153-9-168 60-8 38 18 94 51 109 39 17 89 13 118-10 37-29 55-11 21 21-38 35-119 39-165 8zm805 11c-3-9-4-68-3-133l3-117 80 92 80 93 5-87c7-129 25-108 28 33 1 68-1 120-6 120-6 0-43-39-83-86l-74-86-3 84c-3 80-15 118-27 87zm1000-1c-3-7-6-58-7-113l-3-100-28-3c-54-6-22-27 46-30 55-2 67 0 67 13 0 9-9 15-25 15h-25v109c0 63-4 112-10 116-6 3-12 0-15-7zm739 3c-11-5-33-24-48-42-25-29-28-39-24-88 4-47 10-59 41-88 32-28 44-33 88-33 46 0 55 4 90 39s39 44 39 90c0 44-5 56-33 87s-41 37-83 40c-27 2-58 0-70-5zm127-50c64-65 20-171-71-171-33 0-48 6-71 29s-29 38-29 71 6 48 29 71 38 29 71 29 48-6 71-29zm-4021-76v-126l62 3c76 4 92 25 21 30-46 3-48 4-51 36-3 29-1 32 25 33l47 3c11 1 21 6 23 13 3 8-12 13-44 15l-48 3-3 58c-2 42-7 57-17 57-12 0-15-23-15-125zm404 53c54-118 80-168 86-168s32 50 86 168c29 62 31 72 16 72-10 0-24-17-36-43l-42-91-22-50-46 92c-27 53-52 92-61 92-11 0-7-17 19-72zm1426-54c0-96 3-125 13-122 8 3 13 40 15 126 2 104 0 122-13 122s-15-20-15-126zm800 122c0-12 111-236 118-236 4 0 33 54 64 120 48 101 54 120 38 120-13 0-28-24-56-85-21-47-42-85-46-85-5 0-26 38-47 85-25 54-45 85-55 85-9 0-16-2-16-4zm880-122c0-96 3-125 13-122 8 3 13 40 15 126 2 104 0 122-13 122s-15-20-15-126zm860 6c0-66 4-120 9-120 4 0 41 38 82 85l74 85 5-87c3-56 9-88 18-91s12 26 12 123c0 70-4 125-8 123-5-1-42-41-83-87l-74-85-3 87c-2 68-6 87-17 87-12 0-15-21-15-120zm868 13l-3-108-28-3c-54-6-22-27 46-30 55-2 67 0 67 13 0 9-9 15-25 15h-25v110c0 90-3 110-15 110-11 0-15-21-17-107zm397-8c-50-120-52-130-33-130 6 0 28 41 49 90l38 90 31-70c18-38 36-80 41-93 9-24 36-25 31-1-7 31-95 229-102 229-4 0-29-52-55-115zM877 2560c-299-20-428-60-533-165-62-62-88-110-103-190-15-78-15-752 0-830 35-191 193-307 463-340l131-15c6 0 19-15 29-32 10-18 34-49 54-70l34-36-53-94-101-177c-61-105-65-120-38-154 22-28 57-35 90-17 16 9 83 114 197 314l40 69 232 2 37-65c125-217 179-306 193-317 41-32 111 3 111 54 0 26-16 57-132 254-37 64-68 123-68 130 0 8 16 30 36 49s42 47 50 61c15 29 30 34 159 45 200 17 353 101 426 236l34 63v900l-26 55c-37 77-108 144-204 190-89 42-138 55-270 70-125 15-621 20-788 10zm644-280c212-21 307-56 384-142 72-80 77-108 73-435l-3-278-30-54c-53-95-160-162-290-180-285-40-810-33-966 13-112 33-194 97-234 181-25 54-25 54-25 342 0 282 1 289 24 339 45 97 154 173 282 195 165 28 590 38 785 19zm971-492l3-623 313-3 312-2v140h-490v370h490v140h-490v600h-140l2-622zm778 3c0-399 4-622 10-626 5-3 16-2 24 2 7 4 104 112 214 238l592 673c6 2 10-163 10-458v-461l135 6v620c0 616 0 620-20 623-16 2-110-99-420-455l-400-457-3 457-2 457h-140v-619zm1440 64v-554l-275-6v-130h680v130l-270 10-3 553-2 552h-130v-555zm952 298l-416-985c3-5 34-8 70-8h65l23 49 202 470 185 421c4 0 15-21 27-47l385-880c9-14 133-19 140-5 3 4-53 140-123 302-402 927-406 935-427 938-17 3-35-33-131-255z"/></svg>