<svg version="1.1" viewBox="0 0 468.09999999999997 221.6" xmlns="http://www.w3.org/2000/svg" xmlns:xlink="http://www.w3.org/1999/xlink"><linearGradient id="a"><stop stop-color="#bf2126" offset=".168"/><stop stop-color="#dc2d27" offset=".765"/></linearGradient><radialGradient id="b" cx="264.81" cy="111.06" r="84.439" gradientTransform="matrix(1.0002 0 0 .9996 .413 -.267)" gradientUnits="userSpaceOnUse" xlink:href="#a"/><radialGradient id="c" cx="209.26" cy="111.42" r="84.447" gradientTransform="matrix(1.0002 0 0 .9996 .413 -.267)" gradientUnits="userSpaceOnUse" xlink:href="#a"/><radialGradient id="d" cx="139.14" cy="111.1" r="88.805" gradientTransform="matrix(1.0002 0 0 .9996 .413 -.267)" gradientUnits="userSpaceOnUse" xlink:href="#a"/><radialGradient id="e" cx="44.92" cy="111.38" r="84.445" gradientTransform="matrix(1.0002 0 0 .9996 .413 -.267)" gradientUnits="userSpaceOnUse" xlink:href="#a"/><radialGradient id="f" cx="362.16" cy="140.86" r="89.558" gradientTransform="matrix(1.0002 0 0 .9996 .413 -.267)" gradientUnits="userSpaceOnUse" xlink:href="#a"/><radialGradient id="g" cx="453.47" cy="215.29" r="11.005" gradientTransform="matrix(1.0002 0 0 .9996 .413 -.267)" gradientUnits="userSpaceOnUse" xlink:href="#a"/><path d="m254.2 59.3h44.1l-34.4 161.9h-44.1zm48.4-20.2h-44.1l8-38.7h44.1z" fill="url(#b)"/><path d="m207.9 221.6h-43.5l47.1-221h43.5z" fill="url(#c)"/><path d="m198.7 0.6-7.5 34.7h-12.2c-6.4 0-14.7 1.1-17.8 12.4-0.8 3.2-1.5 5.7-2.8 11.8h28.5l-6.7 31.8h-28.5l-27.8 130.2h-43.4l27.7-130.2h-24.2l6.8-31.8h23.8l1.8-8.4c10.1-50.5 39.9-51.1 65.3-51.1 2.8 0 17 0.6 17 0.6" fill="url(#d)"/><path d="m34.3 59.6h44.2l-34.4 161.9h-44.1zm48.4-20.2h-44.1l8-38.8h44z" fill="url(#e)"/><path d="m460 59.5h-51.7l-37.3 48.2-18.1-48.2h-53.3l37.2 81.1-71.6 80.8h51.8zm-99.1 131.7 11.1 30.4h53.2l-30.8-68.3z" fill="url(#f)"/><path d="m439.9 210.5 0.4-2.1h11.3l-0.5 2.1h-4.3l-2.3 11h-2.7l2.4-11zm17.7-2.1 1.3 9.4 5.4-9.4h3.8l-2.8 13.1h-2.4l2.2-10.6-5.8 10.6h-2.2l-1.4-10.6-2.3 10.6h-2.4l2.8-13.1z" fill="url(#g)"/></svg>
