<svg version="1.1" viewBox="0 0 69.585495 22.723692" xmlns="http://www.w3.org/2000/svg"><g transform="translate(-164.37 -249.87)" stroke="#696969" stroke-opacity=".41176" stroke-width=".26458"><path d="m164.5 271.41v-1.0583h16.669v2.1167h-16.669zm59.62-3.223c-1.1235-0.54347-0.88689-2.0686 0.32092-2.0686 0.61066 0 0.68909 0.10758 0.75588 1.0367 0.0801 1.1148 1.5468 0.15844 2.5158-1.6405l0.63905-1.1864-1.9402-3.9959c-1.2138-2.4999-2.1217-4.0535-2.425-4.1498-0.26664-0.0846-0.48479-0.32443-0.48479-0.53291 0-0.29927 0.47329-0.37904 2.249-0.37904 1.8227 0 2.249 0.0752 2.249 0.39687 0 0.24439-0.24815 0.39688-0.64584 0.39688-0.35521 0-0.71345 0.10939-0.79609 0.2431-0.1853 0.29982 2.383 5.6124 2.6819 5.5474 0.1184-0.0257 0.67518-1.1259 1.2373-2.445 1.0804-2.5352 1.0701-3.1302-0.0568-3.2978-0.31256-0.0465-0.56829-0.25486-0.56829-0.46302 0-0.2946 0.43975-0.37847 1.9844-0.37847 1.5875 0 1.9844 0.0794 1.9844 0.39687 0 0.21828-0.16015 0.39688-0.35587 0.39688-0.61605 0-1.0831 0.80695-3.0629 5.2917-2.3007 5.2115-2.8581 6.1295-4.072 6.7055-1.0481 0.49737-1.3997 0.51735-2.2096 0.12555zm-12.525-0.18342c0-0.12733 0.35718-0.30295 0.79375-0.39026l0.79375-0.15875v-11.139l-0.79375-0.15875c-0.43657-0.0873-0.79375-0.32246-0.79375-0.52255 0-0.26826 0.41692-0.3638 1.5875-0.3638 1.5067 0 1.5875 0.0329 1.5875 0.64584 0 0.77546 0.46727 1.1462 0.69539 0.55177 0.23938-0.62383 1.5175-1.1978 2.6649-1.1966 3.9688 4e-3 5.2175 6.5849 1.6938 8.9266-1.4412 0.95772-3.7596 0.61831-4.5037-0.65932-0.20066-0.3445-0.27175 0.0483-0.27773 1.5346-8e-3 2.0647 0.22966 2.6326 1.1032 2.6326 0.26194 0 0.47625 0.11907 0.47625 0.26459 0 0.15782-1.0142 0.26458-2.5135 0.26458-1.3824 0-2.5135-0.10418-2.5135-0.23151zm7.3966-4.7432c1.9251-1.9251 0.99054-7.1961-1.2759-7.1961-1.6511 0-2.6818 1.5994-2.6802 4.1587 2e-3 3.1055 2.2002 4.7933 3.9561 3.0374zm-40.462 1.2118c-0.35941-0.19016-0.83177-0.66342-1.0497-1.0517-0.91018-1.6216 1.0892-3.4546 4.5474-4.169l1.5214-0.31427v-1.0293c0-1.326-0.78515-2.1082-2.116-2.1082-0.52683 0-1.1843 0.16555-1.461 0.36789-0.43875 0.32083-0.46115 0.46001-0.17504 1.088 0.4135 0.90753-5e-3 1.5175-0.96114 1.4018-1.72-0.20806-1.279-2.0375 0.73679-3.0561 1.3355-0.67486 2.802-0.76153 4.051-0.23943 1.4977 0.62606 1.6329 0.98934 1.7774 4.7766l0.13229 3.4664 0.85989 0.0829c0.96955 0.0935 1.1087 0.42678 0.34813 0.83382-0.90966 0.48684-1.7968 0.31356-2.4447-0.47753l-0.61544-0.75142-0.87898 0.66509c-1.0425 0.78884-3.2511 1.0548-4.2724 0.51439zm4.1195-1.37c0.76231-0.7623 0.89958-1.0853 0.89958-2.1167 0-1.0892-0.0625-1.2159-0.59531-1.2055-0.85847 0.0167-2.5308 0.6559-3.1264 1.1949-0.67297 0.60903-0.70403 2.3594-0.0486 2.7411 0.92263 0.53738 1.9363 0.32065 2.8707-0.61381zm20.832 1.0281c-1.3472-0.8075-2.2058-2.4282-2.2058-4.1636 0-1.573 0.36228-2.5052 1.3862-3.5667 2.9213-3.0287 7.6016-0.74786 7.6081 3.7077 5e-3 3.5734-3.788 5.8211-6.7886 4.0226zm3.8398-0.74758c1.5267-1.6251 1.4453-5.7969-0.13728-7.0418-0.92272-0.72582-2.2261-0.70178-2.9342 0.0541-0.79384 0.84743-1.1221 1.873-1.1221 3.5057 0 1.6328 0.32824 2.6583 1.1221 3.5057 0.77063 0.82267 2.2873 0.81093 3.0714-0.0238zm-42.823 0.76814c0-0.23545 0.32726-0.41166 0.8599-0.46302l0.85989-0.0829 0.0711-6.199c0.0756-6.5852 0.0692-6.6206-1.1956-6.6292-0.35886-2e-3 -0.59532-0.16649-0.59532-0.41301 0-0.33624 0.31762-0.39505 1.7859-0.33073l1.7859 0.0782 0.13229 4.8171 0.13229 4.8171 1.7001-1.526c1.7379-1.5599 1.9217-2.155 0.66552-2.155-0.3977 0-0.64585-0.15249-0.64585-0.39688 0-0.32492 0.45567-0.39687 2.5135-0.39687 1.9684 0 2.5136 0.0797 2.5136 0.36743 0 0.2058-0.38204 0.4391-0.8685 0.53036-0.47842 0.0897-1.4568 0.68057-2.1782 1.3154l-1.3097 1.1525 0.7181 1.0291c1.9778 2.8345 3.1248 4.0718 3.7745 4.0718 0.40813 0 0.65759 0.15056 0.65759 0.39688 0 0.32632-0.47037 0.39687-2.6458 0.39687-2.1755 0-2.6458-0.0705-2.6458-0.39687 0-0.26458 0.26458-0.39688 0.79375-0.39688 0.43656 0 0.79195-0.0893 0.78976-0.19843-2e-3 -0.10914-0.59846-1.0042-1.325-1.9891-1.3171-1.7854-1.323-1.7894-1.9804-1.3586-0.5777 0.37852-0.65935 0.62267-0.65935 1.9715 0 1.4714 0.0313 1.5432 0.7072 1.6232 0.38896 0.046 0.75607 0.23254 0.8158 0.41444 0.0821 0.2499-0.54345 0.33073-2.5593 0.33073-2.1428 0-2.6679-0.0748-2.6679-0.38011zm24.077 8.2e-4c0-0.2171 0.31115-0.4151 0.7276-0.46302l0.7276-0.0837v-7.4083l-0.7276-0.0837c-0.41645-0.0479-0.7276-0.24592-0.7276-0.46302 0-0.28631 0.38111-0.3793 1.5544-0.3793 1.5347 0 1.5566 0.0106 1.7226 0.84061l0.16812 0.84061 0.77089-0.73856c0.5321-0.50978 1.141-0.78027 1.9659-0.87324 2.8937-0.32617 3.6053 0.60848 3.6067 4.7376 5.3e-4 1.5524 0.0733 3.011 0.16159 3.2412 0.0952 0.24818 0.47213 0.41851 0.92604 0.41851 0.50401 0 0.76544 0.13556 0.76544 0.39688 0 0.32493-0.45567 0.39687-2.5135 0.39687-2.0061 0-2.5135-0.0766-2.5135-0.3793 0-0.21709 0.31115-0.4151 0.7276-0.46302l0.72761-0.0837 0.0744-2.9304c0.0671-2.6423 0.0197-3-0.48223-3.638-0.42445-0.53961-0.78934-0.70761-1.5369-0.70761-2.0925 0-2.7405 1.177-2.63 4.7768l0.0768 2.4993 0.72761 0.0837c0.41645 0.0479 0.7276 0.24593 0.7276 0.46302 0 0.30273-0.50743 0.3793-2.5135 0.3793s-2.5135-0.0766-2.5135-0.3793z" fill="#ce1325"/><path d="m181.86 271.4v-1.062h16.965l-0.0821 0.99219-0.0821 0.99219-8.4005 0.0699-8.4005 0.0699z" fill="#e55300"/><path d="m199.44 271.35v-1.0621h16.701l-0.0821 0.99219-0.0821 0.99219-8.2682 0.0699-8.2682 0.0699z" fill="#f68d10"/><path d="m216.83 271.28v-1.0583h16.669v2.1167h-16.669z" fill="#feb800"/></g></svg>
