
<svg viewBox="0 0 498 495" version="1.1" xmlns="http://www.w3.org/2000/svg" xmlns:xlink="http://www.w3.org/1999/xlink">
    <g id="Page-1" stroke="none" stroke-width="1" fill="none" fill-rule="evenodd">
        <g id="1200x630bb" fill-rule="nonzero">
            <g id="layer101" transform="translate(1.000000, 208.000000)" fill="#161617">
                <path d="M220.6,283.8 C220.3,282.5 220,268.4 220,252.3 C220,217.4 219.2,219.6 231.7,220.2 C240,220.5 240.2,220.6 243.5,224.1 C247.2,228.2 248.7,234.9 247.5,242.2 C246.7,247 243.7,252.5 241.5,253.4 C239.6,254.1 239.6,255.4 241.3,257.2 C243.9,259.7 245,262.8 246.5,271.6 C247.3,276.5 248.3,281.8 248.6,283.3 C249.1,285.9 248.9,286.1 246.9,285.8 C244.8,285.5 244.4,284.5 242.9,276 C241.9,270.8 240.7,265.3 240.1,263.8 C238.7,260.2 233.3,256.9 229.5,257.2 L226.5,257.5 L226.2,271.8 C225.9,286 225.9,286 223.6,286 C222,286 221,285.3 220.6,283.8 Z M238.9,249.9 C241.7,247.2 244,242 244,238.3 C244,236.8 243.1,233.6 242,231.2 C239.8,226.4 236.7,224.7 230.6,225.2 L226.5,225.5 L226.2,238.8 L225.9,252 L231.3,252 C235.4,252 237.2,251.5 238.9,249.9 Z" id="Shape"></path>
                <path d="M177,284.8 C177,284.2 177.7,280.7 178.5,277.1 C180.2,270.1 181.4,264.6 182.9,257.8 C184.3,251.6 185.6,245.9 188.5,233.8 C189.9,227.9 191,222.4 191,221.5 C191,220.5 192,220 194.4,220 C197.4,220 197.8,220.3 198.4,223.3 C198.7,225 199.4,228.3 199.9,230.5 C202.9,243.8 208.3,267.7 210,275 C212.5,285.8 212.5,286.2 209.8,285.8 C207.9,285.5 207.3,284.2 205.5,276.5 C204.4,271.5 203.1,266.9 202.6,266.2 C201.6,264.5 187.6,264.6 186.3,266.3 C185.7,266.9 184.7,270 184,273 C181.3,285.2 181,286 179,286 C177.9,286 177,285.5 177,284.8 Z M201.5,258.9 C201.7,258.6 201.4,255.9 200.6,252.9 C199.9,249.9 198.7,244.8 198.1,241.5 C195.2,227.3 193.5,224 192.5,230.7 C192.2,232.8 190.9,239.8 189.5,246.4 C188.2,252.9 187.2,258.6 187.4,258.9 C187.9,259.7 200.7,259.6 201.5,258.9 Z" id="Shape"></path>
                <path d="M135.8,285.4 C134.1,284.9 134,282.5 134,252.9 L134,221 L136.5,220.4 C137.9,220.1 142.3,219.9 146.3,220.2 C160.7,220.9 166.8,228.7 167.9,248 C169.3,271.7 160.6,285 143.5,285.7 C140.2,285.8 136.7,285.6 135.8,285.4 Z M152,278.6 C160.5,274.3 164.8,263 163.6,247.8 C162.5,232.1 156.4,225 144.1,225 C140.6,225 139,225.4 138.6,226.6 C138.3,227.5 138,239.5 138,253.4 C138,271.7 138.3,278.9 139.2,279.8 C141.1,281.7 147.1,281.2 152,278.6 Z" id="Shape"></path>
                <path d="M89,253 L89,220 L91.8,220 C94.5,220 94.9,220.7 103.7,242.3 C108.7,254.5 113.3,266.4 113.9,268.6 C114.5,270.9 115.7,273.1 116.6,273.4 C118,273.9 118.1,273.2 117.5,268.3 C116.6,259.5 115.8,226.9 116.5,223.3 C116.9,220.8 117.6,220 119.3,220 L121.5,220 L121.3,252.7 L121,285.5 L118.8,285.5 C116.9,285.5 115.7,283.2 109.3,267.5 C105.2,257.6 100.4,245.5 98.5,240.5 C96.7,235.6 94.7,231.4 94.1,231.2 C93.3,230.9 93,239 93,258.4 C93,285.3 93,286 91,286 C89,286 89,285.3 89,253 Z" id="Path"></path>
                <path d="M42.7,285.4 C42.4,285.1 42.5,283.8 43,282.7 C43.4,281.5 44.3,278.3 44.8,275.5 C45.4,272.8 46.8,266.7 47.9,262 C48.9,257.3 51.5,246 53.6,236.8 L57.4,220 L60.7,220 C63.3,220 64,220.4 64,222 C64,223.1 65.1,228.9 66.5,234.8 C67.9,240.7 69.9,249.6 71.1,254.5 C72.2,259.5 73.9,267.1 75,271.5 C78.5,286.3 78.5,286.2 75.8,285.8 C73.8,285.5 73.3,284.5 71.7,277.5 C68.7,264.5 69.2,265 60.6,265 C55.9,265 52.9,265.5 52.2,266.3 C51.7,266.9 50.2,271.7 48.9,276.8 C47.2,283.7 46.2,286 45,286 C44.1,286 43.1,285.7 42.7,285.4 Z M67,257.2 C67,255.2 64.6,243.5 61.8,232.2 C60.5,227.2 59.2,226 58.6,229.2 C58.4,230.5 57.2,236.7 55.9,243 C54.7,249.3 53.5,255.6 53.3,257 C52.9,259.5 52.9,259.5 59.9,259.5 C66.6,259.5 67,259.4 67,257.2 Z" id="Shape"></path>
                <path d="M2,253 L2,219.9 L4.6,220.2 C6.9,220.5 7.9,222.2 14.6,238.5 C18.6,248.4 23.2,259.9 24.6,264 C29.5,277.8 29.8,276.9 29.2,247.1 L28.7,220 L31.4,220 L34,220 L34,253 L34,286 L31.6,286 C29,286 29.6,287.4 16.9,255.9 C12.6,245 9,235.6 9,234.8 C9,234 8.5,232.9 7.8,232.2 C5.4,229.8 4.7,231 5.5,236.3 C6,239.1 6.4,251.4 6.4,263.5 L6.5,285.5 L4.3,285.8 L2,286.1 L2,253 Z" id="Path"></path>
                <path d="M0,162 C0,150.1 0,150 2.3,150 C5.1,150 31.2,143.4 71.5,132.6 C89.1,127.9 95.6,126.1 103,124 C107.1,122.8 111.7,121.6 113.3,121.3 L116,120.8 L116,147.4 L116,174 L58,174 L0,174 L0,162 Z" id="Path"></path>
                <path d="M181,173.3 C181,172.8 181,156.8 180.9,137.6 C180.8,109.3 181.1,102.5 182.2,102 C182.9,101.6 188.7,99.8 195,98 C201.3,96.2 208.3,94.2 210.5,93.5 C212.7,92.8 216.5,91.7 219,91 C221.5,90.3 224.6,89.4 226,89 C227.4,88.6 231.7,87.3 235.5,86.2 C245.3,83.2 255.1,80.3 257.7,79.5 C259.8,78.9 260.4,79.7 264,87.5 C268.6,97.3 268.7,98 266.1,97.3 C265.1,97 263.9,97.3 263.6,97.9 C263.2,98.5 261.8,99 260.5,99 C259.2,99 257.9,99.4 257.6,99.9 C257.3,100.3 254.2,101.5 250.8,102.5 C247.3,103.4 241.6,105.6 238,107.2 C221.8,114.6 218.7,116.2 214.7,118.7 C212.4,120.2 207.6,122.9 204,124.8 C195.4,129.3 190,134.5 190,138.3 C190,141.9 196,148 199.4,148 C200.6,148 202,148.4 202.6,148.9 C206.3,152.2 258.6,159.2 290.9,160.5 L301.3,161 L303.4,164.2 C306.4,169.1 308,172.1 308,173.1 C308,173.6 280.7,174 244.5,174 C209.6,174 181,173.7 181,173.3 Z" id="Path"></path>
                <path d="M382,168.3 C382,165.1 382.5,161.8 383,161 C383.8,159.7 384,159.8 384,161.4 C384,163.2 384.6,163.3 395.8,162.6 C420.2,161.2 425.4,160.2 439,155 C448.6,151.3 453.5,147.9 460.6,140 C471.3,128.2 472.9,125.1 478.5,106.5 C481.3,97.4 481.7,78 479.5,67.1 C476.9,54.5 475,50.8 469.3,46.9 L464.5,43.5 L449.5,43.5 C436.5,43.5 433.1,43.9 424,46.2 C418.2,47.7 409.7,49.8 405,51 C385.1,55.8 384,56.2 384,58.8 C384,60.3 383.8,60.3 383,59 C382.5,58.2 382,53.9 382,49.4 L382,41.3 L405.3,33.6 C429.7,25.4 458,15.6 461.8,14 C465.3,12.4 468.2,11.3 473,9.5 C478.3,7.5 482.6,5.7 489.8,2.4 C492.7,1.1 495.3,0 495.5,0 C495.8,0 496,24.1 496,53.5 C496,98.5 495.7,108.3 494.4,114.8 C491.3,130 484.2,142.8 472.9,153.6 C464.8,161.3 458.9,165.2 448.5,170.1 L440.2,174 L411.1,174 L382,174 L382,168.3 Z" id="Path"></path>
            </g>
            <g id="layer102" transform="translate(190.100000, 248.000000)" fill="#555557">
                <path d="M192.8,134.8 C192.8,134.6 192.7,104.4 192.6,67.6 C192.5,14.7 192.7,0.6 193.7,0.4 C194.4,0.3 194.5,0.4 193.9,0.7 C192.6,1.3 192.6,17 193.9,19 C194.7,20.3 194.9,20.3 194.9,18.8 C194.9,16.2 196,15.8 215.9,11 C220.6,9.8 229.1,7.7 234.9,6.2 C244,3.9 247.4,3.5 260.4,3.5 L275.4,3.5 L280.2,6.9 C285.9,10.8 287.8,14.5 290.4,27.1 C292.6,38 292.2,57.4 289.4,66.5 C283.8,85.1 282.2,88.2 271.5,100 C264.4,107.9 259.5,111.3 249.9,115 C236.3,120.2 231.1,121.2 206.7,122.6 C195.5,123.3 194.9,123.2 194.9,121.4 C194.9,119.8 194.7,119.7 193.9,121 C193.4,121.8 192.9,125.1 192.9,128.2 L192.9,134 L222.2,134.3 L251.4,134.5 L222.2,134.8 C206.1,134.9 192.9,134.9 192.8,134.8 Z" id="Path"></path>
                <path d="M114,124 C112.2,121 112.1,121 101.8,120.5 C69.5,119.2 17.2,112.2 13.4,108.9 C12.9,108.4 11.5,108 10.3,108 C6.9,108 0.9,101.9 0.9,98.3 C0.9,94.5 6.3,89.3 14.9,84.8 C18.5,82.9 23.3,80.2 25.6,78.7 C29.6,76.2 32.7,74.6 48.9,67.2 C52.5,65.6 58.2,63.4 61.7,62.5 C65.1,61.5 68.2,60.3 68.5,59.9 C68.8,59.4 70.1,59 71.4,59 C72.7,59 74.1,58.5 74.5,57.9 C74.8,57.3 76,57 77,57.3 C78.1,57.6 78.9,57.4 78.9,57 C78.9,56.3 72.5,41.8 71.2,39.8 C71,39.3 71,39 71.3,39 C71.6,39 78.4,51.9 86.4,67.8 C94.3,83.6 104.4,103.4 108.9,111.8 C113.3,120.1 116.7,127 116.4,127 C116.1,127 115,125.6 114,124 Z" id="Path"></path>
            </g>
            <g id="layer103" transform="translate(0.000000, 2.100000)" fill="#B55044">
                <path d="M274.4,490.2 C274.8,489.2 275.5,475.6 276.1,459.9 C276.6,444.2 277.2,430.3 277.5,428.9 C277.7,427.5 277.9,426 277.9,425.6 C278,425.1 279.4,424.9 281.2,425.1 C283.9,425.3 284.5,425.9 285.1,428.4 C285.5,430.1 286.7,435.5 287.9,440.4 C289.1,445.4 291.4,455.7 293.1,463.4 C297,481.3 297.8,482.3 299.5,470.9 C300.4,464.9 308.8,430 310,427.2 C311,424.9 315.3,424 316.4,425.8 C316.8,426.3 317.2,430.9 317.5,436.1 C317.7,441.2 318.2,450.4 318.5,456.4 C318.8,462.5 319.3,472.9 319.5,479.7 L320,491.9 L317.7,491.9 C315.4,491.9 315.3,491.7 314.2,474.7 C313.5,465.2 313,452.8 313,447.2 C313,441.5 312.6,436.9 312.2,436.9 C311.7,436.9 310.4,441.3 309.2,446.7 C303,474.3 298.6,491.1 297.3,491.6 C295,492.5 294.3,491 292.2,480.9 C291.1,475.7 288.8,464.7 287.1,456.4 C285.3,448.2 283.7,440.4 283.4,439.1 C282.1,432.9 281.2,440.1 280.6,462.1 C279.8,491.2 279.7,491.9 276.3,491.9 C274.3,491.9 273.9,491.5 274.4,490.2 Z" id="Path"></path>
                <path d="M340.4,490.4 C333.5,487.4 329.2,479.3 326.9,465.4 C326,459.7 326.1,456.9 327.4,450.2 C328.2,445.7 329.6,440.5 330.3,438.6 C334.1,429.6 343.7,423.6 350.9,425.8 C358.3,428 362.4,433.1 365.7,444.3 C367.6,450.6 367.7,463.5 366,471.2 C362.4,486.9 351.4,495.2 340.4,490.4 Z M352.7,483.9 C358.9,480.1 362.6,468.4 361.7,455.3 C361,444.6 359.5,440.4 355,435.5 C351.7,432 350.6,431.4 347,431.4 C343.4,431.4 342.3,432 339,435.6 C333.9,441 332.5,446.1 332.5,459.4 C332.5,469.3 332.8,471 335.2,476.1 C339.4,485.1 346,488.1 352.7,483.9 Z" id="Shape"></path>
                <path d="M387.6,490.2 C387.1,488.6 386,483.3 381.5,462.4 C380.8,459.1 378.9,449.9 377.1,442 C373.4,425 373.4,424.9 376,424.9 C378.7,424.9 379.5,427 382.6,442.4 C387,464.3 389.9,479.3 390,480.7 C390,483.5 391.9,480.7 392.9,476.2 C393.4,473.5 396,462 398.5,450.4 C401,438.9 403.5,428.4 404,427.2 C405.1,424.6 409,424 409,426.4 C409,427.2 407,436.1 404.6,446.1 C402.2,456.2 398.8,470.6 397,478.2 C393.7,491.7 393.7,491.9 390.9,491.9 C389.1,491.9 387.9,491.3 387.6,490.2 Z" id="Path"></path>
                <path d="M417,459.7 C417,441.9 417.4,426.8 417.9,426.1 C418.4,425.3 419.6,424.9 420.6,425.1 C422.4,425.4 422.5,427 422.8,458.7 L423,491.9 L420,491.9 L417,491.9 L417,459.7 Z" id="Path"></path>
                <path d="M434.2,458.7 L434.5,425.4 L446.1,425.1 C458.5,424.8 459.5,425.2 458.3,429.8 C457.8,431.7 457.1,431.9 448.9,431.9 L439.9,431.9 L440.2,443.1 L440.5,454.3 L447.3,454 C454.8,453.7 457,454.8 457,458.5 C457,460.8 456.8,460.9 448.5,460.9 L439.9,460.9 L440.2,473.1 L440.5,485.2 L447.8,485 C457.3,484.7 459,485.3 459,489 L459,491.9 L446.5,491.9 L434,491.9 L434.2,458.7 Z" id="Path"></path>
                <path d="M469.3,489.9 C466.2,488 464.9,484.7 466.8,483.5 C467.3,483.2 469.3,483.6 471.4,484.3 C479.9,487.2 487,482.8 487,474.6 C487,468.9 484.2,464.7 477.7,460.6 C468.5,454.7 465,447.3 467,438.2 C469.1,429 476.1,423.7 484.2,425.3 C489.2,426.3 490.4,427.3 489.6,430.2 C489,432.6 488.8,432.7 483.1,432.2 C477.7,431.7 476.9,431.9 474.6,434.2 C472.5,436.3 472,437.8 472,441.9 C472,447.5 473.5,449.4 483,456.3 C491.1,462.1 494.1,471.5 490.9,481 C487.7,490.4 477.2,494.8 469.3,489.9 Z" id="Path"></path>
                <path d="M0.6,339.4 C0.3,338.5 0,276.9 0,202.5 C0,69.8 0,67.2 2,59.9 C9.5,32.4 22.9,15 43,6.9 C57.3,1.2 65.6,0.1 93,0.2 L117.5,0.4 L117.3,15.9 C117.2,24.4 116.8,33.9 116.4,36.9 C115.9,41.6 115.6,42.1 114.6,40.6 C113.5,39.3 112.7,39.1 109.9,39.9 C108,40.5 104.5,41 102.1,41.1 C99.7,41.2 96,42.1 93.9,43.1 C91.8,44.1 89.3,44.9 88.4,44.9 C87.5,44.9 82.5,46.9 77.3,49.4 C64.5,55.7 55.6,64 50.5,74.7 C44.5,87.2 44.2,88.2 41.1,102.9 C34.4,135.6 35.3,204.5 42.9,233.9 C44.2,239 47.9,248.7 50,252.9 C54.7,262.1 66.8,269.8 79.7,271.8 C83.6,272.4 87.6,272.6 88.5,272.3 C89.5,271.9 90.6,272.2 91,272.9 C91.6,273.9 92.5,273.9 95,273 C96.8,272.4 100.7,271.9 103.5,271.9 C111.8,271.9 115,271 115.1,268.5 C115.2,267.4 115.6,268.2 116,270.5 C116.5,272.8 117,282.9 117.2,293 L117.5,311.3 L105.5,314.6 C98.9,316.4 88.3,319.3 82,321 C75.7,322.7 68,324.7 65,325.5 C39.6,332.4 11.7,339.4 5.4,340.4 C2.1,340.9 1.1,340.7 0.6,339.4 Z" id="Path"></path>
                <path d="M181.4,283.7 C181.7,278.7 182,269 182,262.2 C182,254.2 182.4,250 183,250.4 C183.6,250.7 184,251.9 184,253 C184,254.1 184.7,254.9 185.8,254.9 C187.4,254.9 194.2,252.8 198.5,251 C199.6,250.5 203.9,249.2 208,248 C212.1,246.8 216.9,245.4 218.5,244.9 C220.2,244.4 224.5,243.2 228.2,242.3 C234.6,240.6 234.9,240.4 234.5,238 C234.2,236.6 234.3,236.1 234.6,236.9 C235,237.7 236,239.3 237,240.4 C238,241.5 242.3,248.8 246.5,256.7 C251.8,266.4 254,271.3 253.3,272 C252.7,272.6 250.7,273.4 248.9,273.9 C243.7,275.3 240.6,276.1 210.5,284.8 C195.1,289.3 182.1,292.9 181.6,292.9 C181.1,292.9 181,289 181.4,283.7 Z" id="Path"></path>
                <path d="M317.1,247.7 C316.6,246.4 313.7,240.2 310.7,233.8 C305.6,223.4 302.3,214.2 304.8,217.7 C306,219.5 313.6,217.3 315.4,214.7 C316.6,213 316.8,213 317.4,214.4 C318.3,216.7 319.4,249.9 318.6,249.9 C318.3,249.9 317.6,248.9 317.1,247.7 Z" id="Path"></path>
                <path d="M382.6,231.4 C381.9,229.6 383.6,188 384.4,187.2 C384.7,186.9 385,187.7 385,189.2 C385,192.9 386.3,193.2 391.7,190.8 C404.5,185 406.7,184.1 409,183.4 C416.7,181 435.1,168.5 445,158.8 C450.4,153.4 451.5,151.8 453.9,144.9 C454.6,143 456.1,139.2 457.1,136.4 C460.4,128 461.3,121 461.3,106.4 C461.3,89.1 460,80.8 456,73 C454.4,69.7 453,66.5 453,66 C453,64.3 447.1,56.1 444.3,53.9 C442.9,52.8 440.9,51.9 439.9,51.9 C438.8,51.9 438,51.5 438,51.1 C438,50.7 435.2,49 431.8,47.4 C424.9,44.2 424.8,44.2 420.5,43.3 C418.9,43 416.8,42.5 416,42.2 C415.2,41.9 413.2,41.5 411.5,41.3 C409.9,41.1 406.5,40.5 404,39.9 C401.5,39.4 396.4,38.8 392.5,38.7 L385.6,38.4 L385,41.4 C384.5,43.8 384.2,43.1 383.7,37.9 C382.6,27.1 382.1,2.4 382.9,1.1 C383.5,0.2 397.1,-0.1 440.6,0.1 L497.5,0.4 L497.8,93.3 C498,180.7 497.9,186.3 496.3,188.2 C490.1,195.1 459.8,207.3 397.8,227.8 C386.9,231.4 383,232.3 382.6,231.4 Z" id="Path"></path>
                <path d="M211.1,37.8 C210.4,36.6 209,34.1 207.9,32.3 C206.9,30.4 205,27.2 203.9,25.2 C202.7,23.1 200.4,18.9 198.7,15.9 C197.1,12.9 194.7,8.5 193.4,6.2 C192.1,3.9 191,1.6 191,1 C191,0.2 209.6,-1.38777878e-17 254.8,0.1 L318.5,0.4 L318.3,18.2 C318.2,28 317.6,36.8 317.1,37.7 C316.2,39.2 316.1,39.2 316,37.8 C316,35.3 307.7,34.9 257.1,34.9 L211.8,34.9 L212.4,37.4 C213.2,40.5 212.9,40.5 211.1,37.8 Z" id="Path"></path>
            </g>
            <g id="layer104" transform="translate(36.600000, 26.800000)" fill="#CC8B77">
                <path d="M80.3,258.5 C80.3,250.6 78.8,238.6 78.5,243.8 C78.4,246.3 75.2,247.2 66.9,247.2 C64.1,247.2 60.2,247.7 58.4,248.3 C55.9,249.2 55,249.2 54.4,248.2 C54,247.5 52.9,247.2 51.9,247.6 C48.7,248.8 36,246 29.2,242.6 C14.4,235.2 8.4,223.9 3.4,193.6 C-0.4,170.3 -1.1,123.1 2,93.7 C3,84.1 7.1,65.2 9.4,59.7 C17.3,40.9 24.9,32.4 40.7,24.7 C45.9,22.2 50.9,20.2 51.8,20.2 C52.7,20.2 55.2,19.4 57.3,18.4 C59.4,17.4 63.1,16.5 65.5,16.4 C67.9,16.3 71.4,15.8 73.3,15.2 C76.1,14.4 76.9,14.6 78,16 C79.5,18 79.3,19.1 80.4,4.2 C81,-3.1 81.1,0.9 80.8,17.2 C80.2,46.5 79.5,56.6 78.1,53.4 C77,51 75.9,50.6 74.9,52.2 C74.6,52.8 73,53.2 71.4,53.2 C67.4,53.2 63.4,54.9 60.8,57.7 C59.5,59.1 57.6,60.2 56.4,60.2 C55.3,60.2 54.4,60.7 54.4,61.3 C54.4,61.8 52.9,63.7 51.2,65.3 C49.4,66.9 47.9,68.8 47.9,69.5 C47.9,70.2 46.9,71.9 45.6,73.2 C44.4,74.5 43.4,76.2 43.4,76.9 C43.4,77.6 43,78.2 42.4,78.2 C41.9,78.2 41.4,78.7 41.4,79.4 C41.4,80 40.7,81.4 39.7,82.4 C38.8,83.4 37.9,85.4 37.8,87 C36.6,97.3 36.1,99.8 35.3,100.6 C34.8,101.2 34.4,105.3 34.4,109.9 C34.4,114.8 34,118.2 33.4,118.2 C32.8,118.2 32.4,125.4 32.4,137.7 C32.4,150 32.8,157.2 33.4,157.2 C34,157.2 34.4,160.5 34.4,165.1 C34.4,169.5 34.9,173.4 35.4,173.7 C36,174 36.4,176.3 36.4,178.7 C36.4,181.1 36.8,183.3 37.3,183.7 C37.8,184 38.5,185.6 38.9,187.3 C39.3,189 40.2,191.5 40.9,192.9 C42.4,195.8 51.9,205.2 53.4,205.2 C53.9,205.2 54.4,205.7 54.4,206.2 C54.4,206.8 55.3,207.2 56.3,207.2 C57.4,207.2 58.4,207.7 58.6,208.2 C58.8,208.8 62.9,209.5 67.7,209.9 C75.4,210.4 76.6,210.3 77.8,208.7 C78.9,207.1 79.2,207.7 79.7,213.3 C80.7,223.3 81.8,267.2 81.1,267.2 C80.7,267.2 80.4,263.3 80.3,258.5 Z" id="Path"></path>
                <path d="M147.4,228.3 C147.4,227.2 147,226 146.4,225.7 C145.8,225.3 145.4,204.8 145.4,167.4 C145.4,129.8 145.8,110.2 146.4,111.2 C147,112.1 147.4,129.2 147.4,154.5 L147.4,196.2 L150.8,196.2 C152.7,196.2 154.6,195.8 154.9,195.2 C155.2,194.7 156.5,194.2 157.7,194.2 C158.9,194.2 160.8,193.5 161.8,192.7 C162.9,191.9 164.8,191.2 166.1,191.2 C167.4,191.2 168.4,190.7 168.4,190.1 C168.4,189.4 169.4,189.2 171.1,189.6 C172.7,190.1 174,189.9 174.4,189.2 C174.8,188.5 176.6,187.7 178.5,187.3 C180.9,186.8 182,186 182.4,184.2 L183,181.7 L184.6,184.7 C185.4,186.4 187.9,190.9 190.1,194.7 C199.2,210.8 202.7,217.6 201,216.2 C200,215.4 198.8,213.9 198.3,212.7 C197.5,211 197.4,211.1 197.8,213.3 C198.3,215.7 198,215.9 191.6,217.6 C187.9,218.5 183.6,219.7 181.9,220.2 C180.3,220.7 175.5,222.1 171.4,223.3 C167.3,224.5 163,225.8 161.9,226.3 C157.6,228.1 150.8,230.2 149.2,230.2 C148.1,230.2 147.4,229.4 147.4,228.3 Z" id="Path"></path>
                <path d="M265.4,192.9 C253.3,167.5 251.6,163.7 252.1,163.2 C252.4,162.9 252.9,163.3 253.1,163.9 C253.6,165.3 257.9,164.7 260.1,163 C260.8,162.4 262.1,162.2 262.9,162.6 C263.8,162.9 264.7,162.6 265,161.8 C265.3,161 267.9,160.2 271.5,159.8 C278.9,159.1 279.4,158.8 279.5,155.4 C279.5,152.8 279.6,152.8 280.4,155 C280.9,156.2 281.5,167.7 281.8,180.5 C282,193.2 282,201.2 281.8,198.2 C281.6,195.2 281.1,191.6 280.8,190.3 C280.3,188 280.3,188 278.9,189.9 C277,192.6 269.4,194.9 268.3,193 C266.6,190.4 267.4,194.6 269.4,199.1 C270.5,201.5 271.3,203.7 271.1,203.8 C270.9,204 268.3,199.1 265.4,192.9 Z" id="Path"></path>
                <path d="M346.9,90.7 C346.9,47.8 347.1,14.3 347.3,16.2 L347.7,19.7 L348.3,16.7 L349,13.7 L355.9,14 C359.8,14.1 364.9,14.7 367.4,15.2 C369.9,15.8 373.3,16.4 374.9,16.6 C376.6,16.8 378.6,17.2 379.4,17.5 C380.2,17.8 382.3,18.3 383.9,18.6 C388.2,19.5 388.3,19.5 395.2,22.7 C398.6,24.3 401.4,26 401.4,26.4 C401.4,26.8 402.2,27.2 403.3,27.2 C404.3,27.2 406.3,28.1 407.7,29.2 C410.5,31.4 416.4,39.6 416.4,41.3 C416.4,41.8 417.8,45 419.4,48.3 C423.4,56.1 424.7,64.4 424.7,81.7 C424.7,96.3 423.8,103.3 420.5,111.7 C419.5,114.5 418,118.3 417.3,120.2 C414.9,127.1 413.8,128.7 408.4,134.1 C398.5,143.8 380.1,156.3 372.4,158.7 C370.1,159.4 367.9,160.3 355.1,166.1 C349.7,168.5 348.5,168.2 348.3,164.4 C348.2,162.1 348,162.2 347.5,165.2 C347.2,167.1 346.9,133.6 346.9,90.7 Z M351.4,131.2 C351.4,130.7 352,130.2 352.8,130.2 C353.6,130.2 354.4,129.7 354.6,129.1 C354.8,128.6 355.6,128 356.4,127.8 C360,127.1 363.3,125.1 365.3,122.5 C366.5,121 370.9,116.3 375,112 C379.1,107.8 382.4,103.7 382.4,102.9 C382.4,102 382.9,101 383.4,100.7 C384,100.4 384.4,99 384.4,97.6 C384.4,96.3 384.9,95.2 385.4,95.2 C386,95.2 386.4,91 386.4,84.7 C386.4,78.4 386,74.2 385.4,74.2 C384.9,74.2 384.4,73.3 384.4,72.2 C384.4,71.1 384,70.2 383.4,70.2 C382.9,70.2 382.4,69.5 382.4,68.8 C382.4,68 381.4,66.2 380.2,64.8 C378.9,63.5 376.3,60.5 374.4,58.3 C372.5,56 370.4,54.4 369.7,54.6 C369.1,54.9 368.3,54.5 368.1,53.8 C367.8,53 366.6,52.6 365.1,52.9 C363.7,53.2 362.3,52.9 362,52.3 C361.6,51.7 360.2,51.2 358.8,51.2 C357.5,51.2 356.4,50.8 356.4,50.3 C356.4,48.8 349.5,48.5 348.9,50 C348.2,51.9 348.3,127.2 349,130 C349.6,132.2 351.4,133.1 351.4,131.2 Z" id="Shape"></path>
                <path d="M192.1,47.5 C191.7,46.5 190.3,43.7 188.8,41.2 C184.7,34.4 182.6,30.6 176.7,19.5 C171.3,9.3 170.3,6.2 174.3,12.5 C176.4,15.6 176.4,15.7 175.8,13 L175.2,10.2 L220.5,10.2 C270.6,10.2 279.4,10.6 279.4,13 C279.4,13.8 279.7,14.2 280.2,13.8 C280.6,13.4 281.2,9.8 281.6,5.9 C281.9,1.9 282.1,8.4 281.8,20.4 C281.6,32.3 281.1,43.5 280.7,45.4 L280,48.7 L279.4,45.7 L278.9,42.7 L235.6,42.4 L192.3,42.2 L193,45.7 C193.6,49.3 193.1,50.5 192.1,47.5 Z" id="Path"></path>
            </g>
            <g id="layer105" transform="translate(0.000000, 0.900000)" fill="#D09B8C">
                <path d="M3,493.7 C3,493.5 4.1,493.1 5.5,492.9 C6.8,492.6 7.7,492.8 7.4,493.2 C6.9,494.1 3,494.5 3,493.7 Z" id="Path"></path>
                <path d="M31.8,493.4 C32.5,493.1 33.4,493.2 33.7,493.5 C34.1,493.8 33.5,494.1 32.4,494 C31.3,494 31,493.7 31.8,493.4 Z" id="Path"></path>
                <path d="M44.8,493.4 C45.4,493.2 46.6,493.2 47.3,493.4 C47.9,493.7 47.4,493.9 46,493.9 C44.6,493.9 44.1,493.7 44.8,493.4 Z" id="Path"></path>
                <path d="M75.8,493.4 C76.4,493.2 77.6,493.2 78.3,493.4 C78.9,493.7 78.4,493.9 77,493.9 C75.6,493.9 75.1,493.7 75.8,493.4 Z" id="Path"></path>
                <path d="M89.5,492.8 C89.2,492.2 89.1,476.7 89.2,458.6 L89.5,425.6 L92.4,425.3 C94,425.1 95.6,425.3 96.1,425.8 C96.6,426.3 95.5,426.5 93.5,426.3 L90,425.9 L90,459.4 L90,493 L92.3,493.4 L94.5,493.8 L92.2,494 C91,494 89.7,493.5 89.5,492.8 Z" id="Path"></path>
                <path d="M118.8,493.4 C119.4,493.2 120.6,493.2 121.3,493.4 C121.9,493.7 121.4,493.9 120,493.9 C118.6,493.9 118.1,493.7 118.8,493.4 Z" id="Path"></path>
                <path d="M140.8,493.4 C142,493.2 144,493.2 145.3,493.4 C146.5,493.6 145.5,493.8 143,493.8 C140.5,493.8 139.5,493.6 140.8,493.4 Z" id="Path"></path>
                <path d="M178.8,493.4 C179.4,493.2 180.6,493.2 181.3,493.4 C181.9,493.7 181.4,493.9 180,493.9 C178.6,493.9 178.1,493.7 178.8,493.4 Z" id="Path"></path>
                <path d="M210.8,493.4 C211.5,493.1 212.4,493.2 212.7,493.5 C213.1,493.8 212.5,494.1 211.4,494 C210.3,494 210,493.7 210.8,493.4 Z" id="Path"></path>
                <path d="M223.8,493.4 C224.5,493.1 225.4,493.2 225.7,493.5 C226.1,493.8 225.5,494.1 224.4,494 C223.3,494 223,493.7 223.8,493.4 Z" id="Path"></path>
                <path d="M247.3,493.4 C247.7,493.1 248.3,493.1 248.7,493.4 C249,493.8 248.7,494.1 248,494.1 C247.3,494.1 247,493.8 247.3,493.4 Z" id="Path"></path>
                <path d="M1.4,459.6 C1.4,440.9 1.6,433.4 1.7,442.9 C1.9,452.4 1.9,467.7 1.7,476.9 C1.6,486.1 1.4,478.3 1.4,459.6 Z" id="Path"></path>
                <path d="M28,492.1 C28,491.4 28.3,491.1 28.7,491.4 C29,491.8 29,492.4 28.7,492.8 C28.3,493.1 28,492.8 28,492.1 Z" id="Path"></path>
                <path d="M35.2,459.9 L35,426.1 L32.5,426.1 L30,426.1 L29.7,448.9 L29.4,471.6 L29.5,448.6 L29.5,425.6 L32.3,425.3 C33.9,425.1 35.2,425.5 35.5,426.3 C35.8,427 35.9,442.5 35.7,460.6 L35.5,493.6 L35.2,459.9 Z" id="Path"></path>
                <path d="M42.1,491.5 C42.1,490.4 42.4,490.1 42.7,490.9 C43,491.6 42.9,492.5 42.6,492.8 C42.3,493.2 42,492.6 42.1,491.5 Z" id="Path"></path>
                <path d="M80,492.1 C80,491.4 80.3,491.1 80.7,491.4 C81,491.8 81,492.4 80.7,492.8 C80.3,493.1 80,492.8 80,492.1 Z" id="Path"></path>
                <path d="M95.4,469.6 C95.4,456.4 95.6,451.1 95.7,457.9 C95.9,464.7 95.9,475.5 95.7,481.9 C95.6,488.3 95.4,482.8 95.4,469.6 Z" id="Path"></path>
                <path d="M114.6,489.8 C112.8,485.4 111.6,481.5 112.3,482.1 C113.1,482.9 117,493.1 116.5,493.1 C116.2,493.1 115.4,491.6 114.6,489.8 Z" id="Path"></path>
                <path d="M123.4,460.1 C123.4,441.7 123.6,434.1 123.7,443.4 C123.9,452.6 123.9,467.6 123.7,476.9 C123.6,486.1 123.4,478.5 123.4,460.1 Z" id="Path"></path>
                <path d="M133.2,461 C133,427.5 133.2,426 137,426.2 C138,426.2 137.9,426.5 136.5,427 C134.6,427.8 134.5,429 134,460.7 L133.5,493.6 L133.2,461 Z" id="Path"></path>
                <path d="M153.9,492 C155.3,491.5 156.9,490.7 157.5,490.3 C158.1,489.9 157.7,490.4 156.7,491.4 C155.6,492.3 154,493.1 153.1,493 C152.1,493 152.4,492.6 153.9,492 Z" id="Path"></path>
                <path d="M176,492.1 C176,491.4 176.3,491.1 176.7,491.4 C177,491.8 177,492.4 176.7,492.8 C176.3,493.1 176,492.8 176,492.1 Z" id="Path"></path>
                <path d="M183.1,491.5 C183.1,490.4 183.4,490.1 183.7,490.9 C184,491.6 183.9,492.5 183.6,492.8 C183.3,493.2 183,492.6 183.1,491.5 Z" id="Path"></path>
                <path d="M207,492.1 C207,491.4 207.3,491.1 207.7,491.4 C208,491.8 208,492.4 207.7,492.8 C207.3,493.1 207,492.8 207,492.1 Z" id="Path"></path>
                <path d="M213.5,490.1 C213.1,488.4 213,486.7 213.3,486.5 C213.5,486.2 214,487.5 214.4,489.2 C215.2,493.4 214.4,494.2 213.5,490.1 Z" id="Path"></path>
                <path d="M227,492.1 C227,491.4 227.3,491.1 227.7,491.4 C228,491.8 228,492.4 227.7,492.8 C227.3,493.1 227,492.8 227,492.1 Z" id="Path"></path>
                <path d="M244,492.1 C244,491.4 244.3,491.1 244.7,491.4 C245,491.8 245,492.4 244.7,492.8 C244.3,493.1 244,492.8 244,492.1 Z" id="Path"></path>
                <path d="M250.6,490.5 C250.2,489.1 250.1,487.7 250.3,487.4 C250.6,487.2 251.1,488.2 251.4,489.7 C251.8,491.1 251.9,492.5 251.7,492.8 C251.4,493 250.9,492 250.6,490.5 Z" id="Path"></path>
                <path d="M279.1,491.5 C279.1,490.4 279.4,490.1 279.7,490.9 C280,491.6 279.9,492.5 279.6,492.8 C279.3,493.2 279,492.6 279.1,491.5 Z" id="Path"></path>
                <path d="M293.4,491.6 C293.1,490.8 293,489.6 293.2,488.9 C293.5,488.2 293.9,488.8 294.2,490.4 C294.8,493.3 294.3,494 293.4,491.6 Z" id="Path"></path>
                <path d="M299.8,487.1 C300.6,483.8 301.5,481.3 301.7,481.5 C302.4,482.1 299.8,493.1 299,493.1 C298.6,493.1 299,490.4 299.8,487.1 Z" id="Path"></path>
                <path d="M313.8,491.1 C313.4,489.7 313.2,483.4 313.2,477.1 L313.3,465.6 L314.2,476.1 C314.6,481.9 314.9,488.2 314.8,490.1 C314.5,493.3 314.4,493.4 313.8,491.1 Z" id="Path"></path>
                <path d="M320.1,492.4 C320.1,491.8 319.7,490.4 319.4,489.4 C318.9,488 319,487.9 319.9,488.7 C320.6,489.4 321,490.7 320.7,491.7 C320.4,492.8 320.2,493.1 320.1,492.4 Z" id="Path"></path>
                <path d="M336.9,490.4 C332.9,487 328,479.4 328.1,476.7 C328.1,475.4 328.7,476.1 329.6,478.6 C331.5,483.9 336.4,489.8 340.4,491.6 C342.2,492.3 342.8,493 341.8,493 C340.9,493.1 338.7,491.9 336.9,490.4 Z" id="Path"></path>
                <path d="M354.5,490.8 C357.1,489.4 359.7,486.6 361.8,483.1 C365.4,477.1 366.1,477.1 363,483 C360.9,487.2 354.5,493.1 352,493.1 C351.2,493.1 352.3,492 354.5,490.8 Z" id="Path"></path>
                <path d="M386.6,491.6 C386.3,490.7 386,489.2 386.1,488.3 C386.1,487.4 386.6,487.9 387.1,489.5 C388,492.7 387.7,494.3 386.6,491.6 Z" id="Path"></path>
                <path d="M394.1,491.5 C394.1,490.4 394.4,490.1 394.7,490.9 C395,491.6 394.9,492.5 394.6,492.8 C394.3,493.2 394,492.6 394.1,491.5 Z" id="Path"></path>
                <path d="M423.2,460.3 L423,427 L420.8,426.1 C419.5,425.6 419.2,425.2 420,425.2 C424,425.1 424,425.5 423.7,460.2 L423.5,493.6 L423.2,460.3 Z" id="Path"></path>
                <path d="M433.2,460.4 C433.1,442.2 433.3,427 433.8,426.8 C434.2,426.5 434.4,436.3 434.2,448.4 C433.8,489.8 433.4,493.7 433.2,460.4 Z" id="Path"></path>
                <path d="M459,490.2 C459,488.6 458.4,487 457.8,486.8 C457,486.5 457.2,486.2 458.3,486.2 C459.6,486.1 460,486.9 460,489.6 C460,491.5 459.8,493.1 459.5,493.1 C459.2,493.1 459,491.8 459,490.2 Z" id="Path"></path>
                <path d="M467.3,491.4 C466,490.6 465,488.9 465.1,487.7 L465.1,485.6 L466,487.8 C466.5,489 468.2,490.7 469.7,491.5 C471.2,492.3 471.8,493 471,493 C470.2,493 468.5,492.3 467.3,491.4 Z" id="Path"></path>
                <path d="M483.5,491.2 C487.4,488.9 489.5,486.3 490.8,482.6 C491.6,480.4 491.9,480.1 491.9,481.6 C492.1,485.2 485.2,493.1 482,493.1 C481.2,493.1 481.9,492.3 483.5,491.2 Z" id="Path"></path>
                <path d="M49.1,490.5 C49.1,489.4 49.4,489.1 49.7,489.9 C50,490.6 49.9,491.5 49.6,491.8 C49.3,492.2 49,491.6 49.1,490.5 Z" id="Path"></path>
                <path d="M72.2,489.1 C72.2,487.7 72.4,487.2 72.7,487.9 C72.9,488.5 72.9,489.7 72.7,490.4 C72.4,491 72.2,490.5 72.2,489.1 Z" id="Path"></path>
                <path d="M274.3,482.1 C274.3,476.9 274.6,467.7 275,461.6 L275.7,450.6 L275.7,464.1 C275.7,471.5 275.4,480.8 275,484.6 L274.3,491.6 L274.3,482.1 Z" id="Path"></path>
                <path d="M26.6,488.6 C25.7,486 25.9,485.4 27.1,487.4 C27.7,488.4 28,489.5 27.7,489.7 C27.5,490 27,489.5 26.6,488.6 Z" id="Path"></path>
                <path d="M79.1,488.5 C79.1,487.4 79.4,487.1 79.7,487.9 C80,488.6 79.9,489.5 79.6,489.8 C79.3,490.2 79,489.6 79.1,488.5 Z" id="Path"></path>
                <path d="M177.2,488.6 C177.2,487.5 177.6,485.5 178,484.1 C178.6,482.1 178.8,482 178.8,483.6 C178.8,484.7 178.4,486.7 178,488.1 C177.4,490.1 177.2,490.2 177.2,488.6 Z" id="Path"></path>
                <path d="M43.2,487.6 C43.2,486.5 43.6,484.5 44,483.1 C44.6,481.1 44.8,481 44.8,482.6 C44.8,483.7 44.4,485.7 44,487.1 C43.4,489.1 43.2,489.2 43.2,487.6 Z" id="Path"></path>
                <path d="M160,488.7 C160,488.5 160.8,487.7 161.8,487 C163.3,485.7 163.4,485.8 162.1,487.4 C160.8,489 160,489.5 160,488.7 Z" id="Path"></path>
                <path d="M184.2,487.1 C184.2,485.7 184.4,485.2 184.7,485.9 C184.9,486.5 184.9,487.7 184.7,488.4 C184.4,489 184.2,488.5 184.2,487.1 Z" id="Path"></path>
                <path d="M206.1,487.5 C206.1,486.4 206.4,486.1 206.7,486.9 C207,487.6 206.9,488.5 206.6,488.8 C206.3,489.2 206,488.6 206.1,487.5 Z" id="Path"></path>
                <path d="M395,488 C395.1,485.7 398.8,472.4 398.9,474.3 C399,476 396.1,488.3 395.4,489 C395.2,489.2 395,488.8 395,488 Z" id="Path"></path>
                <path d="M50.1,487.1 C50.1,486.3 50.7,483.4 51.4,480.6 C52.2,477.9 52.9,476.3 52.9,477.1 C52.9,477.9 52.3,480.9 51.6,483.6 C50.8,486.4 50.1,487.9 50.1,487.1 Z" id="Path"></path>
                <path d="M242.6,485.9 C242.3,484.6 242.1,482.5 242.1,481.1 C242.2,479.6 242.6,480.4 243.1,483 C244,487.7 243.7,489.8 242.6,485.9 Z" id="Path"></path>
                <path d="M140.6,486.3 C140.4,485.9 141.8,485.7 143.8,485.9 C149.4,486.4 150,486.9 145.3,487 C143,487.1 140.9,486.7 140.6,486.3 Z" id="Path"></path>
                <path d="M280.7,463.6 C281.2,441.6 282.1,434 283.4,440.2 C283.7,441.5 285.3,449.4 287.1,457.6 C288.8,465.9 290.9,475.7 291.7,479.5 C292.5,483.2 293,486.5 292.7,486.7 C292.5,486.9 291.1,481.6 289.6,474.8 C288.1,468.1 285.9,457.9 284.5,452.1 L282.2,441.6 L281.9,452.6 C281.8,458.7 281.4,469 281,475.6 C280.5,483.4 280.4,479.2 280.7,463.6 Z" id="Path"></path>
                <path d="M341.2,485.1 C335.8,481.8 332.8,473.9 332.4,462.2 L332.1,452.6 L333,462.4 C334.2,477.4 339.5,486.1 347.3,486.1 C350.7,486.1 355.9,481.6 358.1,476.6 C359.1,474.4 360,473.2 360,473.9 C360,476.7 355.8,483.3 352.7,485.1 C348.6,487.6 345.4,487.6 341.2,485.1 Z" id="Path"></path>
                <path d="M440.4,485.9 C440,485.2 440.1,485.1 440.8,485.5 C442,486.2 442.4,487.1 441.6,487.1 C441.3,487.1 440.8,486.6 440.4,485.9 Z" id="Path"></path>
                <path d="M471.6,485.6 C469.4,484.8 467.3,484.4 466.8,484.7 C466.4,485 466,484.8 466,484.2 C466,482.4 467.7,482.1 469.6,483.6 C470.6,484.4 472.3,485.1 473.2,485.1 C474.1,485.1 475.2,485.6 475.5,486.1 C476.3,487.3 476.4,487.3 471.6,485.6 Z" id="Path"></path>
                <path d="M478.6,486 C478.9,485.5 479.8,485.1 480.6,485.1 C482.7,485.1 486,479.1 486,475.3 C486,471.1 483.9,466.9 480.3,464.1 C477.9,462.2 477.8,462.1 480,463.3 C486.9,467.4 489.2,477.3 484.5,482.9 C482.3,485.6 477.2,488.2 478.6,486 Z" id="Path"></path>
                <path d="M71.1,484.5 C71.1,483.4 71.4,483.1 71.7,483.9 C72,484.6 71.9,485.5 71.6,485.8 C71.3,486.2 71,485.6 71.1,484.5 Z" id="Path"></path>
                <path d="M77.6,483 C76.8,478.8 77.6,478 78.5,482.1 C78.9,483.8 79,485.5 78.7,485.7 C78.5,486 78,484.7 77.6,483 Z" id="Path"></path>
                <path d="M151,485.4 C151.8,485.1 153.9,483.9 155.5,482.9 L158.5,480.9 L155.5,483.5 C153.9,484.9 151.8,486.1 151,486 C149.7,486 149.7,485.9 151,485.4 Z" id="Path"></path>
                <path d="M383.6,478.1 C382.7,473.6 382.1,469.7 382.3,469.4 C382.9,468.8 386.2,483.9 385.8,485.3 C385.6,485.9 384.6,482.7 383.6,478.1 Z" id="Path"></path>
                <path d="M24.6,483.6 C23.7,481 23.9,480.4 25.1,482.4 C25.7,483.4 26,484.5 25.7,484.7 C25.5,485 25,484.5 24.6,483.6 Z" id="Path"></path>
                <path d="M164.1,483.4 C164.8,482.2 165.6,481.4 165.9,481.7 C166.2,481.9 165.6,482.9 164.6,483.9 C162.9,485.5 162.8,485.5 164.1,483.4 Z" id="Path"></path>
                <path d="M205.1,483.5 C205.1,482.4 205.4,482.1 205.7,482.9 C206,483.6 205.9,484.5 205.6,484.8 C205.3,485.2 205,484.6 205.1,483.5 Z" id="Path"></path>
                <path d="M211.6,482 C210.8,477.8 211.6,477 212.5,481.1 C212.9,482.8 213,484.5 212.7,484.7 C212.5,485 212,483.7 211.6,482 Z" id="Path"></path>
                <path d="M248.5,480.6 C248.2,478 248.1,475.7 248.3,475.5 C248.6,475.2 249.1,477.1 249.5,479.6 C249.8,482.2 249.9,484.5 249.7,484.7 C249.4,485 248.9,483.1 248.5,480.6 Z" id="Path"></path>
                <path d="M185.2,483.1 C185.2,482.3 185.6,480.5 186,479.1 C186.6,477.1 186.8,477 186.8,478.6 C186.8,479.7 186.5,481.5 186,482.6 C185.5,483.8 185.2,484 185.2,483.1 Z" id="Path"></path>
                <path d="M389.1,476.8 C388.5,473.3 388,470 388.1,469.5 C388.2,467.6 389.9,472.7 389.9,475.4 C390,479.4 391.8,478.7 392.6,474.4 C392.9,472.3 395.4,460.8 398.1,448.8 C400.8,436.9 403,426.9 403,426.6 C403,426.3 403.4,426.1 404,426.1 C404.6,426.1 404.6,426.9 404,428.4 C403.5,429.6 401,440.1 398.5,451.6 C396,463.2 393.4,474.7 392.9,477.4 C392.3,480 391.4,482.3 391,482.6 C390.6,482.9 389.7,480.2 389.1,476.8 Z" id="Path"></path>
                <path d="M70.1,480.5 C70.1,479.4 70.4,479.1 70.7,479.9 C71,480.6 70.9,481.5 70.6,481.8 C70.3,482.2 70,481.6 70.1,480.5 Z" id="Path"></path>
                <path d="M111,480.9 C111,480.6 110.3,478.7 109.5,476.7 C108.7,474.7 108.2,473.1 108.5,473.1 C109.3,473.1 112.1,480.4 111.5,480.9 C111.2,481.2 111,481.2 111,480.9 Z" id="Path"></path>
                <path d="M179.2,479.6 C179.2,478.5 179.6,476.5 180,475.1 C180.6,473.1 180.8,473 180.8,474.6 C180.8,475.7 180.4,477.7 180,479.1 C179.4,481.1 179.2,481.2 179.2,479.6 Z" id="Path"></path>
                <path d="M203.4,477.9 L202.4,474.6 L194.8,474.6 C190.6,474.6 187.4,474.3 187.7,473.9 C187.9,473.4 191.4,473.1 195.5,473.1 L202.8,473.1 L204,476.7 C204.7,478.6 205,480.4 204.7,480.7 C204.5,480.9 203.9,479.7 203.4,477.9 Z" id="Path"></path>
                <path d="M45.1,478.5 C45.1,477.4 45.4,477.1 45.7,477.9 C46,478.6 45.9,479.5 45.6,479.8 C45.3,480.2 45,479.6 45.1,478.5 Z" id="Path"></path>
                <path d="M158.5,479.1 C158.8,478.6 159.3,478.1 159.6,478.1 C159.9,478.1 159.8,478.6 159.5,479.1 C159.2,479.7 158.7,480.1 158.4,480.1 C158.1,480.1 158.2,479.7 158.5,479.1 Z" id="Path"></path>
                <path d="M166,479.6 C166,479.1 166.5,477.9 167,477.1 C167.5,476.3 168,476.1 168,476.6 C168,477.2 167.5,478.3 167,479.1 C166.5,479.9 166,480.2 166,479.6 Z" id="Path"></path>
                <path d="M296.6,479.3 C295.9,478.2 293,464.5 293.1,462.8 C293.2,460.4 294.8,465.7 295.5,470.9 C295.9,473.7 296.5,476.1 297,476.1 C297.4,476.1 298.3,474 298.8,471.4 L299.9,466.6 L299.3,472.1 C298.7,478.1 297.7,481 296.6,479.3 Z" id="Path"></path>
                <path d="M302.1,479.1 C302.1,478.3 302.9,474.5 303.9,470.6 C305,466.8 305.8,464.3 305.9,465.1 C305.9,465.9 305.1,469.8 304.1,473.6 C303,477.5 302.2,479.9 302.1,479.1 Z" id="Path"></path>
                <path d="M319.3,474.1 C319.3,470.5 319.5,469.1 319.7,470.9 C319.9,472.6 319.9,475.6 319.7,477.4 C319.5,479.1 319.3,477.7 319.3,474.1 Z" id="Path"></path>
                <path d="M492.3,474.1 C492.3,471.1 492.5,469.8 492.7,471.4 C492.9,472.9 492.9,475.3 492.7,476.9 C492.5,478.4 492.3,477.1 492.3,474.1 Z" id="Path"></path>
                <path d="M22,477.1 C22,476.4 22.3,476.1 22.7,476.4 C23,476.8 23,477.4 22.7,477.8 C22.3,478.1 22,477.8 22,477.1 Z" id="Path"></path>
                <path d="M68.7,476.2 C68.2,474.1 67.8,474 60.7,474.3 C56.6,474.5 53.4,474.3 53.7,473.9 C53.9,473.4 57.2,473.1 60.9,473.1 C67.8,473.1 70.7,474.5 69.8,477.3 C69.5,478 69.1,477.5 68.7,476.2 Z" id="Path"></path>
                <path d="M28,475.6 C28,474.8 28.5,474.1 29,474.1 C29.6,474.1 30,474.8 30,475.6 C30,476.4 29.6,477.1 29,477.1 C28.5,477.1 28,476.4 28,475.6 Z" id="Path"></path>
                <path d="M75.6,474 C74.8,469.8 75.6,469 76.5,473.1 C76.9,474.8 77,476.5 76.7,476.7 C76.5,477 76,475.7 75.6,474 Z" id="Path"></path>
                <path d="M115.1,473.9 C114.5,472.2 114.2,470.6 114.4,470.3 C114.7,470.1 115.3,471.2 115.7,472.7 C116.5,475.6 116.5,475.6 117.1,471.6 L117.7,467.6 L117.9,472.4 C118,477.8 116.7,478.6 115.1,473.9 Z" id="Path"></path>
                <path d="M160,476.6 C160,476.1 160.5,474.9 161,474.1 C161.5,473.3 162,473.1 162,473.6 C162,474.2 161.5,475.3 161,476.1 C160.5,476.9 160,477.2 160,476.6 Z" id="Path"></path>
                <path d="M240.1,473.1 C239.5,471 238,468.5 236.7,467.6 C235.5,466.8 235,466.1 235.6,466.1 C237.9,466.1 243.2,475.2 241.8,476.7 C241.5,476.9 240.8,475.3 240.1,473.1 Z" id="Path"></path>
                <path d="M365.2,476.1 C365.2,475.3 365.6,473.5 366,472.1 C366.6,470.1 366.8,470 366.8,471.6 C366.8,472.7 366.5,474.5 366,475.6 C365.5,476.8 365.2,477 365.2,476.1 Z" id="Path"></path>
                <path d="M46.2,474.6 C46.2,473.5 46.6,471.5 47,470.1 C47.6,468.1 47.8,468 47.8,469.6 C47.8,470.7 47.4,472.7 47,474.1 C46.4,476.1 46.2,476.2 46.2,474.6 Z" id="Path"></path>
                <path d="M210.1,474.5 C210.1,473.4 210.4,473.1 210.7,473.9 C211,474.6 210.9,475.5 210.6,475.8 C210.3,476.2 210,475.6 210.1,474.5 Z" id="Path"></path>
                <path d="M168.1,473.5 C168.1,472.4 168.4,472.1 168.7,472.9 C169,473.6 168.9,474.5 168.6,474.8 C168.3,475.2 168,474.6 168.1,473.5 Z" id="Path"></path>
                <path d="M326.7,472.1 C326.3,470.7 326.1,468.3 326.1,466.6 C326.2,464.2 326.4,464.5 327.1,468.1 C328.1,473 327.8,476.1 326.7,472.1 Z" id="Path"></path>
                <path d="M16.6,464 C14.6,459 13.1,454.7 13.3,454.5 C13.5,454.3 15.3,458.2 17.3,463.3 C19.3,468.3 20.8,472.6 20.6,472.8 C20.4,473 18.6,469.1 16.6,464 Z" id="Path"></path>
                <path d="M25.1,467.5 C23.9,464.4 23.1,461.6 23.3,461.4 C23.5,461.2 24.7,463.6 25.9,466.7 C27.1,469.8 27.9,472.6 27.7,472.8 C27.5,473 26.3,470.6 25.1,467.5 Z" id="Path"></path>
                <path d="M247,472.1 C247,471.4 247.3,471.1 247.7,471.4 C248,471.8 248,472.4 247.7,472.8 C247.3,473.1 247,472.8 247,472.1 Z" id="Path"></path>
                <path d="M162.1,470.5 C162.1,469.4 162.4,469.1 162.7,469.9 C163,470.6 162.9,471.5 162.6,471.8 C162.3,472.2 162,471.6 162.1,470.5 Z" id="Path"></path>
                <path d="M181.1,470.5 C181.1,469.4 181.4,469.1 181.7,469.9 C182,470.6 181.9,471.5 181.6,471.8 C181.3,472.2 181,471.6 181.1,470.5 Z" id="Path"></path>
                <path d="M209,471.1 C209,470.4 209.3,470.1 209.7,470.4 C210,470.8 210,471.4 209.7,471.8 C209.3,472.1 209,471.8 209,471.1 Z" id="Path"></path>
                <path d="M360.5,460.9 C360.5,447.7 359.2,442.3 354.7,437.4 C348.8,431 341,433 336.3,442.2 C335.1,444.6 334,446 334,445.3 C334,443.1 336.6,438.8 340,435.6 C342.4,433.3 344,432.6 347.1,432.6 C350.6,432.6 351.7,433.2 355,436.7 C357.1,439 359.4,442.6 360,444.7 C361.6,449.9 362.4,464.8 361.4,468.9 C360.7,471.2 360.5,468.9 360.5,460.9 Z" id="Path"></path>
                <path d="M399.3,469.9 C399.6,468.6 400.4,465 401.1,461.8 C401.8,458.7 402.5,456.3 402.7,456.5 C403.3,457.1 400,472.1 399.3,472.1 C399,472.1 399,471.1 399.3,469.9 Z" id="Path"></path>
                <path d="M106.1,468.9 C105.6,467.6 103.8,463.1 102.1,458.7 C100.3,454.4 99.1,450.7 99.3,450.5 C99.5,450.2 100.6,452.4 101.7,455.3 C102.9,458.2 104.7,463 105.9,465.9 C107,468.7 107.7,471.1 107.5,471.1 C107.2,471.1 106.6,470.1 106.1,468.9 Z" id="Path"></path>
                <path d="M169.2,468.6 C169.2,467 169.4,466.4 169.7,467.4 C169.9,468.3 169.9,469.7 169.7,470.4 C169.4,471 169.2,470.3 169.2,468.6 Z" id="Path"></path>
                <path d="M227.1,469 C227,467.1 229.7,464.5 230.7,465.5 C231,465.8 230.8,466.1 230.1,466.1 C229.5,466.1 228.5,467.1 228,468.4 C227.4,469.9 227.1,470.1 227.1,469 Z" id="Path"></path>
                <path d="M244.3,466.4 C243,464.5 242,462.4 242.1,461.8 C242.1,461.1 242.4,461.3 242.8,462.1 C243.2,462.9 244.3,464.9 245.4,466.4 C246.4,467.9 247.1,469.3 246.9,469.5 C246.7,469.7 245.5,468.3 244.3,466.4 Z" id="Path"></path>
                <path d="M74.2,467.1 C74.2,465.7 74.4,465.2 74.7,465.9 C74.9,466.5 74.9,467.7 74.7,468.4 C74.4,469 74.2,468.5 74.2,467.1 Z" id="Path"></path>
                <path d="M112.6,467.6 C111.7,465 111.9,464.4 113.1,466.4 C113.7,467.4 114,468.5 113.7,468.7 C113.5,469 113,468.5 112.6,467.6 Z" id="Path"></path>
                <path d="M163.2,459.6 C163.1,454.7 162.7,449.5 162.5,448.1 L161.9,445.6 L163,448 C163.6,449.4 163.9,454.5 163.7,459.5 L163.4,468.6 L163.2,459.6 Z" id="Path"></path>
                <path d="M182.1,466.5 C182.1,465.4 182.4,465.1 182.7,465.9 C183,466.6 182.9,467.5 182.6,467.8 C182.3,468.2 182,467.6 182.1,466.5 Z" id="Path"></path>
                <path d="M207.6,465 C206.8,460.8 207.6,460 208.5,464.1 C208.9,465.8 209,467.5 208.7,467.7 C208.5,468 208,466.7 207.6,465 Z" id="Path"></path>
                <path d="M367.3,464.6 C367.3,462.4 367.5,461.6 367.7,462.9 C367.9,464.1 367.9,465.9 367.7,466.9 C367.4,467.8 367.2,466.8 367.3,464.6 Z" id="Path"></path>
                <path d="M386.6,464.2 C386.2,461.8 386.1,459.6 386.4,459.4 C387.1,458.7 388.3,465.7 387.8,467.3 C387.5,468 387,466.6 386.6,464.2 Z" id="Path"></path>
                <path d="M490,465.1 C488.6,461.8 483.6,457 478.9,454.5 C477.2,453.7 476.1,452.7 476.3,452.4 C477,451.8 482.2,455.3 486.3,459 C489.2,461.7 492.5,466.9 491.7,467.7 C491.5,468 490.7,466.8 490,465.1 Z" id="Path"></path>
                <path d="M48.1,465.5 C48.1,464.4 48.4,464.1 48.7,464.9 C49,465.6 48.9,466.5 48.6,466.8 C48.3,467.2 48,466.6 48.1,465.5 Z" id="Path"></path>
                <path d="M65,466.7 C65,466.5 65.8,465.7 66.8,465 C68.3,463.7 68.4,463.8 67.1,465.4 C65.8,467 65,467.5 65,466.7 Z" id="Path"></path>
                <path d="M380.5,463.9 C379.9,460.5 377.1,448 374.3,436 C372.6,428.4 372.8,425.7 375.3,425.5 C376.5,425.4 376.6,425.4 375.5,425.8 C374.7,426 374,426.9 374,427.6 C374,429.1 378.1,448.6 380.7,459.4 C381.6,463.1 382,466.4 381.7,466.7 C381.4,467 380.9,465.7 380.5,463.9 Z" id="Path"></path>
                <path d="M189.2,464.6 C189.2,463.5 189.8,460.4 190.5,457.6 C191.2,454.9 191.8,453.5 191.8,454.6 C191.8,455.7 191.2,458.9 190.5,461.6 C189.8,464.4 189.2,465.7 189.2,464.6 Z" id="Path"></path>
                <path d="M201.1,464.5 C201.1,463.4 201.4,463.1 201.7,463.9 C202,464.6 201.9,465.5 201.6,465.8 C201.3,466.2 201,465.6 201.1,464.5 Z" id="Path"></path>
                <path d="M300.2,464.1 C300.2,462.7 300.5,460.7 301,459.6 L301.9,457.6 L301.8,459.6 C301.8,460.7 301.4,462.7 301,464.1 L300.2,466.6 L300.2,464.1 Z" id="Path"></path>
                <path d="M55.1,462.5 C55.1,461.4 55.4,461.1 55.7,461.9 C56,462.6 55.9,463.5 55.6,463.8 C55.3,464.2 55,463.6 55.1,462.5 Z" id="Path"></path>
                <path d="M73,463.1 C73,462.4 73.3,462.1 73.7,462.4 C74,462.8 74,463.4 73.7,463.8 C73.3,464.1 73,463.8 73,463.1 Z" id="Path"></path>
                <path d="M110.7,462.2 C110.3,460.5 110.4,460.1 111.2,460.9 C111.7,461.4 112,462.5 111.8,463.2 C111.5,464 111.1,463.5 110.7,462.2 Z" id="Path"></path>
                <path d="M440,462.9 C440,462.4 443.8,462.1 448.5,462.1 C456.7,462.1 457,462 457,459.8 C457,458.5 456.4,456.9 455.8,456.2 C454.7,455.1 454.8,454.9 456,455.3 C457,455.6 457.5,457 457.5,459.2 L457.5,462.6 L448.7,463.1 C443.9,463.4 440,463.3 440,462.9 Z" id="Path"></path>
                <path d="M49.1,461.5 C49.1,460.4 49.4,460.1 49.7,460.9 C50,461.6 49.9,462.5 49.6,462.8 C49.3,463.2 49,462.6 49.1,461.5 Z" id="Path"></path>
                <path d="M65.6,460.9 C65.3,459.6 65.1,457.7 65.1,456.6 C65.2,455.5 65.6,456.4 66.1,458.5 C67.1,462.7 66.7,464.7 65.6,460.9 Z" id="Path"></path>
                <path d="M170.3,458.1 C170.3,455.1 170.5,453.8 170.7,455.4 C170.9,456.9 170.9,459.3 170.7,460.9 C170.5,462.4 170.3,461.1 170.3,458.1 Z" id="Path"></path>
                <path d="M183,462.1 C183,461.4 183.3,461.1 183.7,461.4 C184,461.8 184,462.4 183.7,462.8 C183.3,463.1 183,462.8 183,462.1 Z" id="Path"></path>
                <path d="M306.3,460.9 C306.6,459.6 307.8,454 309.1,448.4 C310.3,442.7 311.7,438.1 312.2,438.1 C312.6,438.1 312.9,441.8 312.8,446.4 C312.7,453.6 312.6,454 312.1,449.6 L311.4,444.6 L310.2,448.6 C309.6,450.8 308.6,455 308,457.9 C307.3,460.7 306.6,463.1 306.3,463.1 C306,463.1 306,462.1 306.3,460.9 Z" id="Path"></path>
                <path d="M200.1,460.5 C200.1,459.4 200.4,459.1 200.7,459.9 C201,460.6 200.9,461.5 200.6,461.8 C200.3,462.2 200,461.6 200.1,460.5 Z" id="Path"></path>
                <path d="M472.1,458.5 C468.2,455.1 465.4,449.4 466.3,446.8 C466.5,446.2 467,447.3 467.4,449.4 C467.9,452.1 469.5,454.7 472.5,457.7 C477.8,463 477.6,463.5 472.1,458.5 Z" id="Path"></path>
                <path d="M244.5,460.1 C244.8,459.6 245.3,459.1 245.6,459.1 C245.9,459.1 245.8,459.6 245.5,460.1 C245.2,460.7 244.7,461.1 244.4,461.1 C244.1,461.1 244.2,460.7 244.5,460.1 Z" id="Path"></path>
                <path d="M291.6,457.5 C291.2,455.5 291.1,453.7 291.3,453.5 C291.6,453.2 292.1,454.6 292.4,456.7 C292.8,458.7 292.9,460.5 292.7,460.7 C292.4,461 291.9,459.6 291.6,457.5 Z" id="Path"></path>
                <path d="M21.2,457.6 C19.5,453.9 19.8,453.1 21.6,456.4 C22.5,458 23,459.5 22.7,459.7 C22.5,459.9 21.8,459 21.2,457.6 Z" id="Path"></path>
                <path d="M56.1,458.5 C56.1,457.4 56.4,457.1 56.7,457.9 C57,458.6 56.9,459.5 56.6,459.8 C56.3,460.2 56,459.6 56.1,458.5 Z" id="Path"></path>
                <path d="M71.6,457 C70.8,452.8 71.6,452 72.5,456.1 C72.9,457.8 73,459.5 72.7,459.7 C72.5,460 72,458.7 71.6,457 Z" id="Path"></path>
                <path d="M184.2,457.6 C184.2,456 184.4,455.4 184.7,456.4 C184.9,457.3 184.9,458.7 184.7,459.4 C184.4,460 184.2,459.3 184.2,457.6 Z" id="Path"></path>
                <path d="M50.1,457 C50.1,455.7 50.5,453.7 51,452.6 C51.7,451.2 51.8,451.8 51.3,454.6 C50.6,459.2 50,460.5 50.1,457 Z" id="Path"></path>
                <path d="M108.6,457.6 C107.7,455 107.9,454.4 109.1,456.4 C109.7,457.4 110,458.5 109.7,458.7 C109.5,459 109,458.5 108.6,457.6 Z" id="Path"></path>
                <path d="M206.1,457.5 C206.1,456.4 206.4,456.1 206.7,456.9 C207,457.6 206.9,458.5 206.6,458.8 C206.3,459.2 206,458.6 206.1,457.5 Z" id="Path"></path>
                <path d="M227.4,457.6 C227.1,456.8 227,455.6 227.3,454.9 C227.6,454.2 227.9,454.6 227.9,455.8 C228,457.6 228.7,458 232.3,458.4 L236.5,458.8 L232.2,458.9 C229.3,459 227.8,458.6 227.4,457.6 Z" id="Path"></path>
                <path d="M199.2,456.1 C199.2,454.7 199.4,454.2 199.7,454.9 C199.9,455.5 199.9,456.7 199.7,457.4 C199.4,458 199.2,457.5 199.2,456.1 Z" id="Path"></path>
                <path d="M238,456.8 C238.8,456.1 240.1,454.9 240.9,454.1 C242,452.8 242.1,452.9 241.2,454.7 C240.5,455.9 239.3,457.1 238.3,457.5 C236.7,458 236.7,457.9 238,456.8 Z" id="Path"></path>
                <path d="M247.1,456.1 C248.5,453 249,452.5 249,453.7 C249,454.3 248.3,455.6 247.4,456.7 C246,458.5 246,458.5 247.1,456.1 Z" id="Path"></path>
                <path d="M302.2,456.1 C302.2,455.3 302.6,453.5 303,452.1 C303.6,450.1 303.8,450 303.8,451.6 C303.8,452.7 303.5,454.5 303,455.6 C302.5,456.8 302.2,457 302.2,456.1 Z" id="Path"></path>
                <path d="M318,450.4 C317.7,446.4 317.9,443.6 318.3,444 C318.7,444.4 319,447.7 318.8,451.2 L318.5,457.6 L318,450.4 Z" id="Path"></path>
                <path d="M367.3,453.6 C367.3,451.4 367.5,450.6 367.7,451.9 C367.9,453.1 367.9,454.9 367.7,455.9 C367.4,456.8 367.2,455.8 367.3,453.6 Z" id="Path"></path>
                <path d="M385,456.7 C385,456.3 384.3,452.6 383.4,448.5 C382.6,444.3 382.1,440.4 382.3,439.8 C382.5,439.2 383.4,442.6 384.4,447.5 C385.4,452.3 385.9,456.5 385.6,456.9 C385.3,457.2 385,457.1 385,456.7 Z" id="Path"></path>
                <path d="M57.2,454.1 C57.2,452.7 57.4,452.2 57.7,452.9 C57.9,453.5 57.9,454.7 57.7,455.4 C57.4,456 57.2,455.5 57.2,454.1 Z" id="Path"></path>
                <path d="M326.2,453.6 C326.2,452 326.6,449.5 327,448.1 L327.8,445.6 L327.8,448.1 C327.8,449.5 327.4,452 327,453.6 L326.2,456.6 L326.2,453.6 Z" id="Path"></path>
                <path d="M440.4,454.9 C440,454.2 440.1,454.1 440.8,454.5 C442,455.2 442.4,456.1 441.6,456.1 C441.3,456.1 440.8,455.6 440.4,454.9 Z" id="Path"></path>
                <path d="M205.2,453.1 C205.2,451.7 205.4,451.2 205.7,451.9 C205.9,452.5 205.9,453.7 205.7,454.4 C205.4,455 205.2,454.5 205.2,453.1 Z" id="Path"></path>
                <path d="M403.7,451.6 C404,449.4 404.7,446.7 405.1,445.6 C405.7,444.3 405.7,445.1 405.3,447.6 C405,449.8 404.3,452.5 403.9,453.6 C403.3,454.9 403.3,454.1 403.7,451.6 Z" id="Path"></path>
                <path d="M63.5,450.1 C63.1,447.8 63,445.8 63.3,445.5 C63.5,445.2 64,446.9 64.4,449.2 C64.8,451.5 64.9,453.6 64.6,453.8 C64.4,454 63.9,452.4 63.5,450.1 Z" id="Path"></path>
                <path d="M106.6,452.6 C105.7,450 105.9,449.4 107.1,451.4 C107.7,452.4 108,453.5 107.7,453.7 C107.5,454 107,453.5 106.6,452.6 Z" id="Path"></path>
                <path d="M185,453.1 C185,452.4 185.3,452.1 185.7,452.4 C186,452.8 186,453.4 185.7,453.8 C185.3,454.1 185,453.8 185,453.1 Z" id="Path"></path>
                <path d="M11.6,451.6 C10.7,449 10.9,448.4 12.1,450.4 C12.7,451.4 13,452.5 12.7,452.7 C12.5,453 12,452.5 11.6,451.6 Z" id="Path"></path>
                <path d="M16.2,445.4 C14.4,441.2 13.2,437.6 13.3,437.4 C13.5,437.2 15.1,440.5 16.9,444.7 C18.7,448.9 19.9,452.5 19.7,452.7 C19.5,452.9 17.9,449.6 16.2,445.4 Z" id="Path"></path>
                <path d="M192.2,450.1 C192.2,448.7 192.4,448.2 192.7,448.9 C192.9,449.5 192.9,450.7 192.7,451.4 C192.4,452 192.2,451.5 192.2,450.1 Z" id="Path"></path>
                <path d="M197.6,449.9 C197.3,448.6 197.1,446.7 197.1,445.6 C197.2,444.5 197.6,445.4 198.1,447.5 C199.1,451.7 198.7,453.7 197.6,449.9 Z" id="Path"></path>
                <path d="M242.7,448.9 C243.5,443.9 242.4,438.9 239.9,436.3 C238.4,434.6 236.8,434.1 233,434.1 C228.8,434.1 228.1,434.4 227.7,436.4 L227.3,438.6 L227.1,436.3 C226.8,430.3 239.1,431.7 242.2,438.1 C244.1,441.9 244.5,448.7 243,451.1 C242.4,452.1 242.2,451.4 242.7,448.9 Z" id="Path"></path>
                <path d="M249.1,450.5 C249.1,449.4 249.4,449.1 249.7,449.9 C250,450.6 249.9,451.5 249.6,451.8 C249.3,452.2 249,451.6 249.1,450.5 Z" id="Path"></path>
                <path d="M289.5,449.1 C289.1,447.4 289,445.7 289.3,445.5 C289.6,445.2 290.1,446.4 290.5,448.1 C290.9,449.8 291,451.5 290.7,451.7 C290.4,452 289.9,450.8 289.5,449.1 Z" id="Path"></path>
                <path d="M332.8,449.4 C333.3,447.3 333.5,447.1 333.8,448.5 C334,449.5 333.8,450.7 333.2,451.3 C332.6,451.9 332.5,451.3 332.8,449.4 Z" id="Path"></path>
                <path d="M70.1,449.5 C70.1,448.4 70.4,448.1 70.7,448.9 C71,449.6 70.9,450.5 70.6,450.8 C70.3,451.2 70,450.6 70.1,449.5 Z" id="Path"></path>
                <path d="M186.1,449 C186.1,447.7 186.5,445.7 187,444.6 C187.7,443.2 187.8,443.8 187.3,446.6 C186.6,451.2 186,452.5 186.1,449 Z" id="Path"></path>
                <path d="M473.1,449.3 C472.5,448.1 472,445.2 472,442.6 C472,439 472.6,437.5 474.6,435.4 C476.9,433.1 477.7,432.9 483,433.4 C487.6,433.8 489,433.6 489.4,432.4 C490.5,429.6 490,428.3 487.3,427.3 C485.7,426.7 485.2,426.2 486.1,426.2 C486.9,426.1 488.5,426.7 489.5,427.5 C491.1,428.6 491.2,429.4 490.4,432.2 C489.3,435.7 489.4,435.7 482.8,434.4 C478.6,433.6 475.5,434.8 474.2,437.6 C472.7,440.8 472.7,445.6 474.1,448.3 C474.7,449.4 474.9,450.5 474.7,450.8 C474.4,451 473.7,450.4 473.1,449.3 Z" id="Path"></path>
                <path d="M58.1,448.5 C58.1,447.4 58.4,447.1 58.7,447.9 C59,448.6 58.9,449.5 58.6,449.8 C58.3,450.2 58,449.6 58.1,448.5 Z" id="Path"></path>
                <path d="M169.2,447.6 C169.2,446 169.4,445.4 169.7,446.4 C169.9,447.3 169.9,448.7 169.7,449.4 C169.4,450 169.2,449.3 169.2,447.6 Z" id="Path"></path>
                <path d="M204.1,448.5 C204.1,447.4 204.4,447.1 204.7,447.9 C205,448.6 204.9,449.5 204.6,449.8 C204.3,450.2 204,449.6 204.1,448.5 Z" id="Path"></path>
                <path d="M7.1,445.4 C7.1,443 7.4,441.1 7.9,441.1 C8.9,441.1 11.3,447.2 10.6,447.9 C10.3,448.1 9.8,447 9.3,445.5 L8.6,442.6 L7.9,446.1 L7.3,449.6 L7.1,445.4 Z" id="Path"></path>
                <path d="M52.1,447.5 C52.1,446.4 52.4,446.1 52.7,446.9 C53,447.6 52.9,448.5 52.6,448.8 C52.3,449.2 52,448.6 52.1,447.5 Z" id="Path"></path>
                <path d="M98,448.1 C98,447.4 98.3,447.1 98.7,447.4 C99,447.8 99,448.4 98.7,448.8 C98.3,449.1 98,448.8 98,448.1 Z" id="Path"></path>
                <path d="M104.6,447.6 C103.7,445 103.9,444.4 105.1,446.4 C105.7,447.4 106,448.5 105.7,448.7 C105.5,449 105,448.5 104.6,447.6 Z" id="Path"></path>
                <path d="M304.1,447.6 C304.1,446.5 304.5,444.7 305,443.6 L305.9,441.6 L305.9,443.6 C305.9,444.7 305.5,446.5 305,447.6 L304.1,449.6 L304.1,447.6 Z" id="Path"></path>
                <path d="M365.5,444.9 C364.5,440.5 360.7,433 358.3,430.9 C357.3,430 354.9,428.5 353,427.7 C351.1,426.9 350.1,426.2 350.8,426.1 C354.8,426 360.5,431.1 363.8,437.6 C365.8,441.7 367.6,448.1 366.7,448.1 C366.4,448.1 365.8,446.6 365.5,444.9 Z" id="Path"></path>
                <path d="M69.2,445.1 C69.2,443.7 69.4,443.2 69.7,443.9 C69.9,444.5 69.9,445.7 69.7,446.4 C69.4,447 69.2,446.5 69.2,445.1 Z" id="Path"></path>
                <path d="M193.1,445.5 C193.1,444.4 193.4,444.1 193.7,444.9 C194,445.6 193.9,446.5 193.6,446.8 C193.3,447.2 193,446.6 193.1,445.5 Z" id="Path"></path>
                <path d="M59.2,444.1 C59.2,442.7 59.4,442.2 59.7,442.9 C59.9,443.5 59.9,444.7 59.7,445.4 C59.4,446 59.2,445.5 59.2,444.1 Z" id="Path"></path>
                <path d="M203.2,444.1 C203.2,442.7 203.4,442.2 203.7,442.9 C203.9,443.5 203.9,444.7 203.7,445.4 C203.4,446 203.2,445.5 203.2,444.1 Z" id="Path"></path>
                <path d="M53.1,443.5 C53.1,442.4 53.4,442.1 53.7,442.9 C54,443.6 53.9,444.5 53.6,444.8 C53.3,445.2 53,444.6 53.1,443.5 Z" id="Path"></path>
                <path d="M328.1,444.1 C328.1,443.3 328.5,441.9 329,441.1 C330.2,439.3 330.2,440.9 329,443.6 C328.4,444.9 328.1,445.1 328.1,444.1 Z" id="Path"></path>
                <path d="M62.1,442.9 C62,442 61.5,441.1 60.9,440.9 C60.3,440.7 60,439.6 60.2,438.6 C60.6,436.9 60.8,437 61.9,439.5 C62.5,441.1 62.9,442.9 62.6,443.5 C62.4,444.1 62.1,443.9 62.1,442.9 Z" id="Path"></path>
                <path d="M95,442.6 C95,441.8 95.5,441.1 96,441.1 C96.6,441.1 97,441.8 97,442.6 C97,443.4 96.6,444.1 96,444.1 C95.5,444.1 95,443.4 95,442.6 Z" id="Path"></path>
                <path d="M160.6,442.4 C160,441 160.1,440.9 161.1,441.8 C161.8,442.5 162.1,443.3 161.8,443.6 C161.5,443.9 160.9,443.4 160.6,442.4 Z" id="Path"></path>
                <path d="M168,443.1 C168,442.4 168.3,442.1 168.7,442.4 C169,442.8 169,443.4 168.7,443.8 C168.3,444.1 168,443.8 168,443.1 Z" id="Path"></path>
                <path d="M287.2,438.9 C286.5,436 285.6,431.9 285.1,429.7 C284.6,427.6 284.5,426.2 285,426.7 C286,427.8 289.4,443 288.8,443.7 C288.5,443.9 287.8,441.8 287.2,438.9 Z" id="Path"></path>
                <path d="M196,441.5 C196,439.9 195.8,439.8 195,441.1 C194.2,442.3 194,442.2 194,440.4 C194,439.1 194.4,438.1 194.9,438.1 C196.1,438.1 197.4,442 196.6,442.8 C196.3,443.2 196,442.6 196,441.5 Z" id="Path"></path>
                <path d="M406.1,442.1 C406.1,441.3 406.7,438.1 407.5,435.1 C409.4,428 409.4,426.3 407.3,425.8 C405.6,425.4 405.6,425.3 407.3,425.2 C410.1,425 410.4,427.6 408.2,435.9 C407.1,440.1 406.2,442.9 406.1,442.1 Z" id="Path"></path>
                <path d="M67.6,439.9 C67.3,438.6 67.1,436.7 67.1,435.6 C67.2,434.5 67.6,435.4 68.1,437.5 C69.1,441.7 68.7,443.7 67.6,439.9 Z" id="Path"></path>
                <path d="M101.6,440.6 C100.7,438 100.9,437.4 102.1,439.4 C102.7,440.4 103,441.5 102.7,441.7 C102.5,442 102,441.5 101.6,440.6 Z" id="Path"></path>
                <path d="M276.1,436.4 C276,433 276.4,430 276.8,429.7 C277.3,429.4 277.5,431.8 277.3,434.9 C276.7,443 276.2,443.6 276.1,436.4 Z" id="Path"></path>
                <path d="M466,440 C466,438.7 466.5,436.9 467,436.1 C467.7,435 467.8,435.6 467.4,438.1 C466.6,442.4 466,443.2 466,440 Z" id="Path"></path>
                <path d="M54.2,439.1 C54.2,437.7 54.4,437.2 54.7,437.9 C54.9,438.5 54.9,439.7 54.7,440.4 C54.4,441 54.2,440.5 54.2,439.1 Z" id="Path"></path>
                <path d="M165.7,437.6 C164.8,435.7 164.2,434.1 164.5,434.1 C165.2,434.1 168.2,440.2 167.8,440.7 C167.5,440.9 166.6,439.5 165.7,437.6 Z" id="Path"></path>
                <path d="M188.2,439.6 C188.2,438.5 188.5,436.7 189,435.6 C190.1,433.1 190.1,435.7 189,439.1 C188.4,441.1 188.2,441.2 188.2,439.6 Z" id="Path"></path>
                <path d="M201.1,436 C200.5,433.2 200.1,430.6 200.4,430.4 C200.6,430.2 201.3,432.3 201.9,435.2 C202.5,438 202.9,440.6 202.6,440.8 C202.4,441 201.7,438.9 201.1,436 Z" id="Path"></path>
                <path d="M249.1,439.1 C248.9,435.5 245.5,430.4 241.8,428.1 C240,427 238.9,426.1 239.3,426.1 C243.5,426.1 250.5,435.1 249.7,439.4 C249.3,441.5 249.3,441.4 249.1,439.1 Z" id="Path"></path>
                <path d="M306.1,439.5 C306.1,438.4 306.4,438.1 306.7,438.9 C307,439.6 306.9,440.5 306.6,440.8 C306.3,441.2 306,440.6 306.1,439.5 Z" id="Path"></path>
                <path d="M156.2,437.1 C154.4,435.4 153.3,434.1 153.8,434.1 C154.3,434.1 155.9,435.5 157.5,437.1 C161.2,440.9 160.5,440.9 156.2,437.1 Z" id="Path"></path>
                <path d="M330,438.7 C330,438.3 331.1,436.3 332.5,434.3 C334.9,430.6 341.3,426.1 344.1,426.1 C344.8,426.1 343.4,427.1 341,428.4 C338.5,429.6 335.1,432.5 333.3,434.9 C331.5,437.3 330,439 330,438.7 Z" id="Path"></path>
                <path d="M380.6,434.5 C380.2,432.5 380.1,430.7 380.3,430.5 C380.6,430.2 381.1,431.6 381.4,433.7 C381.8,435.7 381.9,437.5 381.7,437.7 C381.4,438 380.9,436.6 380.6,434.5 Z" id="Path"></path>
                <path d="M99.6,435.6 C98.7,433 98.9,432.4 100.1,434.4 C100.7,435.4 101,436.5 100.7,436.7 C100.5,437 100,436.5 99.6,435.6 Z" id="Path"></path>
                <path d="M307.6,433.6 C308.6,426.5 311.6,423.8 316.4,425.7 C317.6,426.2 318,427.5 317.8,431 L317.7,435.6 L317.1,431.1 C316.6,427.3 316.1,426.5 314.1,426.3 C311,425.8 310.1,426.8 308.4,432.7 C307.1,437.3 307.1,437.4 307.6,433.6 Z" id="Path"></path>
                <path d="M11.6,434.6 C10.7,432 10.9,431.4 12.1,433.4 C12.7,434.4 13,435.5 12.7,435.7 C12.5,436 12,435.5 11.6,434.6 Z" id="Path"></path>
                <path d="M55.2,434.1 C55.2,432.7 55.4,432.2 55.7,432.9 C55.9,433.5 55.9,434.7 55.7,435.4 C55.4,436 55.2,435.5 55.2,434.1 Z" id="Path"></path>
                <path d="M141,433.7 C141.9,432.8 151,432.7 151.8,433.6 C152,433.8 149.4,434.1 146.1,434.3 C142.4,434.5 140.4,434.2 141,433.7 Z" id="Path"></path>
                <path d="M440,433.9 C440,433.4 444,433.1 448.9,433.1 C456,433.1 457.9,432.8 458.3,431.6 C458.7,430.5 458.7,430.6 458.6,431.8 C458.5,433.3 457.1,433.7 449.2,434.1 C444.2,434.4 440,434.3 440,433.9 Z" id="Path"></path>
                <path d="M468,433.5 C468,431.8 474.8,426.1 476.8,426.1 C477.8,426.2 477.2,426.7 475.4,427.5 C473.7,428.3 471.4,430.2 470.2,431.7 C469,433.3 468,434.1 468,433.5 Z" id="Path"></path>
                <path d="M65.5,430.1 C65.1,428.4 65,426.7 65.3,426.5 C65.5,426.2 66,427.5 66.4,429.2 C67.2,433.4 66.4,434.2 65.5,430.1 Z" id="Path"></path>
                <path d="M161.9,431.4 C160.6,429.8 160.7,429.7 162.3,431 C163.9,432.3 164.4,433.1 163.6,433.1 C163.4,433.1 162.6,432.3 161.9,431.4 Z" id="Path"></path>
                <path d="M190,431 C190,429.7 190.5,427.9 191,427.1 C191.7,426 191.8,426.6 191.4,429.1 C190.6,433.4 190,434.2 190,431 Z" id="Path"></path>
                <path d="M97.6,430.6 C96.7,428 96.9,427.4 98.1,429.4 C98.7,430.4 99,431.5 98.7,431.7 C98.5,432 98,431.5 97.6,430.6 Z" id="Path"></path>
                <path d="M56.1,429.5 C56.1,428.4 56.4,428.1 56.7,428.9 C57,429.6 56.9,430.5 56.6,430.8 C56.3,431.2 56,430.6 56.1,429.5 Z" id="Path"></path>
                <path d="M158.4,428.9 C158,428.2 158.1,428.1 158.8,428.5 C159.5,428.9 160,429.4 160,429.7 C160,430.5 159.1,430.1 158.4,428.9 Z" id="Path"></path>
                <path d="M221.3,428.7 C221.4,427.6 222.2,426.6 223,426.4 C224,426.1 224.1,426.2 223.4,426.8 C222.8,427.2 222,428.3 221.7,429.1 C221.2,430.2 221.1,430 221.3,428.7 Z" id="Path"></path>
                <path d="M8.7,427.7 C8.4,426.9 6.9,426.1 5.3,425.8 L2.5,425.4 L5.1,425.2 C7.6,425.1 10.9,427.5 9.8,428.7 C9.5,429 9,428.5 8.7,427.7 Z" id="Path"></path>
                <path d="M378.6,427.6 C378.3,426.8 378.5,426.1 379,426.1 C379.6,426.1 380,426.8 380,427.6 C380,428.4 379.8,429.1 379.6,429.1 C379.4,429.1 379,428.4 378.6,427.6 Z" id="Path"></path>
                <path d="M154,427.1 C153.2,426.6 153,426.1 153.5,426.1 C154.1,426.1 155.2,426.6 156,427.1 C156.8,427.6 157.1,428.1 156.5,428.1 C156,428.1 154.8,427.6 154,427.1 Z" id="Path"></path>
                <path d="M199,427.3 C199,426.6 197.5,426 195.8,426 C192.6,425.8 192.5,425.8 195.4,425.4 C198.2,424.9 201,426.5 199.7,427.8 C199.3,428.1 199,427.9 199,427.3 Z" id="Path"></path>
                <path d="M277,427.1 C277,426.4 277.3,426.1 277.7,426.4 C278,426.8 278,427.4 277.7,427.8 C277.3,428.1 277,427.8 277,427.1 Z" id="Path"></path>
                <path d="M417,427.1 C417,426.4 417.3,426.1 417.7,426.4 C418,426.8 418,427.4 417.7,427.8 C417.3,428.1 417,427.8 417,427.1 Z" id="Path"></path>
                <path d="M458,427.1 C458,426.4 458.3,426.1 458.7,426.4 C459,426.8 459,427.4 458.7,427.8 C458.3,428.1 458,427.8 458,427.1 Z" id="Path"></path>
                <path d="M57.9,425.8 C58.4,425.3 60,425.1 61.6,425.3 C64.3,425.6 64.2,425.7 60.8,426.2 C58.6,426.5 57.4,426.3 57.9,425.8 Z" id="Path"></path>
                <path d="M117.8,425.9 C118.4,425.3 119.6,425.1 120.6,425.3 C122,425.6 121.8,425.8 119.7,426.3 C117.8,426.6 117.2,426.5 117.8,425.9 Z" id="Path"></path>
                <path d="M142.8,425.4 C144.6,425.2 147.3,425.2 148.8,425.4 C150.3,425.6 148.8,425.8 145.5,425.8 C142.2,425.8 141,425.6 142.8,425.4 Z" id="Path"></path>
                <path d="M229.3,425.4 C230.8,425.2 233.2,425.2 234.8,425.4 C236.3,425.6 235,425.8 232,425.8 C229,425.8 227.7,425.6 229.3,425.4 Z" id="Path"></path>
                <path d="M279.8,425.4 C280.4,425.2 281.6,425.2 282.3,425.4 C282.9,425.7 282.4,425.9 281,425.9 C279.6,425.9 279.1,425.7 279.8,425.4 Z" id="Path"></path>
                <path d="M441.3,425.4 C444.5,425.2 449.4,425.2 452.3,425.4 C455.2,425.6 452.6,425.7 446.5,425.7 C440.5,425.7 438.1,425.6 441.3,425.4 Z" id="Path"></path>
                <path d="M479.8,425.4 C480.4,425.2 481.6,425.2 482.3,425.4 C482.9,425.7 482.4,425.9 481,425.9 C479.6,425.9 479.1,425.7 479.8,425.4 Z" id="Path"></path>
                <path d="M0.7,382.4 C0.4,381.9 26.6,381.6 58.8,381.6 L117.5,381.6 L117.8,354.4 C118,329.2 117.9,327.2 116.3,326.7 C114.9,326.3 114.9,326.3 116.5,326.4 C118.4,326.6 118.5,327.4 118.5,354.6 L118.5,382.6 L59.8,382.9 C27.5,383 0.9,382.8 0.7,382.4 Z" id="Path"></path>
                <path d="M180.7,382.4 C179.7,381.5 179.8,308.3 180.8,307.8 C181.2,307.5 181.4,324.1 181.2,344.7 L181,382.1 L246.1,382.1 C304.5,382.1 311.2,381.9 310.6,380.5 C310.3,379.7 310.4,379.3 311,379.6 C311.6,379.9 312,380.9 312,381.7 C312,382.9 302.9,383.1 246.7,383.1 C210.7,383.1 181,382.8 180.7,382.4 Z" id="Path"></path>
                <path d="M382,382.4 C382,381.9 390.7,381.7 401.2,381.9 C437.2,382.3 440.6,382.7 411.3,382.9 C395.2,383 382,382.8 382,382.4 Z" id="Path"></path>
                <path d="M441,381.7 C441,381.5 441.9,381.1 443,380.8 C444.1,380.5 444.8,380.7 444.4,381.2 C443.9,382.1 441,382.5 441,381.7 Z" id="Path"></path>
                <path d="M446.3,379.4 C446.7,379.1 447.3,379.1 447.7,379.4 C448,379.8 447.7,380.1 447,380.1 C446.3,380.1 446,379.8 446.3,379.4 Z" id="Path"></path>
                <path d="M297.2,355.4 C283.3,329 269.8,302.1 270.4,302.1 C270.6,302.1 276.1,312.3 282.5,324.9 C289,337.4 297.8,354.5 302.2,362.9 C306.6,371.2 309.9,378.1 309.7,378.1 C309.4,378.1 303.8,367.9 297.2,355.4 Z" id="Path"></path>
                <path d="M451,377.7 C451,377.5 451.7,377 452.6,376.7 C453.4,376.4 453.8,376.5 453.5,377.1 C452.9,378.1 451,378.5 451,377.7 Z" id="Path"></path>
                <path d="M455,375.7 C455,375.4 456.4,374.5 458,373.6 C459.7,372.7 461,372.3 461,372.5 C461,372.8 459.7,373.7 458,374.6 C456.4,375.5 455,375.9 455,375.7 Z" id="Path"></path>
                <path d="M462.5,371.1 C462.8,370.6 463.3,370.1 463.6,370.1 C463.9,370.1 463.8,370.6 463.5,371.1 C463.2,371.7 462.7,372.1 462.4,372.1 C462.1,372.1 462.2,371.7 462.5,371.1 Z" id="Path"></path>
                <path d="M465,369.7 C465,369.5 465.8,368.7 466.8,368 C468.3,366.7 468.4,366.8 467.1,368.4 C465.8,370 465,370.5 465,369.7 Z" id="Path"></path>
                <path d="M471,364.6 C472.3,363.2 473.6,362.1 473.8,362.1 C474.1,362.1 473.3,363.2 472,364.6 C470.7,366 469.4,367.1 469.2,367.1 C468.9,367.1 469.7,366 471,364.6 Z" id="Path"></path>
                <path d="M382.5,318.1 C382.5,294.2 382.6,284.4 382.7,296.4 C382.9,308.3 382.9,327.9 382.7,339.9 C382.6,351.8 382.5,342 382.5,318.1 Z" id="Path"></path>
                <path d="M481.6,353.6 C487.2,346.4 487.6,346 486.2,348.6 C485.6,349.7 483.3,352.7 481,355.1 C477,359.5 477,359.5 481.6,353.6 Z" id="Path"></path>
                <path d="M0.8,356.4 C1.5,356.1 2.4,356.2 2.7,356.5 C3.1,356.8 2.5,357.1 1.4,357 C0.3,357 0,356.7 0.8,356.4 Z" id="Path"></path>
                <path d="M6.3,355.4 C6.7,355.1 7.3,355.1 7.7,355.4 C8,355.8 7.7,356.1 7,356.1 C6.3,356.1 6,355.8 6.3,355.4 Z" id="Path"></path>
                <path d="M9.8,354.4 C10.4,354.2 11.6,354.2 12.3,354.4 C12.9,354.7 12.4,354.9 11,354.9 C9.6,354.9 9.1,354.7 9.8,354.4 Z" id="Path"></path>
                <path d="M14.3,353.4 C14.7,353.1 15.3,353.1 15.7,353.4 C16,353.8 15.7,354.1 15,354.1 C14.3,354.1 14,353.8 14.3,353.4 Z" id="Path"></path>
                <path d="M17.8,352.4 C18.4,352.2 19.6,352.2 20.3,352.4 C20.9,352.7 20.4,352.9 19,352.9 C17.6,352.9 17.1,352.7 17.8,352.4 Z" id="Path"></path>
                <path d="M22.3,351.4 C22.7,351.1 23.3,351.1 23.7,351.4 C24,351.8 23.7,352.1 23,352.1 C22.3,352.1 22,351.8 22.3,351.4 Z" id="Path"></path>
                <path d="M25.8,350.4 C26.4,350.2 27.6,350.2 28.3,350.4 C28.9,350.7 28.4,350.9 27,350.9 C25.6,350.9 25.1,350.7 25.8,350.4 Z" id="Path"></path>
                <path d="M31,349.2 C31.8,348.7 34.3,348.1 36.5,347.7 C39,347.4 39.8,347.4 38.5,348 C35.6,349.2 29.2,350.2 31,349.2 Z" id="Path"></path>
                <path d="M43,346.1 C46.4,345 49,345 46.5,346.1 C45.4,346.6 43.6,346.9 42.5,346.9 C40.9,346.9 41,346.7 43,346.1 Z" id="Path"></path>
                <path d="M489.7,340.6 C491.2,337.6 492.6,335.3 492.8,335.5 C493.2,336 488.2,346.1 487.5,346.1 C487.2,346.1 488.2,343.6 489.7,340.6 Z" id="Path"></path>
                <path d="M50.5,344.1 C51.6,343.6 53.2,343.2 54,343.2 C54.9,343.2 54.8,343.6 53.5,344.1 C52.4,344.6 50.8,345 50,345 C49.1,345 49.2,344.6 50.5,344.1 Z" id="Path"></path>
                <path d="M0,341.4 C0,340.1 0.2,339.9 0.8,340.9 C1.4,341.8 3.1,342 6.1,341.7 C9.4,341.3 9.9,341.4 8,342 C3.6,343.6 0,343.3 0,341.4 Z" id="Path"></path>
                <path d="M56.8,342.4 C57.5,342.1 58.4,342.2 58.7,342.5 C59.1,342.8 58.5,343.1 57.4,343 C56.3,343 56,342.7 56.8,342.4 Z" id="Path"></path>
                <path d="M60.3,341.4 C60.7,341.1 61.3,341.1 61.7,341.4 C62,341.8 61.7,342.1 61,342.1 C60.3,342.1 60,341.8 60.3,341.4 Z" id="Path"></path>
                <path d="M13,340.1 C14.4,339.7 16.4,339.3 17.5,339.3 C19.1,339.3 19,339.5 17,340.1 C15.6,340.5 13.6,340.9 12.5,340.9 C10.9,340.9 11,340.7 13,340.1 Z" id="Path"></path>
                <path d="M65.5,340.1 C66.6,339.6 68.2,339.2 69,339.2 C69.9,339.2 69.8,339.6 68.5,340.1 C67.4,340.6 65.8,341 65,341 C64.1,341 64.2,340.6 65.5,340.1 Z" id="Path"></path>
                <path d="M20,338.8 C20.3,338.5 24.3,337.3 29,336.2 C33.7,335 41.6,333 46.5,331.6 C51.5,330.3 56.2,329.2 57,329.2 C58.8,329.2 53.9,330.7 38,334.9 C25.2,338.3 19.3,339.6 20,338.8 Z" id="Path"></path>
                <path d="M72.5,338.1 C73.6,337.6 75.2,337.2 76,337.2 C76.9,337.2 76.8,337.6 75.5,338.1 C74.4,338.6 72.8,339 72,339 C71.1,339 71.2,338.6 72.5,338.1 Z" id="Path"></path>
                <path d="M78.1,336.7 C78.3,336.5 79.9,336.1 81.5,335.7 C83.7,335.2 84.1,335.3 83,336.1 C81.6,337 77.1,337.6 78.1,336.7 Z" id="Path"></path>
                <path d="M87.5,334.1 C88.6,333.6 90.2,333.2 91,333.2 C91.9,333.2 91.8,333.6 90.5,334.1 C89.4,334.6 87.8,335 87,335 C86.1,335 86.2,334.6 87.5,334.1 Z" id="Path"></path>
                <path d="M493.2,333.6 C493.2,333.1 493.8,331 494.5,329.1 C495.2,327.2 495.9,326.3 495.9,327.1 C495.9,327.9 495.3,330 494.5,331.6 C493.8,333.3 493.2,334.2 493.2,333.6 Z" id="Path"></path>
                <path d="M95,332.1 C95.8,331.6 97.4,331.1 98.4,331.1 C101,331.1 100.2,331.7 96.5,332.5 C94.3,333 93.9,332.9 95,332.1 Z" id="Path"></path>
                <path d="M102,330.1 C102.8,329.6 104.4,329.1 105.4,329.1 C108,329.1 107.2,329.7 103.5,330.5 C101.3,331 100.9,330.9 102,330.1 Z" id="Path"></path>
                <path d="M59.1,328.7 C59.4,328.3 62.1,327.4 65.1,326.7 C68.1,325.9 74.9,324.1 80.4,322.6 C85.8,321.2 90.5,320.2 90.8,320.5 C91.1,320.8 90.9,321.1 90.4,321.1 C89.9,321.1 86.1,322.1 82,323.2 C64,328.1 58.3,329.5 59.1,328.7 Z" id="Path"></path>
                <path d="M109,328.1 C109.8,327.6 111.4,327.1 112.4,327.1 C115,327.1 114.2,327.7 110.5,328.5 C108.3,329 107.9,328.9 109,328.1 Z" id="Path"></path>
                <path d="M496.1,323.1 C496.1,322.3 496.5,320.7 497,319.6 L497.9,317.6 L497.9,319.6 C497.9,320.7 497.5,322.3 497,323.1 C496.1,324.4 496,324.4 496.1,323.1 Z" id="Path"></path>
                <path d="M93.5,319.1 C94.6,318.6 96.2,318.2 97,318.2 C97.9,318.2 97.8,318.6 96.5,319.1 C95.4,319.6 93.8,320 93,320 C92.1,320 92.2,319.6 93.5,319.1 Z" id="Path"></path>
                <path d="M100.5,317.1 C101.6,316.6 103.2,316.2 104,316.2 C105.3,316.1 105.3,316.2 104,317.1 C103.2,317.6 101.6,318 100.5,318 L98.5,318 L100.5,317.1 Z" id="Path"></path>
                <path d="M108,315.1 C111.4,314 114,314 111.5,315.1 C110.4,315.6 108.6,315.9 107.5,315.9 C105.9,315.9 106,315.7 108,315.1 Z" id="Path"></path>
                <path d="M115,313.4 C115.8,313.1 117.2,312.3 118,311.7 C119.3,310.7 119.3,310.8 118.1,312.4 C117.4,313.3 116,314.1 115.1,314 C113.8,314 113.7,313.9 115,313.4 Z" id="Path"></path>
                <path d="M117.6,276.9 C117.3,259.1 116.7,241.9 116.3,238.7 C115.8,233.5 115.5,233 114.4,234.6 C113.2,236.2 112,236.3 104.3,235.8 C99.5,235.4 95.4,234.7 95.2,234.1 C95,233.6 94,233.1 92.9,233.1 C91.9,233.1 91,232.7 91,232.1 C91,231.6 90.5,231.1 90,231.1 C88.5,231.1 79,221.7 77.5,218.8 C76.8,217.4 75.9,214.9 75.5,213.2 C75.1,211.5 74.4,209.9 73.9,209.6 C73.4,209.2 73,207 73,204.6 C73,202.2 72.6,199.9 72,199.6 C71.5,199.3 71,195.4 71,191 C71,186.4 70.6,183.1 70,183.1 C69.4,183.1 69,175.9 69,163.6 C69,151.3 69.4,144.1 70,144.1 C70.6,144.1 71,140.7 71,135.8 C71,131.2 71.4,127.1 71.9,126.5 C72.7,125.7 73.2,123.2 74.4,112.9 C74.5,111.3 75.4,109.3 76.3,108.3 C77.3,107.3 78,105.9 78,105.3 C78,104.6 78.5,104.1 79,104.1 C79.6,104.1 80,103.5 80,102.8 C80,102.1 81,100.4 82.2,99.1 C83.5,97.8 84.5,96.1 84.5,95.4 C84.5,94.7 86,92.8 87.8,91.2 C89.5,89.6 91,87.7 91,87.2 C91,86.6 91.9,86.1 93,86.1 C94.2,86.1 96.1,85 97.4,83.6 C100,80.8 104,79.1 108,79.1 C109.6,79.1 111.2,78.7 111.5,78.1 C112.5,76.5 113.6,76.9 114.7,79.4 C116.2,82.5 117,69.9 117.8,33.1 C118.2,16.9 118.5,72.3 118.5,156.4 C118.5,240.4 118.5,309.1 118.4,309.1 C118.4,309.1 118,294.6 117.6,276.9 Z" id="Path"></path>
                <path d="M184,307.1 C184.8,306.6 186.2,306.2 187,306.2 C188,306.2 187.8,306.5 186.5,307.1 C183.8,308.3 182.2,308.3 184,307.1 Z" id="Path"></path>
                <path d="M191,305.1 C191.8,304.6 193.2,304.2 194,304.2 C195,304.2 194.8,304.5 193.5,305.1 C190.8,306.3 189.2,306.3 191,305.1 Z" id="Path"></path>
                <path d="M197.5,303.1 C198.6,302.6 200.2,302.2 201,302.2 C201.9,302.2 201.8,302.6 200.5,303.1 C199.4,303.6 197.8,304 197,304 C196.1,304 196.2,303.6 197.5,303.1 Z" id="Path"></path>
                <path d="M203.3,301.4 C203.7,301.1 204.3,301.1 204.7,301.4 C205,301.8 204.7,302.1 204,302.1 C203.3,302.1 203,301.8 203.3,301.4 Z" id="Path"></path>
                <path d="M206.8,300.4 C207.5,300.1 208.4,300.2 208.7,300.5 C209.1,300.8 208.5,301.1 207.4,301 C206.3,301 206,300.7 206.8,300.4 Z" id="Path"></path>
                <path d="M210.3,299.4 C210.7,299.1 211.3,299.1 211.7,299.4 C212,299.8 211.7,300.1 211,300.1 C210.3,300.1 210,299.8 210.3,299.4 Z" id="Path"></path>
                <path d="M213.8,298.4 C214.5,298.1 215.4,298.2 215.7,298.5 C216.1,298.8 215.5,299.1 214.4,299 C213.3,299 213,298.7 213.8,298.4 Z" id="Path"></path>
                <path d="M267.6,297.4 C267,296 267.1,295.9 268.1,296.8 C268.8,297.5 269.1,298.3 268.8,298.6 C268.5,298.9 267.9,298.4 267.6,297.4 Z" id="Path"></path>
                <path d="M218,297.1 C218.8,296.6 220.4,296.1 221.4,296.1 C224,296.1 223.2,296.7 219.5,297.5 C217.3,298 216.9,297.9 218,297.1 Z" id="Path"></path>
                <path d="M225,295.1 C225.8,294.6 227.4,294.1 228.4,294.1 C231,294.1 230.2,294.7 226.5,295.5 C224.3,296 223.9,295.9 225,295.1 Z" id="Path"></path>
                <path d="M180.4,293.7 C180.1,292.9 180,290.6 180.3,288.5 C180.6,284.9 180.7,284.9 180.8,289.4 L181,294.3 L184.3,293.6 C186.7,293.1 187.1,293.2 186,294 C183.9,295.5 181,295.3 180.4,293.7 Z" id="Path"></path>
                <path d="M188.1,292.7 C189.1,291.8 221.3,283.1 221.8,283.6 C222.1,283.9 222,284.1 221.7,284.1 C221.3,284.1 214.1,286.1 205.7,288.6 C191.7,292.7 186.9,293.8 188.1,292.7 Z" id="Path"></path>
                <path d="M233.1,292.7 C233.3,292.5 234.9,292.1 236.5,291.7 C238.7,291.2 239.1,291.3 238,292.1 C236.6,293 232.1,293.6 233.1,292.7 Z" id="Path"></path>
                <path d="M240.8,290.4 C241.5,290.1 242.4,290.2 242.7,290.5 C243.1,290.8 242.5,291.1 241.4,291 C240.3,291 240,290.7 240.8,290.4 Z" id="Path"></path>
                <path d="M245,289.2 C245.8,288.7 248.1,288.1 250,287.7 C252.4,287.3 252.8,287.4 251.5,287.9 C248.4,289.3 243.2,290.3 245,289.2 Z" id="Path"></path>
                <path d="M255.5,286 C258.1,285 261.8,284.9 262.3,285.9 C262.6,286.3 260.7,286.7 258.1,286.7 C254.9,286.8 254.1,286.6 255.5,286 Z" id="Path"></path>
                <path d="M224.5,282.1 C225.6,281.6 227.2,281.2 228,281.2 C228.9,281.2 228.8,281.6 227.5,282.1 C226.4,282.6 224.8,283 224,283 C223.1,283 223.2,282.6 224.5,282.1 Z" id="Path"></path>
                <path d="M235.5,279 C241,277.2 244.4,276.3 251,274.5 C252.4,274.1 253.2,274.1 252.9,274.5 C252.2,275.3 232,281.1 230.5,281 C230,281 232.2,280.1 235.5,279 Z" id="Path"></path>
                <path d="M253,269.1 C252.4,268 252.2,267.1 252.4,267.1 C252.7,267.1 253.4,268 254,269.1 C254.6,270.2 254.8,271.1 254.6,271.1 C254.3,271.1 253.6,270.2 253,269.1 Z" id="Path"></path>
                <path d="M250.6,264.4 C250,263 250.1,262.9 251.1,263.8 C251.8,264.5 252.1,265.3 251.8,265.6 C251.5,265.9 250.9,265.4 250.6,264.4 Z" id="Path"></path>
                <path d="M248.5,261 C248.1,260.4 248,259.8 248.3,259.5 C248.5,259.2 249,259.7 249.3,260.6 C250,262.3 249.4,262.6 248.5,261 Z" id="Path"></path>
                <path d="M245.5,255.1 C244.6,253.5 244.2,252.1 244.4,252.1 C244.7,252.1 245.6,253.5 246.5,255.1 C247.4,256.8 247.8,258.1 247.6,258.1 C247.3,258.1 246.4,256.8 245.5,255.1 Z" id="Path"></path>
                <path d="M181.2,193.9 C181.1,159.9 181.3,132.1 181.8,132.1 C182.2,132.1 188.8,144.4 196.5,159.4 C218.8,202.8 229.2,222.8 235.9,235.4 C239.3,241.8 241.9,247.1 241.7,247.1 C241.4,247.1 237.2,239.8 232.3,231 C227.5,222.1 222.6,213.2 221.5,211.2 C219.6,207.8 219.6,207.7 219,210.1 C218.6,211.9 217.5,212.7 215.1,213.2 C213.2,213.6 211.4,214.4 211,215.1 C210.6,215.8 209.3,216 207.7,215.5 C206,215.1 205,215.3 205,216 C205,216.6 204,217.1 202.7,217.1 C201.4,217.1 199.5,217.8 198.4,218.6 C197.4,219.4 195.5,220.1 194.3,220.1 C193.1,220.1 191.8,220.6 191.5,221.1 C191.2,221.7 189.3,222.1 187.4,222.1 L184,222.1 L184,180.7 C184,157.9 183.7,138.4 183.3,137.4 C182.8,136.4 182.3,162.6 182,195.6 L181.5,255.6 L181.2,193.9 Z" id="Shape"></path>
                <path d="M318.2,252.8 C316.6,250.9 310.8,238.9 311.2,238.5 C311.5,238.3 313.2,241.3 315,245.1 C316.9,249 318.7,252.1 319.1,252.1 C319.5,252.1 320.1,251.1 320.3,249.9 C320.7,247.9 320.7,247.9 320.9,250.3 C321,253.4 319.7,254.7 318.2,252.8 Z" id="Path"></path>
                <path d="M242.6,249.4 C242,248 242.1,247.9 243.1,248.8 C243.8,249.5 244.1,250.3 243.8,250.6 C243.5,250.9 242.9,250.4 242.6,249.4 Z" id="Path"></path>
                <path d="M382,247 C382,246.5 382.9,246.1 384,246.1 C385.1,246.1 386,246.3 386,246.5 C386,246.7 385.1,247.1 384,247.4 C382.9,247.7 382,247.5 382,247 Z" id="Path"></path>
                <path d="M388,245.1 C388.8,244.6 390.2,244.2 391,244.2 C392,244.2 391.8,244.5 390.5,245.1 C387.8,246.3 386.2,246.3 388,245.1 Z" id="Path"></path>
                <path d="M394,243.1 C394.8,242.6 396.2,242.2 397,242.2 C398,242.2 397.8,242.5 396.5,243.1 C393.8,244.3 392.2,244.3 394,243.1 Z" id="Path"></path>
                <path d="M400,241.1 C400.8,240.6 402.2,240.2 403,240.2 C404,240.2 403.8,240.5 402.5,241.1 C399.8,242.3 398.2,242.3 400,241.1 Z" id="Path"></path>
                <path d="M406,239.2 C406.8,238.8 408.9,238.1 410.5,237.7 C412.4,237.3 413,237.4 412,238 C411.2,238.4 409.2,239.1 407.5,239.5 C405.6,239.9 405,239.8 406,239.2 Z" id="Path"></path>
                <path d="M308.5,234 C307.6,232.3 307,230.7 307.2,230.5 C307.5,230.3 308.4,231.7 309.3,233.6 C311.4,237.9 310.6,238.3 308.5,234 Z" id="Path"></path>
                <path d="M415.5,236.1 C418.2,234.9 419.8,234.9 418,236.1 C417.2,236.6 415.8,237 415,237 C414,237 414.2,236.7 415.5,236.1 Z" id="Path"></path>
                <path d="M318.7,209.7 C318.3,195.2 317.6,182.3 317.1,181 L316.1,178.6 L316.1,181.3 C316,184.7 315.5,185 308.1,185.7 C304.5,186.1 301.9,186.9 301.6,187.7 C301.3,188.5 300.4,188.8 299.5,188.5 C298.7,188.1 297.4,188.3 296.7,188.9 C294.5,190.6 290.2,191.2 289.7,189.8 C289.5,189.2 289,188.8 288.7,189.1 C288.4,189.4 289.7,192.8 291.5,196.6 C296.6,207.6 304.1,223.4 305.2,225.4 C305.7,226.3 305.8,227.1 305.5,227.1 C305.3,227.1 299.2,215.5 292.2,201.4 C280.1,177.1 266.8,151.2 249,116.6 C244.8,108.4 236.4,92.2 230.5,80.6 C224.6,69.1 218.5,57.4 217,54.6 C210.2,42.2 199.9,22.1 200.4,22.1 C200.6,22.1 203.4,26.9 206.6,32.9 C215.3,49.2 220.4,58.6 225,66.6 C226.3,68.8 228,71.7 228.7,73.1 C230.1,75.5 230.1,75.5 229.5,71.8 L228.9,68.1 L272.2,68.3 L315.5,68.6 L316.1,71.6 C316.6,74.4 316.7,74.4 317.4,70.1 C317.8,67.6 318.5,54.8 318.9,41.6 C319.4,25.3 319.7,52.6 319.8,126.9 C319.9,186.9 319.8,236.1 319.7,236.1 C319.5,236.1 319,224.2 318.7,209.7 Z M287.7,186.4 C287.3,186.1 287,186.4 287,187.1 C287,187.8 287.3,188.1 287.7,187.8 C288,187.4 288,186.8 287.7,186.4 Z M285.7,182.4 C285.3,182.1 285,182.4 285,183.1 C285,183.8 285.3,184.1 285.7,183.8 C286,183.4 286,182.8 285.7,182.4 Z M281.7,174.4 C281.3,174.1 281,174.4 281,175.1 C281,175.8 281.3,176.1 281.7,175.8 C282,175.4 282,174.8 281.7,174.4 Z M233.7,80.4 C233.3,80.1 233,80.4 233,81.1 C233,81.8 233.3,82.1 233.7,81.8 C234,81.4 234,80.8 233.7,80.4 Z M231.7,76.4 C231.3,76.1 231,76.4 231,77.1 C231,77.8 231.3,78.1 231.7,77.8 C232,77.4 232,76.8 231.7,76.4 Z" id="Shape"></path>
                <path d="M385.6,155.9 C384.9,153.1 384.8,77.8 385.5,75.9 C386.1,74.4 393,74.7 393,76.2 C393,76.7 394.1,77.1 395.4,77.1 C396.8,77.1 398.2,77.6 398.6,78.2 C398.9,78.8 400.3,79.1 401.7,78.8 C403.2,78.5 404.4,78.9 404.7,79.7 C404.9,80.4 405.7,80.8 406.3,80.5 C407,80.3 409.1,81.9 411,84.2 C412.9,86.4 415.5,89.4 416.8,90.7 C418,92.1 419,93.9 419,94.7 C419,95.4 419.5,96.1 420,96.1 C420.6,96.1 421,97 421,98.1 C421,99.2 421.5,100.1 422,100.1 C422.6,100.1 423,104.3 423,110.6 C423,116.9 422.6,121.1 422,121.1 C421.5,121.1 421,122.2 421,123.5 C421,124.9 420.6,126.3 420,126.6 C419.5,126.9 419,127.9 419,128.8 C419,129.6 415.7,133.7 411.6,137.9 C407.5,142.2 403.1,146.9 401.9,148.4 C399.9,151 396.6,153 393,153.7 C392.2,153.9 391.4,154.5 391.2,155 C391,155.6 390.2,156.1 389.4,156.1 C388.6,156.1 388,156.6 388,157.1 C388,159 386.2,158.1 385.6,155.9 Z" id="Path"></path>
                <path d="M0.1,65.6 C0,63.1 4.4,49.4 7.3,43.2 C15.8,25 27.8,12.7 42.6,7.1 C50.7,4.1 50.3,5.3 42.3,8.4 C23.4,15.9 10.1,33 2.4,59.6 C1.2,64 0.1,66.7 0.1,65.6 Z" id="Path"></path>
                <path d="M191.5,6.1 C188.2,-0.4 183.5,0.1 254.3,0.1 C320.8,0.1 321.1,0.1 320.9,4 C320.9,5 320.5,4.7 320,3.4 L319.1,1.1 L255,1.1 C211,1.1 191,1.4 191,2.1 C191,2.7 191.7,4.5 192.5,6.1 C193.4,7.8 193.8,9.1 193.6,9.1 C193.3,9.1 192.4,7.8 191.5,6.1 Z" id="Path"></path>
                <path d="M117.3,2 C116.7,1.4 108.1,1.1 92.7,1.3 C79.8,1.5 69.4,1.3 69.7,0.9 C70.4,-0.4 117.8,-0.1 118.5,1.2 C119.5,2.7 118.6,3.3 117.3,2 Z" id="Path"></path>
                <path d="M382,1.9 C382,0.2 385.4,0.1 439.4,0.1 C471,0.1 497.1,0.4 497.3,0.9 C497.6,1.3 472.1,1.5 440.7,1.3 C395.5,1.1 383.5,1.3 382.8,2.3 C382.3,3.3 382,3.1 382,1.9 Z" id="Path"></path>
            </g>
            <g id="layer106" transform="translate(55.000000, 434.000000)" fill="#FFFFFF">
                <path d="M0.8,32.5 C0.5,32.2 0.8,29.5 1.5,26.7 C2.2,23.8 3.4,18.5 4.1,14.8 C4.8,11 5.7,8 6.2,8 C6.6,8 7,8.2 7,8.4 C7,8.7 7.9,13.5 9.1,19.2 C10.2,24.9 11.3,30.2 11.3,31 C11.5,32.1 10.2,32.6 6.5,32.8 C3.7,33 1.2,32.8 0.8,32.5 Z" id="Path"></path>
                <path d="M85.5,51.9 C85.2,51.1 85.1,39.4 85.2,26 L85.5,1.5 L91.6,1.2 C97,0.9 98.1,1.2 100.9,3.6 C106.7,8.4 107.5,11.1 107.5,25.5 C107.5,37.2 107.3,39 105.1,43.3 C103.8,45.9 101.4,49 99.7,50.2 C96,52.9 86.3,54 85.5,51.9 Z" id="Path"></path>
                <path d="M135,32.1 C135,31.6 135.9,26.8 137,21.4 C140.4,4.4 140.4,4.5 142,12.6 C142.5,15.3 143.6,20.6 144.5,24.5 C145.3,28.3 146,31.8 146,32.2 C146,32.7 143.5,33 140.5,33 C137.5,33 135,32.6 135,32.1 Z" id="Path"></path>
                <path d="M172.6,21.9 C172.3,20.2 172,16.2 172,13 C172,9.8 172.3,5.8 172.6,4.1 C173.2,1.1 173.5,1 178.1,1 C184.8,1 188,4.7 188,12.5 C188,20.2 183.9,25 177.4,25 C173.5,25 173.2,24.8 172.6,21.9 Z" id="Path"></path>
                <path d="M286.7,51.2 C285.2,50.3 282.7,47 281.2,44 C278.7,38.9 278.5,37.5 278.5,26.5 C278.5,15.6 278.7,14 281,9.6 C286,-0.1 293.6,-2.2 299.7,4.3 C304.1,9.1 305.5,14.7 305.5,27 C305.5,39.4 303.7,45.3 298.4,50 C294.5,53.4 290.9,53.8 286.7,51.2 Z" id="Path"></path>
            </g>
        </g>
    </g>
</svg>