<svg viewBox="0 0 1428 385" version="1.1" xmlns="http://www.w3.org/2000/svg" xmlns:xlink="http://www.w3.org/1999/xlink">
    <g id="Page-1" stroke="none" stroke-width="1" fill="none" fill-rule="evenodd">
        <g id="Netflix_Logo_RGB" transform="translate(-186.000000, -185.000000)" fill="#D8232A">
            <path d="M1136.45,185.802 L1076.36,185.802 L1076.36,521.872 C1130.97,523.751 1185.35,526.506 1239.51,530.117 L1239.51,470.908 C1205.25,468.623 1170.9,466.686 1136.45,465.082 L1136.45,185.802 Z M1614,185.836 L1547.99,185.836 L1504.48,286.687 L1465.39,185.836 L1400.37,185.836 L1470.24,366.043 L1393.97,542.832 C1415.07,544.89 1436.11,547.086 1457.13,549.406 L1501.49,446.615 L1545.42,559.927 C1568.3,562.869 1591.12,565.939 1613.9,569.19 L1614,569.151 L1535.72,367.26 L1614,185.836 Z M870.087,518.935 L930.18,518.922 L930.18,382.218 L1011.64,382.218 L1011.64,323.009 L930.18,323.009 L930.18,245.581 L1037.84,245.581 L1037.84,185.839 L870.087,185.839 L870.087,518.935 Z M645.688,245.577 L708.581,245.577 L708.581,522.455 C728.577,521.7 748.614,521.078 768.672,520.553 L768.672,245.577 L831.562,245.577 L831.562,185.836 L645.688,185.836 L645.688,245.577 Z M440.248,539.664 C495.633,534.631 551.273,530.483 607.166,527.264 L607.166,468.048 C571.455,470.112 535.845,472.556 500.339,475.348 L500.339,385.707 C523.636,385.475 554.313,384.764 581.49,385.102 L581.49,325.888 C559.778,325.835 524.882,326.191 500.339,326.505 L500.339,245.581 L607.166,245.581 L607.166,185.839 L440.248,185.839 L440.248,539.664 Z M322.372,402.781 L244.107,185.836 L186.997,185.836 L186.997,569.198 C206.989,566.352 227.019,563.627 247.088,561.013 L247.088,352.542 L316.679,552.453 C338.567,549.915 360.494,547.511 382.464,545.251 L382.464,185.836 L322.372,185.836 L322.372,402.781 Z M1289.05,533.682 C1309.11,535.217 1329.14,536.864 1349.15,538.644 L1349.15,185.836 L1289.05,185.836 L1289.05,533.682 L1289.05,533.682 Z" id="Fill-1"></path>
        </g>
    </g>
</svg>