<svg xmlns="http://www.w3.org/2000/svg" viewBox="0 0 1432.803 525.122"><path d="M151.166 410.001v-67.5c-33.336-3.664-61.422-18-84.25-43-22.836-25-34.25-54.664-34.25-89 0-25.328 7.414-48.5 22.25-69.5 14.828-21 34.078-36.828 57.75-47.5-14-9-25.586-17.414-34.75-25.25-9.172-7.828-13.75-15.414-13.75-22.75h7.5c4 0 7.914-.102 11.75-.313 3.828-.203 7.75-.938 11.75-2.188 6.328 10.117 16.914 19.977 31.75 29.586C141.744 82.195 154.83 87 166.166 87c14 0 28.078-4.195 42.25-12.602C222.58 65.992 233.83 55.531 242.166 43h32c-1.336 8-8.086 17.086-20.25 27.25-12.172 10.172-23.25 17.922-33.25 23.25 22.664 11 40.914 27.25 54.75 48.75 13.828 21.5 20.75 44.25 20.75 68.25 0 34-10.922 63.422-32.75 88.25-21.836 24.836-49.422 39.422-82.75 43.75V410h30.5v26.5h-30.5v42h-29.5v-42h-29.5V410h29.5zm-88-197.5c0 28 9.828 51.836 29.5 71.5 19.664 19.672 43.664 29.5 72 29.5 27.328 0 51-9.828 71-29.5 20-19.664 30-43.5 30-71.5 0-27.664-9.836-51.328-29.5-71-19.672-19.664-43.5-29.5-71.5-29.5-27.672 0-51.5 9.836-71.5 29.5-20 19.672-30 43.336-30 71z"/><path d="M273.126 214.534c-6.518 11.765-14.516 21.794-23.994 30.088-22.768 20.144-51.035 30.215-84.805 30.215s-62.08-10.071-84.932-30.215c-9.48-8.293-17.52-18.323-24.121-30.088 6.602-11.763 14.641-21.836 24.121-30.215 22.852-20.142 51.162-30.215 84.932-30.215s62.037 10.073 84.805 30.215c9.478 8.379 17.476 18.452 23.994 30.215zm-68.681 0c0-10.833-3.936-20.1-11.807-27.803-7.871-7.701-17.351-11.553-28.438-11.553-5.84 0-11.384 1.186-16.631 3.555l-4.189-9.521c-30.723 5.249-53.193 20.356-67.412 45.322 4.146 7.28 9.141 13.754 14.98 19.424 14.133 13.627 31.484 22.217 52.051 25.771-8.887-3.977-16.04-10.029-21.455-18.154-5.417-8.125-8.125-17.139-8.125-27.041a49.714 49.714 0 0 1 3.174-17.52l10.156 3.174c-1.863 4.656-2.793 9.438-2.793 14.346 0 10.918 3.936 20.208 11.807 27.866 7.871 7.661 17.349 11.489 28.438 11.489 11.086 0 20.566-3.829 28.438-11.489 7.87-7.659 11.806-16.948 11.806-27.866zm-9.776 0c0 8.21-2.983 15.234-8.95 21.074s-13.14 8.76-21.519 8.76c-8.464 0-15.659-2.92-21.582-8.76-5.925-5.84-8.887-12.864-8.887-21.074 0-3.638.635-7.151 1.904-10.537l31.104 14.092-14.6-30.85c3.809-1.692 7.828-2.539 12.061-2.539 8.379 0 15.552 2.92 21.519 8.76s8.95 12.865 8.95 21.074zm57.764 0c-4.148-7.278-9.184-13.794-15.107-19.551-14.219-13.711-31.738-22.3-52.559-25.771 9.055 3.894 16.333 9.861 21.836 17.9 5.586 8.295 8.379 17.436 8.379 27.422 0 9.902-2.729 18.916-8.188 27.041s-12.632 14.177-21.519 18.154c30.637-5.247 53.023-20.312 67.158-45.195zM316.167 226.786v-23.5c0-20.832 1.664-34.164 5-40 3.332-5.832 10.457-13.75 21.375-23.75 10.914-10 19.039-15 24.375-15 9.164 0 19.664 5.293 31.5 15.875 11.832 10.586 19.332 22.211 22.5 34.875l-27.75 19.25c-2.668-9-6.918-17.289-12.75-24.875-5.836-7.582-9.918-11.375-12.25-11.375-4.168 0-8.918 4.086-14.25 12.25-2.168 3.168-3.25 14.086-3.25 32.75v23.5c0 19.168 1.082 30.086 3.25 32.75 5.332 8.168 10.082 12.25 14.25 12.25 2.332 0 6.414-3.289 12.25-9.875 5.832-6.582 10.082-13.875 12.75-21.875l27.75 19.5c-3.168 11.5-10.668 22.043-22.5 31.625-11.836 9.586-22.336 14.375-31.5 14.375-5.336 0-13.461-5-24.375-15-10.918-10-18.043-17.914-21.375-23.75-3.335-5.832-5-19.164-5-40zM434.665 226.786v-23.5c0-20.832 1.664-34.164 5-40 3.332-5.832 10.457-13.75 21.375-23.75 10.914-10 19.039-15 24.375-15 9.164 0 19.664 5.293 31.5 15.875 11.832 10.586 19.332 22.211 22.5 34.875l-27.75 19.25c-2.668-9-6.918-17.289-12.75-24.875-5.836-7.582-9.918-11.375-12.25-11.375-4.168 0-8.918 4.086-14.25 12.25-2.168 3.168-3.25 14.086-3.25 32.75v23.5c0 19.168 1.082 30.086 3.25 32.75 5.332 8.168 10.082 12.25 14.25 12.25 2.332 0 6.414-3.289 12.25-9.875 5.832-6.582 10.082-13.875 12.75-21.875l27.75 19.5c-3.168 11.5-10.668 22.043-22.5 31.625-11.836 9.586-22.336 14.375-31.5 14.375-5.336 0-13.461-5-24.375-15-10.918-10-18.043-17.914-21.375-23.75-3.336-5.832-5-19.164-5-40zM667.912 127.536v102.25c0 17.5-.918 28.418-2.75 32.75-2.836 6.836-10.211 15.711-22.125 26.625-11.918 10.918-20.875 16.375-26.875 16.375s-14.961-5.457-26.875-16.375c-11.918-10.914-19.293-19.789-22.125-26.625-1.836-4.332-2.75-15.25-2.75-32.75v-36.25c0-13.5-.961-23-2.875-28.5-1.918-5.5-5.961-12-12.125-19.5l30-21c5.332 3.5 9.914 10.293 13.75 20.375 3.832 10.086 5.75 22.125 5.75 36.125v48.75c0 13.668.664 22.043 2 25.125 1.332 3.086 3.625 6.336 6.875 9.75 3.25 3.418 6.039 5.125 8.375 5.125 2.332 0 5.125-1.707 8.375-5.125 3.25-3.414 5.539-6.664 6.875-9.75 1.332-3.082 2-11.457 2-25.125v-102.25h34.5zM776.661 272.536v30h-91.25v-175h34.5v145h56.75zM857.914 127.536v30h-32.5v145h-34.5v-145h-32.5v-30h99.5zM907.163 138.286c13.332-9.164 22.414-13.75 27.25-13.75 4.832 0 12.289 4.375 22.375 13.125 10.082 8.75 16.375 14.918 18.875 18.5 2.5 3.586 3.75 8.293 3.75 14.125 0 11.336-.918 18.086-2.75 20.25-3.5 5.336-8.918 11.586-16.25 18.75 10.164 9.668 16.5 17.086 19 22.25 1.332 3.5 2.75 14.125 4.25 31.875s2.25 30.793 2.25 39.125h-37.5c0-7.5-.668-19.25-2-35.25-1.336-16-2.793-25.664-4.375-29-1.586-3.332-3.461-6.25-5.625-8.75h-22.25v73h-34.5v-109.5c0-13.5-.961-22.875-2.875-28.125-1.918-5.25-5.961-11.707-12.125-19.375l30-21c5.332 3.5 9.5 8.086 12.5 13.75zm7 42.75v19.25h9.75c2.332 0 5.332-1.832 9-5.5 3.664-3.664 6.039-6.789 7.125-9.375a20.81 20.81 0 0 0 1.625-8.125c0-2.832-.543-5.375-1.625-7.625-1.086-2.25-2.625-4.789-4.625-7.625-2-2.832-3.668-4.25-5-4.25-4.5 0-10.168 1.086-17 3.25.5 6.5.75 13.168.75 20zM1029.163 140.786c11.832-10.832 20.832-16.25 27-16.25 6.164 0 15.164 5.418 27 16.25 11.832 10.836 19.164 19.75 22 26.75 1.832 4.836 2.75 15.75 2.75 32.75v102.25h-34.5v-37.5h-34.5v37.5h-34.5v-102.25c0-17 .914-27.914 2.75-32.75 2.832-7 10.164-15.914 22-26.75zm9.75 59.5v34.75h34.5v-34.75c0-13.664-.668-22.039-2-25.125-1.336-3.082-3.625-6.332-6.875-9.75-3.25-3.414-6.043-5.125-8.375-5.125-2.336 0-5.125 1.711-8.375 5.125-3.25 3.418-5.543 6.668-6.875 9.75-1.336 3.086-2 11.461-2 25.125zM1187.911 302.536v-127.25c0-2.832-.543-5.207-1.625-7.125-1.086-1.914-2.875-4.125-5.375-6.625s-4.5-3.75-6-3.75c-3.336 0-7.75 3.336-13.25 10 .5 4.168.75 8.586.75 13.25v121.5h-34.5v-107c0-14.164-.961-24.082-2.875-29.75-1.918-5.664-5.961-12.414-12.125-20.25l30-21c5.332 3.836 9.164 8.418 11.5 13.75 12-9.164 20.5-13.75 25.5-13.75s14.414 6.418 28.25 19.25c13.832-12.832 23.582-19.25 29.25-19.25 4.164 0 11.289 4.375 21.375 13.125 10.082 8.75 16.375 14.918 18.875 18.5 2.5 3.586 3.75 8.293 3.75 14.125v132.25h-34.5v-127.25c0-3.164-.586-5.625-1.75-7.375-1.168-1.75-3.125-3.875-5.875-6.375s-5.168-3.75-7.25-3.75c-2.086 0-5.375 2.75-9.875 8.25.164.836.25 2.25.25 4.25v132.25h-34.5zM1326.159 140.786c11.832-10.832 20.832-16.25 27-16.25 6.164 0 15.164 5.418 27 16.25 11.832 10.836 19.164 19.75 22 26.75 1.832 4.836 2.75 15.75 2.75 32.75v102.25h-34.5v-37.5h-34.5v37.5h-34.5v-102.25c0-17 .914-27.914 2.75-32.75 2.832-7 10.164-15.914 22-26.75zm9.75 59.5v34.75h34.5v-34.75c0-13.664-.668-22.039-2-25.125-1.336-3.082-3.625-6.332-6.875-9.75-3.25-3.414-6.043-5.125-8.375-5.125-2.336 0-5.125 1.711-8.375 5.125-3.25 3.418-5.543 6.668-6.875 9.75-1.336 3.086-2 11.461-2 25.125z"/></svg>