
<svg viewBox="0 0 296 49" version="1.1" xmlns="http://www.w3.org/2000/svg" xmlns:xlink="http://www.w3.org/1999/xlink">
    <g id="Page-1" stroke="none" stroke-width="1" fill="none" fill-rule="evenodd">
        <g id="pantaflix-logo-color">
            <g id="Group" transform="translate(60.000000, 7.000000)">
                <path d="M210.160523,32.0940475 C209.789547,32.6943242 210.160523,33.3873042 210.995332,33.3873042 L214.566486,33.3873042 C214.937462,33.3873042 215.215578,33.1560049 215.354866,32.9712867 L222.496945,21.1484054 L222.682662,21.1484054 L229.91737,32.9712867 C230.009999,33.1560049 230.334774,33.3873042 230.70575,33.3873042 L234.276904,33.3873042 C235.065284,33.3873042 235.436489,32.7404464 235.065284,32.0940475 L225.557836,16.8069545 L234.740738,2.3514375 C235.111713,1.7509315 234.740738,1.0584105 233.952128,1.0584105 L230.009999,1.0584105 C229.639253,1.0584105 229.360907,1.2892507 229.268048,1.4739689 L222.636003,12.5118552 L222.496945,12.5118552 L216.050387,1.473969 C215.911559,1.2431286 215.586783,1.0584104 215.262237,1.0584104 L211.320108,1.0584104 C210.531728,1.0584104 210.160523,1.7509314 210.531728,2.3514376 L219.7144,16.8069546 L210.160523,32.0940476 L210.160523,32.0940475 Z" id="Path" fill="#FFEB00" fill-rule="nonzero"></path>
                <path d="M198.870141,32.509606 C198.870141,32.9712867 199.287545,33.3870747 199.751379,33.3870747 L202.8125,33.3870747 C203.276104,33.3870747 203.693509,32.9712867 203.693509,32.509606 L203.693509,1.935879 C203.693509,1.473969 203.276104,1.0584104 202.8125,1.0584104 L199.751379,1.0584104 C199.287545,1.0584104 198.870141,1.4739689 198.870141,1.9358791 L198.870141,32.5096061 L198.870141,32.509606 Z" id="Path"></path>
                <path d="M198.86,33.41 L203.715,33.41 L203.715,1.055 L198.86,1.055 L198.86,33.41 Z M174.733303,32.509606 C174.733303,32.9712867 175.104508,33.3870747 175.614312,33.3870747 L192.12478,33.3870747 C192.635274,33.3870747 193.006249,32.9712867 193.006249,32.509606 L193.006249,29.9694442 C193.006249,29.5077635 192.635274,29.0919755 192.12478,29.0919755 L179.556671,29.0919755 L179.556671,1.935879 C179.556671,1.473969 179.139267,1.0584104 178.675433,1.0584104 L175.614312,1.0584104 C175.104508,1.0584104 174.733303,1.4739689 174.733303,1.9358791 L174.733303,32.5096061 L174.733303,32.509606 Z M148.880418,1.0584104 C148.370384,1.0584104 147.999409,1.4739689 147.999409,1.9358791 L147.999409,32.5096061 C147.999409,32.9717458 148.370384,33.3870748 148.880418,33.3870748 L151.894879,33.3870748 C152.358943,33.3870748 152.776118,32.9717458 152.776118,32.5096061 L152.776118,20.3629516 L165.158739,20.3629516 C165.622573,20.3629516 166.040208,19.9476226 166.040208,19.4857123 L166.040208,16.94578 C166.040208,16.4836404 165.622573,16.0683113 165.158739,16.0683113 L152.776118,16.0683113 L152.776118,5.3996318 L167.43148,5.3996318 C167.941743,5.3996318 168.312719,4.9838438 168.312719,4.5223925 L168.312719,1.935879 C168.312719,1.473969 167.941743,1.0584104 167.43148,1.0584104 L148.880418,1.0584104 Z" id="Shape" fill="#FFEB00" fill-rule="nonzero"></path>
                <path d="M143.614132,32.607546 C143.604297,33.038862 143.262746,33.3870747 142.732663,33.3870747 L137.584979,33.3870747 C136.74994,33.3870747 136.379194,33.1098827 135.96179,32.232414 L134.292171,28.5841726 L121.677403,28.5841726 L120.008014,32.2785362 C119.776097,32.8329202 119.265833,33.3870747 118.338165,33.3870747 L113.236911,33.3870747 C112.54116,33.3870747 112.169954,32.786798 112.448531,32.1862917 L126.964375,1.1043031 C127.103663,0.8273407 127.428439,0.5965003 127.752985,0.5965003 L128.216819,0.5965003 C128.541365,0.5965003 128.865911,0.8273407 129.005199,1.1043033 L143.521503,32.1862919 C143.581543,32.3159302 143.611332,32.4455579 143.614132,32.5691375 L143.614132,32.6075462 Z M124.460177,22.3028367 L131.509397,22.3028367 L127.984902,14.6825807 L127.938472,14.6825807 L124.460177,22.3028367 Z M97.6334237,32.509606 C97.6334237,32.9712867 98.0508284,33.3870747 98.5144327,33.3870747 L104.079751,33.3870747 C104.543815,33.3870747 104.96099,32.9712867 104.96099,32.509606 L104.96099,7.8473198 L111.593035,7.8473198 C112.103298,7.8473198 112.474044,7.4317612 112.474044,6.9696216 L112.474044,1.935879 C112.474044,1.473969 112.103298,1.0584104 111.593035,1.0584104 L91.0013787,1.0584104 C90.4911153,1.0584104 90.1201401,1.4739689 90.1201401,1.9358791 L90.1201401,6.9696217 C90.1201401,7.4317613 90.4911154,7.8473199 91.0013788,7.8473199 L97.6334238,7.8473199 L97.6334238,32.509606 L97.6334237,32.509606 Z M57.1201192,32.509606 C57.1201192,32.9712867 57.5375239,33.3870747 58.0011282,33.3870747 L63.5202472,33.3870747 C64.0305107,33.3870747 64.4014859,32.9712867 64.4014859,32.509606 L64.4014859,15.2828575 L64.4479152,15.2828575 L82.4884842,33.3409525 C82.8596895,33.7103889 83.1842354,33.8489849 83.6480694,33.8489849 L84.1116736,33.8489849 C84.5757374,33.8489849 84.9931421,33.5717929 84.9931421,33.0178677 L84.9931421,1.935879 C84.9931421,1.473969 84.5757374,1.0584104 84.1116736,1.0584104 L78.546355,1.0584104 C78.0363214,1.0584104 77.665346,1.4739689 77.665346,1.9358791 L77.665346,18.3312811 L77.6189168,18.3312811 L59.8098048,1.289251 C59.4390595,0.9198146 59.1142838,0.596271 58.6506796,0.596271 L57.9549286,0.596271 C57.4910946,0.596271 57.0736899,0.9659368 57.0736899,1.427847 L57.1201191,32.5096062 L57.1201192,32.509606 Z M22.0335349,32.5537955 C22.0383766,32.4348505 22.0681434,32.3105761 22.1257039,32.1862918 L36.642008,1.104303 C36.7808365,0.8273406 37.1056123,0.5965002 37.4301582,0.5965002 L37.894222,0.5965002 C38.218768,0.5965002 38.5433138,0.8273406 38.682602,1.1043032 L53.1984463,32.1862918 C53.4770225,32.786798 53.1058173,33.3870748 52.4102963,33.3870748 L47.262382,33.3870748 C46.427343,33.3870748 46.0565975,33.1098828 45.639193,32.232414 L43.9693444,28.5841726 L31.354806,28.5841726 L29.6854172,32.2785362 C29.4532702,32.8329202 28.9432367,33.3870747 28.0155687,33.3870747 L22.914314,33.3870747 C22.3905708,33.3870747 22.0510066,33.0471417 22.033535,32.6229857 L22.033535,32.5537955 Z M34.13758,22.3028367 L41.1867998,22.3028367 L37.6623048,14.6825807 L37.6156456,14.6825807 L34.13758,22.3028367 Z" id="Shape" fill="#000000" fill-rule="nonzero"></path>
                <g id="a-link" transform="translate(0.000000, 1.000000)" fill="#000000" fill-rule="nonzero">
                    <path d="M12.5977994,13.913421 L7.9137194,13.9134212 L7.9137194,6.8470904 L12.5977994,6.8470904 C14.5919639,6.8470904 15.9832361,8.3252948 15.9832361,10.2649504 C15.9832361,12.343202 14.5919641,13.9134212 12.5977995,13.9134212 L12.5977994,13.913421 Z M12.7368576,0.058181 L1.5600206,0.058181 C1.0497573,0.058181 0.6785522,0.4741984 0.6785522,0.935879 L0.6785522,31.509606 C0.6785522,31.9715162 1.0497572,32.3870747 1.5600207,32.3870747 L7.0322507,32.3870747 C7.4963147,32.3870747 7.9137193,31.9715162 7.9137193,31.509606 L7.9137193,20.6564378 L12.783287,20.6564378 C18.8586393,20.6564378 23.1255445,15.9916728 23.1255445,10.2649503 C23.1255445,4.6768238 18.8586393,0.0581809 12.7368575,0.0581809 L12.7368576,0.058181 Z" id="a"></path>
                </g>
            </g>
            <g id="Group" transform="translate(0.280000, 0.070000)" fill="#000000" fill-rule="nonzero">
                <g id="b-link" transform="translate(14.000000, 10.000000)">
                    <path d="M24.0755326,15.6480618 L16.7268204,19.8736335 L16.7268204,9.5174835 L24.0755326,13.7430552 C24.5745336,14.0291962 24.628318,14.5046448 24.628318,14.6960174 C24.628318,14.8867016 24.5745335,15.3621502 24.0755326,15.6480618 Z M5.0976418,26.560202 C4.598641,26.848179 4.1571023,26.6554295 3.9918413,26.560202 C3.8252013,26.4647453 3.4390559,26.1806694 3.4390559,25.60724 L3.4390559,16.928239 L12.7656134,22.1510595 L5.0976417,26.5602021 L5.0976418,26.560202 Z M14.1035608,9.4038989 L14.1035608,19.903005 L4.7901048,14.6875272 L14.1035608,9.4038989 L14.1035608,9.4038989 Z M3.9918413,2.8311443 C4.092285,2.7728605 4.2947813,2.6794688 4.5506027,2.6794688 C4.7147144,2.6794688 4.9022707,2.7180188 5.0976417,2.8311443 L12.6927515,7.198295 L3.4390559,12.4479627 L3.4390559,3.783877 C3.4390559,3.2104476 3.8252011,2.9263716 3.9918412,2.8311443 L3.9918413,2.8311443 Z M25.3870475,11.4800853 L6.4093865,0.5681745 C5.2406075,-0.1025475 3.8474965,-0.1018592 2.6796369,0.5688629 C1.5129265,1.2395849 0.8155665,2.4417445 0.8155665,3.7838769 L0.8155665,25.60724 C0.8155665,26.9493724 1.5129265,28.1517615 2.6796368,28.8224835 C3.2639113,29.1581888 3.904039,29.3259265 4.5446264,29.3259265 C5.1847542,29.3259265 5.8255714,29.1588771 6.4093864,28.8231719 L25.3870474,17.9110315 C26.5544472,17.2403095 27.2518071,16.0381498 27.2518071,14.6960173 C27.2518071,13.3531965 26.5544471,12.1514957 25.3870473,11.4800853 L25.3870475,11.4800853 Z" id="b"></path>
                </g>
                <path d="M24.5386126,46.2610043 C12.4543342,46.2610043 2.6232596,36.4709408 2.6232596,24.436953 C2.6232596,12.4029652 12.454334,2.6124428 24.5386125,2.6124428 C36.6231205,2.6124428 46.4546551,12.4029652 46.4546551,24.436953 C46.4546551,36.4709408 36.6231206,46.2610043 24.5386125,46.2610043 L24.5386126,46.2610043 Z M24.5386126,0 C11.0081282,0 0,10.9621634 0,24.436953 C0,37.9110542 11.0081282,48.8732177 24.5386126,48.8732177 C38.0697864,48.8732177 49.0779146,37.9110542 49.0779146,24.436953 C49.0779147,10.9621634 38.0697865,0 24.5386127,0 L24.5386126,0 Z" id="Shape"></path>
            </g>
        </g>
    </g>
</svg>