<?xml version="1.0" encoding="UTF-8"?>
<svg width="130px" height="54px" viewBox="0 0 130 54" version="1.1" xmlns="http://www.w3.org/2000/svg" xmlns:xlink="http://www.w3.org/1999/xlink">
    <!-- Generator: Sketch 61 (89581) - https://sketch.com -->
    <title>posflix 2</title>
    <desc>Created with Sketch.</desc>
    <g id="Page-1" stroke="none" stroke-width="1" fill="none" fill-rule="evenodd">
        <g id="posflix" fill-rule="nonzero">
            <path d="M3,24 C11.8822,19.647 20.473,15.215 30,12.369 C63.214,2.4466 97.355,7.8154 127,25 C121.84,15.259 108.165,8.673 98,5.424 C74.811,-1.9881 49.751,-1.7007 27,7.3476 C18.535,10.7142 7.848,15.9866 3,23.9996 L3,24 Z" id="Path" fill="#FB6B10"></path>
            <path d="M28.004,30.654 C42.402,26.153 49.864,48.713 34.996,53.053 C20.653,57.24 13.958,35.044 28.004,30.654 Z M0,30 C4.896,30 10.7831,29.224 14.867,32.514 C24.77,40.493 13.461,48.819 5,49 L5,49 L5,53 L0,53 Z M28.059,36.029 C20.052,40.371 27.284,52.11 34.941,47.971 C43.215,43.5 36.134,31.648 28.059,36.029 Z M5,35 L5,44 C6.9173,43.954 9.0642,44.091 10.8557,43.258 C13.843,41.868 14.369,38.136 11.5671,36.179 C9.6978,34.873 7.1574,35.052 5,35 Z M47,49 L47,53 C50.953,53 57.179,54.16 60.656,51.972 C64.468,49.573 64.686,43.43 60.772,41.028 C57.941,39.291 53.246,39.603 50,39 C52.747,34.018 57.908,35 63,35 L63,30 C60.667,30 58.331,29.961 55.998,30.005 C50.458,30.109 42.14,35.258 47.603,41.566 C50.041,44.381 53.897,42.956 56.534,45.008 C58.041,46.181 57.285,47.712 55.793,48.401 C53.288,49.559 49.69,49 47,49 M67,30 L67,53 L71,53 L71,44 L78,44 L78,40 L71,40 L71,35 L83,35 L83,30 L67,30 M85,30 L85,53 L101,53 L101,49 L90,49 L90,30 L85,30 M104,30 L104,53 L108,53 L108,30 L104,30 M111,30 C112.273,33.705 115.719,37.047 116.087,41.001 C116.473,45.14 112.679,49.407 111,53 C116.241,52.826 118.387,50.991 120,46 C123.083,49.774 124.882,52.606 130,53 C128.442,49.385 124.742,45.095 125.158,41.015 C125.559,37.08 129.067,33.901 130,30 C124.699,30.409 122.769,33.193 121,38 C118.257,33.555 116.51,30.424 111,30 Z" id="Shape" fill="#0C86C8"></path>
        </g>
    </g>
</svg>