
<svg viewBox="0 0 1557 230" version="1.1" xmlns="http://www.w3.org/2000/svg" xmlns:xlink="http://www.w3.org/1999/xlink">
    <g id="Page-1" stroke="none" stroke-width="1" fill="none" fill-rule="evenodd">
        <g id="punchflixfacebook" transform="translate(0.100000, 0.500000)" fill="#46318A" fill-rule="nonzero">
            <path d="M984.4,228.3 C984.1,227.6 984,175.9 984.1,113.5 L984.4,0 L1270.4,0 L1556.4,0 L1556.4,114.5 L1556.4,229 L1270.6,229.3 C1042.5,229.5 984.7,229.3 984.4,228.3 Z M1021.7,190.8 L1021.4,170 L1014.9,170.1 L1008.4,170.1 L1008.1,190.8 L1007.9,211.5 L1014.9,211.5 L1021.9,211.5 L1021.7,190.8 Z M1298.9,205.5 L1298.9,199.5 L1243.7,199.3 L1188.4,199 L1188.1,184.8 L1187.8,170.5 L1181.4,170.5 L1174.9,170.5 L1174.9,191 L1174.9,211.5 L1236.9,211.5 L1298.9,211.5 L1298.9,205.5 Z M1342.7,190.8 L1342.4,170.1 L1339.4,170.2 C1337.8,170.2 1334.9,170.3 1333.2,170.4 L1329.9,170.5 L1329.9,191 L1329.9,211.5 L1336.4,211.5 L1342.9,211.5 L1342.7,190.8 Z M1409.7,191.3 C1417.5,180.3 1423.7,171 1423.5,170.7 C1422.7,170 1410.2,169.7 1409.1,170.4 C1408.4,170.9 1400.1,182.2 1383.2,205.6 C1381.4,208.2 1379.9,210.5 1379.9,210.9 C1379.9,211.2 1383.4,211.5 1387.7,211.5 L1395.5,211.5 L1409.7,191.3 Z M1538.3,210.3 C1535.9,206.4 1510.5,171.4 1509.6,170.8 C1509,170.5 1505.2,170.1 1501.2,170 L1493.9,169.8 L1495.8,172.8 C1496.8,174.4 1503.4,183.8 1510.3,193.6 L1523,211.5 L1531,211.5 C1537.1,211.5 1538.8,211.2 1538.3,210.3 Z M1021.9,139.5 L1022.4,123 L1078.7,122.7 L1134.9,122.5 L1134.9,116.5 L1134.9,110.5 L1079,110.5 C1048.2,110.5 1022.8,110.1 1022.5,109.7 C1022.2,109.2 1021.9,102.9 1021.8,95.7 L1021.7,82.5 L1014.8,82.5 L1007.9,82.5 L1007.9,119.5 L1007.9,156.6 L1014.7,156.3 L1021.4,156 L1021.9,139.5 Z M1187.9,119.5 L1187.9,82.5 L1181.4,82.5 L1174.9,82.5 L1174.9,119.5 L1174.9,156.5 L1181.4,156.5 L1187.9,156.5 L1187.9,119.5 Z M1342.9,119.5 L1342.9,82.5 L1336.4,82.5 L1329.9,82.5 L1329.9,119.5 L1329.9,156.5 L1336.4,156.5 L1342.9,156.5 L1342.9,119.5 Z M1437.4,152.3 C1440.1,148.3 1457.7,123.5 1458.5,122.6 C1459.3,121.8 1462.2,125.2 1468.6,134.4 C1472.2,139.7 1477.3,146.8 1479.8,150.3 L1484.3,156.5 L1492.1,156.5 L1499.9,156.5 L1486.1,137.3 C1478.5,126.7 1471.3,116.5 1470,114.7 L1467.7,111.4 L1472.4,104.7 C1474.9,101 1479.5,94.5 1482.5,90.3 L1488,82.5 L1480.2,82.5 L1472.4,82.5 L1466.9,90.5 C1463.9,95 1461,99 1460.3,99.6 C1459.4,100.4 1457.3,98.3 1452.4,91.6 L1445.7,82.5 L1438.2,82.5 L1430.7,82.5 L1432.4,85.3 C1433.4,86.8 1437.5,92.5 1441.4,98 C1445.3,103.5 1449,108.9 1449.6,110 C1450.5,111.7 1449,114.3 1438.8,128.5 C1432.2,137.6 1425,147.6 1422.8,150.8 L1418.8,156.5 L1426.7,156.5 L1434.6,156.5 L1437.4,152.3 Z M1022.1,49.3 L1022.4,30 L1080.7,29.7 L1138.9,29.5 L1138.9,23 L1138.9,16.5 L1073.4,16.5 L1007.9,16.5 L1007.9,42.5 L1007.9,68.5 L1014.9,68.5 L1021.9,68.5 L1022.1,49.3 Z M1187.9,42.5 L1187.9,16.5 L1181.4,16.5 L1174.9,16.5 L1174.9,42.5 L1174.9,68.5 L1181.4,68.5 L1187.9,68.5 L1187.9,42.5 Z M1342.9,42.5 L1342.9,16.5 L1336.4,16.5 L1329.9,16.5 L1329.9,42.5 L1329.9,68.5 L1336.4,68.5 L1342.9,68.5 L1342.9,42.5 Z M1433.7,65.3 C1432.4,63.5 1425.3,53.5 1417.9,43 C1397.6,14.1 1400,16.5 1391.8,16.5 C1388,16.5 1384.9,16.8 1384.9,17.3 C1384.9,17.7 1388.9,23.5 1393.7,30.2 C1398.5,37 1406.5,48.3 1411.4,55.4 L1420.4,68.4 L1428.3,68.4 L1436.1,68.5 L1433.7,65.3 Z M1515.1,44 C1524.4,30.8 1532.4,19.2 1533,18.3 C1533.9,16.7 1533.3,16.5 1526.7,16.5 L1519.4,16.6 L1505.9,35.7 C1498.5,46.2 1490.2,57.9 1487.5,61.7 L1482.7,68.6 L1490.4,68.3 L1498.2,68 L1515.1,44 Z" id="Shape"></path>
            <path d="M269.9,217.4 C257.1,216.4 246.3,213.4 234.9,207.8 C226.8,203.8 224,201.7 215.9,193.5 C206.9,184.5 199.9,174.7 199.5,170.8 C199.4,169.1 201,169 218.1,168.5 C228.3,168.2 238.3,168.3 240.1,168.6 C242,168.9 245.3,170.5 247.5,172.3 C263.4,185.1 293.8,185.1 310,172.4 L315,168.4 L335.7,168.5 C347.1,168.5 356.7,168.9 357.2,169.4 C357.7,169.9 356.6,173.2 354.7,177 C350.7,185 338.5,198.6 330.2,204.1 C314.6,214.5 292.6,219.3 269.9,217.4 Z" id="Path"></path>
            <path d="M684.4,217.4 C659.9,214.5 639.5,205 624,189.3 C616.6,181.7 608.6,170.8 609.5,169.3 C609.8,168.9 620.7,168.5 633.8,168.5 L657.7,168.5 L663.5,172 C683.6,184.1 713.4,184.1 735.6,172 C740.9,169.1 742.8,168.6 749.4,168.4 L757.1,168.2 L767,178.1 L776.9,187.9 L774.6,190.3 C771.2,194 760.1,201.9 752.9,205.8 C734.8,215.7 708.2,220.2 684.4,217.4 Z" id="Path"></path>
            <path d="M0.4,212.2 C0.1,211.5 -1.38777878e-17,201.5 0.1,190 L0.4,169 L19.9,169 L39.4,169 L39.4,191 L39.4,213 L20.1,213.3 C5.1,213.5 0.7,213.3 0.4,212.2 Z" id="Path"></path>
            <path d="M403.6,212.9 C402.5,211.7 402.8,169.7 403.9,169 C405.4,168 440.1,168.3 441.1,169.3 C441.6,169.8 441.8,179.8 441.7,191.6 L441.4,213 L422.8,213.3 C412.6,213.4 404,213.2 403.6,212.9 Z" id="Path"></path>
            <path d="M527.2,191.8 C517.8,179.8 510.5,169.6 510.9,169.2 C511.9,168.1 567,168.2 568.1,169.3 C568.6,169.8 568.8,179.8 568.7,191.6 L568.4,213 L556.3,213.3 L544.2,213.6 L527.2,191.8 Z" id="Path"></path>
            <path d="M796.4,212.2 C796.1,211.5 796,201.5 796.1,190 L796.4,169 L815.4,169 L834.4,169 L834.4,191 L834.4,213 L815.6,213.3 C801,213.5 796.7,213.3 796.4,212.2 Z" id="Path"></path>
            <path d="M930.4,212.2 C930.1,211.5 930,201.5 930.1,190 L930.4,169 L949.4,169 L968.4,169 L968.4,191 L968.4,213 L949.6,213.3 C935,213.5 930.7,213.3 930.4,212.2 Z" id="Path"></path>
            <path d="M1,157.1 C0.2,156.2 -0.1,145.1 0.1,118.4 L0.4,81 L18.8,80.7 C31.5,80.5 37.6,80.8 38.5,81.6 C39.6,82.5 39.9,86.7 39.9,101.2 L39.9,119.6 L72.2,119.3 L104.4,119 L110,116.4 C121,111.2 127.1,102.1 128.6,88.5 L129.4,81 L148.2,80.7 C164.8,80.5 167,80.6 167.6,82.1 C168.6,84.9 166.2,100.8 163.4,109.1 C157.4,127.2 142.7,142.9 125,150.1 C113.3,154.8 106.5,155.5 71.9,155.5 C44.9,155.5 40,155.7 38.9,157 C37.2,159.1 2.7,159.2 1,157.1 Z" id="Path"></path>
            <path d="M194.5,156.3 C191.8,152.2 190.8,137.9 191.1,109 L191.4,81 L210.4,81 L229.4,81 L230,112.5 C230.5,141.2 230.7,144.6 232.7,150.4 C233.8,154 234.6,157.2 234.3,157.7 C234,158.1 225.3,158.5 214.9,158.5 C196.3,158.5 195.9,158.5 194.5,156.3 Z" id="Path"></path>
            <path d="M323.1,157.2 C322.3,156.2 322.6,154.2 324.1,149.4 C326.1,143.6 326.3,140.1 326.8,112 L327.4,81 L346.4,81 L365.4,81 L365.4,111.5 C365.4,141.5 364.4,154 361.7,157.2 C360.2,159.1 324.6,159 323.1,157.2 Z" id="Path"></path>
            <path d="M403.4,157.2 C403.1,156.6 403,139.1 403.1,118.5 L403.4,81 L444.9,80.8 C484.7,80.5 486.5,80.6 487.9,82.4 C488.7,83.5 498.4,95.7 509.4,109.5 L529.4,134.7 L529.9,107.9 L530.4,81 L549.4,81 L568.4,81 L568.7,118.4 C568.9,145.1 568.6,156.2 567.8,157.1 C566.9,158.2 560.5,158.5 534.3,158.5 L502,158.5 L499.5,155.8 C497.2,153.4 471.4,120.4 449.1,91.4 L442.4,82.7 L442.1,119.3 C442,144.2 441.5,156.2 440.8,157.2 C439.2,159 404.1,159.1 403.4,157.2 Z" id="Path"></path>
            <path d="M603.6,156.7 C599.6,152.3 595.6,131.2 595.6,115 C595.6,103.8 597.6,89.2 599.9,83 L600.9,80.5 L620.4,80.5 C635.5,80.5 640.1,80.8 640.5,81.8 C640.7,82.5 639.9,86 638.5,89.6 C631.4,108.6 633.3,133.9 643.1,151.2 C644.7,154.1 645.8,156.9 645.4,157.5 C645,158.1 637.3,158.5 625,158.5 C607.1,158.5 605.1,158.3 603.6,156.7 Z" id="Path"></path>
            <path d="M796.4,157.3 C796.1,156.6 796,139.1 796.1,118.5 L796.4,81 L815.4,81 L834.4,81 L834.7,89.3 C834.9,94.9 835.4,97.5 836.2,97.5 C836.9,97.5 858.2,97.6 883.6,97.8 L929.8,98 L930.1,89.5 L930.4,81 L949.4,81 L968.4,81 L968.7,118.4 C968.9,145.1 968.6,156.2 967.8,157.1 C966.3,159 932.9,159.1 931.1,157.3 C930.3,156.5 929.9,152.4 929.9,145.3 L929.9,134.5 L882.4,134.5 L835,134.5 L834.7,146.3 L834.4,158 L815.6,158.3 C801.1,158.5 796.7,158.3 796.4,157.3 Z" id="Path"></path>
            <path d="M0.4,69.3 C0.1,68.5 0,56.1 0.1,41.5 L0.4,15 L52.4,14.7 C107.9,14.5 111.3,14.7 124.2,19.5 C130,21.7 140.8,28.4 145.5,32.7 C149.9,36.7 156.5,45.8 159.6,52 C163.1,58.8 166.1,68.3 165.3,69.6 C165,70.1 156,70.5 145.4,70.5 L125.9,70.5 L123.5,66.8 C120,61.2 116.1,58 109.4,54.8 L103.4,52 L71.7,51.7 L40,51.4 L39.7,60.7 L39.4,70 L20.1,70.3 C5.1,70.5 0.7,70.3 0.4,69.3 Z" id="Path"></path>
            <path d="M191.4,69.3 C191.1,68.5 191,56.1 191.1,41.5 L191.4,15 L210.4,15 L229.4,15 L229.4,42.5 L229.4,70 L210.6,70.3 C196,70.5 191.7,70.3 191.4,69.3 Z" id="Path"></path>
            <path d="M327.4,69.3 C327.1,68.5 327,56.1 327.1,41.5 L327.4,15 L346.4,15 L365.4,15 L365.4,42.5 L365.4,70 L346.6,70.3 C332,70.5 327.7,70.3 327.4,69.3 Z" id="Path"></path>
            <path d="M403.4,69.2 C403.1,68.5 403,56.1 403.1,41.5 L403.4,15 L418.9,14.7 L434.4,14.5 L440.5,22.2 C443.9,26.5 453.4,38.7 461.8,49.3 C470.2,59.9 476.7,69 476.4,69.5 C475.4,71.1 404,70.8 403.4,69.2 Z" id="Path"></path>
            <path d="M530.4,69.3 C530.1,68.5 530,56.1 530.1,41.5 L530.4,15 L549.4,15 L568.4,15 L568.4,42.5 L568.4,70 L549.6,70.3 C535,70.5 530.7,70.3 530.4,69.3 Z" id="Path"></path>
            <path d="M605.4,69.5 C605,68.9 606.4,65.6 608.3,62.1 C619.8,41.5 638.8,25.1 659.7,17.5 C674.8,12 680.7,11.1 700.4,11.1 C717.1,11.2 719.1,11.4 727.4,13.9 C743.7,18.8 764.5,30.6 772.4,39.5 L774.4,41.8 L761.5,54.1 L748.7,66.4 L743.5,62.3 C732.2,53.3 716.9,48.3 700.4,48.3 C680.6,48.3 663.4,54.9 652,66.9 L648.5,70.5 L627.3,70.5 C613.9,70.5 605.8,70.1 605.4,69.5 Z" id="Path"></path>
            <path d="M796.4,69.3 C796.1,68.5 796,56.1 796.1,41.5 L796.4,15 L815.4,15 L834.4,15 L834.4,42.5 L834.4,70 L815.6,70.3 C801,70.5 796.7,70.3 796.4,69.3 Z" id="Path"></path>
            <path d="M930.6,69.9 C930.2,69.5 929.9,57.4 929.9,43 C929.9,21.9 930.2,16.5 931.3,15.6 C932.2,14.8 938.2,14.5 950.5,14.7 L968.4,15 L968.4,42.5 L968.4,70 L949.8,70.3 C939.6,70.4 931,70.2 930.6,69.9 Z" id="Path"></path>
        </g>
    </g>
</svg>
