<svg version="1.0" viewBox="0 0 12920 4490" xmlns="http://www.w3.org/2000/svg"><g><g><path d="m4580 4475c-179-44-319-155-401-320-54-110-72-202-66-340 9-224 106-401 277-507 119-74 221-102 375-101 114 0 199 19 288 64 61 31 157 113 157 133-1 6-34 36-75 67l-74 56-49-47c-111-107-297-129-446-53-268 136-329 544-114 765 154 158 421 167 570 18l57-58 76 52c41 28 75 56 75 62s-30 40-68 75c-72 69-146 110-238 134-72 19-267 19-344 0z"/><path d="m5746 4474c-110-27-203-79-285-163-130-130-181-262-181-465 0-137 18-215 72-319 78-150 220-258 398-304 87-22 264-22 350 1 236 61 403 227 456 453 21 88 20 267-1 348-58 222-236 398-455 449-82 20-274 19-354 0zm299-176c268-67 400-401 265-674-80-164-237-255-415-241-175 13-311 116-376 285-33 86-38 238-10 330 24 81 86 179 141 222 107 85 253 114 395 78z"/><path d="m8420 4475c-30-8-91-33-136-55-326-160-436-626-222-946 115-171 307-267 538-267 120-1 200 17 296 64 62 31 154 110 154 133 0 6-33 37-74 68l-73 57-43-44c-113-115-319-136-469-48-159 93-246 282-221 481 16 122 59 210 141 287 159 149 416 148 564-3l50-50 78 55 77 55-36 43c-45 56-152 129-229 157-78 29-308 36-395 13z"/><path d="m12301 4464c-83-28-167-80-207-127l-26-31 43-39c24-21 59-50 77-64l33-26 47 45c62 60 122 90 198 96 143 11 244-68 244-192 0-58-1-61-49-107-42-40-64-51-162-84-294-96-379-181-379-376 0-215 170-353 430-352 133 0 260 45 329 117l31 32-70 69-69 68-45-41c-24-23-60-47-78-55-115-48-245-17-306 73-20 29-23 44-20 93 7 96 44 124 262 197 192 65 277 130 314 239 17 50 15 192-4 248-36 106-123 186-245 224-94 29-252 26-348-7z"/><path d="m6750 3845v-615h119 118l304 465 304 466 3-466 2-465h95 95v615 615h-118-119l-304-471-304-471-3 471-2 471h-95-95v-615z"/><path d="m9200 3845v-615h400 400v90 90h-300-300v165 165h280 280v85 85h-280-280v190 190h310 310v85 85h-410-410v-615z"/><path d="m10210 3844v-617l258 6c211 4 269 9 323 25 91 26 153 65 194 120 44 61 60 119 59 212-1 97-29 163-95 225-45 42-123 85-154 85-8 0-16 4-19 8-3 5 68 130 159 278l164 269-117 3c-99 2-119 0-129-14-7-9-76-128-154-265l-141-249h-79-79v265 265h-95-95v-616zm527-108c135-57 148-226 23-296-42-23-57-25-202-28l-158-4v177 177l148-4c111-3 157-9 189-22z"/><path d="m11470 3935v-525h-195-195v-90-90h485 485v90 90h-195-195v525 525h-95-95v-525z"/><path d="m1748 3848c-210-16-462-85-662-182-541-263-925-756-1054-1356-25-117-26-142-27-380 0-227 2-267 23-369 107-526 416-980 862-1266 183-118 443-221 674-268 98-19 141-22 361-22 222 0 263 3 364 23 308 62 618 207 851 397 77 63 231 217 293 295 208 257 351 589 401 931 20 136 21 410 1 548-47 330-180 645-386 912-33 42-59 78-59 81s115 149 255 324l255 319-87 7c-118 9-1955 15-2065 6zm417-503c510-89 945-455 1113-935 65-186 76-257 77-475 0-219-10-292-66-458-60-181-160-357-286-501-174-198-425-358-678-431-158-46-262-58-450-52-146 4-186 9-286 35-536 138-923 525-1061 1061-40 154-50 400-24 562 106 645 627 1136 1281 1209 97 11 272 4 380-15z"/><path d="m1550 1930c0-369 4-670 9-668 23 9 1151 664 1150 668 0 4-822 481-1100 638l-59 34v-672z"/><path d="m4755 2973c-89-19-181-55-270-107-98-57-248-209-302-306-150-268-147-592 8-860 105-181 265-314 456-376 80-27 100-29 228-28 164 0 225 14 360 79 164 79 288 220 355 402 47 128 62 231 58 390-3 120-5 136-22 149-17 12-109 14-558 14-296 0-538 3-538 7 0 3 14 28 31 55 44 68 111 125 199 167 73 35 78 36 195 36 113 0 124-2 185-31 36-17 87-49 113-72 87-76 103-66 216 129 77 133 79 154 14 202-162 118-325 168-541 166-65 0-148-7-187-16zm475-1064c-59-157-163-223-350-224-82 0-103 4-150 26-95 44-150 104-195 212l-15 37h365 365l-20-51z"/><path d="m7850 2976c-268-57-502-243-614-488-88-191-97-419-27-626 100-292 377-517 693-563 99-14 277-6 368 16 100 26 256 105 335 172 198 167 299 363 312 608 17 326-131 602-419 777-64 40-135 69-228 95-77 21-334 27-420 9zm360-404c110-43 229-162 272-272 29-74 31-222 5-298-41-117-151-234-266-284-268-115-594 65-641 355-34 217 104 438 319 509 77 25 233 20 311-10z"/><path d="m5932 2943c-18-9-45-32-60-51l-27-35-3-799-2-798h-38c-21 0-48-7-60-16-21-15-22-21-22-189 0-162 1-175 19-185 25-13 325-13 370 0 39 11 86 51 107 92 12 23 14 157 14 818v790h41c80 0 79-2 79 193 0 121-4 177-12 185s-65 12-192 12c-147 0-187-4-214-17z"/><path d="m6649 2937c-18-12-44-38-56-56l-23-34v-792-792l-52-5c-76-8-78-14-78-200 0-210-13-198 205-198 212 0 255 15 296 105 18 38 19 85 19 823v782h44c73 0 76 7 76 191 0 92-4 169-10 180-10 18-23 19-199 19-179 0-190-1-222-23z"/></g><g fill="#12a5db"><path d="m4580 4475c-179-44-319-155-401-320-54-110-72-202-66-340 9-224 106-401 277-507 119-74 221-102 375-101 114 0 199 19 288 64 61 31 157 113 157 133-1 6-34 36-75 67l-74 56-49-47c-111-107-297-129-446-53-268 136-329 544-114 765 154 158 421 167 570 18l57-58 76 52c41 28 75 56 75 62s-30 40-68 75c-72 69-146 110-238 134-72 19-267 19-344 0z"/><path d="m5746 4474c-110-27-203-79-285-163-130-130-181-262-181-465 0-137 18-215 72-319 78-150 220-258 398-304 87-22 264-22 350 1 236 61 403 227 456 453 21 88 20 267-1 348-58 222-236 398-455 449-82 20-274 19-354 0zm299-176c268-67 400-401 265-674-80-164-237-255-415-241-175 13-311 116-376 285-33 86-38 238-10 330 24 81 86 179 141 222 107 85 253 114 395 78z"/><path d="m8420 4475c-30-8-91-33-136-55-326-160-436-626-222-946 115-171 307-267 538-267 120-1 200 17 296 64 62 31 154 110 154 133 0 6-33 37-74 68l-73 57-43-44c-113-115-319-136-469-48-159 93-246 282-221 481 16 122 59 210 141 287 159 149 416 148 564-3l50-50 78 55 77 55-36 43c-45 56-152 129-229 157-78 29-308 36-395 13z"/><path d="m12301 4464c-83-28-167-80-207-127l-26-31 43-39c24-21 59-50 77-64l33-26 47 45c62 60 122 90 198 96 143 11 244-68 244-192 0-58-1-61-49-107-42-40-64-51-162-84-294-96-379-181-379-376 0-215 170-353 430-352 133 0 260 45 329 117l31 32-70 69-69 68-45-41c-24-23-60-47-78-55-115-48-245-17-306 73-20 29-23 44-20 93 7 96 44 124 262 197 192 65 277 130 314 239 17 50 15 192-4 248-36 106-123 186-245 224-94 29-252 26-348-7z"/><path d="m6750 3845v-615h119 118l304 465 304 466 3-466 2-465h95 95v615 615h-118-119l-304-471-304-471-3 471-2 471h-95-95v-615z"/><path d="m9200 3845v-615h400 400v90 90h-300-300v165 165h280 280v85 85h-280-280v190 190h310 310v85 85h-410-410v-615z"/><path d="m10210 3844v-617l258 6c211 4 269 9 323 25 91 26 153 65 194 120 44 61 60 119 59 212-1 97-29 163-95 225-45 42-123 85-154 85-8 0-16 4-19 8-3 5 68 130 159 278l164 269-117 3c-99 2-119 0-129-14-7-9-76-128-154-265l-141-249h-79-79v265 265h-95-95v-616zm527-108c135-57 148-226 23-296-42-23-57-25-202-28l-158-4v177 177l148-4c111-3 157-9 189-22z"/><path d="m11470 3935v-525h-195-195v-90-90h485 485v90 90h-195-195v525 525h-95-95v-525z"/><path d="m1550 1930c0-369 4-670 9-668 23 9 1151 664 1150 668 0 4-822 481-1100 638l-59 34v-672z"/></g></g></svg>
