<svg version="1.0" viewBox="0 0 14034 7176.6364" xmlns="http://www.w3.org/2000/svg"><g transform="translate(-936,-4409)" fill="#060606"><path d="m9250 11580c-189-10-504-51-600-79-165-48-294-125-404-242-112-118-166-217-202-369-16-67-18-154-21-835-3-517-1-795 7-868 20-198 77-328 204-464 168-181 335-261 621-298 282-36 392-40 1185-40 798 0 946 6 1190 42 216 31 385 101 517 213 133 113 218 239 264 390l23 75 4 833c2 718 1 846-13 923-29 168-76 265-184 381-156 167-308 243-573 287-293 49-372 53-1133 56-396 2-794-1-885-5zm1663-1026 37-7v-567c0-509-2-568-16-574-20-8-1768-8-1788 0-14 6-16 65-16 574 0 533 1 569 18 573 26 7 1722 8 1765 1z"/><path d="m5062 11549c-213-11-378-33-486-64-261-75-477-263-561-488-55-147-56-175-52-1044 3-778 3-800 24-879 49-182 113-294 234-408 93-88 205-148 353-191 193-55 192-55 1762-55h1446l29 29 29 29v884l-29 29-29 29h-2742v540c0 527 0 540 20 560s33 20 845 20c818 0 825 0 845-20 17-17 20-31 18-76l-3-55-415-188c-228-103-552-250-720-325-168-76-315-147-327-159-32-28-31-80 2-112l24-25h2468l24 26 24 26 3 486c5 779-11 886-161 1078-158 201-405 308-797 345-145 14-1605 20-1828 8z"/><path d="m1508 7539c-257-33-449-233-533-555-15-57-29-142-32-201l-6-102 31-30 30-31h1204c786 0 1216-4 1240-10 60-17 83-42 82-89-2-50-23-77-73-91-23-7-335-13-876-16-900-6-943-8-1088-59-115-40-214-102-307-195-75-74-93-99-143-200-86-172-101-250-101-520 0-240 14-349 65-505 58-175 170-325 302-404 64-38 192-84 282-102 44-9 376-13 1225-16 1286-4 1234-7 1403 59 160 61 322 200 376 320 42 93 49 136 57 323l6 170-27 25-27 25-1216 5c-1256 5-1245 5-1285 45-35 34-12 120 38 143 19 9 242 12 893 12 934 0 965 2 1117 53 253 86 386 225 470 487 42 133 55 213 62 381 15 376-60 648-225 821-159 166-338 236-655 258-174 12-2195 11-2289-1z"/><path d="m8874 7540c-12-4-31-21-43-36l-21-27 2-961 3-961h1180l3 967 2 967-24 28-24 28-529 2c-290 1-538-2-549-7z"/><path d="m10333 7543c-13-2-32-16-43-30-20-26-20-36-20-1538v-1513l31-26 31-26h3146l31 26 31 26v884l-28 27-28 27h-2024v1041c0 726-3 1046-11 1061-25 47-45 48-586 47-279-1-518-4-530-6z"/><path d="m13833 7535c-17-7-36-22-42-34-8-14-10-306-9-983l3-963h1180l3 963c1 678-1 969-9 983-25 47-45 49-586 49-409-1-514-3-540-15z"/><path d="m5790 7533c-175-17-358-68-465-128-127-71-256-206-315-330-17-36-43-109-58-163l-27-97v-1670l23-90c12-49 43-133 69-185 39-81 59-108 142-191 86-86 108-102 201-147 106-50 166-70 307-99 69-14 237-17 1466-20l1387-4 25 25 25 25v908l-26 24-26 24-1259 3-1259 2v1130l1266 2 1266 3 19 24c18 22 19 45 19 471v449l-26 20-27 21-1346-2c-740 0-1362-3-1381-5z"/><path d="m11675 6433c-11-3-30-14-42-26l-23-20v-771l27-28 27-28h1385l28 24 28 24v772l-28 27-27 28-678 1c-372 1-686 0-697-3z"/><path d="m8821 5396c-9-10-11-137-9-476l3-462 28-24 28-24h1067l31 26 31 26-2 471-3 472-581 3c-488 2-583 0-593-12z"/><path d="m13787 5403c-4-3-7-215-7-470v-465l29-29 29-29h1074l29 29 29 30-2 468-3 468-586 3c-322 1-589-1-592-5z"/></g></svg>
