<svg viewBox="0 0 216 49" version="1.1" xmlns="http://www.w3.org/2000/svg" xmlns:xlink="http://www.w3.org/1999/xlink">
    <defs>
        <polygon id="path-1" points="0 0.952 215.576 0.952 215.576 48.94 0 48.94"></polygon>
    </defs>
    <g id="Page-1" stroke="none" stroke-width="1" fill="none" fill-rule="evenodd">
        <g id="xumoDarkColor">
            <g id="Group-6">
                <mask id="mask-2" fill="white">
                    <use xlink:href="#path-1"></use>
                </mask>
                <g id="Clip-2"></g>
                <path d="M191.564,6.279 C186.419,6.279 182.017,8.108 178.358,11.767 C174.699,15.427 172.87,19.828 172.87,24.974 C172.87,30.119 174.699,34.521 178.358,38.18 C182.017,41.839 186.419,43.668 191.564,43.668 C196.71,43.668 201.112,41.839 204.771,38.18 C208.401,34.55 210.216,30.147 210.216,24.974 C210.216,19.8 208.401,15.398 204.771,11.767 C201.112,8.108 196.71,6.279 191.564,6.279 Z M215.576,24.974 C215.576,31.605 213.232,37.265 208.544,41.953 C203.856,46.642 198.196,48.985 191.564,48.985 C184.933,48.985 179.273,46.642 174.585,41.953 C169.897,37.265 167.553,31.605 167.553,24.974 C167.553,18.342 169.897,12.683 174.585,7.994 C179.273,3.306 184.933,0.962 191.564,0.962 C198.196,0.962 203.856,3.306 208.544,7.994 C213.232,12.683 215.576,18.342 215.576,24.974 L215.576,24.974 Z" id="Fill-1" fill="#0B272D" mask="url(#mask-2)"></path>
                <path d="M99.115,46.333 C99.115,47.077 98.858,47.705 98.343,48.22 C97.829,48.734 97.2,48.991 96.457,48.991 C95.713,48.991 93.755,49 93.755,49 L93.755,19.615 C93.755,14.469 95.62,10.192 99.115,6.5 C102.61,2.807 107.905,0.968 112.45,0.968 C117.595,0.968 121.997,2.798 125.656,6.457 C126.542,7.372 127.471,8.487 128.443,9.801 C129.415,8.487 130.359,7.372 131.273,6.457 C134.932,2.798 139.334,0.968 144.48,0.968 C149.625,0.968 154.027,2.798 157.686,6.457 C161.316,10.087 163.131,14.49 163.131,19.663 L163.131,48.994 C163.131,48.994 161.216,48.991 160.473,48.991 C159.73,48.991 159.101,48.734 158.586,48.22 C158.072,47.705 157.814,47.077 157.814,46.333 L157.814,19.663 C157.814,15.975 156.5,12.831 153.87,10.23 C151.24,7.6 148.11,6.285 144.48,6.285 C140.821,6.285 137.676,7.6 135.046,10.23 C132.445,12.831 131.145,15.975 131.145,19.663 L131.145,46.333 C131.145,47.077 130.88,47.705 130.351,48.22 C129.823,48.734 129.187,48.991 128.443,48.991 C127.7,48.991 127.071,48.734 126.557,48.22 C126.042,47.705 125.785,47.077 125.785,46.333 L125.785,19.663 C125.785,15.975 124.484,12.831 121.883,10.23 C119.253,7.6 116.109,6.285 112.45,6.285 C108.79,6.285 105.647,7.6 103.017,10.23 C100.416,12.831 99.115,15.975 99.115,19.663 L99.115,46.333" id="Fill-3" fill="#0B272D" mask="url(#mask-2)"></path>
                <path d="M83.032,3.621 C83.032,2.877 83.289,2.248 83.804,1.734 C84.318,1.219 84.947,0.962 85.691,0.962 C86.434,0.962 88.392,0.952 88.392,0.952 L88.392,30.339 C88.392,35.484 86.527,39.761 83.032,43.454 C79.538,47.147 74.242,48.985 69.697,48.985 C64.552,48.985 60.15,47.156 56.491,43.497 C53.038,39.732 51.003,35.426 51.003,30.29 L51.003,0.952 C51.003,0.952 52.961,0.962 53.704,0.962 C54.447,0.962 55.076,1.219 55.591,1.734 C56.105,2.248 56.362,2.877 56.362,3.621 L56.362,30.29 C56.362,33.978 57.664,37.122 60.264,39.723 C62.895,42.353 66.038,43.668 69.697,43.668 C73.357,43.668 76.501,42.353 79.13,39.723 C81.732,37.122 83.032,33.978 83.032,30.29 L83.032,3.621" id="Fill-4" fill="#0B272D" mask="url(#mask-2)"></path>
                <polyline id="Fill-5" fill="#0B272D" mask="url(#mask-2)" points="0 0.962 6.69 0.962 24.034 21.569 41.397 1.054 47.987 1.054 27.72 24.944 48.023 48.985 41.335 48.985 23.992 28.356 6.692 48.985 0 48.985 20.3 24.975 0 0.962"></polyline>
            </g>
            <polyline id="Fill-7" fill="#00AAD1" points="0 38.926 11.891 24.862 0 10.797 0 38.926"></polyline>
        </g>
    </g>
</svg>