<?xml version="1.0" encoding="UTF-8" standalone="no"?>
<!-- Created with Inkscape (http://www.inkscape.org/) -->

<svg
   xmlns:dc="http://purl.org/dc/elements/1.1/"
   xmlns:cc="http://creativecommons.org/ns#"
   xmlns:rdf="http://www.w3.org/1999/02/22-rdf-syntax-ns#"
   xmlns:svg="http://www.w3.org/2000/svg"
   xmlns="http://www.w3.org/2000/svg"
   version="1.1"
   width="548.77124"
   height="107.2975"
   id="svg2">
  <defs
     id="defs4">
    <clipPath
       id="clipPath3141">
      <path
         d="M 0,0 440,0 440,86 0,86 0,0 z"
         id="path3143" />
    </clipPath>
    <clipPath
       id="clipPath3135">
      <path
         d="m 0.06,85.838 439.017,0 0,-85.838 -439.017,0 0,85.838 z"
         id="path3137" />
    </clipPath>
    <clipPath
       id="clipPath3123">
      <path
         d="M 0,0 440,0 440,86 0,86 0,0 z"
         id="path3125" />
    </clipPath>
    <clipPath
       id="clipPath3111">
      <path
         d="M 0,0 440,0 440,86 0,86 0,0 z"
         id="path3113" />
    </clipPath>
    <clipPath
       id="clipPath3105">
      <path
         d="m 0.06,85.838 439.017,0 0,-85.838 -439.017,0 0,85.838 z"
         id="path3107" />
    </clipPath>
    <clipPath
       id="clipPath3085">
      <path
         d="M 0,0 440,0 440,86 0,86 0,0 z"
         id="path3087" />
    </clipPath>
  </defs>
  <metadata
     id="metadata7">
    <rdf:RDF>
      <cc:Work
         rdf:about="">
        <dc:format>image/svg+xml</dc:format>
        <dc:type
           rdf:resource="http://purl.org/dc/dcmitype/StillImage" />
        <dc:title></dc:title>
      </cc:Work>
    </rdf:RDF>
  </metadata>
  <g
     transform="translate(-77.042943,-47.28486)"
     id="layer1">
    <g
       transform="matrix(1.25,0,0,-1.25,76.967943,154.58236)"
       id="g3077">
      <g
         id="g3079" />
      <path
         d="M 176.711,18.709 C 160.162,6.496 136.168,0 115.508,0 86.551,0 60.477,10.703 40.743,28.522 c -1.549,1.398 -0.167,3.31 1.695,2.226 21.289,-12.389 47.616,-19.85 74.808,-19.85 18.343,0 38.507,3.807 57.06,11.676 2.798,1.188 5.144,-1.844 2.405,-3.865"
         id="path3089"
         style="fill:#f68d11;fill-opacity:1;fill-rule:evenodd;stroke:none" />
      <path
         d="m 183.599,26.57 c -2.118,2.711 -13.994,1.285 -19.328,0.647 -1.616,-0.194 -1.867,1.217 -0.41,2.24 9.473,6.654 24.995,4.732 26.799,2.506 1.819,-2.248 -0.475,-17.811 -9.354,-25.238 -1.366,-1.143 -2.664,-0.534 -2.059,0.976 1.997,4.989 6.47,16.158 4.352,18.869"
         id="path3091"
         style="fill:#f68d11;fill-opacity:1;fill-rule:evenodd;stroke:none" />
      <path
         d="m 164.647,76.462 0,6.465 c 0.004,0.984 0.746,1.64 1.639,1.638 l 28.978,0.003 c 0.926,0 1.67,-0.674 1.672,-1.633 l -0.002,-5.545 c -0.007,-0.93 -0.79,-2.144 -2.182,-4.07 l -15.01,-21.431 c 5.572,0.13 11.466,-0.703 16.529,-3.549 1.141,-0.641 1.447,-1.592 1.537,-2.524 l 0,-6.898 c 0,-0.951 -1.04,-2.051 -2.133,-1.479 -8.92,4.672 -20.756,5.184 -30.618,-0.056 -1.008,-0.537 -2.063,0.547 -2.063,1.498 l 0,6.558 c 0,1.049 0.02,2.844 1.078,4.444 l 17.391,24.949 -15.142,0.002 c -0.925,0 -1.668,0.66 -1.674,1.628"
         id="path3093"
         style="fill:#eff0f2;fill-opacity:1;fill-rule:evenodd;stroke:none" />
      <path
         d="m 58.943,36.08 -8.815,0 c -0.839,0.055 -1.51,0.686 -1.577,1.49 l 0.006,45.247 c 0,0.905 0.761,1.629 1.701,1.629 l 8.21,0.002 c 0.859,-0.044 1.549,-0.694 1.603,-1.519 l 0,-5.908 0.165,0 c 2.14,5.713 6.172,8.379 11.603,8.379 5.513,0 8.97,-2.666 11.439,-8.379 2.139,5.713 6.994,8.379 12.179,8.379 3.703,0 7.735,-1.523 10.204,-4.951 2.798,-3.808 2.223,-9.331 2.223,-14.187 l -0.007,-28.553 c 0,-0.904 -0.762,-1.629 -1.7,-1.629 l -8.806,0 c -0.885,0.057 -1.583,0.758 -1.583,1.625 l -0.002,23.987 c 0,1.904 0.165,6.665 -0.247,8.474 -0.658,3.047 -2.633,3.904 -5.184,3.904 -2.139,0 -4.362,-1.428 -5.267,-3.714 -0.905,-2.285 -0.822,-6.093 -0.822,-8.664 l 0,-23.983 c 0,-0.904 -0.762,-1.629 -1.701,-1.629 l -8.805,0 c -0.885,0.057 -1.583,0.758 -1.583,1.625 l -0.009,23.987 c 0,5.046 0.823,12.473 -5.431,12.473 -6.337,0 -6.09,-7.236 -6.09,-12.473 L 60.644,37.709 C 60.645,36.805 59.883,36.08 58.943,36.08"
         id="path3095"
         style="fill:#eff0f2;fill-opacity:1;fill-rule:evenodd;stroke:none" />
      <path
         d="m 221.963,76.165 c -6.502,0 -6.913,-8.855 -6.913,-14.377 0,-5.523 -0.082,-17.33 6.831,-17.33 6.831,0 7.159,9.522 7.159,15.33 0,3.808 -0.164,8.379 -1.316,11.997 -0.989,3.142 -2.964,4.38 -5.761,4.38 z m -0.082,9.235 c 13.085,0 20.161,-11.235 20.161,-25.517 0,-13.805 -7.816,-24.756 -20.161,-24.756 -12.838,0 -19.833,11.236 -19.833,25.232 0,14.092 7.077,25.041 19.833,25.041"
         id="path3097"
         style="fill:#eff0f2;fill-opacity:1;fill-rule:evenodd;stroke:none" />
      <path
         d="m 259.011,36.08 -8.783,0 c -0.883,0.057 -1.582,0.758 -1.582,1.625 l -0.014,45.264 c 0.074,0.827 0.805,1.477 1.693,1.477 l 8.178,0.002 c 0.769,-0.039 1.404,-0.565 1.566,-1.267 l 0,-6.921 0.166,0 c 2.469,6.189 5.924,9.14 12.014,9.14 3.949,0 7.818,-1.428 10.287,-5.332 2.305,-3.618 2.305,-9.712 2.305,-14.091 l 0,-28.471 c -0.1,-0.803 -0.819,-1.426 -1.69,-1.426 l -8.838,0 c -0.816,0.053 -1.474,0.652 -1.57,1.426 l 0,24.567 c 0,4.951 0.576,12.187 -5.514,12.187 -2.14,0 -4.115,-1.428 -5.101,-3.618 -1.234,-2.761 -1.4,-5.522 -1.4,-8.569 l 0,-24.364 c -0.016,-0.904 -0.778,-1.629 -1.717,-1.629"
         id="path3099"
         style="fill:#eff0f2;fill-opacity:1;fill-rule:evenodd;stroke:none" />
      <path
         d="m 290.366,39.67 c 0,2.277 1.944,4.123 4.34,4.123 2.397,0 4.338,-1.846 4.338,-4.123 0,-2.276 -1.941,-4.121 -4.338,-4.121 -2.396,0 -4.34,1.845 -4.34,4.121"
         id="path3115"
         style="fill:#eff0f2;fill-opacity:1;fill-rule:evenodd;stroke:none" />
      <path
         d="m 383.769,36.068 c -0.915,0.028 -1.645,0.741 -1.645,1.627 l 0,45.253 c 0.063,0.798 0.736,1.434 1.578,1.488 l 3.236,10e-4 c 0.891,0 1.622,-0.651 1.694,-1.49 l 0,-6.598 c 2.301,5.228 6.588,9.324 12.008,9.324 l 0.339,-0.005 0.327,0.005 c 5.748,0 9.955,-4.241 11.517,-10.402 2.436,6.083 7.026,10.402 13.078,10.402 l 0.315,-0.005 0.353,0.005 c 4.278,0 8.393,-2.761 10.534,-6.95 2.056,-3.999 1.974,-9.331 1.974,-13.806 l -0.002,-27.224 c 0.002,-0.867 -0.697,-1.568 -1.582,-1.625 l -3.873,0 c -0.834,0.026 -1.517,0.623 -1.629,1.405 l 0,27.444 c 0,3.237 0.164,6.665 -1.152,9.617 -1.346,3.021 -3.908,4.898 -6.664,5.037 -3.078,-0.153 -5.903,-2.386 -7.729,-5.418 -2.386,-3.904 -2.302,-7.427 -2.302,-11.997 l 0,-24.699 c -0.11,-0.75 -0.762,-1.336 -1.569,-1.389 l -3.853,0 c -0.914,0.028 -1.647,0.741 -1.647,1.627 l -0.017,29.031 c 0,2.666 -0.164,5.808 -1.399,8.189 -1.422,2.739 -3.976,4.515 -6.652,4.656 -2.776,-0.155 -5.584,-2.277 -7.248,-4.752 -2.139,-3.142 -2.551,-7.046 -2.551,-11.045 l -0.002,-26.081 c 0,-0.867 -0.699,-1.568 -1.582,-1.625 l -3.855,0"
         id="path3117"
         style="fill:#eff0f2;fill-opacity:1;fill-rule:nonzero;stroke:none" />
      <path
         d="m 358.124,41.311 c 4.115,0.134 7.361,2.683 9.283,6.944 1.727,3.808 2.057,8.188 2.057,12.377 0,4.571 -0.494,9.331 -2.633,13.235 -1.916,3.415 -5.221,5.577 -8.721,5.707 -3.896,-0.143 -7.369,-2.777 -9.129,-6.849 -1.562,-3.523 -2.056,-8.189 -2.056,-12.093 0,-4.379 0.576,-9.425 2.387,-13.234 1.757,-3.608 5.15,-5.958 8.812,-6.087 z m -0.922,-6.196 c -12.508,0 -18.103,12.759 -18.103,25.517 0,13.426 6.584,25.041 19.173,25.041 l 0.325,-0.003 0.341,0.003 c 12.262,0 18.352,-12.377 18.352,-25.135 0,-13.521 -6.748,-25.423 -19.422,-25.423 l -0.324,0.004 -0.342,-0.004"
         id="path3127"
         style="fill:#eff0f2;fill-opacity:1;fill-rule:nonzero;stroke:none" />
      <path
         d="m 318.114,41.5 c 5.615,0.176 8.563,4.676 9.787,10.51 0.239,0.727 0.797,1.287 1.616,1.287 l 3.714,0.016 c 0.875,-0.046 1.68,-0.716 1.614,-1.533 -1.715,-9.923 -7.705,-16.665 -16.242,-16.665 l -0.344,0.004 -0.322,-0.004 c -12.426,0 -17.776,12.473 -17.776,25.137 0,12.568 5.432,25.421 17.858,25.421 l 0.328,-0.003 0.338,0.003 c 8.623,0 14.777,-6.645 16.113,-16.574 0,-0.745 -0.692,-1.39 -1.502,-1.484 l -3.893,0.046 c -0.808,0.115 -1.343,0.818 -1.465,1.598 -0.937,5.543 -4.121,9.95 -9.425,10.125 -8.45,-0.27 -10.854,-10.669 -10.854,-18.656 0,-7.71 2.006,-18.949 10.455,-19.228"
         id="path3129"
         style="fill:#eff0f2;fill-opacity:1;fill-rule:nonzero;stroke:none" />
      <path
         d="m 150.435,36.193 c -0.584,-0.523 -1.425,-0.558 -2.083,-0.205 -2.928,2.434 -3.453,3.559 -5.053,5.875 -4.84,-4.929 -8.268,-6.408 -14.535,-6.408 -7.422,0 -13.196,4.58 -13.196,13.74 0,7.157 3.876,12.023 9.402,14.409 4.783,2.1 11.464,2.481 16.577,3.054 l 0,1.145 c 0,2.099 0.165,4.58 -1.072,6.393 -1.073,1.622 -3.134,2.29 -4.949,2.29 -3.362,0 -6.351,-1.723 -7.086,-5.294 -0.152,-0.794 -0.732,-1.58 -1.531,-1.62 l -8.545,0.925 c -0.721,0.162 -1.523,0.741 -1.315,1.842 1.964,10.367 11.325,13.499 19.715,13.499 4.288,0 9.896,-1.145 13.277,-4.39 4.289,-4.008 3.876,-9.351 3.876,-15.172 l 0,-13.735 c 0,-4.131 1.717,-5.944 3.328,-8.17 0.563,-0.802 0.69,-1.756 -0.029,-2.342 -1.801,-1.509 -5,-4.289 -6.761,-5.855 l -0.02,0.019 z m -8.888,21.495 c 0,-3.435 0.082,-6.298 -1.65,-9.352 -1.402,-2.481 -3.628,-4.007 -6.103,-4.007 -3.381,0 -5.36,2.577 -5.36,6.393 0,7.508 6.735,8.874 13.113,8.874 l 0,-1.908"
         id="path3145"
         style="fill:#eff0f2;fill-opacity:1;fill-rule:evenodd;stroke:none" />
      <path
         d="M 34.866,36.193 C 34.282,35.67 33.44,35.635 32.783,35.988 29.854,38.422 29.33,39.547 27.729,41.863 22.891,36.934 19.463,35.455 13.195,35.455 5.772,35.455 0,40.035 0,49.195 c 0,7.157 3.876,12.023 9.401,14.409 4.784,2.1 11.464,2.481 16.576,3.054 l 0,1.145 c 0,2.099 0.166,4.58 -1.071,6.393 -1.072,1.622 -3.135,2.29 -4.948,2.29 -3.362,0 -6.353,-1.723 -7.086,-5.294 -0.153,-0.794 -0.732,-1.58 -1.532,-1.62 l -8.544,0.925 c -0.722,0.162 -1.525,0.741 -1.316,1.842 1.963,10.367 11.325,13.499 19.714,13.499 4.289,0 9.897,-1.145 13.279,-4.39 4.288,-4.008 3.876,-9.351 3.876,-15.172 l 0,-13.735 c 0,-4.131 1.715,-5.944 3.327,-8.17 0.562,-0.802 0.689,-1.756 -0.029,-2.342 -1.8,-1.509 -5.001,-4.289 -6.76,-5.855 l -0.021,0.019 z m -8.889,21.495 c 0,-3.435 0.083,-6.298 -1.649,-9.352 -1.401,-2.481 -3.628,-4.007 -6.102,-4.007 -3.381,0 -5.361,2.577 -5.361,6.393 0,7.508 6.736,8.874 13.112,8.874 l 0,-1.908"
         id="path3147"
         style="fill:#eff0f2;fill-opacity:1;fill-rule:evenodd;stroke:none" />
    </g>
  </g>
</svg>
