<svg xmlns="http://www.w3.org/2000/svg" viewBox="0 0 2886.424 311.166"><path style="fill: #1a237e;" d="M2862.488 160.686l-18.047-17.864c13.36-9.13 18.016-22.92 19.6-36.156 2.697-22.215.307-44.215-10.908-64.99-6.74-12.532-15.045-22.46-27.21-29.415C2813.74 5.307 2800.93.404 2786.5.435l-166.687.03v306.44l175.267-.123c8.273-.03 16.178-4.473 24.728-2.91 15.627-7.292 31.713-13.053 43.694-27.117 12.685-14.86 19.334-32.08 22.03-50.067 3.797-25.067-4.63-47.68-23.044-66.003zm-181.395-99.553l92.015-.03c4.382 0 8.518.92 12.287 2.605.5.184.98.43 1.44.674 3.218 1.624 6.098 3.83 8.55 6.435 4.596 4.964 7.568 11.46 8.028 18.66.03.644.06 1.318.06 1.992 0 7.936-3.064 15.167-8.028 20.59 0 .03 0 .03-.03.03l-.03.03c-5.577 5.975-13.482 9.713-22.276 9.713h-92.015v-60.7zm134.483 182.958a23.41 23.41 0 0 1-1.501 1.532 22.51 22.51 0 0 1-2.421 2.114 30.19 30.19 0 0 1-3.8 2.666 31.49 31.49 0 0 1-3.493 1.808 15.28 15.28 0 0 1-1.471.644c-.55.215-1.072.43-1.624.613-3.523 1.226-7.292 1.87-11.214 1.87h-109v-69.3h109c17.74 0 32.326 13.298 34.38 30.457.184 1.38.276 2.788.276 4.198 0 9.038-3.462 17.25-9.13 23.41zm-339.962-38.945c0 8.55-2.45 15.964-6.097 23.532-7.17 14.77-11.705 22.705-18.752 30.457-12.717 15.198-29.66 27.608-49.394 35.973-7.292 3.095-14.953 5.607-22.92 7.538-11.52 2.758-23.655 4.3-36.218 4.3-.306 0-.613-.03-.92-.03a126.6 126.6 0 0 1-4.811-.092c-64.193-2.33-116.59-43.388-126.088-96.58l-.43-2.543c-.06-.52-.153-1.073-.245-1.624-.153-1.195-.275-2.42-.398-3.646-.123-1.103-.245-2.206-.307-3.31-.092-1.624-.062-198.646-.062-198.646h64.377l-.03 7.323.06 87.42-.184 87.54c.184 26.045 19.733 48.168 46.942 56.4 7.385 2.237 15.3 3.462 23.532 3.462 8.304 0 16.27-1.226 23.686-3.493 16.393-4.995 29.967-15.014 38.21-27.914 5.485-8.58 8.58-18.385 8.58-28.833 0-.89-.03-1.777-.06-2.635.153-2.206.276-4.412.276-6.65l-.153-76.204.03-96.427h61.282c.001-.001.062 200.728.093 204.68zm-471.673-84.94V.197h60.408v307.025h-60.023V179.196h-144.313v127.748h-61.22V.463h60.72v119.742h144.428zm-413.848 13.25l-17.29 20.82c-5.306 6.552-69.88 78.283-72.754 82.513l-90.005-103.333v173.478h-60.826V.878h20.996l128.093 152.728L1629.802.464h20.995v306.47h-60.705l.001-173.478zm-383.182 118.47v55.01H986.608V.464H1045l-.413 251.462h162.314zM836.64.464v306.47h-58.402V.464h58.402zM493.386 58.866v64.254h116.252v58.402H493.386v125.414h-58.402V.464h214.518v58.402H493.386zm-259.468 182.79c-2.83-2.83-2.83-7.403 0-10.202a7.19 7.19 0 0 1 10.202 0c2.83 2.8 2.83 7.372 0 10.202a7.19 7.19 0 0 1-10.202 0zM43.813 148.75c-3.98 0-7.216 3.235-7.216 7.216s3.235 7.216 7.216 7.216 7.216-3.235 7.216-7.216-3.235-7.216-7.216-7.216zm28.18 82.456c-2.83 2.83-2.83 7.403 0 10.202a7.19 7.19 0 0 0 10.202 0c2.83-2.8 2.83-7.372 0-10.202a7.25 7.25 0 0 0-10.202 0zm171.88-151.568c2.8-2.83 2.8-7.403 0-10.233-2.83-2.8-7.403-2.8-10.202 0a7.23 7.23 0 0 0 0 10.233c2.8 2.8 7.37 2.8 10.202 0zM72.52 69.436c-2.83 2.8-2.83 7.372 0 10.202 2.8 2.8 7.372 2.8 10.202 0 2.8-2.83 2.8-7.403 0-10.202-2.83-2.83-7.402-2.83-10.202 0zm241.53-7.23v186.525c0 34.214-27.993 62.207-62.207 62.207H62.207C27.993 310.94 0 282.946 0 248.732V62.207C0 27.993 27.993 0 62.207 0h189.635c34.215 0 62.208 27.993 62.208 62.207zm-24.643 93.48c0-9.27-7.527-16.765-16.765-16.765-8.118 0-14.9 5.817-16.423 13.5h-39.657c-.746-13.717-6.22-26.158-14.837-35.77l28.024-28.024c6.5 4.137 15.18 3.4 20.84-2.27 6.563-6.532 6.563-17.138 0-23.67-6.532-6.563-17.138-6.563-23.67 0-5.754 5.754-6.438 14.62-2.084 21.15L196.84 111.83c-9.456-8.336-21.617-13.655-34.992-14.463v-39.75c7.496-1.65 13.126-8.336 13.126-16.33 0-9.238-7.496-16.765-16.734-16.765-9.27 0-16.765 7.527-16.765 16.765 0 8.118 5.816 14.9 13.5 16.423v39.657c-13.437.716-25.63 5.972-35.147 14.277L91.712 83.526c4.137-6.47 3.422-15.18-2.24-20.84-6.563-6.532-17.17-6.532-23.7 0s-6.532 17.138 0 23.67c5.754 5.754 14.65 6.438 21.15 2.084l28.024 28.024c-8.74 9.61-14.277 22.084-15.054 35.894h-39.75c-1.65-7.527-8.305-13.126-16.33-13.126-9.238 0-16.734 7.496-16.734 16.734s7.496 16.765 16.734 16.765c8.15 0 14.9-5.817 16.423-13.5h39.688a58.28 58.28 0 0 0 14.277 34.867l-28.118 28.118c-6.47-4.137-15.18-3.42-20.84 2.24-6.532 6.563-6.532 17.17 0 23.7 6.563 6.532 17.138 6.532 23.7 0 5.754-5.754 6.438-14.65 2.053-21.15l28.024-27.993c9.55 8.616 21.928 14.152 35.614 14.992v39.75c-7.527 1.648-13.157 8.336-13.157 16.33 0 9.27 7.496 16.765 16.765 16.765 9.238 0 16.734-7.496 16.734-16.765 0-8.118-5.785-14.9-13.468-16.423v-39.657c13.53-.746 25.816-6.065 35.365-14.494l28.024 28.055c-4.137 6.47-3.4 15.18 2.27 20.84 6.532 6.532 17.138 6.532 23.7 0 6.532-6.563 6.532-17.17 0-23.7-5.754-5.754-14.65-6.438-21.15-2.084l-27.962-27.962c8.522-9.487 13.966-21.804 14.774-35.365h39.782c1.648 7.496 8.336 13.126 16.33 13.126 9.238-.001 16.765-7.497 16.765-16.735zM165.46 41.287c0-3.98-3.235-7.216-7.216-7.216s-7.216 3.235-7.216 7.216 3.235 7.216 7.216 7.216 7.216-3.235 7.216-7.216zM272.643 148.47c-3.98 0-7.216 3.235-7.216 7.216s3.235 7.216 7.216 7.216 7.216-3.235 7.216-7.216-3.235-7.216-7.216-7.216zm-114.4-41.243c-26.78 0-48.46 21.7-48.46 48.46s21.68 48.428 48.46 48.428c26.75 0 48.428-21.68 48.428-48.428s-21.68-48.46-48.428-48.46zm-7.216 162.86c0 3.98 3.235 7.216 7.216 7.216s7.216-3.235 7.216-7.216-3.235-7.216-7.216-7.216-7.216 3.234-7.216 7.216z"/></svg>