<svg width="1227" height="395" version="1.1" viewBox="0 0 1226.262 394.255" xmlns="http://www.w3.org/2000/svg" xmlns:xlink="http://www.w3.org/1999/xlink"><g id="B" transform="matrix(.324 0 0 .324 .00026 -.00301)" fill="#f0f0f0" fill-opacity=".56"><path d="M99.5 90.085c5.2 0 9.476 3.9 9.946 9.1a9.96 9.96 0 0 1-.688 4.652h41.42V60.512H93.15v29.9a82.29 82.29 0 0 0 5.446-.297 9.72 9.72 0 0 1 .913-.041zm40.5-.25h-34v-3.25h34zm0-8.333h-34v-3.25h34zm2.4-19.848h6.864l-5.098 6.296H137.3zm-14.402 0h6.865l-5.1 6.296H122.9zm-14.403 0h6.865l-5.1 6.296h-6.865zm-14.403 0h6.865l-5.1 6.296h-6.865zM52.095 66.55l-.393-1.787-.063-.385h-.002a8 8 0 1 0-15.897 1.817c.12.786 1.246 10.84 8.95 21.418 3.85 5.263 9.434 10.6 17.164 14.496 7.7 3.912 17.463 6.36 29.4 6.36h.06c2.837-.002 5.797-.137 8.9-.417 4.4-.4 7.644-4.3 7.246-8.688a8 8 0 0 0-8.689-7.246c-2.64.24-5.12.352-7.447.35-9.847-.008-16.943-1.955-22.244-4.632-7.906-4.02-12.153-9.85-14.635-14.908a34.52 34.52 0 0 1-2.354-6.377z"/><ellipse transform="matrix(.2268 -.9739 .9739 .2268 29.832 82.573)" cx="66.921" cy="22.498" rx="22.493" ry="22.495"/><path d="M58.033 157.55L66 165.133v43.62c0 6.902 5.597 12.5 12.5 12.5S91 215.654 91 208.752v-48.98c0-3.436-1.396-6.69-3.883-9.057l-35.2-33.502c-.374-6.075-.015-12.39.732-18.592-3.62-2.814-6.826-6.09-9.56-9.83-6.94-9.528-8.814-18.688-9.3-22.184l-.016-.114c-.31-2.73.438-5.342 2.102-7.432s4.043-3.407 6.697-3.706c.38-.044.762-.065 1.14-.065 5.076 0 9.342 3.808 9.923 8.856.005.025.02.124.046.266.062.347.176.915.36 1.637a32.32 32.32 0 0 0 2.218 6.003c.256.52.537 1.014.813 1.513l.577-2.895c1.078-3.74 1.22-7.755.526-11.425l32.9-7.008 2.188 5.692 53.242-20.457-3.078-8-22.288 8.564c-.02-.12-.03-.24-.057-.36a8 8 0 0 0-9.49-6.158l-24.762 5.273a24.34 24.34 0 0 1-19.879 10.213 24.5 24.5 0 0 1-5.575-.645 24.52 24.52 0 0 1-6.802-2.698l-12.233 2.605c-.03.006-.058.017-.086.023-7.58.746-16.03 6.075-19.975 17.547-6.805 20.174-8.268 33.305-5.682 55.52 1.136 5.847 3.317 9.782 6.07 12.426l12.747 36.853-31.585 30.46a12.5 12.5 0 0 0-.322 17.674 12.47 12.47 0 0 0 9.001 3.824c3.123 0 6.25-1.163 8.675-3.503l37.333-36c3.497-3.373 4.726-8.5 3.136-13.083zM98.474 54.7l-7.017-4.046 6.408-2.463 7.017 4.047zm13.445-5.165l-7.017-4.047 6.408-2.462 7.017 4.047zm26.28-16.84l7.017 4.047-6.408 2.462-7.018-4.047zm-13.444 5.165l7.018 4.047-6.408 2.462-7.018-4.047z"/></g><use y="107.524" xlink:href="#B"/><use y="215.048" xlink:href="#B"/><use y="322.572" xlink:href="#B"/><use x="53.527" xlink:href="#B"/><use x="53.527" y="107.524" xlink:href="#B"/><use x="53.527" y="215.048" xlink:href="#B"/><use x="53.527" y="322.572" xlink:href="#B"/><use x="107.055" xlink:href="#B"/><use x="107.055" y="107.524" xlink:href="#B"/><use x="107.055" y="215.048" xlink:href="#B"/><use x="107.055" y="322.572" xlink:href="#B"/><use x="160.582" xlink:href="#B"/><use x="160.582" y="107.524" xlink:href="#B"/><use x="160.582" y="215.048" xlink:href="#B"/><use x="160.582" y="322.572" xlink:href="#B"/><use x="214.109" xlink:href="#B"/><use x="214.109" y="107.524" xlink:href="#B"/><use x="214.109" y="215.048" xlink:href="#B"/><use x="214.109" y="322.572" xlink:href="#B"/><use x="267.637" xlink:href="#B"/><use x="267.637" y="107.524" xlink:href="#B"/><use x="267.637" y="215.048" xlink:href="#B"/><use x="267.637" y="322.572" xlink:href="#B"/><use x="321.164" xlink:href="#B"/><use x="321.164" y="107.524" xlink:href="#B"/><use x="321.164" y="215.048" xlink:href="#B"/><use x="321.164" y="322.572" xlink:href="#B"/><use x="374.691" xlink:href="#B"/><use x="374.691" y="107.524" xlink:href="#B"/><use x="374.691" y="215.048" xlink:href="#B"/><use x="374.691" y="322.572" xlink:href="#B"/><use x="428.219" xlink:href="#B"/><use x="428.219" y="107.524" xlink:href="#B"/><use x="428.219" y="215.048" xlink:href="#B"/><use x="428.219" y="322.572" xlink:href="#B"/><use x="481.746" xlink:href="#B"/><use x="481.746" y="107.524" xlink:href="#B"/><use x="481.746" y="215.048" xlink:href="#B"/><use x="481.746" y="322.572" xlink:href="#B"/><use x="535.273" xlink:href="#B"/><use x="535.273" y="107.524" xlink:href="#B"/><use x="535.273" y="215.048" xlink:href="#B"/><use x="535.273" y="322.572" xlink:href="#B"/><use x="588.801" xlink:href="#B"/><use x="588.801" y="107.524" xlink:href="#B"/><use x="588.801" y="215.048" xlink:href="#B"/><use x="588.801" y="322.572" xlink:href="#B"/><use x="642.328" xlink:href="#B"/><use x="642.328" y="107.524" xlink:href="#B"/><use x="642.328" y="215.048" xlink:href="#B"/><use x="642.328" y="322.572" xlink:href="#B"/><use x="695.855" xlink:href="#B"/><use x="695.855" y="107.524" xlink:href="#B"/><use x="695.855" y="215.048" xlink:href="#B"/><use x="695.855" y="322.572" xlink:href="#B"/><use x="749.383" xlink:href="#B"/><use x="749.383" y="107.524" fill="#ccc" xlink:href="#B"/><use x="749.383" y="322.572" xlink:href="#B"/><use x="802.91" xlink:href="#B"/><use x="802.91" y="107.524" xlink:href="#B"/><use x="802.91" y="215.048" xlink:href="#B"/><use x="802.91" y="322.572" xlink:href="#B"/><use x="856.437" xlink:href="#B"/><use x="856.437" y="107.524" xlink:href="#B"/><use x="856.437" y="215.048" xlink:href="#B"/><use x="856.437" y="322.572" xlink:href="#B"/><use x="909.965" xlink:href="#B"/><use x="909.965" y="107.524" xlink:href="#B"/><use x="909.965" y="215.048" xlink:href="#B"/><use x="909.965" y="322.572" xlink:href="#B"/><use x="963.492" xlink:href="#B"/><use x="963.492" y="107.524" xlink:href="#B"/><use x="963.492" y="215.048" xlink:href="#B"/><use x="963.492" y="322.572" xlink:href="#B"/><use x="1017.019" xlink:href="#B"/><use x="1017.019" y="107.524" xlink:href="#B"/><use x="1017.019" y="215.048" xlink:href="#B"/><use x="1017.019" y="322.572" xlink:href="#B"/><use x="1070.546" xlink:href="#B"/><use x="1070.546" y="107.524" xlink:href="#B"/><use x="1070.546" y="215.048" xlink:href="#B"/><use x="1070.546" y="322.572" xlink:href="#B"/><use x="1124.074" xlink:href="#B"/><use x="1124.074" y="107.524" xlink:href="#B"/><use x="1124.074" y="215.048" xlink:href="#B"/><use x="1124.074" y="322.572" xlink:href="#B"/><use x="1177.601" xlink:href="#B"/><use x="1177.601" y="107.524" xlink:href="#B"/><use x="1177.601" y="215.048" xlink:href="#B"/><use x="1177.601" y="322.572" xlink:href="#B"/><g transform="matrix(.50418 0 0 .50418 736.15 188.52)" fill="#ffdc00"><path d="M120.26 46.086H73.555c-2.1.587-4.326.9-6.6.9a24.5 24.5 0 0 1-5.575-.645l-.937-.267H44a7.95 7.95 0 0 0-1.743.196c-7.582.743-16.037 6.07-19.983 17.548-6.805 20.174-8.268 33.305-5.682 55.52 1.136 5.848 3.318 9.782 6.072 12.426L35.4 168.628l-31.586 30.46a12.5 12.5 0 0 0-.322 17.674c2.454 2.544 5.727 3.823 9.002 3.824a12.45 12.45 0 0 0 8.674-3.503l37.332-36A12.51 12.51 0 0 0 61.637 168l-3.613-10.447 7.968 7.582v43.62c0 6.902 5.596 12.5 12.5 12.5s12.5-5.598 12.5-12.5L91 159.772a12.46 12.46 0 0 0-3.883-9.057l-35.2-33.502c-.374-6.075-.015-12.4.73-18.592a49.31 49.31 0 0 1-9.561-9.829c-6.94-9.53-8.814-18.688-9.3-22.184l-.015-.114c-.632-5.557 3.32-10.52 8.798-11.138.38-.044.762-.065 1.14-.065a9.99 9.99 0 0 1 9.924 8.858 7.02 7.02 0 0 1 .049.264 22.25 22.25 0 0 0 .359 1.637 32.08 32.08 0 0 0 2.217 6.001c.256.522.537 1.015.813 1.514l.577-2.894a24.94 24.94 0 0 0 .891-8.587h34.62v28.34c1.78-.043 3.587-.13 5.444-.297.308-.03.613-.042.914-.042a9.94 9.94 0 0 1 9.947 9.099 9.95 9.95 0 0 1-.69 4.652h41.42V52.262H128.04c-.824-3.54-3.992-6.176-7.782-6.176zm-26.174 7.32h6.864l5.1 6.296h-6.866zm19.5 6.296l-5.1-6.296h6.865l5.1 6.296zm1.766 8.25h-6.865l5.1-6.296h6.865zm-21.268 0l5.1-6.296h6.865l-5.1 6.296zM140 89.836h-34v-3.25h34zm0-8.333h-34v-3.25h34zM122.9 67.95l5.1-6.296h6.865l-5.1 6.296zm21.267 0H137.3l5.1-6.296h6.864zm0-14.546l5.1 6.296h-6.865l-5.1-6.296zm-14.402 0l5.1 6.296H128l-5.1-6.296zm-22.298 45.96a8 8 0 0 0-8.689-7.246l-7.447.35c-9.847-.008-16.943-1.955-22.244-4.632-7.906-4.02-12.153-9.85-14.635-14.908-1.22-2.513-1.95-4.794-2.355-6.377-.203-.8-.325-1.407-.393-1.787l-.063-.385h-.002a8 8 0 1 0-15.897 1.817c.12.786 1.246 10.84 8.95 21.418 3.85 5.263 9.434 10.6 17.164 14.496 7.7 3.912 17.463 6.36 29.412 6.36h.06c2.837-.002 5.797-.137 8.9-.417a8.01 8.01 0 0 0 7.247-8.688z"/><ellipse transform="matrix(.2268 -.9739 .9739 .2268 29.833 82.574)" cx="66.921" cy="22.498" rx="22.493" ry="22.495"/><path d="M169.125 48.632l-7.55-1.078 3.24-5.973c.198-.37.146-.827-.132-1.14a1 1 0 0 0-1.115-.268l-6.756 2.674.322-6.434a1 1 0 0 0-1.76-.701l-5.465 6.377-2.813-3.97a1 1 0 0 0-1.805.422l-.95 5.992a1 1 0 1 0 1.978.316l-.003-.002.567-3.567 2.134 3.013c.178.25.464.406.772.42s.605-.115.803-.348l4.396-5.13-.254 5.063a.99.99 0 0 0 .417.861c.276.2.632.243.95.117l5.64-2.23-2.61 4.818c-.157.288-.164.634-.015.927a1 1 0 0 0 .753.54l5.944.847-5.503 2.94c-.297.157-.496.46-.525.798s.117.667.385.874l3.652 2.833-3.803.23a.99.99 0 0 0-.824.531c-.165.3-.154.678.025.98l2.623 4.387-3.92-1.703c-.507-.222-1.097.01-1.316.52a1 1 0 0 0 .52 1.315l6.776 2.944a.99.99 0 0 0 .398.082c.28 0 .557-.118.75-.34.288-.326.33-.8.107-1.174l-3.377-5.645 4.815-.287c.416-.024.772-.303.895-.702a1 1 0 0 0-.341-1.086l-4.536-3.52 6.84-3.65c.38-.205.588-.632.513-1.057s-.414-.75-.842-.81z"/></g></svg>
