<?xml version="1.0" encoding="UTF-8"?>
<svg width="690.99" height="587.8" enable-background="new" version="1.1" viewBox="0 0 690.98905 587.79793" xmlns="http://www.w3.org/2000/svg" xmlns:cc="http://creativecommons.org/ns#" xmlns:dc="http://purl.org/dc/elements/1.1/" xmlns:osb="http://www.openswatchbook.org/uri/2009/osb" xmlns:rdf="http://www.w3.org/1999/02/22-rdf-syntax-ns#" xmlns:xlink="http://www.w3.org/1999/xlink"><metadata><rdf:RDF><cc:Work rdf:about=""><dc:format>image/svg+xml</dc:format><dc:type rdf:resource="http://purl.org/dc/dcmitype/StillImage"/><dc:title/></cc:Work></rdf:RDF></metadata><defs><filter id="f" color-interpolation-filters="sRGB"><feBlend in2="BackgroundImage" mode="luminosity"/></filter></defs><g transform="translate(-419.87 -.63137)" display="none"><g transform="matrix(.55123 0 0 .55123 366.66 -21.59)" fill="#cf0"><g fill="#cf0"><path d="m97.408 276.51h60.14c0.87 0 1.575-0.706 1.575-1.576v-40.705c0-0.87-0.705-1.576-1.575-1.576h-60.14c-0.87 0-1.575 0.706-1.575 1.576v40.706c0 0.87 0.705 1.575 1.575 1.575zm23.664-29.338 12.812 7.409-12.812 7.41zm0.449 52.409c0.512-2.221 2.234-3.978 4.435-4.544l-0.377-4.766c0-0.463-0.373-0.836-0.838-0.836h-10.48c-0.465 0-0.837 0.373-0.837 0.836l-0.378 4.766c2.201 0.566 3.923 2.323 4.435 4.544zm5.956 5.916c2.509 0 4.543-2.033 4.543-4.547 0-0.48-0.095-0.935-0.233-1.369-1e-3 -2e-3 -1e-3 -3e-3 -2e-3 -5e-3 -0.586-1.829-2.281-3.163-4.308-3.163-2.505 0-4.541 2.032-4.541 4.537 0 2.514 2.037 4.547 4.541 4.547zm-3.435-21.682c0-2.506-2.032-4.537-4.541-4.537-2.506 0-4.541 2.031-4.541 4.537 0 2.513 2.035 4.546 4.541 4.546 2.509 0 4.541-2.033 4.541-4.546zm13.433 15.766c0.512-2.221 2.234-3.979 4.435-4.544l-0.377-4.766c0-0.463-0.374-0.836-0.838-0.836h-10.48c-0.465 0-0.837 0.373-0.837 0.836l-0.378 4.766c2.201 0.566 3.924 2.324 4.436 4.544zm-40.005-9.31-0.378 4.766c2.201 0.566 3.924 2.323 4.435 4.544h4.041c0.512-2.22 2.234-3.978 4.435-4.544l-0.377-4.766c0-0.463-0.373-0.836-0.838-0.836h-10.48c-0.466 0-0.838 0.373-0.838 0.836zm14.054 15.226c2.508 0 4.541-2.033 4.541-4.547 0-0.48-0.095-0.935-0.233-1.369 0-1e-3 -1e-3 -2e-3 -1e-3 -4e-3 -0.443-1.386-1.524-2.472-2.908-2.922-1e-3 -1e-3 -3e-3 -1e-3 -5e-3 -2e-3 -0.441-0.143-0.904-0.24-1.394-0.24-2.506 0-4.542 2.032-4.542 4.537 0 2.514 2.036 4.547 4.542 4.547zm21.195 1.074h-10.482c-0.464 0-0.836 0.374-0.836 0.836l-0.672 8.474c0 0.46 0.374 0.836 0.835 0.836h11.827c0.463 0 0.835-0.376 0.835-0.836l-0.67-8.474c1e-3 -0.462-0.374-0.836-0.837-0.836zm22.126-5.621c0 2.514 2.036 4.547 4.541 4.547 2.509 0 4.543-2.033 4.543-4.547 0-2.505-2.034-4.537-4.543-4.537-2.505 0-4.541 2.032-4.541 4.537zm-46.757-17.135c0-2.506-2.032-4.537-4.541-4.537-2.506 0-4.541 2.031-4.541 4.537 0 2.513 2.035 4.546 4.541 4.546 2.509 0 4.541-2.033 4.541-4.546zm31.909 0c0-2.506-2.034-4.537-4.542-4.537-2.506 0-4.541 2.031-4.541 4.537 0 2.513 2.035 4.546 4.541 4.546 2.508 0 4.542-2.033 4.542-4.546zm3.435 21.682c2.508 0 4.543-2.033 4.543-4.547 0-0.48-0.095-0.935-0.233-1.369-1e-3 -2e-3 -2e-3 -4e-3 -2e-3 -6e-3 -0.587-1.828-2.283-3.162-4.308-3.162-2.505 0-4.541 2.032-4.541 4.537 0 2.514 2.036 4.547 4.541 4.547zm-47.862 0c2.508 0 4.541-2.033 4.541-4.547 0-0.48-0.095-0.935-0.233-1.369 0-1e-3 -1e-3 -2e-3 -1e-3 -4e-3 -0.443-1.386-1.524-2.472-2.908-2.922-2e-3 -1e-3 -3e-3 -1e-3 -5e-3 -2e-3 -0.441-0.143-0.904-0.24-1.394-0.24-2.506 0-4.542 2.032-4.542 4.537 0 2.514 2.036 4.547 4.542 4.547zm21.194 1.074h-10.48c-0.464 0-0.836 0.374-0.836 0.836l-0.672 8.474c0 0.46 0.375 0.836 0.835 0.836h11.826c0.465 0 0.837-0.376 0.837-0.836l-0.671-8.474c-1e-3 -0.462-0.375-0.836-0.839-0.836zm31.909 0h-10.48c-0.465 0-0.837 0.374-0.837 0.836l-0.673 8.474c0 0.46 0.375 0.836 0.837 0.836h11.826c0.463 0 0.835-0.376 0.835-0.836l-0.67-8.474c0-0.462-0.375-0.836-0.838-0.836zm-47.864 0h-10.48c-0.464 0-0.836 0.374-0.836 0.836l-0.672 8.474c0 0.46 0.375 0.836 0.835 0.836h11.826c0.465 0 0.837-0.376 0.837-0.836l-0.671-8.474c0-0.462-0.374-0.836-0.839-0.836zm52.621-6.99c0.512-2.221 2.234-3.979 4.435-4.544l-0.377-4.766c0-0.463-0.374-0.836-0.838-0.836h-10.48c-0.465 0-0.837 0.373-0.837 0.836l-0.378 4.766c2.2 0.566 3.924 2.324 4.436 4.544zm12.035 7.826c0-0.462-0.375-0.836-0.838-0.836h-10.48c-0.465 0-0.837 0.374-0.837 0.836l-0.673 8.474c0 0.46 0.375 0.836 0.837 0.836h11.826c0.463 0 0.835-0.376 0.835-0.836zm-9.514-23.592c0-2.506-2.034-4.537-4.542-4.537-2.506 0-4.541 2.031-4.541 4.537 0 2.513 2.035 4.546 4.541 4.546 2.508 0 4.542-2.033 4.542-4.546z" fill="#cf0"/></g></g><g id="e" transform="translate(-3.1151 47.056)" fill="#fff"><path d="m25.8 10.4c-0.2-0.1-0.5-0.1-0.8 0l-5.3 3.1v-0.8c0-1-0.6-1.8-1.4-2.2 0.4-0.6 0.8-1.3 0.8-2.1 0-1.9-1.5-3.4-3.4-3.4s-3.4 1.5-3.4 3.4c0 0.7 0.2 1.3 0.6 1.9h-2.5c0.4-0.5 0.6-1.2 0.6-1.9 0-1.8-1.5-3.4-3.4-3.4s-3.4 1.5-3.4 3.4c0 0.8 0.3 1.6 0.8 2.2-0.8 0.5-1.3 1.2-1.3 2.2v7.9c0 1.4 1.1 2.5 2.5 2.5h11.3c1.4 0 2.5-1.1 2.5-2.5v-0.8l5.3 3.1c0.1 0.1 0.2 0.1 0.4 0.1 0.1 0 0.2 0 0.4-0.1s0.4-0.4 0.4-0.7v-11.3c-0.3-0.2-0.4-0.5-0.7-0.6zm-10-3.9c1 0 1.9 0.8 1.9 1.9s-0.8 1.9-1.9 1.9-1.9-0.8-1.9-1.9c0-1 0.9-1.9 1.9-1.9zm-8.2 0c1.1 0 1.9 0.8 1.9 1.9s-0.8 1.9-1.9 1.9-1.9-0.9-1.9-1.9 0.9-1.9 1.9-1.9zm10.7 14.1c0 0.5-0.5 1-1 1h-11.2c-0.5 0-1-0.5-1-1v-7.9c0-0.5 0.5-1 1-1h11.2c0.5 0 1 0.5 1 1zm6.4 0.4-4.9-2.8v-2.9l4.9-2.9z" fill="#fff"/></g><use id="d" width="100%" height="100%" xlink:href="#e"/><use id="b" width="100%" height="100%" xlink:href="#d"/><use width="100%" height="100%" xlink:href="#b"/><use transform="translate(0,27.3)" width="100%" height="100%" xlink:href="#b"/><use transform="translate(0,54.6)" width="100%" height="100%" xlink:href="#b"/><use transform="translate(0,81.9)" width="100%" height="100%" xlink:href="#b"/><use transform="translate(0,109.2)" width="100%" height="100%" xlink:href="#b"/><use transform="translate(27.36)" width="100%" height="100%" xlink:href="#b"/><use transform="translate(27.36,27.3)" width="100%" height="100%" xlink:href="#b"/><use transform="translate(27.36,54.6)" width="100%" height="100%" xlink:href="#b"/><use transform="translate(27.36,81.9)" width="100%" height="100%" xlink:href="#b"/><use transform="translate(27.36,109.2)" width="100%" height="100%" xlink:href="#b"/><use transform="translate(54.72)" width="100%" height="100%" xlink:href="#b"/><use transform="translate(54.72,27.3)" width="100%" height="100%" xlink:href="#b"/><use transform="translate(54.72,54.6)" width="100%" height="100%" xlink:href="#b"/><use transform="translate(54.72,81.9)" width="100%" height="100%" xlink:href="#b"/><use transform="translate(54.72,109.2)" width="100%" height="100%" xlink:href="#b"/><use transform="translate(82.08)" width="100%" height="100%" xlink:href="#b"/><use transform="translate(82.08,27.3)" width="100%" height="100%" xlink:href="#b"/><use transform="translate(82.08,54.6)" width="100%" height="100%" xlink:href="#b"/><use transform="translate(82.08,81.9)" width="100%" height="100%" xlink:href="#b"/><use transform="translate(82.08,109.2)" width="100%" height="100%" xlink:href="#b"/><use transform="translate(109.44)" width="100%" height="100%" xlink:href="#b"/><use transform="translate(109.44,27.3)" width="100%" height="100%" xlink:href="#b"/><use transform="translate(109.44,54.6)" width="100%" height="100%" xlink:href="#b"/><use transform="translate(109.44,81.9)" width="100%" height="100%" xlink:href="#b"/><use transform="translate(109.44,109.2)" width="100%" height="100%" xlink:href="#b"/><use transform="translate(136.8)" width="100%" height="100%" xlink:href="#b"/><use transform="translate(136.8,27.3)" width="100%" height="100%" xlink:href="#b"/><use transform="translate(136.8,54.6)" width="100%" height="100%" xlink:href="#b"/><use transform="translate(136.8,81.9)" width="100%" height="100%" xlink:href="#b"/><use transform="translate(136.8,109.2)" width="100%" height="100%" xlink:href="#b"/><use transform="translate(164.16)" width="100%" height="100%" xlink:href="#b"/><use transform="translate(164.16,27.3)" width="100%" height="100%" xlink:href="#b"/><use transform="translate(164.16,54.6)" width="100%" height="100%" xlink:href="#b"/><use transform="translate(164.16,81.9)" width="100%" height="100%" xlink:href="#b"/><use transform="translate(164.16,109.2)" width="100%" height="100%" xlink:href="#b"/><use transform="translate(191.52)" width="100%" height="100%" xlink:href="#b"/><use transform="translate(191.52,27.3)" width="100%" height="100%" xlink:href="#b"/><use transform="translate(191.52,54.6)" width="100%" height="100%" xlink:href="#b"/><use transform="translate(191.52,81.9)" width="100%" height="100%" xlink:href="#b"/><use transform="translate(191.52,109.2)" width="100%" height="100%" xlink:href="#b"/><use transform="translate(218.88)" width="100%" height="100%" xlink:href="#b"/><use transform="translate(218.88,27.3)" width="100%" height="100%" xlink:href="#b"/><use transform="translate(218.88,54.6)" width="100%" height="100%" xlink:href="#b"/><use transform="translate(218.88,81.9)" width="100%" height="100%" xlink:href="#b"/><use transform="translate(218.88,109.2)" width="100%" height="100%" xlink:href="#b"/><use transform="translate(246.24)" width="100%" height="100%" xlink:href="#b"/><use transform="translate(246.24,27.3)" width="100%" height="100%" xlink:href="#b"/><use transform="translate(246.24,54.6)" width="100%" height="100%" xlink:href="#b"/><use transform="translate(246.24,81.9)" width="100%" height="100%" xlink:href="#b"/><use transform="translate(246.24,109.2)" width="100%" height="100%" xlink:href="#b"/><use transform="translate(273.6)" width="100%" height="100%" xlink:href="#b"/><use transform="translate(273.6,27.3)" width="100%" height="100%" xlink:href="#b"/><use transform="translate(273.6,54.6)" width="100%" height="100%" xlink:href="#b"/><use transform="translate(273.6,81.9)" width="100%" height="100%" xlink:href="#b"/><use transform="translate(273.6,109.2)" width="100%" height="100%" xlink:href="#b"/><use transform="translate(300.96)" width="100%" height="100%" xlink:href="#b"/><use transform="translate(300.96,27.3)" width="100%" height="100%" xlink:href="#b"/><use transform="translate(300.96,54.6)" width="100%" height="100%" xlink:href="#b"/><use transform="translate(300.96,81.9)" width="100%" height="100%" xlink:href="#b"/><use transform="translate(300.96,109.2)" width="100%" height="100%" xlink:href="#b"/><use transform="translate(328.32)" width="100%" height="100%" xlink:href="#b"/><use transform="translate(328.32,27.3)" width="100%" height="100%" xlink:href="#b"/><use transform="translate(328.32,54.6)" width="100%" height="100%" xlink:href="#b"/><use transform="translate(328.32,81.9)" width="100%" height="100%" xlink:href="#b"/><use transform="translate(328.32,109.2)" width="100%" height="100%" xlink:href="#b"/><use transform="translate(355.68)" width="100%" height="100%" xlink:href="#b"/><use transform="translate(355.68,27.3)" width="100%" height="100%" xlink:href="#b"/><use transform="translate(355.68,54.6)" width="100%" height="100%" xlink:href="#b"/><use transform="translate(355.68,81.9)" width="100%" height="100%" xlink:href="#b"/><use transform="translate(355.68,109.2)" width="100%" height="100%" xlink:href="#b"/><use transform="translate(383.04)" width="100%" height="100%" xlink:href="#b"/><use transform="translate(383.04,27.3)" width="100%" height="100%" xlink:href="#b"/><use transform="translate(383.04,54.6)" width="100%" height="100%" xlink:href="#b"/><use transform="translate(383.04,81.9)" width="100%" height="100%" xlink:href="#b"/><use transform="translate(383.04,109.2)" width="100%" height="100%" xlink:href="#b"/><use transform="translate(410.4)" width="100%" height="100%" xlink:href="#b"/><use transform="translate(410.4,27.3)" width="100%" height="100%" xlink:href="#b"/><use transform="translate(410.4,109.2)" width="100%" height="100%" xlink:href="#b"/><use transform="translate(437.76)" width="100%" height="100%" xlink:href="#b"/><use transform="translate(437.76,27.3)" width="100%" height="100%" xlink:href="#b"/><use transform="translate(437.76,109.2)" width="100%" height="100%" xlink:href="#b"/><use transform="translate(465.12)" width="100%" height="100%" xlink:href="#b"/><use transform="translate(465.12,27.3)" width="100%" height="100%" xlink:href="#b"/><use transform="translate(465.12,54.6)" width="100%" height="100%" xlink:href="#b"/><use transform="translate(465.12,81.9)" width="100%" height="100%" xlink:href="#b"/><use transform="translate(465.12,109.2)" width="100%" height="100%" xlink:href="#b"/><use transform="translate(492.48)" width="100%" height="100%" xlink:href="#b"/><use transform="translate(492.48,27.3)" width="100%" height="100%" xlink:href="#b"/><use transform="translate(492.48,54.6)" width="100%" height="100%" xlink:href="#b"/><use transform="translate(492.48,81.9)" width="100%" height="100%" xlink:href="#b"/><use transform="translate(492.48,109.2)" width="100%" height="100%" xlink:href="#b"/><use transform="translate(519.84)" width="100%" height="100%" xlink:href="#b"/><use transform="translate(519.84,27.3)" width="100%" height="100%" xlink:href="#b"/><use transform="translate(519.84,54.6)" width="100%" height="100%" xlink:href="#b"/><use transform="translate(519.84,81.9)" width="100%" height="100%" xlink:href="#b"/><use transform="translate(519.84,109.2)" width="100%" height="100%" xlink:href="#b"/><use transform="translate(547.2)" width="100%" height="100%" xlink:href="#b"/><use transform="translate(547.2,27.3)" width="100%" height="100%" xlink:href="#b"/><use transform="translate(547.2,54.6)" width="100%" height="100%" xlink:href="#b"/><use transform="translate(547.2,81.9)" width="100%" height="100%" xlink:href="#b"/><use transform="translate(547.2,109.2)" width="100%" height="100%" xlink:href="#b"/><use transform="translate(574.56)" width="100%" height="100%" xlink:href="#b"/><use transform="translate(574.56,27.3)" width="100%" height="100%" xlink:href="#b"/><use transform="translate(574.56,54.6)" width="100%" height="100%" xlink:href="#b"/><use transform="translate(574.56,81.9)" width="100%" height="100%" xlink:href="#b"/><use transform="translate(574.56,109.2)" width="100%" height="100%" xlink:href="#b"/><use transform="translate(601.92)" width="100%" height="100%" xlink:href="#b"/><use transform="translate(601.92,27.3)" width="100%" height="100%" xlink:href="#b"/><use transform="translate(601.92,54.6)" width="100%" height="100%" xlink:href="#b"/><use transform="translate(601.92,81.9)" width="100%" height="100%" xlink:href="#b"/><use transform="translate(601.92,109.2)" width="100%" height="100%" xlink:href="#b"/></g><g transform="translate(-420.21 .35184)" display="none" filter="url(#f)"><g id="a" transform="translate(-35.304 -11.912)" fill="#ccc" fill-rule="evenodd"><circle cx="50" cy="20" r="7" fill="#ccc"/><rect x="43" y="28" width="14" height="27" rx="3" fill="#ccc"/><rect x="38" y="28" width="25" height="10" rx="3" fill="#ccc"/><rect x="37" y="28" width="5" height="26" rx="2.5" fill="#ccc"/><rect x="58" y="28" width="5" height="26" rx="2.5" fill="#ccc"/><rect x="43" y="51" width="5" height="31.243" rx="2.5" fill="#ccc"/><rect x="52" y="51" width="5" height="31.243" rx="2.5" fill="#ccc"/></g><use width="100%" height="100%" fill="#808080" xlink:href="#a"/><g fill="#b3b3b3"><use transform="translate(0 103.86)" width="100%" height="100%" xlink:href="#a"/><use transform="translate(0 207.73)" width="100%" height="100%" xlink:href="#a"/><use transform="translate(0 311.59)" width="100%" height="100%" xlink:href="#a"/><use transform="translate(0 415.46)" width="100%" height="100%" xlink:href="#a"/><use transform="translate(31.2)" width="100%" height="100%" xlink:href="#a"/><use transform="translate(31.2 103.86)" width="100%" height="100%" xlink:href="#a"/><use transform="translate(31.2 207.73)" width="100%" height="100%" xlink:href="#a"/><use transform="translate(31.2 311.59)" width="100%" height="100%" xlink:href="#a"/><use transform="translate(31.2 415.46)" width="100%" height="100%" xlink:href="#a"/><use transform="translate(62.4)" width="100%" height="100%" xlink:href="#a"/><use transform="translate(62.4 103.86)" width="100%" height="100%" xlink:href="#a"/><use transform="translate(62.4 207.73)" width="100%" height="100%" xlink:href="#a"/><use transform="translate(62.4 311.59)" width="100%" height="100%" xlink:href="#a"/><use transform="translate(62.4 415.46)" width="100%" height="100%" xlink:href="#a"/><use transform="translate(93.6)" width="100%" height="100%" xlink:href="#a"/><use transform="translate(93.6 103.86)" width="100%" height="100%" xlink:href="#a"/><use transform="translate(93.6 207.73)" width="100%" height="100%" xlink:href="#a"/><use transform="translate(93.6 311.59)" width="100%" height="100%" xlink:href="#a"/><use transform="translate(93.6 415.46)" width="100%" height="100%" xlink:href="#a"/><use transform="translate(124.8)" width="100%" height="100%" xlink:href="#a"/><use transform="translate(124.8 103.86)" width="100%" height="100%" xlink:href="#a"/><use transform="translate(124.8 207.73)" width="100%" height="100%" xlink:href="#a"/><use transform="translate(124.8 311.59)" width="100%" height="100%" xlink:href="#a"/><use transform="translate(124.8 415.46)" width="100%" height="100%" xlink:href="#a"/><use transform="translate(156)" width="100%" height="100%" xlink:href="#a"/><use transform="translate(156 103.86)" width="100%" height="100%" xlink:href="#a"/><use transform="translate(156 207.73)" width="100%" height="100%" xlink:href="#a"/><use transform="translate(156 311.59)" width="100%" height="100%" xlink:href="#a"/><use transform="translate(156 415.46)" width="100%" height="100%" xlink:href="#a"/><use transform="translate(187.2)" width="100%" height="100%" xlink:href="#a"/><use transform="translate(187.2 103.86)" width="100%" height="100%" xlink:href="#a"/><use transform="translate(187.2 207.73)" width="100%" height="100%" xlink:href="#a"/><use transform="translate(187.2 311.59)" width="100%" height="100%" xlink:href="#a"/><use transform="translate(187.2 415.46)" width="100%" height="100%" xlink:href="#a"/><use transform="translate(218.4)" width="100%" height="100%" xlink:href="#a"/><use transform="translate(218.4 103.86)" width="100%" height="100%" xlink:href="#a"/><use transform="translate(218.4 207.73)" width="100%" height="100%" xlink:href="#a"/><use transform="translate(218.4 311.59)" width="100%" height="100%" xlink:href="#a"/><use transform="translate(218.4 415.46)" width="100%" height="100%" xlink:href="#a"/><use transform="translate(249.6)" width="100%" height="100%" xlink:href="#a"/><use transform="translate(249.6 103.86)" width="100%" height="100%" xlink:href="#a"/><use transform="translate(249.6 207.73)" width="100%" height="100%" xlink:href="#a"/><use transform="translate(249.6 311.59)" width="100%" height="100%" xlink:href="#a"/><use transform="translate(249.6 415.46)" width="100%" height="100%" xlink:href="#a"/><use transform="translate(280.8)" width="100%" height="100%" xlink:href="#a"/><use transform="translate(280.8 103.86)" width="100%" height="100%" xlink:href="#a"/><use transform="translate(280.8 207.73)" width="100%" height="100%" xlink:href="#a"/><use transform="translate(280.8 311.59)" width="100%" height="100%" xlink:href="#a"/><use transform="translate(280.8 415.46)" width="100%" height="100%" xlink:href="#a"/><use transform="translate(312)" width="100%" height="100%" xlink:href="#a"/><use transform="translate(312 103.86)" width="100%" height="100%" xlink:href="#a"/><use transform="translate(312 207.73)" width="100%" height="100%" xlink:href="#a"/><use transform="translate(312 311.59)" width="100%" height="100%" xlink:href="#a"/><use transform="translate(312 415.46)" width="100%" height="100%" xlink:href="#a"/><use transform="translate(343.2)" width="100%" height="100%" xlink:href="#a"/><use transform="translate(343.2 103.86)" width="100%" height="100%" xlink:href="#a"/><use transform="translate(343.2 207.73)" width="100%" height="100%" xlink:href="#a"/><use transform="translate(343.2 311.59)" width="100%" height="100%" xlink:href="#a"/><use transform="translate(343.2 415.46)" width="100%" height="100%" xlink:href="#a"/><use transform="translate(374.4)" width="100%" height="100%" xlink:href="#a"/><use transform="translate(374.4 103.86)" width="100%" height="100%" xlink:href="#a"/><use transform="translate(374.4 207.73)" width="100%" height="100%" xlink:href="#a"/><use transform="translate(374.4 311.59)" width="100%" height="100%" xlink:href="#a"/><use transform="translate(374.4 415.46)" width="100%" height="100%" xlink:href="#a"/><use transform="translate(405.6)" width="100%" height="100%" xlink:href="#a"/><use transform="translate(405.6 103.86)" width="100%" height="100%" xlink:href="#a"/><use transform="translate(405.6 207.73)" width="100%" height="100%" xlink:href="#a"/><use transform="translate(405.6 311.59)" width="100%" height="100%" xlink:href="#a"/><use transform="translate(405.6 415.46)" width="100%" height="100%" xlink:href="#a"/><use transform="translate(436.8)" width="100%" height="100%" xlink:href="#a"/><use transform="translate(436.8 103.86)" width="100%" height="100%" xlink:href="#a"/><use transform="translate(436.8 207.73)" width="100%" height="100%" xlink:href="#a"/><use transform="translate(436.8 311.59)" width="100%" height="100%" xlink:href="#a"/><use transform="translate(436.8 415.46)" width="100%" height="100%" xlink:href="#a"/><use transform="translate(468)" width="100%" height="100%" xlink:href="#a"/><use transform="translate(468 103.86)" width="100%" height="100%" xlink:href="#a"/><use transform="translate(468 207.73)" width="100%" height="100%" xlink:href="#a"/><use transform="translate(468 311.59)" width="100%" height="100%" xlink:href="#a"/><use transform="translate(468 415.46)" width="100%" height="100%" xlink:href="#a"/><use transform="translate(499.2)" width="100%" height="100%" xlink:href="#a"/><use transform="translate(499.2 103.86)" width="100%" height="100%" xlink:href="#a"/><use transform="translate(499.2 207.73)" width="100%" height="100%" xlink:href="#a"/><use transform="translate(499.2 311.59)" width="100%" height="100%" xlink:href="#a"/><use transform="translate(499.2 415.46)" width="100%" height="100%" xlink:href="#a"/><use transform="translate(530.4)" width="100%" height="100%" xlink:href="#a"/><use transform="translate(530.4 103.86)" width="100%" height="100%" xlink:href="#a"/><use transform="translate(530.4 207.73)" width="100%" height="100%" xlink:href="#a"/><use transform="translate(530.4 311.59)" width="100%" height="100%" xlink:href="#a"/><use transform="translate(530.4 415.46)" width="100%" height="100%" xlink:href="#a"/><use transform="translate(561.6)" width="100%" height="100%" xlink:href="#a"/><use transform="translate(561.6 103.86)" width="100%" height="100%" xlink:href="#a"/><use transform="translate(561.6 207.73)" width="100%" height="100%" xlink:href="#a"/><use transform="translate(561.6 311.59)" width="100%" height="100%" xlink:href="#a"/><use transform="translate(561.6 415.46)" width="100%" height="100%" xlink:href="#a"/><use transform="translate(592.8)" width="100%" height="100%" xlink:href="#a"/><use transform="translate(592.8 103.86)" width="100%" height="100%" xlink:href="#a"/><use transform="translate(592.8 207.73)" width="100%" height="100%" xlink:href="#a"/><use transform="translate(592.8 311.59)" width="100%" height="100%" xlink:href="#a"/><use transform="translate(592.8 415.46)" width="100%" height="100%" xlink:href="#a"/><use transform="translate(624)" width="100%" height="100%" xlink:href="#a"/><use transform="translate(624 103.86)" width="100%" height="100%" xlink:href="#a"/><use transform="translate(624 207.73)" width="100%" height="100%" xlink:href="#a"/><use transform="translate(624 311.59)" width="100%" height="100%" xlink:href="#a"/><use transform="translate(624 415.46)" width="100%" height="100%" xlink:href="#a"/><use transform="translate(655.2)" width="100%" height="100%" xlink:href="#a"/><use transform="translate(655.2 103.86)" width="100%" height="100%" xlink:href="#a"/><use transform="translate(655.2 207.73)" width="100%" height="100%" xlink:href="#a"/><use transform="translate(655.2 311.59)" width="100%" height="100%" xlink:href="#a"/><use transform="translate(655.2 415.46)" width="100%" height="100%" xlink:href="#a"/><use transform="translate(686.4)" width="100%" height="100%" xlink:href="#a"/><use transform="translate(686.4 103.86)" width="100%" height="100%" xlink:href="#a"/><use transform="translate(686.4 207.73)" width="100%" height="100%" xlink:href="#a"/><use transform="translate(686.4 311.59)" width="100%" height="100%" xlink:href="#a"/><use transform="translate(686.4 415.46)" width="100%" height="100%" xlink:href="#a"/><use transform="translate(717.6)" width="100%" height="100%" xlink:href="#a"/><use transform="translate(717.6 103.86)" width="100%" height="100%" xlink:href="#a"/><use transform="translate(717.6 207.73)" width="100%" height="100%" xlink:href="#a"/><use transform="translate(717.6 311.59)" width="100%" height="100%" xlink:href="#a"/><use transform="translate(717.6 415.46)" width="100%" height="100%" xlink:href="#a"/><use transform="translate(748.8)" width="100%" height="100%" xlink:href="#a"/><use transform="translate(748.8 103.86)" width="100%" height="100%" xlink:href="#a"/><use transform="translate(748.8 207.73)" width="100%" height="100%" xlink:href="#a"/><use transform="translate(748.8 311.59)" width="100%" height="100%" xlink:href="#a"/><use transform="translate(748.8 415.46)" width="100%" height="100%" xlink:href="#a"/><use transform="translate(780)" width="100%" height="100%" xlink:href="#a"/><use transform="translate(780 103.86)" width="100%" height="100%" xlink:href="#a"/><use transform="translate(780 207.73)" width="100%" height="100%" xlink:href="#a"/><use transform="translate(780 311.59)" width="100%" height="100%" xlink:href="#a"/><use transform="translate(780 415.46)" width="100%" height="100%" xlink:href="#a"/><use transform="translate(811.2)" width="100%" height="100%" xlink:href="#a"/><use transform="translate(811.2 103.86)" width="100%" height="100%" xlink:href="#a"/><use transform="translate(811.2 207.73)" width="100%" height="100%" xlink:href="#a"/><use transform="translate(811.2 415.46)" width="100%" height="100%" xlink:href="#a"/><use transform="translate(842.4)" width="100%" height="100%" xlink:href="#a"/><use transform="translate(842.4 103.86)" width="100%" height="100%" xlink:href="#a"/><use transform="translate(842.4 207.73)" width="100%" height="100%" xlink:href="#a"/><use transform="translate(842.4 415.46)" width="100%" height="100%" xlink:href="#a"/><use transform="translate(873.6)" width="100%" height="100%" xlink:href="#a"/><use transform="translate(873.6 103.86)" width="100%" height="100%" xlink:href="#a"/><use transform="translate(873.6 207.73)" width="100%" height="100%" xlink:href="#a"/><use transform="translate(873.6 311.59)" width="100%" height="100%" xlink:href="#a"/><use transform="translate(873.6 415.46)" width="100%" height="100%" xlink:href="#a"/><use transform="translate(904.8)" width="100%" height="100%" xlink:href="#a"/><use transform="translate(904.8 103.86)" width="100%" height="100%" xlink:href="#a"/><use transform="translate(904.8 207.73)" width="100%" height="100%" xlink:href="#a"/><use transform="translate(904.8 311.59)" width="100%" height="100%" xlink:href="#a"/><use transform="translate(904.8 415.46)" width="100%" height="100%" xlink:href="#a"/><use transform="translate(936)" width="100%" height="100%" xlink:href="#a"/><use transform="translate(936 103.86)" width="100%" height="100%" xlink:href="#a"/><use transform="translate(936 207.73)" width="100%" height="100%" xlink:href="#a"/><use transform="translate(936 311.59)" width="100%" height="100%" xlink:href="#a"/><use transform="translate(936 415.46)" width="100%" height="100%" xlink:href="#a"/><use transform="translate(967.2)" width="100%" height="100%" xlink:href="#a"/><use transform="translate(967.2 103.86)" width="100%" height="100%" xlink:href="#a"/><use transform="translate(967.2 207.73)" width="100%" height="100%" xlink:href="#a"/><use transform="translate(967.2 311.59)" width="100%" height="100%" xlink:href="#a"/><use transform="translate(967.2 415.46)" width="100%" height="100%" xlink:href="#a"/><use transform="translate(998.4)" width="100%" height="100%" xlink:href="#a"/><use transform="translate(998.4 103.86)" width="100%" height="100%" xlink:href="#a"/><use transform="translate(998.4 207.73)" width="100%" height="100%" xlink:href="#a"/><use transform="translate(998.4 311.59)" width="100%" height="100%" xlink:href="#a"/><use transform="translate(998.4 415.46)" width="100%" height="100%" xlink:href="#a"/><use transform="translate(1029.6)" width="100%" height="100%" xlink:href="#a"/><use transform="translate(1029.6 103.86)" width="100%" height="100%" xlink:href="#a"/><use transform="translate(1029.6 207.73)" width="100%" height="100%" xlink:href="#a"/><use transform="translate(1029.6 311.59)" width="100%" height="100%" xlink:href="#a"/><use transform="translate(1029.6 415.46)" width="100%" height="100%" xlink:href="#a"/><use transform="translate(1060.8)" width="100%" height="100%" xlink:href="#a"/><use transform="translate(1060.8 103.86)" width="100%" height="100%" xlink:href="#a"/><use transform="translate(1060.8 207.73)" width="100%" height="100%" xlink:href="#a"/><use transform="translate(1060.8 311.59)" width="100%" height="100%" xlink:href="#a"/><use transform="translate(1060.8 415.46)" width="100%" height="100%" xlink:href="#a"/><use transform="translate(1092)" width="100%" height="100%" xlink:href="#a"/><use transform="translate(1092 103.86)" width="100%" height="100%" xlink:href="#a"/><use transform="translate(1092 207.73)" width="100%" height="100%" xlink:href="#a"/><use transform="translate(1092 311.59)" width="100%" height="100%" xlink:href="#a"/><use transform="translate(1092 415.46)" width="100%" height="100%" xlink:href="#a"/><use transform="translate(1123.2)" width="100%" height="100%" xlink:href="#a"/><use transform="translate(1123.2 103.86)" width="100%" height="100%" xlink:href="#a"/><use transform="translate(1123.2 207.73)" width="100%" height="100%" xlink:href="#a"/><use transform="translate(1123.2 311.59)" width="100%" height="100%" xlink:href="#a"/><use transform="translate(1123.2 415.46)" width="100%" height="100%" xlink:href="#a"/><use transform="translate(1154.4)" width="100%" height="100%" xlink:href="#a"/><use transform="translate(1154.4 103.86)" width="100%" height="100%" xlink:href="#a"/><use transform="translate(1154.4 207.73)" width="100%" height="100%" xlink:href="#a"/><use transform="translate(1154.4 311.59)" width="100%" height="100%" xlink:href="#a"/><use transform="translate(1154.4 415.46)" width="100%" height="100%" xlink:href="#a"/><use transform="translate(1185.6)" width="100%" height="100%" xlink:href="#a"/><use transform="translate(1185.6 103.86)" width="100%" height="100%" xlink:href="#a"/><use transform="translate(1185.6 207.73)" width="100%" height="100%" xlink:href="#a"/><use transform="translate(1185.6 311.59)" width="100%" height="100%" xlink:href="#a"/><use transform="translate(1185.6 415.46)" width="100%" height="100%" xlink:href="#a"/><use transform="translate(1216.8)" width="100%" height="100%" xlink:href="#a"/><use transform="translate(1216.8 103.86)" width="100%" height="100%" xlink:href="#a"/><use transform="translate(1216.8 207.73)" width="100%" height="100%" xlink:href="#a"/><use transform="translate(1216.8 311.59)" width="100%" height="100%" xlink:href="#a"/><use transform="translate(1216.8 415.46)" width="100%" height="100%" xlink:href="#a"/></g></g><g transform="translate(-419.87 -.63137)" display="none"><text x="-4.4693804" y="35.772774" fill="#ccff00" font-family="sans-serif" font-size="49.068px" letter-spacing="0px" stroke-width="1.2267px" word-spacing="0px" style="line-height:125%" xml:space="preserve"><tspan x="-4.4693804" y="35.772774" fill="#ccff00" font-family="'Ubuntu Condensed'" font-size="49.068px" stroke-width="1.2267px" style="font-feature-settings:normal;font-variant-caps:normal;font-variant-ligatures:normal;font-variant-numeric:normal">LESS THAN 1% FIND DISTRIBUTION</tspan></text><text x="-0.7723186" y="227.96207" fill="#ccff00" font-family="sans-serif" font-size="43.522px" letter-spacing="0px" stroke-width="1.088px" word-spacing="0px" style="line-height:125%" xml:space="preserve"><tspan x="-0.7723186" y="227.96207" fill="#ccff00" font-family="'Ubuntu Condensed'" font-size="28.383px" stroke-width="1.088px" style="font-feature-settings:normal;font-variant-caps:normal;font-variant-ligatures:normal;font-variant-numeric:normal">CHANGE THE STORY. </tspan></text><path d="m623.28 216.84c-0.41674-0.41452-0.83581-0.82676-1.3269-1.3134 0.98219-0.67133 1.3246-1.685 1.4418-2.6583 0.19825-1.6333 0.0225-3.2508-0.80202-4.7781-0.4956-0.92137-1.1061-1.6513-2.0004-2.1626-0.89661-0.51134-1.8383-0.87183-2.8993-0.86955-3.823 7e-3 -7.6482 2e-3 -11.473 2e-3h-0.78168v22.53c4.3434 0 8.6146 9e-3 12.886-9e-3 0.60828-2e-3 1.1894-0.32886 1.8181-0.21402 1.1489-0.53613 2.3316-0.95969 3.2125-1.9937 0.93264-1.0926 1.4215-2.3587 1.6197-3.681 0.27916-1.843-0.34029-3.5055-1.6942-4.8527zm-13.337-7.3193c1.8856 0 6.6254-2e-3 6.7651-2e-3 0.32219 0 0.62629 0.0676 0.90336 0.19153 0.0361 0.0135 0.0721 0.0315 0.10588 0.0495 0.23658 0.11941 0.44835 0.2816 0.62855 0.47312 0.33791 0.36496 0.5564 0.84256 0.59026 1.3719 4e-3 0.0474 5e-3 0.0969 5e-3 0.14646 0 0.58346-0.22532 1.1151-0.59026 1.5139 0 2e-3 0 2e-3 -4e-3 2e-3l-4e-3 2e-3c-0.41003 0.4393-0.99123 0.71413-1.6378 0.71413h-6.7651v-4.4629zm9.8874 13.451c-0.0361 0.0406-0.0721 0.0766-0.11039 0.11263-0.0563 0.0563-0.11489 0.10815-0.17798 0.15543-0.0878 0.072-0.1802 0.13741-0.27937 0.196-0.0834 0.0496-0.16897 0.0946-0.25684 0.13293-0.0361 0.018-0.072 0.0338-0.10814 0.0474-0.0405 0.0159-0.0788 0.0316-0.11939 0.0451-0.25902 0.0901-0.53614 0.1374-0.82447 0.1374h-8.0132v-5.0958h8.0132c1.3043 0 2.3767 0.9777 2.5276 2.2393 0.0136 0.10138 0.0202 0.20498 0.0202 0.30865 0 0.66449-0.25451 1.2682-0.67129 1.7211zm-24.995-2.8633c0 0.62854-0.1802 1.1737-0.44826 1.7301-0.52716 1.0858-0.86057 1.6693-1.3787 2.2393-0.93498 1.1174-2.1807 2.0298-3.6315 2.6448-0.53613 0.22755-1.0994 0.41225-1.685 0.55422-0.84705 0.20277-1.7392 0.31541-2.6628 0.31541-0.0225 0-0.0451-2e-3 -0.0676-2e-3 -0.11712 0-0.23652-2e-3 -0.35372-7e-3 -4.7196-0.17123-8.5718-3.19-9.2702-7.1008-0.0113-0.0631-0.0225-0.12389-0.0315-0.18697-4e-3 -0.0383-0.0112-0.0789-0.018-0.1194-0.0113-0.0879-0.0202-0.178-0.0293-0.26806-9e-3 -0.0811-0.018-0.16219-0.0226-0.24329-7e-3 -0.11939-4e-3 -14.605-4e-3 -14.605h4.7331s-2e-3 0.36041-2e-3 0.53841c0 2.1424 2e-3 4.2848 4e-3 6.4272 0 2.1266-2e-3 4.251-0.0135 6.3799v0.0563c0.0135 1.9149 1.4508 3.5414 3.4513 4.1474 0.54297 0.16446 1.1242 0.25453 1.7301 0.25453 0.61053 0 1.1962-0.0901 1.7414-0.25681 1.2052-0.36725 2.2032-1.1039 2.8092-2.0523 0.40327-0.63074 0.63074-1.3517 0.63074-2.1199 0-0.0654-2e-3 -0.13064-4e-3 -0.19373 0.0113-0.16219 0.0203-0.32438 0.0203-0.48884-9e-3 -1.8969-0.0113-3.7486-0.0113-5.6027-2e-3 -2.3271 2e-3 -4.6588 2e-3 -7.0895h4.5056c8e-5 -7e-5 4e-3 14.758 7e-3 15.049zm-34.678-6.245v-8.8233h4.4413v22.573h-4.413v-9.4127h-10.61v9.3923h-4.501v-22.533h4.4643v8.8037h10.619zm-30.427 0.97425c-0.5037 0.60552-0.89285 1.0637-1.2711 1.5308-0.39011 0.48171-5.1377 5.7555-5.349 6.0665l-6.6173-7.5972v12.754h-4.4721v-22.502h1.5437l9.4176 11.229 9.6677-11.259h1.5436v22.532h-4.4632c8e-5 -4.3447 8e-5 -8.245 8e-5 -12.754zm-28.172 8.7101v4.0444h-16.197v-22.532h4.2938l-0.0304 18.488zm-27.223-18.488v22.532h-4.2938v-22.532zm-25.237 4.2938v4.7241h8.5471v4.2938h-8.5471v9.2207h-4.2938v-22.532h15.772v4.2938zm-19.077 13.439c-0.20813-0.20807-0.20813-0.54428 0-0.75007 0.20809-0.20807 0.54203-0.20807 0.75009 0 0.20814 0.20579 0.20814 0.542 0 0.75007-0.20806 0.20807-0.54193 0.20807-0.75009 0zm-13.977-6.8307c-0.29269 0-0.53054 0.23785-0.53054 0.53054s0.23785 0.53053 0.53054 0.53053 0.53053-0.23784 0.53053-0.53053-0.23784-0.53054-0.53053-0.53054zm2.0718 6.0623c-0.20815 0.20807-0.20815 0.54429 0 0.75007 0.20807 0.20814 0.54201 0.20814 0.75007 0 0.20813-0.20578 0.20813-0.542 0-0.75007-0.20813-0.20579-0.542-0.20579-0.75007 0zm12.637-11.144c0.20579-0.20807 0.20579-0.54429 0-0.75236-0.20815-0.20578-0.5443-0.20578-0.75008 0-0.20807 0.20807-0.20807 0.54429 0 0.75236 0.20578 0.20579 0.54193 0.20579 0.75008 0zm-12.598-0.75007c-0.20806 0.20578-0.20806 0.542 0 0.75007 0.20579 0.20579 0.542 0.20579 0.75007 0 0.20581-0.20807 0.20581-0.54429 0-0.75007-0.20807-0.20815-0.54419-0.20815-0.75007 0zm17.758-0.53149v13.714c0 2.5155-2.0581 4.5736-4.5736 4.5736h-13.942c-2.5155 0-4.5736-2.0581-4.5736-4.5736v-13.714c0-2.5155 2.0581-4.5736 4.5736-4.5736h13.942c2.5156 0 4.5737 2.0581 4.5737 4.5736zm-1.8118 6.8728c0-0.68148-0.55341-1.2326-1.2326-1.2326-0.59686 0-1.0954 0.42767-1.2075 0.99247h-2.9157c-0.0549-1.0085-0.45738-1.9232-1.0908-2.6298l2.0604-2.0604c0.47799 0.30416 1.116 0.24923 1.5321-0.16697 0.48252-0.48025 0.48252-1.26 0-1.7403-0.48026-0.48252-1.26-0.48252-1.7403 0-0.42304 0.42305-0.47332 1.0748-0.15322 1.555l-2.0581 2.0581c-0.69522-0.61288-1.5893-1.0039-2.5727-1.0633v-2.9225c0.55112-0.12124 0.96507-0.61289 0.96507-1.2005 0-0.6792-0.55113-1.2326-1.2303-1.2326-0.68146 0-1.2326 0.55341-1.2326 1.2326 0 0.59684 0.42761 1.0954 0.99247 1.2074v2.9157c-0.98791 0.0527-1.8843 0.43908-2.5841 1.0497l-2.0671-2.0673c0.30416-0.47561 0.25159-1.116-0.16464-1.5321-0.48251-0.48024-1.2623-0.48024-1.7425 0-0.48027 0.48025-0.48027 1.26 0 1.7403 0.42304 0.42305 1.0771 0.47334 1.555 0.15322l2.0604 2.0604c-0.64256 0.70662-1.0497 1.6237-1.1068 2.639h-2.9225c-0.12123-0.5534-0.6106-0.96505-1.2005-0.96505-0.6792 0-1.2303 0.55112-1.2303 1.2303 0 0.6792 0.55113 1.2326 1.2303 1.2326 0.59913 0 1.0954-0.42768 1.2074-0.99248h2.918c0.0595 0.97873 0.44363 1.8684 1.0497 2.5635l-2.0673 2.0673c-0.47563-0.30416-1.116-0.25152-1.5322 0.16461-0.48025 0.48253-0.48025 1.2623 0 1.7426 0.48252 0.48024 1.26 0.48024 1.7425 0 0.42307-0.42305 0.47335-1.0771 0.15097-1.5551l2.0604-2.0581c0.70206 0.63346 1.6122 1.0405 2.6184 1.1022v2.9226c-0.55338 0.12116-0.96733 0.61288-0.96733 1.2005 0 0.68148 0.55113 1.2326 1.2326 1.2326 0.67918 0 1.2303-0.55112 1.2303-1.2326 0-0.59686-0.42532-1.0954-0.99018-1.2074v-2.9157c0.99474-0.0549 1.898-0.44591 2.6001-1.0656l2.0604 2.0627c-0.30416 0.47568-0.24922 1.116 0.16698 1.5322 0.48024 0.48025 1.26 0.48025 1.7426 0 0.48024-0.48252 0.48024-1.2623 0-1.7425-0.42304-0.42304-1.0771-0.47333-1.5551-0.15322l-2.0558-2.0558c0.62657-0.69751 1.0268-1.6031 1.0862-2.6001h2.9248c0.12117 0.55111 0.61289 0.96504 1.2006 0.96504 0.67917-7e-5 1.2326-0.55119 1.2326-1.2304zm-9.1129-8.4108c0-0.2927-0.23784-0.53054-0.53053-0.53054-0.2927 0-0.53054 0.23784-0.53054 0.53054 0 0.29268 0.23784 0.53053 0.53054 0.53053 0.29276 0 0.53053-0.23785 0.53053-0.53053zm7.8804 7.8803c-0.29269 0-0.53055 0.23784-0.53055 0.53054 0 0.29268 0.23786 0.53053 0.53055 0.53053 0.29268 0 0.53054-0.23785 0.53054-0.53053-9e-5 -0.2927-0.23786-0.53054-0.53054-0.53054zm-8.4109-3.0323c-1.9689 0-3.5629 1.5962-3.5629 3.5629 0 1.9666 1.5939 3.5605 3.5629 3.5605 1.9666 0 3.5605-1.5939 3.5605-3.5605 9e-5 -1.9667-1.5939-3.5629-3.5605-3.5629zm-0.53054 11.974c0 0.29269 0.23784 0.53053 0.53054 0.53053 0.29269 0 0.53053-0.23784 0.53053-0.53053s-0.23784-0.53054-0.53053-0.53054c-0.2927-7e-5 -0.53054 0.23777-0.53054 0.53054z" fill="#cf0" stroke-width=".073522"/><text x="440.46503" y="118.74391" fill="#000000" font-family="sans-serif" font-size="40px" letter-spacing="0px" stroke-width="1px" word-spacing="0px" style="line-height:125%" xml:space="preserve"><tspan x="440.46503" y="154.13454"/></text></g><g transform="translate(-542.8 -47.03)" display="none"><g transform="matrix(.17283 0 0 .17283 934.07 353.63)" fill="#ff0"><circle cx="78.2" cy="357.6" r="50.8"/><circle cx="256" cy="357.6" r="50.8"/><circle cx="433.8" cy="357.6" r="50.8"/><path d="m129 433.8h-101.6c-14 0-25.4 11.4-25.4 25.4v45.7c0 2.8 2.3 5.1 5.1 5.1h142.2c2.8 0 5.1-2.3 5.1-5.1v-45.7c0-14-11.4-25.4-25.4-25.4z"/><path d="m306.8 433.8h-101.6c-14 0-25.4 11.4-25.4 25.4v45.7c0 2.8 2.3 5.1 5.1 5.1h142.2c2.8 0 5.1-2.3 5.1-5.1v-45.7c0-14-11.4-25.4-25.4-25.4z"/><path d="m484.6 433.8h-101.6c-14 0-25.4 11.4-25.4 25.4v45.7c0 2.8 2.3 5.1 5.1 5.1h142.2c2.8 0 5.1-2.3 5.1-5.1v-45.7c0-14-11.4-25.4-25.4-25.4z"/><path d="m484.6 2h-457.2c-14 0-25.4 11.4-25.4 25.4v203.2c0 14 11.4 25.4 25.4 25.4h457.2c14 0 25.4-11.4 25.4-25.4v-203.2c0-14-11.4-25.4-25.4-25.4zm-180.1 132.6-60.3 68.3c-5 5-13.6 1.5-13.6-5.6v-136.6c0-7.1 8.6-10.6 13.6-5.6l60.3 68.3c3.1 3.1 3.1 8.1 0 11.2z"/></g></g><g transform="translate(-428.22)"><g id="c" transform="matrix(.324 0 0 .324 428.22 -.00301)" enable-background="new"><path d="m99.51 90.085c5.2 0 9.476 3.91 9.946 9.099 0.146 1.611-0.098 3.195-0.688 4.652h41.42v-43.324h-57.037v29.911c1.78-0.043 3.587-0.129 5.446-0.297 0.307-0.029 0.613-0.041 0.913-0.041zm40.49-0.249h-34v-3.25h34zm0-8.333h-34v-3.25h34zm2.39-19.848h6.864l-5.098 6.296h-6.866zm-14.402 0h6.865l-5.1 6.296h-6.864zm-14.403 0h6.865l-5.099 6.296h-6.865zm-14.403 0h6.865l-5.099 6.296h-6.865z" fill="#f0f0f0" fill-opacity=".56794"/><path d="m52.095 66.549c-0.203-0.791-0.325-1.407-0.393-1.787-0.033-0.189-0.055-0.32-0.063-0.385h-2e-3c-0.504-4.385-4.465-7.532-8.851-7.034-4.389 0.496-7.544 4.46-7.046 8.851 0.119 0.786 1.246 10.841 8.951 21.418 3.85 5.263 9.434 10.591 17.164 14.496 7.711 3.912 17.463 6.36 29.411 6.36h0.061c2.837-2e-3 5.797-0.137 8.891-0.417 4.4-0.399 7.644-4.289 7.246-8.688-0.4-4.401-4.288-7.646-8.689-7.246-2.641 0.239-5.119 0.352-7.447 0.349-9.847-8e-3 -16.943-1.955-22.244-4.632-7.906-4.019-12.153-9.851-14.635-14.908-1.219-2.512-1.947-4.794-2.354-6.377z" fill="#f0f0f0" fill-opacity=".56794"/><ellipse transform="matrix(.2268 -.9739 .9739 .2268 29.832 82.573)" cx="66.921" cy="22.498" rx="22.493" ry="22.495" fill="#f0f0f0" fill-opacity=".56794"/><path d="m58.033 157.55 7.968 7.582v43.619c0 6.902 5.597 12.5 12.501 12.5 6.902 0 12.498-5.598 12.498-12.5v-48.98c0-3.436-1.396-6.689-3.883-9.057l-35.21-33.502c-0.374-6.075-0.015-12.391 0.732-18.592-3.619-2.814-6.826-6.091-9.559-9.829-6.941-9.528-8.814-18.688-9.299-22.184l-0.016-0.114c-0.311-2.73 0.438-5.342 2.102-7.432s4.043-3.407 6.697-3.706c0.381-0.044 0.762-0.065 1.139-0.065 5.076 0 9.342 3.808 9.923 8.856 5e-3 0.025 0.021 0.124 0.046 0.266 0.062 0.347 0.176 0.915 0.36 1.637 0.358 1.392 1.031 3.562 2.218 6.003 0.256 0.521 0.537 1.014 0.813 1.513 0.199-0.989 0.394-1.958 0.577-2.895 1.078-3.739 1.221-7.755 0.526-11.425l32.901-7.008 2.188 5.692 53.242-20.457-3.078-8.01-22.288 8.564c-0.02-0.12-0.031-0.239-0.057-0.359-0.92-4.322-5.17-7.079-9.49-6.158l-24.762 5.273c-4.479 6.272-11.758 10.213-19.879 10.213-1.865 0-3.743-0.216-5.575-0.645-2.426-0.564-4.71-1.479-6.802-2.698l-12.233 2.605c-0.029 6e-3 -0.058 0.017-0.086 0.023-7.58 0.746-16.03 6.075-19.975 17.547-6.805 20.174-8.268 33.305-5.682 55.52 1.136 5.847 3.317 9.782 6.071 12.426l12.747 36.853-31.585 30.46c-4.971 4.791-5.113 12.704-0.322 17.674 2.453 2.544 5.726 3.823 9.001 3.824 3.123 0 6.249-1.163 8.675-3.503l37.333-36.001c3.497-3.373 4.726-8.49 3.136-13.083zm40.441-102.85-7.017-4.046 6.408-2.463 7.017 4.047zm13.445-5.165-7.017-4.047 6.408-2.462 7.017 4.047zm26.28-16.84 7.017 4.047-6.408 2.462-7.018-4.047zm-13.444 5.165 7.018 4.047-6.408 2.462-7.018-4.047z" fill="#f0f0f0" fill-opacity=".56794"/></g><use transform="translate(0 86.019)" xlink:href="#c"/><use transform="translate(0 172.04)" xlink:href="#c"/><use transform="translate(0 258.06)" xlink:href="#c"/><use transform="translate(0 344.08)" xlink:href="#c"/><use transform="translate(0 430.1)" xlink:href="#c"/><use transform="translate(0 516.12)" xlink:href="#c"/><use transform="translate(58.393)" xlink:href="#c"/><use transform="translate(58.393 86.019)" xlink:href="#c"/><use transform="translate(58.393 172.04)" xlink:href="#c"/><use transform="translate(58.393 258.06)" xlink:href="#c"/><use transform="translate(58.393 344.08)" xlink:href="#c"/><use transform="translate(58.393 430.1)" xlink:href="#c"/><use transform="translate(58.393 516.12)" xlink:href="#c"/><use transform="translate(116.79)" xlink:href="#c"/><use transform="translate(116.79 86.019)" xlink:href="#c"/><use transform="translate(116.79 172.04)" xlink:href="#c"/><use transform="translate(116.79 258.06)" xlink:href="#c"/><use transform="translate(116.79 344.08)" xlink:href="#c"/><use transform="translate(116.79 430.1)" xlink:href="#c"/><use transform="translate(116.79 516.12)" xlink:href="#c"/><use transform="translate(175.18)" xlink:href="#c"/><use transform="translate(175.18 86.019)" xlink:href="#c"/><use transform="translate(175.18 172.04)" xlink:href="#c"/><use transform="translate(175.18 258.06)" xlink:href="#c"/><use transform="translate(175.18 344.08)" xlink:href="#c"/><use transform="translate(175.18 430.1)" xlink:href="#c"/><use transform="translate(175.18 516.12)" xlink:href="#c"/><use transform="translate(233.57)" xlink:href="#c"/><use transform="translate(233.57 86.019)" xlink:href="#c"/><use transform="translate(233.57 172.04)" xlink:href="#c"/><use transform="translate(233.57 258.06)" xlink:href="#c"/><use transform="translate(233.57 344.08)" xlink:href="#c"/><use transform="translate(233.57 430.1)" xlink:href="#c"/><use transform="translate(233.57 516.12)" xlink:href="#c"/><use transform="translate(291.97)" xlink:href="#c"/><use transform="translate(291.97 86.019)" xlink:href="#c"/><use transform="translate(291.97 172.04)" xlink:href="#c"/><use transform="translate(291.97 258.06)" xlink:href="#c"/><use transform="translate(291.97 344.08)" xlink:href="#c"/><use transform="translate(291.97 430.1)" xlink:href="#c"/><use transform="translate(291.97 516.12)" xlink:href="#c"/><use transform="translate(350.36)" xlink:href="#c"/><use transform="translate(350.36 86.019)" xlink:href="#c"/><use transform="translate(350.36 172.04)" xlink:href="#c"/><use transform="translate(350.36 258.06)" xlink:href="#c"/><use transform="translate(350.36 344.08)" xlink:href="#c"/><use transform="translate(350.36 430.1)" xlink:href="#c"/><use transform="translate(350.36 516.12)" xlink:href="#c"/><use transform="translate(408.75)" xlink:href="#c"/><use transform="translate(408.75 86.019)" xlink:href="#c"/><use transform="translate(408.75 172.04)" xlink:href="#c"/><use transform="translate(408.75 258.06)" xlink:href="#c"/><use transform="translate(408.75 344.08)" xlink:href="#c"/><use transform="translate(408.75 430.1)" xlink:href="#c"/><use transform="translate(408.75 516.12)" xlink:href="#c"/><use transform="translate(467.15)" xlink:href="#c"/><use transform="translate(467.15 86.019)" xlink:href="#c"/><use transform="translate(467.15 172.04)" xlink:href="#c"/><use transform="translate(467.15 258.06)" xlink:href="#c"/><use transform="translate(467.15 344.08)" xlink:href="#c"/><use transform="translate(467.15 430.1)" xlink:href="#c"/><use transform="translate(467.15 516.12)" xlink:href="#c"/><use transform="translate(525.54)" xlink:href="#c"/><use transform="translate(525.54 86.019)" xlink:href="#c"/><use transform="translate(525.54 172.04)" xlink:href="#c"/><use transform="translate(525.54 258.06)" xlink:href="#c"/><use transform="translate(525.54 344.08)" xlink:href="#c"/><use transform="translate(525.54 430.1)" xlink:href="#c"/><use transform="translate(525.54 516.12)" xlink:href="#c"/><use transform="translate(583.93)" xlink:href="#c"/><use transform="translate(583.93 86.019)" xlink:href="#c"/><use transform="translate(583.93 172.04)" xlink:href="#c"/><use transform="translate(583.93 258.06)" xlink:href="#c"/><use transform="translate(583.93 344.08)" xlink:href="#c"/><use transform="translate(583.93 430.1)" xlink:href="#c"/><use transform="translate(583.93 516.12)" xlink:href="#c"/></g><g transform="translate(-428.22)"><g transform="matrix(1.2037 0 0 1.2037 -55.858 -8.0407)" enable-background="new" fill="#ffc107"><g transform="matrix(.41886 0 0 .41886 733.97 203.52)" fill="#ffc107"><path d="m120.26 46.086h-46.704c-2.11 0.587-4.326 0.911-6.611 0.911-1.865 0-3.743-0.216-5.575-0.645-0.318-0.074-0.623-0.181-0.937-0.267h-16.433c-0.6 0-1.181 0.071-1.743 0.196-7.582 0.743-16.037 6.071-19.983 17.548-6.805 20.174-8.268 33.305-5.682 55.52 1.136 5.848 3.318 9.782 6.072 12.426l12.747 36.853-31.586 30.46c-4.97 4.791-5.115 12.704-0.322 17.674 2.454 2.544 5.727 3.823 9.002 3.824 3.123 0 6.248-1.163 8.674-3.503l37.332-36.001c3.499-3.373 4.727-8.49 3.137-13.083l-3.613-10.447 7.968 7.582v43.619c0 6.902 5.596 12.5 12.5 12.5 6.902 0 12.501-5.598 12.501-12.5l-3e-3 -48.981c0-3.436-1.394-6.689-3.883-9.057l-35.21-33.502c-0.374-6.075-0.015-12.391 0.731-18.592-3.619-2.814-6.825-6.091-9.561-9.829-6.941-9.53-8.814-18.688-9.299-22.184l-0.015-0.114c-0.632-5.557 3.321-10.52 8.798-11.138 0.381-0.044 0.762-0.065 1.139-0.065 5.078 0 9.345 3.808 9.924 8.858 6e-3 0.023 0.024 0.122 0.049 0.264 0.061 0.347 0.174 0.915 0.359 1.637 0.357 1.396 1.033 3.57 2.217 6.001 0.256 0.522 0.537 1.015 0.813 1.514 0.199-0.988 0.394-1.957 0.577-2.894 0.806-2.795 1.089-5.743 0.891-8.587h34.621v28.339c1.78-0.043 3.587-0.129 5.444-0.297 0.308-0.029 0.613-0.042 0.914-0.042 5.203 0 9.479 3.912 9.947 9.099 0.146 1.611-0.099 3.195-0.69 4.652h41.421v-51.573h-22.146c-0.824-3.539-3.992-6.176-7.782-6.176zm-26.174 7.319h6.864l5.1 6.296h-6.866zm19.501 6.296-5.1-6.296h6.865l5.099 6.296zm1.766 8.25h-6.865l5.099-6.296h6.865zm-21.268 0 5.099-6.296h6.865l-5.099 6.296zm45.916 21.885h-34v-3.25h34zm0-8.333h-34v-3.25h34zm-17.11-13.552 5.099-6.296h6.865l-5.1 6.296zm21.267 0h-6.866l5.1-6.296h6.864zm0-14.546 5.099 6.296h-6.865l-5.099-6.296zm-14.402 0 5.099 6.296h-6.865l-5.099-6.296z"/><path d="m107.47 99.364c-0.4-4.401-4.288-7.646-8.689-7.246-2.641 0.239-5.119 0.352-7.447 0.349-9.847-8e-3 -16.943-1.955-22.244-4.632-7.906-4.019-12.153-9.851-14.635-14.908-1.221-2.513-1.949-4.794-2.355-6.377-0.203-0.791-0.325-1.407-0.393-1.787-0.033-0.189-0.055-0.32-0.063-0.385h-2e-3c-0.504-4.385-4.465-7.532-8.851-7.034-4.389 0.496-7.544 4.46-7.046 8.851 0.119 0.786 1.246 10.841 8.951 21.418 3.85 5.263 9.434 10.591 17.164 14.496 7.711 3.912 17.463 6.36 29.412 6.36h0.06c2.837-2e-3 5.797-0.137 8.891-0.417 4.401-0.4 7.645-4.29 7.247-8.688z"/><ellipse transform="matrix(.2268 -.9739 .9739 .2268 29.833 82.574)" cx="66.921" cy="22.498" rx="22.493" ry="22.495"/><path d="m169.12 48.632-7.549-1.078 3.239-5.973c0.198-0.371 0.146-0.827-0.132-1.141s-0.727-0.423-1.115-0.268l-6.756 2.674 0.322-6.434c0.02-0.429-0.23-0.82-0.63-0.979-0.397-0.159-0.85-0.048-1.13 0.278l-5.465 6.377-2.813-3.971c-0.236-0.333-0.648-0.487-1.044-0.396-0.397 0.094-0.696 0.414-0.761 0.818l-0.951 5.992c-0.085 0.546 0.285 1.059 0.831 1.145 0.546 0.088 1.06-0.285 1.147-0.829l-3e-3 -2e-3 0.567-3.567 2.134 3.013c0.178 0.251 0.464 0.406 0.772 0.421 0.305 0.015 0.605-0.115 0.803-0.348l4.396-5.13-0.254 5.063c-0.019 0.339 0.139 0.663 0.417 0.861 0.276 0.199 0.632 0.243 0.95 0.117l5.641-2.23-2.611 4.818c-0.157 0.288-0.164 0.634-0.015 0.927 0.146 0.293 0.429 0.493 0.753 0.54l5.944 0.847-5.503 2.939c-0.297 0.157-0.496 0.461-0.525 0.798-0.027 0.335 0.117 0.667 0.385 0.874l3.652 2.833-3.803 0.229c-0.352 0.021-0.66 0.22-0.824 0.531-0.165 0.31-0.154 0.678 0.025 0.979l2.623 4.387-3.92-1.703c-0.507-0.222-1.097 0.011-1.316 0.52-0.22 0.506 0.013 1.096 0.52 1.315l6.776 2.944c0.128 0.056 0.263 0.082 0.398 0.082 0.281 0 0.557-0.118 0.751-0.34 0.288-0.326 0.331-0.801 0.107-1.174l-3.377-5.645 4.815-0.287c0.416-0.024 0.772-0.303 0.895-0.702 0.124-0.397-0.013-0.831-0.341-1.086l-4.536-3.52 6.84-3.651c0.381-0.205 0.588-0.632 0.513-1.057-0.071-0.421-0.414-0.751-0.842-0.811z"/></g></g></g></svg>
