<!-- Created with Inkscape (http://www.inkscape.org/) -->
<svg xmlns:rdf="http://www.w3.org/1999/02/22-rdf-syntax-ns#" xmlns="http://www.w3.org/2000/svg" height="35" width="207.55" version="1.1" xmlns:cc="http://creativecommons.org/ns#" xmlns:dc="http://purl.org/dc/elements/1.1/">
<metadata>
<rdf:RDF>
<cc:Work rdf:about="">
<dc:format>image/svg+xml</dc:format>
<dc:type rdf:resource="http://purl.org/dc/dcmitype/StillImage"/>
<dc:title/>
</cc:Work>
</rdf:RDF>
</metadata>
<g transform="translate(-5.3362499,-52.852016)">
<g style="letter-spacing:0px;word-spacing:0px;" font-weight="500" transform="matrix(1.1437908,0,0,1.1437908,3.8078594,45.495264)" font-stretch="normal" line-height="125%" font-size="40px" font-variant="normal" font-family="Max-SemiBold" font-style="normal" fill="#777">
<path d="m20.536,35.952-8-10.24,7.56-9.52c0.04-0.08,0.08-0.12,0.08-0.2,0-0.16-0.12-0.36-0.4-0.36l-4.88-0.12c-0.2,0-0.36,0.04-0.52,0.28l-6.32,8.44h-1.36v-17.12c0-0.44-0.24-0.68-0.6-0.68h-0.16l-3.92,0.68c-0.48,0.12-0.68,0.36-0.68,0.84v27.96c0,0.36,0.28,0.6,0.64,0.6h4.12c0.4,0,0.6-0.24,0.6-0.6v-8.08h1.36l6.2,8.44c0.2,0.24,0.4,0.24,0.6,0.24h5.36c0.24,0,0.4-0.2,0.4-0.36,0-0.08-0.04-0.16-0.08-0.2"/>
<path d="m28.024,35.912,0-19.44c0-0.36-0.24-0.6-0.6-0.6h-4.08c-0.36,0-0.64,0.24-0.64,0.6v19.44c0,0.36,0.28,0.6,0.64,0.6h4.08c0.36,0,0.6-0.24,0.6-0.6m0-24.04,0-4.52c0-0.64-0.32-0.92-0.96-0.92h-3.36c-0.64,0-0.96,0.28-0.96,0.92v4.52c0,0.64,0.32,0.92,0.96,0.92h3.36c0.64,0,0.96-0.28,0.96-0.92"/>
<path d="m50.055,35.912,0-14.84c0-4.8-2.76-6.08-7.76-6.08-2.56,0-5.92,0.48-7.96,1.04-2.24,0.6-3,1.12-3,2.64v17.24c0,0.36,0.28,0.6,0.68,0.6h4.08c0.36,0,0.6-0.24,0.6-0.6v-16.56s2.6-0.68,5-0.68c2.12,0,3,0.8,3,3.12v14.12c0,0.36,0.28,0.6,0.64,0.6h4.12c0.36,0,0.6-0.24,0.6-0.6"/>
<path d="m72.675,26.032c0-6.16-1.08-11.04-9.96-11.04-8.84,0-9.96,4.88-9.96,11.04,0,6.12,1.12,11,9.96,11,8.88,0,9.96-4.88,9.96-11m-5.48,0c0,4.76-0.2,7.28-4.48,7.28s-4.44-2.52-4.44-7.28c0-4.8,0.16-7.32,4.44-7.32s4.48,2.52,4.48,7.32"/>
<path d="m94.094,35.912,0-14.84c0-4.8-2.76-6.08-7.76-6.08-2.56,0-5.92,0.48-7.96,1.04-2.24,0.6-3,1.12-3,2.64v17.24c0,0.36,0.28,0.6,0.68,0.6h4.08c0.36,0,0.6-0.24,0.6-0.6v-16.56s2.6-0.68,5-0.68c2.12,0,3,0.8,3,3.12v14.12c0,0.36,0.28,0.6,0.64,0.6h4.12c0.36,0,0.6-0.24,0.6-0.6"/>
<path d="m115.71,32.312,0-11.04c0-2.16-0.4-4.04-2.44-5.16-1.28-0.72-3.2-1.12-6.04-1.12-4.08,0-7.76,1-8.72,1.36-0.2,0.08-0.48,0.24-0.48,0.6v0.16l0.56,2.48c0.04,0.28,0.24,0.36,0.44,0.36,0.08,0,0.16-0.04,0.28-0.04,1.2-0.32,4.16-1.12,6.88-1.12,1.44,0,2.4,0.12,3.04,0.4,1,0.44,1.12,1.24,1.12,2.36v1.28l-7.12,1.16c-3.2,0.52-6.44,1.08-6.44,6.24,0,6.36,5.32,6.8,9.64,6.8,2.24,0,4.16-0.24,5.56-0.56,2.72-0.64,3.72-1.16,3.72-4.16m-5.36,0.68c-0.84,0.28-2.12,0.56-3.68,0.56-1.92,0-4.44-0.24-4.44-3.36,0-2.6,1.52-2.84,3.16-3.08l4.96-0.8v6.68"/>
<path d="m131.31,35.312-0.48-2.28c-0.04-0.28-0.2-0.44-0.44-0.44h-0.16c-0.67999,0.16-1.84,0.36-3.04,0.36-2.08,0-2.8-0.72-2.8-2.48v-11.08h5.72c0.36,0,0.60001-0.2,0.60001-0.56v-2.72c0-0.36-0.24001-0.6-0.60001-0.6h-5.72v-6.44c0-0.44-0.2-0.64-0.56-0.64h-0.2l-3.92,0.72c-0.44,0.12-0.68001,0.36-0.68001,0.84v20.6c0,4.52,2.28,6.28,6.84,6.28,2.56,0,4.32-0.56,5-0.76,0.32-0.08,0.48-0.32,0.48-0.6,0-0.08-0.04-0.12-0.04-0.2"/>
<path d="m138.75,35.912,0-19.44c0-0.36-0.24-0.6-0.6-0.6h-4.08c-0.35999,0-0.64,0.24-0.64,0.6v19.44c0,0.36,0.28001,0.6,0.64,0.6h4.08c0.36,0,0.6-0.24,0.6-0.6m0-24.04,0-4.52c0-0.64-0.32-0.92-0.96-0.92h-3.36c-0.63999,0-0.95999,0.28-0.95999,0.92v4.52c0,0.64,0.32,0.92,0.95999,0.92h3.36c0.64,0,0.96-0.28,0.96-0.92"/>
<path d="m161.37,26.032c0-6.16-1.08-11.04-9.96-11.04-8.84,0-9.96,4.88-9.96,11.04,0,6.12,1.12,11,9.96,11,8.88,0,9.96-4.88,9.96-11m-5.48,0c0,4.76-0.2,7.28-4.48,7.28s-4.44-2.52-4.44-7.28c0-4.8,0.16-7.32,4.44-7.32s4.48,2.52,4.48,7.32"/>
<path d="m182.79,35.912,0-14.84c0-4.8-2.76-6.08-7.76-6.08-2.56,0-5.92,0.48-7.96,1.04-2.24,0.6-3,1.12-3,2.64v17.24c0,0.36,0.28001,0.6,0.68001,0.6h4.08c0.36,0,0.6-0.24,0.6-0.6v-16.56s2.6-0.68,5-0.68c2.12,0,3,0.8,3,3.12v14.12c0,0.36,0.28001,0.6,0.64,0.6h4.12c0.36,0,0.6-0.24,0.6-0.6"/>
</g>
</g>
</svg>
