<?xml version="1.0" encoding="utf-8"?>
<!-- Generator: Adobe Illustrator 17.0.0, SVG Export Plug-In . SVG Version: 6.00 Build 0)  -->
<!DOCTYPE svg PUBLIC "-//W3C//DTD SVG 1.1//EN" "http://www.w3.org/Graphics/SVG/1.1/DTD/svg11.dtd">
<svg version="1.1" xmlns="http://www.w3.org/2000/svg" xmlns:xlink="http://www.w3.org/1999/xlink" x="0px" y="0px" width="340px"
	 height="354px" viewBox="0 0 340 354" enable-background="new 0 0 340 354" xml:space="preserve">
<g id="Layer_1">
</g>
<g id="svg3355">
	<g id="g3601">
		<path id="path3603" fill="#525254" d="M157.815,165.81V-0.318c-71.971,0-135.757,46.343-157.997,114.792L157.815,165.81z"/>
	</g>
	<g id="g3619">
		<path id="path3621" fill="#FF6F00" d="M173.827,187.827L15.83,136.491c-28.352,87.259,19.401,180.981,106.661,209.333
			c87.259,28.352,180.981-19.401,209.333-106.661c28.352-87.259-19.401-180.981-106.661-209.333
			c-16.579-5.387-33.904-8.131-51.336-8.131V187.827z"/>
	</g>
	<g id="g3649">
		<g id="g3651" transform="translate(307.7119,646.4533)">
			<g enable-background="new    ">
				<path fill="#FFFFFF" d="M-243.962-578.748v4.563l4.301-4.563h3.021l-4.301,4.347l4.717,6.66h-3.037l-3.314-4.949l-1.387,1.403
					v3.546h-2.42v-11.007H-243.962z"/>
			</g>
			<g enable-background="new    ">
				<path fill="#FFFFFF" d="M-235.422-576.944v-1.804h2.189v1.804H-235.422z M-233.232-575.71v7.97h-2.189v-7.97H-233.232z"/>
			</g>
			<g enable-background="new    ">
				<path fill="#FFFFFF" d="M-229.425-575.71v1.11h0.046c0.277-0.462,0.637-0.799,1.079-1.01s0.894-0.316,1.357-0.316
					c0.585,0,1.066,0.08,1.441,0.239c0.375,0.16,0.67,0.38,0.886,0.663s0.368,0.627,0.455,1.033
					c0.087,0.406,0.131,0.855,0.131,1.349v4.902h-2.189v-4.501c0-0.658-0.103-1.149-0.309-1.473s-0.57-0.485-1.095-0.485
					c-0.596,0-1.028,0.177-1.295,0.532s-0.401,0.938-0.401,1.75v4.178h-2.189v-7.97H-229.425z"/>
			</g>
			<g enable-background="new    ">
				<path fill="#FFFFFF" d="M-222.317-573.452c0.195-0.519,0.473-0.961,0.833-1.326c0.359-0.365,0.791-0.647,1.295-0.848
					c0.503-0.2,1.069-0.3,1.696-0.3s1.195,0.1,1.704,0.3c0.509,0.201,0.943,0.483,1.303,0.848c0.359,0.365,0.637,0.807,0.833,1.326
					c0.195,0.519,0.293,1.097,0.293,1.734s-0.098,1.213-0.293,1.727c-0.195,0.514-0.473,0.954-0.833,1.318
					c-0.36,0.365-0.794,0.645-1.303,0.84c-0.509,0.195-1.077,0.292-1.704,0.292s-1.192-0.098-1.696-0.292
					c-0.504-0.195-0.936-0.476-1.295-0.84c-0.36-0.365-0.638-0.804-0.833-1.318c-0.195-0.514-0.293-1.089-0.293-1.727
					S-222.512-572.933-222.317-573.452z M-220.328-570.785c0.062,0.303,0.167,0.576,0.316,0.817
					c0.149,0.241,0.347,0.434,0.593,0.578c0.247,0.144,0.555,0.216,0.925,0.216s0.681-0.072,0.933-0.216s0.452-0.337,0.601-0.578
					c0.149-0.242,0.254-0.514,0.316-0.817c0.062-0.303,0.092-0.614,0.092-0.933c0-0.318-0.031-0.632-0.092-0.94
					c-0.062-0.308-0.167-0.581-0.316-0.817s-0.349-0.429-0.601-0.578s-0.562-0.224-0.933-0.224s-0.678,0.075-0.925,0.224
					c-0.247,0.149-0.444,0.342-0.593,0.578s-0.254,0.509-0.316,0.817c-0.062,0.309-0.093,0.622-0.093,0.94
					C-220.421-571.399-220.39-571.088-220.328-570.785z"/>
			</g>
			<g enable-background="new    ">
				<path fill="#FFFFFF" d="M-210.863-575.71v1.11h0.046c0.277-0.462,0.637-0.799,1.079-1.01s0.894-0.316,1.357-0.316
					c0.585,0,1.066,0.08,1.441,0.239c0.375,0.16,0.67,0.38,0.886,0.663s0.368,0.627,0.455,1.033
					c0.087,0.406,0.131,0.855,0.131,1.349v4.902h-2.189v-4.501c0-0.658-0.103-1.149-0.309-1.473s-0.57-0.485-1.095-0.485
					c-0.596,0-1.028,0.177-1.295,0.532s-0.401,0.938-0.401,1.75v4.178h-2.189v-7.97H-210.863z"/>
			</g>
			<g enable-background="new    ">
				<path fill="#FFFFFF" d="M-203.894-573.259c0.031-0.514,0.159-0.94,0.385-1.28c0.226-0.339,0.514-0.611,0.863-0.817
					c0.349-0.206,0.742-0.352,1.179-0.439s0.876-0.131,1.318-0.131c0.401,0,0.807,0.028,1.218,0.084
					c0.411,0.057,0.786,0.167,1.125,0.332c0.339,0.165,0.617,0.393,0.833,0.686s0.324,0.681,0.324,1.164v4.147
					c0,0.36,0.021,0.704,0.062,1.033c0.041,0.329,0.113,0.576,0.216,0.74h-2.22c-0.042-0.124-0.075-0.249-0.1-0.378
					c-0.026-0.128-0.044-0.259-0.054-0.393c-0.35,0.36-0.761,0.612-1.233,0.755c-0.473,0.144-0.956,0.216-1.449,0.216
					c-0.38,0-0.735-0.046-1.063-0.139c-0.329-0.092-0.617-0.236-0.863-0.432c-0.247-0.195-0.439-0.442-0.578-0.74
					c-0.139-0.298-0.208-0.653-0.208-1.064c0-0.452,0.08-0.825,0.239-1.118c0.159-0.293,0.365-0.526,0.617-0.701
					c0.251-0.175,0.54-0.306,0.863-0.394c0.324-0.087,0.65-0.156,0.979-0.208c0.329-0.051,0.652-0.092,0.971-0.123
					c0.318-0.031,0.601-0.077,0.848-0.139c0.247-0.062,0.442-0.151,0.586-0.27s0.21-0.291,0.201-0.517
					c0-0.236-0.039-0.424-0.116-0.562s-0.18-0.247-0.309-0.324s-0.277-0.128-0.447-0.154c-0.17-0.025-0.353-0.039-0.547-0.039
					c-0.432,0-0.771,0.092-1.018,0.277s-0.391,0.494-0.432,0.925H-203.894z M-198.837-571.641c-0.093,0.083-0.208,0.146-0.347,0.193
					c-0.139,0.046-0.288,0.084-0.447,0.115c-0.16,0.031-0.327,0.057-0.501,0.077c-0.175,0.021-0.349,0.046-0.524,0.077
					c-0.165,0.031-0.327,0.072-0.486,0.124s-0.298,0.121-0.416,0.208s-0.213,0.198-0.285,0.332
					c-0.072,0.134-0.108,0.303-0.108,0.509c0,0.195,0.036,0.36,0.108,0.493c0.072,0.134,0.169,0.239,0.293,0.316
					c0.123,0.077,0.267,0.131,0.432,0.162c0.164,0.031,0.333,0.046,0.509,0.046c0.432,0,0.765-0.072,1.002-0.216
					c0.236-0.144,0.411-0.316,0.524-0.517c0.113-0.201,0.183-0.403,0.208-0.609c0.025-0.206,0.039-0.37,0.039-0.494V-571.641z"/>
			</g>
			<g enable-background="new    ">
				<path fill="#FFFFFF" d="M-190.574-575.71v1.464h-1.604v3.947c0,0.37,0.062,0.617,0.185,0.74c0.124,0.124,0.37,0.185,0.74,0.185
					c0.123,0,0.241-0.005,0.354-0.015c0.113-0.01,0.221-0.026,0.324-0.046v1.696c-0.185,0.031-0.391,0.051-0.617,0.062
					s-0.447,0.016-0.663,0.016c-0.339,0-0.661-0.023-0.963-0.069c-0.303-0.046-0.57-0.136-0.802-0.27
					c-0.231-0.133-0.414-0.324-0.547-0.57s-0.2-0.57-0.2-0.971v-4.702h-1.326v-1.464h1.326v-2.39h2.189v2.39H-190.574z"/>
			</g>
			<g enable-background="new    ">
				<path fill="#FFFFFF" d="M-189.465-576.944v-1.804h2.189v1.804H-189.465z M-187.275-575.71v7.97h-2.189v-7.97H-187.275z"/>
			</g>
			<g enable-background="new    ">
				<path fill="#FFFFFF" d="M-185.502-573.452c0.195-0.519,0.473-0.961,0.833-1.326c0.359-0.365,0.791-0.647,1.295-0.848
					c0.503-0.2,1.069-0.3,1.696-0.3s1.195,0.1,1.704,0.3c0.509,0.201,0.943,0.483,1.303,0.848c0.359,0.365,0.637,0.807,0.833,1.326
					c0.195,0.519,0.293,1.097,0.293,1.734s-0.098,1.213-0.293,1.727c-0.195,0.514-0.473,0.954-0.833,1.318
					c-0.36,0.365-0.794,0.645-1.303,0.84c-0.509,0.195-1.077,0.292-1.704,0.292s-1.192-0.098-1.696-0.292
					c-0.504-0.195-0.936-0.476-1.295-0.84c-0.36-0.365-0.638-0.804-0.833-1.318c-0.195-0.514-0.293-1.089-0.293-1.727
					S-185.698-572.933-185.502-573.452z M-183.513-570.785c0.062,0.303,0.167,0.576,0.316,0.817
					c0.149,0.241,0.347,0.434,0.593,0.578c0.247,0.144,0.555,0.216,0.925,0.216s0.681-0.072,0.933-0.216s0.452-0.337,0.601-0.578
					c0.149-0.242,0.254-0.514,0.316-0.817c0.062-0.303,0.092-0.614,0.092-0.933c0-0.318-0.031-0.632-0.092-0.94
					c-0.062-0.308-0.167-0.581-0.316-0.817s-0.349-0.429-0.601-0.578s-0.562-0.224-0.933-0.224s-0.678,0.075-0.925,0.224
					c-0.247,0.149-0.444,0.342-0.593,0.578s-0.254,0.509-0.316,0.817c-0.062,0.309-0.093,0.622-0.093,0.94
					C-183.606-571.399-183.575-571.088-183.513-570.785z"/>
			</g>
			<g enable-background="new    ">
				<path fill="#FFFFFF" d="M-174.048-575.71v1.11h0.046c0.277-0.462,0.637-0.799,1.079-1.01s0.894-0.316,1.357-0.316
					c0.585,0,1.066,0.08,1.441,0.239c0.375,0.16,0.67,0.38,0.886,0.663s0.368,0.627,0.455,1.033
					c0.087,0.406,0.131,0.855,0.131,1.349v4.902h-2.189v-4.501c0-0.658-0.103-1.149-0.309-1.473s-0.57-0.485-1.095-0.485
					c-0.596,0-1.028,0.177-1.295,0.532s-0.401,0.938-0.401,1.75v4.178h-2.189v-7.97H-174.048z"/>
			</g>
			<g enable-background="new    ">
			</g>
		</g>
		<g id="g3657" transform="translate(326.5387,631.4533)">
			<g enable-background="new    ">
				<path fill="#FFFFFF" d="M-241.954-542.354c0.165-0.529,0.411-0.992,0.74-1.387c0.329-0.396,0.742-0.704,1.241-0.925
					c0.499-0.221,1.072-0.331,1.719-0.331c0.493,0,0.963,0.077,1.411,0.231c0.447,0.154,0.84,0.375,1.179,0.663
					c0.339,0.288,0.609,0.643,0.81,1.063c0.2,0.422,0.3,0.895,0.3,1.418c0,0.545-0.087,1.013-0.262,1.403
					c-0.175,0.391-0.406,0.738-0.694,1.041c-0.288,0.303-0.614,0.578-0.979,0.825s-0.732,0.491-1.103,0.732
					c-0.37,0.242-0.729,0.501-1.079,0.779c-0.349,0.277-0.658,0.601-0.925,0.971h5.103v1.881h-7.924c0-0.627,0.09-1.172,0.27-1.634
					c0.18-0.462,0.424-0.876,0.732-1.241c0.309-0.365,0.671-0.702,1.087-1.01c0.417-0.309,0.856-0.622,1.318-0.94
					c0.236-0.165,0.488-0.332,0.755-0.501c0.267-0.169,0.511-0.357,0.732-0.562c0.221-0.206,0.406-0.437,0.555-0.694
					c0.149-0.257,0.224-0.55,0.224-0.878c0-0.524-0.152-0.933-0.455-1.226c-0.303-0.292-0.691-0.439-1.164-0.439
					c-0.319,0-0.588,0.075-0.81,0.223c-0.221,0.149-0.398,0.345-0.532,0.586c-0.134,0.242-0.229,0.509-0.285,0.802
					c-0.057,0.293-0.085,0.583-0.085,0.871h-2.097C-242.19-541.251-242.118-541.824-241.954-542.354z"/>
			</g>
			<g enable-background="new    ">
				<path fill="#FFFFFF" d="M-233.528-542.076c0.21-0.714,0.496-1.288,0.856-1.719c0.359-0.432,0.778-0.74,1.256-0.925
					s0.984-0.277,1.519-0.277c0.544,0,1.056,0.092,1.534,0.277c0.478,0.185,0.899,0.493,1.264,0.925s0.653,1.005,0.863,1.719
					c0.211,0.714,0.316,1.596,0.316,2.644c0,1.079-0.105,1.981-0.316,2.706c-0.21,0.725-0.499,1.303-0.863,1.734
					s-0.786,0.74-1.264,0.925c-0.478,0.185-0.989,0.277-1.534,0.277c-0.535,0-1.041-0.092-1.519-0.277s-0.897-0.493-1.256-0.925
					c-0.36-0.432-0.646-1.01-0.856-1.734s-0.316-1.626-0.316-2.706C-233.844-540.48-233.739-541.362-233.528-542.076z
					 M-231.624-538.314c0.021,0.437,0.084,0.858,0.192,1.264c0.108,0.406,0.28,0.753,0.517,1.041s0.576,0.432,1.018,0.432
					c0.452,0,0.799-0.144,1.041-0.432c0.241-0.288,0.416-0.635,0.524-1.041c0.108-0.406,0.172-0.827,0.192-1.264
					s0.031-0.81,0.031-1.118c0-0.185-0.002-0.409-0.007-0.671c-0.005-0.262-0.026-0.532-0.062-0.809
					c-0.036-0.278-0.087-0.553-0.154-0.825c-0.067-0.272-0.167-0.516-0.301-0.732c-0.134-0.216-0.303-0.391-0.509-0.524
					c-0.206-0.133-0.458-0.2-0.755-0.2c-0.298,0-0.547,0.067-0.748,0.2c-0.201,0.134-0.365,0.309-0.494,0.524
					s-0.229,0.46-0.301,0.732c-0.072,0.272-0.123,0.547-0.154,0.825c-0.031,0.277-0.049,0.547-0.054,0.809s-0.008,0.486-0.008,0.671
					C-231.655-539.124-231.645-538.751-231.624-538.314z"/>
			</g>
			<g enable-background="new    ">
				<path fill="#FFFFFF" d="M-224.286-543.132c0.103-0.37,0.262-0.694,0.478-0.971c0.216-0.277,0.488-0.496,0.817-0.655
					c0.329-0.159,0.719-0.239,1.171-0.239c0.483,0,0.884,0.082,1.203,0.247s0.578,0.388,0.779,0.67
					c0.2,0.283,0.341,0.614,0.424,0.995c0.082,0.38,0.123,0.781,0.123,1.202c0,0.422-0.051,0.81-0.154,1.164
					c-0.103,0.354-0.26,0.661-0.47,0.917c-0.211,0.257-0.48,0.458-0.81,0.601c-0.329,0.144-0.719,0.216-1.171,0.216
					c-0.473,0-0.871-0.074-1.195-0.224c-0.324-0.148-0.586-0.354-0.787-0.617c-0.2-0.262-0.344-0.575-0.432-0.94
					s-0.131-0.758-0.131-1.18S-224.389-542.762-224.286-543.132z M-222.852-541.359c0.01,0.206,0.046,0.398,0.108,0.578
					s0.159,0.332,0.293,0.455c0.133,0.124,0.324,0.185,0.57,0.185c0.236,0,0.424-0.062,0.563-0.185
					c0.139-0.123,0.241-0.275,0.308-0.455s0.108-0.37,0.124-0.57c0.015-0.201,0.023-0.383,0.023-0.547
					c0-0.154-0.008-0.342-0.023-0.563c-0.016-0.221-0.054-0.434-0.116-0.64s-0.157-0.38-0.285-0.524
					c-0.129-0.144-0.306-0.216-0.532-0.216c-0.247,0-0.439,0.067-0.578,0.2c-0.139,0.134-0.244,0.298-0.316,0.493
					c-0.072,0.196-0.116,0.406-0.131,0.632c-0.016,0.226-0.023,0.427-0.023,0.601C-222.868-541.75-222.863-541.565-222.852-541.359z
					 M-213.988-545.121l-6.352,11.455h-1.341l6.382-11.455H-213.988z M-216.331-537.983c0.103-0.36,0.262-0.673,0.478-0.94
					c0.216-0.268,0.488-0.478,0.817-0.632c0.329-0.154,0.719-0.231,1.171-0.231c0.483,0,0.884,0.08,1.203,0.239
					c0.318,0.159,0.578,0.375,0.778,0.647c0.201,0.272,0.342,0.593,0.424,0.963c0.082,0.37,0.123,0.766,0.123,1.187
					c0,0.422-0.051,0.812-0.154,1.172c-0.103,0.36-0.26,0.673-0.47,0.94c-0.211,0.268-0.481,0.476-0.81,0.625
					c-0.329,0.149-0.72,0.223-1.172,0.223c-0.473,0-0.871-0.077-1.195-0.231c-0.324-0.154-0.585-0.367-0.786-0.64
					c-0.2-0.272-0.344-0.594-0.432-0.964s-0.131-0.766-0.131-1.187S-216.434-537.623-216.331-537.983z M-214.897-536.226
					c0.01,0.216,0.046,0.419,0.108,0.609c0.062,0.19,0.159,0.352,0.293,0.486c0.133,0.133,0.324,0.2,0.57,0.2
					c0.236,0,0.424-0.067,0.562-0.2c0.139-0.134,0.242-0.295,0.309-0.486c0.067-0.19,0.108-0.391,0.123-0.601
					c0.016-0.211,0.023-0.398,0.023-0.563c0-0.154-0.008-0.336-0.023-0.547c-0.015-0.21-0.054-0.411-0.115-0.601
					c-0.062-0.19-0.157-0.354-0.285-0.493c-0.129-0.139-0.306-0.208-0.532-0.208c-0.247,0-0.439,0.062-0.578,0.185
					c-0.139,0.124-0.244,0.278-0.316,0.463c-0.072,0.185-0.116,0.385-0.131,0.601c-0.016,0.216-0.023,0.411-0.023,0.586
					C-214.913-536.631-214.908-536.441-214.897-536.226z"/>
			</g>
		</g>
	</g>
	<g id="g3689">
		<g id="g3691" transform="translate(436.8937,481.8748)">
			<g enable-background="new    ">
				<path fill="#FFFFFF" d="M-238.253-267.769h6.233l5.915,9.987l5.879-9.987h6.198l-9.386,15.583v9.704h-5.561v-9.846
					L-238.253-267.769z"/>
			</g>
			<g enable-background="new    ">
				<path fill="#FFFFFF" d="M-216.26-255.604c0.448-1.191,1.086-2.207,1.913-3.045c0.826-0.838,1.817-1.488,2.975-1.948
					c1.157-0.461,2.456-0.69,3.896-0.69c1.439,0,2.744,0.229,3.913,0.69c1.169,0.46,2.166,1.11,2.993,1.948
					c0.826,0.838,1.463,1.854,1.912,3.045c0.448,1.193,0.673,2.521,0.673,3.984c0,1.465-0.225,2.787-0.673,3.967
					c-0.449,1.182-1.086,2.19-1.912,3.028c-0.827,0.839-1.824,1.482-2.993,1.931s-2.474,0.673-3.913,0.673
					c-1.44,0-2.739-0.225-3.896-0.673s-2.148-1.092-2.975-1.931c-0.827-0.838-1.465-1.847-1.913-3.028
					c-0.448-1.18-0.673-2.502-0.673-3.967C-216.933-253.083-216.708-254.411-216.26-255.604z M-211.691-249.476
					c0.142,0.696,0.384,1.322,0.726,1.877c0.343,0.555,0.797,0.997,1.364,1.328c0.566,0.331,1.274,0.495,2.125,0.495
					c0.85,0,1.563-0.164,2.143-0.495c0.578-0.331,1.038-0.773,1.381-1.328c0.342-0.555,0.585-1.181,0.727-1.877
					s0.212-1.411,0.212-2.144c0-0.731-0.07-1.451-0.212-2.16c-0.142-0.708-0.385-1.333-0.727-1.877
					c-0.343-0.543-0.803-0.985-1.381-1.328c-0.579-0.342-1.293-0.514-2.143-0.514c-0.851,0-1.559,0.172-2.125,0.514
					c-0.567,0.343-1.021,0.785-1.364,1.328c-0.342,0.544-0.584,1.169-0.726,1.877c-0.142,0.709-0.213,1.429-0.213,2.16
					C-211.904-250.887-211.832-250.173-211.691-249.476z"/>
			</g>
			<g enable-background="new    ">
				<path fill="#FFFFFF" d="M-182.33-242.482v-2.55h-0.106c-0.638,1.062-1.464,1.83-2.479,2.302
					c-1.016,0.473-2.054,0.709-3.116,0.709c-1.346,0-2.45-0.178-3.312-0.531c-0.862-0.354-1.541-0.855-2.036-1.506
					c-0.496-0.648-0.845-1.439-1.046-2.372c-0.2-0.933-0.301-1.966-0.301-3.1v-11.263h5.029v10.342c0,1.512,0.236,2.639,0.709,3.383
					c0.472,0.743,1.31,1.115,2.515,1.115c1.368,0,2.36-0.407,2.975-1.222c0.613-0.814,0.921-2.154,0.921-4.02v-9.599h5.029v18.311
					H-182.33z"/>
			</g>
			<g enable-background="new    ">
			</g>
		</g>
		<g id="g3697" transform="translate(431.9071,446.8748)">
			<g enable-background="new    ">
				<path fill="#FFFFFF" d="M-237.392-184.964c0.496-0.851,1.139-1.559,1.93-2.125c0.791-0.567,1.683-0.992,2.674-1.275
					c0.992-0.283,1.995-0.425,3.011-0.425c1.535,0,2.833,0.236,3.896,0.708c1.062,0.473,1.919,1.045,2.568,1.718
					s1.115,1.394,1.398,2.16c0.283,0.768,0.426,1.459,0.426,2.072c0,1.228-0.302,2.302-0.903,3.223
					c-0.603,0.921-1.506,1.582-2.71,1.983v0.071c1.488,0.331,2.633,1.033,3.436,2.107s1.204,2.391,1.204,3.948
					c0,1.323-0.266,2.468-0.797,3.436c-0.531,0.969-1.233,1.771-2.107,2.408c-0.873,0.638-1.865,1.116-2.975,1.435
					c-1.11,0.319-2.243,0.479-3.4,0.479c-1.204,0-2.367-0.148-3.488-0.443s-2.125-0.761-3.011-1.398
					c-0.885-0.638-1.594-1.44-2.125-2.408s-0.797-2.125-0.797-3.471c0-1.582,0.408-2.904,1.223-3.967s1.965-1.771,3.453-2.125
					v-0.071c-1.204-0.33-2.113-0.956-2.728-1.877s-0.921-1.995-0.921-3.223C-238.137-183.134-237.889-184.114-237.392-184.964z
					 M-233.78-169.274c0.235,0.52,0.549,0.962,0.938,1.328s0.855,0.649,1.399,0.85c0.543,0.201,1.109,0.301,1.699,0.301
					c0.614,0,1.175-0.1,1.683-0.301c0.508-0.2,0.956-0.483,1.346-0.85s0.69-0.809,0.903-1.328s0.318-1.086,0.318-1.7
					c0-0.59-0.112-1.127-0.336-1.611c-0.225-0.483-0.531-0.903-0.921-1.258c-0.39-0.354-0.839-0.625-1.346-0.814
					c-0.508-0.188-1.058-0.283-1.647-0.283c-1.228,0-2.267,0.337-3.116,1.01s-1.275,1.646-1.275,2.922
					C-234.135-170.372-234.017-169.794-233.78-169.274z M-232.434-179.137c0.756,0.555,1.641,0.832,2.656,0.832
					c1.062,0,1.948-0.277,2.656-0.832s1.062-1.364,1.062-2.427c0-0.33-0.048-0.69-0.142-1.08c-0.095-0.39-0.277-0.762-0.549-1.115
					c-0.271-0.354-0.649-0.649-1.134-0.886c-0.483-0.235-1.115-0.354-1.895-0.354c-0.496,0-0.974,0.077-1.435,0.23
					c-0.46,0.154-0.867,0.372-1.222,0.655s-0.632,0.638-0.832,1.062c-0.201,0.425-0.301,0.921-0.301,1.487
					C-233.567-180.502-233.19-179.692-232.434-179.137z"/>
			</g>
			<g enable-background="new    ">
				<path fill="#FFFFFF" d="M-218.498-182.078c0.483-1.641,1.14-2.957,1.966-3.948c0.826-0.992,1.789-1.7,2.887-2.125
					c1.098-0.426,2.26-0.638,3.488-0.638c1.251,0,2.426,0.212,3.523,0.638c1.098,0.425,2.066,1.133,2.904,2.125
					c0.838,0.991,1.5,2.308,1.983,3.948c0.483,1.642,0.726,3.666,0.726,6.074c0,2.479-0.242,4.551-0.726,6.216
					c-0.483,1.664-1.146,2.992-1.983,3.984c-0.838,0.991-1.807,1.7-2.904,2.125s-2.272,0.638-3.523,0.638
					c-1.229,0-2.391-0.213-3.488-0.638s-2.061-1.134-2.887-2.125c-0.826-0.992-1.482-2.32-1.966-3.984
					c-0.484-1.665-0.726-3.736-0.726-6.216C-219.224-178.412-218.982-180.436-218.498-182.078z M-214.124-173.436
					c0.047,1.004,0.195,1.972,0.443,2.904c0.247,0.934,0.643,1.73,1.186,2.391c0.543,0.661,1.322,0.992,2.338,0.992
					c1.039,0,1.836-0.331,2.391-0.992c0.555-0.66,0.956-1.457,1.204-2.391c0.248-0.933,0.396-1.9,0.442-2.904
					c0.047-1.003,0.071-1.859,0.071-2.567c0-0.425-0.007-0.938-0.019-1.54c-0.012-0.603-0.059-1.223-0.141-1.859
					c-0.084-0.638-0.201-1.27-0.354-1.896c-0.153-0.625-0.384-1.187-0.69-1.682c-0.308-0.496-0.697-0.897-1.169-1.204
					c-0.473-0.307-1.051-0.461-1.735-0.461c-0.686,0-1.258,0.154-1.718,0.461s-0.839,0.708-1.134,1.204
					c-0.295,0.495-0.525,1.057-0.69,1.682c-0.165,0.626-0.283,1.258-0.354,1.896c-0.07,0.637-0.111,1.257-0.123,1.859
					c-0.013,0.602-0.018,1.115-0.018,1.54C-214.194-175.296-214.171-174.439-214.124-173.436z"/>
			</g>
			<g enable-background="new    ">
				<path fill="#FFFFFF" d="M-197.266-184.504c0.235-0.85,0.603-1.594,1.099-2.231c0.495-0.637,1.121-1.139,1.877-1.505
					c0.755-0.366,1.652-0.549,2.691-0.549c1.109,0,2.03,0.189,2.763,0.566c0.73,0.378,1.328,0.892,1.789,1.541
					c0.459,0.649,0.783,1.411,0.973,2.284c0.189,0.874,0.283,1.795,0.283,2.763s-0.117,1.859-0.354,2.674s-0.596,1.518-1.08,2.107
					s-1.104,1.051-1.859,1.381c-0.757,0.331-1.653,0.496-2.692,0.496c-1.086,0-2-0.171-2.744-0.514
					c-0.744-0.342-1.346-0.814-1.807-1.417c-0.46-0.602-0.791-1.321-0.991-2.16c-0.201-0.838-0.302-1.741-0.302-2.709
					S-197.502-183.653-197.266-184.504z M-193.972-180.43c0.023,0.473,0.106,0.915,0.248,1.328s0.365,0.762,0.673,1.045
					c0.307,0.283,0.743,0.425,1.311,0.425c0.542,0,0.974-0.142,1.292-0.425c0.319-0.283,0.555-0.632,0.709-1.045
					c0.153-0.413,0.247-0.851,0.283-1.311c0.035-0.461,0.054-0.88,0.054-1.258c0-0.354-0.019-0.784-0.054-1.292
					c-0.036-0.508-0.124-0.997-0.266-1.47s-0.36-0.874-0.655-1.204c-0.296-0.331-0.702-0.496-1.222-0.496
					c-0.566,0-1.01,0.153-1.328,0.46c-0.318,0.308-0.562,0.686-0.727,1.134s-0.266,0.933-0.301,1.452s-0.053,0.979-0.053,1.381
					C-194.007-181.328-193.995-180.903-193.972-180.43z M-173.607-189.072l-14.592,26.314h-3.081l14.663-26.314H-173.607z
					 M-178.99-172.675c0.236-0.826,0.602-1.546,1.098-2.16s1.121-1.098,1.877-1.452s1.652-0.531,2.691-0.531
					c1.109,0,2.031,0.184,2.764,0.549c0.73,0.366,1.328,0.862,1.787,1.487c0.461,0.626,0.785,1.364,0.975,2.214
					s0.283,1.759,0.283,2.728c0,0.968-0.119,1.865-0.354,2.691c-0.236,0.826-0.598,1.547-1.08,2.16
					c-0.484,0.614-1.105,1.093-1.859,1.435c-0.756,0.342-1.654,0.514-2.691,0.514c-1.088,0-2.002-0.178-2.746-0.531
					c-0.744-0.354-1.346-0.844-1.807-1.47c-0.459-0.626-0.791-1.364-0.99-2.214c-0.201-0.85-0.301-1.759-0.301-2.728
					C-179.344-170.951-179.226-171.847-178.99-172.675z M-175.697-168.637c0.023,0.495,0.107,0.962,0.248,1.398
					c0.143,0.438,0.367,0.81,0.674,1.116s0.744,0.46,1.311,0.46c0.543,0,0.973-0.153,1.293-0.46
					c0.318-0.307,0.553-0.679,0.707-1.116c0.154-0.437,0.248-0.896,0.283-1.381s0.053-0.915,0.053-1.293
					c0-0.354-0.018-0.773-0.053-1.257c-0.035-0.484-0.123-0.944-0.266-1.382c-0.141-0.437-0.359-0.814-0.654-1.133
					c-0.295-0.319-0.703-0.479-1.223-0.479c-0.566,0-1.01,0.142-1.328,0.425s-0.561,0.638-0.727,1.062
					c-0.164,0.425-0.266,0.886-0.301,1.382c-0.035,0.495-0.053,0.944-0.053,1.346C-175.732-169.569-175.721-169.133-175.697-168.637
					z"/>
			</g>
		</g>
	</g>
</g>
</svg>
