<?xml version="1.0" encoding="UTF-8" standalone="no"?>
<svg
   xmlns:dc="http://purl.org/dc/elements/1.1/"
   xmlns:cc="http://creativecommons.org/ns#"
   xmlns:rdf="http://www.w3.org/1999/02/22-rdf-syntax-ns#"
   xmlns:svg="http://www.w3.org/2000/svg"
   xmlns="http://www.w3.org/2000/svg"
   viewBox="0 0 483.52924 482.5"
   height="482.5"
   width="483.52924"
   xml:space="preserve"
   version="1.1"
   id="svg3355"><metadata
     id="metadata3361"><rdf:RDF><cc:Work
         rdf:about=""><dc:format>image/svg+xml</dc:format><dc:type
           rdf:resource="http://purl.org/dc/dcmitype/StillImage" /><dc:title></dc:title></cc:Work></rdf:RDF></metadata><defs
     id="defs3359"><clipPath
       id="clipPath3537"
       clipPathUnits="userSpaceOnUse"><path
         id="path3539"
         d="m 227.1766,338.564 386.9078,0 0,386.9078 -386.9078,0 0,-386.9078 z" /></clipPath><clipPath
       id="clipPath3547"
       clipPathUnits="userSpaceOnUse"><path
         id="path3549"
         d="m 227.1766,338.564 386.9078,0 0,386.9078 -386.9078,0 0,-386.9078 z" /></clipPath><clipPath
       id="clipPath3553"
       clipPathUnits="userSpaceOnUse"><path
         id="path3555"
         d="m 234,345 374,0 0,375 -374,0 0,-375 z" /></clipPath><clipPath
       id="clipPath3557"
       clipPathUnits="userSpaceOnUse"><path
         id="path3559"
         d="m 227,338 388,0 0,388 -388,0 0,-388 z" /></clipPath><clipPath
       id="clipPath3561"
       clipPathUnits="userSpaceOnUse"><path
         id="path3563"
         d="m 247,554 158,0 0,166 -158,0 0,-166 z" /></clipPath><clipPath
       id="clipPath3565"
       clipPathUnits="userSpaceOnUse"><path
         id="path3567"
         d="m 227,338 388,0 0,388 -388,0 0,-388 z" /></clipPath><clipPath
       id="clipPath3569"
       clipPathUnits="userSpaceOnUse"><path
         id="path3571"
         d="m 227,338 388,0 0,388 -388,0 0,-388 z" /></clipPath><clipPath
       id="clipPath3573"
       clipPathUnits="userSpaceOnUse"><path
         id="path3575"
         d="m 234,345 374,0 0,353 -374,0 0,-353 z" /></clipPath><clipPath
       id="clipPath3577"
       clipPathUnits="userSpaceOnUse"><path
         id="path3579"
         d="m 227,338 388,0 0,388 -388,0 0,-388 z" /></clipPath><clipPath
       id="clipPath3627"
       clipPathUnits="userSpaceOnUse"><path
         id="path3629"
         d="m 227.1766,338.564 386.9078,0 0,386.9078 -386.9078,0 0,-386.9078 z" /></clipPath><clipPath
       id="clipPath3633"
       clipPathUnits="userSpaceOnUse"><path
         id="path3635"
         d="m 305,628 69,0 0,31 -69,0 0,-31 z" /></clipPath><clipPath
       id="clipPath3637"
       clipPathUnits="userSpaceOnUse"><path
         id="path3639"
         d="m 305,628 69,0 0,31 -69,0 0,-31 z" /></clipPath><clipPath
       id="clipPath3667"
       clipPathUnits="userSpaceOnUse"><path
         id="path3669"
         d="m 227.1766,338.564 386.9078,0 0,386.9078 -386.9078,0 0,-386.9078 z" /></clipPath><clipPath
       id="clipPath3673"
       clipPathUnits="userSpaceOnUse"><path
         id="path3675"
         d="m 431,440 62,0 0,70 -62,0 0,-70 z" /></clipPath><clipPath
       id="clipPath3677"
       clipPathUnits="userSpaceOnUse"><path
         id="path3679"
         d="m 431,440 62,0 0,70 -62,0 0,-70 z" /></clipPath></defs><g
     transform="matrix(1.25,0,0,-1.25,-283.97075,906.25)"
     id="g3363"><g
       id="g3365" /><g
       id="g3533"><g
         clip-path="url(#clipPath3537)"
         id="g3535"><path
           id="path3541"
           style="fill:#000000;fill-opacity:0;fill-rule:nonzero;stroke:none"
           d="m 227,725 387,0 0,-386 -387,0 0,386 z" /></g></g><g
       id="g3543"><g
         clip-path="url(#clipPath3547)"
         id="g3545"><g
           id="g3551" /><g
           id="g3581"><g
             id="g3583"
             clip-path="url(#clipPath3553)"><g
               id="g3585" /><g
               id="g3587"><g
                 id="g3589"
                 clip-path="url(#clipPath3557)"><g
                   id="g3591" /><g
                   id="g3593"><g
                     id="g3595"
                     clip-path="url(#clipPath3561)"><g
                       id="g3597" /><g
                       id="g3599"><g
                         id="g3601"
                         clip-path="url(#clipPath3565)"><path
                           id="path3603"
                           style="fill:#89847f;fill-opacity:1;fill-rule:nonzero;stroke:none"
                           d="m 405,554 0,166 C 333.0844,720 269.3477,673.6926 247.1246,605.2968 L 405,554 Z" /></g></g></g></g></g></g><g
               id="g3605"><g
                 id="g3607"
                 clip-path="url(#clipPath3569)"><g
                   id="g3609" /><g
                   id="g3611"><g
                     id="g3613"
                     clip-path="url(#clipPath3573)"><g
                       id="g3615" /><g
                       id="g3617"><g
                         id="g3619"
                         clip-path="url(#clipPath3577)"><path
                           id="path3621"
                           style="fill:#ff9e41;fill-opacity:1;fill-rule:nonzero;stroke:none"
                           d="M 421,532 263.1246,583.2968 C 234.7942,496.1046 282.511,402.4551 369.7032,374.1246 456.8954,345.7942 550.5449,393.511 578.8754,480.7032 607.2058,567.8954 559.489,661.5449 472.2968,689.8754 455.7301,695.2582 438.4193,698 421,698 l 0,-166 z" /></g></g></g></g></g></g></g></g></g></g><g
       id="g3623"><g
         clip-path="url(#clipPath3627)"
         id="g3625"><g
           id="g3631" /><g
           id="g3641"><g
             id="g3643"
             clip-path="url(#clipPath3633)"><g
               id="g3645" /><g
               id="g3647"><g
                 id="g3649"
                 clip-path="url(#clipPath3637)"><g
                   id="g3651"
                   transform="translate(307.7119,646.4533)"><text
                     id="text3653"
                     style="font-variant:normal;font-weight:bold;font-size:12.33333015px;font-family:'Helvetica Neue';-inkscape-font-specification:HelveticaNeue-Bold;writing-mode:lr-tb;fill:#ffffff;fill-opacity:1;fill-rule:nonzero;stroke:none"
                     transform="scale(1,-1)"><tspan
                       id="tspan3655"
                       y="0"
                       x="0 8.904664 12.086663 19.400328 26.935993 34.249657 41.328987 45.670322 48.852322 56.387985 63.701649">Kinonation </tspan></text>
</g><g
                   id="g3657"
                   transform="translate(326.5387,631.4533)"><text
                     id="text3659"
                     style="font-variant:normal;font-weight:bold;font-size:12.33333015px;font-family:'Helvetica Neue';-inkscape-font-specification:HelveticaNeue-Bold;writing-mode:lr-tb;fill:#ffffff;fill-opacity:1;fill-rule:nonzero;stroke:none"
                     transform="scale(1,-1)"><tspan
                       id="tspan3661"
                       y="0"
                       x="0 6.8573313 13.714663">20%</tspan></text>
</g></g></g></g></g></g></g><g
       id="g3663"><g
         clip-path="url(#clipPath3667)"
         id="g3665"><g
           id="g3671" /><g
           id="g3681"><g
             id="g3683"
             clip-path="url(#clipPath3673)"><g
               id="g3685" /><g
               id="g3687"><g
                 id="g3689"
                 clip-path="url(#clipPath3677)"><g
                   id="g3691"
                   transform="translate(436.8937,481.8748)"><text
                     id="text3693"
                     style="font-variant:normal;font-weight:bold;font-size:28.33333969px;font-family:'Helvetica Neue';-inkscape-font-specification:HelveticaNeue-Bold;writing-mode:lr-tb;fill:#ffffff;fill-opacity:1;fill-rule:nonzero;stroke:none"
                     transform="scale(1,-1)"><tspan
                       id="tspan3695"
                       y="0"
                       x="0 15.753337 33.065006 49.86668">You </tspan></text>
</g><g
                   id="g3697"
                   transform="translate(431.9071,446.8748)"><text
                     id="text3699"
                     style="font-variant:normal;font-weight:bold;font-size:28.33333969px;font-family:'Helvetica Neue';-inkscape-font-specification:HelveticaNeue-Bold;writing-mode:lr-tb;fill:#ffffff;fill-opacity:1;fill-rule:nonzero;stroke:none"
                     transform="scale(1,-1)"><tspan
                       id="tspan3701"
                       y="0"
                       x="0 15.753337 31.506674">80%</tspan></text>
</g></g></g></g></g></g></g></g></svg>