<?xml version="1.0" encoding="utf-8"?>
<!-- Generator: Adobe Illustrator 17.0.0, SVG Export Plug-In . SVG Version: 6.00 Build 0)  -->
<!DOCTYPE svg PUBLIC "-//W3C//DTD SVG 1.1//EN" "http://www.w3.org/Graphics/SVG/1.1/DTD/svg11.dtd">
<svg version="1.1" id="Layer_1" xmlns="http://www.w3.org/2000/svg" xmlns:xlink="http://www.w3.org/1999/xlink" x="0px" y="0px"
	 width="340px" height="354px" viewBox="0 0 340 354" enable-background="new 0 0 340 354" xml:space="preserve">
<g id="Layer_1_1_">
</g>
<g id="svg3355">
	<g id="g3601">
		<path id="path3603" fill="#525254" d="M157.815,165.81V-0.318c-71.971,0-135.757,46.343-157.997,114.792L157.815,165.81z"/>
	</g>
	<g id="g3619">
		<path id="path3621" fill="#FF6F00" d="M173.827,187.827L15.83,136.491c-28.352,87.259,19.401,180.981,106.661,209.333
			c87.259,28.352,180.981-19.401,209.333-106.661c28.352-87.259-19.401-180.981-106.661-209.333
			c-16.579-5.387-33.904-8.131-51.336-8.131V187.827z"/>
	</g>
	<g id="g3649">
		<g id="g3657" transform="translate(326.5387,631.4533)">
			<g enable-background="new    ">
				<path fill="#FFFFFF" d="M-241.954-542.354c0.165-0.529,0.411-0.992,0.74-1.387c0.329-0.396,0.742-0.704,1.241-0.925
					s1.072-0.331,1.719-0.331c0.493,0,0.963,0.077,1.411,0.231c0.447,0.154,0.84,0.375,1.179,0.663s0.609,0.643,0.81,1.063
					c0.2,0.422,0.3,0.895,0.3,1.418c0,0.545-0.087,1.013-0.262,1.403c-0.175,0.391-0.406,0.738-0.694,1.041
					c-0.288,0.303-0.614,0.578-0.979,0.825s-0.732,0.491-1.103,0.732c-0.37,0.242-0.729,0.501-1.079,0.779
					c-0.349,0.277-0.658,0.601-0.925,0.971h5.103v1.881h-7.924c0-0.627,0.09-1.172,0.27-1.634c0.18-0.462,0.424-0.876,0.732-1.241
					c0.309-0.365,0.671-0.702,1.087-1.01c0.417-0.309,0.856-0.622,1.318-0.94c0.236-0.165,0.488-0.332,0.755-0.501
					s0.511-0.357,0.732-0.562c0.221-0.206,0.406-0.437,0.555-0.694c0.149-0.257,0.224-0.55,0.224-0.878
					c0-0.524-0.152-0.933-0.455-1.226c-0.303-0.292-0.691-0.439-1.164-0.439c-0.319,0-0.588,0.075-0.81,0.223
					c-0.221,0.149-0.398,0.345-0.532,0.586c-0.134,0.242-0.229,0.509-0.285,0.802c-0.057,0.293-0.085,0.583-0.085,0.871h-2.097
					C-242.19-541.251-242.118-541.824-241.954-542.354z"/>
			</g>
			<g enable-background="new    ">
				<path fill="#FFFFFF" d="M-233.528-542.076c0.21-0.714,0.496-1.288,0.856-1.719c0.359-0.432,0.778-0.74,1.256-0.925
					s0.984-0.277,1.519-0.277c0.544,0,1.056,0.092,1.534,0.277s0.899,0.493,1.264,0.925s0.653,1.005,0.863,1.719
					c0.211,0.714,0.316,1.596,0.316,2.644c0,1.079-0.105,1.981-0.316,2.706c-0.21,0.725-0.499,1.303-0.863,1.734
					s-0.786,0.74-1.264,0.925c-0.478,0.185-0.989,0.277-1.534,0.277c-0.535,0-1.041-0.092-1.519-0.277s-0.897-0.493-1.256-0.925
					c-0.36-0.432-0.646-1.01-0.856-1.734s-0.316-1.626-0.316-2.706C-233.844-540.48-233.739-541.362-233.528-542.076z
					 M-231.624-538.314c0.021,0.437,0.084,0.858,0.192,1.264s0.28,0.753,0.517,1.041s0.576,0.432,1.018,0.432
					c0.452,0,0.799-0.144,1.041-0.432c0.241-0.288,0.416-0.635,0.524-1.041s0.172-0.827,0.192-1.264s0.031-0.81,0.031-1.118
					c0-0.185-0.002-0.409-0.007-0.671s-0.026-0.532-0.062-0.809c-0.036-0.278-0.087-0.553-0.154-0.825
					c-0.067-0.272-0.167-0.516-0.301-0.732c-0.134-0.216-0.303-0.391-0.509-0.524c-0.206-0.133-0.458-0.2-0.755-0.2
					c-0.298,0-0.547,0.067-0.748,0.2c-0.201,0.134-0.365,0.309-0.494,0.524s-0.229,0.46-0.301,0.732
					c-0.072,0.272-0.123,0.547-0.154,0.825c-0.031,0.277-0.049,0.547-0.054,0.809s-0.008,0.486-0.008,0.671
					C-231.655-539.124-231.645-538.751-231.624-538.314z"/>
			</g>
			<g enable-background="new    ">
				<path fill="#FFFFFF" d="M-224.286-543.132c0.103-0.37,0.262-0.694,0.478-0.971c0.216-0.277,0.488-0.496,0.817-0.655
					c0.329-0.159,0.719-0.239,1.171-0.239c0.483,0,0.884,0.082,1.203,0.247s0.578,0.388,0.779,0.67
					c0.2,0.283,0.341,0.614,0.424,0.995c0.082,0.38,0.123,0.781,0.123,1.202c0,0.422-0.051,0.81-0.154,1.164
					c-0.103,0.354-0.26,0.661-0.47,0.917c-0.211,0.257-0.48,0.458-0.81,0.601c-0.329,0.144-0.719,0.216-1.171,0.216
					c-0.473,0-0.871-0.074-1.195-0.224c-0.324-0.148-0.586-0.354-0.787-0.617c-0.2-0.262-0.344-0.575-0.432-0.94
					s-0.131-0.758-0.131-1.18S-224.389-542.762-224.286-543.132z M-222.852-541.359c0.01,0.206,0.046,0.398,0.108,0.578
					s0.159,0.332,0.293,0.455c0.133,0.124,0.324,0.185,0.57,0.185c0.236,0,0.424-0.062,0.563-0.185s0.241-0.275,0.308-0.455
					s0.108-0.37,0.124-0.57c0.015-0.201,0.023-0.383,0.023-0.547c0-0.154-0.008-0.342-0.023-0.563
					c-0.016-0.221-0.054-0.434-0.116-0.64s-0.157-0.38-0.285-0.524c-0.129-0.144-0.306-0.216-0.532-0.216
					c-0.247,0-0.439,0.067-0.578,0.2c-0.139,0.134-0.244,0.298-0.316,0.493c-0.072,0.196-0.116,0.406-0.131,0.632
					c-0.016,0.226-0.023,0.427-0.023,0.601C-222.868-541.75-222.863-541.565-222.852-541.359z M-213.988-545.121l-6.352,11.455
					h-1.341l6.382-11.455H-213.988z M-216.331-537.983c0.103-0.36,0.262-0.673,0.478-0.94c0.216-0.268,0.488-0.478,0.817-0.632
					s0.719-0.231,1.171-0.231c0.483,0,0.884,0.08,1.203,0.239c0.318,0.159,0.578,0.375,0.778,0.647
					c0.201,0.272,0.342,0.593,0.424,0.963s0.123,0.766,0.123,1.187c0,0.422-0.051,0.812-0.154,1.172
					c-0.103,0.36-0.26,0.673-0.47,0.94c-0.211,0.268-0.481,0.476-0.81,0.625s-0.72,0.223-1.172,0.223
					c-0.473,0-0.871-0.077-1.195-0.231s-0.585-0.367-0.786-0.64c-0.2-0.272-0.344-0.594-0.432-0.964s-0.131-0.766-0.131-1.187
					S-216.434-537.623-216.331-537.983z M-214.897-536.226c0.01,0.216,0.046,0.419,0.108,0.609s0.159,0.352,0.293,0.486
					c0.133,0.133,0.324,0.2,0.57,0.2c0.236,0,0.424-0.067,0.562-0.2c0.139-0.134,0.242-0.295,0.309-0.486
					c0.067-0.19,0.108-0.391,0.123-0.601c0.016-0.211,0.023-0.398,0.023-0.563c0-0.154-0.008-0.336-0.023-0.547
					c-0.015-0.21-0.054-0.411-0.115-0.601c-0.062-0.19-0.157-0.354-0.285-0.493c-0.129-0.139-0.306-0.208-0.532-0.208
					c-0.247,0-0.439,0.062-0.578,0.185c-0.139,0.124-0.244,0.278-0.316,0.463c-0.072,0.185-0.116,0.385-0.131,0.601
					c-0.016,0.216-0.023,0.411-0.023,0.586C-214.913-536.631-214.908-536.441-214.897-536.226z"/>
			</g>
		</g>
	</g>
	<g id="g3689">
		<g id="g3691" transform="translate(436.8937,481.8748)">
			<g enable-background="new    ">
				<path fill="#FFFFFF" d="M-242.652-268.23h6.233l5.915,9.987l5.879-9.987h6.198l-9.386,15.583v9.704h-5.561v-9.846
					L-242.652-268.23z"/>
			</g>
			<g enable-background="new    ">
				<path fill="#FFFFFF" d="M-220.659-256.065c0.448-1.191,1.086-2.207,1.913-3.045c0.826-0.838,1.817-1.488,2.975-1.948
					c1.157-0.461,2.456-0.69,3.896-0.69c1.439,0,2.744,0.229,3.913,0.69c1.169,0.46,2.166,1.11,2.993,1.948
					c0.826,0.838,1.463,1.854,1.912,3.045c0.448,1.193,0.673,2.521,0.673,3.984c0,1.465-0.225,2.787-0.673,3.967
					c-0.449,1.182-1.086,2.19-1.912,3.028c-0.827,0.839-1.824,1.482-2.993,1.931s-2.474,0.673-3.913,0.673
					c-1.44,0-2.739-0.225-3.896-0.673s-2.148-1.092-2.975-1.931c-0.827-0.838-1.465-1.847-1.913-3.028
					c-0.448-1.18-0.673-2.502-0.673-3.967C-221.332-253.544-221.107-254.872-220.659-256.065z M-216.09-249.937
					c0.142,0.696,0.384,1.322,0.726,1.877c0.343,0.555,0.797,0.997,1.364,1.328c0.566,0.331,1.274,0.495,2.125,0.495
					c0.85,0,1.563-0.164,2.143-0.495c0.578-0.331,1.038-0.773,1.381-1.328c0.342-0.555,0.585-1.181,0.727-1.877
					s0.212-1.411,0.212-2.144c0-0.731-0.07-1.451-0.212-2.16c-0.142-0.708-0.385-1.333-0.727-1.877
					c-0.343-0.543-0.803-0.985-1.381-1.328c-0.579-0.342-1.293-0.514-2.143-0.514c-0.851,0-1.559,0.172-2.125,0.514
					c-0.567,0.343-1.021,0.785-1.364,1.328c-0.342,0.544-0.584,1.169-0.726,1.877c-0.142,0.709-0.213,1.429-0.213,2.16
					C-216.303-251.348-216.231-250.634-216.09-249.937z"/>
			</g>
			<g enable-background="new    ">
				<path fill="#FFFFFF" d="M-186.729-242.943v-2.55h-0.106c-0.638,1.062-1.464,1.83-2.479,2.302
					c-1.016,0.473-2.054,0.709-3.116,0.709c-1.346,0-2.45-0.178-3.312-0.531c-0.862-0.354-1.541-0.855-2.036-1.506
					c-0.496-0.648-0.845-1.439-1.046-2.372c-0.2-0.933-0.301-1.966-0.301-3.1v-11.263h5.029v10.342c0,1.512,0.236,2.639,0.709,3.383
					c0.472,0.743,1.31,1.115,2.515,1.115c1.368,0,2.36-0.407,2.975-1.222c0.613-0.814,0.921-2.154,0.921-4.02v-9.599h5.029v18.311
					h-4.782V-242.943z"/>
			</g>
		</g>
		<g id="g3697" transform="translate(431.9071,446.8748)">
			<g enable-background="new    ">
				<path fill="#FFFFFF" d="M-237.392-187.658c0.496-0.851,1.139-1.559,1.93-2.125c0.791-0.567,1.683-0.992,2.674-1.275
					c0.992-0.283,1.995-0.425,3.011-0.425c1.535,0,2.833,0.236,3.896,0.708c1.062,0.473,1.919,1.045,2.568,1.718
					s1.115,1.394,1.398,2.16c0.283,0.768,0.426,1.459,0.426,2.072c0,1.228-0.302,2.302-0.903,3.223
					c-0.603,0.921-1.506,1.582-2.71,1.983v0.071c1.488,0.331,2.633,1.033,3.436,2.107s1.204,2.391,1.204,3.948
					c0,1.323-0.266,2.468-0.797,3.436c-0.531,0.969-1.233,1.771-2.107,2.408c-0.873,0.638-1.865,1.116-2.975,1.435
					s-2.243,0.479-3.4,0.479c-1.204,0-2.367-0.148-3.488-0.443s-2.125-0.761-3.011-1.398c-0.885-0.638-1.594-1.44-2.125-2.408
					s-0.797-2.125-0.797-3.471c0-1.582,0.408-2.904,1.223-3.967s1.965-1.771,3.453-2.125v-0.071
					c-1.204-0.33-2.113-0.956-2.728-1.877s-0.921-1.995-0.921-3.223C-238.137-185.828-237.889-186.808-237.392-187.658z
					 M-233.78-171.968c0.235,0.52,0.549,0.962,0.938,1.328s0.855,0.649,1.399,0.85c0.543,0.201,1.109,0.301,1.699,0.301
					c0.614,0,1.175-0.1,1.683-0.301c0.508-0.2,0.956-0.483,1.346-0.85s0.69-0.809,0.903-1.328s0.318-1.086,0.318-1.7
					c0-0.59-0.112-1.127-0.336-1.611c-0.225-0.483-0.531-0.903-0.921-1.258c-0.39-0.354-0.839-0.625-1.346-0.814
					c-0.508-0.188-1.058-0.283-1.647-0.283c-1.228,0-2.267,0.337-3.116,1.01s-1.275,1.646-1.275,2.922
					C-234.135-173.066-234.017-172.488-233.78-171.968z M-232.434-181.831c0.756,0.555,1.641,0.832,2.656,0.832
					c1.062,0,1.948-0.277,2.656-0.832s1.062-1.364,1.062-2.427c0-0.33-0.048-0.69-0.142-1.08c-0.095-0.39-0.277-0.762-0.549-1.115
					c-0.271-0.354-0.649-0.649-1.134-0.886c-0.483-0.235-1.115-0.354-1.895-0.354c-0.496,0-0.974,0.077-1.435,0.23
					c-0.46,0.154-0.867,0.372-1.222,0.655s-0.632,0.638-0.832,1.062c-0.201,0.425-0.301,0.921-0.301,1.487
					C-233.567-183.196-233.19-182.386-232.434-181.831z"/>
			</g>
			<g enable-background="new    ">
				<path fill="#FFFFFF" d="M-218.498-184.772c0.483-1.641,1.14-2.957,1.966-3.948c0.826-0.992,1.789-1.7,2.887-2.125
					c1.098-0.426,2.26-0.638,3.488-0.638c1.251,0,2.426,0.212,3.523,0.638c1.098,0.425,2.066,1.133,2.904,2.125
					c0.838,0.991,1.5,2.308,1.983,3.948c0.483,1.642,0.726,3.666,0.726,6.074c0,2.479-0.242,4.551-0.726,6.216
					c-0.483,1.664-1.146,2.992-1.983,3.984c-0.838,0.991-1.807,1.7-2.904,2.125s-2.272,0.638-3.523,0.638
					c-1.229,0-2.391-0.213-3.488-0.638s-2.061-1.134-2.887-2.125c-0.826-0.992-1.482-2.32-1.966-3.984
					c-0.484-1.665-0.726-3.736-0.726-6.216C-219.224-181.106-218.982-183.13-218.498-184.772z M-214.124-176.13
					c0.047,1.004,0.195,1.972,0.443,2.904c0.247,0.934,0.643,1.73,1.186,2.391c0.543,0.661,1.322,0.992,2.338,0.992
					c1.039,0,1.836-0.331,2.391-0.992c0.555-0.66,0.956-1.457,1.204-2.391c0.248-0.933,0.396-1.9,0.442-2.904
					c0.047-1.003,0.071-1.859,0.071-2.567c0-0.425-0.007-0.938-0.019-1.54c-0.012-0.603-0.059-1.223-0.141-1.859
					c-0.084-0.638-0.201-1.27-0.354-1.896c-0.153-0.625-0.384-1.187-0.69-1.682c-0.308-0.496-0.697-0.897-1.169-1.204
					c-0.473-0.307-1.051-0.461-1.735-0.461c-0.686,0-1.258,0.154-1.718,0.461s-0.839,0.708-1.134,1.204
					c-0.295,0.495-0.525,1.057-0.69,1.682c-0.165,0.626-0.283,1.258-0.354,1.896c-0.07,0.637-0.111,1.257-0.123,1.859
					c-0.013,0.602-0.018,1.115-0.018,1.54C-214.194-177.99-214.171-177.133-214.124-176.13z"/>
			</g>
			<g enable-background="new    ">
				<path fill="#FFFFFF" d="M-197.266-187.198c0.235-0.85,0.603-1.594,1.099-2.231c0.495-0.637,1.121-1.139,1.877-1.505
					c0.755-0.366,1.652-0.549,2.691-0.549c1.109,0,2.03,0.189,2.763,0.566c0.73,0.378,1.328,0.892,1.789,1.541
					c0.459,0.649,0.783,1.411,0.973,2.284c0.189,0.874,0.283,1.795,0.283,2.763s-0.117,1.859-0.354,2.674s-0.596,1.518-1.08,2.107
					s-1.104,1.051-1.859,1.381c-0.757,0.331-1.653,0.496-2.692,0.496c-1.086,0-2-0.171-2.744-0.514
					c-0.744-0.342-1.346-0.814-1.807-1.417c-0.46-0.602-0.791-1.321-0.991-2.16c-0.201-0.838-0.302-1.741-0.302-2.709
					S-197.502-186.347-197.266-187.198z M-193.972-183.124c0.023,0.473,0.106,0.915,0.248,1.328s0.365,0.762,0.673,1.045
					c0.307,0.283,0.743,0.425,1.311,0.425c0.542,0,0.974-0.142,1.292-0.425c0.319-0.283,0.555-0.632,0.709-1.045
					c0.153-0.413,0.247-0.851,0.283-1.311c0.035-0.461,0.054-0.88,0.054-1.258c0-0.354-0.019-0.784-0.054-1.292
					c-0.036-0.508-0.124-0.997-0.266-1.47s-0.36-0.874-0.655-1.204c-0.296-0.331-0.702-0.496-1.222-0.496
					c-0.566,0-1.01,0.153-1.328,0.46c-0.318,0.308-0.562,0.686-0.727,1.134s-0.266,0.933-0.301,1.452s-0.053,0.979-0.053,1.381
					C-194.007-184.022-193.995-183.597-193.972-183.124z M-173.607-191.766l-14.592,26.314h-3.081l14.663-26.314H-173.607z
					 M-178.99-175.369c0.236-0.826,0.602-1.546,1.098-2.16s1.121-1.098,1.877-1.452s1.652-0.531,2.691-0.531
					c1.109,0,2.031,0.184,2.764,0.549c0.73,0.366,1.328,0.862,1.787,1.487c0.461,0.626,0.785,1.364,0.975,2.214
					s0.283,1.759,0.283,2.728c0,0.968-0.119,1.865-0.354,2.691c-0.236,0.826-0.598,1.547-1.08,2.16
					c-0.484,0.614-1.105,1.093-1.859,1.435c-0.756,0.342-1.654,0.514-2.691,0.514c-1.088,0-2.002-0.178-2.746-0.531
					c-0.744-0.354-1.346-0.844-1.807-1.47c-0.459-0.626-0.791-1.364-0.99-2.214c-0.201-0.85-0.301-1.759-0.301-2.728
					C-179.344-173.645-179.226-174.541-178.99-175.369z M-175.697-171.331c0.023,0.495,0.107,0.962,0.248,1.398
					c0.143,0.438,0.367,0.81,0.674,1.116s0.744,0.46,1.311,0.46c0.543,0,0.973-0.153,1.293-0.46
					c0.318-0.307,0.553-0.679,0.707-1.116s0.248-0.896,0.283-1.381s0.053-0.915,0.053-1.293c0-0.354-0.018-0.773-0.053-1.257
					c-0.035-0.484-0.123-0.944-0.266-1.382c-0.141-0.437-0.359-0.814-0.654-1.133c-0.295-0.319-0.703-0.479-1.223-0.479
					c-0.566,0-1.01,0.142-1.328,0.425s-0.561,0.638-0.727,1.062c-0.164,0.425-0.266,0.886-0.301,1.382
					c-0.035,0.495-0.053,0.944-0.053,1.346C-175.732-172.263-175.721-171.827-175.697-171.331z"/>
			</g>
		</g>
	</g>
</g>
<path fill="#FFFFFF" d="M138.27,72.792c-0.18-0.179-0.36-0.356-0.572-0.566c0.423-0.289,0.571-0.726,0.622-1.146
	c0.085-0.704,0.01-1.401-0.346-2.06c-0.214-0.397-0.477-0.712-0.862-0.932c-0.387-0.22-0.792-0.376-1.25-0.375
	c-1.648,0.003-3.297,0.001-4.946,0.001h-0.337v9.713c1.872,0,3.714,0.004,5.555-0.004c0.262-0.001,0.513-0.142,0.784-0.092
	c0.495-0.231,1.005-0.414,1.385-0.859c0.402-0.471,0.613-1.017,0.698-1.587C139.12,74.089,138.853,73.373,138.27,72.792z
	 M132.52,69.637L132.52,69.637c0.813,0,2.856-0.001,2.916-0.001c0.139,0,0.27,0.029,0.389,0.083
	c0.016,0.006,0.031,0.014,0.046,0.021c0.102,0.051,0.193,0.121,0.271,0.204c0.146,0.157,0.24,0.363,0.254,0.591
	c0.001,0.02,0.002,0.042,0.002,0.063c0,0.252-0.097,0.481-0.254,0.653c0,0.001,0,0.001-0.001,0.001
	c-0.001,0.001-0.001,0.001-0.001,0.001c-0.177,0.189-0.427,0.308-0.706,0.308h-2.916V69.637z M136.783,75.436
	c-0.016,0.017-0.031,0.033-0.048,0.049c-0.024,0.024-0.05,0.047-0.077,0.067c-0.038,0.031-0.078,0.059-0.12,0.084
	c-0.036,0.021-0.073,0.041-0.111,0.057c-0.016,0.008-0.031,0.015-0.047,0.02c-0.017,0.007-0.034,0.014-0.051,0.019
	c-0.112,0.039-0.231,0.059-0.355,0.059h-3.454v-2.197h3.454c0.562,0,1.025,0.421,1.09,0.965c0.006,0.044,0.009,0.088,0.009,0.133
	C137.072,74.98,136.962,75.24,136.783,75.436z M126.005,67.714c0,0,0.002,6.362,0.003,6.487c0,0.271-0.078,0.506-0.193,0.746
	c-0.227,0.468-0.371,0.72-0.594,0.965c-0.403,0.482-0.94,0.875-1.566,1.14c-0.231,0.098-0.474,0.178-0.726,0.239
	c-0.365,0.087-0.75,0.136-1.148,0.136c-0.01,0-0.019-0.001-0.029-0.001c-0.05,0-0.102-0.001-0.152-0.003
	c-2.035-0.074-3.695-1.375-3.996-3.061c-0.005-0.027-0.01-0.053-0.014-0.081c-0.002-0.017-0.005-0.034-0.008-0.051
	c-0.005-0.038-0.009-0.077-0.013-0.116c-0.004-0.035-0.008-0.07-0.01-0.105c-0.003-0.051-0.002-6.296-0.002-6.296h2.04
	c0,0-0.001,0.155-0.001,0.232c0,0.924,0.001,1.847,0.002,2.771c0,0.917-0.001,1.833-0.006,2.75v0.024
	c0.006,0.826,0.625,1.527,1.488,1.788c0.234,0.071,0.485,0.11,0.746,0.11c0.263,0,0.516-0.039,0.751-0.111
	c0.52-0.158,0.95-0.476,1.211-0.885c0.174-0.272,0.272-0.583,0.272-0.914c0-0.028-0.001-0.056-0.002-0.084
	c0.005-0.07,0.009-0.14,0.009-0.211c-0.004-0.818-0.005-1.616-0.005-2.415c-0.001-1.003,0.001-2.008,0.001-3.056H126.005z
	 M111.058,67.705c0.642,0,1.268,0,1.915,0c0,3.254,0,6.461,0,9.731c-0.63,0-1.256,0-1.902,0c0-1.301,0-2.751,0-4.058h-4.574
	c0,1.289,0,2.722,0,4.049c-0.654,0-1.291,0-1.94,0c0-3.251,0-6.446,0-9.714c0.633,0,1.27,0,1.925,0c0,1.246,0,2.571,0,3.795h4.578
	c0,0,0,0,0,0c0,0,0,0,0,0C111.058,70.284,111.058,68.958,111.058,67.705z M99.2,67.714c0.236,0,0.441,0,0.665,0
	c0,3.26,0,6.445,0,9.714c-0.638,0-1.264,0-1.924,0c0-1.873,0-3.554,0-5.498c-0.217,0.261-0.385,0.459-0.548,0.66
	c-0.168,0.208-2.215,2.481-2.306,2.615l-2.853-3.275c0,0,0,3.662,0,5.498c-0.638,0-1.276,0-1.928,0c0-3.244,0-6.431,0-9.701
	c0.192,0,0.423,0,0.665,0l4.06,4.841L99.2,67.714z M80.652,75.684h5.145v1.744h-6.983v-9.714h1.851L80.652,75.684z M72.209,67.714
	h1.851v9.714h-1.851V67.714z M61.33,67.714h6.799v1.851h-4.948v2.037h3.685v1.851h-3.685v3.975H61.33V67.714z"/>
</svg>
