<svg style="fill: #ad1e1f;" version="1.1" viewBox="0 0 300 85" xmlns="http://www.w3.org/2000/svg"><g transform="translate(-225 -490)"><g transform="matrix(1.4 0 0 1.4 327 377)"><path d="m140 99-0.3 1.4-2.8 0.75c-0.62 0.17-1.2 0.75-1.5 1.1l-13 16-4.8 16c-0.25 0.83 0.079 1.3 0.6 1.4l3.3 0.83-0.45 1.4h-17l0.45-1.4 3.1-0.75c0.84-0.2 1.3-0.68 1.6-1.7l4.8-16-4.1-16c-0.2-0.75-0.4-1.4-1.2-1.6l-2-0.53 0.3-1.4h14l-0.3 1.4-2.4 0.68c-0.84 0.24-1 0.67-0.83 1.5l3.4 13 10-13c0.19-0.25 0.3-0.53 0.3-0.75 0-0.3-0.25-0.52-0.6-0.6l-2.7-0.68 0.38-1.4h11z"/><path d="m107 108h-1.9l-1.7-5.1c-0.3-0.93-0.76-1.2-1.7-1.2h-4.1l-9.7 33c-0.25 0.82-0.0063 1.3 0.75 1.5l2.7 0.75-0.45 1.4h-16l0.45-1.4 2.9-0.68c1.3-0.3 1.6-0.69 1.9-1.8l9.7-32h-4.8c-0.75 0-1.3 0.48-1.8 1.1l-3.4 4.7h-1.9l3-9.3h1.2c0.3 0.67 0.76 0.98 1.4 0.98h20c1.1 0 1.5-0.3 2-0.98h1.3l0.15 9.8z"/><path d="m77 108h-1.9l-1.8-4.8c-0.27-0.74-0.83-0.98-1.5-0.98h-7.7l-4.4 15h7.3c0.75 0 1.2-0.37 1.7-1.1l2-2.9h1.9l-3.5 12h-1.9l0.076-4.1c0.014-0.75-0.45-0.98-1.2-0.98h-7.2l-4.8 16h11c1.4 0 2-0.27 2.7-1.2l4.2-5.3h2l-4.3 10h-1.4c-0.38-0.75-0.91-1.1-2.3-1.1h-24l0.45-1.4 2.9-0.75c0.76-0.2 1.2-0.68 1.5-1.7l9.4-32c0.18-0.61-0.024-1.1-0.45-1.3l-2.6-0.83 0.38-1.4h21c0.71 0 1.3-0.3 1.7-0.98h1.2l0.075 9.4z"/><path d="m140 89c-18 4-39 6.1-58 6.1-46 0-78-6.3-92-9.5l-58 54-4.7 0.6 17-51c-2.7 1.4-12 3.8-16 4.1-1.3 0.095-1.3-0.63-0.75-0.98 4-2.3 5.9-4.2 7.7-8.7 8.3 2 15 0.45 22-2.3l-15 43 41-44c26 5.5 54 7.8 75 7.8 20 0 37-3.1 46-6.8 13 7.5 27 6.9 35 6.3 1.2-0.075 1.3 1 0.3 1.3"/><path d="m51 99-0.38 1.4-3.2 0.9c-0.61 0.17-0.91 0.54-1.1 1.3l-9.4 31c-0.28 0.94-0.49 1.5 0.68 1.9l2.3 0.68-0.45 1.4h-15l0.45-1.4 2.2-0.68c1.2-0.38 1.6-0.83 1.9-1.8l9.3-32c0.19-0.66-0.055-1.1-0.53-1.3l-2.5-0.83 0.38-1.4h15z"/><path d="m29 109c0 5.9-4.7 11-12 11-1.3-0.051-3.2-0.3-4.4-0.68 0 7.2 2.2 15 6.5 15 2.6 0 3.4-2.2 3.8-4.1 0.059-0.3 0.3-0.52 0.68-0.15 1 1 1.9 2.4 1.9 4.5 0 4.4-2.8 6.4-7 6.4-11 0-11-15-9.4-25 0.096-0.52 0.3-0.6 0.68-0.38 1.4 0.82 2.9 1.3 5.1 1.3 3.5 0 6.7-2.7 6.7-7.7 0-4.9-4.1-8-10-8l-10 34c-0.099 0.33-0.15 0.6-0.15 0.83 0 0.45 0.18 0.7 0.68 0.83l2.9 0.75-0.45 1.4h-15l0.45-1.4 2.3-0.68c0.7-0.21 1-0.62 1.4-1.7l10-34c-4.3 0.91-6.4 2.5-6.4 5 0 1.4 0.32 2.1 0.76 2.7 0.16 0.24 0.23 0.5 0.23 0.76-0.01 0.56-0.48 1.1-1.9 1.1-2.2 0-4.3-1.3-4.3-4.4 0-1.9 1.2-8.2 18-8.2 14 0 20 4.5 20 11"/><path d="m-20 106-15 19h14l1.7-19zm8 31-0.45 1.4h-14l0.45-1.4 2.5-0.68c0.71-0.19 1.1-0.69 1.1-1.5l0.6-6.6h-16l-5.2 6.3c-0.34 0.41-0.53 0.72-0.53 0.98 0 0.33 0.18 0.55 0.6 0.68l2.4 0.75-0.45 1.4h-12l0.53-1.4 2.5-0.6c0.87-0.21 1.7-0.87 2.4-1.7l32-38 3.3-0.6-3.1 39c-0.066 0.82 0.049 1.4 0.98 1.6l2.1 0.53z"/></g></g></svg>
