<svg version="1.1" viewBox="0 0 237.30185 60.929378" xmlns="http://www.w3.org/2000/svg"><g transform="translate(-60.828 -201.73)" stroke-width=".11759"><path d="m245.58 241.46c-3.0786-0.47012-6.0185-2.8353-7.4781-6.0162-0.69926-1.524-0.90474-2.4391-0.97012-4.3206-0.0509-1.4643-0.0242-1.8519 0.18884-2.7446 0.69016-2.892 2.1154-5.0332 4.3318-6.508 1.8411-1.225 3.4095-1.6361 5.8666-1.5374 2.4082 0.0967 4.0759 0.7656 5.5889 2.2415 0.62019 0.60497 1.6287 1.9684 1.6287 2.2019 0 0.0465-0.3549 0.30073-0.78866 0.56492l-0.78866 0.48035-0.42559-0.67309c-0.84174-1.3313-2.3349-2.3781-3.9943-2.8005-1.0056-0.25593-2.7692-0.25142-3.763 0.01-2.6554 0.6975-4.7089 2.9212-5.5425 6.0018-0.35708 1.3197-0.35986 3.6108-6e-3 4.9123 0.71938 2.6455 2.7281 5.0314 4.9785 5.9133 3.0238 1.185 6.7318 0.0755 8.5268-2.5515 0.30324-0.44381 0.56977-0.80692 0.59232-0.80692 0.0225 0 0.41237 0.18704 0.86631 0.41564l0.82534 0.41563-0.30913 0.56799c-0.81692 1.5009-2.5891 2.9248-4.5464 3.653-1.4928 0.55533-3.4177 0.78916-4.7818 0.58087z" fill="#5cc6d1"/><path d="m76.292 258.94v-3.7123h-8.0551c-7.9673 0-8.0551-3e-3 -8.0551-0.23437 0-0.23152 0.09782-0.23474 8.0257-0.26459l8.0257-0.0302v-5.6444l-3.7336-0.0311c-3.6269-0.0302-3.7336-0.0377-3.7336-0.26293 0-0.22526 0.10662-0.23277 3.7336-0.26293l3.7336-0.031 0.02979-17.139 0.02979-17.139h0.58718v34.337h20.402c20.324 0 20.402 9.4e-4 20.402 0.23518 0 0.23429-0.0784 0.23519-20.402 0.23519h-20.402v5.762h3.0574c2.979 0 3.0574 6e-3 3.0574 0.23518 0 0.22915-0.0784 0.23519-3.0557 0.23519h-3.0557l-0.03107 3.6748-0.03107 3.6748-0.26458 0.0376-0.26458 0.0376zm205.2-27.29v-18.403h-32.456v-0.58796h32.456v-10.936h0.58796v10.936h5.4093v-2.6458c0-2.5674 7e-3 -2.6458 0.23519-2.6458 0.22821 0 0.23518 0.0784 0.23518 2.6458v2.6458h9.525v0.58796h-9.525v4.8801c0 4.8017-4e-3 4.8801-0.23518 4.8801-0.23141 0-0.23519-0.0784-0.23519-4.8801v-4.8801h-5.4093v36.806h-0.58796zm-118.47 9.6427c-4.2513-0.9497-7.3299-4.6028-7.8436-9.3074-0.30921-2.8319 0.6079-5.8938 2.4374-8.1375 1.251-1.5342 3.2646-2.8512 5.071-3.3165 1.1583-0.29839 3.1713-0.32634 4.3199-0.06 2.8226 0.6546 5.3726 2.8371 6.7186 5.7503 0.67586 1.4628 0.90561 2.5201 0.96241 4.4288 0.046 1.5458 0.0225 1.8149-0.25167 2.88-1.0364 4.0268-4.0339 7.055-7.6908 7.7698-1.0592 0.20705-2.778 0.20352-3.7232-8e-3zm3.8595-1.9017c1.5269-0.44854 3.1771-1.6511 4.068-2.9644 1.1205-1.6519 1.6372-3.1599 1.739-5.076 0.21451-4.0334-2.0717-7.69-5.5552-8.885-1.2473-0.4279-2.9818-0.45872-4.2288-0.0752-1.6468 0.50652-3.106 1.6171-4.0935 3.1155-1.1339 1.7206-1.6238 3.3419-1.6238 5.3742 0 3.6479 1.8222 6.7366 4.8064 8.1472 1.4005 0.66196 3.373 0.80871 4.888 0.36367zm18.366 1.9102c-2.8455-0.75518-5.1172-2.6734-6.5553-5.5354-1.302-2.591-1.5522-5.4017-0.73258-8.2299 1.0802-3.7274 4.0821-6.4844 7.7574-7.1244 1.0192-0.17748 3.3816-0.0744 4.3518 0.18992 1.7845 0.48611 3.6942 1.9006 4.6216 3.4234 0.26628 0.43718 0.47305 0.80411 0.45951 0.8154-0.0136 0.0113-0.37836 0.23576-0.8107 0.49883l-0.78607 0.4783-0.30936-0.52787c-0.46331-0.79057-0.95973-1.3076-1.8677-1.9452-1.8084-1.27-4.4061-1.5882-6.6182-0.81069-2.1933 0.77087-4.1313 2.9914-4.8838 5.5955-0.22779 0.78833-0.26999 1.2093-0.27046 2.698 0 1.5226 0.0371 1.8838 0.27478 2.6408 1.0139 3.2286 3.2785 5.4714 6.1334 6.0742 1.5972 0.33723 3.7057-0.0164 5.1522-0.86411 0.7563-0.44322 1.9792-1.6208 2.3424-2.2554 0.16962-0.29644 0.32001-0.55561 0.33421-0.57593 0.0495-0.0708 1.6962 0.805 1.6962 0.90214 0 0.19214-0.91545 1.4947-1.365 1.9422-1.0986 1.0936-2.7598 2.0451-4.3382 2.4847-0.94567 0.26339-3.7751 0.34096-4.5861 0.12573zm-97.308-10.416v-10.466h13.758v1.7617l-5.8502 0.0305-5.8502 0.0305v7.6435l4.9095 0.0307 4.9095 0.0307v1.6411l-4.9095 0.0307-4.9095 0.0307-0.0307 4.8507-0.0307 4.8507h-1.9965zm17.521-0.0588v-10.525h2.1167v21.049h-2.1167zm7.5259 0.0588v-10.466h2.1167v19.168h12.112v1.7639h-14.229zm17.404-4e-3v-10.47l1.0863 0.0338 1.0863 0.0338 4.0209 7.0528c2.2115 3.8791 4.0642 7.0661 4.1172 7.0823 0.053 0.0162 1.9231-3.1576 4.1557-7.0528l4.0594-7.0823 1.0853-0.0338 1.0853-0.0338v20.94h-2.1151l-0.0302-8.5549-0.0302-8.5549-3.7842 6.5852-3.7842 6.5852h-1.2374l-3.6522-6.3571c-2.0087-3.4964-3.742-6.4862-3.8518-6.644-0.18858-0.27103-0.19996 0.18938-0.20579 8.3268l-6e-3 8.6136h-1.9991v-10.47zm68.909 4e-3v-10.466h4.8677c5.4974 0 5.6988 0.0261 7.0764 0.91834 2.3595 1.5281 3.5167 4.3461 2.9308 7.1368-0.45831 2.1829-1.8297 3.8535-3.733 4.5475-0.42085 0.15345-0.66648 0.30593-0.63307 0.39299 0.0594 0.15471 4.7351 7.5484 4.9257 7.789 0.0915 0.11555-0.13414 0.14699-1.0551 0.14699h-1.1716l-2.4588-3.8755-2.4588-3.8755-3.1456-5e-3 -3.1456-5e-3v7.7611h-1.9991zm10.369 0.62784c1.2814-0.59223 2.2884-2.0369 2.5657-3.6813 0.36173-2.1446-0.74883-4.3564-2.6649-5.3076-0.55974-0.27786-0.62578-0.2826-4.4194-0.31743l-3.8512-0.0354v4.7489c0 2.6119 0.0385 4.7874 0.0855 4.8344 0.047 0.047 1.8065 0.0691 3.91 0.049 3.6297-0.0347 3.8524-0.0495 4.3743-0.29063zm6.5649 9.7541c0-0.0509 1.9501-4.7493 4.333-10.441l4.3325-10.348 0.88699-0.0341 0.88697-0.0341 0.3558 0.85726c3.4903 8.4093 8.2897 19.928 8.3314 19.995 0.03 0.0485-0.43967 0.0882-1.0436 0.0882h-1.098l-1.3523-3.2632-1.3523-3.2632h-9.4861l-1.3275 3.2338-1.3275 3.2338-1.0698 0.0338c-0.58839 0.0186-1.0696-8e-3 -1.0694-0.0588zm13.758-8.1059c0-0.25394-4.1705-10.264-4.2449-10.189-0.091 0.0925-4.0806 9.6676-4.1911 10.059-0.0546 0.19327 0.20036 0.20579 4.1889 0.20579 2.3359 0 4.247-0.0341 4.247-0.0758zm33.749 4.2536v-3.9361l-3.9982-6.4742c-2.199-3.5608-3.9982-6.4991-3.9982-6.5297 0-0.0305 0.49021-0.0555 1.0894-0.0555h1.0894l3.3927 5.5856c1.866 3.0721 3.4263 5.584 3.4673 5.582 0.0411-2e-3 1.6092-2.5154 3.4848-5.5853l3.4102-5.5816 1.0919-3.5e-4c1.0328-3.6e-4 1.0855 0.0116 0.97338 0.22101-0.0652 0.12176-1.8926 3.0968-4.0611 6.6112l-3.9426 6.3898v7.709h-1.9991z" fill="#252122"/></g></svg>
