<svg xmlns="http://www.w3.org/2000/svg" viewBox="0 0 100.821 39.856"><path fill="#1481c9" d="M74.055 28.05c-.017-.006-.03-.01-.048-.014l-.328-.105M95.265 9.095v2.517c-5.788-4.18-10.954-3.474-15.614 2.375l-.07-.71V0h-5.573v13.31c-2.113-2.858-5.508-4.71-9.332-4.71-3.78 0-7.135 1.808-9.253 4.604a11.57 11.57 0 0 0-9.07-4.37c-3.556 0-6.737 1.602-8.864 4.12-2.127-2.52-5.3-4.12-8.866-4.12-3.695 0-6.982 1.726-9.106 4.415-1.33-2.593-3.4-4.087-6.248-4.375-2.785-.282-5.336 1.062-7.694 2.875V0H0v32.028h5.573v-12.88c0-1.706 1.175-3.048 1.175-3.048.915-1.828 3.003-2.607 4.785-2.175 1.79.435 2.892 2.096 2.986 4.38v13.722h5.573v-3.743c2.118 2.302 5.155 3.743 8.53 3.743 3.556 0 6.74-1.602 8.866-4.124 2.127 2.522 5.307 4.124 8.864 4.124a11.56 11.56 0 0 0 7.542-2.788v10.587h5.57V30.56c1.568.79 3.34 1.234 5.21 1.234 3.824 0 7.22-1.853 9.332-4.71v4.946h5.573v-4.113c.04-.217.105-.49.178-.9 1.963 2.703 4.197 4.58 7.287 5.05 3.1.472 5.847-.4 8.078-2.565l.14.107v1.635h5.573V9.095h-5.572zM34.87 22.05c-.717 2.777-3.243 4.83-6.248 4.83-3.565 0-6.454-2.9-6.454-6.45s2.9-6.454 6.454-6.454c3.005 0 5.53 2.053 6.248 4.833.136.517.206 1.062.206 1.62s-.07 1.105-.206 1.62zm11.482 4.83c-3.003 0-5.528-2.053-6.245-4.83-.136-.517-.206-1.062-.206-1.62a6.42 6.42 0 0 1 .206-1.621c.717-2.78 3.243-4.833 6.245-4.833 3.565 0 6.454 2.9 6.454 6.454s-2.89 6.45-6.454 6.45zm18.323-.232c-3.565 0-6.454-2.9-6.454-6.454s2.9-6.454 6.454-6.454 6.45 2.9 6.45 6.454-2.89 6.454-6.45 6.454zm24.634.664c-3.118.206-6.005-2.333-6.355-5.6-.443-4.138 1.585-7.19 5.19-7.807 3.858-.66 7.124 2.387 7.124 6.643v.006c-.001 3.82-2.377 6.5-5.958 6.748z"/></svg>