<svg xmlns="http://www.w3.org/2000/svg" viewBox="0 0 320 170"><path d="M185.3 117.3h17.2V46.1h-17.2v71.2zM155.1 97c0 2.5-2.1 4.6-4.6 4.6h-10c-2.5 0-4.6-2.1-4.6-4.6V68.3h-17.2v30.1c0 12.3 7.9 18.8 19.5 18.8H155c10.7 0 17.2-7.7 17.2-18.8V68.3H155c.1 0 .1 27.8.1 28.7zm96.7-28.7V97c0 2.5-2.1 4.6-4.6 4.6h-10c-2.5 0-4.6-2.1-4.6-4.6V68.3h-17.2v30.1c0 12.3 7.9 18.8 19.5 18.8h16.8c10.7 0 17.2-7.7 17.2-18.8V68.3h-17.1zM87 68.3H76c-3.9 0-5.8 1-5.8 1V46.1H53v71.1h17.1V88.6c0-2.5 2.1-4.6 4.6-4.6h10c2.5 0 4.6 2.1 4.6 4.6v28.7h17.2v-31c0-13-8.7-18-19.5-18z" fill="#1ce783"/></svg>
