<svg xmlns="http://www.w3.org/2000/svg" viewBox="0 0 215 162"><path d="M21.07 204.867c0-1.925.206-2.713.457-1.75s.252 2.537 0 3.5-.457.175-.457-1.75zm54.146-37c0-6.325.162-8.912.36-5.75s.198 8.338 0 11.5-.36.575-.36-5.75zm17.014-2c0-7.425.157-10.463.35-6.75s.192 9.787 0 13.5-.35.675-.35-6.75zm15.82 1.808l-.212-11.692-8.5-.766 4.28-.175c5.347-.218 5.367-.162 4.967 13.4l-.323 10.936zm-78.847-2.308c.003-5.5.17-7.622.373-4.716s.2 7.406-.005 10-.37.216-.368-5.284zm23.995.5c0-5.225.17-7.363.375-4.75a73.1 73.1 0 0 1 0 9.5c-.206 2.613-.375.475-.375-4.75zm17 0c0-5.225.17-7.363.375-4.75a73.1 73.1 0 0 1 0 9.5c-.206 2.613-.375.475-.375-4.75zm-33.584-10.733c2.352-.21 5.952-.208 8 .007s.124.388-4.276.384-6.076-.18-3.724-.39zm19.95.012c1.775-.22 4.925-.225 7-.008s.622.397-3.228.402-5.548-.173-3.772-.394zm56.022.016c1.237-.238 3.262-.238 4.5 0s.225.433-2.25.433-3.487-.195-2.25-.433zm10.52-60.987c.973-.254 2.323-.237 3 .037s-.12.48-1.77.46-2.204-.245-1.23-.498zM122.6 80.16c1.244-.24 3.044-.23 4 .02s-.062.446-2.262.435-2.982-.216-1.738-.455zm-78.512-5.982c.962-.252 2.538-.252 3.5 0s.175.457-1.75.457-2.712-.206-1.75-.457zm78.512-.018c1.244-.24 3.044-.23 4 .02s-.062.446-2.262.435-2.982-.216-1.738-.455zm6.495-46.293c.225-.825 1.272-1.605 2.326-1.732 1.347-.163 1.47-.044.417.4-.825.348-1.872 1.127-2.326 1.732-.53.708-.68.565-.417-.4zm-76.007-1.69c.963-.252 2.537-.252 3.5 0s.175.457-1.75.457-2.713-.206-1.75-.457zm18.25.058c7.174-.745 15.504-.808 15.502-.118-.001.413-4.164.678-9.252.6s-7.9-.3-6.25-.472zm32.767-.086c1.67-.252 2.5-.85 2.096-1.505-.4-.65-.206-.8.483-.373 2.2 1.36 1.14 2.595-2.095 2.446-3.05-.14-3.08-.176-.483-.568zm11.002.025c.973-.254 2.323-.237 3 .037s-.12.48-1.77.46-2.204-.244-1.23-.498z" fill="#969696"/><path d="M55.107 123.174c.973-.254 2.323-.237 3 .037s-.12.48-1.77.46-2.204-.245-1.23-.498zm46.73.302c0-.215 1.543-.57 3.43-.79s3.2-.044 2.94.39c-.484.783-6.37 1.153-6.37.4zm-38-2.037c0-1.67 4.648-5.573 6.635-5.573.893 0 1.365 1.21 1.365 3.5 0 3.417-.095 3.5-4 3.5-2.798 0-4-.43-4-1.427zm31.036-12.323c.034-13.1.152-13.892 2.495-16.75 2.46-3 2.46-3 2.464 13.75s.005 16.75-2.495 16.75-2.5 0-2.464-13.75zm-28.036-9.193c0-2.095 4.273-5.737 4.817-4.106.37 1.11-2.915 5.97-4.067 6.018-.412.017-.75-.843-.75-1.912zm-3.72-9.635c1.536-1.857 1.72-5.086 1.72-30.25v-28.17h7.124l-.98 38.5c-.03.55.18 3.475.467 6.5.52 5.5.52 5.5-4.765 10.5-2.906 2.75-4.5 4.065-3.565 2.92zm33.97-32.452c-2.142-.86-2.248-1.424-2.214-11.687.036-10.782.036-10.782 2.495-7.782 2.173 2.65 2.46 3.967 2.464 11.31.004 6.025.322 8.113 1.16 7.595.715-.442.883-.274.44.44-.827 1.338-1.292 1.35-4.345.123z" fill="#dc9810"/><path d="M68.088 123.14c3.53-.37 3.75-.594 3.75-3.832 0-1.954-.504-3.44-1.167-3.44-.642 0-.865-.302-.496-.67.87-.87 5.663 3.624 5.663 5.3 0 1.958-3.424 3.38-7.684 3.193l-3.816-.168zm24 .023c-3.3-.634-3.414-9.294-.133-9.294 1.722 0 1.995-.42 1.463-2.25-1.647-5.674-1.74-12.267-.198-14.25 1.428-1.837 1.557-.885 1.586 11.7l.032 13.7 3.75.392c3.75.392 3.75.392-.25.424-2.2.018-5.013-.163-6.25-.4zm-20.25-27.31c0-.606-.562-.805-1.25-.443s.55-.944 2.75-2.903c4.303-3.832 5.5-4.352 5.5-2.387 0 .688-1.575 2.507-3.5 4.043s-3.5 2.297-3.5 1.69zM69.03 85.367c1.613-1.8 2.8-4.448 3-6.65.317-3.65.317-3.65 2.004-1.396 1.645 2.198 1.57 2.362-3 6.65-2.572 2.418-3.474 3.046-2.004 1.396zm2.6-35.748c.294-17.752.294-17.752 3.75-17.752s3.456 0 3.456 15.895 0 15.895-3.75 17.752l-3.75 1.857zm20.956 7.53c-2.75-.417-2.75-.417-2.75-12.85 0-6.838.38-12.434.845-12.434 2.904 0 4.03 3.83 4.338 14.757l.317 11.095c0-.084-1.237-.34-2.75-.568z" fill="#d66112"/><path d="M73.3 165.95c.04-11.05.313-13.5 1.548-13.826 1.078-.293 1.157-.164.28.458-.82.582-1.326 5.11-1.548 13.826l-.33 12.96zm36.93 1.418c.002-6.6.164-9.17.36-5.71a121.81 121.81 0 0 1-.004 12c-.198 3.14-.358.31-.356-6.29zm-59.008-2c.002-6.05.167-8.396.366-5.213s.197 8.133-.004 11-.364.263-.362-5.787zm-20.014.5c0-5.225.17-7.363.375-4.75a73.1 73.1 0 0 1 0 9.5c-.206 2.613-.375.475-.375-4.75zm37 0c0-5.225.17-7.363.375-4.75a73.1 73.1 0 0 1 0 9.5c-.206 2.613-.375.475-.375-4.75zm21.452-1.748c.172-5.914.622-11.07 1-11.456s.547 4.45.377 10.75-.62 11.455-1 11.456-.55-4.836-.377-10.75zm-41.813-10.085c0-.778-2.746-1.234-8.25-1.368l-8.25-.2 7.905-.344c7.31-.318 11.03.643 9.278 2.396-.376.376-.683.158-.683-.483zm8.728-1.888c1.775-.22 4.925-.225 7-.008s.622.397-3.228.402-5.548-.173-3.772-.394zm48.056-.017c2.906-.203 7.406-.2 10 .005s.216.37-5.284.368-7.622-.17-4.716-.373zm-39.746-21.716c-.756-.91-3.505-1.565-7.362-1.75-5.308-.255-6.183-.57-6.358-2.296-.158-1.558-.09-1.613.313-.25.414 1.405 1.654 1.75 6.288 1.75 4.502 0 6.17.44 7.582 2 .995 1.1 1.57 2 1.277 2s-1.076-.655-1.74-1.454zm26.162.254c-2.254-2.254-1.2-2.8 5.05-2.61l6.25.19-5.83.363c-4.953.31-5.648.58-4.628 1.81 1.45 1.748.837 1.928-.843.248zm-53.76-3.096c-.274-.713-.36-7.8-.19-15.75l.308-14.454.22 15.177c.196 13.504.413 15.227 1.97 15.634 1.64.43 1.638.465-.03.573-.98.064-2.005-.467-2.28-1.18zm41.8.607c.963-.252 2.537-.252 3.5 0s.175.457-1.75.457-2.713-.206-1.75-.457zm33.5-.016c1.237-.238 3.262-.238 4.5 0s.225.433-2.25.433-3.487-.195-2.25-.433zm-67.48-10.987c.973-.254 2.323-.237 3 .037s-.12.48-1.77.46-2.204-.245-1.23-.498zm5.926-18.807c.02-1.65.244-2.204.498-1.23s.237 2.323-.037 3-.48-.12-.46-1.77zm-13.895-11.5c0-3.025.187-4.263.417-2.75s.23 3.987 0 5.5-.417.275-.417-2.75zm13.895-16.5c.02-1.65.244-2.204.498-1.23s.237 2.323-.037 3-.48-.12-.46-1.77zM36.667 60.365c-.18-4.126.01-7.5.42-7.5s.75 3.377.75 7.502c0 9.688-.746 9.687-1.17-.002zm7.933-.205c1.244-.24 3.044-.23 4 .02s-.062.446-2.262.435-2.982-.216-1.738-.455zm6.433-3.793c.02-1.65.244-2.204.498-1.23s.237 2.323-.037 3-.48-.12-.46-1.77zM44.838 45.96c0-.5.9-.67 2-.383s2 .696 2 .906-.9.383-2 .383-2-.408-2-.906zm-7.64-10.094c0-5.225.17-7.363.375-4.75a73.1 73.1 0 0 1 0 9.5c-.206 2.612-.375.475-.375-4.75z" fill="#626262"/><path d="M81.965 119.39c-2.27-2.463-4.127-4.713-4.127-5s2.7-.522 6-.522c6 0 6 0 6 4.43 0 3.8.32 4.492 2.25 4.864 1.25.24.417.494-1.873.57-3.678.12-4.568-.347-8.25-4.34zM70.838 98.554c0-.172 1.463-1.635 3.25-3.25l3.25-2.937-2.937 3.25c-2.738 3.03-3.563 3.7-3.563 2.937zm7.71-8.686c-.615-2.352 2.862-5.83 4.346-4.345 1.3 1.3.415 3.568-1.974 5.06-1.568.98-1.96.86-2.372-.715zm.29-42.465V31.867h11v12.417c0 8.998.344 12.556 1.25 12.92.688.277-.108.54-1.768.583s-4.697 1.22-6.75 2.615l-3.732 2.536z" fill="#d02914"/><path d="M24.338 214.66c-4.45-2.552-6.128-7.748-4.478-13.874 1.795-6.666 8.838-10.017 13.537-6.44 1.774 1.35 1.54 1.425-2.73.875-6.41-.826-9.83 2.356-9.83 9.148s3.42 9.974 9.83 9.148c4.27-.55 4.503-.475 2.73.875-2.3 1.75-6.27 1.868-9.06.27zm15.5-11.292c0-7.667.387-12.5 1-12.5.55 0 1 2.454 1 5.453 0 5.453 0 5.453 2.832 3.828 5.354-3.073 8.168.47 8.168 10.283 0 7.758-1.85 6.742-2.204-1.21-.342-7.684-1.875-9.55-6.218-7.572-2.387 1.087-2.578 1.658-2.578 7.696 0 3.68-.436 6.52-1 6.52-.613 0-1-4.833-1-12.5zm19.57 10.93c-3.29-3.29.064-8.43 5.498-8.43 2.61 0 3.022-.336 2.75-2.25-.28-1.962-.883-2.238-4.72-2.152-3.926.087-4.202-.048-2.56-1.25 5.505-4.026 9.468.012 9.445 9.625-.01 4.02-.345 6.008-.873 5.174-.658-1.04-1.336-1.097-2.92-.25-2.838 1.52-4.77 1.382-6.62-.468zm7.23-1.63c3.32-3.32-.176-6.128-5.218-4.193-1.594.612-2.15 3.5-.915 4.726 1.087 1.087 4.84.76 6.133-.533zm9.2-5.3c0-5 .412-8.5 1-8.5.55 0 1 .745 1 1.655 0 1.512.166 1.505 1.918-.08 4.796-4.34 9.043.192 9.068 9.675.02 7.994-1.828 7.24-2.2-.896-.342-7.684-1.875-9.55-6.218-7.572-2.387 1.087-2.578 1.658-2.578 7.696 0 3.68-.436 6.52-1 6.52-.588 0-1-3.5-1-8.5zm19 0c0-5 .412-8.5 1-8.5.55 0 1 .745 1 1.655 0 1.512.166 1.505 1.918-.08 4.796-4.34 9.043.192 9.068 9.675.02 7.994-1.828 7.24-2.2-.896-.342-7.684-1.875-9.55-6.218-7.572-2.387 1.087-2.578 1.658-2.578 7.696 0 3.68-.436 6.52-1 6.52-.588 0-1-3.5-1-8.5zm20.86 6.588c-3.385-2.74-3.385-10.436 0-13.177 3.3-2.664 6.6-2.4 9.067.723 3.824 4.862 2.896 6.365-3.927 6.365-5.203 0-6 .25-6 1.878 0 2.925 2.56 4.375 6.98 3.953 4.058-.387 5.353.444 2.437 1.563s-6.178.622-8.557-1.305zm9.14-9.388c0-2.08-2.2-3.7-5-3.7s-5 1.62-5 3.7c0 .893 1.564 1.3 5 1.3s5-.407 5-1.3zm7-1.2c0-7.667.387-12.5 1-12.5s1 4.833 1 12.5-.387 12.5-1 12.5-1-4.833-1-12.5zM.176 187.306c-.332-.865-.18-1.996.335-2.512.574-.574 31.265-.84 78.883-.683 77.192.254 77.944.275 77.944 2.256s-.752 2.002-78.28 2.256c-70.43.23-78.34.098-78.883-1.317zm23.662-21.44c0-8 .385-13 1-13s1 5 1 13-.385 13-1 13-1-5-1-13zm7.09 11.607c-.765-.922-1.06-5.233-.872-12.75l.284-11.357 8.75-.29c5.57-.184 8.75.09 8.75.75 0 .632-3.128 1.04-7.98 1.04-9.41 0-9.286-.175-8.816 12.503l.297 7.997 8.25.3c6.432.226 8.25.612 8.25 1.75 0 2.048-15.217 2.108-16.91.066zm21.345.082c-.277-.72-.375-6.46-.22-12.75l.285-11.44h17l.284 11.357c.188 7.517-.107 11.828-.872 12.75-1.575 1.897-15.753 1.968-16.477.082zm16.362-10.186c.47-12.663.482-12.644-8.076-12.297l-7.22.293-.57 20.585 15.57-.585.297-7.997zm5.405-1.253c-.153-10.05.1-13.245 1.05-13.228.688.012 4.163 4.962 7.722 11s6.808 10.978 7.217 10.978.888-5.062 1.064-11.25c.32-11.25.32-11.25.533 2 .162 10.06-.087 13.244-1.036 13.224-.687-.014-4.4-5.302-8.25-11.75l-7-11.724-1.098 24zm35 1l-.2-12.25h-4.5c-2.475 0-4.5-.45-4.5-1 0-.596 3.833-1 9.5-1 9.5 0 13.34 1.607 5.25 2.192l-4.25.308-1.098 24zm21.346 8.5l-5.433-13.078c-2.246-5.405-3.59-9.663-2.986-9.462s3.15 5.39 5.66 11.528 4.845 10.99 5.188 10.776 2.593-5.253 5-11.2c4.872-12.046 4.79-11.883 5.625-11.046.33.33-1.274 5.176-3.567 10.766-7.072 17.247-7.15 17.342-9.487 11.715zm-57.07-36.25c-9.858-11.5-9.858-11.5-15.56-11.5-5.28 0-5.75-.19-6.343-2.553-.59-2.346-1.023-2.53-5.358-2.25-4.02.26-4.765.636-5.037 2.553-.176 1.238-.963 2.25-1.75 2.25-1.175 0-1.43-2.607-1.43-14.62v-14.62l-11.75-13.46C11.42 68.36 11.22 68.084 12.66 66.644c.84-.84 1.656-.653 3.177.724 1.996 1.806 2.115 1.803 4.696-.124 4.047-3.02 5.01-5.017 3.546-7.36-.683-1.094-1.243-2.12-1.243-2.278s3.375-3.16 7.5-6.673l7.5-6.385v-8.84c0-7 .298-8.84 1.43-8.84.787 0 1.574 1.013 1.75 2.25.272 1.917 1.017 2.295 5.037 2.553 4.335.28 4.77.097 5.358-2.25.5-2.03 1.257-2.553 3.652-2.553 2.35 0 5.175-1.884 12.838-8.558 9.75-8.49 9.846-8.545 12.335-6.915 2.4 1.573 2.66 1.528 6.053-1.06 3.66-2.79 4.43-5.18 2.345-7.267-.933-.933-.932-1.468.007-2.407s1.496-.888 2.528.25c.726.8 6.156 6.97 12.065 13.707 8.04 9.166 11.338 12.25 13.103 12.25 1.684 0 2.45.643 2.678 2.25.283 1.99.896 2.25 5.32 2.25s5.037-.26 5.32-2.25c.176-1.237.963-2.25 1.75-2.25 1.155 0 1.43 2.134 1.43 11.06v11.06l13.664 15.69 15.136 17.42c2.192 2.575-1.185 3.638-3.862 1.215-1.916-1.734-2.082-1.727-4.635.18-4.047 3.02-5.008 5.017-3.546 7.36.683 1.094 1.243 2.163 1.243 2.374s-4.05 3.876-9 8.143l-9 7.76v9.37c0 7.46-.292 9.37-1.43 9.37-.787 0-1.574-1.012-1.75-2.25-.283-1.99-.896-2.25-5.32-2.25s-5.037.26-5.32 2.25c-.264 1.858-.947 2.25-3.922 2.25-2.89 0-4.803 1.023-9.68 5.18l-7.743 6.578c-1.435 1.204-2.015 1.17-4.19-.256-2.397-1.57-2.677-1.54-5.575.602-3.82 2.825-4.735 5.504-2.66 7.797 1.61 1.78 1.223 3.097-.9 3.097-.64 0-5.6-5.175-11.023-11.5zm10.532-3.51c3.01-2.8 3.124-3.157 1.742-5.25-2.013-3.05-6.653-3.413-9.515-.747-2.768 2.58-2.8 4.015-.2 6.818 2.71 2.9 4.134 2.764 7.97-.82zm16-5.49c2.35-2.5 2.35-2.5-3.826-2.5-6.54 0-7.577.904-3.952 3.443 3.116 2.183 5.063 1.946 7.777-.943zm-41-7.326c0-.454-1.125-1.883-2.5-3.174-2.5-2.35-2.5-2.35-2.5.826 0 2.72.358 3.174 2.5 3.174 1.375 0 2.5-.372 2.5-.826zm16.535-.23c1.2-1.942-.562-5.998-3.11-7.16-2.242-1.02-2.863-.806-5.614 1.945-4.3 4.3-3.327 6.272 3.1 6.272 2.735 0 5.266-.476 5.626-1.057zm36.127-2.522l4.368-3.58-.265-29.17c-.295-32.462-.06-31.568-6.88-26.17-4.346 3.44-4.954 6.637-1.695 8.92 1.76 1.233 2.237 2.664 2.43 7.3.254 6.066-.448 7.247-4.327 7.274-1.518.01-3.975 2.204-7.87 7.024-5.663 7.01-5.663 7.01-5.182 12.75.264 3.158.81 6.5 1.2 7.45.65 1.52-.186 1.74-7.61 2l-8.34.292 4.377 4.75c4.377 4.75 4.377 4.75 14.897 4.75s10.52 0 14.888-3.58zm-61.152-4.073c1.537-1.537 1.4-1.904-1.936-5.24-4.115-4.115-6.817-3.588-7.4 1.444-.572 4.852 5.73 7.41 9.345 3.796zm77.556.617c1.803-.965 2.76-3.965 1.263-3.965-1.01 0-4.33 3.187-4.33 4.155 0 1.11.72 1.066 3.066-.2zm-66.455-2.73c.61-.404 1.83-2.137 2.707-3.85 1.534-2.995 1.503-3.204-.786-5.355-2.507-2.355-3.404-2.196-7.28 1.294-2.674 2.408-2.844 4.363-.595 6.848 1.724 1.905 4.055 2.32 5.955 1.063zm61.4-3.735c2.22-2.363 2.24-2.5.374-2.5-2.258 0-4.374 1.8-4.374 3.7 0 1.984 1.405 1.562 4-1.2zm-71.372-10.155c1.304-5.197-3.59-8.256-7.065-4.415-1.713 1.893-1.724 2.175-.172 4.544 2.3 3.512 6.34 3.44 7.237-.13zm21.975-3.095c3.258-3.162 6.96-6.56 8.227-7.548 2.237-1.745 2.517-3.768.607-4.375-1.895-.602-16.84 14.183-16.15 15.98.88 2.294.636 2.43 7.316-4.056zm56.22 2.44c.43-3.738-1.37-5.7-5.245-5.7-3.867 0-5.578 1.543-5.578 5.033 0 3.63.748 4.103 5.963 3.763 4.146-.27 4.565-.54 4.86-3.107zm8.928-2.776c2.338-2.235 4.25-4.678 4.25-5.428 0-1.11-4.526-7.038-9.11-11.936-.523-.558-.89 3.667-.89 10.25 0 6.16.338 11.195.75 11.19s2.662-1.84 5-4.075zm-83.515-1.13c-1.033-2.144-1.104-2.073-1.167 1.167-.052 2.63.2 3.172 1.1 2.283.863-.863.88-1.762.068-3.45zm14.136-9.72c7.068-6.035 7.42-6.522 5.613-7.786-1.06-.742-2.474-3.18-3.144-5.416-1.148-3.83-1.077-4.175 1.22-5.942 1.342-1.03 3.227-1.885 4.19-1.897s1.75-.466 1.75-1.008 1.748-2.143 3.884-3.556c4.165-2.756 12.955-3.666 15.446-1.598 1.34 1.11 9.67-5.517 9.67-7.694 0-.586-3.48-5.138-7.73-10.116l-7.73-9.05H76.643c-15.735 0-15.735 0-19.27 3.104s-3.535 3.104-3.535 27.695 0 24.592 2.717 27.428c3.45 3.6 3.63 3.54 12.654-4.164zM37.403 82.1c-.713-.713-4.565 2.754-4.565 4.11 0 .567 1.013 2.113 2.25 3.436 2.25 2.405 2.25 2.405 2.56-2.293.17-2.584.06-4.947-.244-5.25zm7.82 4.517c.77-1.222.56-2.15-.834-3.7-2.626-2.9-3.553-2.57-3.553 1.275 0 4.93 2.078 6.075 4.387 2.416zm84.242-.404c1.028-4.094-.69-5.845-5.737-5.845-4.08 0-4.414.2-4.716 2.834-.54 4.712.348 5.666 5.274 5.666 4.05 0 4.58-.272 5.18-2.655zm-77.628-3.145c0-1.04-2.167-3.2-3.208-3.2-.445 0-.246.9.44 2 1.262 2.02 2.768 2.673 2.768 1.2zm96.543-3.245c2.776-2.898 2.844-3.175 1.404-5.75-1.85-3.308-5.424-3.988-8.122-1.547-3.58 3.24-3.953 4.908-1.73 7.735 2.68 3.405 4.875 3.29 8.448-.438zm-115.038-2.96c2.88-3.005 2.88-3.005.83-5.75-2.802-3.756-5.015-3.927-8.435-.65-3.327 3.187-3.5 4.107-1.344 7.183s5.537 2.778 8.948-.782zm17.295-3.195c1.637-1.637 1.512-5.296-.23-6.742-.787-.653-3.15-1.045-5.25-.872-3.353.276-3.86.658-4.142 3.125-.177 1.546.215 3.458.872 4.25 1.45 1.746 7.09 1.9 8.75.24zm77.553.438c.805-1.302-6.407-8.43-7.936-7.845-1.77.68-1.91 7.242-.167 7.944 1.993.804 7.587.735 8.103-.1zm9.842-5.925c3.375-3.233 3.444-4.003.63-6.998-4.022-4.28-5.826-3.14-5.826 3.686s.915 7.413 5.195 3.313zm-100.66-15.1c-.85-.85-6.536 4.965-6.536 6.687 0 .833 1.462 3.027 3.25 4.875l3.25 3.36.296-7.182c.163-3.95.046-7.433-.26-7.74zm13.76 5.702c.55-.877.693-2.814.32-4.303-.634-2.526-.997-2.688-5.397-2.405-4.342.28-4.743.527-5.04 3.114-.177 1.546.234 3.48.914 4.3 1.597 1.924 7.858 1.444 9.204-.706zm77.142-2.836c2.608-2.882.972-4.28-4.552-3.883-5.208.373-6.616 3.49-2.788 6.17 2.443 1.71 4.224 1.156 7.34-2.287zm-12.638-14.33c.34-6.483-.673-7.2-5.165-3.668-3.213 2.528-3.327 4.56-.43 7.647 3.577 3.807 5.25 2.618 5.594-3.98zm-65.37 3.688c1.62-1.62 2.15-4.453.82-4.397-.92.04-6.25 4.66-6.25 5.42 0 1.198 3.952.453 5.43-1.023zm79.57-3.95c0-1.72-.796-2.884-2.504-3.662-3.537-1.612-4.046-.48-1.396 3.105 2.764 3.738 3.9 3.9 3.9.557zm-85.98-2.003c.696-.838.987-1.802.647-2.143-.726-.726-3.667 1.5-3.667 2.79 0 1.377 1.63 1.028 3.02-.647zm62.48-5.476c1.785-1.973 1.747-2-2.845-2-4.753 0-5.583.672-3.455 2.8 1.775 1.775 4.254 1.46 6.3-.8zm-19.5-7.56c0-1.584-6.58-8.44-8.1-8.44-1.756 0-10.716 6.82-10.837 8.25-.035.413 4.21.75 9.436.75s9.5-.25 9.5-.56zm20.755-.69c-.617-1.873-4.25-2.063-5.715-.298-1.12 1.35-.81 1.548 2.42 1.548 2.518 0 3.574-.4 3.294-1.25zM96.878 21.68c3.478-2.57 3.724-4.614.92-7.623-2.442-2.622-3.265-2.69-6.537-.547-4.045 2.65-4.68 4.763-2.33 7.752 2.5 3.178 4.1 3.262 7.946.42z" fill="#020202"/></svg>