<svg version="1.1" viewBox="0 0 162 216" xmlns="http://www.w3.org/2000/svg"><path d="m21 205c0-1.9 0.21-2.7 0.46-1.8s0.25 2.5 0 3.5-0.46 0.18-0.46-1.8zm54-37c0-6.3 0.16-8.9 0.36-5.8s0.2 8.3 0 12-0.36 0.58-0.36-5.8zm17-2c0-7.4 0.16-10 0.35-6.8s0.19 9.8 0 14-0.35 0.68-0.35-6.8zm16 1.8-0.21-12-8.5-0.77 4.3-0.18c5.3-0.22 5.4-0.16 5 13l-0.32 11zm-79-2.3c3e-3 -5.5 0.17-7.6 0.37-4.7s0.2 7.4-5e-3 10-0.37 0.22-0.37-5.3zm24 0.5c0-5.2 0.17-7.4 0.38-4.8a73 73 0 0 1 0 9.5c-0.21 2.6-0.38 0.48-0.38-4.8zm17 0c0-5.2 0.17-7.4 0.38-4.8a73 73 0 0 1 0 9.5c-0.21 2.6-0.38 0.48-0.38-4.8zm-34-11c2.4-0.21 6-0.21 8 7e-3s0.12 0.39-4.3 0.38-6.1-0.18-3.7-0.39zm20 0.012c1.8-0.22 4.9-0.22 7-8e-3s0.62 0.4-3.2 0.4-5.5-0.17-3.8-0.39zm56 0.016c1.2-0.24 3.3-0.24 4.5 0s0.22 0.43-2.2 0.43-3.5-0.2-2.2-0.43zm11-61c0.97-0.25 2.3-0.24 3 0.037s-0.12 0.48-1.8 0.46-2.2-0.24-1.2-0.5zm-0.51-14c1.2-0.24 3-0.23 4 0.02s-0.062 0.45-2.3 0.44-3-0.22-1.7-0.46zm-79-6c0.96-0.25 2.5-0.25 3.5 0s0.18 0.46-1.8 0.46-2.7-0.21-1.8-0.46zm79-0.018c1.2-0.24 3-0.23 4 0.02s-0.062 0.45-2.3 0.44-3-0.22-1.7-0.46zm6.5-46c0.22-0.82 1.3-1.6 2.3-1.7 1.3-0.16 1.5-0.044 0.42 0.4-0.82 0.35-1.9 1.1-2.3 1.7-0.53 0.71-0.68 0.56-0.42-0.4zm-76-1.7c0.96-0.25 2.5-0.25 3.5 0s0.18 0.46-1.8 0.46-2.7-0.21-1.8-0.46zm18 0.058c7.2-0.74 16-0.81 16-0.12-1e-3 0.41-4.2 0.68-9.3 0.6s-7.9-0.3-6.2-0.47zm33-0.086c1.7-0.25 2.5-0.85 2.1-1.5-0.4-0.65-0.21-0.8 0.48-0.37 2.2 1.4 1.1 2.6-2.1 2.4-3-0.14-3.1-0.18-0.48-0.57zm11 0.025c0.97-0.25 2.3-0.24 3 0.037s-0.12 0.48-1.8 0.46-2.2-0.24-1.2-0.5z" fill="#969696"/><path d="m55 123c0.97-0.25 2.3-0.24 3 0.037s-0.12 0.48-1.8 0.46-2.2-0.24-1.2-0.5zm47 0.3c0-0.22 1.5-0.57 3.4-0.79s3.2-0.044 2.9 0.39c-0.48 0.78-6.4 1.2-6.4 0.4zm-38-2c0-1.7 4.6-5.6 6.6-5.6 0.89 0 1.4 1.2 1.4 3.5 0 3.4-0.095 3.5-4 3.5-2.8 0-4-0.43-4-1.4zm31-12c0.034-13 0.15-14 2.5-17 2.5-3 2.5-3 2.5 14 4e-3 17 5e-3 17-2.5 17s-2.5 0-2.5-14zm-28-9.2c0-2.1 4.3-5.7 4.8-4.1 0.37 1.1-2.9 6-4.1 6-0.41 0.017-0.75-0.84-0.75-1.9zm-3.7-9.6c1.5-1.9 1.7-5.1 1.7-30v-28h7.1l-0.98 38c-0.03 0.55 0.18 3.5 0.47 6.5 0.52 5.5 0.52 5.5-4.8 10-2.9 2.8-4.5 4.1-3.6 2.9zm34-32c-2.1-0.86-2.2-1.4-2.2-12 0.036-11 0.036-11 2.5-7.8 2.2 2.6 2.5 4 2.5 11 4e-3 6 0.32 8.1 1.2 7.6 0.72-0.44 0.88-0.27 0.44 0.44-0.83 1.3-1.3 1.4-4.3 0.12z" fill="#dc9810"/><path d="m68 123c3.5-0.37 3.8-0.59 3.8-3.8 0-2-0.5-3.4-1.2-3.4-0.64 0-0.86-0.3-0.5-0.67 0.87-0.87 5.7 3.6 5.7 5.3 0 2-3.4 3.4-7.7 3.2l-3.8-0.17zm24 0.023c-3.3-0.63-3.4-9.3-0.13-9.3 1.7 0 2-0.42 1.5-2.2-1.6-5.7-1.7-12-0.2-14 1.4-1.8 1.6-0.88 1.6 12l0.032 14 3.8 0.39c3.8 0.39 3.8 0.39-0.25 0.42-2.2 0.018-5-0.16-6.2-0.4zm-20-27c0-0.61-0.56-0.8-1.2-0.44s0.55-0.94 2.8-2.9c4.3-3.8 5.5-4.4 5.5-2.4 0 0.69-1.6 2.5-3.5 4s-3.5 2.3-3.5 1.7zm-2.8-10c1.6-1.8 2.8-4.4 3-6.6 0.32-3.6 0.32-3.6 2-1.4 1.6 2.2 1.6 2.4-3 6.6-2.6 2.4-3.5 3-2 1.4zm2.6-36c0.29-18 0.29-18 3.8-18s3.5 0 3.5 16 0 16-3.8 18l-3.8 1.9zm21 7.5c-2.8-0.42-2.8-0.42-2.8-13 0-6.8 0.38-12 0.84-12 2.9 0 4 3.8 4.3 15l0.32 11c0-0.084-1.2-0.34-2.8-0.57z" fill="#d66112"/><path d="m73 166c0.04-11 0.31-14 1.5-14 1.1-0.29 1.2-0.16 0.28 0.46-0.82 0.58-1.3 5.1-1.5 14l-0.33 13zm37 1.4c2e-3 -6.6 0.16-9.2 0.36-5.7a122 122 0 0 1-4e-3 12c-0.2 3.1-0.36 0.31-0.36-6.3zm-59-2c2e-3 -6 0.17-8.4 0.37-5.2s0.2 8.1-4e-3 11-0.36 0.26-0.36-5.8zm-20 0.5c0-5.2 0.17-7.4 0.38-4.8a73 73 0 0 1 0 9.5c-0.21 2.6-0.38 0.48-0.38-4.8zm37 0c0-5.2 0.17-7.4 0.38-4.8a73 73 0 0 1 0 9.5c-0.21 2.6-0.38 0.48-0.38-4.8zm21-1.7c0.17-5.9 0.62-11 1-11s0.55 4.4 0.38 11-0.62 11-1 11-0.55-4.8-0.38-11zm-42-10c0-0.78-2.7-1.2-8.2-1.4l-8.2-0.2 7.9-0.34c7.3-0.32 11 0.64 9.3 2.4-0.38 0.38-0.68 0.16-0.68-0.48zm8.7-1.9c1.8-0.22 4.9-0.22 7-8e-3s0.62 0.4-3.2 0.4-5.5-0.17-3.8-0.39zm48-0.017c2.9-0.2 7.4-0.2 10 5e-3s0.22 0.37-5.3 0.37-7.6-0.17-4.7-0.37zm-40-22c-0.76-0.91-3.5-1.6-7.4-1.8-5.3-0.26-6.2-0.57-6.4-2.3-0.16-1.6-0.09-1.6 0.31-0.25 0.41 1.4 1.7 1.8 6.3 1.8 4.5 0 6.2 0.44 7.6 2 1 1.1 1.6 2 1.3 2s-1.1-0.66-1.7-1.5zm26 0.25c-2.3-2.3-1.2-2.8 5-2.6l6.3 0.19-5.8 0.36c-5 0.31-5.6 0.58-4.6 1.8 1.4 1.7 0.84 1.9-0.84 0.25zm-54-3.1c-0.27-0.71-0.36-7.8-0.19-16l0.31-14 0.22 15c0.2 14 0.41 15 2 16 1.6 0.43 1.6 0.46-0.03 0.57-0.98 0.064-2-0.47-2.3-1.2zm42 0.61c0.96-0.25 2.5-0.25 3.5 0s0.18 0.46-1.8 0.46-2.7-0.21-1.8-0.46zm34-0.016c1.2-0.24 3.3-0.24 4.5 0s0.22 0.43-2.2 0.43-3.5-0.2-2.2-0.43zm-67-11c0.97-0.25 2.3-0.24 3 0.037s-0.12 0.48-1.8 0.46-2.2-0.24-1.2-0.5zm5.9-19c0.02-1.6 0.24-2.2 0.5-1.2s0.24 2.3-0.037 3c-0.27 0.68-0.48-0.12-0.46-1.8zm-14-12c0-3 0.19-4.3 0.42-2.8s0.23 4 0 5.5-0.42 0.28-0.42-2.8zm14-16c0.02-1.6 0.24-2.2 0.5-1.2s0.24 2.3-0.037 3-0.48-0.12-0.46-1.8zm-14-10c-0.18-4.1 0.01-7.5 0.42-7.5s0.75 3.4 0.75 7.5c0 9.7-0.75 9.7-1.2-2e-3zm7.9-0.2c1.2-0.24 3-0.23 4 0.02s-0.062 0.45-2.3 0.44-3-0.22-1.7-0.46zm6.4-3.8c0.02-1.6 0.24-2.2 0.5-1.2s0.24 2.3-0.037 3-0.48-0.12-0.46-1.8zm-6.2-10c0-0.5 0.9-0.67 2-0.38s2 0.7 2 0.91-0.9 0.38-2 0.38-2-0.41-2-0.91zm-7.6-10c0-5.2 0.17-7.4 0.38-4.8a73 73 0 0 1 0 9.5c-0.21 2.6-0.38 0.48-0.38-4.8z" fill="#626262"/><path d="m82 119c-2.3-2.5-4.1-4.7-4.1-5s2.7-0.52 6-0.52c6 0 6 0 6 4.4 0 3.8 0.32 4.5 2.2 4.9 1.2 0.24 0.42 0.49-1.9 0.57-3.7 0.12-4.6-0.35-8.2-4.3zm-11-21c0-0.17 1.5-1.6 3.2-3.2l3.2-2.9-2.9 3.2c-2.7 3-3.6 3.7-3.6 2.9zm7.7-8.7c-0.62-2.4 2.9-5.8 4.3-4.3 1.3 1.3 0.42 3.6-2 5.1-1.6 0.98-2 0.86-2.4-0.72zm0.29-42v-16h11v12c0 9 0.34 13 1.2 13 0.69 0.28-0.11 0.54-1.8 0.58s-4.7 1.2-6.8 2.6l-3.7 2.5z" fill="#d02914"/><path d="m24 215c-4.4-2.6-6.1-7.7-4.5-14 1.8-6.7 8.8-10 14-6.4 1.8 1.4 1.5 1.4-2.7 0.88-6.4-0.83-9.8 2.4-9.8 9.1s3.4 10 9.8 9.1c4.3-0.55 4.5-0.48 2.7 0.88-2.3 1.8-6.3 1.9-9.1 0.27zm16-11c0-7.7 0.39-12 1-12 0.55 0 1 2.5 1 5.5 0 5.5 0 5.5 2.8 3.8 5.4-3.1 8.2 0.47 8.2 10 0 7.8-1.8 6.7-2.2-1.2-0.34-7.7-1.9-9.6-6.2-7.6-2.4 1.1-2.6 1.7-2.6 7.7 0 3.7-0.44 6.5-1 6.5-0.61 0-1-4.8-1-12zm20 11c-3.3-3.3 0.064-8.4 5.5-8.4 2.6 0 3-0.34 2.8-2.2-0.28-2-0.88-2.2-4.7-2.2-3.9 0.087-4.2-0.048-2.6-1.2 5.5-4 9.5 0.012 9.4 9.6-0.01 4-0.34 6-0.87 5.2-0.66-1-1.3-1.1-2.9-0.25-2.8 1.5-4.8 1.4-6.6-0.47zm7.2-1.6c3.3-3.3-0.18-6.1-5.2-4.2-1.6 0.61-2.2 3.5-0.92 4.7 1.1 1.1 4.8 0.76 6.1-0.53zm9.2-5.3c0-5 0.41-8.5 1-8.5 0.55 0 1 0.74 1 1.7 0 1.5 0.17 1.5 1.9-0.08 4.8-4.3 9 0.19 9.1 9.7 0.02 8-1.8 7.2-2.2-0.9-0.34-7.7-1.9-9.6-6.2-7.6-2.4 1.1-2.6 1.7-2.6 7.7 0 3.7-0.44 6.5-1 6.5-0.59 0-1-3.5-1-8.5zm19 0c0-5 0.41-8.5 1-8.5 0.55 0 1 0.74 1 1.7 0 1.5 0.17 1.5 1.9-0.08 4.8-4.3 9 0.19 9.1 9.7 0.02 8-1.8 7.2-2.2-0.9-0.34-7.7-1.9-9.6-6.2-7.6-2.4 1.1-2.6 1.7-2.6 7.7 0 3.7-0.44 6.5-1 6.5-0.59 0-1-3.5-1-8.5zm21 6.6c-3.4-2.7-3.4-10 0-13 3.3-2.7 6.6-2.4 9.1 0.72 3.8 4.9 2.9 6.4-3.9 6.4-5.2 0-6 0.25-6 1.9 0 2.9 2.6 4.4 7 4 4.1-0.39 5.4 0.44 2.4 1.6s-6.2 0.62-8.6-1.3zm9.1-9.4c0-2.1-2.2-3.7-5-3.7s-5 1.6-5 3.7c0 0.89 1.6 1.3 5 1.3s5-0.41 5-1.3zm7-1.2c0-7.7 0.39-12 1-12s1 4.8 1 12-0.39 12-1 12-1-4.8-1-12zm-132-16c-0.33-0.86-0.18-2 0.34-2.5 0.57-0.57 31-0.84 79-0.68 77 0.25 78 0.28 78 2.3s-0.75 2-78 2.3c-70 0.23-78 0.098-79-1.3zm24-21c0-8 0.38-13 1-13s1 5 1 13-0.38 13-1 13-1-5-1-13zm7.1 12c-0.76-0.92-1.1-5.2-0.87-13l0.28-11 8.8-0.29c5.6-0.18 8.8 0.09 8.8 0.75 0 0.63-3.1 1-8 1-9.4 0-9.3-0.18-8.8 13l0.3 8 8.2 0.3c6.4 0.23 8.2 0.61 8.2 1.8 0 2-15 2.1-17 0.066zm21 0.082c-0.28-0.72-0.38-6.5-0.22-13l0.28-11h17l0.28 11c0.19 7.5-0.11 12-0.87 13-1.6 1.9-16 2-16 0.082zm16-10c0.47-13 0.48-13-8.1-12l-7.2 0.29-0.57 21 16-0.58 0.3-8zm5.4-1.3c-0.15-10 0.1-13 1-13 0.69 0.012 4.2 5 7.7 11s6.8 11 7.2 11 0.89-5.1 1.1-11c0.32-11 0.32-11 0.53 2 0.16 10-0.087 13-1 13-0.69-0.014-4.4-5.3-8.2-12l-7-12-1.1 24zm35 1-0.2-12h-4.5c-2.5 0-4.5-0.45-4.5-1 0-0.6 3.8-1 9.5-1 9.5 0 13 1.6 5.2 2.2l-4.2 0.31-1.1 24zm21 8.5-5.4-13c-2.2-5.4-3.6-9.7-3-9.5s3.2 5.4 5.7 12 4.8 11 5.2 11 2.6-5.3 5-11c4.9-12 4.8-12 5.6-11 0.33 0.33-1.3 5.2-3.6 11-7.1 17-7.2 17-9.5 12zm-57-36c-9.9-12-9.9-12-16-12-5.3 0-5.8-0.19-6.3-2.6-0.59-2.3-1-2.5-5.4-2.2-4 0.26-4.8 0.64-5 2.6-0.18 1.2-0.96 2.2-1.8 2.2-1.2 0-1.4-2.6-1.4-15v-15l-12-13c-15-17-15-17-13-19 0.84-0.84 1.7-0.65 3.2 0.72 2 1.8 2.1 1.8 4.7-0.12 4-3 5-5 3.5-7.4-0.68-1.1-1.2-2.1-1.2-2.3s3.4-3.2 7.5-6.7l7.5-6.4v-8.8c0-7 0.3-8.8 1.4-8.8 0.79 0 1.6 1 1.8 2.2 0.27 1.9 1 2.3 5 2.6 4.3 0.28 4.8 0.097 5.4-2.2 0.5-2 1.3-2.6 3.7-2.6 2.4 0 5.2-1.9 13-8.6 9.8-8.5 9.8-8.5 12-6.9 2.4 1.6 2.7 1.5 6.1-1.1 3.7-2.8 4.4-5.2 2.3-7.3-0.93-0.93-0.93-1.5 7e-3 -2.4s1.5-0.89 2.5 0.25c0.73 0.8 6.2 7 12 14 8 9.2 11 12 13 12 1.7 0 2.4 0.64 2.7 2.2 0.28 2 0.9 2.2 5.3 2.2s5-0.26 5.3-2.2c0.18-1.2 0.96-2.2 1.8-2.2 1.2 0 1.4 2.1 1.4 11v11l29 33c2.2 2.6-1.2 3.6-3.9 1.2-1.9-1.7-2.1-1.7-4.6 0.18-4 3-5 5-3.5 7.4 0.68 1.1 1.2 2.2 1.2 2.4s-4 3.9-9 8.1l-9 7.8v9.4c0 7.5-0.29 9.4-1.4 9.4-0.79 0-1.6-1-1.8-2.2-0.28-2-0.9-2.2-5.3-2.2s-5 0.26-5.3 2.2c-0.26 1.9-0.95 2.2-3.9 2.2-2.9 0-4.8 1-9.7 5.2l-7.7 6.6c-1.4 1.2-2 1.2-4.2-0.26-2.4-1.6-2.7-1.5-5.6 0.6-3.8 2.8-4.7 5.5-2.7 7.8 1.6 1.8 1.2 3.1-0.9 3.1-0.64 0-5.6-5.2-11-12zm11-3.5c3-2.8 3.1-3.2 1.7-5.2-2-3-6.7-3.4-9.5-0.75-2.8 2.6-2.8 4-0.2 6.8 2.7 2.9 4.1 2.8 8-0.82zm16-5.5c2.4-2.5 2.4-2.5-3.8-2.5-6.5 0-7.6 0.9-4 3.4 3.1 2.2 5.1 1.9 7.8-0.94zm-41-7.3c0-0.45-1.1-1.9-2.5-3.2-2.5-2.4-2.5-2.4-2.5 0.83 0 2.7 0.36 3.2 2.5 3.2 1.4 0 2.5-0.37 2.5-0.83zm17-0.23c1.2-1.9-0.56-6-3.1-7.2-2.2-1-2.9-0.81-5.6 1.9-4.3 4.3-3.3 6.3 3.1 6.3 2.7 0 5.3-0.48 5.6-1.1zm36-2.5 4.4-3.6-0.26-29c-0.3-32-0.06-32-6.9-26-4.3 3.4-5 6.6-1.7 8.9 1.8 1.2 2.2 2.7 2.4 7.3 0.25 6.1-0.45 7.2-4.3 7.3-1.5 0.01-4 2.2-7.9 7-5.7 7-5.7 7-5.2 13 0.26 3.2 0.81 6.5 1.2 7.4 0.65 1.5-0.19 1.7-7.6 2l-8.3 0.29 4.4 4.8c4.4 4.8 4.4 4.8 15 4.8 11 0 11 0 15-3.6zm-61-4.1c1.5-1.5 1.4-1.9-1.9-5.2-4.1-4.1-6.8-3.6-7.4 1.4-0.57 4.9 5.7 7.4 9.3 3.8zm78 0.62c1.8-0.96 2.8-4 1.3-4-1 0-4.3 3.2-4.3 4.2 0 1.1 0.72 1.1 3.1-0.2zm-66-2.7c0.61-0.4 1.8-2.1 2.7-3.8 1.5-3 1.5-3.2-0.79-5.4-2.5-2.4-3.4-2.2-7.3 1.3-2.7 2.4-2.8 4.4-0.6 6.8 1.7 1.9 4.1 2.3 6 1.1zm61-3.7c2.2-2.4 2.2-2.5 0.37-2.5-2.3 0-4.4 1.8-4.4 3.7 0 2 1.4 1.6 4-1.2zm-71-10c1.3-5.2-3.6-8.3-7.1-4.4-1.7 1.9-1.7 2.2-0.17 4.5 2.3 3.5 6.3 3.4 7.2-0.13zm22-3.1c3.3-3.2 7-6.6 8.2-7.5 2.2-1.7 2.5-3.8 0.61-4.4-1.9-0.6-17 14-16 16 0.88 2.3 0.64 2.4 7.3-4.1zm56 2.4c0.43-3.7-1.4-5.7-5.2-5.7-3.9 0-5.6 1.5-5.6 5 0 3.6 0.75 4.1 6 3.8 4.1-0.27 4.6-0.54 4.9-3.1zm8.9-2.8c2.3-2.2 4.2-4.7 4.2-5.4 0-1.1-4.5-7-9.1-12-0.52-0.56-0.89 3.7-0.89 10 0 6.2 0.34 11 0.75 11s2.7-1.8 5-4.1zm-84-1.1c-1-2.1-1.1-2.1-1.2 1.2-0.052 2.6 0.2 3.2 1.1 2.3 0.86-0.86 0.88-1.8 0.068-3.4zm14-9.7c7.1-6 7.4-6.5 5.6-7.8-1.1-0.74-2.5-3.2-3.1-5.4-1.1-3.8-1.1-4.2 1.2-5.9 1.3-1 3.2-1.9 4.2-1.9s1.8-0.47 1.8-1 1.7-2.1 3.9-3.6c4.2-2.8 13-3.7 15-1.6 1.3 1.1 9.7-5.5 9.7-7.7 0-0.59-3.5-5.1-7.7-10l-7.7-9h-16c-16 0-16 0-19 3.1s-3.5 3.1-3.5 28 0 25 2.7 27c3.4 3.6 3.6 3.5 13-4.2zm-32-3.8c-0.71-0.71-4.6 2.8-4.6 4.1 0 0.57 1 2.1 2.2 3.4 2.2 2.4 2.2 2.4 2.6-2.3 0.17-2.6 0.06-4.9-0.24-5.2zm7.8 4.5c0.77-1.2 0.56-2.2-0.83-3.7-2.6-2.9-3.6-2.6-3.6 1.3 0 4.9 2.1 6.1 4.4 2.4zm84-0.4c1-4.1-0.69-5.8-5.7-5.8-4.1 0-4.4 0.2-4.7 2.8-0.54 4.7 0.35 5.7 5.3 5.7 4 0 4.6-0.27 5.2-2.7zm-78-3.1c0-1-2.2-3.2-3.2-3.2-0.44 0-0.25 0.9 0.44 2 1.3 2 2.8 2.7 2.8 1.2zm97-3.2c2.8-2.9 2.8-3.2 1.4-5.8-1.8-3.3-5.4-4-8.1-1.5-3.6 3.2-4 4.9-1.7 7.7 2.7 3.4 4.9 3.3 8.4-0.44zm-115-3c2.9-3 2.9-3 0.83-5.8-2.8-3.8-5-3.9-8.4-0.65-3.3 3.2-3.5 4.1-1.3 7.2s5.5 2.8 8.9-0.78zm17-3.2c1.6-1.6 1.5-5.3-0.23-6.7-0.79-0.65-3.2-1-5.2-0.87-3.4 0.28-3.9 0.66-4.1 3.1-0.18 1.5 0.22 3.5 0.87 4.2 1.4 1.7 7.1 1.9 8.8 0.24zm78 0.44c0.8-1.3-6.4-8.4-7.9-7.8-1.8 0.68-1.9 7.2-0.17 7.9 2 0.8 7.6 0.74 8.1-0.1zm9.8-5.9c3.4-3.2 3.4-4 0.63-7-4-4.3-5.8-3.1-5.8 3.7s0.92 7.4 5.2 3.3zm-101-15c-0.85-0.85-6.5 5-6.5 6.7 0 0.83 1.5 3 3.2 4.9l3.2 3.4 0.3-7.2c0.16-4 0.046-7.4-0.26-7.7zm14 5.7c0.55-0.88 0.69-2.8 0.32-4.3-0.63-2.5-1-2.7-5.4-2.4-4.3 0.28-4.7 0.53-5 3.1-0.18 1.5 0.23 3.5 0.91 4.3 1.6 1.9 7.9 1.4 9.2-0.71zm77-2.8c2.6-2.9 0.97-4.3-4.6-3.9-5.2 0.37-6.6 3.5-2.8 6.2 2.4 1.7 4.2 1.2 7.3-2.3zm-13-14c0.34-6.5-0.67-7.2-5.2-3.7-3.2 2.5-3.3 4.6-0.43 7.6 3.6 3.8 5.2 2.6 5.6-4zm-65 3.7c1.6-1.6 2.2-4.5 0.82-4.4-0.92 0.04-6.2 4.7-6.2 5.4 0 1.2 4 0.45 5.4-1zm80-4c0-1.7-0.8-2.9-2.5-3.7-3.5-1.6-4-0.48-1.4 3.1 2.8 3.7 3.9 3.9 3.9 0.56zm-86-2c0.7-0.84 0.99-1.8 0.65-2.1-0.73-0.73-3.7 1.5-3.7 2.8 0 1.4 1.6 1 3-0.65zm62-5.5c1.8-2 1.7-2-2.8-2-4.8 0-5.6 0.67-3.5 2.8 1.8 1.8 4.3 1.5 6.3-0.8zm-20-7.6c0-1.6-6.6-8.4-8.1-8.4-1.8 0-11 6.8-11 8.2-0.035 0.41 4.2 0.75 9.4 0.75s9.5-0.25 9.5-0.56zm21-0.69c-0.62-1.9-4.2-2.1-5.7-0.3-1.1 1.4-0.81 1.5 2.4 1.5 2.5 0 3.6-0.4 3.3-1.2zm-11-3.9c3.5-2.6 3.7-4.6 0.92-7.6-2.4-2.6-3.3-2.7-6.5-0.55-4 2.6-4.7 4.8-2.3 7.8 2.5 3.2 4.1 3.3 7.9 0.42z" fill="#020202"/></svg>
