<svg version="1.1" viewBox="0 0 221 35" xmlns="http://www.w3.org/2000/svg"><g transform="translate(-21 -22)"><path d="m82 35c1.4-3.2 3.7-5 7.4-5 4.5 0 7 2.9 7 7.4v13h-1.6v-12c0-3.8-1.3-6.8-5.8-6.8-2.6 0-4.7 1.2-5.9 3.3-0.78 1.4-1.1 2.9-1.1 5.5v10h-1.6v-20h1.5z"/><path d="m118 40c0 6.4-3.6 10-9.3 10-5.7 0-9.3-4.2-9.3-11 0-6.4 3.7-11 9.4-11 5.6-1e-3 9.2 4.2 9.2 11zm-17-0.12c0 5.6 3 9.2 7.8 9.2 4.6 0 7.6-3.6 7.6-9.1 0-5.7-3-9.4-7.6-9.4s-7.7 3.7-7.7 9.2z"/><path d="m123 26h-1.6v-4h1.6zm0 24h-1.6v-20h1.6z"/><path d="m141 36c-0.31-3.7-2.5-5-6.2-5-3.3 0-5.4 1.5-5.4 3.9 0 3.1 3.1 3.5 6.4 4.2 3.2 0.74 7.4 1.6 7.4 5.8 0 3.5-3.2 5.9-7.9 5.9-5.1 0-8.2-2.7-8.2-7.4h1.6c0 4 2.5 6 6.7 6 3.7 0 6.3-1.8 6.3-4.4 0-3.2-3.8-3.8-6.2-4.4-3.2-0.74-7.7-1.3-7.7-5.6 0-3.4 2.7-5.4 7.3-5.4 4.5 0 7.5 2.1 7.6 6.4z"/><path d="m151 50c-1.4 2.6-2.3 4-3.1 5-1.3 1.8-2.5 2.4-4.7 2.4-0.55 0-0.78-0.039-1.5-0.12l0.31-1.4c0.74 0.039 0.86 0.039 1.3 0.039 2.4 0 3.4-1.4 4.5-3.4l1.4-2.4-3.9-20h1.6l2.5 13c0.16 0.78 0.67 3.7 0.94 5.6 0.86-1.8 1.8-3.5 2.8-5.2l7.4-13h1.8z"/><path d="m165 35c1.3-3.5 3.8-5.3 7.5-5.3 5.4 0 9 4.2 9 11 0 6.4-3.6 11-8.9 11-3.7 0-6.4-1.9-7.4-5.2v12h-1.6v-27h1.5v4.8zm0 5.4c0 4.7 2.2 9.2 7.4 9.2 4.5 0 7.4-3.7 7.4-9.3 0-5.8-2.9-9.4-7.4-9.4-4.7-1e-3 -7.4 3.5-7.4 9.4z"/><path d="m194 51c-5.5 0-9.1-4.1-9.1-10 0-6.4 3.7-11 9.1-11 6 0 8.8 4.9 8.8 10v0.55h-16c0 4.6 2.2 9 7.5 9 3.7 0 6.2-2.2 7-6.1h1.6c-0.7 4.4-3.8 7.5-8.6 7.5zm0-20c-4.9 0-7 3.8-7.5 8.1h15c0-4.1-2.3-8.1-7.2-8.1z"/><path d="m223 50c-0.55 0.2-0.98 0.23-1.6 0.23-1.8 0-2.3-0.78-2.3-3.4v-0.98c-1.7 3.3-4 4.8-7.8 4.8-4.2 0-6.6-2.1-6.6-5.6 0-4.5 3.8-5.8 7.7-6.1 5.2-0.43 5.8-0.51 6.4-1.4 0.24-0.35 0.27-1.2 0.27-2.1 0-3-2-4.6-5.7-4.6-3.7 0-5.8 1.8-6.1 5.4h-1.5c0.27-4.3 3-6.7 7.7-6.7 2.6 0 4.7 0.74 6 2.2 1.2 1.3 1.1 3 1.1 4.7v10c0 1.2 0 2.2 1.4 2.2 0.35 0 0.55-0.039 1-0.16v1.3zm-5.4-10c-2.9 0.9-6.1 0.43-9 1.7-1.5 0.66-2.3 2-2.3 3.7 0 2.7 2 4.4 5.2 4.4 4.3 0 7.5-3 7.5-7v-3.5c-0.47 0.43-0.66 0.55-1.4 0.74z"/><path d="m233 38 9.4 13h-2l-8.6-11-4.5 3.9v7.6h-1.6v-28h1.6v18c0.55-0.47 1.1-0.98 1.6-1.4l11-9.2h2.2z"/><rect x="21" y="46" width="3.8" height="3.8"/><rect x="28" y="46" width="3.8" height="3.8"/><rect x="36" y="46" width="3.8" height="3.8"/><rect x="44" y="46" width="3.8" height="3.8"/><rect x="52" y="46" width="3.8" height="3.8"/><rect x="59" y="46" width="3.8" height="3.8"/><rect x="28" y="39" width="3.8" height="3.8"/><rect x="36" y="39" width="3.8" height="3.8"/><rect x="44" y="39" width="3.8" height="3.8"/><rect x="52" y="39" width="3.8" height="3.8"/><rect x="36" y="31" width="3.8" height="3.8"/><rect x="44" y="31" width="3.8" height="3.8"/></g></svg>
