<svg version="1.1" viewBox="0 0 1140.2667 257.97333" xml:space="preserve" xmlns="http://www.w3.org/2000/svg"><g transform="matrix(1.3333 0 0 -1.3333 0 257.97)"><g transform="scale(.1)"><g fill="#181615"><path d="m433 1013.8h232c184 0 286 125 286 259 0 171-115 262-286 262h-232zm-433 689c0 139 104 216 216 216h531c334 0 651-216 651-646 0-371-227-643-638-643h-327v-398c0-152-91-230-216-230s-216 77-216 230v1471h-1"/><path d="m3409 1704.8c0 152 91 230 216 230 115 0 155-51 299-232l718-900h5v902c0 152 91 230 216 230s217-77 217-230v-1474c0-152-91-230-216-230-115 0-158 51-299 232l-718 900h-5v-902c0-152-91-230-216-230s-216 77-216 230v1474h-1"/><path d="m5289 1704.8c0 152 91 230 216 230 115 0 155-51 299-232l718-900h5v902c0 152 91 230 216 230s217-77 217-230v-1474c0-152-91-230-216-230-115 0-158 51-299 232l-718 900h-5v-902c0-152-91-230-216-230s-216 77-216 230v1474h-1"/><path d="m7566 909.84-374 502c-136 190-179 243-179 331 0 115 101 192 230 192 117 0 174-83 219-147l320-457 320 457c46 64 102 147 220 147 128 0 230-77 230-192 0-88-43-142-179-331l-374-502v-678c0-152-91-230-216-230s-216 77-216 230v678h-1"/></g><path d="m3142 368.84c96-118 74-236-24-315-98-79-217-76-313 42l-1210 1470c-96 118-74 236 24 315s217 76 313-42l1210-1470" fill="#cf7735"/></g></g></svg>
