
<svg viewBox="0 0 605 98" version="1.1" xmlns="http://www.w3.org/2000/svg" xmlns:xlink="http://www.w3.org/1999/xlink">
    <g id="Page-1" stroke="none" stroke-width="1" fill="none" fill-rule="evenodd">
        <g id="Viewster" fill="#F5971A" fill-rule="nonzero">
            <path d="M41.533,97.201 C35.353,96.955 29.162,96.856 22.996,96.403 C19.805,96.169 16.602,95.524 13.506,94.688 C6.834,92.885 3.162,88.153 1.856,81.579 C1.133,77.941 0.597,74.224 0.439,70.523 C0.115,62.924 -0.037,55.31 0.008,47.704 C0.041,42.03 0.378,36.357 1.669,30.774 C3.452,23.065 8.292,18.642 15.896,16.979 C21.404,15.775 26.994,15.461 32.604,15.336 C35.6,15.269 38.602,15.075 41.593,15.175 C48.001,15.39 54.416,15.608 60.802,16.136 C63.635,16.37 66.472,17.156 69.189,18.049 C75.019,19.966 78.476,24.246 79.832,30.089 C80.67,33.697 81.301,37.416 81.448,41.109 C81.748,48.672 81.81,56.252 81.685,63.82 C81.583,69.993 81.229,76.165 79.744,82.224 C77.887,89.798 73.052,94.051 65.539,95.552 C60.316,96.596 55.033,96.886 49.729,96.954 C46.999,96.991 41.535,97.121 41.533,97.201 Z M31.812,35.553 C28.551,35.554 26.834,36.753 25.834,39.018 C24.535,41.958 24.166,45.113 24.125,48.251 C24.048,54.161 24.065,60.082 24.373,65.982 C24.502,68.457 25.227,70.982 26.122,73.316 C27.172,76.054 29.511,77.105 32.397,76.568 C33.786,76.31 35.203,76.004 36.494,75.453 C44.343,72.104 51.663,67.83 58.386,62.568 C59.404,61.771 60.31,60.787 61.111,59.766 C63.139,57.18 63.105,54.77 60.996,52.235 C60.142,51.209 59.172,50.234 58.104,49.439 C51.294,44.372 43.994,40.129 36.18,36.81 C34.575,36.13 32.808,35.832 31.812,35.553 Z M364.539,51.312 C364.605,51.398 364.706,51.476 364.731,51.573 C364.826,51.945 364.916,52.319 364.972,52.698 C366.425,62.65 368.182,72.544 370.588,82.314 C371.197,84.788 372.256,85.633 374.826,85.646 C379.709,85.67 384.592,85.617 389.475,85.672 C391.404,85.694 392.626,84.862 393.227,83.085 C393.867,81.195 394.579,79.318 395.049,77.384 C398.248,64.225 401.414,51.057 404.536,37.88 C405.278,34.748 405.912,31.582 406.407,28.402 C406.716,26.412 405.999,25.744 403.959,25.732 C399.461,25.706 394.962,25.709 390.464,25.729 C388.647,25.737 387.917,26.398 387.613,28.221 C387.373,29.659 387.178,31.104 386.945,32.544 C385.249,43.035 383.549,53.526 381.843,64.016 C381.794,64.317 381.663,64.604 381.57,64.898 C381.461,64.896 381.352,64.895 381.243,64.893 C381.095,64.281 380.925,63.673 380.803,63.055 C378.71,52.518 376.628,41.979 374.532,31.443 C374.153,29.538 373.33,28.758 371.38,28.736 C366.653,28.683 361.924,28.699 357.197,28.746 C355.677,28.761 354.949,29.375 354.606,30.877 C354.274,32.332 354.118,33.827 353.846,35.297 C352.177,44.311 350.5,53.325 348.815,62.336 C348.652,63.208 348.417,64.067 348.215,64.933 C348.07,64.937 347.925,64.941 347.781,64.946 C347.637,64.396 347.449,63.853 347.355,63.295 C345.415,51.717 343.488,40.136 341.554,28.557 C341.222,26.567 340.301,25.755 338.277,25.73 C335.894,25.701 333.509,25.717 331.126,25.721 C329.011,25.724 326.896,25.697 324.783,25.756 C323.15,25.802 322.488,26.542 322.521,28.142 C322.53,28.599 322.581,29.064 322.681,29.51 C325.033,40.07 327.272,50.658 329.795,61.178 C331.511,68.337 333.573,75.416 335.59,82.499 C336.317,85.05 337.339,85.645 339.997,85.653 C344.611,85.666 349.225,85.665 353.839,85.654 C356.607,85.647 357.583,84.989 358.119,82.319 C360.044,72.731 361.884,63.125 363.756,53.526 C363.903,52.772 364.051,52.018 364.199,51.265 C364.312,51.279 364.425,51.296 364.539,51.312 Z M541.523,62.35 C536.793,62.35 532.062,62.382 527.333,62.327 C526.191,62.314 525.898,62.713 525.932,63.797 C526.061,67.901 527.949,70.087 532.042,70.737 C536.527,71.449 541.01,71.239 545.475,70.603 C548.094,70.23 550.69,69.695 553.295,69.227 C554.934,68.933 556.018,69.599 556.32,71.248 C556.844,74.117 557.323,76.995 557.751,79.879 C558.038,81.814 557.446,82.781 555.53,83.526 C551.639,85.038 547.562,85.789 543.441,86.309 C538.351,86.951 533.244,86.968 528.139,86.534 C524.604,86.233 521.147,85.531 517.868,84.117 C511.672,81.444 508.352,76.528 507.19,70.075 C506.723,67.48 506.523,64.815 506.455,62.176 C506.344,57.872 506.363,53.561 506.473,49.256 C506.574,45.325 507.235,41.468 508.597,37.753 C510.981,31.255 515.68,27.351 522.308,25.786 C529.357,24.122 536.478,24.037 543.565,25.553 C551.87,27.33 556.436,32.783 557.977,40.897 C558.533,43.825 558.763,46.832 558.913,49.814 C559.073,52.998 558.984,56.196 558.96,59.388 C558.945,61.373 558.054,62.3 556.059,62.316 C551.214,62.355 546.368,62.329 541.523,62.329 C541.523,62.337 541.523,62.343 541.523,62.35 Z M533.158,49.743 C535.269,49.743 537.38,49.743 539.491,49.743 C540.512,49.743 541.078,49.268 541.074,48.211 C541.068,46.906 541.122,45.597 541.038,44.298 C540.817,40.914 539.332,38.872 536.559,38.424 C534.99,38.171 533.341,38.129 531.76,38.296 C528.28,38.663 526.587,40.42 526.187,43.919 C526.009,45.476 526.043,47.055 525.941,48.622 C525.886,49.464 526.198,49.78 527.058,49.761 C529.089,49.714 531.124,49.745 533.158,49.743 Z M302.898,62.35 C298.168,62.35 293.439,62.348 288.709,62.352 C287.249,62.353 287.156,62.459 287.209,63.936 C287.353,67.892 289.031,70.066 292.98,70.633 C295.925,71.056 298.969,71.246 301.926,71.007 C306.158,70.665 310.353,69.854 314.559,69.211 C316.195,68.961 317.28,69.649 317.564,71.267 C318.028,73.913 318.481,76.56 318.912,79.212 C319.345,81.874 318.779,82.856 316.212,83.756 C311.729,85.327 307.084,86.15 302.366,86.546 C297.416,86.962 292.445,87.076 287.535,86.276 C284.715,85.816 281.863,85.156 279.217,84.104 C272.72,81.52 269.414,76.299 268.352,69.608 C267.879,66.625 267.66,63.572 267.66,60.551 C267.66,55.408 267.735,50.251 268.132,45.127 C268.489,40.522 269.899,36.157 272.764,32.409 C275.826,28.403 280.098,26.426 284.9,25.489 C291.373,24.226 297.865,24.167 304.352,25.463 C312.713,27.133 317.534,32.365 319.133,40.555 C319.791,43.925 319.959,47.404 320.169,50.844 C320.328,53.449 320.204,56.071 320.2,58.686 C320.195,61.636 319.498,62.338 316.509,62.347 C311.973,62.358 307.435,62.349 302.898,62.35 Z M294.453,49.745 C296.491,49.745 298.53,49.756 300.568,49.741 C301.88,49.731 302.328,49.348 302.346,48.031 C302.366,46.536 302.357,45.026 302.179,43.545 C301.816,40.536 300.347,38.835 297.726,38.395 C296.447,38.18 295.119,38.086 293.826,38.163 C289.855,38.4 288.009,40.002 287.438,43.795 C287.188,45.455 287.279,47.166 287.213,48.854 C287.185,49.568 287.566,49.761 288.223,49.754 C290.3,49.729 292.377,49.744 294.453,49.745 Z M442.668,85.621 C449.685,83.812 454.532,79.71 455.619,72.31 C456.132,68.819 456.02,65.181 455.747,61.643 C455.365,56.698 452.774,52.995 448.116,51.13 C445.358,50.026 442.414,49.367 439.53,48.598 C436.716,47.847 433.84,47.318 431.053,46.486 C429.211,45.936 428.57,44.777 428.684,43.123 C428.802,41.43 429.57,40.577 431.519,40.162 C435.305,39.356 439.093,39.763 442.86,40.312 C445.287,40.666 447.684,41.233 450.111,41.586 C451.605,41.803 452.166,41.339 452.39,39.845 C452.823,36.962 453.14,34.062 453.583,31.18 C454.124,27.662 453.916,27.092 450.4,26.476 C445.985,25.703 441.533,25.015 437.067,24.697 C431.778,24.321 426.462,24.436 421.3,25.98 C415.315,27.77 411.27,31.474 409.827,37.707 C409.01,41.233 409.124,44.826 409.361,48.382 C409.757,54.322 412.793,58.453 418.453,60.496 C420.181,61.12 421.959,61.618 423.738,62.081 C427.227,62.989 430.759,63.739 434.221,64.736 C436.19,65.303 436.625,66.214 436.543,68.302 C436.483,69.827 435.731,70.953 433.932,71.184 C431.326,71.519 428.616,71.846 426.046,71.486 C422,70.919 418.02,69.834 414.039,68.858 C411.689,68.282 410.589,68.797 410.072,71.137 C409.443,73.983 408.865,76.841 408.294,79.7 C407.866,81.845 408.314,82.672 410.307,83.47 C411.054,83.769 411.822,84.025 412.596,84.248 C418.762,86.028 425.069,86.774 433.305,86.818 C435.256,86.864 438.998,86.568 442.668,85.621 Z M206.41,64.728 C206.248,64.359 206.055,63.999 205.929,63.618 C205.52,62.378 205.106,61.138 204.746,59.884 C201.735,49.407 198.73,38.929 195.738,28.447 C195.117,26.271 194.502,25.735 192.253,25.727 C188.023,25.711 183.792,25.697 179.562,25.739 C177.155,25.763 176.321,26.893 176.881,29.247 C179.526,40.358 183.061,51.199 186.983,61.91 C189.571,68.977 192.424,75.947 195.158,82.96 C195.806,84.621 196.953,85.631 198.798,85.637 C203.836,85.652 208.874,85.655 213.912,85.638 C215.48,85.633 216.625,84.9 217.272,83.447 C217.491,82.956 217.71,82.465 217.912,81.967 C223.349,68.574 227.813,54.846 231.977,41.016 C233.227,36.863 234.381,32.679 235.518,28.493 C235.923,27.001 235.2,26.02 233.674,25.786 C233.183,25.711 232.677,25.724 232.177,25.723 C228.331,25.718 224.485,25.716 220.64,25.722 C217.878,25.726 217.317,26.286 216.608,28.944 C213.522,40.513 210.377,52.065 207.245,63.622 C207.142,64.003 206.948,64.36 206.797,64.728 C206.667,64.727 206.539,64.728 206.41,64.728 Z M467.197,59.584 C467.347,64.419 467.312,69.271 467.737,74.083 C468.155,78.818 470.514,82.472 475.2,84.116 C477.028,84.757 478.993,85.262 480.914,85.337 C486.864,85.567 492.824,85.583 498.78,85.629 C500.65,85.643 501.633,84.762 501.678,82.919 C501.764,79.461 501.759,75.997 501.679,72.539 C501.638,70.754 500.67,69.924 498.882,69.824 C498.307,69.792 497.729,69.803 497.152,69.792 C494.963,69.753 492.758,69.862 490.588,69.637 C487.703,69.338 486.718,68.124 486.711,65.229 C486.691,57.499 486.715,49.77 486.686,42.04 C486.683,41.149 486.931,40.828 487.854,40.842 C491.007,40.889 494.161,40.867 497.314,40.855 C499.12,40.848 499.888,40.356 499.962,38.553 C500.108,35.026 500.105,31.484 499.962,27.956 C499.89,26.184 499.189,25.739 497.393,25.727 C494.24,25.705 491.086,25.69 487.933,25.734 C486.983,25.747 486.67,25.441 486.683,24.481 C486.732,21.021 486.707,17.559 486.7,14.098 C486.695,11.437 485.718,10.363 483.029,10.321 C478.992,10.258 474.953,10.263 470.916,10.318 C468.105,10.357 467.207,11.323 467.195,14.116 C467.181,17.615 467.152,21.116 467.214,24.614 C467.232,25.636 466.852,26.029 465.904,26.231 C463.916,26.655 461.943,27.155 459.976,27.67 C458.116,28.156 457.558,28.851 457.529,30.765 C457.49,33.264 457.487,35.764 457.517,38.263 C457.539,40.136 458.256,40.83 460.124,40.853 C462.008,40.876 463.895,40.919 465.776,40.838 C466.897,40.79 467.225,41.175 467.213,42.278 C467.161,46.892 467.191,51.507 467.191,56.122 C467.192,57.277 467.162,58.432 467.197,59.584 Z M130.37,42.936 C130.112,40.606 129.427,38.266 128.57,36.074 C127.459,33.233 125.129,31.784 122.069,32.208 C119.776,32.525 117.423,33.017 115.311,33.927 C106.88,37.56 99.011,42.22 91.679,47.74 C89.981,49.018 88.448,50.607 87.134,52.284 C85.126,54.846 85.135,57.584 87.156,60.128 C88.432,61.734 89.944,63.232 91.592,64.451 C98.907,69.864 106.803,74.325 115.043,78.158 C116.975,79.057 119.07,79.68 121.152,80.163 C125.056,81.068 127.634,79.622 129.097,75.89 C129.473,74.93 129.853,73.925 129.954,72.912 C130.5,67.457 130.958,61.992 131.363,57.466 C131.009,51.97 130.868,47.433 130.37,42.936 Z M581.74,31.237 C581.473,30.276 581.25,29.303 580.962,28.349 C580.38,26.42 579.56,25.771 577.548,25.74 C575.049,25.702 572.549,25.697 570.05,25.734 C567.546,25.772 566.678,26.69 566.677,29.197 C566.674,36.157 566.676,43.117 566.676,50.077 C566.676,60.806 566.673,71.534 566.679,82.263 C566.68,84.56 567.659,85.565 569.951,85.639 C570.95,85.671 571.95,85.653 572.95,85.654 C576.142,85.655 579.333,85.672 582.525,85.647 C585.202,85.626 586.141,84.673 586.171,82.032 C586.175,81.648 586.173,81.263 586.173,80.878 C586.173,71.149 586.164,61.42 586.185,51.691 C586.188,50.505 586.289,49.311 586.444,48.133 C586.851,45.047 588.522,42.979 591.55,42.12 C592.505,41.849 593.496,41.617 594.482,41.562 C596.935,41.424 599.394,41.403 601.851,41.323 C603.632,41.265 604.215,40.744 604.52,38.968 C604.565,38.704 604.611,38.435 604.612,38.169 C604.619,35.093 604.649,32.016 604.606,28.94 C604.572,26.452 603.809,25.732 601.319,25.722 C598.935,25.713 596.548,25.665 594.168,25.761 C589.508,25.949 585.552,27.564 582.887,31.63 C582.73,31.869 582.502,32.062 582.16,32.44 C581.976,31.919 581.836,31.584 581.74,31.237 Z M240.134,82.097 C240.136,84.687 241.061,85.63 243.681,85.646 C247.755,85.671 251.829,85.67 255.903,85.648 C258.633,85.633 259.553,84.704 259.639,81.973 C259.649,81.666 259.642,81.358 259.642,81.051 C259.642,74.594 259.642,68.137 259.642,61.681 C259.642,51.035 259.647,40.389 259.638,29.743 C259.635,26.657 258.721,25.735 255.663,25.724 C251.704,25.709 247.746,25.702 243.787,25.728 C241.015,25.746 240.133,26.654 240.132,29.405 C240.128,38.168 240.131,46.931 240.131,55.693 C240.132,64.495 240.128,73.296 240.134,82.097 Z M249.797,0.135 C248.876,0.135 247.951,0.084 247.034,0.144 C243.403,0.381 240.684,2.483 239.77,5.861 C239.006,8.683 239.011,11.555 239.63,14.41 C240.4,17.967 242.632,20.096 246.212,20.551 C248.367,20.825 250.593,20.91 252.75,20.704 C256.796,20.316 259.382,18.128 260.014,14.448 C260.399,12.207 260.494,9.839 260.239,7.582 C259.747,3.218 257.449,0.942 253.242,0.218 C252.115,0.024 250.947,0.066 249.798,0 C249.798,0.045 249.798,0.09 249.797,0.135 Z" id="Shape"></path>
        </g>
    </g>
</svg>