<svg xmlns="http://www.w3.org/2000/svg" viewBox="0 0 3000 4760" preserveAspectRatio="xMidYMid meet"><path d="M0 4630v-130h24c20 0 34 15 73 77l48 78 6-155h59l-3 130-2 130h-30c-27 0-36-9-83-83l-53-82 6 83 6 82H0v-130zm486 2v-127l82-3c82-3 82-3 82 23 0 24-3 25-55 25-54 0-55 0-55 30 0 29 2 30 46 30 41 0 45 2 42 23-2 18-10 23-45 25-40 3-43 5-43 33v30l55-6c54-7 55-7 55 19s0 26-82 26h-83l1-128zm462 23l4-105h-36c-32 0-36-3-36-25 0-25 0-25 95-25s95 0 95 25c0 22-4 25-35 25h-35v210h-55l3-105zm387-8c-42-135-43-147-12-147 21 0 27 10 51 93l28 92 20-55c17-51 18-73 2-114-5-12 0-16 23-16 29 0 31 3 58 96l28 95 31-95c27-83 34-96 54-96 12 0 22 6 22 13s-17 64-38 127c-37 111-40 115-69 118s-32 0-50-53l-19-57-17 56c-16 51-21 56-47 56-29 0-30-3-65-113zm561 82c-22-26-26-40-26-96 0-61 2-67 34-99 29-29 41-34 81-34s52 5 81 34c30 30 34 40 34 85 0 61-20 115-48 130-12 6-45 11-75 11-49 0-58-3-81-31zm126-26c24-21 25-114 2-137-19-19-68-21-82-3-27 33-20 129 10 149 21 13 50 9 70-9zm338-73v-130h58c76 0 105 16 116 63 8 32 6 42-12 67-27 36-27 36 3 76 33 43 32 54-5 54-24 0-34-7-52-40-31-54-55-54-50 0 4 39 3 40-27 40h-31v-130zm112-25c13-28-3-55-32-55-14 0-19 10-22 40-3 36-1 40 19 40 15 0 27-9 35-25zm338 25v-130h24c23 0 25 4 28 52l3 52 40-52c31-41 45-52 67-52 36 0 35 8-5 56-63 76-62 66-12 127 25 31 45 60 45 66s-13 11-28 11c-22 0-36-11-67-52l-40-52-3 52c-3 48-5 52-28 52h-24v-130zM0 4288c0-12 25-112 56-220l57-198h102l57 203c32 112 58 211 58 220 0 14-10 17-49 17h-49l-12-51-12-50-46 3c-46 3-46 3-57 48s-11 45-58 48c-43 3-47 1-47-20zm177-198c-11-41-19-38-31 13-6 24-3 27 17 27 23 0 24-2 14-40zm200 213c-4-3-7-102-7-220v-213h100v349l78 3 77 3 3 43 3 42H507c-68 0-127-3-130-7zm310 0c-4-3-7-102-7-220v-213h100v349l78 3 77 3 3 43 3 42H817c-68 0-127-3-130-7zm525-13c-60-37-72-70-72-206 0-109 2-124 23-155 75-113 277-80 277 46 0 23-4 25-42 25-37 0-45-4-60-30-12-21-25-30-42-30-43 0-56 33-56 145 0 111 13 145 55 145 44 0 55-10 55-51 0-38-1-39-35-39-33 0-35-2-35-35v-35h170v88c0 79-2 91-22 110-50 46-157 58-216 22zm370 0c-65-40-72-65-72-252v-168h100v163c0 146 2 166 18 180 23 21 56 22 76 1 13-13 16-44 16-180v-164h100v166c0 190-8 218-69 252-50 28-124 29-169 2zm315 13c-4-3-7-102-7-220v-213h100v440h-43c-24 0-47-3-50-7zm233-173v-180h-90v-80h290v80h-100v360h-100v-180zm200 163c0-9 26-108 58-220l57-203h102l121 423c4 16-1 18-48 15l-53-3-14-47c-14-48-14-48-57-48h-44l-24 100h-49c-39 0-49-3-49-17zm184-190c-16-64-20-66-31-19-10 45-10 46 14 46 20 0 23-3 17-27zm196-12v-221h94c80 0 98 3 127 23 60 40 73 124 28 182-11 14-15 25-9 25 18 0 37 60 43 138l6 72h-44c-53 0-65-16-65-85 0-62-14-85-50-85h-29l-6 165-47 3-48 3v-220zm143-40c31-12 41-40 28-75-8-20-17-26-41-26-30 0-30 0-30 55 0 58 3 61 43 46zm-1463-541c-575-73-991-590-930-1155 26-246 118-448 281-620 97-102 183-166 304-225 80-40 260-100 298-100 4 0 7 11 7 25 0 19-6 26-27 30-385 82-669 345-779 720-35 122-44 311-20 438 66 346 296 628 617 755 369 146 793 58 1074-223 86-85 144-168 201-289 68-143 88-242 88-421 0-133-3-161-27-248-99-360-368-627-723-717-87-22-94-26-94-46 0-25 23-25 125 1 359 91 657 386 755 750 33 121 39 357 12 485-86 415-410 739-824 824-95 20-253 27-338 16zm158-227l-48-4v-449h-83c-88 0-107-8-107-46 0-29 17-34 111-34h79v-200h-180v-160h180v-220h-180v-160h183L1490 21l43-5c23-3 75-8 115-11 68-6 73-5 68 12-2 10-11 38-17 63-17 57-17 282-1 335 12 40 12 40-28 75l-40 35 1 360 8 620c6 225 9 265 25 298 26 53 58 71 123 71 52 0 57-2 99-47 49-53 62-56 90-26 33 37 25 136-20 244-61 147-61 148-43 197 9 24 48 81 87 127 226 272 241 557 41 773-108 118-255 159-493 141zm132-493c0-18-7-20-79-20-70 0-79 2-84 20-5 19 0 20 79 20 77 0 84-2 84-20zm-32-287c3-10-14-13-62-13-53 0-66 3-66 15 0 13 11 15 62 13 38-2 63-8 66-15zm0-65c-3-8-28-14-66-16-51-2-62 0-62 13 0 12 13 15 66 15 48 0 65-3 62-12zm22-353v-65h-155l3 65 4 65h148v-65zM1267 403c-12-12-7-60 8-73 34-28 77 18 55 60-10 19-49 28-63 13zm464-7c-18-21-6-63 20-71 29-10 51 13 47 49-2 25-8 32-29 34-14 2-31-4-38-12zm-459-105c-8-5-12-22-10-42 2-29 7-34 30-37 21-3 30 2 39 21 20 45-19 84-59 58zm457-12c-8-16-8-28 0-45 18-41 71-25 71 21 0 44-50 61-71 24zm-465-113c-3-8-4-27-2-43 2-22 9-29 30-31 35-4 57 33 39 67-13 24-59 29-67 7zm465-7c-8-16-8-28 0-45 18-41 71-25 71 21 0 44-50 61-71 24z"/></svg>