<svg version="1.1" viewBox="0 0 78 32" xmlns="http://www.w3.org/2000/svg"><path d="m25.8 23.292l-8.051-23.322h7.024l4.817 14.276 2.889-14.276 3.165 0.03 3.165-0.03 2.889 14.276 4.816-14.276h7.024l-8.045 23.322h-6.986l-2.863-13.55-2.855 13.55h-6.988zm-18.178-0.012l-7.622 0.015 8.335-23.294 3.881 0.015 3.886-0.015 8.33 23.294-7.622-0.015-0.874-3.027h-7.442l-0.874 3.027zm2.284-7.914h4.62l-2.31-8.002-2.31 8.002zm44.469 7.929l4.359-12.662 4.677 12.662h6.422l8.032-23.326-7.14 0.03-4.477 13-3.729-12.999h-7.161l-8.01 23.294h7.027zm-22.801 4.671h-1.489v0.236h1.489v-0.236zm34.951 0h-1.489v0.236h1.489v-0.236zm-38.9 0h-1.489v0.236h1.489v-0.236zm13.563 0h-1.489v0.236h1.489v-0.236zm-3.947 2e-3h-1.49v1.163h1.49v-1.163zm25.337 0h-1.49v1.163h1.49v-1.163zm-56.339-2e-3h-1.491v0.236h1.49v-0.236zm17.438 0h-1.49v0.236h1.49v-0.236zm-23.493-2.857h74.857v6.88h-74.857v-6.88zm68.028 4.711c0 7e-3 4e-3 0.01 0.013 0.01h0.754c8e-3 0 0.013-3e-3 0.013-0.01v-0.901c0.017 5e-3 0.243 0.142 0.679 0.413 0.541 0.333 0.818 0.498 0.831 0.498h0.737c8e-3 0 0.013-3e-3 0.013-0.01v-0.322l-6e-3 -0.01c-0.645-0.377-0.972-0.572-0.983-0.586v-0.704c1e-3 -5e-3 0.054-0.039 0.158-0.104 0.531-0.307 0.809-0.472 0.831-0.494v-0.322c0-6e-3 -4e-3 -0.01-0.013-0.01h-0.743c-0.088 0.05-0.587 0.354-1.498 0.911h-6e-3v-0.901c0-6e-3 -4e-3 -0.01-0.013-0.01h-0.756c-7e-3 0-0.011 3e-3 -0.013 0.01v2.542zm-3.95 0c0 7e-3 4e-3 0.01 0.013 0.01h0.75c7e-3 0 0.01-3e-3 0.01-0.01v-0.901c0.018 5e-3 0.245 0.142 0.681 0.413 0.542 0.333 0.819 0.498 0.831 0.498h0.74c8e-3 0 0.013-3e-3 0.013-0.01v-0.322c-0.022-0.02-0.354-0.217-0.995-0.59v-7e-3h0.983c8e-3 0 0.013-3e-3 0.013-0.01v-1.612c0-6e-3 -4e-3 -0.01-0.013-0.01h-3.014c-7e-3 0-0.011 3e-3 -0.013 0.01v2.541zm-3.949 0c0 7e-3 4e-3 0.01 0.013 0.01h3.014c8e-3 0 0.013-3e-3 0.013-0.01v-2.54c0-7e-3 -4e-3 -0.011-0.013-0.013h-3.014c-7e-3 0-0.011 4e-3 -0.013 0.013v2.54zm-3.95 0c1e-3 7e-3 6e-3 0.01 0.013 0.01h3.015c7e-3 -1e-3 0.01-5e-3 0.01-0.01v-2.542c0-7e-3 -3e-3 -0.01-0.01-0.01h-0.753c-7e-3 0-0.01 3e-3 -0.01 0.01v1.846h-0.361v-1.846c0-7e-3 -4e-3 -0.01-0.013-0.01h-0.75c-7e-3 0-0.01 3e-3 -0.01 0.01v1.846h-0.356v-1.846c0-7e-3 -3e-3 -0.01-0.01-0.01h-0.751c-8e-3 0-0.013 3e-3 -0.013 0.01v2.542zm-3.949-1.846c0 7e-3 4e-3 0.01 0.013 0.01h1.096v1.836c0 7e-3 4e-3 0.01 0.013 0.01h0.792c8e-3 0 0.013-3e-3 0.013-0.01v-1.836h1.103c7e-3 0 0.01-3e-3 0.01-0.01v-0.695c0-6e-3 -3e-3 -0.01-0.01-0.01h-3.015c-7e-3 0-0.011 3e-3 -0.013 0.01v0.695zm-3.95 1.846c0 7e-3 4e-3 0.01 0.013 0.01h3.015c7e-3 0 0.01-3e-3 0.01-0.01v-0.678c0-6e-3 -3e-3 -0.01-0.01-0.01h-2.252v-0.23h2.252c7e-3 0 0.01-3e-3 0.01-0.01v-0.678c0-6e-3 -3e-3 -0.01-0.01-0.01h-2.252v-0.236h2.252c7e-3 0 0.01-3e-3 0.01-0.01v-0.678c0-6e-3 -3e-3 -0.01-0.01-0.01h-3.015c-7e-3 0-0.011 3e-3 -0.013 0.01v2.541zm-3.949 0c0 7e-3 4e-3 0.01 0.013 0.01h0.75c7e-3 0 0.01-3e-3 0.01-0.01v-1.846h1.49v1.846c0 7e-3 3e-3 0.01 0.01 0.01h0.75c8e-3 0 0.013-3e-3 0.013-0.01v-2.54c0-7e-3 -4e-3 -0.011-0.013-0.013h-3.014c-7e-3 0-0.011 4e-3 -0.013 0.013v2.54zm-5.589 0c0 7e-3 4e-3 0.01 0.013 0.01h0.75c7e-3 0 0.01-3e-3 0.01-0.01v-0.901c0.018 5e-3 0.245 0.142 0.681 0.413 0.542 0.333 0.819 0.498 0.831 0.498h0.74c8e-3 0 0.013-3e-3 0.013-0.01v-0.322c-0.022-0.02-0.354-0.217-0.995-0.59v-7e-3h0.983c8e-3 0 0.013-3e-3 0.013-0.01v-1.612c0-6e-3 -4e-3 -0.01-0.013-0.01h-3.014c-7e-3 0-0.011 3e-3 -0.013 0.01v2.541zm-3.95 0c0 7e-3 4e-3 0.01 0.013 0.01h3.014c8e-3 0 0.013-3e-3 0.013-0.01v-2.54c0-7e-3 -4e-3 -0.011-0.013-0.013h-3.014c-7e-3 0-0.011 4e-3 -0.013 0.013v2.54zm-1.715 0c0 7e-3 4e-3 0.01 0.013 0.01h0.779c8e-3 0 0.013-3e-3 0.013-0.01v-2.542c0-6e-3 -4e-3 -0.01-0.013-0.01h-0.779c-7e-3 0-0.011 3e-3 -0.013 0.01v2.542zm-3.95 0c0 7e-3 4e-3 0.01 0.013 0.01h0.75c7e-3 0 0.01-3e-3 0.01-0.01v-0.901c0.018 5e-3 0.245 0.142 0.681 0.413 0.542 0.333 0.819 0.498 0.831 0.498h0.74c8e-3 0 0.013-3e-3 0.013-0.01v-0.322c-0.022-0.02-0.354-0.217-0.995-0.59v-7e-3h0.983c8e-3 0 0.013-3e-3 0.013-0.01v-1.612c0-6e-3 -4e-3 -0.01-0.013-0.01h-3.014c-7e-3 0-0.011 3e-3 -0.013 0.01v2.541zm-3.949 0c0 7e-3 4e-3 0.01 0.013 0.01h0.75c7e-3 0 0.01-3e-3 0.01-0.01v-0.901c0.018 5e-3 0.245 0.142 0.681 0.413 0.542 0.333 0.819 0.498 0.831 0.498h0.74c8e-3 0 0.013-3e-3 0.013-0.01v-0.322c-0.022-0.02-0.354-0.217-0.995-0.59v-7e-3h0.983c8e-3 0 0.013-3e-3 0.013-0.01v-1.612c0-6e-3 -4e-3 -0.01-0.013-0.01h-3.014c-7e-3 0-0.011 3e-3 -0.013 0.01v2.541zm-3.95 0c0 7e-3 4e-3 0.01 0.013 0.01h0.75c7e-3 0 0.01-3e-3 0.01-0.01v-0.918h1.49v0.918c0 7e-3 3e-3 0.01 0.01 0.01h0.75c8e-3 0 0.013-3e-3 0.013-0.01v-2.542c0-6e-3 -4e-3 -0.01-0.013-0.01h-3.014c-7e-3 0-0.011 3e-3 -0.013 0.01v2.542zm-3.949 0c1e-3 7e-3 6e-3 0.01 0.013 0.01h3.015c7e-3 -1e-3 0.01-5e-3 0.01-0.01v-2.542c0-7e-3 -3e-3 -0.01-0.01-0.01h-0.753c-7e-3 0-0.01 3e-3 -0.01 0.01v1.846h-0.361v-1.846c0-7e-3 -4e-3 -0.01-0.013-0.01h-0.75c-7e-3 0-0.01 3e-3 -0.01 0.01v1.846h-0.356v-1.846c0-7e-3 -3e-3 -0.01-0.01-0.01h-0.75c-8e-3 0-0.013 3e-3 -0.013 0.01v2.542zm-5.589 0c0 7e-3 4e-3 0.01 0.013 0.01h3.014c8e-3 0 0.013-3e-3 0.013-0.01v-0.678c0-6e-3 -4e-3 -0.01-0.013-0.01h-2.252v-1.854c0-6e-3 -3e-3 -0.01-0.01-0.01h-0.75c-7e-3 0-0.011 3e-3 -0.013 0.01v2.542zm-3.95 0c0 7e-3 4e-3 0.01 0.013 0.01h3.014c8e-3 0 0.013-3e-3 0.013-0.01v-0.678c0-6e-3 -4e-3 -0.01-0.013-0.01h-2.252v-1.854c0-6e-3 -3e-3 -0.01-0.01-0.01h-0.752c-7e-3 0-0.011 3e-3 -0.013 0.01v2.542zm-3.95 0c0 7e-3 4e-3 0.01 0.013 0.01h0.75c7e-3 0 0.01-3e-3 0.01-0.01v-0.918h1.49v0.918c0 7e-3 3e-3 0.01 0.01 0.01h0.75c8e-3 0 0.013-3e-3 0.013-0.01v-2.542c0-6e-3 -4e-3 -0.01-0.013-0.01h-3.012c-7e-3 0-0.011 3e-3 -0.013 0.01v2.542z"/></svg>
