<svg xmlns="http://www.w3.org/2000/svg" xmlns:xlink="http://www.w3.org/1999/xlink" viewBox="0 0 1119 573"><path d="M52.243 259c7.972 0 13.845-2.703 17.62-8.117s5.66-13.95 5.66-25.628c0-11.818-1.85-20.43-5.553-25.843s-9.6-8.116-17.727-8.116c-7.406 0-14.383 1.922-20.93 5.765v56.173c6.264 3.844 13.242 5.767 20.93 5.767zM5.47 324.15c-1.853 0-3.205-.394-4.058-1.173s-1.28-2.173-1.28-4.165V176.355c0-1.993.427-3.38 1.282-4.165s2.205-1.174 4.058-1.174h15.378c3.274 0 5.266 1.568 5.98 4.7l1.495 5.553c4.272-4.13 9.43-7.402 15.485-9.825s12.207-3.63 18.475-3.63c13.81 0 24.74 5.056 32.784 15.164s12.067 23.78 12.067 41.006c0 11.822-1.996 22.143-5.98 30.97S91.755 270.58 84.92 275.35s-14.667 7.155-23.494 7.155c-5.84 0-11.394-.928-16.66-2.776-5.27-1.85-9.754-4.412-13.455-7.69v46.774c0 1.992-.394 3.38-1.175 4.165s-2.173 1.173-4.165 1.173H5.47m127.504-43.996c-1.852 0-3.204-.427-4.057-1.28s-1.282-2.205-1.282-4.058v-98.46c0-1.993.427-3.38 1.282-4.165s2.205-1.175 4.057-1.175h15.378c3.275 0 5.266 1.57 5.982 4.7l2.775 11.533c5.695-6.263 11.07-10.712 16.125-13.35s10.43-3.95 16.126-3.95h3c1.992 0 3.417.394 4.27 1.175s1.282 2.172 1.282 4.165v17.94c0 1.853-.393 3.204-1.175 4.057s-2.172 1.283-4.163 1.283c-.998 0-2.28-.07-3.846-.214s-3.56-.214-5.98-.214c-3.278 0-7.263.464-11.962 1.388s-8.686 2.102-11.96 3.524v71.763c0 1.853-.392 3.204-1.175 4.058s-2.172 1.28-4.163 1.28h-20.505m83.993 0c-1.853 0-3.205-.427-4.06-1.28s-1.28-2.205-1.28-4.058v-98.46c0-1.993.427-3.38 1.28-4.165s2.207-1.175 4.06-1.175h20.502c1.993 0 3.38.394 4.165 1.175s1.175 2.172 1.175 4.165v98.46c0 1.853-.394 3.204-1.175 4.058s-2.172 1.282-4.165 1.282zm10.25-126.012c-5.413 0-9.755-1.495-13.028-4.485s-4.912-7.048-4.912-12.174 1.635-9.184 4.912-12.174 7.616-4.485 13.028-4.485 9.75 1.495 13.028 4.485 4.914 7.048 4.914 12.174-1.64 9.184-4.914 12.174-7.62 4.485-13.028 4.485m46.935 126.012c-1.853 0-3.204-.427-4.057-1.28s-1.283-2.205-1.283-4.058v-98.46c0-1.993.427-3.38 1.283-4.165s2.204-1.175 4.057-1.175h15.38c3.275 0 5.266 1.568 5.98 4.7l1.7 5.767c7.545-4.983 14.342-8.507 20.396-10.573 6.05-2.06 12.28-3.096 18.688-3.096 12.815 0 21.856 4.558 27.126 13.67 7.26-4.84 14.095-8.33 20.502-10.465s13.028-3.204 19.864-3.204c9.964 0 17.7 2.775 23.172 8.33s8.223 13.315 8.223 23.28v75.393c0 1.853-.394 3.204-1.173 4.058-.786.854-2.174 1.28-4.166 1.28h-20.505c-1.85 0-3.204-.427-4.058-1.28s-1.28-2.205-1.28-4.058v-68.56c0-9.68-4.346-14.523-13.03-14.523-7.69 0-15.45 1.852-23.28 5.552v77.53c0 1.853-.394 3.204-1.175 4.058s-2.173 1.28-4.165 1.28h-20.504c-1.853 0-3.204-.427-4.058-1.28s-1.28-2.205-1.28-4.058v-68.56c0-9.68-4.345-14.523-13.027-14.523-7.977 0-15.806 1.922-23.495 5.766v77.317c0 1.853-.394 3.204-1.175 4.058s-2.173 1.28-4.165 1.28H274.15m247.315-76.634c0-10.415-7.345-13.4-16.393-13.4-5.95 0-11.72 2.15-15.66 6.46-3.84 4.205-6.213 10.598-7.218 18.64 0 0 16.007 2.904 27.58.99 6.003-.99 11.69-4.328 11.69-12.69zm-12.978 80.046c-17.407 0-30.65-4.068-41.29-14.897-6.984-7.107-13.564-20.293-13.564-42.896 0-18.224 5.774-32.15 15.172-42.263s23.748-14.85 37.312-14.85c16.94 0 26.983 3.845 34.673 11.534 1.26 1.26 8.988 9.252 8.988 22.077 0 4.416.135 8.988-2.892 15.4-2.05 4.342-5.157 7.064-5.977 7.814-12.597 11.526-37.285 10.763-45.636 10.286l-13.52-2.057c.885 9.368 3.51 16.726 9.248 20.908 5.394 3.932 11.31 5.59 23.4 5.59 6.06 0 14.145-1.213 24.542-3.92.56-.152 1.65-.427 2.028-.485.243-.037 1.256-.15 1.967.09 1.14.387 2.423 1.468 2.423 4.56v9.826c0 2.28-.255 3.882-.896 4.807s-1.92 1.822-3.768 2.532c-10.823 3.985-20.928 5.94-32.21 5.94" fill="#4aaae4"/><path d="M967.583 203.522c0-10.415-7.346-13.4-16.392-13.4-5.95 0-11.72 2.15-15.66 6.46-3.843 4.205-6.214 10.598-7.22 18.64 0 0 16.006 2.904 27.58.99 6.005-.99 11.69-4.328 11.69-12.69zm-12.977 80.046c-17.407 0-30.65-4.068-41.3-14.897-6.982-7.107-13.562-20.293-13.562-42.896 0-18.224 5.773-32.15 15.17-42.263s23.748-14.85 37.312-14.85c16.94 0 26.984 3.845 34.673 11.534 1.262 1.26 9 9.252 9 22.077 0 4.416.135 8.988-2.892 15.4-2.05 4.342-5.158 7.064-5.978 7.814-12.598 11.526-37.285 10.763-45.638 10.286l-13.52-2.057c.884 9.368 3.51 16.726 9.247 20.908 5.395 3.932 11.312 5.59 23.4 5.59 6.06 0 14.147-1.213 24.54-3.92.56-.152 1.65-.427 2.028-.485.245-.037 1.257-.15 1.97.09 1.138.387 2.42 1.468 2.42 4.56v9.826c0 2.28-.255 3.882-.895 4.807s-1.92 1.822-3.77 2.532c-10.823 3.985-20.927 5.94-32.208 5.94M643.8 280.154c-1.425 0-2.6-.177-3.523-.534-.93-.354-1.7-.924-2.35-1.71s-1.246-1.885-1.815-3.3l-36.522-95.043-1.068-3c-.287-.854-.427-1.635-.427-2.35 0-2.136 1.422-3.204 4.273-3.204h21.357c2.276 0 3.952.427 5.02 1.28s1.885 2.28 2.455 4.272l22 75.607 22.426-75.607c.57-1.993 1.388-3.417 2.456-4.272s2.74-1.28 5.02-1.28h20.717c2.846 0 4.273 1.068 4.273 3.204 0 .714-.145 1.495-.427 2.35l-1.07 3L670.07 274.6c-.57 1.425-1.173 2.53-1.814 3.3s-1.39 1.355-2.244 1.71-2.065.534-3.63.534H643.8m82.9 0c-1.85 0-3.202-.427-4.057-1.28s-1.28-2.205-1.28-4.058v-98.46c0-1.993.427-3.38 1.28-4.165s2.205-1.175 4.057-1.175h20.505c1.993 0 3.38.394 4.165 1.175s1.174 2.172 1.174 4.165v98.46c0 1.853-.393 3.204-1.174 4.058s-2.172 1.282-4.165 1.282zm10.253-126.012c-5.413 0-9.755-1.495-13.03-4.485s-4.912-7.048-4.912-12.174 1.634-9.184 4.912-12.174 7.615-4.485 13.03-4.485 9.75 1.495 13.028 4.485c3.273 3 4.913 7.048 4.913 12.174s-1.64 9.184-4.913 12.174-7.62 4.485-13.028 4.485M828.106 259c6.835 0 13.382-1.993 19.65-5.98v-56.385c-6.123-3.558-13.172-5.34-21.144-5.34-7.55 0-13.173 2.814-16.873 8.436s-5.553 14.132-5.553 25.523 1.956 19.863 5.873 25.415S820 259 828.106 259zm-10.252 23.494c-9.257 0-17.3-2.383-24.135-7.155s-12.067-11.39-15.698-19.863-5.446-18.262-5.446-29.367c0-17.654 4.198-31.786 12.6-42.397 8.4-10.604 19.507-15.9 33.32-15.9 11.247 0 21 3.204 29.26 9.61v-49.978c0-1.993.427-3.38 1.28-4.165s2.205-1.175 4.058-1.175H873.6c1.992 0 3.38.392 4.165 1.175s1.175 2.172 1.175 4.165v147.37c0 1.853-.394 3.204-1.175 4.058s-2.173 1.28-4.165 1.28h-17.087c-1.71 0-3.027-.354-3.95-1.068s-1.602-1.923-2.03-3.63l-1.28-4.912c-8.83 7.976-19.295 11.96-31.396 11.96m246.893-23.066c14.947 0 22.422-11.32 22.422-33.96 0-22.496-7.475-33.745-22.422-33.745s-22.426 11.25-22.426 33.745c0 22.64 7.475 33.96 22.426 33.96zm0 23.92c-16.946 0-30.188-5.09-39.726-15.27s-14.3-24.38-14.3-42.61c0-18.08 4.77-32.214 14.3-42.395s22.78-15.27 39.726-15.27c16.94 0 30.18 5.093 39.727 15.27 9.534 10.18 14.307 24.315 14.307 42.396 0 18.228-4.773 32.43-14.307 42.61-9.546 10.183-22.786 15.27-39.727 15.27" fill="#232b39"/><path d="M271.54 339.508v1.752c.22 1.495 1.007 3.087 2.5 4.538 76.2 74.13 176.83 118.672 288.595 118.672 79.754 0 172.37-27.027 236.258-77.816 10.56-8.45 1.516-21.03-9.275-16.113-71.62 32.746-149.436 48.596-220.267 48.596-104.954 0-206.586-31.038-288.74-82.563-1.482-.925-2.886-1.328-4.125-1.328-2.66 0-4.57 1.844-4.946 4.26m474.658 8.006c-2.275 1.72-3.47 3.686-3.685 5.372v1.046c.266 1.943 2.076 3.248 5.264 2.842 20.56-2.657 66.4-8.548 74.576 2.707 8.177 11.232-9.077 57.556-16.785 78.19-2.315 6.214 2.677 8.783 7.923 4.017 34.3-30.762 43.14-95.262 36.1-104.564-3.35-4.46-19.083-8.63-38.56-8.63-20.825 0-45.94 4.758-64.832 19.02" fill="#4aaae4"/><path d="M411.483.13l11.9 39.727L435.355.13h12.118L429.08 52.954h-11.356L399.4.13h12.082zm72.74 21.406v8.526h-20.897V44.2h24.526v8.743h-35.4V.13h35.337v8.816h-24.453v12.59h20.898zm39.474 31.42l-9.905-19.338h-8.67v19.338H494.24V.13h19.628q9.36 0 14.44 4.172 5.08 4.172 5.08 11.79 0 5.406-2.34 9.016-2.34 3.61-7.093 5.75l11.428 21.587v.508H523.7zM505.123 8.945V24.8h8.78q4.1 0 6.35-2.086 2.248-2.086 2.248-5.75 0-3.737-2.122-5.878-2.122-2.14-6.512-2.14h-8.743zm86.818 12.59v8.526h-20.897V44.2h24.526v8.743h-35.41V.13h35.337v8.816h-24.453v12.59h20.898zM644.92.13v52.825h-10.885l-21.187-34.757v34.757h-10.884V.13h10.884l21.224 34.83V.13h10.848z" fill="#232b39"/><g fill="#4f4f4f"><path d="M351.675 519.704v44.064h20.844v7.992H341.99v-52.056h9.684z"/><use xlink:href="#A"/><path d="M428.535 572.336q-4.788 0-7.38-2.718-2.592-2.718-2.592-7.506v-20.628h-3.744q-.72 0-1.242-.468-.522-.468-.522-1.404v-3.528l5.94-.972 1.872-10.08q.144-.72.666-1.116.522-.396 1.314-.396h4.608v11.628h9.72v6.336h-9.72V561.5q0 1.728.864 2.7.864.972 2.304.972.828 0 1.386-.198.558-.198.972-.414.414-.216.738-.414.324-.198.648-.198.396 0 .648.198.252.198.54.594l2.664 4.32q-1.944 1.62-4.464 2.448-2.52.828-5.22.828z"/><use xlink:href="#B"/><path d="M472.67 571.76h-8.892v-36.936h5.436q1.728 0 2.268 1.62l.612 2.916q1.116-1.152 2.358-2.088 1.242-.936 2.628-1.62 1.386-.684 2.97-1.044 1.584-.36 3.456-.36 3.024 0 5.364 1.026 2.34 1.026 3.906 2.88 1.566 1.854 2.376 4.428.8 2.574.8 5.67v23.508h-8.892v-23.508q0-3.384-1.566-5.238-1.566-1.854-4.698-1.854-2.304 0-4.32 1.044-2.016 1.044-3.816 2.844v26.712zm71.748-52.056l20.448 52.056h-7.488q-1.26 0-2.07-.63-.8-.63-1.17-1.566l-3.888-10.62h-21.564l-3.888 10.62q-.288.828-1.134 1.512-.846.684-2.07.684h-7.524l20.448-52.056h9.9zm-6.912 15.156l-6.336 17.244h16.596l-6.336-17.316q-.432-1.152-.954-2.718-.522-1.566-1.026-3.402-.504 1.836-1 3.42-.486 1.584-.954 2.772zm41.114 36.9h-8.892v-36.936h5.436q1.728 0 2.268 1.62l.576 2.736q.972-1.08 2.034-1.98 1.062-.9 2.268-1.548 1.206-.648 2.592-1.026 1.386-.378 3.042-.378 3.492 0 5.742 1.9 2.25 1.9 3.366 5.022.864-1.836 2.16-3.15 1.296-1.314 2.844-2.142 1.548-.828 3.294-1.224 1.746-.396 3.5-.396 3.06 0 5.436.936 2.376.936 3.996 2.736 1.62 1.8 2.466 4.392.846 2.592.846 5.94v23.508H612.7v-23.508q0-3.528-1.548-5.3-1.548-1.782-4.536-1.782-1.368 0-2.538.468-1.17.468-2.052 1.35-.882.882-1.386 2.214-.504 1.332-.504 3.06v23.508h-8.928v-23.508q0-3.708-1.494-5.4-1.494-1.692-4.4-1.692-1.908 0-3.582.954-1.674.954-3.114 2.6v27.036zm66.996-37.512q3.492 0 6.426 1.116 2.934 1.116 5.058 3.258 2.124 2.142 3.312 5.256 1.188 3.114 1.188 7.1 0 1.008-.1 1.674-.1.666-.324 1.044-.234.378-.63.54-.396.162-1.008.162h-22.824q.396 5.688 3.06 8.352 2.664 2.664 7.056 2.664 2.16 0 3.726-.504 1.566-.504 2.736-1.116 1.17-.612 2.052-1.116.882-.504 1.7-.504.54 0 .936.216.396.216.684.612l2.592 3.24q-1.476 1.728-3.312 2.898-1.836 1.17-3.834 1.872-1.998.702-4.068 1-2.07.288-4.014.288-3.852 0-7.164-1.278-3.312-1.278-5.76-3.78-2.448-2.502-3.852-6.192-1.404-3.7-1.404-8.55 0-3.78 1.224-7.1 1.224-3.33 3.5-5.796 2.286-2.466 5.58-3.906 3.294-1.44 7.434-1.44zm.18 6.372q-3.888 0-6.084 2.196-2.196 2.196-2.808 6.228h16.704q0-1.728-.468-3.258-.468-1.53-1.44-2.682-.972-1.152-2.448-1.818-1.476-.666-3.456-.666zm31.93 31.14h-8.892v-36.936h5.22q1.368 0 1.908.504.54.504.72 1.728l.54 4.464q1.98-3.42 4.644-5.4 2.664-1.98 5.976-1.98 2.736 0 4.536 1.26l-1.152 6.66q-.108.648-.468.918-.36.27-.972.27-.54 0-1.476-.252-.936-.252-2.484-.252-2.772 0-4.752 1.53-1.98 1.53-3.348 4.482v23.004z"/><use xlink:href="#B" x="253.98"/><path d="M746.055 539.396l-2.34 3.24q-.396.504-.774.792-.378.288-1.098.288-.684 0-1.332-.414-.648-.414-1.548-.936-.9-.522-2.142-.936-1.242-.414-3.078-.414-2.34 0-4.104.846-1.764.846-2.934 2.43-1.17 1.584-1.746 3.834-.576 2.25-.576 5.094 0 2.952.63 5.256.63 2.304 1.818 3.87 1.188 1.566 2.88 2.376 1.692.8 3.816.8 2.124 0 3.438-.522 1.314-.522 2.214-1.152.9-.63 1.566-1.152.666-.522 1.494-.522 1.08 0 1.62.828l2.556 3.24q-1.476 1.728-3.204 2.898-1.728 1.17-3.582 1.872-1.854.702-3.834 1-1.98.288-3.924.288-3.42 0-6.444-1.278-3.024-1.278-5.274-3.726-2.25-2.448-3.564-5.994-1.314-3.546-1.314-8.082 0-4.068 1.17-7.542 1.17-3.474 3.438-6.012 2.268-2.538 5.616-3.978 3.348-1.44 7.704-1.44 4.14 0 7.254 1.332 3.114 1.332 5.598 3.816z"/><use xlink:href="#A" x="373.392"/></g><defs><path id="A" d="M407.655 548.432v23.328h-3.996q-1.26 0-1.98-.378-.72-.378-1.08-1.53l-.792-2.628q-1.404 1.26-2.754 2.214-1.35.954-2.8 1.602-1.44.648-3.06.972-1.62.324-3.6.324-2.34 0-4.32-.63-1.98-.63-3.402-1.9-1.422-1.26-2.214-3.132-.792-1.872-.792-4.356 0-2.088 1.098-4.122 1.098-2.034 3.654-3.672 2.556-1.638 6.804-2.718 4.248-1.08 10.548-1.224v-2.16q0-3.708-1.566-5.5-1.566-1.782-4.554-1.782-2.16 0-3.6.504-1.44.504-2.502 1.134-1.062.63-1.962 1.134-.9.504-1.98.504-.9 0-1.548-.468-.648-.468-1.044-1.152l-1.62-2.844q6.372-5.832 15.372-5.832 3.24 0 5.778 1.062 2.538 1.062 4.302 2.952 1.764 1.9 2.682 4.518.918 2.628.918 5.76zm-17.28 17.784q1.368 0 2.52-.252 1.152-.252 2.178-.756 1.026-.504 1.98-1.242.954-.738 1.926-1.746v-6.228q-3.888.18-6.498.666-2.6.486-4.194 1.242-1.584.756-2.25 1.764-.666 1.008-.666 2.196 0 2.34 1.386 3.348 1.386 1.008 3.618 1.008z"/><path id="B" d="M444.843 534.824h8.892v36.936h-8.892v-36.936zm10.224-10.764q0 1.152-.468 2.16-.468 1.008-1.242 1.764-.774.756-1.818 1.206-1.044.45-2.232.45-1.152 0-2.178-.45-1.026-.45-1.782-1.206-.756-.756-1.206-1.764-.45-1.008-.45-2.16 0-1.188.45-2.232.45-1.044 1.206-1.8.756-.756 1.782-1.206 1.026-.45 2.178-.45 1.188 0 2.232.45 1.044.45 1.818 1.206.774.756 1.242 1.8.468 1.044.468 2.232z"/></defs></svg>