<?xml version="1.0" encoding="UTF-8"?>
<svg enable-background="new 0 0 1200 520" version="1.1" viewBox="0 0 1200 520" xml:space="preserve" xmlns="http://www.w3.org/2000/svg">
<style type="text/css">
	.st0{fill:#00061C;}
	.st1{fill-rule:evenodd;clip-rule:evenodd;fill:#00061C;}
</style>

	
		<path class="st0" d="m169.4 284.5c-1.4 0-2.5-0.3-3.1-0.9-0.7-0.6-1-1.7-1-3.2v-110.8c0-1.6 0.3-2.6 1-3.2s1.7-0.9 3.1-0.9h11.9c2.5 0 4.1 1.2 4.6 3.6l1.2 4.3c3.3-3.2 7.3-5.8 12-7.6 4.7-1.9 9.5-2.8 14.4-2.8 10.7 0 19.2 3.9 25.5 11.8s9.4 18.5 9.4 31.9c0 9.2-1.6 17.2-4.6 24.1-3.1 6.9-7.3 12.1-12.6 15.9-5.3 3.7-11.4 5.6-18.3 5.6-4.5 0-8.9-0.7-12.9-2.2-4.1-1.4-7.6-3.4-10.5-6v36.3c0 1.5-0.3 2.6-0.9 3.2s-1.7 0.9-3.2 0.9h-16zm36.4-50.6c6.2 0 10.8-2.1 13.7-6.3s4.4-10.8 4.4-19.9c0-9.2-1.4-15.9-4.3-20.1s-7.5-6.3-13.8-6.3c-5.8 0-11.2 1.5-16.3 4.5v43.7c4.9 2.9 10.3 4.4 16.3 4.4z"/>
		<path class="st0" d="m268.5 250.3c-1.4 0-2.5-0.3-3.1-1-0.7-0.7-1-1.7-1-3.1v-76.5c0-1.6 0.3-2.6 1-3.2s1.7-0.9 3.1-0.9h12c2.5 0 4.1 1.2 4.6 3.6l2.2 9c4.4-4.9 8.6-8.3 12.5-10.4s8.1-3.1 12.5-3.1h2.3c1.5 0 2.7 0.3 3.3 0.9 0.7 0.6 1 1.7 1 3.2v13.9c0 1.4-0.3 2.5-0.9 3.1-0.6 0.7-1.7 1-3.2 1-0.8 0-1.8-0.1-3-0.2s-2.8-0.2-4.6-0.2c-2.5 0-5.6 0.4-9.3 1.1-3.6 0.7-6.8 1.6-9.3 2.7v55.8c0 1.4-0.3 2.5-0.9 3.1-0.6 0.7-1.7 1-3.2 1l-16 0.2z"/>
		<path class="st0" d="m341.8 152.4c-4.2 0-7.6-1.2-10.1-3.5s-3.8-5.5-3.8-9.5 1.3-7.1 3.8-9.5c2.5-2.3 5.9-3.5 10.1-3.5s7.6 1.2 10.1 3.5 3.8 5.5 3.8 9.5-1.3 7.1-3.8 9.5c-2.5 2.3-5.9 3.5-10.1 3.5zm-8 97.9c-1.4 0-2.5-0.3-3.1-1-0.7-0.7-1-1.7-1-3.1v-76.5c0-1.6 0.3-2.6 1-3.2s1.7-0.9 3.1-0.9h15.9c1.5 0 2.6 0.3 3.2 0.9s0.9 1.7 0.9 3.2v76.5c0 1.4-0.3 2.5-0.9 3.1-0.6 0.7-1.7 1-3.2 1h-15.9z"/>
		<path class="st0" d="m378.3 250.3c-1.4 0-2.5-0.3-3.1-1-0.7-0.7-1-1.7-1-3.1v-76.5c0-1.6 0.3-2.6 1-3.2s1.7-0.9 3.1-0.9h12c2.5 0 4.1 1.2 4.6 3.6l1.3 4.5c5.9-3.9 11.1-6.6 15.9-8.2 4.7-1.6 9.5-2.4 14.5-2.4 10 0 17 3.5 21.1 10.6 5.6-3.8 11-6.5 15.9-8.1s10.1-2.5 15.4-2.5c7.7 0 13.8 2.2 18 6.5 4.3 4.3 6.4 10.4 6.4 18.1v58.6c0 1.4-0.3 2.5-0.9 3.1-0.6 0.7-1.7 1-3.2 1h-15.9c-1.4 0-2.5-0.3-3.1-1s-1-1.7-1-3.1v-53.3c0-7.5-3.4-11.3-10.1-11.3-6 0-12 1.4-18.1 4.3v60.3c0 1.4-0.3 2.5-0.9 3.1-0.6 0.7-1.7 1-3.2 1h-15.9c-1.4 0-2.5-0.3-3.1-1-0.7-0.7-1-1.7-1-3.1v-53.3c0-7.5-3.4-11.3-10.1-11.3-6.2 0-12.3 1.5-18.3 4.5v60.1c0 1.4-0.3 2.5-0.9 3.1-0.6 0.7-1.7 1-3.2 1l-16.2-0.1z"/>
		<path class="st0" d="m560.4 252.9c-13.5 0-23.8-3.2-32.1-11.6-5.4-5.5-10.5-15.8-10.5-33.3 0-14.2 4.5-25 11.8-32.8 7.3-7.9 18.5-11.5 29-11.5 13.2 0 21 3 27 9 1 1 7 7.2 7 17.2 0 3.4 0.1 7-2.2 12-1.6 3.4-4 5.5-4.7 6.1-9.8 9-29 8.4-35.5 8l-10.5-1.6c0.7 7.3 2.7 13 7.2 16.2 4.2 3.1 8.8 4.3 18.2 4.3 4.7 0 11-0.9 19.1-3.1 0.4-0.1 1.3-0.3 1.6-0.4 0.2 0 1-0.1 1.5 0.1 0.9 0.3 1.9 1.1 1.9 3.6v7.6c0 1.8-0.2 3-0.7 3.7s-1.5 1.4-2.9 2c-8.6 3-16.4 4.5-25.2 4.5zm10.1-62.2c0-8.1-5.7-10.4-12.7-10.4-4.6 0-9.1 1.7-12.2 5-3 3.3-4.8 8.2-5.6 14.5 0 0 12.4 2.3 21.4 0.8 4.7-0.8 9.1-3.4 9.1-9.9z"/>
		<path class="st0" d="m907.1 252.9c-13.5 0-23.8-3.2-32.1-11.6-5.4-5.5-10.5-15.8-10.5-33.3 0-14.2 4.5-25 11.8-32.8 7.3-7.9 18.5-11.5 29-11.5 13.2 0 21 3 27 9 1 1 7 7.2 7 17.2 0 3.4 0.1 7-2.2 12-1.6 3.4-4 5.5-4.7 6.1-9.8 9-29 8.4-35.5 8l-10.5-1.6c0.7 7.3 2.7 13 7.2 16.2 4.2 3.1 8.8 4.3 18.2 4.3 4.7 0 11-0.9 19.1-3.1 0.4-0.1 1.3-0.3 1.6-0.4 0.2 0 1-0.1 1.5 0.1 0.9 0.3 1.9 1.1 1.9 3.6v7.6c0 1.8-0.2 3-0.7 3.7s-1.5 1.4-2.9 2c-8.5 3-16.4 4.5-25.2 4.5zm10.1-62.2c0-8.1-5.7-10.4-12.7-10.4-4.6 0-9.1 1.7-12.2 5-3 3.3-4.8 8.2-5.6 14.5 0 0 12.4 2.3 21.4 0.8 4.7-0.8 9.1-3.4 9.1-9.9z"/>
		<path class="st0" d="m665.5 250.3c-1.1 0-2-0.1-2.7-0.4s-1.3-0.7-1.8-1.3-1-1.5-1.4-2.6l-28.4-73.9c-0.3-0.9-0.6-1.7-0.8-2.3-0.2-0.7-0.3-1.3-0.3-1.8 0-1.7 1.1-2.5 3.3-2.5h16.6c1.8 0 3.1 0.3 3.9 1s1.5 1.8 1.9 3.3l17.1 58.8 17.4-58.8c0.4-1.6 1.1-2.7 1.9-3.3s2.1-1 3.9-1h16.1c2.2 0 3.3 0.8 3.3 2.5 0 0.6-0.1 1.2-0.3 1.8-0.2 0.7-0.5 1.4-0.8 2.3l-28.4 73.9c-0.4 1.1-0.9 2-1.4 2.6s-1.1 1.1-1.7 1.3-1.6 0.4-2.8 0.4h-14.6z"/>
		<path class="st0" d="m738 152.4c-4.2 0-7.6-1.2-10.1-3.5s-3.8-5.5-3.8-9.5 1.3-7.1 3.8-9.5c2.5-2.3 5.9-3.5 10.1-3.5s7.6 1.2 10.1 3.5 3.8 5.5 3.8 9.5-1.3 7.1-3.8 9.5c-2.6 2.3-5.9 3.5-10.1 3.5zm-8 97.9c-1.4 0-2.5-0.3-3.2-1s-1-1.7-1-3.1v-76.5c0-1.6 0.3-2.6 1-3.2s1.7-0.9 3.2-0.9h15.9c1.5 0 2.6 0.3 3.2 0.9s0.9 1.7 0.9 3.2v76.5c0 1.4-0.3 2.5-0.9 3.1-0.6 0.7-1.7 1-3.2 1h-15.9z"/>
		<path class="st0" d="m800.8 252.1c-7.2 0-13.5-1.9-18.8-5.6s-9.4-8.9-12.2-15.4c-2.8-6.6-4.2-14.2-4.2-22.8 0-13.7 3.3-24.7 9.8-32.9s15.2-12.4 25.9-12.4c8.7 0 16.3 2.5 22.7 7.5v-38.8c0-1.6 0.3-2.6 1-3.2s1.7-0.9 3.2-0.9h15.9c1.5 0 2.6 0.3 3.2 0.9s0.9 1.7 0.9 3.2v114.5c0 1.4-0.3 2.5-0.9 3.1-0.6 0.7-1.7 1-3.2 1h-13.3c-1.3 0-2.3-0.3-3.1-0.8-0.7-0.6-1.2-1.5-1.6-2.8l-1-3.8c-6.7 6.1-14.9 9.2-24.3 9.2zm8-18.2c5.3 0 10.4-1.6 15.3-4.6v-43.8c-4.8-2.8-10.2-4.1-16.4-4.1-5.9 0-10.2 2.2-13.1 6.6s-4.3 11-4.3 19.8c0 8.9 1.5 15.4 4.6 19.8 2.9 4.1 7.6 6.3 13.9 6.3z"/>
		<path class="st0" d="m992.7 252.8c-13.2 0-23.5-4-30.9-11.9s-11.1-18.9-11.1-33.1c0-14.1 3.7-25 11.1-32.9s17.7-11.9 30.9-11.9 23.5 4 30.9 11.9 11.1 18.9 11.1 32.9c0 14.2-3.7 25.2-11.1 33.1s-17.7 11.9-30.9 11.9zm0-18.6c11.6 0 17.4-8.8 17.4-26.4 0-17.5-5.8-26.2-17.4-26.2s-17.4 8.7-17.4 26.2c0 17.6 5.8 26.4 17.4 26.4z"/>
	
	
		<path class="st1" d="m376.2 296.4v1.4c0.2 1.2 0.8 2.4 1.9 3.5 59.2 57.6 137.4 92.2 224.3 92.2 62 0 134-21 183.6-60.5 8.2-6.6 1.2-16.4-7.2-12.5-55.7 25.5-116.2 37.8-171.2 37.8-81.6 0-160.6-24.1-224.4-64.2-1.1-0.7-2.2-1-3.2-1-2 0-3.5 1.4-3.8 3.3"/>
		<path class="st1" d="m745.2 302.6c-1.8 1.3-2.7 2.9-2.9 4.2v0.8c0.2 1.5 1.6 2.5 4.1 2.2 16-2.1 51.6-6.6 58 2.1s-7.1 44.7-13 60.8c-1.8 4.8 2.1 6.8 6.2 3.1 26.7-23.9 33.5-74 28.1-81.3-2.6-3.5-14.8-6.7-30-6.7-16.4 0.1-35.9 3.8-50.5 14.8"/>
	

</svg>
