<svg xmlns="http://www.w3.org/2000/svg" xmlns:xlink="http://www.w3.org/1999/xlink" viewBox="0 0 1161 483"><path d="M54.505 268.78c8.26 0 14.348-2.8 18.26-8.412 3.908-5.605 5.865-14.457 5.865-26.56 0-12.247-1.92-21.172-5.755-26.78s-9.96-8.41-18.37-8.41c-7.675 0-14.905 1.992-21.69 5.975v58.212c6.492 3.984 13.723 5.976 21.69 5.976zM6.033 336.285c-1.92 0-3.32-.408-4.205-1.216S.5 332.817.5 330.753v-147.63c0-2.065.443-3.504 1.328-4.316s2.285-1.217 4.205-1.217H21.97c3.393 0 5.457 1.625 6.197 4.87l1.55 5.755c4.427-4.28 9.773-7.67 16.047-10.18s12.65-3.763 19.145-3.763c14.31 0 25.637 5.24 33.975 15.715s12.505 24.644 12.505 42.495c0 12.25-2.068 22.947-6.197 32.095s-9.74 16.195-16.82 21.137-15.2 7.415-24.347 7.415c-6.052 0-11.808-.96-17.264-2.877-5.46-1.916-10.108-4.572-13.944-7.968v48.472c0 2.064-.408 3.504-1.217 4.316s-2.252 1.216-4.316 1.216H6.033m132.133-45.593c-1.92 0-3.32-.443-4.204-1.328s-1.328-2.285-1.328-4.205V183.124c0-2.065.443-3.504 1.328-4.316s2.285-1.217 4.204-1.217h15.936c3.393 0 5.457 1.625 6.2 4.87l2.876 11.952c5.9-6.49 11.472-11.1 16.71-13.833a35.62 35.62 0 0 1 16.712-4.095h3.1c2.064 0 3.54.408 4.425 1.217s1.328 2.25 1.328 4.316v18.592c0 1.92-.407 3.32-1.217 4.204s-2.25 1.33-4.315 1.33c-1.035 0-2.363-.072-3.985-.22s-3.69-.22-6.196-.22c-3.397 0-7.527.48-12.396 1.44s-9 2.18-12.395 3.652v74.368c0 1.92-.407 3.32-1.217 4.205s-2.25 1.328-4.315 1.328h-21.25m87.043 0c-1.92 0-3.32-.443-4.207-1.328s-1.328-2.285-1.328-4.205V183.124c0-2.065.443-3.504 1.328-4.316s2.287-1.217 4.207-1.217h21.247c2.065 0 3.504.408 4.316 1.217s1.217 2.25 1.217 4.316v102.035c0 1.92-.408 3.32-1.217 4.205s-2.25 1.328-4.316 1.328zm10.623-130.587c-5.61 0-10.11-1.55-13.5-4.648s-5.09-7.304-5.09-12.616 1.695-9.517 5.09-12.616 7.892-4.648 13.5-4.648 10.105 1.55 13.5 4.648 5.092 7.304 5.092 12.616-1.7 9.517-5.092 12.616-7.896 4.648-13.5 4.648m48.64 130.587c-1.92 0-3.32-.443-4.204-1.328s-1.33-2.285-1.33-4.205V183.124c0-2.065.443-3.504 1.33-4.316s2.284-1.217 4.204-1.217h15.936c3.393 0 5.457 1.625 6.197 4.87l1.772 5.976c7.82-5.164 14.863-8.816 21.136-10.957a59.66 59.66 0 0 1 19.367-3.208c13.28 0 22.65 4.724 28.11 14.165 7.524-5.015 14.607-8.632 21.247-10.845s13.5-3.32 20.585-3.32c10.325 0 18.332 2.876 24.013 8.632s8.52 13.8 8.52 24.125v78.13c0 1.92-.408 3.32-1.216 4.205-.815.885-2.253 1.328-4.317 1.328h-21.248c-1.92 0-3.32-.443-4.205-1.328s-1.327-2.285-1.327-4.205V214.1c0-10.032-4.504-15.05-13.503-15.05-7.968 0-16.012 1.92-24.125 5.753v80.345c0 1.92-.408 3.32-1.217 4.205s-2.252 1.328-4.316 1.328h-21.248c-1.92 0-3.32-.443-4.205-1.328s-1.328-2.285-1.328-4.205V214.1c0-10.032-4.503-15.05-13.5-15.05-8.267 0-16.38 1.992-24.348 5.975v80.124c0 1.92-.408 3.32-1.217 4.205s-2.252 1.328-4.316 1.328H284.47m256.293-79.415c0-10.793-7.612-13.885-16.988-13.885-6.167 0-12.147 2.227-16.228 6.695-3.98 4.357-6.44 10.983-7.48 19.316 0 0 16.588 3.01 28.58 1.027 6.22-1.027 12.116-4.485 12.116-13.152zm-13.45 82.952c-18.04 0-31.76-4.216-42.788-15.437-7.237-7.365-14.056-21.03-14.056-44.453 0-18.885 5.984-33.32 15.723-43.797s24.61-15.388 38.667-15.388c17.555 0 27.963 3.985 35.932 11.953 1.307 1.307 9.315 9.588 9.315 22.88 0 4.576.14 9.315-2.997 15.96-2.124 4.5-5.344 7.32-6.195 8.097-13.055 11.944-38.64 11.153-47.293 10.66l-14.012-2.132c.917 9.708 3.64 17.333 9.584 21.667 5.59 4.075 11.72 5.792 24.25 5.792 6.28 0 14.66-1.257 25.433-4.06.58-.157 1.71-.443 2.1-.503.252-.04 1.3-.156 2.04.095 1.18.4 2.51 1.52 2.51 4.727v10.183c0 2.36-.264 4.023-.928 4.98s-1.99 1.888-3.905 2.624c-11.216 4.13-21.688 6.156-33.38 6.156" fill="#4aaae4"/><path d="M1003.077 211.277c0-10.793-7.612-13.885-16.987-13.885-6.167 0-12.147 2.227-16.227 6.695-3.983 4.357-6.44 10.983-7.482 19.316 0 0 16.588 3.01 28.58 1.027 6.223-1.027 12.116-4.485 12.116-13.152zM989.63 294.23c-18.04 0-31.76-4.216-42.79-15.437-7.236-7.365-14.055-21.03-14.055-44.453 0-18.885 5.983-33.32 15.72-43.797s24.61-15.388 38.667-15.388c17.556 0 27.964 3.985 35.932 11.953 1.308 1.307 9.316 9.588 9.316 22.88 0 4.576.14 9.315-2.997 15.96-2.125 4.5-5.345 7.32-6.195 8.097-13.056 11.944-38.64 11.153-47.295 10.66l-14.01-2.132c.916 9.708 3.64 17.333 9.583 21.667 5.59 4.075 11.723 5.792 24.25 5.792 6.28 0 14.66-1.257 25.432-4.06.58-.157 1.71-.443 2.1-.503.253-.04 1.303-.156 2.04.095 1.18.4 2.51 1.52 2.51 4.727v10.183c0 2.36-.264 4.023-.928 4.98s-1.99 1.888-3.905 2.624c-11.216 4.13-21.687 6.156-33.377 6.156m-322.1-3.537c-1.477 0-2.695-.184-3.65-.553a5.73 5.73 0 0 1-2.436-1.771c-.664-.813-1.292-1.953-1.88-3.43l-37.848-98.493-1.107-3.1c-.297-.885-.443-1.695-.443-2.435 0-2.213 1.473-3.32 4.428-3.32h22.132c2.36 0 4.096.443 5.203 1.328s1.953 2.36 2.544 4.427l22.797 78.352 23.24-78.352c.59-2.065 1.44-3.54 2.545-4.427s2.84-1.328 5.2-1.328h21.47c2.95 0 4.428 1.107 4.428 3.32 0 .74-.15 1.55-.443 2.435l-1.108 3.1-37.848 98.493c-.592 1.477-1.216 2.62-1.88 3.43s-1.44 1.404-2.325 1.77-2.14.553-3.763.553H667.53m85.91 0c-1.92 0-3.32-.443-4.204-1.328s-1.328-2.285-1.328-4.205V183.124c0-2.065.443-3.504 1.328-4.316s2.285-1.217 4.204-1.217h21.25c2.065 0 3.503.408 4.316 1.217s1.216 2.25 1.216 4.316v102.035c0 1.92-.407 3.32-1.216 4.205s-2.25 1.328-4.316 1.328zm10.625-130.587c-5.61 0-10.11-1.55-13.5-4.648-3.397-3.1-5.09-7.304-5.09-12.616s1.693-9.517 5.09-12.616c3.392-3.1 7.892-4.648 13.5-4.648s10.104 1.55 13.5 4.648c3.392 3.1 5.09 7.304 5.09 12.616s-1.7 9.517-5.09 12.616c-3.397 3.1-7.896 4.648-13.5 4.648m94.463 108.675c7.083 0 13.868-2.065 20.363-6.197V204.15c-6.345-3.687-13.65-5.533-21.912-5.533-7.823 0-13.65 2.916-17.485 8.743s-5.755 14.645-5.755 26.45 2.027 20.584 6.087 26.337 10.292 8.633 18.703 8.633zm-10.624 24.347c-9.593 0-17.928-2.47-25.01-7.415s-12.505-11.803-16.268-20.584-5.644-18.925-5.644-30.433c0-18.295 4.35-32.94 13.06-43.936 8.705-10.99 20.215-16.488 34.528-16.488 11.655 0 21.763 3.32 30.323 9.96v-51.792c0-2.065.442-3.504 1.328-4.316s2.285-1.217 4.205-1.217h21.248c2.064 0 3.503.407 4.316 1.217s1.217 2.25 1.217 4.316v152.72c0 1.92-.408 3.32-1.217 4.205s-2.252 1.328-4.316 1.328h-17.708c-1.77 0-3.137-.367-4.095-1.107s-1.66-1.993-2.103-3.763l-1.328-5.09c-9.15 8.265-19.996 12.395-32.536 12.395m255.857-23.904c15.49 0 23.236-11.73 23.236-35.192 0-23.313-7.747-34.97-23.236-34.97s-23.24 11.657-23.24 34.97c0 23.46 7.747 35.192 23.24 35.192zm0 24.79c-17.562 0-31.284-5.273-41.168-15.825s-14.83-25.267-14.83-44.156c0-18.737 4.943-33.384 14.83-43.935s23.607-15.825 41.168-15.825c17.556 0 31.276 5.277 41.17 15.825 9.88 10.55 14.827 25.197 14.827 43.935 0 18.89-4.947 33.608-14.827 44.156-9.893 10.552-23.613 15.825-41.17 15.825" fill="#232b39"/><path d="M281.765 352.2v1.816c.228 1.55 1.044 3.2 2.592 4.703 78.956 76.82 183.25 122.98 299.072 122.98 82.65 0 178.63-28.008 244.836-80.64 10.944-8.757 1.57-21.795-9.612-16.697-74.22 33.935-154.86 50.36-228.264 50.36-108.764 0-214.087-32.165-299.224-85.56-1.536-.96-2.99-1.376-4.275-1.376-2.756 0-4.737 1.91-5.125 4.416m491.89 8.297c-2.357 1.784-3.596 3.82-3.82 5.567v1.084c.276 2.013 2.152 3.365 5.455 2.945 21.307-2.753 68.82-8.86 77.284 2.805 8.473 11.64-9.407 59.645-17.395 81.028-2.4 6.44 2.775 9.1 8.21 4.162 35.535-31.878 44.707-98.72 37.41-108.36-3.472-4.62-19.776-8.943-39.96-8.943-21.58 0-47.61 4.93-67.185 19.712" fill="#4aaae4"/><path d="M426.788.5l12.332 41.17L451.527.5h12.558l-19.062 54.742h-11.768L414.268.5h12.52zm75.382 22.183v8.836h-21.656V46.18h25.416v9.06h-36.695V.5h36.62v9.136h-25.34v13.046h21.656zm40.907 32.56l-10.264-20.04h-8.986v20.04h-11.28V.5h20.34q9.7 0 14.964 4.324 5.264 4.324 5.264 12.22 0 5.602-2.425 9.343-2.425 3.74-7.35 5.96l11.843 22.37v.526h-12.106zm-19.25-45.606v16.43h9.1q4.25 0 6.58-2.162 2.33-2.162 2.33-5.96 0-3.873-2.2-6.09-2.2-2.218-6.75-2.218h-9.06zm89.97 13.046v8.836h-21.655V46.18h25.416v9.06h-36.695V.5h36.62v9.136h-25.34v13.046h21.656zM668.7.5v54.742h-11.28l-21.957-36.02v36.02h-11.28V.5h11.28l21.995 36.094V.5H668.7z" fill="#232b39"/><path d="M1000.5 370.5h151.515v100H1000.5z" fill="#c60b1e"/><path d="M1000.5 395.5h151.515v50H1000.5z" fill="#ffc400"/><path d="M1034.437 414.948s-.103 0-.16-.032-.228-.192-.228-.192l-.137-.098-.125-.17s-.148-.236-.08-.418.184-.246.287-.3.32-.118.32-.118.172-.074.228-.084l.263-.064s.057-.032.113-.054.137-.022.184-.032.16-.048.228-.052c.105-.004.275.02.33.02l.33.01.444-.022c.08 0 .137-.01.228 0s.25.064.297.086a6.97 6.97 0 0 0 .422.15c.103.032.353.074.47.128s.184.144.24.22.07.156.09.2.022.168 0 .222-.103.162-.103.162l-.125.204-.16.128s-.115.108-.206.096-1.016-.172-1.6-.172-1.543.172-1.543.172h.002z" class="F"/><g class="G"><path d="M1035.708 413.636c0-.277.124-.5.28-.5s.28.223.28.5-.124.5-.28.5-.28-.223-.28-.5zm.154 0c0-.255.058-.46.13-.46s.13.205.13.46-.058.46-.13.46-.13-.205-.13-.46z"/><path d="M1035.803 413.108c0-.096.084-.174.188-.174s.188.078.188.174-.084.174-.188.174-.188-.078-.188-.174z"/><path d="M1036.25 413.048v.116h-.5v-.116h.2v-.264h-.125v-.114h.125v-.114h.12v.114h.125v.114h-.125v.264h.2m-.26 1.868h-.972l-.022-.236-.046-.246-.046-.306c-.27-.35-.515-.58-.598-.53.02-.064.044-.112.095-.142.238-.14.73.196 1.1.748l.093.15h.802l.093-.15c.368-.552.86-.888 1.097-.748.053.03.075.078.095.142-.083-.048-.327.18-.598.53l-.046.306-.047.246-.02.236h-.978z"/><use xlink:href="#A"/><use xlink:href="#B"/><use xlink:href="#C"/><path d="M1035.993 414.398l.057.01a.19.19 0 0 0-.012.076c0 .116.1.2.226.2.1 0 .184-.062.214-.146.002.002.022-.076.03-.076s.006.082.01.082c.014.106.11.178.222.178.125 0 .224-.094.224-.212 0-.008 0-.016-.002-.024l.07-.07.038.088a.199.199 0 0 0-.02.092c0 .112.095.202.214.202.075 0 .14-.036.178-.1l.046-.058v.072c0 .068.028.132.1.142 0 0 .077.006.184-.076s.162-.15.162-.15l.006.084s-.103.168-.196.22c-.05.03-.13.062-.192.05s-.11-.062-.135-.122c-.046.028-.103.044-.162.044-.127 0-.242-.07-.287-.172-.06.062-.14.1-.234.1-.103 0-.196-.046-.255-.116a.32.32 0 0 1-.22.086.33.33 0 0 1-.269-.138c-.06.082-.158.138-.27.138-.085 0-.164-.032-.22-.086-.06.07-.15.116-.253.116a.31.31 0 0 1-.236-.1c-.044.102-.16.172-.287.172a.308.308 0 0 1-.16-.044c-.024.06-.07.112-.137.122-.06.012-.14-.02-.2-.05-.095-.052-.206-.22-.206-.22l.014-.084s.06.068.164.15.184.076.184.076c.07-.01.1-.074.1-.142v-.072l.044.058c.038.054.103.1.178.1.12 0 .214-.1.214-.202 0-.034-.004-.064-.02-.092l.038-.088.07.07c-.002.008-.002.016-.002.024 0 .118.1.212.224.212.11 0 .208-.072.224-.178.002 0 .002-.082.008-.082s.028.078.032.076c.028.084.113.146.214.146.123 0 .224-.094.224-.2 0-.028 0-.052-.01-.076l.06-.01h.002z"/><path d="M1036 414.946c-.608.002-1.156.074-1.55.188-.026.008-.06-.012-.067-.034s.01-.056.036-.064c.394-.12.956-.196 1.58-.196s1.188.076 1.582.196c.026.008.044.038.036.064s-.04.042-.067.034c-.394-.114-.943-.186-1.552-.188zm-2.07-.246c-.002.002-.077-.096-.13-.146-.04-.036-.137-.066-.137-.066 0-.016.057-.056.117-.056.036 0 .07.014.1.04l.008-.04s.048.01.07.064.01.144.01.144-.01.04-.028.06z"/><use xlink:href="#Z"/><use xlink:href="#D"/><use xlink:href="#E"/><use xlink:href="#a"/><path d="M1034.86 414.052l-.135.128.174.228.047.018.034-.036.06-.274-.18-.064"/><path d="M1035.32 414.36l-.053.126-.283-.026-.036-.032.02-.044.247-.128.105.104"/><use xlink:href="#F"/><use xlink:href="#G"/><use xlink:href="#b"/><path d="M1035.987 413.93l-.174.104.13.276.044.028.045-.028.13-.276-.174-.104"/><use xlink:href="#c"/><use xlink:href="#F" x="1.043" y="-.088"/><use xlink:href="#d"/><use xlink:href="#e"/><path d="M1037.12 414.052l.135.128-.174.228-.046.018-.034-.036-.06-.274.18-.064"/><path d="M1037.405 414.508l-.103.096-.246-.132-.02-.042.038-.034.283-.024.048.136"/><path d="M1036.936 414.43c0-.052.044-.094.1-.094s.1.042.1.094-.044.094-.1.094-.1-.042-.1-.094zm.602.246c.012-.036 0-.074-.026-.084s-.06.018-.075.054 0 .076.028.084.06-.016.073-.054z"/><path d="M1038.02 414.7c.002.002.077-.096.133-.146.038-.036.135-.066.135-.066 0-.016-.056-.056-.117-.056-.036 0-.07.014-.1.04l-.008-.04s-.05.01-.073.064-.006.144-.006.144.008.04.026.06z"/><use xlink:href="#f"/><use xlink:href="#g"/></g><use xlink:href="#h" class="F"/><path d="M1035.015 415.262l-.14.022c-.036.004-.07-.018-.077-.052s.02-.064.055-.07l.14-.02.144-.022c.036-.004.07.018.075.05a.063.063 0 0 1-.055.07l-.143.022" class="H"/><use xlink:href="#H"/><use xlink:href="#I" class="F"/><use xlink:href="#H" x="1.003"/><use xlink:href="#J" class="H"/><g class="F"><use xlink:href="#i"/><use xlink:href="#K"/></g><use xlink:href="#L" class="I"/><use xlink:href="#M" class="J"/><use xlink:href="#N" class="I"/><use xlink:href="#O" class="J"/><use xlink:href="#P" class="I"/><g class="G"><path d="M1034.22 434.656c.01.042.026.08.026.124 0 .292-.257.526-.568.526h4.634c-.313 0-.568-.234-.568-.526a.52.52 0 0 1 .018-.124c-.026.01-.058.012-.09.012h-3.372c-.026 0-.06-.004-.083-.012z"/><use xlink:href="#Q"/><path d="M1033.686 436.472h4.62v-1.166h-4.62v1.166z"/></g><path d="M1034.35 434.164h3.283v-15.926h-3.283v15.926z" class="J"/><g class="G"><path d="M1033.748 416.974h4.503v-1.168h-4.503v1.168z"/><use xlink:href="#R"/><use xlink:href="#S"/><use xlink:href="#T"/></g><g class="F"><path d="M1033.324 430.224c-.457.26-.768.528-.717.662.024.122.17.214.378.35.327.226.525.628.37.814.27-.216.443-.538.443-.898 0-.374-.182-.712-.473-.928zm7.66-6.03c-.715-.292-1.933-.5-3.33-.556-.483.004-1.018.05-1.574.14-1.964.326-3.46 1.102-3.34 1.734l.01.052-.747-1.704c-.13-.702 1.527-1.564 3.707-1.924a11.23 11.23 0 0 1 1.931-.152c1.394 0 2.606.178 3.337.446l.008 1.964"/><path d="M1034.343 426.194c-.9-.064-1.53-.306-1.604-.682-.056-.3.253-.634.802-.936l.808.06-.006 1.558m3.295-1.218c.57.086.996.226 1.208.398l.02.034c.1.206-.398.644-1.234 1.134l.006-1.566"/><path d="M1032.302 429.266c-.087-.256.802-.772 2.057-1.228.574-.202 1.046-.414 1.634-.67 1.743-.764 3.03-1.64 2.873-1.958l-.018-.034c.093.076.238 1.648.238 1.648.158.292-1.02 1.156-2.626 1.916-.513.244-1.598.64-2.1.818-.917.314-1.826.908-1.743 1.128l-.305-1.62zm33.824-14.682s-.15.156-.26.178-.244-.098-.244-.098-.097.102-.218.128-.285-.132-.285-.132-.115.16-.216.198-.228-.048-.228-.048-.046.078-.13.122c-.036.018-.097-.01-.097-.01l-.12-.076-.137-.144-.125-.048-.063-.214-.016-.114c-.026-.13.176-.28.465-.344.166-.038.3-.036.416-.004.115-.096.36-.164.646-.164.26 0 .5.054.614.14.123-.086.35-.14.612-.14.287 0 .53.068.644.164.107-.032.25-.034.418.004.287.064.5.214.465.344l-.016.114c-.006.032-.065.214-.065.214l-.125.048-.137.144-.117.076s-.06.028-.097.01c-.087-.042-.133-.122-.133-.122s-.125.084-.228.048-.216-.198-.216-.198-.166.16-.287.132-.216-.128-.216-.128-.137.118-.244.098-.257-.178-.257-.178z"/></g><g class="G"><path d="M1065.84 413.74c0-.217.124-.392.28-.392s.28.175.28.392-.124.392-.28.392-.28-.175-.28-.392zm.16 0c0-.2.057-.362.127-.362s.127.16.127.362-.057.362-.127.362-.127-.16-.127-.362z"/><path d="M1065.936 413.3c0-.098.084-.176.188-.176s.188.078.188.176-.084.176-.188.176-.188-.08-.188-.176z"/><path d="M1066.385 413.228v.116h-.51v-.116h.2v-.26h-.125v-.116h.125v-.116h.123v.116h.123v.116h-.123v.26h.198"/></g><use xlink:href="#U"/><use xlink:href="#U" x="2.576"/><g class="G"><use xlink:href="#A" x="30.135"/><use xlink:href="#B" x="30.135"/><use xlink:href="#C" x="30.135"/><path d="M1066.128 414.398l.057.01a.19.19 0 0 0-.012.076c0 .116.1.2.226.2.1 0 .184-.062.214-.146.002.002.022-.076.03-.076s.006.082.01.082c.014.106.11.178.222.178.125 0 .224-.094.224-.212 0-.008 0-.016-.002-.024l.07-.07.038.088a.199.199 0 0 0-.02.092c0 .112.095.202.214.202.075 0 .14-.036.178-.1l.046-.058v.072c0 .068.028.132.1.142 0 0 .077.006.184-.076s.162-.15.162-.15l.006.084s-.103.168-.196.22c-.05.03-.13.062-.192.05s-.11-.062-.135-.122c-.047.028-.103.044-.162.044-.127 0-.242-.07-.287-.172-.06.062-.14.1-.234.1-.103 0-.196-.046-.255-.116a.32.32 0 0 1-.22.086.33.33 0 0 1-.269-.138c-.06.082-.158.138-.27.138-.085 0-.164-.032-.22-.086-.06.07-.15.116-.253.116a.31.31 0 0 1-.236-.1c-.044.102-.16.172-.287.172a.308.308 0 0 1-.16-.044c-.024.06-.07.112-.137.122-.06.012-.14-.02-.2-.05-.095-.052-.206-.22-.206-.22l.014-.084s.06.068.164.15.184.076.184.076c.07-.01.1-.074.1-.142v-.072l.044.058c.038.054.103.1.178.1.12 0 .214-.1.214-.202 0-.034-.004-.064-.02-.092l.038-.088.07.07c-.002.008-.002.016-.002.024 0 .118.1.212.224.212.11 0 .208-.072.224-.178.002 0 .002-.082.008-.082s.028.078.032.076c.028.084.113.146.214.146.123 0 .224-.094.224-.2 0-.028 0-.052-.01-.076l.06-.01h.002z"/><path d="M1066.124 414.946c-.608.002-1.156.074-1.55.188-.026.008-.06-.012-.067-.034s.01-.056.036-.064c.394-.12.956-.196 1.58-.196s1.188.076 1.582.196c.026.008.045.038.036.064s-.04.042-.067.034c-.394-.114-.943-.186-1.552-.188zm-2.07-.246c-.002.002-.077-.096-.13-.146-.04-.036-.137-.066-.137-.066 0-.016.057-.056.117-.056.036 0 .07.014.1.04l.008-.04s.05.01.07.064.01.144.01.144-.01.04-.028.06z"/><use xlink:href="#Z" x="30.135"/><use xlink:href="#D" x="30.135"/><use xlink:href="#E" x="30.135"/><use xlink:href="#a" x="30.125"/><path d="M1064.995 414.052l-.135.128.174.228.046.018.034-.036.06-.274-.18-.064"/><path d="M1065.456 414.36l-.053.126-.283-.026-.036-.032.02-.044.246-.128.105.104"/><path d="M1064.983 414.43c0-.052.044-.094.1-.094s.1.042.1.094-.044.094-.1.094-.1-.042-.1-.094z"/><use xlink:href="#G" x="30.135"/><use xlink:href="#b" x="30.135"/><path d="M1066.122 413.93l-.174.104.13.276.044.028.044-.028.13-.276-.174-.104"/><use xlink:href="#c" x="30.134"/><use xlink:href="#F" x="31.178" y="-.088"/><use xlink:href="#d" x="30.136"/><use xlink:href="#e" x="30.135"/><path d="M1067.256 414.052l.135.128-.174.228-.047.018-.034-.036-.06-.274.18-.064"/><path d="M1067.54 414.508l-.103.096-.246-.132-.02-.042.038-.034.283-.024.05.136"/><use xlink:href="#F" x="32.224"/><path d="M1067.674 414.676c.012-.036 0-.074-.026-.084s-.06.018-.075.054 0 .076.028.084.058-.016.073-.054zm.483.024c.002.002.077-.096.133-.146.038-.036.135-.066.135-.066 0-.016-.056-.056-.117-.056-.036 0-.07.014-.1.04l-.008-.04s-.05.01-.073.064-.006.144-.006.144.008.04.026.06z"/><use xlink:href="#f" x="30.135"/><use xlink:href="#g" x="30.137"/></g><use xlink:href="#h" x="30.135" class="F"/><path d="M1065.15 415.262l-.14.022c-.036.004-.07-.018-.077-.052s.02-.064.055-.07l.14-.02.143-.022c.036-.004.07.018.075.05a.063.063 0 0 1-.055.07l-.143.022" class="H"/><use xlink:href="#H" x="30.134"/><use xlink:href="#I" x="30.135" class="F"/><path d="M1066.538 415.16c0-.045.04-.082.09-.082s.09.037.09.082-.04.082-.09.082-.09-.037-.09-.082z"/><use xlink:href="#J" x="30.135" class="H"/><g class="F"><use xlink:href="#i" x="30.136"/><use xlink:href="#K" x="30.135"/></g><use xlink:href="#L" x="30.135" class="I"/><use xlink:href="#M" x="30.135" class="J"/><use xlink:href="#N" x="30.135" class="I"/><use xlink:href="#O" x="30.135" class="J"/><use xlink:href="#P" x="30.135" class="I"/><g class="G"><path d="M1064.357 434.656c.01.042.026.08.026.124 0 .292-.257.526-.568.526h4.634c-.313 0-.568-.234-.568-.526a.52.52 0 0 1 .018-.124c-.026.01-.06.012-.09.012h-3.372c-.026 0-.06-.004-.083-.012z"/><use xlink:href="#Q" x="30.135"/><path d="M1063.82 436.472h4.62v-1.166h-4.62v1.166z"/></g><path d="M1064.484 434.164h3.283v-15.926h-3.283v15.926z" class="J"/><g class="G"><path d="M1063.884 416.974h4.503v-1.168h-4.503v1.168z"/><use xlink:href="#R" x="30.135"/><use xlink:href="#S" x="30.135"/><use xlink:href="#T" x="30.135"/></g><g class="F"><path d="M1068.8 430.224c.457.26.768.528.717.662-.024.122-.17.214-.378.35-.327.226-.525.628-.37.814-.27-.216-.442-.538-.442-.898 0-.374.182-.712.473-.928zm-7.66-6.03c.715-.292 1.933-.5 3.33-.556.483.004 1.018.05 1.574.14 1.964.326 3.46 1.102 3.34 1.734l-.01.052.747-1.704c.13-.702-1.527-1.564-3.707-1.924a11.23 11.23 0 0 0-1.931-.152c-1.394 0-2.606.178-3.337.446l-.008 1.964"/><path d="M1067.783 426.194c.9-.064 1.53-.306 1.604-.682.057-.3-.253-.634-.802-.936l-.808.06.006 1.558m-3.295-1.218c-.57.086-.996.226-1.208.398l-.02.034c-.1.206.398.644 1.234 1.134l-.006-1.566"/><path d="M1069.823 429.266c.087-.256-.802-.772-2.057-1.228l-1.634-.67c-1.744-.764-3.03-1.64-2.873-1.958l.018-.034c-.093.076-.238 1.648-.238 1.648-.157.292 1.02 1.156 2.626 1.916.513.244 1.598.64 2.11.818.917.314 1.826.908 1.743 1.128l.305-1.618v-.002z"/></g><g class="G"><path d="M1034.12 423.43c.402-.144.665-.316.537-.628-.083-.2-.3-.238-.6-.126l-.548.198.493 1.206.164-.068.172-.052-.218-.528v-.002zm-.238-.582l.14-.05c.115-.042.245.02.303.16.043.106.032.226-.1.3-.042.026-.093.046-.14.066l-.2-.486m1.522-.494l-.174.044-.178.024.285 1.256.885-.176c-.01-.024-.024-.052-.028-.076s-.006-.056-.008-.082l-.527.132-.255-1.122m1.774 1.082c.166-.456.368-.892.568-1.334l-.1.014a1.009 1.009 0 0 1-.11 0c-.107.322-.238.642-.378.96l-.5-.902-.208.024-.2.004.735 1.246.1-.016c.032-.002.067.002.1.004m1.853-.966l.097-.178c-.048-.044-.194-.1-.366-.126-.362-.036-.568.122-.592.338-.053.452.67.414.634.714-.014.128-.15.18-.3.166-.164-.016-.285-.106-.305-.238l-.044-.004a1.51 1.51 0 0 1-.097.23c.107.068.244.106.374.118.37.038.65-.108.677-.348.047-.43-.68-.454-.652-.708.012-.106.095-.176.283-.158.135.014.218.086.255.2l.036.004m24.15 1.026l.442-1.374c-.034.01-.07.018-.107.022l-.1.01a10.87 10.87 0 0 1-.287.988l-.572-.86-.206.04-.2.022.85 1.182c.032-.008.065-.02.1-.024s.067-.004.1-.006m1.248-1.364l-.178.006c-.06 0-.12-.008-.18-.012l-.024 1.282.907.016c-.006-.026-.012-.056-.012-.082s.008-.054.014-.08l-.547.016.02-1.146m1.413.2c.145.012.285.038.424.062-.002-.026-.006-.054-.004-.082s.012-.052.02-.078l-1.226-.1c.002.028.006.054.004.08s-.012.054-.02.08a3.89 3.89 0 0 1 .447.01l-.107 1.154.178.006c.06.004.12.014.178.022l.107-1.154"/><path d="M1066.36 423.606l.178.03c.057.012.115.03.172.046l.146-.588.016.002.1.238.182.444.212.036.2.056-.063-.134-.285-.604c.226.008.4-.072.444-.252.03-.124-.02-.222-.137-.306-.09-.062-.26-.094-.37-.12l-.493-.106-.31 1.258m.634-1.084c.144.032.32.054.32.214a.5.5 0 0 1-.012.096c-.046.188-.2.252-.43.182l.12-.492"/><path d="M1068.696 423.992c-.01.138-.036.274-.063.42l.182.088c.06.032.115.068.174.104l.12-1.446-.083-.038a.592.592 0 0 1-.075-.048l-1.29.8.103.05c.034.018.063.038.095.056.11-.1.222-.164.35-.26l.483.262v.002zm-.366-.332l.43-.274-.05.48-.38-.206"/></g><path d="M1050.934 407.044c1.34 0 2.537.198 3.315.502.444.2 1.042.346 1.697.434a6.88 6.88 0 0 0 1.384.048c.552-.012 1.347.148 2.145.496.66.3 1.2.642 1.576.982l-.317.28-.09.792-.87.984-.434.366-1.028.814-.525.042-.16.45-6.65-.772-6.67.772-.16-.45-.527-.042-1.026-.814-.434-.366-.87-.984-.09-.792-.32-.28c.368-.34.917-.692 1.576-.982.798-.348 1.594-.508 2.145-.496.412.03.885.018 1.384-.048.655-.088 1.253-.234 1.697-.434.78-.304 1.907-.502 3.248-.502z" class="F"/><g class="G"><path d="M1046.023 408.784l.28.222.42-.68c-.454-.276-.768-.756-.768-1.302a1.37 1.37 0 0 1 .012-.182c.042-.868 1.11-1.584 2.465-1.584.703 0 1.34.2 1.786.496l.042-.372c-.49-.284-1.13-.456-1.828-.456-1.557 0-2.776.878-2.834 1.914l-.01.184a1.84 1.84 0 0 0 .659 1.398l-.222.362"/><path d="M1046.04 408.792c-.53-.394-.863-.928-.863-1.516 0-.676.45-1.28 1.127-1.682-.418.334-.673.766-.7 1.246l-.01.184a1.84 1.84 0 0 0 .659 1.398l-.204.37m-4.69.686c-.3-.33-.48-.758-.48-1.224 0-.282.067-.55.184-.8.43-.876 1.782-1.514 3.386-1.514a5.6 5.6 0 0 1 1.24.134c-.085.092-.152.194-.218.296-.32-.062-.665-.096-1.022-.096-1.47 0-2.7.566-3.055 1.33-.095.194-.147.412-.147.64 0 .464.22.88.564 1.164l-.53.86-.285-.224.366-.576z"/><path d="M1041.894 406.596c-.386.242-.68.538-.84.868a1.81 1.81 0 0 0-.184.8 1.82 1.82 0 0 0 .481 1.224l-.323.518c-.3-.392-.5-.852-.5-1.34 0-.84.54-1.574 1.356-2.06zm9.12-1.842c.355 0 .663.232.735.546a6.43 6.43 0 0 1 .083.924c.002.036-.002.07-.002.104 0 .04.008.082.01.122.012.704.113 1.324.257 1.704l-1.083 1.028-1.097-1.028c.145-.38.247-1 .26-1.704 0-.04.008-.082.008-.122l-.002-.104a6.3 6.3 0 0 1 .083-.924c.073-.314.392-.546.747-.546z"/><path d="M1051.013 405.088c.184 0 .34.116.378.278a5.72 5.72 0 0 1 .081.876l-.002.096c0 .04.006.078.008.118.01.664.107 1.25.244 1.6l-.715.67-.715-.67c.135-.36.232-.946.244-1.6 0-.04.008-.078.008-.118l-.002-.096c.006-.316.034-.614.08-.876.036-.162.206-.278.4-.278zm4.982 3.696l-.28.222-.42-.68c.457-.276.77-.756.77-1.302a1.368 1.368 0 0 0-.012-.182c-.043-.868-1.11-1.584-2.465-1.584-.705 0-1.34.2-1.786.496l-.044-.372c.493-.284 1.13-.456 1.83-.456 1.558 0 2.776.878 2.834 1.914l.01.184c0 .552-.256 1.052-.66 1.398l.224.362"/><path d="M1055.977 408.792c.53-.394.863-.928.863-1.516 0-.676-.448-1.28-1.127-1.682.418.334.673.766.71 1.246l.01.184c0 .552-.257 1.052-.66 1.398l.206.37"/><path d="M1060.668 409.478c.297-.33.48-.758.48-1.224a1.796 1.796 0 0 0-.184-.79c-.432-.876-1.782-1.514-3.386-1.514a5.63 5.63 0 0 0-1.242.134c.087.092.154.194.22.296a5.39 5.39 0 0 1 1.022-.096c1.47 0 2.697.566 3.053 1.33.095.194.147.412.147.64 0 .464-.22.88-.564 1.164l.53.86.287-.224-.366-.576z"/><path d="M1060.124 406.596c.386.242.68.538.84.868a1.796 1.796 0 0 1 .184.79c0 .466-.184.894-.48 1.224l.323.518c.31-.392.487-.852.487-1.34 0-.84-.54-1.574-1.353-2.06z"/></g><path d="M1050.12 403.96c0-.465.4-.84.895-.84s.895.375.895.84-.4.84-.895.84-.895-.375-.895-.84z" class="I"/><path d="M1050.78 401.608v.452h-.49v.46h.49v1.322h-.616c-.006.042-.044.074-.044.118 0 .116.024.228.07.328l1.647.006a.77.77 0 0 0 .077-.334c0-.044-.038-.076-.044-.118h-.598v-1.322h.49v-.46h-.49v-.452h-.49z" class="G"/><use xlink:href="#V"/><use xlink:href="#V" y="-.708"/><path d="M1050.706 406.82c0-.16.137-.288.307-.288s.307.128.307.288-.137.288-.307.288-.307-.128-.307-.288z"/><use xlink:href="#W"/><path d="M1050.835 405.536c0-.092.08-.166.178-.166s.178.074.178.166-.08.166-.178.166-.178-.074-.178-.166z"/><use xlink:href="#W" x="-10.323" y="4.098"/><use xlink:href="#W" x="-10.626" y="3.568"/><use xlink:href="#W" x="-10.828" y="2.952"/><use xlink:href="#W" x="-10.855" y="2.292"/><use xlink:href="#W" x="-10.691" y="1.644"/><use xlink:href="#W" x="-10.35" y="1.064"/><use xlink:href="#W" x="-9.895" y=".568"/><use xlink:href="#W" x="-9.366" y=".166"/><use xlink:href="#W" x="-8.735" y="-.164"/><use xlink:href="#W" x="-8.081" y="-.398"/><use xlink:href="#W" x="-7.35" y="-.528"/><use xlink:href="#W" x="-6.655" y="-.564"/><use xlink:href="#W" x="-5.974" y="-.54"/><use xlink:href="#W" x="-5.218" y="2.428"/><use xlink:href="#W" x="-5.596" y="1.894"/><use xlink:href="#W" x="-5.796" y="1.314"/><use xlink:href="#W" x="-5.772" y=".678"/><use xlink:href="#W" x="-5.632" y=".038"/><use xlink:href="#W" x="-5.293" y="-.54"/><use xlink:href="#W" x="-4.776" y="-.942"/><use xlink:href="#W" x="-4.172" y="-1.274"/><use xlink:href="#W" x="-3.503" y="-1.472"/><use xlink:href="#W" x="-2.81" y="-1.59"/><use xlink:href="#W" x="-2.129" y="-1.58"/><use xlink:href="#W" x="-1.424" y="-1.462"/><use xlink:href="#W" x="-.77" y="-1.238"/><use xlink:href="#W" x=".76" y="-1.238"/><use xlink:href="#W" x="1.414" y="-1.462"/><use xlink:href="#W" x="2.121" y="-1.58"/><use xlink:href="#W" x="2.8" y="-1.59"/><use xlink:href="#W" x="3.495" y="-1.472"/><use xlink:href="#W" x="4.162" y="-1.274"/><use xlink:href="#W" x="4.768" y="-.942"/><use xlink:href="#W" x="5.283" y="-.54"/><use xlink:href="#W" x="5.624" y=".038"/><use xlink:href="#W" x="5.764" y=".678"/><use xlink:href="#W" x="5.788" y="1.314"/><use xlink:href="#W" x="5.586" y="1.894"/><use xlink:href="#W" x="5.209" y="2.428"/><use xlink:href="#W" x="5.966" y="-.54"/><use xlink:href="#W" x="6.646" y="-.564"/><use xlink:href="#W" x="7.341" y="-.528"/><use xlink:href="#W" x="8.073" y="-.398"/><use xlink:href="#W" x="8.727" y="-.164"/><use xlink:href="#W" x="9.358" y=".166"/><use xlink:href="#W" x="9.885" y=".568"/><use xlink:href="#W" x="10.339" y="1.064"/><use xlink:href="#W" x="10.681" y="1.644"/><use xlink:href="#W" x="10.844" y="2.292"/><use xlink:href="#W" x="10.82" y="2.952"/><use xlink:href="#W" x="10.618" y="3.568"/><use xlink:href="#W" x="10.315" y="4.098"/><g class="G"><path d="M1051.035 415.736c-2.477-.004-4.697-.294-6.28-.766-.115-.036-.176-.14-.17-.25-.002-.104.06-.2.17-.234 1.584-.472 3.804-.762 6.28-.766 2.48.004 4.697.294 6.28.766.11.034.17.13.168.234a.25.25 0 0 1-.168.25c-1.584.472-3.802.762-6.28.766"/><path d="M1051.02 413.718c-2.507.006-4.758.316-6.34.8.13-.062.12-.224-.044-.64-.198-.506-.505-.484-.505-.484 1.75-.512 4.188-.832 6.9-.836 2.715.004 5.172.324 6.923.836 0 0-.31-.022-.507.484-.164.416-.176.578-.043.64-1.584-.484-3.877-.794-6.384-.8"/><path d="M1051.03 412.56c-2.713.004-5.15.324-6.9.836-.117.034-.24-.01-.28-.12s.024-.236.14-.27c1.76-.534 4.26-.87 7.038-.876 2.782.006 5.29.342 7.05.876.117.034.18.16.14.27s-.162.154-.28.12c-1.752-.512-4.198-.832-6.913-.836"/><path d="M1051.046 410.456l.248.044c-.038.1-.048.2-.048.326 0 .514.446.93.994.93.44 0 .816-.27.943-.642.016.01.095-.336.137-.332.034.004.03.36.044.354.063.468.497.786.984.786.547 0 .992-.416.992-.93a.73.73 0 0 0-.008-.114l.31-.304.168.388c-.067.122-.093.26-.093.406 0 .492.424.888.947.888.33 0 .618-.156.788-.394l.2-.25-.002.306c0 .3.133.586.436.636 0 0 .35.02.814-.34s.717-.658.717-.658l.04.36s-.384.6-.802.83c-.23.132-.578.27-.854.226-.3-.048-.5-.28-.608-.548a1.418 1.418 0 0 1-.717.194c-.568 0-1.077-.308-1.277-.772a1.41 1.41 0 0 1-1.051.45c-.452 0-.867-.202-1.125-.512-.257.232-.602.374-.986.374-.5 0-.948-.244-1.2-.6-.253.366-.7.6-1.2.6-.382 0-.73-.142-.984-.374a1.51 1.51 0 0 1-1.127.512c-.426 0-.788-.17-1.048-.45-.202.464-.71.772-1.277.772a1.412 1.412 0 0 1-.717-.194c-.11.268-.317.5-.6.548-.275.044-.622-.094-.853-.226-.42-.24-.804-.83-.804-.83l.04-.36a5.43 5.43 0 0 0 .719.658c.463.36.812.34.812.34.305-.05.436-.326.436-.636l-.002-.306.2.25c.17.238.46.394.788.394.523 0 .947-.396.947-.888 0-.146-.026-.284-.093-.406l.168-.388.31.304-.008.114c0 .514.444.93.992.93.49 0 .92-.318.986-.786.012.006.01-.35.044-.354.04-.004.12.342.135.332.13.372.503.642.945.642.548 0 .992-.416.992-.93 0-.116-.006-.226-.048-.326l.26-.044"/><path d="M1042.595 411.764c-.022-.074-.07-.15-.146-.212-.16-.136-.372-.158-.477-.05a.2.2 0 0 0-.034.05s-.224-.416-.487-.556-.705-.104-.705-.104c0-.32.263-.578.604-.578a.64.64 0 0 1 .5.222l.046-.214s.275.054.4.364-.012.76-.012.76.07-.192.172-.322.366-.268.503-.332.277-.158.277-.158a1.19 1.19 0 0 0 .01.122c.006.102-.002.166-.002.166.25-.034.543.008.774.096-.1.2-.285.368-.53.46l.168.15a.8.8 0 0 1 .089.098l-.257.038c-.087.01-.372.056-.543.044a3.209 3.209 0 0 1-.351-.044"/></g><path d="M1041.973 411.502c.105-.108.317-.086.477.05s.206.332.103.438-.317.084-.477-.05-.206-.332-.103-.438" class="F"/><path d="M1044.215 411.682c-.056-.166-.006-.33.115-.366s.267.066.323.232.006.33-.115.368-.265-.068-.323-.234"/><g class="G"><path d="M1046.18 410.872c-.067-.054-.12-.128-.135-.216s.002-.174.047-.246c0 0-.178-.088-.37-.138a2.37 2.37 0 0 0-.479-.04l-.232-.006a1.258 1.258 0 0 0 .057.11c.055.092.1.15.1.15-.256.058-.475.224-.612.418.2.136.465.22.727.194 0 0-.024.068-.04.172l-.012.122.216-.078c.07-.026.31-.1.434-.192.162-.108.3-.25.3-.25"/><path d="M1046.092 408.83a1.07 1.07 0 0 1 .465.606s.026-.05.144-.118.22-.064.22-.064l-.05.264c-.018.068-.018.276-.065.464s-.127.336-.127.336c-.085-.068-.2-.102-.32-.082s-.214.088-.267.18c0 0-.133-.116-.245-.276s-.188-.356-.228-.416l-.145-.23s.095-.036.23-.01.178.064.178.064a1.01 1.01 0 0 1 .21-.718"/><path d="M1046.757 410.776c.044-.07.065-.158.05-.246s-.065-.162-.133-.214c0 0 .135-.142.297-.252.12-.082.364-.164.434-.2l.216-.08s0 .036-.012.122c-.016.104-.04.174-.04.174a1.11 1.11 0 0 1 .729.196c-.14.194-.358.358-.614.416 0 0 .046.056.1.148l.057.112-.232-.006a2.37 2.37 0 0 1-.479-.04c-.192-.05-.372-.138-.372-.138"/></g><path d="M1045.995 410.6c0-.228.196-.412.438-.412s.438.184.438.412-.196.412-.438.412-.438-.184-.438-.412z" class="F"/><path d="M1048.532 410.854c-.022-.174.063-.326.188-.34s.25.114.27.288-.06.326-.188.34-.246-.114-.27-.288"/><g class="G"><path d="M1050.702 410.466c-.065-.072-.107-.164-.107-.266a.39.39 0 0 1 .103-.264s-.18-.134-.382-.224c-.156-.07-.44-.118-.525-.134l-.26-.048a1.24 1.24 0 0 0 .04.134 1.47 1.47 0 0 0 .08.186c-.297.016-.576.162-.77.352.194.188.473.332.77.35 0 0-.04.072-.08.186l-.04.134.26-.048c.085-.016.37-.064.525-.134.202-.092.386-.222.386-.222m.325-2.296c.212.2.374.472.394.764 0 0 .038-.054.184-.106s.26-.032.26-.032l-.1.284c-.034.074-.08.306-.17.506s-.212.352-.212.352a.42.42 0 0 0-.337-.15.451.451 0 0 0-.337.15s-.123-.152-.212-.352-.135-.432-.17-.506-.113-.284-.113-.284.113-.02.26.032.186.106.186.106c.02-.292.174-.574.382-.764"/><path d="M1051.36 410.466a.39.39 0 0 0 .107-.266c0-.102-.038-.194-.103-.264 0 0 .18-.134.384-.224.154-.07.438-.118.525-.134l.255-.048s-.004.04-.038.134c-.04.112-.08.186-.08.186a1.22 1.22 0 0 1 .77.352c-.192.188-.47.332-.77.35 0 0 .04.072.08.186.032.092.038.134.038.134l-.255-.048c-.087-.016-.372-.064-.525-.134-.204-.092-.388-.222-.388-.222"/></g><use xlink:href="#X" class="F"/><path d="M1053.546 410.854c.022-.174-.06-.326-.188-.34s-.248.114-.27.288.063.326.188.34.25-.114.27-.288"/><g class="G"><path d="M1055.324 410.776a.356.356 0 0 1-.051-.246c.018-.088.067-.162.135-.214 0 0-.135-.142-.297-.252-.123-.082-.364-.164-.436-.2l-.214-.08s-.002.036.012.122c.016.104.038.174.038.174-.26-.028-.527.058-.727.196.137.194.358.358.612.416 0 0-.046.056-.1.148-.044.078-.057.112-.057.112l.23-.006a2.36 2.36 0 0 0 .479-.04c.192-.05.372-.138.372-.138"/><path d="M1056 408.83c-.214.134-.4.358-.467.606 0 0-.024-.05-.143-.118s-.22-.064-.22-.064l.053.264c.018.068.018.276.063.464a1.559 1.559 0 0 0 .129.336.401.401 0 0 1 .317-.082.38.38 0 0 1 .269.18s.133-.116.244-.276.186-.356.226-.416l.145-.23s-.095-.036-.23-.01-.178.064-.178.064a1.01 1.01 0 0 0-.208-.718m-.092 2.042a.35.35 0 0 0 .135-.216c.014-.088 0-.174-.044-.246 0 0 .178-.088.37-.138.146-.038.402-.04.477-.04l.232-.006s-.012.034-.057.1c-.053.092-.1.15-.1.15.255.058.473.224.612.418a1.13 1.13 0 0 1-.727.194 1.21 1.21 0 0 0 .038.172l.012.122-.214-.078c-.073-.026-.313-.1-.436-.192-.16-.108-.3-.25-.3-.25"/></g><use xlink:href="#X" x="4.614" y=".4" class="F"/><path d="M1057.866 411.682c.057-.166.006-.33-.115-.366s-.267.066-.325.232-.006.33.115.368.267-.068.325-.234"/><path d="M1059.484 411.764c.022-.074.073-.15.146-.212.16-.136.374-.158.477-.05a.21.21 0 0 1 .036.05s.222-.416.485-.556.707-.104.707-.104c0-.32-.265-.578-.606-.578a.64.64 0 0 0-.5.222l-.046-.214s-.275.054-.4.364.01.76.01.76-.067-.192-.17-.322-.366-.268-.503-.332-.277-.158-.277-.158-.006.036-.012.122a1.124 1.124 0 0 0 .004.166c-.253-.034-.545.008-.774.096.097.2.283.368.527.46l-.168.15-.087.098.257.038c.087.01.372.056.54.044.127-.008.267-.028.35-.044" class="G"/><path d="M1060.106 411.502c-.103-.108-.317-.086-.477.05s-.206.332-.103.438.317.084.477-.05.206-.332.103-.438m-9.077 3.912c-2.234-.002-4.256-.258-5.794-.652 1.537-.394 3.56-.634 5.794-.638 2.236.004 4.27.244 5.806.638-1.537.394-3.57.65-5.806.652zm-6.747-1.482l.246-.318.68.086-.543.392-.384-.16" class="F"/><use xlink:href="#Y"/><path d="M1047.7 413.514l-.477.054c-.123.014-.236-.066-.25-.18s.07-.218.194-.23l.48-.056.49-.056c.12-.014.232.066.246.18s-.073.218-.194.232l-.487.056" class="H"/><path d="M1049.094 413.17c0-.116.1-.208.222-.208s.222.092.222.208-.1.208-.222.208-.222-.094-.222-.208"/><path d="M1051.035 413.332h-.665c-.12 0-.224-.092-.224-.206s.1-.208.222-.208h1.34c.123 0 .222.092.222.208s-.103.206-.224.206h-.673" class="F"/><use xlink:href="#Y" x="6.774" y="-.386"/><path d="M1054.37 413.514l.477.054c.12.014.236-.066.25-.18a.21.21 0 0 0-.194-.23l-.48-.056-.49-.056c-.123-.014-.232.066-.246.18s.073.218.194.232l.487.056" class="H"/><use xlink:href="#Y" x="10.109"/><path d="M1057.787 413.932l-.244-.318-.68.086.543.392.382-.16" class="F"/><path d="M1051.104 439.366c-2.642 0-5.263-.64-7.465-1.708-1.622-.796-2.7-2.4-2.7-4.238v-6.66h20.287v6.66c0 1.838-1.075 3.442-2.7 4.238a17.18 17.18 0 0 1-7.424 1.708z" class="J"/><path d="M1051.593 436.4c.422.126.636.438.636.802 0 .476-.465.836-1.07.836s-1.095-.36-1.095-.836c0-.358.202-.76.622-.788 0 0-.012-.038-.048-.1l-.13-.132s.16-.03.253.004a.538.538 0 0 1 .155.094s.042-.086.105-.152.14-.106.14-.106.093.076.123.128a.725.725 0 0 1 .051.118s.085-.07.16-.098.17-.052.17-.052l-.044.138c-.018.046-.028.144-.028.144" fill="#ffd691"/><path d="M1051.07 438.564s-.804-.536-1.15-.608c-.446-.094-.947-.018-1.164-.03.006.006.26.186.372.296a2.13 2.13 0 0 0 .693.382c.65.162 1.25-.04 1.25-.04m.23.048s.513-.532 1.053-.604c.636-.088 1.055.052 1.3.116.006 0-.204.098-.315.174s-.398.314-.836.318-.925-.046-1.004-.034l-.198.03" class="H"/><path d="M1051.145 437.956c-.202-.186-.327-.45-.327-.744s.125-.556.33-.742a1.01 1.01 0 0 1-.002 1.486" class="F"/><path d="M1050.94 439.042s.123-.304.135-.566c.012-.218-.03-.434-.03-.434h.162s.08.232.08.434-.036.474-.036.474-.11.016-.147.034-.162.058-.162.058" class="H"/><path d="M1051.07 433.414c0 2.632-2.255 4.764-5.06 4.764s-5.08-2.132-5.08-4.764v-6.67h10.14v6.67" class="F"/><path d="M1040.9 433.324c.03 1.404.596 2.45 1.158 3.134v-9.894h-1.144l-.014 6.76zm2.232 4.022c.317.166.752.444 1.218.554l-.03-11.392h-1.188v10.838zm2.273.804c.465.046.8.038 1.186 0v-11.642h-1.186v11.642zm2.23-.25c.465-.092 1-.378 1.218-.526v-10.866h-1.188l-.03 11.392zm2.32-1.552c.495-.436.96-1.424 1.13-2.552l.028-7.288h-1.186l.028 9.84z" class="G"/><path d="M1061.237 426.744v6.67c0 2.632-2.28 4.764-5.085 4.764s-5.083-2.132-5.083-4.764v-6.67h10.168" class="F"/><g stroke="#c8b100" class="G"><path d="M1055.593 431.728c.01-.028.024-.054.038-.08l-.86-.948-.337.144-.618-.678.202-.292-1.08-1.198c-.014.004-.04.004-.054.008l.006.804.354.1v.892l-.354.096-.006.816c.17.052.3.176.35.334l.65.002.103-.334h.954l.1.334zm-1.4-3.7v.322h.558v-.322zm-1.475 4.074c.13 0 .234-.098.234-.22s-.105-.222-.234-.222-.236.1-.236.222.105.22.236.22zm3.23-1.946l-.355-.096v-.892l.355-.1-.002-.384c-.172-.05-.305-.174-.362-.334h-.54l-.103.334h-.952l-.103-.334h-.624c-.016.044-.034.084-.06.122l1.087 1.192.337-.142.618.68-.202.3.844.928.057-.024zm-1.465-.278l-.26.208.358.396.26-.2zm1.617 7.237c-.25-.013-.456-.18-.508-.403a3.68 3.68 0 0 1-.956-.26l.17-.286c.26.1.537.182.824.222a.532.532 0 0 1 .319-.28l.002-1.124-.356-.098v-.892l.356-.096v-1.528a.177.177 0 0 1-.04-.018l-.804.884.202.288-.618.68-.337-.142-.667.734a.483.483 0 0 1-.022.57c.2.2.4.396.655.55l-.17.288a3.531 3.531 0 0 1-.766-.644c-.176.052-.376.022-.525-.1a.49.49 0 0 1-.061-.728l.028-.032a3.16 3.16 0 0 1-.267-1l.345.002c.028.3.103.586.22.854a.64.64 0 0 1 .295.032l.67-.736-.202-.3.618-.68.337.144.806-.886c-.018-.028-.03-.058-.042-.092l-.558.002-.1.334h-.954l-.103-.334-.655-.002c-.054.152-.182.272-.34.324l-.002.808-.345-.002v-.802c-.222-.066-.386-.262-.386-.494s.166-.43.388-.496l.002-.8-.356-.096v-.892l.356-.1v-.8c-.218-.07-.372-.264-.372-.5 0-.286.246-.516.552-.516a.55.55 0 0 1 .527.356h.624l.103-.334h.952l.103.334h.54c.072-.206.275-.353.517-.356l.014 1.674h-.172v.522h.17l-.004 4.318h-.158v.522h.157zm-1.195-3.66l-.26-.208-.36.396.26.208zm-2.012-3.688h-.34l-.002.522h.343zm1.85 2.282v-.32h-.576v.32zm-2.14 1.938l-.356-.078-.05-.9.353-.116v.512c0 .198.018.384.053.572zm.295-1.104l.353.082.01.444c-.008-.148.038.448.038.448l-.355.116c-.036-.18-.05-.368-.05-.558zm2.184 3.386l.08-.34c-.307-.096-.592-.236-.842-.418l-.255.222a3.363 3.363 0 0 0 1.018.536zm-.172.288l-.263.244a3.909 3.909 0 0 1-.832-.422l.077-.354c.303.226.65.406 1.018.532z" stroke-width=".26"/><path d="M1056.605 431.728a.6.6 0 0 0-.038-.08l.86-.948.337.144.618-.678-.202-.292 1.08-1.198c.014.004.04.004.055.008l-.006.804-.354.1v.892l.354.096.006.816c-.17.052-.3.176-.35.334l-.65.002-.103-.334h-.954l-.1.334zm1.4-3.7v.322h-.558v-.322zm1.475 4.074c-.13 0-.234-.098-.234-.22s.105-.222.234-.222.236.1.236.222-.105.22-.236.22zm-3.23-1.946l.356-.096v-.892l-.356-.1.002-.384c.172-.05.305-.174.362-.334h.54l.103.334h.952l.103-.334h.624c.016.044.034.084.058.122l-1.087 1.192-.337-.142-.618.68.202.3-.844.928-.057-.024zm1.465-.278l.26.208-.358.396-.26-.2zm-1.617 7.237c.25-.013.456-.18.508-.403a3.68 3.68 0 0 0 .956-.26l-.17-.286c-.26.1-.537.182-.824.222-.063-.132-.174-.232-.32-.28l-.002-1.124.356-.098v-.892l-.356-.096v-1.528a.18.18 0 0 0 .041-.018l.804.884-.202.288.618.68.337-.142.667.734a.483.483 0 0 0 .022.57 3.48 3.48 0 0 1-.655.55l.17.288a3.533 3.533 0 0 0 .766-.644c.176.052.376.022.525-.1a.49.49 0 0 0 .061-.728l-.028-.032a3.16 3.16 0 0 0 .267-1l-.346.002c-.028.3-.103.586-.22.854a.641.641 0 0 0-.295.032l-.67-.736.202-.3-.618-.68-.337.144-.806-.886c.018-.028.03-.058.042-.092l.558.002.1.334h.954l.103-.334.655-.002c.054.152.182.272.34.324v.808l.346-.002v-.802c.222-.066.386-.262.386-.494s-.166-.43-.388-.496l-.002-.8.356-.096v-.892l-.356-.1v-.8c.218-.07.372-.264.372-.5 0-.286-.246-.516-.552-.516a.55.55 0 0 0-.527.356h-.624l-.103-.334h-.952l-.103.334h-.54c-.072-.206-.275-.353-.517-.356l-.014 1.674h.172v.522h-.17l.004 4.318h.158v.522h-.157zm1.195-3.66l.26-.208.36.396-.26.208zm2.012-3.688h.34l.002.522h-.343zm-1.85 2.282v-.32h.576v.32zm2.14 1.938l.355-.078.05-.9-.353-.116v.512a3.14 3.14 0 0 1-.053.572zm-.295-1.104l-.353.082-.01.444c.008-.148-.038.448-.038.448l.356.116a2.83 2.83 0 0 0 .049-.558zm-2.184 3.386l-.08-.34c.307-.096.592-.236.842-.418l.255.222c-.3.23-.644.416-1.018.536zm.172.288l.263.244a3.912 3.912 0 0 0 .832-.422l-.077-.354c-.303.226-.65.406-1.018.532z" stroke-width="-.26"/></g><path d="M1055.57 431.888c0-.288.248-.52.553-.52s.552.232.552.52-.246.516-.552.516-.553-.23-.553-.516" class="H"/><path d="M1040.928 426.75h10.137v-11.144h-10.137v11.144z" class="F"/><g class="G"><path d="M1044.407 418.182h-.186v-.184h-.327v.738h.327v.5h-.7v1.478h.374v2.958h-.747v1.526h5.74v-1.526h-.745v-2.958h.374v-1.478h-.7v-.5h.327v-.738h-.327v.184h-.188v-.184h-.325v.184h-.234v-.184h-.327v.738h.327v.5h-.7v-1.618h.372v-.74h-.372v.186h-.188v-.186h-.327v.186h-.186v-.186h-.374v.74h.374v1.618h-.7v-.5h.327v-.738h-.327v.184h-.186v-.184h-.374v.184zm-1.26 7.026h5.74m-5.74-.37h5.74m-5.74-.37h5.74m-5.74-.37h5.74m-5.74-.416h5.74m-4.994-.324h4.248m-4.248-.37h4.248m-4.248-.416h4.248m-4.248-.368h4.248m-4.248-.37h4.248m-4.248-.37h4.248m-4.248-.37h4.248m-4.622-.37h4.996m-4.996-.37h4.996m-4.996-.37h4.996m-4.996-.368h4.996m-4.295-.37h3.594m-2.148-.37h.7m-.7-.37h.7m-.7-.37h.7m-.7-.37h.7m-1.075-.462h1.446m-2.52 1.572h.745m-1.073-.462h1.4m-1.4 6.794v-.37m0-.37v-.37m-.374.37v.37m.7 0v-.37m.372.74v-.37m0-.37v-.37m0-.416v-.324m0-.37v-.416m-.372 1.526v-.416m-.7.416v-.416m1.447 0v.416m.327-.416v-.324m-1.073-.37v.37m.745-.37v.37m.7-.37v.37m-.374-.37v-.416m.374-.368v.368m0-1.108v.37m-.374-.74v.37m.374-.74v.37m-.7-.37v.37m-.745-.37v.37m-.327-.74v.37m.7-.37v.37m.7-.37v.37m.374-.74v.37m-.7-.37v.37m-.745-.37v.37m-.327-.738v.368m1.4-.368v.368m-.7-1.108v.37m3.222-.37h-.747m1.075-.462h-1.402m1.402 6.794v-.37m0-.37v-.37m.374.37v.37m-.7 0v-.37m-.374.74v-.37m0-.37v-.37m0-.416v-.324m0-.37v-.416m.374 1.526v-.416m.7.416v-.416m-1.448 0v.416m-.327-.416v-.324m1.075-.37v.37m-.747-.37v.37m-.7-.37v.37m.372-.37v-.416m-.372-.368v.368m0-1.108v.37m.372-.74v.37m-.372-.74v.37m.7-.37v.37m.747-.37v.37m.327-.74v.37m-.7-.37v.37m-.7-.37v.37m-.372-.74v.37m.7-.37v.37m.747-.37v.37m.327-.738v.368m-1.402-.368v.368m.7-1.108v.37m-1.446 3.742v-.416m0-1.108v-.37m0 1.1v-.37m0-1.1v-.37m0-.37v-.368m0-.74v-.37m0-.37v-.37m-1.774.97h.745m.7-1.108h.7m.7 1.108h.747"/><path d="M1046.975 425.208v-.972c0-.184-.093-.74-.98-.74-.84 0-.933.556-.933.74v.972h1.913z"/><path d="M1045.387 424.282l-.467-.046c0-.184.046-.462.188-.554l.42.324c-.046.046-.14.184-.14.276zm.794-.462l.234-.416a1.13 1.13 0 0 0-.42-.092c-.093 0-.28.046-.374.092l.232.416h.327zm.467.462l.467-.046c0-.184-.046-.462-.186-.554l-.42.324c.046.046.14.184.14.276zm-1.353-1.616v-1.018c0-.276-.186-.508-.513-.508s-.513.232-.513.508v1.018h1.026zm1.446 0v-1.018c0-.276.188-.508.515-.508s.513.232.513.508v1.018h-1.028zm-1.774-2.496l.047-.924h-.887l.095.924h.745zm1.402 0l.093-.924h-.887l.047.924h.747zm.7 0l-.093-.924h.933l-.093.924h-.747z"/></g><path d="M1046.648 425.208v-.832c0-.14-.093-.556-.653-.556-.513 0-.608.416-.608.556v.832h1.26zm-1.447-2.636v-.878c0-.23-.14-.462-.42-.462s-.42.232-.42.462v.878h.84zm1.635 0v-.878c0-.23.14-.462.42-.462s.42.232.42.462v.878h-.84z" fill="#0039f0"/><path d="M1051.062 426.75h10.166v-11.144h-10.166v11.144z" class="J"/><path d="M1056.244 418.352l.01-.124.018-.068s-.325.026-.497-.022a1.25 1.25 0 0 1-.485-.25c-.16-.132-.222-.22-.337-.236-.275-.044-.485.08-.485.08a.92.92 0 0 0 .36.262.99.99 0 0 0 .394.306c.12.036.537.01.65.014l.372.038z" fill="#db4446"/><path d="M1057.765 417.9l.016.28c.012.134-.044.248-.022.322s.032.132.06.186a.75.75 0 0 1 .042.188l-.15-.108-.12-.088.02.206c.008.062.044.178.103.248s.176.178.212.266.028.288.028.288-.093-.15-.176-.178-.255-.124-.255-.124.16.158.16.3-.065.32-.065.32-.073-.136-.168-.224-.228-.18-.228-.18.105.234.105.4-.03.494-.03.494-.08-.128-.16-.192-.176-.116-.206-.156.097.128.11.232.065.47.388.938c.2.274.483.754 1.11.596s.396-.994.263-1.384-.198-.822-.2-.974.117-.594.103-.678a1.67 1.67 0 0 1 .028-.656c.08-.266.147-.37.192-.48s.08-.172.093-.268.014-.274.014-.274l.147.288a1.39 1.39 0 0 1 .028.3s.022-.224.198-.334.38-.226.43-.288.067-.102.067-.102-.016.384-.125.534c-.073.098-.358.418-.358.418s.148-.056.248-.06h.176s-.125.096-.285.328-.095.252-.212.444-.212.2-.36.316c-.218.174-.1.868-.073.972s.4.952.418 1.158.042.666-.323.96c-.234.2-.62.192-.7.246s-.26.226-.26.582.13.412.232.502.234.04.263.1.044.108.09.15.073.088.06.164-.184.246-.243.37-.176.446-.176.494-.014.198.036.274c0 0 .184.212.06.252-.08.028-.158-.05-.196-.04-.11.028-.168.094-.198.1-.073-.014-.073-.05-.08-.152s-.002-.144-.034-.144c-.044 0-.067.036-.075.1s-.008.178-.06.178-.123-.1-.168-.1-.168-.04-.176-.096.073-.17.153-.192.153-.06.103-.102-.103-.04-.154 0-.16.008-.153-.054.022-.138.014-.172-.095-.102.02-.164.17.054.287.034.174-.062.218-.13.036-.212-.044-.3-.16-.104-.2-.16-.073-.184-.073-.184a1.64 1.64 0 0 0 .008.274c-.014.034-.008.178-.008.178l-.145-.158c-.065-.068-.13-.274-.13-.274l-.006.268c0 .074.087.144.06.172s-.168-.144-.206-.172-.153-.116-.204-.212-.09-.232-.103-.282a.87.87 0 0 1-.014-.316l.095-.226h-.285c-.154 0-.263-.046-.32.056s-.03.308.042.576.117.396.097.444-.117.158-.154.178-.14.014-.184-.006-.115-.054-.255-.054-.226.006-.277-.006-.178-.076-.236-.062-.16.064-.13.144c.044.122-.042.15-.103.144s-.107-.028-.182-.048-.182 0-.168-.084.044-.088.08-.148.05-.104.008-.108c-.05-.004-.103-.01-.14.022s-.103.102-.154.076-.093-.086-.093-.216-.137-.24-.01-.234.285.096.313.026.012-.102-.056-.156-.154-.086-.063-.154.113-.07.15-.108.083-.158.148-.128c.125.06.004.146.13.284s.204.188.416.166.27-.048.27-.108-.018-.164-.024-.208.03-.198.03-.198-.097.06-.127.118l-.085.16s-.022-.12-.016-.218c.004-.058.024-.158.022-.178-.006-.054-.046-.188-.046-.188s-.032.146-.057.188-.032.214-.032.214-.135-.116-.097-.3c.026-.15-.024-.348.022-.412s.15-.328.416-.338l.56.006c.09-.006.416-.066.416-.066l-.735-.396c-.137-.1-.35-.326-.418-.432s-.13-.316-.13-.316-.107.004-.206.058a1 1 0 0 0-.251.198c-.057.064-.147.2-.147.2l.016-.246c0-.058-.012-.172-.012-.172s-.067.256-.204.352l-.297.23.016-.176c0-.032.034-.198.034-.198s-.097.144-.244.172-.366.022-.384.112.04.214.006.278-.11.108-.11.108-.085-.07-.16-.076-.143.032-.143.032-.063-.08-.038-.134.135-.132.11-.166-.12.012-.178.038-.178.054-.166-.038.04-.144.01-.208-.01-.106.036-.122.226.004.245-.038-.044-.096-.166-.122-.178-.098-.115-.156.08-.076.11-.128.04-.152.15-.102.085.166.2.202.382-.016.438-.048.24-.166.303-.198.325-.224.325-.224l-.212-.16c-.057-.054-.158-.182-.2-.2s-.303-.122-.388-.128-.347-.096-.347-.096.12-.038.16-.07.13-.112.176-.106l.056.004-.297-.026c-.05-.016-.2-.108-.257-.108s-.17.022-.17.022.154-.096.28-.118.222-.016.222-.016-.194-.054-.24-.116l-.125-.204c-.034-.042-.057-.112-.12-.118s-.172.076-.234.07-.11-.044-.115-.134 0-.06-.02-.108-.115-.16-.03-.186.27.016.287-.016-.097-.13-.172-.166-.194-.102-.13-.156.125-.074.16-.122.075-.182.15-.14.176.252.234.236.06-.166.05-.23 0-.176.057-.166.103.086.194.092.228-.022.216.042-.063.142-.125.212a.31.31 0 0 0-.051.3c.04.1.143.238.234.296s.263.102.372.17l.445.3.172.064s.097-.042.228-.042.432.02.547-.028.263-.128.218-.23-.297-.192-.275-.272.115-.086.27-.092.364.028.404-.188.053-.336-.164-.384-.378-.054-.418-.208-.08-.194-.034-.236.125-.064.285-.074.343-.012.396-.05.06-.138.123-.182.31-.08.31-.08a4.01 4.01 0 0 0 .566.342c.245.18.465.446.465.446" fill="#ed72aa"/><path d="M1055.662 417.748l-.04-.124c-.006-.026-.024-.058-.024-.058s.178 0 .172.054-.057.054-.07.074-.038.054-.038.054zm.8-.278l-.012-.086a.5.5 0 0 0 .228.052.68.68 0 0 1 .184.2c-.02.018-.1-.054-.172-.074 0 0-.047.01-.1.01s-.07-.022-.075-.042.006-.06.006-.06l-.07-.01zm-.804 1.058l.067-.106.07.098-.135.008m.164-.004l.08-.106.087.096-.168.01"/><path d="M1055.76 417.866l.166.058-.15.076-.016-.134m.2.054l.148.036-.12.092-.028-.128"/><path d="M1053.405 417.716s.097.068.172.08.153.01.166.01.034-.108.022-.182c-.04-.24-.263-.294-.263-.294s.067.146.034.214c-.046.096-.13.172-.13.172zm-.463.208s-.087-.154-.27-.134-.303.162-.303.162.202-.006.253.026c.075.048.097.172.097.172s.1-.064.143-.108.08-.118.08-.118zm-.222.626s-.156.022-.24.118-.073.28-.073.28.1-.108.192-.108a1.37 1.37 0 0 1 .234.032s-.044-.112-.044-.16-.07-.162-.07-.162zm.52 2.024s-.085-.1-.234-.064-.247.194-.247.194.127-.034.202-.016.125.1.125.1.07-.058.1-.1l.063-.114zm-.172.594s-.125-.02-.234.066-.113.25-.113.25.103-.086.184-.074.176.054.176.054l.022-.128c.018-.076-.034-.168-.034-.168zm.293.548s-.01.158.067.256.228.118.228.118-.05-.106-.057-.16c-.012-.08.07-.15.07-.15s-.075-.076-.148-.076-.16.012-.16.012zm1.483 1.408s-.103-.128-.245-.124-.293.138-.293.138.178-.014.224.044l.1.134s.08-.042.115-.07.107-.122.107-.122zm-.438.562s-.188-.028-.28.07-.085.272-.085.272.113-.122.216-.112a.79.79 0 0 1 .218.064l-.03-.156c-.01-.048-.038-.138-.038-.138zm.395.594s-.093.128-.024.23a.47.47 0 0 0 .212.15s-.053-.074-.028-.16c.018-.068.135-.16.135-.16l-.295-.06zm2.505.242s-.164-.038-.256.016-.166.278-.166.278.15-.124.26-.108a.629.629 0 0 1 .188.06s.016-.092.004-.156c-.006-.038-.028-.1-.028-.1zm.082.598s-.125.128-.08.236a1.34 1.34 0 0 0 .125.22s-.004-.16.047-.204c.075-.064.212-.074.212-.074s-.1-.096-.144-.108-.16-.07-.16-.07zm.637.188s-.063.156.057.256a.49.49 0 0 0 .224.114s-.093-.162-.065-.246c.03-.1.1-.144.1-.144s-.15-.05-.172-.044-.154.064-.154.064z" fill="#db4446"/><path d="M1057.648 417.042l-.06.004a.299.299 0 0 1-.053.07c-.053.05-.13.056-.174.014a.096.096 0 0 1-.028-.082.1.1 0 0 1-.103-.002c-.052-.03-.065-.1-.028-.158.006-.012.012-.028.022-.036l-.004-.064-.07.016-.02.038c-.044.05-.11.062-.14.034-.016-.014-.028-.052-.026-.054s-.018.018-.034.022c-.11.026-.15-.2-.156-.27l-.034.05s.032.14.016.26-.06.238-.06.238c.15.038.376.16.6.33s.4.356.473.484c0 0 .117-.064.238-.102s.275-.04.275-.04l.044-.042c-.065.01-.32.02-.315-.086a.06.06 0 0 1 .016-.036c.002 0-.042-.002-.06-.012-.036-.026-.036-.086.004-.138l.036-.026.002-.068-.07.01c-.006.008-.022.018-.03.026-.054.046-.13.05-.174.006-.026-.024-.034-.058-.022-.092-.032.008-.065.006-.09-.01-.053-.03-.063-.104-.022-.16a.268.268 0 0 1 .063-.064l-.014-.06h-.002z" class="G"/><path d="M1057.193 417.18c.01-.014.03-.012.046 0s.02.032.012.042-.03.012-.05-.002-.02-.03-.01-.04z"/><path d="M1057.385 417.338l-.067-.05c-.012-.008-.014-.024-.008-.032s.024-.008.036 0l.067.052.067.05c.01.008.016.024.008.032s-.024.008-.036 0l-.067-.052"/><path d="M1057.033 417.1l-.053-.03c-.014-.008-.02-.024-.014-.034s.022-.012.034-.004l.053.032.053.03c.012.006.018.022.014.032s-.022.012-.034.004l-.053-.03"/><path d="M1056.823 416.958c.01-.012.032-.012.048 0s.02.032.01.044-.03.01-.046-.002-.02-.03-.012-.042zm.774.526c.01-.01.006-.028-.01-.042s-.038-.012-.048 0-.004.03.012.042.036.012.046 0z"/><path d="M1057.712 417.616l.044.042c.01.01.026.014.036.006s.008-.022-.002-.032l-.043-.042-.044-.042c-.01-.01-.028-.014-.036-.006s-.008.022.002.032l.042.042"/><path d="M1057.904 417.778c.01-.012.006-.03-.01-.042s-.036-.014-.046-.002-.006.03.01.044.036.012.046 0z"/><g class="G"><path d="M1057.35 416.572l-.12.002-.022.174.012.028.03-.002.154-.102-.055-.1"/><path d="M1057.025 416.668l-.004.108.186.024.03-.014-.004-.03-.107-.142-.1.054m.384.216l-.1.054-.1-.142v-.03l.028-.012.188.022-.006.108"/><path d="M1057.17 416.75c.016-.026.053-.034.08-.018s.036.048.02.074-.053.034-.08.018-.036-.048-.02-.074zm-.434-.18c-.004.002-.026-.092-.053-.142-.016-.038-.08-.086-.08-.086.006-.01.085-.038.176.018.077.062-.006.174-.006.174s-.018.028-.038.036z"/><path d="M1056.942 416.632l-.085.074-.137-.12.012-.016.006-.03.186-.014.018.106"/><path d="M1056.7 416.558c.01-.03.036-.046.057-.04s.03.036.02.066-.036.046-.06.04-.03-.036-.018-.066zm1.097.296l-.12-.012-.05.17.01.028.03.002.168-.082-.038-.106"/><path d="M1057.472 416.906l-.02.108.182.046.03-.008.002-.028-.087-.158-.107.04m.347.266l-.107.04-.085-.156.002-.03.03-.006.18.046-.02.106"/><path d="M1057.6 417.008a.06.06 0 0 1 .081-.008c.024.018.03.052.01.076s-.057.026-.083.008a.052.052 0 0 1-.008-.076z"/><path d="M1058.205 417.222l.022.1-.176.06-.032-.008-.002-.028.073-.162.115.028"/><path d="M1058.175 417.54l-.113.026-.063-.166.008-.03.03-.004.172.07-.034.104m-.307-.308l-.036.104.172.068.032-.004.006-.028-.06-.166-.113.026"/><path d="M1058.058 417.426a.054.054 0 0 0 .004-.078c-.022-.022-.06-.022-.083-.004s-.024.056-.002.078a.06.06 0 0 0 .081.004zm.28.36c0 .002.1.006.16.018.04.008.105.054.105.054.012-.008.024-.084-.057-.158-.08-.056-.178.044-.178.044s-.024.024-.03.042z"/><path d="M1058.227 417.608l-.06.092.154.102.018-.016.026-.008-.024-.176-.115.006"/><path d="M1058.353 417.806c.028-.014.042-.044.03-.062s-.045-.02-.073-.004-.04.044-.028.062.042.02.07.004z"/></g><path d="M1047.807 426.702c0-2.028 1.465-3.66 3.285-3.66s3.285 1.632 3.285 3.66-1.465 3.66-3.285 3.66-3.285-1.632-3.285-3.66z" class="F"/><path d="M1048.783 426.694c0-1.487 1.03-2.684 2.31-2.684s2.31 1.197 2.31 2.684-1.03 2.684-2.31 2.684-2.31-1.197-2.31-2.684z" class="I"/><g class="G"><path d="M1050 424.848s-.273.296-.273.572a1.263 1.263 0 0 0 .115.508c-.043-.1-.154-.188-.285-.188-.168 0-.303.126-.303.284 0 .044.028.116.05.154l.1.198c.032-.074.11-.114.198-.114.12 0 .218.1.218.202a.136.136 0 0 1-.008.05l-.246.002v.206h.22l-.164.322.216-.084.164.182.17-.182.216.084-.162-.322h.218v-.206l-.247-.002c-.004-.016-.004-.032-.004-.05 0-.112.095-.202.214-.202.09 0 .166.04.198.114l.1-.198c.02-.038.05-.1.05-.154 0-.158-.135-.284-.3-.284-.133 0-.245.078-.285.188 0 0 .115-.23.115-.508s-.28-.572-.28-.572z"/><path d="M1049.565 426.722h.88v-.206h-.88v.206zm2.584-1.874s-.273.296-.273.572a1.263 1.263 0 0 0 .115.508.318.318 0 0 0-.285-.188c-.168 0-.303.126-.303.284 0 .044.028.116.048.154l.1.198c.032-.074.1-.114.198-.114.12 0 .218.1.218.202a.138.138 0 0 1-.008.05l-.246.002v.206h.22l-.164.322.216-.084.164.182.17-.182.216.084-.162-.322h.218v-.206l-.246-.002c-.004-.016-.004-.032-.004-.05 0-.112.095-.202.214-.202.1 0 .166.04.198.114l.1-.198c.02-.038.048-.1.048-.154 0-.158-.135-.284-.3-.284-.133 0-.245.078-.285.188 0 0 .115-.23.115-.508s-.28-.572-.28-.572z"/><path d="M1051.712 426.722h.88v-.206h-.88v.206zm-.638-.046s-.273.296-.273.572a1.263 1.263 0 0 0 .115.508c-.042-.1-.154-.188-.285-.188-.168 0-.303.126-.303.284 0 .044.028.116.05.154l.1.198c.032-.074.1-.114.198-.114.12 0 .218.1.218.202a.138.138 0 0 1-.008.05l-.246.002v.206h.22l-.164.322.216-.084.164.182.17-.182.216.084-.162-.322h.218v-.206l-.246-.002c-.004-.016-.004-.032-.004-.05 0-.112.095-.202.214-.202.1 0 .166.04.198.114l.1-.198c.02-.038.048-.1.048-.154 0-.158-.135-.284-.3-.284-.133 0-.244.078-.285.188 0 0 .115-.23.115-.508s-.28-.572-.28-.572z"/><path d="M1050.637 428.55h.88v-.206h-.88v.206z"/></g><defs><path id="A" d="M1034.557 415.35c-.04-.114-.117-.216-.117-.216.394-.114.94-.186 1.55-.188s1.162.074 1.553.188l-.105.182c-.034.06-.08.162-.077.162-.353-.108-.812-.162-1.374-.164s-1.103.07-1.386.172c.004 0-.02-.064-.046-.136h.002"/><path id="B" d="M1035.99 415.846c.49-.002 1.032-.076 1.232-.126.133-.04.212-.098.198-.168-.008-.032-.036-.06-.075-.076-.295-.094-.822-.16-1.355-.16s-1.065.066-1.358.16c-.038.016-.067.044-.075.076-.014.07.065.128.198.168.2.05.743.124 1.234.126z"/><path id="C" d="M1037.567 414.916l-.12-.106s-.115.068-.26.048-.188-.194-.188-.194-.16.134-.29.124-.216-.124-.216-.124-.143.102-.27.092-.244-.166-.244-.166-.127.16-.253.172-.228-.108-.228-.108-.057.118-.216.144-.297-.124-.297-.124-.09.146-.2.184-.25-.054-.25-.054l-.04.086c-.016.032-.063.038-.063.038l.036.094c.4-.112.92-.182 1.52-.182s1.145.07 1.537.184l.04-.108h-.002z"/><path id="D" d="M1033.924 414.65c.024-.024.073-.018.107.012s.05.076.024.1-.073.02-.107-.012-.05-.076-.024-.1z"/><path id="E" d="M1034.443 414.676c-.012-.036 0-.074.026-.084s.06.018.075.054 0 .076-.028.084-.06-.016-.073-.054z"/><path id="F" d="M1034.848 414.43c0-.052.044-.094.1-.094s.1.042.1.094-.044.094-.1.094-.1-.042-.1-.094z"/><path id="G" d="M1035.423 414.5c-.006-.04.014-.074.042-.078s.057.026.06.066-.014.074-.042.076-.057-.026-.06-.064z"/><path id="H" d="M1035.4 415.16c0-.045.04-.082.09-.082s.09.037.09.082-.04.082-.09.082-.09-.037-.09-.082z"/><path id="I" d="M1035.995 415.196h-.194c-.036 0-.067-.028-.067-.062s.028-.062.065-.062h.396c.038 0 .067.028.067.062s-.03.062-.067.062h-.2"/><path id="J" d="M1036.965 415.262l.14.022c.036.004.07-.018.077-.052s-.018-.064-.055-.07l-.14-.02-.143-.022c-.036-.004-.07.018-.075.05s.018.066.055.07l.143.022"/><path id="K" d="M1035.987 415.732c-.49 0-.935-.044-1.273-.13a5.43 5.43 0 0 1 1.273-.14 5.29 5.29 0 0 1 1.279.14c-.34.086-.786.13-1.28.13z"/><path id="L" d="M1039.142 436.636c-.31 0-.588-.066-.794-.174-.202-.102-.477-.164-.78-.164s-.586.064-.8.166-.485.172-.792.172a1.74 1.74 0 0 1-.794-.18c-.202-.098-.47-.158-.766-.158-.307 0-.578.058-.78.162a1.8 1.8 0 0 1-.798.176v.482c.31 0 .592-.07.798-.176s.473-.164.78-.164c.293 0 .564.062.766.16.204.106.483.18.794.18s.588-.066.792-.172.485-.168.8-.168a1.76 1.76 0 0 1 .78.166c.206.108.48.174.8.174l.004-.482z"/><path id="M" d="M1039.142 437.118c-.31 0-.588-.066-.794-.174-.202-.102-.477-.166-.78-.166s-.586.064-.8.168-.485.172-.792.172-.6-.074-.794-.18c-.202-.098-.47-.16-.766-.16-.307 0-.578.06-.78.164a1.8 1.8 0 0 1-.798.176v.482c.31 0 .592-.07.798-.176s.473-.164.78-.164c.293 0 .564.062.766.16.204.108.483.18.794.18s.588-.068.792-.172.485-.168.8-.168.578.064.78.168.48.172.8.172l.004-.482"/><path id="N" d="M1039.142 437.6c-.31 0-.588-.066-.794-.172s-.477-.168-.78-.168-.586.064-.8.168-.485.172-.792.172a1.74 1.74 0 0 1-.794-.18c-.202-.098-.47-.16-.766-.16-.307 0-.578.06-.78.164a1.8 1.8 0 0 1-.798.176v.48a1.76 1.76 0 0 0 .798-.176c.202-.102.473-.16.78-.16.293 0 .564.06.766.158.204.108.483.178.794.178s.588-.064.792-.17.485-.166.8-.166.578.062.78.164.48.172.8.172l.004-.48"/><path id="O" d="M1039.138 438.564c-.31 0-.584-.066-.8-.174-.202-.102-.477-.164-.78-.164s-.586.062-.8.166-.485.172-.792.172-.6-.074-.794-.18a1.76 1.76 0 0 0-.766-.158c-.307 0-.578.058-.78.162a1.8 1.8 0 0 1-.798.176v-.48c.31 0 .592-.072.798-.18.202-.102.473-.16.78-.16.293 0 .564.06.766.158.204.108.483.178.794.178s.588-.064.792-.17.485-.166.8-.166.578.062.78.164.483.172.794.172l-.004.484"/><path id="P" d="M1039.138 439.046c-.31 0-.584-.066-.8-.172s-.477-.168-.78-.168-.586.064-.8.168-.485.172-.792.172-.6-.074-.794-.18c-.202-.1-.47-.16-.766-.16-.307 0-.578.06-.78.164a1.8 1.8 0 0 1-.798.176v-.478c.31 0 .592-.074.798-.18s.473-.162.78-.162c.293 0 .564.06.766.158.204.106.483.18.794.18s.588-.068.792-.172.485-.166.8-.166.578.062.78.164c.206.108.48.174.794.174l-.004.482z"/><path id="Q" d="M1034.304 434.354h3.372c.115 0 .206.07.206.156s-.09.158-.206.158h-3.372c-.113 0-.206-.072-.206-.158s.093-.156.206-.156z"/><path id="R" d="M1034.22 417.752c.028-.012.05-.014.083-.014h3.372a.274.274 0 0 1 .093.016c-.117-.038-.2-.142-.2-.264s.09-.228.208-.266c-.028.008-.067.016-.1.016h-3.374c-.034 0-.067-.002-.095-.012l.018.004c.12.036.2.142.2.258s-.077.226-.196.262z"/><path id="S" d="M1034.304 417.738h3.372c.115 0 .206.07.206.156s-.09.158-.206.158h-3.372c-.113 0-.206-.07-.206-.158s.093-.156.206-.156z"/><path id="T" d="M1034.304 416.974h3.374c.115 0 .208.06.208.132s-.093.134-.208.134h-3.374c-.113 0-.206-.06-.206-.134s.093-.132.206-.132z"/><path id="U" d="M1064.738 413.916c0-.048.04-.086.09-.086s.09.038.09.086-.04.086-.09.086-.09-.038-.09-.086z"/><path id="V" d="M1050.627 408.288c0-.2.172-.36.386-.36s.386.16.386.36-.172.36-.386.36-.386-.16-.386-.36z"/><path id="W" d="M1050.79 406.136c0-.115.1-.208.222-.208s.222.093.222.208-.1.208-.222.208-.222-.093-.222-.208z"/><path id="X" d="M1050.595 410.2c0-.228.196-.412.438-.412s.438.184.438.412-.196.412-.438.412-.438-.184-.438-.412z"/><path id="Y" d="M1045.76 413.556c0-.116.1-.208.222-.208s.222.092.222.208-.1.208-.222.208-.222-.094-.222-.208"/><path id="Z" d="M1034.302 414.544l-.022.132-.283.03-.042-.024.008-.046.214-.174.125.082"/><path id="a" d="M1034.575 414.508l.103.096.246-.132.018-.042-.034-.034-.283-.024-.05.136"/><path id="b" d="M1035.607 414.348l.08.114.27-.084.028-.036-.03-.04-.27-.078-.08.124"/><path id="c" d="M1036.37 414.348l-.08.114-.27-.084-.028-.036.028-.04.27-.078.08.124"/><path id="d" d="M1036.56 414.5c.004-.04-.016-.074-.044-.078s-.057.026-.06.066.014.074.042.076.057-.026.063-.064z"/><path id="e" d="M1036.66 414.36l.053.126.283-.026.036-.032-.02-.044-.246-.128-.105.104"/><path id="f" d="M1037.64 414.544l.022.132.283.03.042-.024-.01-.046-.212-.174-.125.082"/><path id="g" d="M1038.023 414.65c-.022-.024-.07-.018-.107.012s-.048.076-.024.1.073.02.11-.012.046-.076.022-.1z"/><path id="h" d="M1034.45 415.36l.063-.1.13.026-.077.112-.117-.038"/><path id="i" d="M1037.518 415.366l-.05-.106-.135.012.065.118.12-.024"/></defs></svg>