<svg xmlns="http://www.w3.org/2000/svg" viewBox="0 0 591 186" fill-rule="evenodd"><g fill="#f89922"><path d="M167.23 164c-18.64 13.76-45.67 21.07-68.94 21.07A124.78 124.78 0 0 1 14.07 153c-1.75-1.57-.2-3.72 1.9-2.5a169.57 169.57 0 0 0 84.27 22.36 167.63 167.63 0 0 0 64.28-13.16c3.15-1.4 5.8 2.03 2.7 4.3zm7.77-8.85c-2.38-3.05-15.76-1.45-21.77-.73-1.82.22-2.1-1.37-.46-2.52 10.67-7.5 28.16-5.33 30.2-2.82s-.54 20.06-10.54 28.43c-1.54 1.28-3 .6-2.32-1.1 2.24-5.62 7.28-18.2 4.9-21.26z"/><path d="M1.55 136.4A1.37 1.37 0 0 1 0 134.84V98.62a1.37 1.37 0 0 1 1.55-1.55H5a2 2 0 0 1 1.21.31 1.84 1.84 0 0 1 .58 1.16l.4 2.46c4.967-3.42 9.8-5.127 14.5-5.12 4.807 0 8.067 1.833 9.78 5.5 5.113-3.673 10.23-5.507 15.35-5.5 3.567 0 6.307 1 8.22 3 1.92 2 2.87 4.9 2.87 8.6v27.3a1.37 1.37 0 0 1-1.55 1.55H51.8a1.38 1.38 0 0 1-1.56-1.55V109.7c0-2.58-.5-4.5-1.47-5.74a5.57 5.57 0 0 0-4.65-1.86 21.75 21.75 0 0 0-11.4 3.49 8.45 8.45 0 0 1 .08 1.16v28.08a1.38 1.38 0 0 1-1.56 1.55h-4.57a1.37 1.37 0 0 1-1.55-1.55V109.7c0-2.58-.5-4.5-1.48-5.74a5.57 5.57 0 0 0-4.65-1.86 21 21 0 0 0-11.32 3.41v29.32a1.37 1.37 0 0 1-1.55 1.55H1.55zm83.05 1.15c-6.36 0-11.17-1.757-14.43-5.27s-4.887-8.7-4.88-15.6c0-6.56 1.627-11.667 4.88-15.32s7.803-5.473 13.65-5.46c4.92 0 8.697 1.383 11.33 4.15s3.967 6.683 4 11.75a33.5 33.5 0 0 1-.39 5 2.16 2.16 0 0 1-.5 1.24 1.7 1.7 0 0 1-1.12.31h-24.4c.113 4.44 1.213 7.723 3.3 9.85s5.33 3.187 9.73 3.18a32 32 0 0 0 4.46-.31 37.81 37.81 0 0 0 5.39-1.32l.93-.27a2.39 2.39 0 0 1 .7-.12c.67 0 1 .47 1 1.4V133a2.54 2.54 0 0 1-.25 1.41 3.44 3.44 0 0 1-1.32.89 26 26 0 0 1-5.55 1.63 33.53 33.53 0 0 1-6.52.62zm7.44-24.27a16.31 16.31 0 0 0 .08-2c0-3.15-.73-5.53-2.2-7.13s-3.63-2.4-6.47-2.4a9.88 9.88 0 0 0-7.6 2.91c-1.807 1.94-2.843 4.823-3.1 8.65h19.3zm28.86 23.96a15.19 15.19 0 0 1-8.84-2.56 16.2 16.2 0 0 1-5.7-7.13 26.56 26.56 0 0 1-2-10.63 27.6 27.6 0 0 1 2.09-11.2 16.39 16.39 0 0 1 5.89-7.29 15.52 15.52 0 0 1 8.77-2.52 18.19 18.19 0 0 1 11.89 4.34v-19.7a1.37 1.37 0 0 1 1.55-1.55h4.58a1.37 1.37 0 0 1 1.55 1.55v54.3a1.37 1.37 0 0 1-1.55 1.55h-3.4a1.87 1.87 0 0 1-1.13-.31 2.2 2.2 0 0 1-.66-1.24l-.62-2.48a18.64 18.64 0 0 1-5.81 3.64 17.8 17.8 0 0 1-6.6 1.24zm2.33-6.2a16.73 16.73 0 0 0 9.77-3.57v-21.95a17.33 17.33 0 0 0-4.84-2.59 16.79 16.79 0 0 0-5.39-.82c-7.04 0-10.557 4.86-10.55 14.58 0 9.54 3.67 14.3 11 14.3v.04zM154.4 90.1a4.78 4.78 0 0 1-3.53-1.28 4.53 4.53 0 0 1-1.28-3.37 4.55 4.55 0 0 1 1.28-3.38 5.51 5.51 0 0 1 7.06 0 4.59 4.59 0 0 1 1.27 3.38 4.56 4.56 0 0 1-1.27 3.37 4.79 4.79 0 0 1-3.53 1.28zm-2.33 46.3a1.37 1.37 0 0 1-1.55-1.55V98.62a1.37 1.37 0 0 1 1.55-1.55h4.58a1.37 1.37 0 0 1 1.55 1.55v36.22a1.37 1.37 0 0 1-1.55 1.55h-4.58zm25.6 1a12.25 12.25 0 0 1-8.8-3.14 11.09 11.09 0 0 1-3.3-8.42 11.18 11.18 0 0 1 4-9c2.667-2.247 6.283-3.373 10.85-3.38a41.68 41.68 0 0 1 9.77 1.32v-5.15c0-2.787-.633-4.75-1.9-5.9s-3.4-1.72-6.43-1.74a36 36 0 0 0-10.47 1.55 10.81 10.81 0 0 1-2.25.55c-.62 0-.93-.47-.93-1.4v-2.06a2.72 2.72 0 0 1 .31-1.48 2.75 2.75 0 0 1 1.24-.85 26.34 26.34 0 0 1 6.09-1.74 41.45 41.45 0 0 1 7.33-.66c4.913 0 8.533 1.02 10.86 3.06s3.487 5.157 3.48 9.35v26.52a1.37 1.37 0 0 1-1.52 1.55h-3.33a1.57 1.57 0 0 1-1.71-1.47l-.38-2.56a21.44 21.44 0 0 1-6.17 3.72 18.33 18.33 0 0 1-6.74 1.32zm1.86-5.82a15.53 15.53 0 0 0 5.35-1 20 20 0 0 0 5.35-2.94v-7.92a34.61 34.61 0 0 0-8.22-1c-5.84 0-8.76 2.25-8.76 6.75a6 6 0 0 0 1.63 4.53 6.4 6.4 0 0 0 4.65 1.58z" fill-rule="nonzero"/></g><path d="M238.83 137.8c-5.893 0-10.493-1.833-13.8-5.5s-4.973-8.787-5-15.36c0-6.507 1.667-11.6 5-15.28s7.933-5.513 13.8-5.5c5.887 0 10.5 1.833 13.8 5.5s4.987 8.76 5 15.28c0 6.567-1.667 11.687-5 15.36s-7.937 5.507-13.8 5.5zm0-6.2c7.287 0 10.933-4.887 10.94-14.66s-3.64-14.633-10.94-14.58c-7.293 0-10.937 4.86-10.93 14.58s3.65 14.607 10.93 14.66zm27.84 5.03a1.37 1.37 0 0 1-1.55-1.55V98.86a1.37 1.37 0 0 1 1.55-1.55h3.4a2 2 0 0 1 1.21.31 1.82 1.82 0 0 1 .58 1.16l.46 2.87a25.5 25.5 0 0 1 15.51-5.5c3.78 0 6.65 1 8.6 3s2.943 4.883 2.95 8.65v27.3a1.37 1.37 0 0 1-1.55 1.55h-4.58a1.37 1.37 0 0 1-1.55-1.55v-24.76c0-2.74-.557-4.757-1.67-6.05s-2.857-1.94-5.23-1.94a21.38 21.38 0 0 0-12 3.95v28.78a1.37 1.37 0 0 1-1.55 1.55h-4.6zm71.2.85a15.19 15.19 0 0 1-8.87-2.56 16.25 16.25 0 0 1-5.7-7.13 26.6 26.6 0 0 1-2-10.63 27.65 27.65 0 0 1 2.15-11.16 16.39 16.39 0 0 1 5.89-7.29 15.52 15.52 0 0 1 8.77-2.52 18.15 18.15 0 0 1 11.89 4.3V80.8a1.37 1.37 0 0 1 1.52-1.55h4.58a1.37 1.37 0 0 1 1.55 1.55v54.3a1.37 1.37 0 0 1-1.55 1.55h-3.4a1.94 1.94 0 0 1-1.13-.31 2.2 2.2 0 0 1-.66-1.24l-.62-2.5a18.67 18.67 0 0 1-5.81 3.61 18 18 0 0 1-6.6 1.28zm2.33-6.2a16.71 16.71 0 0 0 9.8-3.56v-21.95a17.63 17.63 0 0 0-4.84-2.6 17.09 17.09 0 0 0-5.4-.81c-7.033 0-10.547 4.86-10.54 14.58-.02 9.56 3.64 14.34 10.98 14.34zm44.28 6.52c-6.36 0-11.167-1.757-14.42-5.27s-4.883-8.7-4.9-15.6c0-6.567 1.63-11.673 4.9-15.32s7.8-5.47 13.65-5.47c4.913 0 8.687 1.383 11.32 4.15s3.957 6.67 3.97 11.7a34.62 34.62 0 0 1-.38 5 2.12 2.12 0 0 1-.51 1.24 1.65 1.65 0 0 1-1.12.31h-24.37c.1 4.447 1.197 7.73 3.3 9.85s5.34 3.18 9.74 3.18a30.38 30.38 0 0 0 4.45-.31 35.34 35.34 0 0 0 5.4-1.27l.93-.27a2.29 2.29 0 0 1 .69-.11c.68 0 1 .46 1 1.4v2.17a2.48 2.48 0 0 1-.31 1.44 3.56 3.56 0 0 1-1.32.89 27.32 27.32 0 0 1-5.49 1.66 34.52 34.52 0 0 1-6.52.62zm7.45-24.27a18.75 18.75 0 0 0 .08-2c0-3.147-.737-5.527-2.2-7.14s-3.633-2.407-6.48-2.38a9.88 9.88 0 0 0-7.6 2.91c-1.813 1.94-2.847 4.823-3.1 8.65l19.3-.04zm15.9 23.1a1.38 1.38 0 0 1-1.56-1.55V98.86a1.37 1.37 0 0 1 1.56-1.55h3.4a2 2 0 0 1 1.2.31 1.75 1.75 0 0 1 .58 1.16l.47 2.48c4.96-3.407 9.793-5.113 14.5-5.12 4.813 0 8.07 1.837 9.77 5.5 5.12-3.667 10.24-5.503 15.36-5.5 3.57 0 6.3 1 8.22 3s2.87 4.88 2.87 8.6v27.3a1.37 1.37 0 0 1-1.55 1.55h-4.58a1.37 1.37 0 0 1-1.55-1.55V110c0-2.593-.5-4.507-1.47-5.74a5.6 5.6 0 0 0-4.66-1.86 21.81 21.81 0 0 0-11.4 3.44 8.45 8.45 0 0 1 .08 1.16v28.08a1.37 1.37 0 0 1-1.55 1.55H433a1.37 1.37 0 0 1-1.55-1.55V110c0-2.593-.5-4.507-1.47-5.74a5.57 5.57 0 0 0-4.66-1.86 21 21 0 0 0-11.32 3.36v29.32a1.37 1.37 0 0 1-1.55 1.55h-4.62zm75.37 1a12.21 12.21 0 0 1-8.81-3.14 11.08 11.08 0 0 1-3.29-8.41 11.19 11.19 0 0 1 4-9c2.667-2.247 6.287-3.37 10.86-3.37a41.82 41.82 0 0 1 9.8 1.29v-5.13c0-2.8-.63-4.76-1.9-5.9s-3.43-1.7-6.48-1.7a36.12 36.12 0 0 0-10.47 1.55 11.19 11.19 0 0 1-2.24.54c-.62 0-.94-.46-.94-1.4v-2.1a2.67 2.67 0 0 1 .32-1.47 2.69 2.69 0 0 1 1.24-.85 25.87 25.87 0 0 1 6.08-1.75 41.53 41.53 0 0 1 7.33-.66c4.913 0 8.533 1.023 10.86 3.07s3.5 5.16 3.5 9.34v26.53a1.37 1.37 0 0 1-1.55 1.55h-3.34a1.56 1.56 0 0 1-1.7-1.48l-.4-2.56a21.12 21.12 0 0 1-6.17 3.73 18.43 18.43 0 0 1-6.7 1.31zm1.86-5.8a15.81 15.81 0 0 0 5.35-1 20 20 0 0 0 5.35-3V120a35.14 35.14 0 0 0-8.22-1c-5.84 0-8.76 2.25-8.76 6.75a6.07 6.07 0 0 0 1.62 4.54 6.41 6.41 0 0 0 4.66 1.53zm29 4.8a1.37 1.37 0 0 1-1.55-1.55V98.86a1.37 1.37 0 0 1 1.55-1.55h3.4a2 2 0 0 1 1.21.31 1.79 1.79 0 0 1 .58 1.16l.46 2.87a25.52 25.52 0 0 1 15.51-5.51c3.78 0 6.65 1 8.6 3s2.943 4.883 2.95 8.65v27.3a1.37 1.37 0 0 1-1.55 1.55h-4.58a1.37 1.37 0 0 1-1.55-1.55v-24.75c0-2.74-.557-4.757-1.67-6.05s-2.857-1.94-5.23-1.94a21.38 21.38 0 0 0-12 3.95v28.78a1.37 1.37 0 0 1-1.55 1.55h-4.6zm56.63.85a15.22 15.22 0 0 1-8.85-2.56 16.25 16.25 0 0 1-5.7-7.13 26.77 26.77 0 0 1-2-10.63 27.65 27.65 0 0 1 2.12-11.16 16.39 16.39 0 0 1 5.89-7.29 15.52 15.52 0 0 1 8.77-2.52 18.15 18.15 0 0 1 11.86 4.35V80.8a1.37 1.37 0 0 1 1.55-1.55h4.58a1.37 1.37 0 0 1 1.55 1.55v54.3a1.37 1.37 0 0 1-1.55 1.55h-3.4a1.94 1.94 0 0 1-1.13-.31 2.2 2.2 0 0 1-.66-1.24l-.62-2.5a18.67 18.67 0 0 1-5.81 3.61 18 18 0 0 1-6.59 1.28zm2.3-6.2a16.71 16.71 0 0 0 9.77-3.56v-21.95a17.63 17.63 0 0 0-4.84-2.6 17.07 17.07 0 0 0-5.39-.81c-7.027 0-10.54 4.86-10.54 14.58 0 9.56 3.667 14.34 11 14.34z" fill-rule="nonzero" fill="#303942"/><path d="M186.307 28c1.104 0 2.242-.217 3.413-.652s2.263-1.027 3.28-1.778v-5.155c-1.945-.276-3.69-.415-5.235-.415-3.843 0-5.765 1.383-5.765 4.148 0 1.226.375 2.174 1.127 2.845s1.81 1.008 3.18 1.008zm-1.935 5c-3.14 0-5.653-.853-7.54-2.558S174 26.465 174 23.623c0-1.99.54-3.745 1.623-5.266s2.577-2.68 4.486-3.47 4.093-1.188 6.554-1.188c2.036 0 4.284.264 6.746.79v-3.044c0-1.866-.404-3.145-1.21-3.835s-2.29-1.035-4.454-1.035c-2.886 0-6.13.488-9.737 1.46a2.46 2.46 0 0 1-.381.091c-.127.02-.234.03-.32.03-.722 0-1.08-.466-1.08-1.4v-2.74c0-.648.085-1.096.254-1.34s.55-.488 1.146-.73c1.484-.608 3.277-1.085 5.377-1.43S187.236 0 189.4 0c4.37 0 7.562.843 9.578 2.527S202 6.86 202 10.472v20.032c0 .528-.118.913-.35 1.157s-.648.365-1.24.365h-4.327c-.51 0-.902-.1-1.177-.304s-.478-.548-.605-1.035l-.382-1.4c-1.316 1.137-2.832 2.04-4.55 2.7S185.984 33 184.372 33zm31.233-1c-.557 0-.963-.12-1.22-.365S214 31.007 214 30.48V2.434c0-.568.13-.963.385-1.187s.663-.335 1.22-.335h4.62c.983 0 1.582.447 1.797 1.34l.513 1.643c2.268-1.42 4.3-2.423 6.13-3.01S232.357 0 234.282 0c3.85 0 6.568 1.3 8.152 3.894 2.182-1.378 4.236-2.373 6.162-2.98S252.51 0 254.565 0c2.995 0 5.316.79 6.964 2.372S264 6.166 264 9.004V30.48c0 .528-.118.913-.353 1.156s-.652.365-1.25.365h-6.162c-.556 0-.963-.12-1.22-.365s-.385-.628-.385-1.156V10.95c0-2.757-1.306-4.136-3.915-4.136-2.31 0-4.643.527-6.996 1.58V30.48c0 .528-.118.913-.353 1.156s-.653.365-1.25.365h-6.162c-.557 0-.963-.12-1.22-.365s-.385-.628-.385-1.156V10.95c0-2.757-1.306-4.136-3.915-4.136-2.397 0-4.75.547-7.06 1.642V30.48c0 .528-.118.913-.353 1.156s-.653.365-1.252.365h-6.162zm69.702-4c1.104 0 2.242-.217 3.413-.652s2.263-1.027 3.28-1.778v-5.155c-1.945-.276-3.69-.415-5.235-.415-3.843 0-5.765 1.383-5.765 4.148 0 1.226.375 2.174 1.127 2.845s1.81 1.008 3.18 1.008zm-2.934 5c-3.14 0-5.654-.853-7.54-2.558S272 26.465 272 23.623c0-1.99.54-3.745 1.623-5.266s2.577-2.68 4.486-3.47 4.093-1.188 6.554-1.188c2.037 0 4.284.264 6.746.79v-3.044c0-1.866-.404-3.145-1.21-3.835s-2.29-1.035-4.454-1.035c-2.886 0-6.13.488-9.737 1.46a2.46 2.46 0 0 1-.381.091c-.127.02-.234.03-.318.03-.722 0-1.082-.466-1.082-1.4v-2.74c0-.648.085-1.096.254-1.34s.55-.488 1.146-.73c1.485-.608 3.277-1.085 5.377-1.43S285.236 0 287.4 0c4.37 0 7.562.843 9.578 2.527S300 6.86 300 10.472v20.032c0 .528-.117.913-.35 1.157s-.646.365-1.24.365h-4.327c-.51 0-.9-.1-1.177-.304s-.478-.548-.605-1.035l-.382-1.4c-1.316 1.137-2.832 2.04-4.55 2.7S283.984 33 282.373 33zm28.26-1c-.566 0-.98-.125-1.24-.375s-.39-.647-.39-1.2V27.24c0-.667.075-1.18.227-1.535s.425-.76.817-1.22l16.12-17.722h-14.88c-.565 0-.978-.126-1.24-.376s-.392-.647-.392-1.2v-3.63c0-.585.13-.992.392-1.22s.674-.344 1.24-.344h23.758c.61 0 1.033.115 1.273.344s.36.637.36 1.22v3.318c0 .67-.077 1.18-.228 1.534s-.425.763-.816 1.22l-16.317 17.597h16.055c.6 0 1.034.115 1.274.344s.36.637.36 1.22v3.632c0 .543-.12.94-.36 1.2s-.664.375-1.274.375H310.63zm49.87-7c4.333 0 6.5-3.344 6.5-10.032C367 8.323 364.833 5 360.5 5s-6.5 3.323-6.5 9.968C354 21.656 356.167 25 360.5 25zm-1.5 8c-5.018 0-8.94-1.453-11.763-4.36S343 21.675 343 16.47c0-5.164 1.412-9.2 4.237-12.108S353.982 0 359 0s8.937 1.455 11.763 4.36S375 11.306 375 16.47c0 5.206-1.413 9.263-4.237 12.17S364.017 33 359 33zm28.582-1c-.548 0-.95-.12-1.203-.365s-.38-.628-.38-1.156V2.434c0-.568.126-.963.38-1.187s.654-.335 1.203-.335h4.558c.97 0 1.56.447 1.772 1.34l.57 2.007C398.278 1.42 402.33 0 406.633 0c2.995 0 5.305.78 6.93 2.342S416 6.125 416 9.004V30.48c0 .528-.116.913-.348 1.156s-.643.365-1.234.365h-6.076c-.55 0-.95-.12-1.203-.365s-.38-.628-.38-1.156V11.62c0-1.663-.38-2.88-1.14-3.65s-1.92-1.155-3.48-1.155c-2.322 0-4.62.7-6.9 2.068V30.48c0 .528-.117.913-.348 1.156s-.644.365-1.234.365h-6.076z" fill="#232b39" fill-rule="nonzero"/></svg>