<?xml version="1.0" encoding="UTF-8"?>
<svg version="1.1" viewBox="0 0 1159.3 491.92" xml:space="preserve" xmlns="http://www.w3.org/2000/svg" xmlns:cc="http://creativecommons.org/ns#" xmlns:dc="http://purl.org/dc/elements/1.1/" xmlns:rdf="http://www.w3.org/1999/02/22-rdf-syntax-ns#"><metadata><rdf:RDF><cc:Work rdf:about=""><dc:format>image/svg+xml</dc:format><dc:type rdf:resource="http://purl.org/dc/dcmitype/StillImage"/></cc:Work></rdf:RDF></metadata><g transform="matrix(1.3333 0 0 -1.3333 0 491.92)"><g transform="scale(.1)"><path d="m405.04 1596.9c61.965 0 107.61 21.01 136.95 63.08 29.313 42.04 43.989 108.44 43.989 199.2 0 91.84-14.395 158.79-43.161 200.86-28.789 42.04-74.695 63.08-137.78 63.08-57.555 0-111.79-14.94-162.68-44.82v-436.58c48.688-29.88 102.92-44.82 162.68-44.82zm-363.54-506.3c-14.394 0-24.902 3.06-31.539 9.13-6.6406 6.09-9.9609 16.89-9.9609 32.37v1107.2c0 15.48 3.3203 26.27 9.9609 32.37 6.6368 6.07 17.145 9.13 31.539 9.13h119.52c25.445 0 40.929-12.19 46.48-36.52l11.621-43.16c33.199 32.08 73.297 57.53 120.35 76.36 47.023 18.8 94.883 28.22 143.59 28.22 107.33 0 192.27-39.3 254.81-117.86 62.504-78.59 93.789-184.83 93.789-318.72 0-91.88-15.512-172.1-46.48-240.7-30.996-68.63-73.039-121.47-126.16-158.53-53.122-37.09-114-55.61-182.6-55.61-45.391 0-88.555 7.21-129.48 21.58-40.958 14.37-75.817 34.29-104.58 59.76v-363.54c0-15.48-3.062-26.28-9.132-32.37-6.094-6.07-16.883-9.13-32.368-9.13h-159.36" fill="#4aaae4"/><path d="m1032.5 1432.6c-14.39 0-24.9 3.32-31.53 9.96-6.646 6.64-9.962 17.14-9.962 31.54v765.26c0 15.48 3.316 26.27 9.962 32.37 6.63 6.07 17.14 9.13 31.53 9.13h119.53c25.44 0 40.92-12.19 46.48-36.52l21.57-89.64c44.26 48.68 86.04 83.26 125.34 103.75 39.26 20.46 81.05 30.71 125.33 30.71h23.23c15.49 0 26.57-3.06 33.2-9.13 6.64-6.1 9.96-16.89 9.96-32.37v-139.44c0-14.4-3.06-24.9-9.13-31.54-6.09-6.64-16.88-9.96-32.37-9.96-7.75 0-17.71 0.54-29.87 1.66-12.2 1.09-27.68 1.66-46.48 1.66-25.48 0-56.44-3.61-92.97-10.79-36.52-7.21-67.51-16.34-92.96-27.39v-557.76c0-14.4-3.06-24.9-9.13-31.54-6.09-6.64-16.88-9.96-32.36-9.96h-159.37" fill="#4aaae4"/><path d="m1685.3 1432.6c-14.39 0-24.9 3.32-31.54 9.96s-9.96 17.14-9.96 31.54v765.26c0 15.48 3.32 26.27 9.96 32.37 6.64 6.07 17.15 9.13 31.54 9.13h159.36c15.49 0 26.28-3.06 32.37-9.13 6.07-6.1 9.13-16.89 9.13-32.37v-765.26c0-14.4-3.06-24.9-9.13-31.54-6.09-6.64-16.88-9.96-32.37-9.96zm79.68 979.4c-42.07 0-75.82 11.62-101.26 34.86-25.47 23.24-38.18 54.78-38.18 94.62s12.71 71.38 38.18 94.62c25.44 23.24 59.19 34.86 101.26 34.86 42.05 0 75.79-11.62 101.26-34.86 25.44-23.24 38.18-54.78 38.18-94.62s-12.74-71.38-38.18-94.62c-25.47-23.24-59.21-34.86-101.26-34.86" fill="#4aaae4"/><path d="m2129.8 1432.6c-14.4 0-24.9 3.32-31.54 9.96s-9.96 17.14-9.96 31.54v765.26c0 15.48 3.32 26.27 9.96 32.37 6.64 6.07 17.14 9.13 31.54 9.13h119.52c25.44 0 40.93-12.19 46.48-36.52l13.28-44.82c58.64 38.72 111.48 66.11 158.53 82.17 47.02 16.02 95.45 24.07 145.25 24.07 99.6 0 169.86-35.43 210.82-106.24 56.44 37.61 109.56 64.74 159.36 81.34s101.26 24.9 154.38 24.9c77.45 0 137.49-21.58 180.11-64.74 42.59-43.16 63.9-103.49 63.9-180.94v-585.98c0-14.4-3.05-24.9-9.12-31.54-6.1-6.64-16.89-9.96-32.37-9.96h-159.36c-14.39 0-24.9 3.32-31.54 9.96s-9.96 17.14-9.96 31.54v532.86c0 75.24-33.77 112.88-101.26 112.88-59.76 0-120.09-14.4-180.94-43.16v-602.58c0-14.4-3.06-24.9-9.13-31.54-6.1-6.64-16.89-9.96-32.37-9.96h-159.36c-14.4 0-24.9 3.32-31.54 9.96s-9.96 17.14-9.96 31.54v532.86c0 75.24-33.77 112.88-101.26 112.88-61.99 0-122.84-14.94-182.6-44.82v-600.92c0-14.4-3.06-24.9-9.13-31.54-6.1-6.64-16.89-9.96-32.37-9.96h-159.36" fill="#4aaae4"/><path d="m4052 2028.2c0 80.95-57.09 104.13-127.4 104.13-46.25 0-91.1-16.7-121.7-50.2-29.86-32.68-48.3-82.37-56.11-144.87 0 0 124.4-22.57 214.34-7.71 46.67 7.71 90.87 33.65 90.87 98.65zm-100.86-622.15c-135.29 0-238.21 31.62-320.91 115.79-54.28 55.23-105.42 157.71-105.42 333.39 0 141.65 44.88 249.9 117.92 328.49 73.04 78.56 184.58 115.41 290 115.41 131.66 0 209.72-29.89 269.49-89.65 9.8-9.8 69.86-71.91 69.86-171.6 0-34.31 1.05-69.86-22.48-119.68-15.94-33.75-40.09-54.9-46.46-60.73-97.91-89.59-289.79-83.65-354.7-79.96l-105.09 16c6.88-72.81 27.29-130 71.88-162.5 41.92-30.56 87.91-43.44 181.87-43.44 47.1 0 109.94 9.42 190.74 30.46 4.36 1.18 12.83 3.32 15.77 3.76 1.89 0.29 9.76 1.18 15.29-0.7 8.85-3.01 18.83-11.41 18.83-35.46v-76.36c0-17.72-1.99-30.17-6.97-37.36-4.98-7.21-14.92-14.16-29.28-19.68-84.12-30.98-162.66-46.18-250.34-46.18" fill="#4aaae4"/><path d="m7519.3 2028.2c0 80.95-57.09 104.13-127.4 104.13-46.25 0-91.1-16.7-121.71-50.2-29.86-32.68-48.29-82.37-56.11-144.87 0 0 124.41-22.57 214.35-7.71 46.67 7.71 90.87 33.65 90.87 98.65zm-100.87-622.15c-135.28 0-238.2 31.62-320.91 115.79-54.27 55.23-105.41 157.71-105.41 333.39 0 141.65 44.87 249.9 117.91 328.49 73.05 78.56 184.59 115.41 290 115.41 131.67 0 209.73-29.89 269.49-89.65 9.8-9.8 69.87-71.91 69.87-171.6 0-34.31 1.05-69.86-22.48-119.68-15.94-33.75-40.09-54.9-46.46-60.73-97.92-89.59-289.79-83.65-354.71-79.96l-105.08 16c6.87-72.81 27.29-130 71.87-162.5 41.92-30.56 87.92-43.44 181.88-43.44 47.09 0 109.94 9.42 190.74 30.46 4.35 1.18 12.83 3.32 15.76 3.76 1.89 0.29 9.77 1.18 15.3-0.7 8.85-3.01 18.82-11.41 18.82-35.46v-76.36c0-17.72-1.98-30.17-6.96-37.36-4.98-7.21-14.92-14.16-29.29-19.68-84.12-30.98-162.65-46.18-250.34-46.18" fill="#232b39"/><path d="m5002.7 1432.6c-11.07 0-20.21 1.37-27.38 4.15-7.22 2.75-13.28 7.18-18.26 13.28-4.99 6.07-9.7 14.65-14.12 25.73l-283.85 738.7c-3.32 8.84-6.1 16.6-8.3 23.24-2.24 6.64-3.32 12.71-3.32 18.26 0 16.6 11.04 24.9 33.2 24.9h165.99c17.69 0 30.72-3.32 39.02-9.96 8.29-6.64 14.65-17.72 19.08-33.2l170.99-587.64 174.29 587.64c4.42 15.48 10.79 26.56 19.1 33.2 8.3 6.64 21.28 9.96 39 9.96h161.02c22.12 0 33.21-8.3 33.21-24.9 0-5.55-1.13-11.62-3.32-18.26-2.24-6.64-4.98-14.4-8.3-23.24l-283.87-738.7c-4.43-11.08-9.12-19.66-14.1-25.73-4.98-6.1-10.79-10.53-17.43-13.28-6.64-2.78-16.06-4.15-28.23-4.15h-144.42" fill="#232b39"/><path d="m5647 1432.6c-14.4 0-24.9 3.32-31.54 9.96s-9.96 17.14-9.96 31.54v765.26c0 15.48 3.32 26.27 9.96 32.37 6.64 6.07 17.14 9.13 31.54 9.13h159.36c15.49 0 26.27-3.06 32.38-9.13 6.06-6.1 9.12-16.89 9.12-32.37v-765.26c0-14.4-3.06-24.9-9.12-31.54-6.11-6.64-16.89-9.96-32.38-9.96zm79.68 979.4c-42.07 0-75.82 11.62-101.25 34.86-25.48 23.24-38.19 54.78-38.19 94.62s12.71 71.38 38.19 94.62c25.43 23.24 59.18 34.86 101.25 34.86 42.05 0 75.79-11.62 101.26-34.86 25.44-23.24 38.18-54.78 38.18-94.62s-12.74-71.38-38.18-94.62c-25.47-23.24-59.21-34.86-101.26-34.86" fill="#232b39"/><path d="m6435.2 1596.9c53.13 0 104.01 15.48 152.73 46.48v438.24c-47.6 27.65-102.39 41.5-164.35 41.5-58.67 0-102.37-21.87-131.13-65.57-28.8-43.73-43.17-109.85-43.17-198.37 0-88.55 15.2-154.38 45.65-197.54 30.43-43.16 77.19-64.74 140.27-64.74zm-79.68-182.6c-71.95 0-134.46 18.52-187.58 55.61-53.12 37.06-93.78 88.52-122.01 154.38-28.22 65.83-42.33 141.93-42.33 228.25 0 137.21 32.64 247.05 97.94 329.51 65.29 82.43 151.61 123.67 258.96 123.67 87.42 0 163.23-24.9 227.43-74.7v388.44c0 15.48 3.32 26.27 9.96 32.37 6.64 6.07 17.13 9.13 31.53 9.13h159.36c15.48 0 26.27-3.06 32.37-9.13 6.07-6.1 9.13-16.89 9.13-32.37v-1145.4c0-14.4-3.06-24.9-9.13-31.54-6.1-6.64-16.89-9.96-32.37-9.96h-132.8c-13.28 0-23.52 2.75-30.71 8.3-7.21 5.52-12.45 14.94-15.77 28.22l-9.95 38.18c-68.64-61.99-149.97-92.96-244.03-92.96" fill="#232b39"/><path d="m8274.4 1593.6c116.2 0 174.31 87.98 174.31 263.94 0 174.84-58.11 262.28-174.31 262.28s-174.3-87.44-174.3-262.28c0-175.96 58.1-263.94 174.3-263.94zm0-185.92c-131.71 0-234.63 39.55-308.76 118.69-74.15 79.11-111.22 189.5-111.22 331.17 0 140.53 37.07 250.37 111.22 329.51 74.13 79.11 177.05 118.69 308.76 118.69 131.69 0 234.61-39.58 308.76-118.69 74.13-79.14 111.22-188.98 111.22-329.51 0-141.67-37.09-252.06-111.22-331.17-74.15-79.14-177.07-118.69-308.76-118.69" fill="#232b39"/><path d="m2109.5 971.23v-13.609c1.71-11.621 7.83-23.992 19.44-35.281 592.16-576.14 1374.4-922.34 2243-922.34 619.87 0 1339.7 210.06 1836.3 604.81 82.08 65.679 11.79 163.45-72.09 125.23-556.62-254.51-1161.4-377.7-1712-377.7-815.74 0-1605.7 241.23-2244.2 641.69-11.52 7.189-22.43 10.329-32.06 10.329-20.67 0-35.54-14.329-38.44-33.13" fill="#4aaae4" fill-rule="evenodd"/><path d="m5798.7 909c-17.68-13.371-26.96-28.648-28.64-41.738v-8.141c2.07-15.09 16.15-25.23 40.91-22.09 159.8 20.66 516.16 66.449 579.63-21.043 63.56-87.297-70.55-447.34-130.46-607.7-17.99-48.32 20.81-68.258 61.58-31.23 266.5 239.09 335.29 740.42 280.58 812.72-26.04 34.649-148.32 67.069-299.71 67.069-161.87 0-357.07-36.99-503.89-147.85" fill="#4aaae4" fill-rule="evenodd"/><path d="m2634.2 3248.7c16.54 0 33.58 3.63 51.13 10.92 17.52 7.28 33.9 17.2 49.13 29.78v86.36c-29.13 4.62-55.26 6.95-78.42 6.95-57.57 0-86.36-23.17-86.36-69.48 0-20.53 5.62-36.41 16.88-47.65 11.24-11.26 27.13-16.88 47.64-16.88zm-40.7-97.28c-48.97 0-88.18 13.9-117.62 41.7-29.46 27.79-44.17 64.84-44.17 111.17 0 32.42 8.44 61.05 25.31 85.86 16.88 24.82 40.2 43.68 69.98 56.58 29.78 12.91 63.85 19.36 102.24 19.36 31.76 0 66.83-4.31 105.22-12.9v49.63c0 30.42-6.3 51.27-18.86 62.53-12.58 11.25-35.73 16.88-69.48 16.88-45.01 0-95.64-7.95-151.88-23.82-1.98-0.67-3.97-1.17-5.95-1.49-1.99-0.35-3.65-0.5-4.97-0.5-11.26 0-16.87 7.59-16.87 22.83v44.67c0 10.57 1.32 17.86 3.97 21.83 2.64 3.97 8.59 7.95 17.87 11.92 23.15 9.92 51.12 17.69 83.88 23.32 32.75 5.62 66.01 8.44 99.75 8.44 68.16 0 117.96-13.74 149.4-41.2 31.42-27.46 47.15-70.64 47.15-129.53v-326.58c0-8.61-1.84-14.89-5.46-18.86-3.65-3.97-10.1-5.95-19.36-5.95h-67.5c-7.94 0-14.07 1.64-18.36 4.96-4.31 3.3-7.45 8.93-9.43 16.87l-5.96 22.84c-20.52-18.54-44.17-33.26-70.97-44.18s-52.78-16.38-77.93-16.38" fill="#232b39"/><path d="m3069.9 3167.3c-8.61 0-14.89 1.98-18.86 5.95s-5.96 10.25-5.96 18.86v457.6c0 9.27 1.99 15.72 5.96 19.36 3.97 3.63 10.25 5.46 18.86 5.46h71.47c15.21 0 24.47-7.29 27.79-21.84l7.94-26.8c35.07 23.16 66.66 39.54 94.8 49.13 28.12 9.59 57.08 14.4 86.85 14.4 59.56 0 101.58-21.19 126.07-63.53 33.75 22.49 65.51 38.72 95.29 48.64 29.78 9.93 60.55 14.89 92.31 14.89 46.32 0 82.22-12.9 107.7-38.71 25.47-25.81 38.22-61.89 38.22-108.2v-350.4c0-8.61-1.83-14.89-5.46-18.86-3.64-3.97-10.09-5.95-19.35-5.95h-95.3c-8.6 0-14.89 1.98-18.86 5.95s-5.95 10.25-5.95 18.86v318.64c0 44.99-20.2 67.49-60.55 67.49-35.74 0-71.81-8.6-108.2-25.8v-360.33c0-8.61-1.83-14.89-5.46-18.86-3.64-3.97-10.1-5.95-19.35-5.95h-95.3c-8.61 0-14.89 1.98-18.86 5.95s-5.95 10.25-5.95 18.86v318.64c0 44.99-20.2 67.49-60.55 67.49-37.07 0-73.46-8.93-109.19-26.79v-359.34c0-8.61-1.83-14.89-5.46-18.86-3.65-3.97-10.1-5.95-19.36-5.95h-95.29" fill="#232b39"/><path d="m4165.8 3248.7c16.54 0 33.58 3.63 51.13 10.92 17.52 7.28 33.9 17.2 49.13 29.78v86.36c-29.13 4.62-55.26 6.95-78.42 6.95-57.57 0-86.36-23.17-86.36-69.48 0-20.53 5.62-36.41 16.88-47.65 11.24-11.26 27.13-16.88 47.64-16.88zm-40.69-97.28c-48.98 0-88.19 13.9-117.63 41.7-29.45 27.79-44.17 64.84-44.17 111.17 0 32.42 8.44 61.05 25.31 85.86 16.88 24.82 40.2 43.68 69.98 56.58 29.78 12.91 63.85 19.36 102.24 19.36 31.77 0 66.83-4.31 105.22-12.9v49.63c0 30.42-6.3 51.27-18.86 62.53-12.58 11.25-35.73 16.88-69.48 16.88-45.01 0-95.64-7.95-151.88-23.82-1.98-0.67-3.97-1.17-5.95-1.49-1.99-0.35-3.65-0.5-4.96-0.5-11.26 0-16.88 7.59-16.88 22.83v44.67c0 10.57 1.32 17.86 3.97 21.83 2.64 3.97 8.59 7.95 17.87 11.92 23.16 9.92 51.12 17.69 83.88 23.32 32.75 5.62 66.01 8.44 99.75 8.44 68.16 0 117.96-13.74 149.4-41.2 31.42-27.46 47.15-70.64 47.15-129.53v-326.58c0-8.61-1.83-14.89-5.47-18.86s-10.08-5.95-19.35-5.95h-67.5c-7.94 0-14.06 1.64-18.36 4.96-4.31 3.3-7.45 8.93-9.43 16.87l-5.96 22.84c-20.52-18.54-44.17-33.26-70.97-44.18s-52.78-16.38-77.92-16.38" fill="#232b39"/><path d="m4563.8 3167.3c-8.61 0-14.89 1.98-18.86 5.95s-5.95 10.25-5.95 18.86v50.62c0 10.58 1.14 18.7 3.46 24.33 2.32 5.61 6.46 12.06 12.42 19.35l245.17 280.91h-226.32c-8.6 0-14.88 1.99-18.85 5.96-3.98 3.97-5.96 10.26-5.96 18.87v57.56c0 9.27 1.98 15.72 5.96 19.36 3.97 3.63 10.25 5.46 18.85 5.46h361.32c9.26 0 15.71-1.83 19.36-5.46 3.63-3.64 5.46-10.09 5.46-19.36v-52.6c0-10.6-1.17-18.71-3.47-24.32-2.33-5.64-6.46-12.09-12.41-19.36l-248.16-278.93h244.18c9.27 0 15.72-1.83 19.37-5.46 3.62-3.64 5.46-10.1 5.46-19.36v-57.57c0-8.61-1.84-14.89-5.46-18.86-3.65-3.97-10.1-5.95-19.37-5.95h-376.2" fill="#232b39"/><path d="m5320.2 3263.6c69.48 0 104.22 52.61 104.22 157.83 0 104.55-34.74 156.83-104.22 156.83s-104.23-52.28-104.23-156.83c0-105.22 34.75-157.83 104.23-157.83zm0-111.17c-78.76 0-140.3 23.65-184.63 70.97-44.35 47.3-66.51 113.32-66.51 198.03 0 84.03 22.16 149.72 66.51 197.04 44.33 47.3 105.87 70.97 184.63 70.97 78.74 0 140.28-23.67 184.63-70.97 44.32-47.32 66.5-113.01 66.5-197.04 0-84.71-22.18-150.73-66.5-198.03-44.35-47.32-105.89-70.97-184.63-70.97" fill="#232b39"/><path d="m5748 3167.3c-8.6 0-14.88 1.98-18.86 5.95-3.97 3.97-5.95 10.25-5.95 18.86v457.6c0 9.27 1.98 15.72 5.95 19.36 3.98 3.63 10.26 5.46 18.86 5.46h71.48c15.21 0 24.47-7.29 27.79-21.84l8.93-32.75c59.55 46.31 123.09 69.48 190.59 69.48 46.97 0 83.2-12.75 108.69-38.22 25.47-25.48 38.21-61.71 38.21-108.69v-350.4c0-8.61-1.82-14.89-5.46-18.86s-10.09-5.95-19.35-5.95h-95.29c-8.61 0-14.9 1.98-18.86 5.95-3.98 3.97-5.96 10.25-5.96 18.86v307.71c0 27.13-5.96 46.99-17.87 59.57-11.9 12.56-30.12 18.85-54.59 18.85-36.41 0-72.46-11.26-108.2-33.74v-352.39c0-8.61-1.83-14.89-5.46-18.86-3.64-3.97-10.1-5.95-19.36-5.95h-95.29" fill="#232b39"/></g></g></svg>
