<svg version="1.1" viewBox="0 0 105 32" xmlns="http://www.w3.org/2000/svg"><title>ChinaMobile</title><path d="m1.148 11.105c0.818 0.922 1.595 1.875 2.454 2.747 1.329 1.35 2.682 2.678 4.085 3.951 1.231 1.118 2.24 1.046 3.473-0.072 2.404-2.179 4.813-4.354 7.23-6.519 1.513-1.355 3.157-1.413 4.717-0.112 2.959 2.467 5.657 5.198 8.06 8.213 0.533 0.669 0.519 0.749 0 1.576-0.132-0.143-0.25-0.278-0.376-0.406-2.002-2.053-4.002-4.106-6.007-6.155-0.142-0.146-0.312-0.266-0.48-0.382-1.122-0.782-1.989-0.727-2.999 0.193-1.212 1.104-2.41 2.223-3.628 3.322-1.242 1.121-2.49 2.238-3.756 3.332-1.624 1.402-3.254 1.414-4.879 6e-3 -2.768-2.397-5.337-4.993-7.666-7.822-0.098-0.118-0.192-0.24-0.281-0.366-0.454-0.638-0.45-0.771 0.055-1.505zm27.606 9.417c-0.282-0.307-0.532-0.295-0.822-0.01-0.474 0.466-0.956 0.928-1.453 1.37-2.141 1.908-4.257 3.846-6.443 5.7-1.478 1.254-3.21 2.01-5.195 2.001-2.117-0.01-3.879-0.925-5.491-2.212-3.284-2.622-6.022-5.744-8.429-9.17-0.288-0.411-0.578-0.821-0.921-1.305 0.037 1.043 0.297 1.896 0.79 2.707 1.337 2.198 2.877 4.236 4.64 6.106 1.88 1.994 3.866 3.859 6.293 5.197 1.11 0.611 2.275 1.012 3.54 1.078 2.634 0.137 5.006-0.634 7.05-2.271 1.798-1.44 3.522-2.974 5.25-4.498 0.997-0.879 1.938-1.821 2.974-2.8-0.639-0.678-1.216-1.28-1.781-1.893zm3.681-5.675c-0.245-0.714-0.363-1.509-0.758-2.127-1.036-1.622-2.113-3.231-3.318-4.728-2.009-2.494-4.291-4.714-7.009-6.464-2.983-1.921-6.045-1.945-9.209-0.551-1.573 0.693-2.848 1.81-4.11 2.933-1.914 1.701-3.798 3.434-5.682 5.166-0.531 0.488-0.522 0.514-0.058 1.037 0.385 0.434 0.778 0.861 1.194 1.265 0.46 0.447 0.583 0.431 1.062-0.021 1.092-1.032 2.154-2.096 3.283-3.086 1.706-1.496 3.407-3.004 5.204-4.386 1.444-1.11 3.15-1.576 5.002-1.43 1.734 0.136 3.216 0.858 4.562 1.896 3.215 2.481 5.925 5.446 8.289 8.736 0.445 0.619 0.892 1.238 1.338 1.856 0.07-0.03 0.141-0.063 0.211-0.095zm-0.551 1.53c-0.566-0.706-1.073-1.458-1.63-2.171-2.309-2.96-4.853-5.69-7.87-7.949-1.137-0.851-2.394-1.44-3.832-1.579-1.827-0.177-3.346 0.518-4.666 1.702-2.009 1.801-4.001 3.62-5.984 5.449-0.698 0.643-1.347 1.338-2.064 2.054 0.637 0.61 1.197 1.183 1.798 1.71 0.699 0.613 0.968 0.578 1.659-0.066 1.786-1.664 3.569-3.332 5.373-4.978 0.819-0.747 1.648-1.493 2.537-2.153 1.691-1.256 3.312-1.282 5.089-0.158 0.374 0.237 0.731 0.505 1.074 0.786 2.17 1.784 4.142 3.769 5.954 5.91 0.923 1.091 1.807 2.216 2.755 3.382 0.248-0.728 0.284-1.345-0.193-1.94zm-5.651 1.484c-0.575-0.534-1.142-1.078-1.734-1.594-0.507-0.442-0.782-0.421-1.281 0.046-1.159 1.086-2.294 2.198-3.475 3.259-1.536 1.381-3.05 2.797-4.679 4.061-1.716 1.331-3.614 1.242-5.34-0.078-0.813-0.622-1.602-1.279-2.366-1.961-2.522-2.248-4.695-4.814-6.746-7.486-0.104-0.135-0.225-0.257-0.364-0.415-0.298 0.821-0.17 1.45 0.3 2.096 1.983 2.729 4.134 5.308 6.604 7.612 1.286 1.201 2.581 2.409 4.18 3.19 2.354 1.149 4.646 1.073 6.7-0.659 1.788-1.507 3.522-3.081 5.23-4.678 1.081-1.01 2.071-2.118 3.124-3.206-0.025-0.034-0.079-0.12-0.152-0.187zm27.293-11.825c0.011-0.438-0.141-0.546-0.556-0.54-1.605 0.021-3.21 1e-3 -4.814 0.014-0.345 2e-3 -0.5-0.094-0.482-0.461 0.023-0.46 0.014-0.922 3e-3 -1.382-0.024-1.024 0.252-0.969-1.045-0.974-0.338-2e-3 -0.446 0.138-0.436 0.462 0.018 0.597-0.017 1.196 0.011 1.792 0.019 0.419-0.122 0.566-0.55 0.56-1.57-0.019-3.142 0.01-4.712-0.011-0.415-6e-3 -0.528 0.141-0.526 0.53 0.012 2.254 0.017 4.507-4e-3 6.761-4e-3 0.471 0.176 0.57 0.604 0.565 1.553-0.02 3.106 2e-3 4.659-0.014 0.402-4e-3 0.538 0.138 0.529 0.537-0.022 0.922-0.016 1.844-4e-3 2.766 0.015 1.14-0.197 0.967 1.002 1.005 0.403 0.013 0.487-0.149 0.48-0.511-0.019-1.007-6e-3 -2.014-6e-3 -3.022 0-0.767 1e-3 -0.768 0.745-0.769 1.519-1e-3 3.038-0.014 4.557 8e-3 0.431 6e-3 0.554-0.136 0.544-0.556-0.026-1.109-9e-3 -2.219-9e-3 -3.329 1e-3 -1.143-0.018-2.287 0.01-3.43zm-5.85 1.282c-7e-3 -0.333 0.122-0.45 0.45-0.446 1.16 0.012 2.321 0.014 3.481-1e-3 0.336-4e-3 0.444 0.119 0.442 0.447-0.012 1.416-0.012 2.832 1e-3 4.249 3e-3 0.349-0.115 0.49-0.472 0.486-1.143-0.013-2.286-0.013-3.43 0-0.356 4e-3 -0.482-0.136-0.473-0.486 0.018-0.699 5e-3 -1.399 5e-3 -2.098 1e-3 -0.718 0.011-1.435-4e-3 -2.151zm-1.47 4.244c8e-3 0.346-0.11 0.493-0.469 0.489-1.142-0.013-2.285-0.01-3.427-2e-3 -0.32 2e-3 -0.466-0.113-0.463-0.447 9e-3 -1.398 0.01-2.797 2e-3 -4.195-2e-3 -0.413 0.158-0.554 0.581-0.543 1.09 0.029 2.182 0.022 3.274 4e-3 0.374-6e-3 0.517 0.118 0.505 0.499-0.022 0.698-6e-3 1.398-6e-3 2.098s-0.012 1.399 5e-3 2.098zm24.232-7.771c3e-3 -0.414-0.102-0.558-0.539-0.557-4.098 0.015-8.197 0.015-12.295 0-0.435-2e-3 -0.541 0.141-0.54 0.556 0.014 4.303 0.015 8.606-2e-3 12.91-2e-3 0.468 0.162 0.571 0.592 0.57 4.064-0.012 8.128-0.014 12.193 2e-3 0.484 2e-3 0.598-0.165 0.593-0.622-0.022-2.134-0.01-4.269-0.01-6.403 0-2.152-0.01-4.303 8e-3 -6.455zm-11.968 1.324c-6e-3 -0.466 0.147-0.611 0.619-0.608 3.107 0.019 6.214 0.019 9.322 0 0.468-3e-3 0.623 0.135 0.622 0.605-0.014 3.414-0.014 6.83 0 10.244 2e-3 0.466-0.146 0.611-0.618 0.608-3.107-0.019-6.214-0.022-9.322 2e-3 -0.524 4e-3 -0.626-0.196-0.622-0.658 0.019-1.69 7e-3 -3.381 7e-3 -5.07 0-1.707 0.012-3.415-8e-3 -5.122zm22.584 5.267c0.127-0.05 0.251-0.106 0.378-0.159 0.448-0.189 0.896-0.378 1.345-0.567 0.026 0.04 0.053 0.081 0.079 0.121-0.956 1.705-2.502 2.794-4.169 3.822 0.166 0.176 0.287 0.314 0.417 0.444 0.585 0.585 0.662 0.653 1.337 0.161 0.946-0.69 1.812-1.488 2.713-2.24 0.142-0.118 0.282-0.334 0.427-0.338 0.963-0.03 1.928-0.016 2.898-0.016 0 0.153 0.022 0.244-3e-3 0.32-0.374 1.15-1.1 2.034-2.11 2.677-0.108 0.069-0.389-0.01-0.513-0.113-0.38-0.316-0.711-0.689-1.086-1.011-0.098-0.085-0.331-0.144-0.419-0.087-0.277 0.178-0.514 0.418-0.918 0.766 0.552 0.446 1.027 0.83 1.57 1.27-1.519 0.746-3.028 0.874-4.566 1.086 0.127 0.312 0.202 0.599 0.357 0.834 0.088 0.134 0.312 0.269 0.462 0.256 1.539-0.125 3.029-0.47 4.444-1.102 1.551-0.693 2.826-1.71 3.716-3.177 0.48-0.791 0.761-1.63 0.696-2.574-0.022-0.33-0.133-0.446-0.462-0.441-0.87 0.015-1.742 6e-3 -2.613 4e-3 -0.179-1e-3 -0.358-0.016-0.577-0.026 0.062-0.259 0.107-0.453 0.163-0.689-0.362-0.079-0.709-0.154-1.165-0.254 0.297-0.21 0.489-0.346 0.682-0.481 1.141-0.795 2.194-1.679 2.991-2.841 0.332-0.484 0.495-0.988 0.47-1.58-0.016-0.374-0.133-0.508-0.511-0.502-1.195 0.018-2.39 7e-3 -3.586 5e-3 -0.179-1e-3 -0.358-0.019-0.596-0.033 0.12-0.332 0.214-0.594 0.321-0.89-0.349-0.133-0.658-0.278-0.983-0.359-0.111-0.027-0.328 0.072-0.386 0.176-0.738 1.327-1.677 2.489-2.803 3.503-0.081 0.073-0.19 0.258-0.176 0.271 0.269 0.249 0.538 0.507 0.847 0.697 0.086 0.053 0.343-0.069 0.453-0.179 0.493-0.496 0.94-1.038 1.448-1.517 0.198-0.187 0.51-0.344 0.776-0.355 0.954-0.042 1.912-0.02 2.868-0.013 0.177 2e-3 0.353 0.046 0.576 0.078-0.074 0.139-0.102 0.222-0.154 0.282-0.29 0.335-0.572 0.681-0.885 0.994-0.973 0.972-0.966 0.953-2.014 0.108-0.928-0.749-0.73-0.823-1.618 0.142-0.02 0.022-0.021 0.063-0.034 0.106 0.448 0.418 0.9 0.838 1.462 1.361-1.255 0.507-2.371 0.958-3.517 1.421 0.923 1.288 0.571 1.179 1.967 0.639zm15.329 7.119c0.34 0.403 0.61 0.334 0.972 0.024 1.895-1.618 2.865-3.71 3.103-6.143 0.121-1.236 0.099-2.487 0.121-3.731 6e-3 -0.344 0.107-0.498 0.473-0.48 0.477 0.023 0.956 5e-3 1.434 6e-3 0.707 1e-3 0.719 2e-3 0.706 0.684-0.026 1.365-0.052 2.73-0.106 4.094-0.041 1.021-0.106 2.042-0.204 3.059-0.043 0.451-0.33 0.735-0.825 0.75-0.409 0.012-0.818 0.062-1.226 0.048-0.453-0.016-0.56 0.153-0.466 0.585 0.179 0.829 0.161 0.834 1.014 0.842 0.239 2e-3 0.478 2e-3 0.718 0 1.422-0.013 2.184-0.665 2.251-2.088 0.14-2.965 0.212-5.933 0.326-8.899 0.014-0.384-0.154-0.456-0.485-0.453-1.025 0.01-2.049-9e-3 -3.074-1e-3 -0.324 2e-3 -0.463-0.11-0.45-0.448 0.021-0.529 0.01-1.058 0.01-1.588 1e-3 -1.123 1e-3 -1.114-1.126-1.035-0.269 0.019-0.358 0.121-0.354 0.375 9e-3 0.563 6e-3 1.127 1e-3 1.69-0.011 1.106 0.146 0.998-1.022 1.002-0.983 5e-3 -0.97 1e-3 -0.93 0.986 0.013 0.322 0.139 0.414 0.436 0.399 0.358-0.017 0.718 0.012 1.075-8e-3 0.334-0.018 0.458 0.112 0.445 0.444-0.042 1.057-0.022 2.118-0.11 3.17-0.194 2.329-1.104 4.309-2.984 5.778-0.104 0.082-0.197 0.177-0.445 0.401 0.267 0.193 0.544 0.325 0.723 0.538zm-20.653-5.443v0.599c0 1.502 8e-3 3.005-6e-3 4.506-3e-3 0.344 0.085 0.522 0.457 0.476 0.118-0.014 0.241-0.018 0.358 1e-3 0.466 0.073 0.57-0.139 0.565-0.578-0.023-1.758-0.01-3.516-8e-3 -5.274 0-0.177 0.018-0.354 0.036-0.659 0.554 0.499 1.013 0.913 1.493 1.345 0.326-0.358 0.62-0.681 0.943-1.035-0.178-0.164-0.308-0.294-0.449-0.412-0.602-0.503-1.233-0.977-1.796-1.521-0.166-0.16-0.178-0.513-0.183-0.778-2e-3 -0.055 0.333-0.156 0.518-0.17 0.374-0.028 0.75-9e-3 1.126-0.012 0.528-5e-3 0.334-0.409 0.357-0.676s0.066-0.573-0.371-0.562c-0.426 0.01-0.854-5e-3 -1.28-3e-3 -0.269 1e-3 -0.406-0.101-0.397-0.395 0.016-0.494 0.015-0.99 0-1.485-9e-3 -0.282 0.114-0.384 0.38-0.426 0.454-0.07 0.907-0.157 1.347-0.286 0.126-0.037 0.296-0.247 0.287-0.367-0.024-0.329-0.132-0.652-0.212-0.998-0.758 0.14-1.457 0.287-2.16 0.393-0.858 0.129-1.722 0.229-2.585 0.33-0.411 0.048-0.691 0.157-0.514 0.668 0.07 0.201 0.054 0.43 0.084 0.704 0.668-0.081 1.299-0.157 2.012-0.243 0 0.587-0.015 1.111 6e-3 1.634 0.014 0.365-0.15 0.484-0.487 0.476-0.461-0.01-0.923 0.024-1.382-7e-3 -0.482-0.033-0.514 0.233-0.505 0.603 0.01 0.358-0.031 0.69 0.508 0.652 0.518-0.036 1.039-8e-3 1.635-8e-3 -0.081 0.276-0.106 0.445-0.178 0.591-0.652 1.329-1.319 2.65-1.962 3.983-0.08 0.166-0.137 0.443-0.054 0.57 0.202 0.306 0.492 0.554 0.816 0.899 0.513-0.893 0.99-1.725 1.468-2.558 0.044 9e-3 0.089 0.016 0.134 0.024zm-1.978 11.149c0.046 0.089 0.098 0.175 0.136 0.268 0.753 1.81 1.498 3.624 2.266 5.429 0.072 0.17 0.296 0.402 0.425 0.388 0.176-0.02 0.403-0.217 0.479-0.394 0.755-1.754 1.482-3.52 2.221-5.282 0.058-0.138 0.138-0.268 0.209-0.402 0.103 0.174 0.118 0.307 0.118 0.442 2e-3 1.742 0.01 3.482-6e-3 5.224-3e-3 0.379 0.158 0.476 0.493 0.446 0.29-0.026 0.634 0.089 0.631-0.42-0.011-2.476-8e-3 -4.952-2e-3 -7.428 1e-3 -0.314-0.138-0.43-0.437-0.41-0.17 0.011-0.345 0.024-0.511-3e-3 -0.473-0.078-0.694 0.139-0.863 0.57-0.67 1.698-1.374 3.381-2.069 5.068-0.054 0.13-0.132 0.251-0.247 0.468-0.12-0.265-0.2-0.427-0.27-0.595-0.638-1.545-1.259-3.097-1.914-4.634-0.434-1.017-0.144-0.839-1.315-0.88-0.44-0.015-0.599 0.114-0.595 0.573 0.019 2.374 0.018 4.747 0 7.12-3e-3 0.449 0.134 0.59 0.585 0.584 0.43-5e-3 0.552-0.144 0.546-0.563-0.023-1.673-0.016-3.346-0.019-5.02v-0.536c0.047-5e-3 0.094-9e-3 0.139-0.013zm18.498-8.809c0.608-1.556 1.226-3.108 1.82-4.67 0.118-0.308 0.317-0.361 0.591-0.359 0.786 3e-3 1.573-0.026 2.357 0.01 0.514 0.024 0.634-0.186 0.63-0.658-4e-3 -0.466-0.068-0.716-0.635-0.707-1.981 0.032-3.962 0.012-5.943 0.012-0.824 0-0.8 1e-3 -0.812 0.798-6e-3 0.433 0.15 0.576 0.566 0.55 0.426-0.026 0.854-0.013 1.281-2e-3 0.174 5e-3 0.348 0.049 0.57 0.082-0.532 1.906-1.175 3.686-2.137 5.323-0.335 0.571-0.294 0.988 0.042 1.499 1.383-0.339 2.768-0.693 4.161-1.011 0.416-0.095 0.87-0.395 1.277 0.06 0.026 0.029 0.13 4e-3 0.19-0.019 0.36-0.139 0.717-0.285 1.111-0.443-0.294-0.692-0.554-1.32-0.826-1.944-0.27-0.62-0.551-1.234-0.845-1.889-0.446 0.191-0.833 0.358-1.257 0.54 0.284 0.666 0.566 1.283 0.805 1.918 0.05 0.135-0.025 0.458-0.101 0.479-0.93 0.254-1.872 0.467-2.89 0.71 0.028-0.181 0.027-0.234 0.045-0.279zm-45.243 12.88c-0.57 0.726-1.434 1.061-2.359 1.047-1.467-0.021-2.75-1.124-3.076-2.562-0.305-1.346 0.372-2.802 1.612-3.467 1.332-0.715 2.858-0.499 3.855 0.677 0.474 0.559 0.966 0.566 1.57 0.48-0.426-1.663-2.55-2.83-4.635-2.572-1.894 0.234-3.448 2.063-3.537 4.011-0.103 2.269 1.519 4.117 3.529 4.42 2.518 0.381 4.194-1.175 4.641-2.56-0.65-0.098-1.149-0.047-1.599 0.526zm43.084 1.854c1.484 0.737 3.048 0.171 3.576-1.397 0.221-0.656 0.274-1.414 0.217-2.11-0.157-1.901-1.894-2.891-3.646-2.149-0.119 0.05-0.242 0.092-0.434 0.163 0-0.949-0.026-1.834 0.01-2.718 0.019-0.463-0.137-0.583-0.581-0.574-0.412 9e-3 -0.605 0.066-0.6 0.554 0.025 2.63 0.022 5.26 2e-3 7.89-3e-3 0.437 0.142 0.611 0.553 0.523 0.194-0.042 0.37-0.162 0.666-0.298 0.024 0.012 0.13 0.062 0.236 0.114zm2.558-1.889c-0.354 1.218-1.466 1.602-2.473 0.834-0.185-0.141-0.341-0.432-0.354-0.662-0.044-0.749-0.042-1.504 0-2.254 0.012-0.21 0.172-0.481 0.348-0.598 0.571-0.382 1.208-0.51 1.83-0.121 0.696 0.435 0.742 1.176 0.812 1.914-0.05 0.286-0.078 0.596-0.162 0.888zm-41.787-6.367c0.017-0.466-0.183-0.538-0.575-0.522-0.349 0.014-0.61-0.016-0.606 0.492 0.024 2.664 0.022 5.328 1e-3 7.992-4e-3 0.456 0.201 0.502 0.556 0.484 0.324-0.016 0.642 0.068 0.624-0.468-0.037-1.072-0.016-2.146-8e-3 -3.219 6e-3 -0.782 0.702-1.406 1.563-1.42 0.718-0.011 1.053 0.394 1.061 1.317 0.01 1.11 0.018 2.22 0 3.33-6e-3 0.36 0.111 0.499 0.47 0.466 0.293-0.028 0.626 0.085 0.618-0.428-0.022-1.331 5e-3 -2.663-0.016-3.994-0.012-0.768-0.499-1.346-1.237-1.574-0.879-0.272-1.641 0.029-2.462 0.542 1e-3 -1.063-0.023-2.03 0.011-2.997zm16.892 8.068c0.034 0.035 0.082 0.065 0.099 0.107 0.173 0.438 0.55 0.271 0.837 0.234 0.089-0.011 0.191-0.345 0.194-0.533 0.018-1.143 0.018-2.288 6e-3 -3.431-0.011-1.043-0.567-1.797-1.588-1.962-0.656-0.106-1.354-0.068-2.018 0.022-0.713 0.097-0.799 0.339-0.558 1.116 0.174-0.038 0.35-0.085 0.53-0.114 0.385-0.062 0.774-0.176 1.157-0.158 0.947 0.045 1.385 0.569 1.272 1.485-0.246-0.023-0.497-0.066-0.747-0.065-0.474 2e-3 -0.96-0.035-1.417 0.059-1.011 0.21-1.511 1.046-1.378 2.181 0.104 0.89 0.804 1.555 1.753 1.522 0.628-0.022 1.25-0.217 1.874-0.334-5e-3 -0.042-0.01-0.086-0.015-0.13zm-0.813-0.619c-0.475 0.211-1.018 0.285-1.369-0.144-0.198-0.242-0.239-0.695-0.187-1.028 0.03-0.194 0.365-0.434 0.597-0.481 0.388-0.08 0.803-0.021 1.207-0.022 0.438-2e-3 0.627 0.206 0.534 0.638 0.118 0.634-0.343 0.842-0.782 1.037zm36.255 0.1c-1.236 0.22-2.229-0.259-2.517-1.208-0.167-0.552-0.122-0.621 0.464-0.624 0.973-6e-3 1.946-0.017 2.918 4e-3 0.407 9e-3 0.577-0.14 0.505-0.538-0.088-0.483-0.148-0.977-0.293-1.444-0.206-0.664-0.687-1.081-1.356-1.278-1.28-0.379-2.576 0.231-3.134 1.456-0.318 0.695-0.316 1.423-0.276 2.157 0.069 1.258 0.867 2.21 2.114 2.396 0.629 0.094 1.293 0.065 1.927-0.014 0.798-0.099 0.847-0.232 0.678-1.122-0.366 0.078-0.697 0.157-1.03 0.216zm-1.06-4.218c0.67 0.035 1.134 0.518 1.225 1.386h-2.649c-7e-3 -0.795 0.894-1.414 1.424-1.386zm-17.387-0.984c-1.775-6e-3 -3.11 1.323-3.107 3.098 2e-3 1.745 1.338 3.1 3.06 3.105 1.774 5e-3 3.088-1.314 3.094-3.106 5e-3 -1.76-1.304-3.09-3.046-3.096zm-0.029 0.971c1.157 3e-3 2.181 1.026 2.159 2.155-0.022 1.112-1.048 2.105-2.17 2.098-1.136-7e-3 -2.094-0.988-2.09-2.14 4e-3 -1.178 0.938-2.117 2.101-2.114zm-26.168-0.772c-0.43 0.09-0.243 0.471-0.246 0.722-0.018 1.57-1e-3 3.14-0.015 4.71-3e-3 0.348 0.095 0.506 0.463 0.475 0.314-0.026 0.659 0.084 0.656-0.45-6e-3 -1.037 0.091-2.078 0.031-3.11-0.042-0.718 0.313-1.066 0.856-1.345 1.014-0.522 1.782-0.063 1.791 1.072 8e-3 1.126 0.015 2.253-5e-3 3.379-6e-3 0.377 0.147 0.478 0.486 0.451 0.294-0.024 0.636 0.087 0.628-0.42-0.021-1.311 0.015-2.623-0.034-3.933-0.042-1.101-0.771-1.794-1.869-1.718-0.638 0.045-1.26 0.316-1.957 0.504-0.054-0.402-0.423-0.415-0.786-0.339zm39.958-2.569c-2e-3 -0.16-0.068-0.413-0.178-0.462-0.561-0.253-0.97 0.023-0.971 0.633-5e-3 2.61 9e-3 5.221-0.012 7.83-4e-3 0.469 0.234 0.478 0.574 0.474 0.346-3e-3 0.62 0.02 0.606-0.491-0.034-1.33-0.012-2.661-0.012-3.992 1e-3 -1.33 6e-3 -2.661-7e-3 -3.991zm-1.931-15.394c0.591 0.024 0.494-0.352 0.506-0.706s0.014-0.616-0.488-0.608c-1.742 0.027-3.484 0.027-5.226 0-0.53-8e-3 -0.522 0.282-0.516 0.649 6e-3 0.348-0.052 0.687 0.498 0.666 0.87-0.034 1.742-9e-3 2.613-9e-3s1.743-0.026 2.613 9e-3zm-0.513 18.414c0.018-0.471-0.243-0.48-0.578-0.474-0.318 6e-3 -0.603-0.029-0.598 0.458 0.022 1.669 0.027 3.338-2e-3 5.006-0.01 0.541 0.318 0.44 0.631 0.463 0.365 0.027 0.568-0.044 0.548-0.491-0.036-0.817-0.01-1.637-0.01-2.455 0-0.836-0.023-1.673 0.01-2.507zm-39.049 0.035c0.017-0.432-0.174-0.516-0.546-0.513-0.359 2e-3 -0.577 0.062-0.572 0.5 0.017 1.654 0.019 3.309-1e-3 4.963-6e-3 0.464 0.245 0.471 0.583 0.471 0.328 0 0.55-0.026 0.535-0.458-0.03-0.834-9e-3 -1.671-9e-3 -2.507-1e-3 -0.819-0.022-1.638 9e-3 -2.456zm38.528-2.921c-0.282 6e-3 -0.694-0.112-0.637 0.399 0.102 0.903 0 0.833 0.577 0.873 0.49 0.034 0.618-0.138 0.572-0.55-0.079-0.718 2e-3 -0.731-0.512-0.722zm-39.071-0.025c-0.521 2e-3 -0.586 0.22-0.578 0.643 7e-3 0.397 0.01 0.67 0.558 0.665 0.518-5e-3 0.552-0.198 0.542-0.638-0.01-0.414 0.029-0.671-0.522-0.67zm11.13-11.5c0.023-0.346-0.103-0.498-0.47-0.478-0.442 0.026-0.888 6e-3 -1.332 6e-3 -1.43 0-1.408 0-1.426-1.415-6e-3 -0.495 0.186-0.615 0.63-0.604 0.819 0.022 1.64-0.011 2.459 0.013 0.414 0.012 0.446-0.219 0.417-0.518-0.028-0.289 0.151-0.695-0.404-0.694-2.511 5e-3 -5.022 5e-3 -7.534-1e-3 -0.602-2e-3 -0.365 0.442-0.41 0.734-0.053 0.344 0.078 0.497 0.45 0.479 0.546-0.026 1.093-6e-3 1.639-6e-3 1.539 0 1.531 0 1.459 1.549-0.016 0.346-0.129 0.48-0.486 0.47-0.786-0.021-1.572-0.018-2.357 0-0.607 0.014-0.354 0.498-0.402 0.808-0.049 0.314 0.066 0.467 0.419 0.458 0.786-0.02 1.572 5e-3 2.357-0.01 0.327-6e-3 0.469 0.113 0.465 0.442-8e-3 0.751-0.012 1.503 2e-3 2.254 7e-3 0.367-0.162 0.462-0.5 0.454-0.819-0.018-1.64-6e-3 -2.46-6e-3 -0.828 0-0.815 0-0.8 0.847 6e-3 0.307 0.1 0.422 0.413 0.422 2.665-7e-3 5.33 3e-3 7.994-8e-3 0.626-2e-3 0.361-0.538 0.437-0.849 0.086-0.352-0.136-0.422-0.446-0.417-0.939 0.014-1.879-0.014-2.818 0.014-0.415 0.012-0.534-0.137-0.52-0.531 0.025-0.699 0.027-1.402-1e-3 -2.101-0.017-0.413 0.14-0.534 0.535-0.524 0.885 0.022 1.77 7e-3 2.685 7e-3 2e-3 -0.321-0.011-0.559 5e-3 -0.795zm-0.011 2.833c-0.59-0.655-1.138-1.265-1.706-1.897-0.371 0.3-0.666 0.538-0.984 0.795 0.562 0.679 1.068 1.292 1.602 1.938 0.369-0.284 0.7-0.538 1.088-0.837z"/></svg>
