<svg xmlns="http://www.w3.org/2000/svg" xmlns:xlink="http://www.w3.org/1999/xlink" viewBox="0 0 2311 844"><defs><path d="M352 43l-2-2-3-2-6-3-4-2-1-11V11l7-4 10-6 2-1v22l-1 21h-2z" id="b"/><path d="M357 69c0-1 2-3 6-4l5-3V18l13-7c10-6 14-7 14-6 0 2-2 3-6 5l-3 2-2 1-4 2-5 3-4 2v43l-4 2-7 5c-3 1-3 1-3-1z" id="d"/><path id="e" d="M934 309h4c2-1 1-1-2-1l-2 1z"/><path id="f" d="M909 316l2 1-2-2v1z"/><linearGradient x1="50%" y1="0%" x2="50%" y2="100%" id="a"><stop stop-color="#d79669" offset="0%"/><stop stop-color="#ae5d38" offset="100%"/></linearGradient><linearGradient x1="-4.6%" y1="45.3%" x2="100%" y2="45.3%" id="c"><stop stop-color="#eacc6c" offset="0%"/><stop stop-color="#ae5d38" offset="100%"/></linearGradient></defs><g fill="none"><g transform="matrix(1 0 0 -1 0 43)"><use fill="url(#a)" xlink:href="#b"/><use fill="url(#c)" xlink:href="#b"/></g><g transform="matrix(1 0 0 -1 0 75)"><use fill="url(#a)" xlink:href="#d"/><use fill="url(#c)" xlink:href="#d"/></g><path d="M319 842l-7-5-5-2v-10l1-10 31-18v-31l-1-30h-3l-6-1-7-1-12-2h-6-2l-6-2-6-1-5-1-4-1-11-2-2-1h-2l-2-1h-2-1l-4-2-5-1a32 32 0 00-6-2 14 14 0 01-4-1l-1-1h-2l-1-1h-2l-2-1h-1l-3-2-5-1-3-1-4-2-4-1-2-1h-1l-1-1h-1l-6-3-1-1h-1l-12-6a93 93 0 00-13-6l-6-4-6-4h-1l-1-1-1-1h-2l-13-10-4-2-3-3-2-1a226 226 0 01-4-3l-5-4c-18-14-38-33-54-55l-5-5-20-30a262 262 0 01-29-65 90 90 0 01-7-22 363 363 0 018-222l1-2v-1c-1-1 0-2 1-2l1-2 1-2v-2l1-3 1-2 1-3 1-2 2-1c1 0 1 0 0 0v-4l2-3 1-1v-1l1-1c-1-1 6-15 7-15h1c-1-2 4-11 5-11l1-1c-1-1 4-9 5-9v-1c-1-1 1-2 2-3l2-2 2-3 2-3 6-9h1c-1-1 2-4 4-8A339 339 0 01233 45l13-4 2-1 1-1h3l16-4c37-9 69-12 98-11a426 426 0 01177 51l38 26c44 36 79 82 101 134a379 379 0 01-46 368v-2c-1 0-2 3-1 4l-1 1-7 6c-5 6-6 8-4 7h1l-2 1-13 12a268 268 0 01-37 33v1l-3 1-3 1-1 1-2 1-1 2c1 1 0 1-1 1-1-1-2 0-3 1l-1 1-4 3-5 2-1 2h-1-1l-1 1-2 1-1 1h-1l-1 1-3 2-2 1h-1l-5 3-4 3h-1-1l-2 1-3 2-11 5h-1c0 1-5 3-6 2l-1 1-2 2-3 1-2 1-3 1-3 1-2 1h-1l-2 1h-1-2l-9 4-3 1-5 1-5 2h-2l-2 1h-1-1l-5 2-4 1h-4l-2 1h-2l-2 1a34 34 0 00-10 2l-5 1-26 4h-5v-10l1-10 16-2a345 345 0 00182-87h1a214 214 0 0056-67c1-2 6-9 5-10l1-1 2-3 2-4a182 182 0 0016-34l1-2 1-3h1v-2l1-3 2-4 1-4 1-5 1-3 1-2 1-2v-1l1-2v-2-2l1-2 1-6 1-2 1-1 3-16 3-25 2-11c1-13 0-53-1-67l-1-9-2-8-1-9-1-3-1-4-1-5v-3l-1-1-1-2v-4c1-1 0-1-1-2l-1-2v-3l-1-5-2-4-1-2a5 5 0 000-1v-2l-1-1-1-3-1-3-1-2a121 121 0 00-8-20 208 208 0 00-15-28 357 357 0 00-103-112l-10-8-1 44 1 46 1 2h1s1 2 3 2l2 1 1 19 1 12h1l2 2c2 0 3 1 3 2l1 15v15l-4 2-4 2-1-14-1-14-11 6-11 7-13 7c-7 5-12 7-13 7l-1 1-1 1h-1c0 1-3 3-5 3l-3 2-3 1-1 1-6 4h-1l-6 4-6 3c-1 2-8 5-8 5h-1l-1 1-2 1-6 4-14 8-4 2-2 2h-2l-6 4-7 4-3 1-1 1-1 1h-1l-3 2-2 2h-1-1l-2 2c-2 0-3 1-3 2h-2l-1 1-2 1-1 1h-1l-1 1h-1l-1 1-2 1-3 2-4 3h-2l-2 2-3 1c0 1-1 2-3 2l-3 2v201l152-87v-4l1-18 2-19 2-39c4-60 4-59 4 10 0 61 0 65 2 66a41 41 0 014 2l3 2v29l8 4v16c0 14 0 15-2 16l-2 1h-1l-2 2c-2 0-2 0-2-14l-1-14h-1l-1 1-2 1-1 1h-1l-1 1-4 2-4 2-1 1-1 1h-1l-2 2-3 1-1 1c-1-1-1 0-1 1v1l-4 1-2 1h-1l-5 4-9 5-4 1-1 2-4 1-1 1c0 1-1 2-3 2l-9 6h-2c0 1-1 2-3 2l-2 2h-2l-2 2c-2 0-3 1-3 2h-2l-2 1-1 2h-2l-1 1h-1l-5 4-5 3h-1l-2 1-3 1-1 1-1 1s-2 0-3 2l-2 1-2 1-3 1-1 2h-2l-2 2c-2 0-3 1-3 2h-2l-2 2c-2 0-3 1-3 2h-2l-1 1-3 2-3 2-5 3h-1l-3 2-2 1-2 1-3 1-1 2h-1l-3 1-2 2c-2-2-2 7-2 41l1 37 37-21 38-22 2-14 4-23c2-19 3-18 3 7v25l3 2 4 3 1 16c0 13 0 14-2 15l-2 2h-2l-1 1c-2 0-2-2-2-14 0-8 0-15-1-14l-3 2-2 2h-2s-1 2-3 2l-2 1-1 1h-1l-2 2-3 1-1 1h-1l-1 1-2 1-1 1h-1l-1 1-3 1-2 2h-1l-2 2c-2 0-3 1-3 2h-2l-2 1-1 1-1 1h-1l-2 2-3 1-1 1h-1c0 1-1 2-3 2l-2 1-1 1h-1l-2 2-3 1-3 2-4 2-2 2-4 2-4 2c-1 1-2 3-2 67v65l-12 6a204 204 0 00-17 10c-2 2-2 2-3 11l-1 9-3-1zm20-141c0-14 0-14-2-15l-4-3a590 590 0 00-41-24 166 166 0 01-20-11l-4-2-3-2-2-1-1-11c0-8 1-12 2-9l1 1h1l1 1 18 10 40 23 30 17v-5c0-3 0-5-1-4a108 108 0 01-21-13l-18-9-6-4-3-1-9-6c-2 0-3-1-3-2l-1-1-9-4-8-5h-1l-2-2c-2-1-3-1-3-26v-24l-6-4-6-4h-2l-2-2-6-4-7-3-2-2h-1l-2-2-3-1-2-1-3-2-1-1h-1l-2-1-3-2-1-1h-2s-1-2-3-2l-7-4-6-4-4-2-3-2h-1l-6-4-1-1-1-1-3-1-2-1-1-1-1-1c-2 0-2-2-2-15l1-15 2 1 1 1 1 1h1l1 1h1s1 2 3 2l2 2h2l2 2 3 1 1 1h1l1 1 2 2h1l2 1 3 2h1l1 1h1l2 2c2 0 3 1 3 2h1l3 1 2 2 2 1 3 1 1 1 1 1h1s1 2 3 2l2 2h2l2 2 3 1 1 1h1l3 2 2 1 1 1 3 2 2 1 2 1 3 1 1 1 1 1 6 4h2l1 1 4 2 4 2 1 1 1 1h1l1 1 3 2 2 1h1l6 4 6 4h1l3 2 2 1 15 8 16 10a155 155 0 0116 9v-8l-10-7-11-6a408 408 0 00-20-11l-13-9h-1-1l-3-3-5-2-3-2-1-1h-1c-1 1-2-1-5-3l-5-3-1-1h-1l-6-4h-1l-2-1-4-2c-2 0-2-1-2-2l-1-1-16-9h-1l-1-1-1-1-6-3-4-2h-1l-1-2-3-1-2-1h-1l-3-3-6-3-2-1-1-1h-1l-3-2-2-1h-1l-3-3-5-2-3-2-1-1h-1l-2-1-1-16v-15l3 2 3 2h1l1 1 2 1 3 2h1s1 2 3 2l2 2h2l2 2 3 1 4 3 3 2h1l7 4 3 1 1 1 1 1h1l2 2c2 0 3 1 3 2h2l1 1 2 1 1 1h1s1 2 3 2l2 2h2l2 2c2 0 3 1 3 2h2s1 2 3 2l2 2h2l2 2 3 1 4 2 3 2 2 2c2 0 3 1 3 2h2l2 2c2 0 3 1 3 2h2l2 1 1 1 1 1h1l1 1h1l1 1 2 1 1 1h1l3 2 2 1 1 1 2 1 2 1a262 262 0 0129 17c0-1 10 5 11 7 1 1 1 1 1-4l1-5-12-6a161 161 0 01-16-10s-7-3-8-5l-7-3-8-5-4-2-2-1-6-4a53 53 0 01-10-6l-13-8h-2l-4-2c-2 0-3-2-3-3l-1-1-3-1-7-4-3-2-4-2-3-2-3-1-3-2-3-2-1-1-1-1-3-1-2-1-2-1-2-2-5-2-3-2h-1l-7-4-1-88-1-87-3-1-2-2h-1l-3-2-2-1-1-1h-1l-2-2-3-1-1-1h-1l-3-2-2-1-2-2-3-1-1-1h-1c-1 1-1-1-2-2l-3-1-1-1h-1c-2 1-2-3-2-17v-14l2 2 3 1h1c0 1 9 7 11 6l1 1c1 2 13 8 13 8h1c1 2 11 7 11 7h1l6 4h1c0 1 3 3 5 3l3 2 3 1 1 1 6 4h1l6 4h1l6 4 2 1 3 1 1 1 3 3 4 1 6 4h1c0 1 3 3 5 3l3 2 3 1 1 2h1l2 1 3 2h1c0 1 3 3 6 3l2 2 3 1 1 1 3 3 4 2h2s1 2 3 2l2 2h2l2 2 4 2 3 1 1 1 1 1h1l2 2c2 0 3 1 3 2h1l2 1 3 2h1l6 4 2 1 3 1 1 1 1 1h1s1 2 3 2l2 2h1l1-5c0-3 0-4-4-6l-4-3h-1a131 131 0 01-21-13c-2 1-11-5-11-6h-1a84 84 0 01-19-11l-3-1-3-2-2-2-4-2-3-2-1-1-4-1-1-2-13-7-20-11-8-5-2-1-1-1h-2l-5-4-5-3h-1c-1 1-1-1-2-2l-3-1-1-1h-2s-1-2-3-2l-2-2h-1l-3-2-2-1h-1l-2-2-1-1h-1l-1-1h-1l-1-1-3-1-2-2h-1l-1-1-2-1-1-1h-1l-1-1-1-1-2-1h-1l-1-1h-1l-2-1-1-16v-14a748 748 0 0049 28h1l3 2 4 2 3 2 3 2h1l12 8 3 2 3 1h1l6 4h1l5 3 2 2 4 1 1 1 6 4h1l6 4h1c0 1 5 4 6 3l1 2 4 1 1 1 1 1h1l11 7h1c0 1 3 3 5 3l3 2 3 2h1l8 4 2 2 3 2h1l2 2c2 0 3 1 3 2h2l2 2c2 0 3 1 3 2h1l2 1c3 3 4 2 4-3 0-4 0-4-10-9l-10-7h-1-1l-7-5-9-5-2-1a283 283 0 01-38-22l-1-1h-1l-7-4-2-2c-1 1-10-5-13-7l-2-1h-1s0-2-1-1l-6-4h-1l-2-1-1-1-1-1h-1c-1 1-2-1-3-2l-2-1-1-1h-1l-1-1-2-1-1-1h-1l-1-1h-1l-1-1-1-1-2-1h-1l-3-2-2-1-1-1h-2c0-1-1-2-3-2l-2-2h-1l-3-2-2-1-2-2-3-1-1-1h-1l-2-1-3-2c-1 0-2-12-2-52l-1-50-2 1-1 1-1 1-2 1-2 1-1 1-1 1-2 1-1 1-2 1-2 1-1 1-1 1-2 2-2 1-2 1-2 1-2 2-2 1-2 2-2 2-3 2-12 10-35 36-6 7a233 233 0 00-14 17 475 475 0 00-44 85l-1 3v2l-1 1-1 2c1 2-2 12-3 12l-1 1c1 1 0 7-2 10v3l-1 2-1 4-2 15a341 341 0 0057 247l10 13 5 6 4 5 7 8 26 27 9 7a82 82 0 009 7l3 3 2 1 2 1 2 2 2 1 1 1 1 1 2 1 3 2 5 3 3 2a1 1 0 011 1l1 1 3 1 4 3 2 1 1 1a74 74 0 0116 8 370 370 0 0135 15l8 3 2 1 13 4a396 396 0 0072 12h6v-14zm66-153l63-36 47-27v-14c0-14 0-15-4-12l-2 1h-1l-1 1-3 2-7 4-2 1-3 1-1 2h-2l-3 2-2 2h-1c-1-1-1 0-1 1l-2 1-4 2-3 1-1 1-4 2-3 2-3 3-4 2-3 1-4 2-2 2-3 1-1 1h-1l-1 1-3 2-2 1h-1l-1 1-4 2-4 2-1 1-8 5h-1l-3 2-2 1-1 1h-1l-2 2-3 1-4 2c-2 0-3 2-3 2l-3 2-2 1-1 1h-1l-1 1-3 1-2 2h-1l-1 1-4 2-1 2c-1-1-6 2-6 2l-3 2-2 1-1 1h-1l-2 2-3 1-1 1h-1l-2 2c-2 0-2 1-2 15v14l18-10 32-19zm-128-88c-2-1-3-1-2 1l2 1v-2zm-4-2l-2-1 2 2v-1zm-6-8l-6-12c-8-20-10-41-8-88 1-33 1-44-1-43l-3-2-2-1-1-1c-1-1-1 18-1 57l1 58 3 8 7 14c5 7 14 17 15 16l-4-6zM2 362c-1-1-1 0-1 1l1 1v-2zm375-48h1a151 151 0 0126-15l1-2 3-1 2-1 2-1 9-6 16-9a445 445 0 0147-27l7-4 23-13 19-11v-15c0-7 0-14-1-13l-42 23-1 1-8 4-2 2-3 1-1 1-1 1h-1a150 150 0 01-24 14l-6 4-7 4-3 1-2 2-9 5-2 1-6 4-3 2h-2l-1 1-5 3-5 3h-1l-2 2-3 1a63 63 0 01-14 8l-6 4-6 4h-2l-1 1-4 2c-1 2-3 2-3 2l-1 15v14l11-6 11-6zm-13-32l5-2 1-1 3-2 10-6 7-4 5-3 4-2 2-1 2-1 5-3 8-5 7-4c2 0 3-1 3-2l1-1 4-1 8-5 7-5 7-3 18-11 15-9 6-3a646 646 0 0132-19l2-39 1-48 1-11-4-2-32-17-1 25c0 36-2 51-11 67-4 8-17 21-21 21l-1 2h-2l-4 3-3 1 3-2c15-12 23-24 27-42 2-9 2-11 2-44l1-35-7-2-7-4h-1l-3-1-3-1-2-1h-2-1l-1-1-9-3h-1l-20-5c-3-2-3 4-2 30 1 39 1 81-1 89-5 28-13 43-27 54l-4 2h-1c-1 1-7 5-8 4l4-3c13-8 22-25 27-53 2-8 2-53 1-100V49l-3-1-3-1-12-1-26-2-15-1v245l2-2 7-4zm-40-55l-1-1h-1l1 1h1zm-6-5c-8-7-16-20-20-32l-2-7V49h-4l-3 1a1818 1818 0 00-1 118c3 18 9 34 16 44l11 10 3 2 3 2-3-4zm-60-34v-1l-1 1v1a1 1 0 001-1zm-2 0l-3-3c-7-4-18-21-23-33-2-7-2-8-2-46V67l-3 2-3 1-2 1-1 25c0 33 2 46 8 60 5 14 12 22 23 30l6 2zm92-163h-1 1z" fill="url(#c)" transform="matrix(1 0 0 -1 0 867)"/><g fill="#000"><path d="M326 28c-2 2 1 5 9 10l15 8 5 3v-3l-1-2h-1l-1-1-3-2-2-1-6-3-1-1-3-1-2-2-8-4-1-1zm42 93c0 42 1 53 2 54l1-52c0-46 0-53-2-54-1-1-1 5-1 52zm6-49l-1 10 1 8 4 3 3 2 4-2 4-1 1-1 3-3c3-1 4-3 3-4l-1-1-3-1-2-1-1-1-3-2-4-2-1-1-3-2h-2l-1-1h-1zm561 202l2 1-2-1c-1-1-1-1 0 0zm-4 1h2l-2-1v1zm10 0h5c2-1 0-1-3-1l-2 1zm-30 3c-10 2-20 6-28 10-5 3-8 4-5 1l1-1-3 3-7 7a97 97 0 00-32 49c-2 7-3 11-3 25 1 14 1 18 3 25 4 18 16 36 29 47l7 7 1 2 1-1c-1-2-1-1 7 3a105 105 0 0075 11l12-2 2-1 20-9v-1c0-2 1-1 3 0h1v-1-2l7-7 6-6-22-22-5 4c-6 6-10 8-11 7l-1 1-4 3c-9 5-18 6-29 6s-22-2-22-3h-1c-2 0-2 0-1-1l-1-1c-1 1-7-1-6-2h-2l-1-1h-1l-1-1-1-1c-2 0-3 0-10-7-5-5-8-9-7-11h-2v-2c-1 1-5-7-5-9v-1c-1 1-2-4-1-5l-1-1c-1 1-3-10-3-18l2-15v-2c0-3 5-16 7-15l1-1c-1-1 0-4 2-4l1-1c0-3 0-3 2-2l2 1-1-1v-1h1l1-1 1-2h-2l-3 2 12-11v2c0 1 0 2 1 1l1-2c-1-2 3-4 4-3l1-1v-1h1l1-1h2c-1-1 5-3 8-3 1 1 1 1 0 0s0-1 4-2c9-2 20-2 28-1 9 2 21 6 20 8l2 1 2 1 1 2 1-1c-2-3 2-1 7 4 5 6 8 8 7 6 0-1 2-4 5-6l10-10c6-5 7-7 6-8l-9-7-8-6-1-1h1l1-1h-2l-10-4-17-7-6-2-18-1c-16 0-21 0-28 2zm84 172l-1 1h-1a1 1 0 011-1h1zm67-173h4c1-1 0-1-2-1l-2 1zm8 0h2l-2-1v1zm508 0c-18 4-32 11-42 23a51 51 0 00-6 56l1 2v1l6 5c11 11 20 15 53 23 36 9 44 14 45 26 1 9-3 16-13 20-8 4-14 5-28 5-20 0-42-6-58-17l-4-3-5 13-6 14c0 1 12 9 17 11 35 16 80 16 106 1 18-11 28-32 25-52-3-19-14-31-36-39l-29-9c-24-5-30-8-36-12-10-6-11-18-3-29 5-6 17-10 34-10s30 3 45 11l7 3 1-3 6-13 3-12a115 115 0 00-59-16l-24 1zm-537 95v94h35v-80h96v80h35V278h-35v77h-96v-77h-35zm216 0v94h35v-55h49l2 3a115 115 0 0115 23l4 5 3 5-1 1h2c1 0 12 15 12 17l19 1 19-1-21-31-21-30 8-4c24-13 36-40 31-68-5-25-23-43-52-51-10-2-10-2-57-3h-47v94zm91-62c13 3 22 9 27 19 2 6 2 8 2 16 0 15-5 25-16 30-10 5-15 6-43 7h-26v-73h25l31 1zm104-31l-1 94v93h18l17-1V278h-17l-17 1zm226 0l-1 15v15h62v157h17l17-1V309h62v-31h-78l-79 1zm184 0l-1 94v93h35V278h-17l-17 1zm142 0l-29 64-42 92-12 30 17 1h17l10-21 9-22h93l19 42 18 1 18-1-34-77-38-84-12-26h-17l-17 1zm34 75l17 41h-35l-34-1 17-40 18-40 17 40zm108 18v94h17l17-1V339l2 3 13 15 87 108h29V279h-34v126l-4-5-14-17-31-39-29-35-16-20-8-10h-29v93zm-1107-34l1 27v-53c0-15-1-3-1 26zm-39-42v1l1-1h-1z"/><use xlink:href="#e"/><use xlink:href="#f"/><path d="M993 323v2l1 1 1-4-2 1z"/><use xlink:href="#f" x="67" y="9"/><path d="M889 332c-1 1-1 1 0 0l2-2-2 2zm-15 20h1v-2l-1 2zm252 36h4c1-1 0-1-2-1l-2 1zm-87 27l1 8a238 238 0 000-16c0-5-1-1-1 8zm-615-14l4 3c9 5 18 17 22 31 6 17 6 20 6 75v50l4 3 4 1 1-50c0-54 0-58-6-75-3-11-15-29-19-29l-2-1c-1-2-12-8-12-7l-1-1h-1zm565 15l1 2h3v-1h-3l-1-1zm11 9l1 2h1l1-1 1-1h-4zm6 7h1v-1l-1 1zm-82 3h4c1-1 0-1-2-1s-3 0-2 1zm11 1h4l-2-1c-2 0-3 0-2 1zm23 32h2l-2-1v1zm-11 2h2l-2-1v1zm-34 47a96 96 0 00-78 76v19c0 14 0 18 2 25 8 30 32 55 61 65 23 8 51 8 72 0 13-4 27-13 35-22l3-3-11-11-11-11-6 5a67 67 0 01-57 16c-10-2-17-5-16-6l-1-1c-2 2-11-4-18-11a60 60 0 01-18-42 64 64 0 0127-58c15-8 24-10 39-10 11 0 14 0 20 2 10 3 19 8 25 14l5 5 22-22-4-4-13-11c-1 0-3-3-2-4h-1l-6-2c-8-4-18-7-28-9h-41z"/><use xlink:href="#e" x="264" y="208"/><path d="M1041 612v93l35 1v-80h96v80h35V518h-35v77h-96v-77h-35zm270-88l-5 13-35 77-9 18-1 1c1 1-10 27-23 54l-5 12-3 4v1c0 2 3 2 18 2h19l9-21 9-22h93l7 18 10 21 1 4h18l18-1c1-1 0-3-1-5l-3-6-3-8-19-42-4-9-4-9-24-52a181 181 0 00-6-13l-5-12-14-31h-35l-3 6zm38 72l17 38-17 1h-34l-18-1 33-75c1-4 2-4 2-2l17 39zm107 16v94l35-1v-62l1-62 41 50 51 62 10 13h28V518h-35v125l-102-125h-29v94zm216 0v94h34V581l1-1 49 60 51 63c2 2 3 2 16 2h14V518h-34l-1 126-101-126h-29v94zm215-1c0 89 0 94 2 94h138v-29h-105v-51h45l45-1v-28h-90v-48l102-1v-29h-137v93zm179 0v94h132v-30h-97l-1-157h-34zM993 564l1 1v-1-1l-1 1z"/></g></g></svg>