<svg viewBox="0 0 1102 568" xmlns="http://www.w3.org/2000/svg" xmlns:cc="http://creativecommons.org/ns#" xmlns:dc="http://purl.org/dc/elements/1.1/" xmlns:rdf="http://www.w3.org/1999/02/22-rdf-syntax-ns#">
 <path d="m604 568c-2.51-0.628-8.52-3.15-10.5-4.41-0.825-0.525-2.4-1.35-3.5-1.84-1.1-0.489-4.76-3.66-8.13-7.04-19.3-19.4-19.1-49.4 0.468-68.8 3.49-3.45 6.98-6.28 7.75-6.28s1.41-0.366 1.41-0.813c0-0.447 2.36-1.9 5.25-3.24 4.82-2.23 6.49-2.43 20.2-2.44 14-0.01 15.3 0.155 20 2.49 2.75 1.37 5.22 2.77 5.5 3.1s1.54 1.15 2.8 1.81c2.18 1.15 4.17-0.655 38.3-34.7l36-35.9-5.58-5.88c-9.94-10.5-21.5-30-21.5-36.3 0-1.08-0.411-2.23-0.913-2.54-0.502-0.31-1.19-2.47-1.53-4.81s-1.15-6.83-1.79-9.99l-1.17-5.75h-686v-7h686l0.573-6.25c1.72-18.7 5.8-31 15.1-45.2 11-17 31.5-33.6 47.1-38.4 2.2-0.673 4.9-1.61 6-2.08 1.1-0.469 3.24-1.12 4.75-1.45l2.75-0.597v-118l-3.25-0.517c-11.4-1.82-19.8-5.97-27.7-13.7-5.69-5.6-10.6-13.1-11.7-17.9-0.338-1.42-1.11-3.21-1.73-3.98-1.79-2.26-1.36-21.8 0.598-27.1 3.39-9.21 6.23-13.7 12.7-20 6.01-5.86 8.52-7.5 18.5-12.1 2-0.932 7.15-1.36 16.5-1.36 13.5 0 13.6 0.0242 20.6 3.47 9.11 4.51 20.1 15.3 23.9 23.4 3.55 7.58 4.94 16.2 4.16 26-0.848 10.7-5.73 20.8-14.1 29.2-6.04 6.07-16.9 12.4-21.2 12.4-1.16 0-2.39 0.45-2.73 1s-2.17 1-4.06 1h-3.44v116l15.2 0.409c15 0.403 27.3 1.99 29.2 3.78 0.522 0.502 1.59 0.912 2.37 0.912 3.89 0 19.4 8.32 28.3 15.2l3.64 2.81 4.52-5.25c2.49-2.89 9.4-10.9 15.4-17.8 5.96-6.89 13.1-15.2 15.8-18.4 2.75-3.23 5.45-6.37 6-6.99 0.55-0.617 3.89-4.49 7.43-8.6 3.53-4.11 6.91-7.93 7.5-8.48s3.31-3.7 6.05-7c2.74-3.3 5.21-6.22 5.5-6.5 0.709-0.679 7.5-8.46 13.2-15.1 2.55-2.98 7.95-9.25 12-13.9 14.1-16.3 17.9-20.8 17.9-21.4 0-0.337-1.99-3.2-4.43-6.36-5.69-7.39-12.2-20.1-13.1-25.5-0.385-2.33-1.21-4.87-1.83-5.64-1.53-1.89-1.55-32.3-0.0173-34.2 0.612-0.767 1.44-3.2 1.83-5.4 0.622-3.45 1.77-6.59 4.93-13.5 3.6-7.88 13.5-19.8 23-27.7 6.17-5.13 22.4-13.3 26.4-13.3 1.01 0 2.39-0.562 3.08-1.25 1.68-1.68 40.2-1.79 42.2-0.115 0.772 0.624 2.89 1.45 4.7 1.84 3.09 0.66 17.1 7.17 18.2 8.45 0.275 0.321 2.38 1.86 4.67 3.41 3.74 2.54 13.2 11.9 17.5 17.3 9.47 12 15.1 29.6 15.1 47.3 0.032 29-14.6 54-41 69.9-5.9 3.55-10.8 5.52-19.7 7.91-7.29 1.96-32.4 2.21-40 0.406-10.1-2.43-24.3-8.97-29.3-13.5-1.01-0.914-2.34-1.66-2.95-1.66s-5.06 4.61-9.89 10.2c-4.82 5.64-9.99 11.6-11.5 13.2-1.49 1.65-4.43 5.07-6.54 7.6-5.21 6.28-21.6 25.3-22.3 25.9-0.327 0.275-3.23 3.63-6.45 7.46s-7.08 8.33-8.57 10c-4.76 5.34-18.3 20.9-23.5 27-6.75 7.95-13.7 15.9-14.4 16.5-0.324 0.275-2.55 2.89-4.95 5.81l-4.36 5.31 2.36 2.68c1.3 1.47 2.59 2.91 2.87 3.19 1.82 1.83 5.99 8.06 5.99 8.94 0 0.587 0.356 1.07 0.791 1.07 1.05 0 6.21 10.3 6.21 12.3 0 0.908 0.379 1.65 0.843 1.65 1.85 0 5.41 16.7 5.92 27.8l0.515 11.2h104l1.05-7.25c0.94-6.51 3.03-12.4 6.54-18.3 4.62-7.83 18.2-18.2 27-20.6 5.8-1.6 24.7-2.25 26-0.895 0.587 0.587 1.96 1.07 3.05 1.07 4.49 0 16 7.11 22.5 13.9 7.14 7.46 13.1 22.4 13.1 32.9 0 5.81-2.49 15.4-5.8 22.2-2.86 5.93-14.6 18.4-18.4 19.6-1.25 0.391-2.5 1.03-2.78 1.43s-3.31 1.68-6.75 2.87c-8.4 2.88-23.5 3-31.3 0.245-8.6-3.03-11.7-4.96-18.8-11.6-7.29-6.88-12.7-15.9-13.9-23.5l-0.748-4.5-105-0.518-0.625 4.76c-0.344 2.62-1.23 6.78-1.96 9.26-0.736 2.48-1.64 5.96-2.02 7.75s-1.09 3.25-1.6 3.25c-0.506 0-0.921 0.69-0.921 1.53 0 1.92-4.95 11.8-6.13 12.3-0.48 0.183-0.872 0.795-0.872 1.36 0 3.32-18.9 23.1-27.2 28.5-2.36 1.53-4.52 3.03-4.8 3.33-1.3 1.43-17.7 8.97-19.6 8.97-1.13 0-2.48 0.429-3 0.953-2.09 2.09-16.3 3.27-33.4 2.79-14.3-0.401-18.7-0.884-24-2.64-9.94-3.28-22-8.96-22-10.4 0-0.413-0.52-0.752-1.16-0.752-0.636 0-2.59-1.1-4.35-2.44l-3.19-2.44-36.2 36.1c-19.9 19.9-36.2 36.4-36.2 36.6 0 0.272 1.07 1.64 2.38 3.05 2.83 3.03 7.62 11.9 7.62 14.1 0 0.857 0.558 2.12 1.24 2.8 1.61 1.61 1.73 24.3 0.138 26.3-0.607 0.766-1.42 2.71-1.8 4.32-1.84 7.68-14 21-23.1 25.5-2.73 1.32-5.86 2.89-6.96 3.48-2.05 1.09-25.4 1.88-29 0.979zm20.6-10.4c2.94-0.558 7.32-1.97 9.73-3.13 5.68-2.75 14.3-11.3 16.6-16.4 0.977-2.2 2.31-5.08 2.96-6.4 0.65-1.32 1.18-6.27 1.18-11-2e-3 -6.82-0.489-9.72-2.36-14-8.14-18.8-26.1-27.6-46.2-22.8-5.07 1.23-16.9 7.93-16.9 9.57 0 0.374-1.24 2.04-2.75 3.71-6.85 7.55-9.58 19.5-7.27 31.8 0.683 3.62 1.59 6.59 2.02 6.59s1.05 1.08 1.38 2.4c0.876 3.49 11.4 14 16.5 16.6 7.23 3.6 16.2 4.67 25.2 2.97zm171-143c4.95-0.549 9.9-1.39 11-1.86 1.1-0.475 5.12-2.08 8.93-3.56 9.1-3.54 15.7-8.05 24-16.3 7.09-7.06 14.9-18 16.7-23.5 0.599-1.78 1.43-3.69 1.84-4.24 1.76-2.36 4.21-14.7 4.66-23.5 0.693-13.7-1.57-24.9-7.41-37-1.99-4.11-4-7.94-4.45-8.5-0.451-0.563-2.91-3.65-5.46-6.86-5.01-6.32-16.5-15.9-22.9-19.2-2.18-1.1-4.2-2.29-4.47-2.65s-2.52-1.19-5-1.85c-2.48-0.661-4.96-1.58-5.52-2.04-2.35-1.92-22.3-3.16-32.8-2.04-21.8 2.35-36.9 11.3-54.3 32.4-2.61 3.15-8.16 14.7-10.4 21.7-2.16 6.67-2.43 9.28-2.43 23.6 0 10.5 0.394 16.6 1.13 17.5 0.624 0.772 1.46 2.98 1.86 4.9 0.946 4.54 4.99 12.8 9.98 20.5 2.45 3.75 14.9 16.2 19.3 19.3 3.98 2.8 16.1 9.19 17.5 9.19 0.526 0 2.41 0.689 4.19 1.53 2.86 1.36 13.6 2.97 22.1 3.33 1.65 0.0686 7.05-0.324 12-0.873zm255-37.2c9.65-4.32 16.6-11.4 21.3-21.7 2.5-5.52 3.02-20 0.891-24.6-3.84-8.21-5.81-11.6-8.36-14.3-2.96-3.17-11.1-9.08-12.5-9.09-0.451-3e-3 -2.17-0.717-3.82-1.59-3.4-1.79-21.7-2.26-23.8-0.605-0.656 0.524-2.25 1.28-3.54 1.67-3.96 1.22-10.9 6.43-14.5 10.8-4.71 5.82-6.34 9.35-8.01 17.4-1.28 6.12-1.27 7.82 0.0783 14.4 2.37 11.5 10.2 21.8 20.8 27.1 8.06 4.07 23 4.33 31.5 0.562zm-20.5-234c4.91-0.563 9.41-1.4 10-1.85 0.585-0.457 2.41-1.15 4.06-1.55 10.2-2.44 27.6-18.2 33.7-30.6 5.74-11.6 6.79-16.3 6.79-30.4 0-6.88-0.389-12.7-0.865-13-0.476-0.294-1.11-2.06-1.42-3.93-1.24-7.62-7.77-18.6-15.9-26.7-4.48-4.48-16-12.9-17.7-12.9-0.374-0.0034-1.88-0.635-3.36-1.4-4.73-2.47-17.1-4.81-25.3-4.8-16 0.0244-31.3 5.79-42.6 16-5.93 5.37-13.9 15.1-13.9 17 0 0.528-0.338 1.11-0.75 1.29-2.74 1.22-7.55 20.1-7.57 29.8-0.0261 9.21 3.88 24.2 8.03 30.8 4.18 6.64 11.1 14.7 15.8 18.3 2.77 2.15 5.61 4.39 6.32 4.98 0.706 0.594 3.86 2.21 7 3.59 3.14 1.38 6.64 2.95 7.77 3.49 1.86 0.891 12.1 2.41 18.4 2.72 1.38 0.0678 6.52-0.337 11.4-0.9zm-252-30.1c20.7-8.48 29.6-23.8 26-44.7-0.662-3.93-1.56-7.14-2.01-7.14-0.441 0-1.08-1.12-1.43-2.49-0.902-3.59-11.3-13.8-16.7-16.4-10-4.79-24.6-4.87-34.3-0.192-7.01 3.39-16.3 13.1-18.1 19.1-0.42 1.36-1.26 3.1-1.87 3.86-0.632 0.787-1.12 5.5-1.13 11-0.0238 10.6 1.5 15.2 7.79 23.6 2.82 3.76 12.4 11.5 14.2 11.5 0.377 0 2.1 0.655 3.84 1.46 5.25 2.43 18.1 2.62 23.7 0.359zm-770 216c-1.81-2-1.92-4.52-2.17-50.8-0.254-47.1-0.199-48.7 1.74-51.9l2-3.25h36.9l2.1 2.67c1.94 2.47 2.08 3.73 1.82 16.8l-0.276 14.1-3.39 0.324c-1.86 0.178-4.45 0.0569-5.75-0.269-2.31-0.58-2.36-0.841-2.36-12.1v-11.5h-22v88h21.9l0.562-24.5 11.5-0.6v14.9c0 13.6-0.186 15.2-2.07 17.5l-2.07 2.63h-18.3c-17.3 0-18.4-0.112-20.2-2.1zm58.7-0.531c-2.03-2.58-2.07-3.58-2.07-51.1 0-47.4 0.0457-48.5 2.07-51.4l2.07-2.9h38.7l5.18 6.15v95.7l-5.18 6.15h-38.7zm33.9-51.4v-44h-25v88h25zm26 0v-54l20.2 0.0333c19 0.0312 20.4 0.16 22.8 2.11l2.5 2.08v47.5l-2.5 2.08c-1.82 1.51-3.94 2.09-7.75 2.11-2.89 0.0183-5.25 0.191-5.25 0.384 0 0.639 2.15 7.12 3.04 9.15 0.48 1.1 2.05 5.6 3.5 10 1.44 4.4 3.26 9.42 4.04 11.2s1.42 3.76 1.43 4.5c3e-3 0.742 0.662 2.61 1.46 4.14s1.75 4.35 2.11 6.26c0.358 1.91 1.06 3.72 1.55 4.03 2.12 1.31-0.662 2.42-6.07 2.42h-5.82l-1.19-4.74c-0.656-2.61-1.56-5.19-2-5.75-0.446-0.557-1.14-2.57-1.55-4.48-0.408-1.91-1.12-4.16-1.59-5-1.39-2.51-5.9-16.5-5.9-18.4 0-0.921-0.374-1.67-0.832-1.67-0.457 0-1.32-1.91-1.91-4.25-0.595-2.34-1.82-6.23-2.72-8.66-2.93-7.89-2.36-8.55 7.71-8.88l8.75-0.289v-35.9h-23v98h-11zm61 0.0523v-54.1h20c18.8 0 20.2 0.123 22.2 2.06 2.16 2.01 2.21 2.59 2.21 26.1v24l-2.36 1.91c-1.68 1.36-3.93 1.91-7.82 1.91-5.2 0-5.42 0.107-4.76 2.25 0.382 1.24 1.26 3.38 1.95 4.75 0.689 1.38 1.57 3.99 1.97 5.82s1.34 4.52 2.11 6 1.4 3.44 1.41 4.37c3e-3 0.93 0.411 1.94 0.906 2.25s1.46 2.87 2.13 5.7 1.85 6.32 2.59 7.75c0.748 1.43 1.36 3.12 1.37 3.74 3e-3 0.625 0.678 2.42 1.5 4 2.52 4.82 2.06 5.36-4.49 5.36-4.67 0-6-0.333-6-1.5 0-0.825-0.374-1.5-0.832-1.5-0.457 0-1.32-1.91-1.93-4.25-1.29-5-4.05-13.4-5.33-16.2-1.54-3.41-5.91-17.5-5.91-19 0-0.808-0.374-1.47-0.832-1.47-0.457 0-1.31-1.91-1.89-4.25-0.585-2.34-1.65-5.68-2.36-7.42-2.08-5.1-0.297-6.33 9.21-6.33h7.88v-36h-22l-0.26 48.8-0.26 48.8-10.5 0.605v-54.1zm103 51.7c-1.36-1.94-1.56-8.55-1.56-51.8 0-47 0.0982-49.7 1.87-51.8 1.78-2.06 2.68-2.15 19.9-2.15h18.1l2.07 2.63c1.88 2.39 2.07 3.98 2.07 17v14.4h-4.8c-2.64 0-5.34-0.54-6-1.2-0.785-0.785-1.2-4.93-1.2-12v-10.8h-21v88h20.9l0.562-24.5 11.5-0.6v15.4c0 20.9 1.32 19.7-22.8 19.7-17.6 0-18.2-0.0648-19.7-2.22zm60.6-0.0919c-2.17-2.31-2.17-2.37-2.17-51.8v-49.5l2.31-2.17c2.21-2.07 3.19-2.17 21-2.17 17.5 0 18.9 0.133 20.9 2.06l2.21 2.06v49.8c0 47.6-0.0853 49.9-1.9 51.9-1.81 2-2.86 2.1-21.1 2.1-18.7 0-19.2-0.0513-21.3-2.31zm32.8-51.7v-44h-24v88h24zm27 0v-54h4.5c3.79 0 4.5 0.307 4.5 1.94 0 1.07 0.415 2.2 0.923 2.51 0.508 0.314 1.23 1.95 1.59 3.63 0.369 1.68 1.3 4.26 2.07 5.74s1.42 3.36 1.44 4.18c0.0221 0.825 0.91 3.3 1.97 5.5s1.95 4.76 1.97 5.69c0.0187 0.93 0.422 1.93 0.897 2.22 0.475 0.293 1.46 2.68 2.19 5.31 0.733 2.63 1.92 5.9 2.63 7.28 0.714 1.38 1.3 3.01 1.31 3.64 3e-3 0.625 0.678 2.42 1.5 4s1.5 3.54 1.51 4.36c7e-3 0.825 0.642 2.71 1.41 4.18s1.7 4.06 2.07 5.74c1.94 8.84 2.52 1.8 2.52-30.9v-35.1h11v108l-9.42-0.61-1.54-5.19c-0.847-2.85-1.88-5.52-2.29-5.92s-0.753-1.44-0.756-2.31c-3e-3 -0.871-0.609-2.74-1.35-4.15-0.737-1.41-1.67-3.89-2.07-5.5s-1.32-4.28-2.04-5.93c-0.72-1.65-2.31-5.92-3.54-9.5-2.86-8.35-5.94-16.7-7.65-20.7-0.743-1.73-1.35-3.59-1.35-4.14s-0.672-2.27-1.49-3.85c-1.35-2.59-1.49 0.503-1.5 32.4l-0.00616 35.2h-11zm62 0.0523v-54.1h4.5c3.79 0 4.5 0.307 4.5 1.94 0 1.07 0.405 2.19 0.9 2.5s1.44 2.81 2.1 5.56 1.61 5.26 2.1 5.56 0.915 1.32 0.933 2.25c0.0187 0.93 0.903 3.49 1.97 5.69s1.95 4.68 1.97 5.5c0.022 0.825 0.712 2.79 1.53 4.36s1.49 3.31 1.49 3.85 0.621 2.4 1.38 4.14 2.6 6.75 4.09 11.2 3.13 8.9 3.65 10c0.521 1.1 1.58 4.02 2.35 6.5 1.26 4.04 1.41 0.778 1.47-32.3l0.0669-36.8 10.5 0.605v107h-4.42c-4.04 0-4.5-0.259-5.34-3-0.508-1.65-1.56-4.42-2.33-6.15s-1.41-3.52-1.41-3.98c0-0.829-3.1-9.08-5.65-15-0.743-1.73-1.35-3.52-1.35-3.98s-0.96-3.31-2.13-6.35-2.46-6.42-2.87-7.52-1.69-4.48-2.85-7.5c-1.16-3.02-2.41-6.96-2.76-8.75-0.353-1.79-1.04-3.25-1.52-3.25s-0.979-0.788-1.11-1.75-0.464 13.8-0.75 32.8l-0.52 34.5-10.5 0.605v-54.1zm61.2 0.22 0.259-53.8 36.6-0.546-0.611 9.55-25.5 0.56v37.9h24v9h-24v40.9l26.5 0.558v9l-37.5 0.544 0.259-53.8zm51.2 51.6c-1.81-2-1.92-4.52-2.17-50.2-0.247-44.4-0.13-48.4 1.5-51.6l1.77-3.5 37.3-0.543 2.12 2.69c1.96 2.49 2.1 3.72 1.84 16.8l-0.276 14.1-3.39 0.324c-1.86 0.178-4.45 0.0569-5.75-0.269-2.31-0.58-2.36-0.841-2.36-12.1v-11.5h-21v88h20.9l0.562-24.5 11.5-0.6v14.9c0 13.6-0.186 15.2-2.07 17.5l-2.07 2.63h-18.3c-17.3 0-18.4-0.112-20.2-2.1zm68.6-46.9v-49l-16.5-0.581v-9l45.6-0.538-0.611 9.54-16.5 0.581v97.9h-12zm-407 12.3c-1.33-0.349-1.75-1.51-1.75-4.88v-4.43h31v4.39c0 3.08-0.472 4.57-1.58 5-1.79 0.688-25 0.619-27.7-0.0823z" fill="#00f"/>
</svg>
