<svg xmlns="http://www.w3.org/2000/svg" width="99.749" height="40"  xmlns:v="https://vecta.io/nano"><path d="M0 0l2.343.488 34.147 7.9c.627.144.777.401.775.997l-.013 21.365c.001.595-.201.807-.755.935L1.044 39.858c-1.039.24-1.043.236-1.043-.779L0 0zm3.982 33.716l5.837-1.379c1.924-.588 3.107-2.004 3.131-4.053l.003-16.039c-.015-1.674-.864-2.962-2.381-3.725-2.058-1.034-4.352-1.073-6.59-1.63v26.826zm11.155-13.439l.002 2.16.129 5.557c.135 1.592 1.267 2.489 2.871 2.554 1.453.059 2.794-.328 4.032-1.071 1.371-.823 2.066-2.061 2.074-3.649l-.001-11.133c-.008-1.456-.608-2.673-1.874-3.405-.823-.476-1.746-.858-2.673-1.063-2.955-.656-4.548.656-4.558 3.654l-.002 6.396zm19.636 1.277c-1.001 0-1.851.023-2.699-.008-.565-.021-.793.172-.768.759l-.003 2.576c-.006.719-.415 1.083-1.091 1.087-.761.004-.754-.591-.754-1.131l.011-9.226c.001-.509-.021-1.045.703-1.088.7-.042 1.105.336 1.133 1.115l.032 2.409c.015.225.261.61.42.62.957.058 1.919.029 2.97.029l-.002-2.707c-.012-1.172-.517-2.09-1.512-2.699-1.378-.844-2.897-1.238-4.508-1.221-1.655.018-2.599.931-2.61 2.576l-.002 11.303c.01 1.641.954 2.567 2.609 2.579 1.521.011 2.962-.369 4.289-1.119.798-.451 1.485-1.076 1.591-2.016.146-1.276.136-2.571.191-3.838zm42.118-8.412l.593 5.842 1.367 11.96c.024.202.212.528.36.549l3.102.334 2.075-18.63v18.846l3.008.311V8.269l-4.532.497c-.209.027-.529.309-.551.5l-1.17 11.231-.306 4.751-1.455-16.146-4.527.454c-.73.038-.911.269-.908.982l.01 19.536.043.91 2.892.271-.001-18.113zm22.858 20.485l-3.118-.322c-.206-.032-.483-.399-.513-.639l-.661-6.02c-.011-.107-.043-.212-.079-.383h-2.13l-.758 6.623-3.459-.354.479-4.394 1.614-14.095.668-5.769c.022-.176.188-.464.314-.479l5.083-.537 2.56 26.369zm-5.245-21.994l-.205-.005-.74 11.21h1.617l-.672-11.205zM65.085 30.054l-3.452-.373.61-4.226 2.115-14.112c.042-.27.337-.682.558-.712l4.88-.523 2.554 20.679-3.135-.315c-.203-.03-.482-.357-.518-.58l-.518-4.031c-.058-.736-.309-1.057-1.059-.974-.381.042-.77.007-1.258.007l-.777 5.16zm2.693-7.743l-.669-8.731-.207.011-.742 8.72h1.618zm-10.092-1.276l2.582 8.533-3.493-.442c-.172-.03-.32-.468-.396-.74l-1.516-5.683c-.156-.621-.442-.838-1.148-.567v6.882l-3.599-.391v-1.565l.06-14.203c-.002-.742.231-.932.93-.964l4.384-.35c.494-.035.998-.015 1.492.037 1.644.176 2.525 1.158 2.543 2.815l-.002 2.907c-.002 2.158-.143 2.45-1.837 3.731zm-3.911-2.168c1.158.233 1.982.003 2.032-.663.096-1.293.138-2.609.005-3.894-.083-.807-.895-.737-1.546-.717-.638.02-.483.487-.485.842l-.006 4.432zm-8.166-6.419c-.656.034-.864.292-.858.97V24.64c-.003.991-.444 1.333-1.349 1.072-.6-.173-.688-.631-.687-1.172l.008-11.774-3.462.364c-.027.192-.061.325-.062.457l-.016 11.388c-.001 1.239.683 2.025 1.751 2.487 1.53.661 3.154.875 4.799.695 1.84-.202 2.535-1.045 2.542-2.932l.004-13.023-2.67.246zM9.453 27.71V12.662c-.004-1.233-.63-1.756-1.95-1.7v18.509c1.451-.123 1.946-.541 1.95-1.761zm9.263-7.438l.006 6.15c.004.505.055 1.06.747 1.085.629.023 1.051-.293 1.192-.93.03-.134.061-.272.061-.409l-.003-11.885c-.004-.832-.518-1.344-1.209-1.296-.846.058-.788.73-.793 1.301l-.006 5.984z"/></svg>