<svg xmlns="http://www.w3.org/2000/svg" viewBox="0 0 78.66 40"><path d="M16.085 20.267l.89-.468 1.22-.742c-2.06-.493-2.755-1.92-3.372-3.42l-.846-1.937c-1.09-2.018-2.724-2.754-4.974-2.294l-4.024.82.635.853c2.525 2.986 4.017 6.417 4.446 10.305.104.945.05 1.857-.902 2.753-.47 0-1.125-.026-1.777.005-1.365.066-1.875.668-1.816 2.036.077 1.774.897 3.206 2.057 4.47 2.597 2.83 5.87 4.486 9.557 5.37 3.892.933 7.712.595 11.457-.77.272-.1.56-.157.937-.262-.008.736-.49.886-.9 1.08-2.26 1.067-4.628 1.72-7.13 1.86-4.934.28-9.504-.826-13.475-3.82C3.437 32.612.773 27.953.126 22.14-1.06 11.475 6.233 2.51 15.583.523c7.328-1.556 13.73.36 19.01 5.757.286.292.485.67.725 1.006l-.2.224c-.274-.153-.566-.28-.82-.463-3-2.165-6.2-3.933-9.85-4.696-.945-.197-1.943-.43-2.88-.322-2.75.323-3.7 2.095-3.478 4.54.126 1.384.64 2.736 1.014 4.093.304 1.104.658 2.195.99 3.29.32 1.05.236 2.1-.024 3.14-.476 1.926-1.976 3.112-4.02 3.152.002-.001.024.024.024.024zm38.13 5.098c-.006.004.04-.027.083-.06.018-.216-.001-.443.06-.646.447-1.478.948-2.94 1.357-4.43.35-1.275.69-2.564.873-3.87.222-1.578-.89-2.815-2.443-2.903-.787 2.92-.845 3.048-1.788 3.882-1.09-1.69-2.682-2.147-4.403-1.872-.47.528-.78.947-1.16 1.292-1.755 1.597-3.276 3.355-3.973 5.684-.615 2.053-.567 4.012.925 5.73 1.08 1.244 2.3 1.492 3.79.755 1.185-.585 2.07-1.497 2.76-2.605 1.452-2.327 2.35-4.833 2.42-7.676l.84-.93.264.15-1.622 6.938c-.237.99-.536 1.963-.246 3.163l1.605 1.268c.89.02 1.237-.423 1.52-.95l2.632-4.897 2.162-4.245c.023-.045.133-.046.254-.083l.594.826c-.137.518-.324.978-.373 1.453-.125 1.22-.36 2.462-.246 3.666.346 3.658 3.244 5.43 6.664 4.044 3.457-1.4 5.35-4.195 6.274-7.698.118-.447-.074-.975-.122-1.465-1.07 1.836-2.355 3.368-3.803 4.718-1.085 1.01-2.382 1.8-3.642 2.613-.46.292-1.076.4-1.634.458-1.074.093-1.668-.38-1.878-1.43-.38-1.897.13-3.646.912-5.485l.207.505c.696 1.866 1.903 2.24 3.448 1.008 1.33-1.06 2.43-2.35 3.025-3.95.347-.933.542-1.958.6-2.953.072-1.22-.656-2.097-1.812-2.472-.376-.122-.773-.177-1.29-.292-.46.25-1.02.507-1.53.842-1.43.94-2.5 2.234-3.396 3.67-.217.343-.516.635-.763.932-1.14-.527-.467-1.66-1.02-2.26-1.452-.097-1.93.285-2.066 1.557-.04.38-.14.775-.302 1.12-.62 1.318-1.24 2.638-1.932 3.92-.537.994-1.18 1.93-1.774 2.893-.028.045-.06.09-.056.083zM47.81 19.16l1.004.775 1.44.126c-.51 2.766-1.73 5.08-3.75 6.966-.47.438-.652.444-1.766.42-.4-3.35 1.324-5.773 3.073-8.287zm17.186-.26c.144-.593.527-1.595.73-2.202-.104-.158-.37.097-.523-.135.806-1.087 1.768-1.977 3.057-2.48.567.63.398 1.19.217 1.727-.674 2-1.888 3.623-3.45 4.995l-.318-.12c.092-.595.145-1.2.287-1.784zm-15.875-.116c-.302-.46-.144-.82.527-1.1l.723 1.182c-.58.443-.97.343-1.25-.082zM23.28 13.22l2.62 2.37 2.015-.418-2.185 4.45c-.74 1.61-1.22 3.304-1.384 5.08-.16 1.75.237 3.304 1.516 4.625.9-.07.786-.67 1.053-.746.426.1.504.663.844.693 2.5.22 5.185-.102 7.52-1.025 3.477-1.374 6.208-3.567 7.353-7.263.878-2.833.033-5.177-2.146-6.65-1.235-.835-2.57-1.36-4.038-1.53-1.35-.154-2.706-.25-4.084-.376-.15-1.328-.716-2.25-1.962-2.474l-1.028 2.76-6.093.504zm7.995 1.766c2.64-.183 5.172-.055 7.578 1.008 2.084.92 2.615 2.75 1.332 4.655-1.112 1.65-2.58 2.887-4.446 3.62-2.37.93-4.834 1.345-7.377 1.3-.34-.006-.682-.075-1.288-.146 1.08-3.755 2.528-7.13 4.2-10.438zm-15.213 5.257l-.056.044c-.085.02-.003.001.078-.02l-.022-.025zM10.23 12.48c-.324-.057-.618.078-.658.3s.192.45.516.508.618-.078.658-.3-.192-.45-.516-.508zm32.632 23.565l-.064.106a1.4 1.4 0 0 1-1.178.682c-.947 0-1.638-.725-1.638-1.722s.7-1.725 1.638-1.725c.48 0 .942.268 1.178.682l.064.11 1-.528-.074-.12c-.337-.552-.987-1.2-2.168-1.2-1.638 0-2.827 1.173-2.827 2.79s1.19 2.787 2.827 2.787c.926 0 1.66-.41 2.176-1.224l.08-.125-1.015-.504zm5.77-3.64V34.5h-2.407v-2.094H45.06v5.398h1.165v-2.245h2.407v2.245h1.165v-5.398h-1.164zm7.757 5.4h-1.33l-.377-.993H52.5l-.377.993h-1.33l2.795-5.563 2.792 5.563zm-2.09-2.05l-.7-1.322-.703 1.322H54.3zm6.64-3.35v2.946l-3.55-3.108v5.56h1.168v-2.975l3.548 3.137v-5.56H60.94zm6.36.15v2.95l-3.55-3.108v5.56h1.168v-2.978l3.548 3.14v-5.563h-1.165zm6.543.908v-1.056H70.06v5.398h3.782v-1.056h-2.617V35.58h2.564v-1.06h-2.564v-1.06h2.617zm2.555 3.285v-4.342H75.23v5.398h3.43v-1.056h-2.264z"/></svg>