<svg xmlns="http://www.w3.org/2000/svg" width="63" height="71" viewBox="0 0 63 71"><g fill="none" fill-rule="evenodd"><path fill="#3878BD" d="M53.64 45.07c-2.122 0-3.715 1.478-3.715 3.591 0 2.113 1.593 3.591 3.716 3.591s3.706-1.478 3.706-3.591c0-2.113-1.583-3.591-3.706-3.591zm2.039 3.714a2.04 2.04 0 01-.534 1.26c-.038.037-.073.077-.112.113-.365.34-.852.553-1.391.553a2.05 2.05 0 010-4.098c1.089 0 1.972.852 2.037 1.925v.247zM45.894 48.14v1.572h1.562v.54c-.25.21-.771.418-1.281.418-1.135 0-1.936-.874-1.936-2.01 0-1.144.8-2.008 1.936-2.008.677 0 1.208.427 1.467.885l1.5-.78c-.48-.865-1.416-1.687-2.967-1.687-2.071 0-3.758 1.384-3.758 3.59 0 2.208 1.687 3.592 3.758 3.592 1.174 0 2.112-.427 2.826-1.105l.042-.043a.767.767 0 00.203-.478V48.14h-3.352zM40.66 45.19h-.139a.774.774 0 00-.705.74V49.01l-2.81-3.82h-1.843v6.943h1.79v-4.018l2.936 4.018h1.728V45.19h-.958zM31.866 45.19h-2.259l-2.612 6.943h2.03l.343-1h2.738l.18.525.002.006a.774.774 0 00.67.469h1.522l-2.614-6.943zm-2.009 4.382l.885-2.613.875 2.613h-1.76zM23.45 45.19h-2.914v6.215a.774.774 0 00.75.728h2.175c2.175 0 3.747-1.322 3.747-3.477 0-2.154-1.572-3.466-3.758-3.466m0 5.38h-1.124v-3.82h1.135c1.269 0 1.914.834 1.914 1.906 0 1.03-.707 1.915-1.925 1.915M18.33 45.19h-.091a.774.774 0 00-.727.723v3.097l-2.81-3.82H12.86v6.943h1.79v-4.018l2.936 4.018h1.727V45.19h-.982zM9.602 45.19h-2.31L4.68 52.133h2.08l.345-1H9.84l.18.525.003.006a.774.774 0 00.67.469h1.521L9.603 45.19zm-2.009 4.382l.886-2.613.873 2.613H7.593zM5.372 46.735v-1.55H.05v6.95h1.9v-2.45h1.876a.678.678 0 00.597-.634V48.123H1.95v-1.388h3.423z"/><path fill="#FF7300" d="M25.806 53.745c-4.977 0-8.711 3.464-8.711 8.417 0 4.954 3.734 8.418 8.71 8.418 4.978 0 8.687-3.465 8.687-8.419 0-4.953-3.71-8.417-8.686-8.417zm4.776 8.707a4.77 4.77 0 01-1.25 2.952c-.09.087-.172.18-.262.265a4.77 4.77 0 01-3.261 1.296 4.803 4.803 0 010-9.605c2.553 0 4.62 1.997 4.773 4.512v.58zM12.883 54.025h-.323a1.815 1.815 0 00-1.654 1.734V62.98l-6.587-8.955H0v16.274h4.197v-9.418l6.881 9.418h4.049V54.025h-2.244zM48.233 70.299l-2.461-10.183-2.46 10.183h-4.434l-4.653-16.25h4.702l2.46 10.841 2.778-10.841h3.215l2.778 10.841 2.436-10.841h4.726l-4.653 16.25z"/><path fill="#3878BD" d="M23.495 58.147l6.923 3.997-6.923 3.997z"/><g><path fill="#FF7300" d="M44.428 12.152L41.171 0 7.024 9.15l3.258 12.158.001.005a5.68 5.68 0 012.632 9.821l.001.005 3.258 12.158 34.148-9.15-3.257-12.152a5.679 5.679 0 01-4.377-4.102 5.68 5.68 0 011.74-5.741zm-12.739.426l-10.163 2.723 2.042 7.622L33.731 20.2l2.042 7.623-10.162 2.723 2.042 7.622-10.163 2.723-2.471-9.223a7.57 7.57 0 001.448-6.749 7.561 7.561 0 00-4.629-5.12L9.32 10.403l20.326-5.447 2.043 7.622z"/><path fill="#FFF" d="M31.689 12.578l-10.163 2.723 2.042 7.622L33.73 20.2l2.042 7.623-10.162 2.723 2.042 7.622-10.163 2.723-2.471-9.223a7.566 7.566 0 001.448-6.749 7.56 7.56 0 00-4.628-5.12l-2.52-9.396 20.327-5.447 2.043 7.622z"/></g><path fill="#FF7300" d="M57.3 67.533h-.947v-.342h2.306v.342h-.952v2.773H57.3zM61.63 68.938c-.023-.434-.05-.957-.046-1.345h-.014c-.106.365-.236.753-.393 1.183l-.55 1.51h-.305l-.504-1.482a14.393 14.393 0 01-.36-1.211h-.009c-.009.388-.033.91-.06 1.377l-.083 1.336h-.384l.217-3.115h.513l.531 1.507c.13.383.236.725.315 1.049h.014c.078-.315.19-.657.328-1.05l.554-1.506h.513l.194 3.115h-.392l-.079-1.368z"/></g></svg>