<svg version="1.1" viewBox="0 0 1060 328" xmlns="http://www.w3.org/2000/svg" xmlns:xlink="http://www.w3.org/1999/xlink"><defs><path id="a" d="m0.78 119v-118h74v25h-43v19h38v26h-38v47h-31zm97 0v-118h31v118h-31zm55 0v-118h31v87h43v31h-74zm110-118 48 44 48-44h14v118h-31v-60l-31 28-31-28v60h-31v-118h14zm231 0-51 87h46v31h-100l51-87h-47v-31h101zm16 118v-118h31v118h-31zm55 0v-118h74v26h-43v19h38v26h-38v22h43v25h-74z"/></defs><g fill="none" fill-rule="evenodd"><g id="Primary"><g transform="translate(409 98)"><g id="FILMZIE" transform="translate(.4 .31)"><use fill="#000000" xlink:href="#a"/><use fill="#253D44" xlink:href="#a"/></g></g><g transform="translate(0)"><path d="m140 82h-0.23l-132 0.7c-3.1 0.025-5.9 1.9-7.1 4.8-1.2 2.9-0.45 6.2 1.8 8.4l15 14c5.8 5.7 9.1 14 9.2 22l0.41 75c0.13 21 17 38 38 38h0.23l70-0.35c12-0.059 23-4.7 31-13 8.1-8.3 13-19 13-31l-0.41-81c-0.18-21-17-38-38-38z" fill="#FFC838"/><path d="m206 31-9.7-9.7c-1.6-1.5-4.1-1.5-5.6 0l-15 15c-1.5 1.6-1.5 4.1 0 5.7l9.7 9.7c1.6 1.5 4.1 1.5 5.6 0l15-15c1.5-1.6 1.5-4.1 0-5.7z"/><path d="m238 63-9.7-9.7c-1.6-1.5-4.1-1.5-5.6 0l-15 15c-1.5 1.6-1.5 4.1 0 5.7l9.7 9.7c1.6 1.5 4.1 1.5 5.6 0l15-15c1.5-1.6 1.5-4.1 0-5.7z"/><path d="m270 95-9.7-9.7c-1.6-1.5-4.1-1.5-5.6 0l-15 15c-1.5 1.6-1.5 4.1 0 5.7l9.7 9.7c1.6 1.5 4.1 1.5 5.6 0l15-15c0.76-0.74 1.2-1.8 1.2-2.8s-0.43-2.1-1.2-2.8z"/><path d="m302 128-9.7-9.7c-1.6-1.5-4.1-1.5-5.6 0l-15 15c-1.5 1.6-1.5 4.1 0 5.7l9.7 9.7c1.6 1.5 4.1 1.5 5.6 0l15-15c1.5-1.6 1.5-4.1 0-5.7z"/><path d="m325 150c-1.6-1.5-4.1-1.5-5.6 0l-15 15c-1.5 1.6-1.5 4.1 0 5.7l9.7 9.7c1.6 1.5 4.1 1.5 5.6 0l15-15c1.5-1.6 1.5-4.1 0-5.7l-9.7-9.7z"/><path d="m352 155-151-152c-4.8-4.8-12-4.8-17 0l-66 67 23-0.12h0.29c28 0.069 50 22 50 50l0.47 86c0.12 28-22 51-50 51l-24 0.12 67 67c4.8 4.8 12 4.8 17 0l151-152c2.3-2.3 3.6-5.4 3.6-8.7 0-3.3-1.3-6.4-3.6-8.7zm-161-104c-1.6 1.5-4.1 1.5-5.6 0l-9.7-9.7c-1.5-1.6-1.5-4.1 0-5.7l15-15c1.6-1.5 4.1-1.5 5.6 0l9.7 9.7c1.5 1.6 1.5 4.1 0 5.7l-15 15zm32 32c-1.6 1.5-4.1 1.5-5.6 0l-9.7-9.7c-1.5-1.6-1.5-4.1 0-5.7l15-15c1.6-1.5 4.1-1.5 5.6 0l9.7 9.7c1.5 1.6 1.5 4.1 0 5.7l-15 15zm32 32c-1.6 1.5-4.1 1.5-5.6 0l-9.7-9.7c-1.5-1.6-1.5-4.1 0-5.7l15-15c1.6-1.5 4.1-1.5 5.6 0l9.7 9.7c1.5 1.6 1.5 4.1 0 5.7l-15 15zm32 32c-1.6 1.5-4.1 1.5-5.6 0l-9.7-9.7c-1.5-1.6-1.5-4.1 0-5.7l15-15c1.6-1.5 4.1-1.5 5.6 0l9.7 9.7c1.5 1.6 1.5 4.1 0 5.7l-15 15zm47 17-15 15c-1.6 1.5-4.1 1.5-5.6 0l-9.7-9.7c-1.5-1.6-1.5-4.1 0-5.7l15-15c1.6-1.5 4.1-1.5 5.6 0l9.7 9.7c1.5 1.6 1.5 4.1 0 5.7z" fill="#253D44" fill-rule="nonzero"/><g transform="translate(70 144)" fill="#253D44"><g transform="translate(0 43)"><path d="m33 21c-11 8.6e-4 -22-4.1-31-12-2.1-1.9-2.2-5.1-0.43-7.2 1.8-2.1 5-2.4 7.1-0.61 14 12 35 12 49 0 2.1-1.8 5.3-1.5 7.1 0.61 1.8 2.1 1.6 5.3-0.43 7.2-8.6 7.5-20 12-31 12z"/></g><g transform="translate(6.7)"><g transform="translate(36)"><path d="m3.1 0h11c1.7 0.011 3.1 1.4 3.1 3.1v17c-0.011 1.7-1.4 3.1-3.1 3.1h-11c-1.7-0.011-3.1-1.4-3.1-3.1v-17c0.011-1.7 1.4-3.1 3.1-3.1z"/></g><path d="m3.1 0h11c1.7 0.011 3.1 1.4 3.1 3.1v17c-0.011 1.7-1.4 3.1-3.1 3.1h-11c-1.7-0.011-3.1-1.4-3.1-3.1v-17c0.011-1.7 1.4-3.1 3.1-3.1z"/></g></g></g></g></g></svg>
