<svg xmlns="http://www.w3.org/2000/svg" viewBox="0 0 15450 9810" preserveAspectRatio="xMidYMid meet"><path d="M8175 6483c-580-52-837-249-935-718-33-158-50-324-51-493 0-179 5-250 26-357 69-351 243-558 570-680 185-69 252-78 560-72 524 11 815 83 987 245 150 142 238 338 279 622 16 111 16 459 0 580-29 220-111 448-203 567-126 164-375 266-737 303-95 9-403 11-496 3zm287-522c74-13 164-49 212-87 54-42 109-156 136-283 20-92 22-124 18-290-5-164-8-196-32-275-44-146-81-194-196-252-70-35-206-52-292-36-76 14-176 62-218 104-88 88-126 265-118 555 8 255 40 380 124 472 74 83 211 117 366 92zM235 6458c-3-7-4-695-3-1528l3-1515 1014-3 1023 6c5 5-8 40-28 78l-276 534H980v650h605c590 0 605 0 615 20 7 12 9 120 8 307l-3 288-612 3-613 2-2 583-3 582-368 3c-289 2-369 0-372-10zm2270 0c-3-7-4-706-3-1553l3-1540 359-3c256-2 363 1 372 9 12 10 14 259 11 1553l-2 1541-368 3c-289 2-369 0-372-10zm1150 0c-3-7-4-528-3-1158l3-1145h740v2310l-368 3c-289 2-369 0-372-10zm1000 2c-6-10 11-40 330-556l336-539 42-70-30-55c-16-30-119-210-228-400l-377-674c3-3 184-6 402-6 366 0 398 1 412 18 13 15 68 115 244 446l42 79 24-44c43-75 142-258 207-381l63-118h403c224 0 406 4 409 9s-85 157-196 337l-268 439-128 211c-34 56-62 105-62 108 0 5 91 150 339 538l171 270 181 282c37 56 64 104 60 109-4 4-196 6-426 5l-419-3-138-220-182-293-44-73-58 103-77 138c-11 19-56 100-99 180-44 80-85 151-90 158-13 15-833 18-843 2zm5300 0c-9-14-6-2283 3-2292 5-5 170-7 368-6l359 3 10 442 109-171 177-276h254c342 0 503 22 624 84 62 33 171 147 206 217 63 124 67 160 74 609l1 900-5 495h-730l-5-705c-4-516-9-718-18-755-28-109-79-164-175-185-29-6-157-14-284-17l-233-6-2 834-3 834-362 3c-229 1-364-1-368-8zM3655 3958c-3-7-4-146-3-308l3-295h740v610l-368 3c-290 2-369 0-372-10z"/><path d="M13205 6463c-66-17-73-75-15-140 32-37 39-51 34-72-12-49-22-52-110-40-146 21-364-3-430-46-14-9-28-14-31-11-11 10-122-56-191-114-38-32-94-92-125-132-56-75-101-148-91-148 3 0-3-11-13-24s-27-50-37-82c-10-33-23-67-28-78-17-32-37-109-32-118 10-16 21-5 70 69 46 68 158 193 172 193 4 0 24 16 45 35s41 35 45 35 25 12 47 27c48 33 165 93 180 93 6 0 52 16 101 35 95 38 154 52 359 87 114 20 165 22 415 22 220 0 304-4 369-17 47-9 88-14 93-11s14 1 21-4 35-14 63-20c75-16 226-73 339-129 205-100 402-278 529-478l65-100c14-22 34-56 43-75 30-62 95-253 118-345 12-49 25-97 28-105s7-40 9-70c4-54 20-88 33-73 22 23 46 275 42 433-6 255-61 429-185 595-103 137-297 266-476 315-78 22-96 25-229 39-119 13-162 48-110 89 65 50 147 144 160 184 16 51 9 121-15 145-21 22-122 29-162 12-16-7-38-13-47-14s-39-20-65-42c-43-36-89-66-103-68-3 0-32-11-65-24-93-36-235-39-385-8-69 14-200 76-287 136-57 39-109 54-148 44zm-245-529c-8-3-22-8-30-12-8-3-20-6-25-7-32-2-105-32-135-55-19-14-51-36-70-47-45-28-120-109-120-130 0-9-7-21-15-27s-23-35-33-64c-11-29-24-58-31-65-6-6-11-16-11-23 0-6-13-44-30-84-16-40-31-87-32-104s-5-35-8-41c-16-23-43-134-110-450-23-106-38-332-25-362 5-10 10-28 11-40 2-13 10-33 18-45 9-12 16-33 16-46s19-51 42-85c41-61 153-177 171-177 5 0 22-9 37-20 16-11 46-27 67-34 21-8 56-22 78-32s44-17 49-15c5 1 23-5 40-13s45-17 61-21c17-4 39-10 50-15 61-24 187-59 199-54 8 3 17 1 21-5 3-6 21-11 40-11s36-4 40-10c6-10 57-26 205-64 213-54 270-71 270-78 0-4-4-8-9-8-7 0-338-492-546-812-86-132-340-505-348-510-6-3-24-4-42-1-27 4-36-1-68-36-29-33-37-49-37-80 0-77 75-129 152-107 56 17 77 51 73 116l-3 54 116 151 647 835c137 177 175 228 175 236 0 4 17 26 38 48 22 23 43 49 48 57 7 12 21 14 60 10 48-6 54-10 99-66l130-160 268-333c103-128 190-232 194-231 4 0 10-7 13-15 3-9 50-71 104-139l99-124 1-60c1-46 6-66 21-83 28-31 84-55 98-41 6 6 21 11 32 11 27 0 48 24 64 69 17 51 14 74-16 109-21 24-40 35-72 40-41 7-49 13-107 92-35 47-68 94-73 105s-22 35-39 53c-16 17-33 37-36 44-21 41-150 226-170 243-6 6-17 22-25 35-13 24-216 312-293 417-21 29-38 54-38 56 0 3 17 12 38 20 56 22 147 97 203 167 54 68 94 138 91 158-2 7 2 11 9 10 7-2 17 15 23 37s18 51 27 65c10 14 20 36 24 50s17 50 30 80c37 92 109 332 147 495 29 127 33 348 6 405-9 19-19 53-23 75-17 98-131 239-251 311l-74 44c-48 29-138 63-225 84-27 7-63 18-78 24-16 7-37 12-47 12s-21 4-24 9-23 12-43 16c-21 3-73 18-115 31-43 14-82 23-87 19-6-3-18-1-28 4-16 8-93 32-118 36-5 1-12 3-15 4-3 2-16 4-30 6-70 10-133 25-144 34-7 6-16 8-19 4-4-3-12-1-19 4-13 10-156 39-172 35-4-2-15 3-23 10-16 13-282 23-313 12zm316-435l44-11v-110c0-101-1-110-17-102-10 4-41 9-70 12-47 3-54 1-87-30-49-45-57-97-54-344l3-199 225-6v-209h-97c-135 0-133 3-133-173 0-107-3-138-12-135-36 14-151 48-210 63l-67 17-6 223-155 6v208l78 3 77 3 6 285c3 157 11 301 16 320 30 102 61 134 174 179 34 14 231 13 285 0zm859-20c-4-6 6-38 23-72 16-34 34-80 40-102 14-53 42-134 58-165 6-14 19-50 29-82 9-31 22-62 30-68 8-7 15-22 15-34 0-11 7-34 15-50 9-16 13-31 11-33-2-3 9-34 26-70 16-36 27-67 24-70s5-26 18-52c13-25 27-62 31-81s11-39 15-45c4-5 11-20 14-32l7-23h-307l-24 73c-14 39-24 78-23 85 0 8-10 45-23 83s-24 77-24 88-4 22-9 25-11 20-14 38c-10 58-35 152-56 211-11 33-23 81-27 108-12 94-32 72-59-66-9-49-23-104-31-120-16-39-33-112-27-119 3-3-4-25-16-49-11-24-23-56-25-73-2-16-17-72-34-124s-33-110-37-127l-7-33h-157c-173 0-170-2-144 60 24 58 93 258 93 269 0 7 11 36 24 64 13 29 28 68 34 87 49 151 64 194 90 256 16 40 33 87 37 105 4 19 16 51 26 71 11 21 19 46 19 58 0 19 5 20 186 20 130 0 183-3 179-11z" fill="#ed0116"/></svg>