<svg xmlns="http://www.w3.org/2000/svg" viewBox="0 0 85 47"><g fill-rule="nonzero" fill="none"><path d="M8.1 42.73a7.46 7.46 0 01-7.43-7.4c0-4.08 3.4-7.4 7.44-7.4 2.22 0 3.82.88 5.02 2.03l-1.42 1.43a5.07 5.07 0 00-3.6-1.45 5.29 5.29 0 00-5.27 5.37c0 2.98 2.3 5.37 5.27 5.37 1.9 0 3-.78 3.7-1.47.57-.58.95-1.41 1.09-2.55H8.1v-2.02h6.75c.08.35.1.8.1 1.25 0 1.5-.42 3.38-1.74 4.73a6.53 6.53 0 01-5.1 2.1zm61.13-.3V30.97h3.6v-1.6h-8.89v1.6h3.63v11.46h1.66zm9.25.02h1.73l4.73-13.06H83.1l-3.69 10.6h-.08l-3.55-10.6h-1.85l4.56 13.06zm-57.75.27c2.56 0 4.65-2 4.65-4.75 0-2.76-2.09-4.75-4.65-4.75a4.62 4.62 0 00-4.66 4.75c0 2.73 2.1 4.75 4.66 4.75zm0-7.63c1.42 0 2.62 1.17 2.62 2.88 0 1.7-1.22 2.88-2.62 2.88-1.42 0-2.62-1.19-2.62-2.88 0-1.7 1.22-2.88 2.62-2.88zm15.09 2.88c0 2.75-2.1 4.75-4.66 4.75a4.65 4.65 0 01-4.65-4.75c0-2.76 2.09-4.75 4.65-4.75a4.61 4.61 0 014.66 4.75zm-2.04 0c0-1.7-1.2-2.88-2.62-2.88-1.4 0-2.62 1.17-2.62 2.88 0 1.7 1.2 2.89 2.62 2.89 1.4 0 2.62-1.2 2.62-2.89zM46 42.05V33.5h-1.95v.77h-.08a3.28 3.28 0 00-2.48-1.05 4.72 4.72 0 00-4.52 4.77 4.68 4.68 0 004.52 4.73c1.12 0 2-.5 2.48-1.07h.08v.68c0 1.83-.97 2.8-2.53 2.8a2.6 2.6 0 01-2.38-1.69l-1.82.76A4.5 4.5 0 0041.5 47c2.45 0 4.5-1.43 4.5-4.95zm-4.36-6.96c1.42 0 2.53 1.23 2.53 2.9 0 1.65-1.1 2.86-2.53 2.86-1.42 0-2.62-1.2-2.62-2.86 0-1.67 1.18-2.9 2.62-2.9zm7.99-6.64v14h-2.07v-14h2.07zm9.78 12.17l-1.61-1.08c-.56.8-1.27 1.31-2.31 1.31a2.4 2.4 0 01-2.29-1.45l6.31-2.62-.22-.54c-.39-1.05-1.6-3.02-4.04-3.02-2.42 0-4.38 1.93-4.38 4.75a4.58 4.58 0 004.62 4.75 4.68 4.68 0 003.92-2.1zm-2.36-4.56l-4.22 1.77a2.61 2.61 0 012.46-2.78c.83 0 1.52.42 1.76 1.01z" fill="#000"/><path d="M54.02.69H36.34a2.8 2.8 0 00-2.78 2.8v2.8h21.55A2.8 2.8 0 0157.9 9.1V4.6c0-2.18-1.75-3.91-3.88-3.91z" fill="#4285F4"/><path d="M31.87.69A3.9 3.9 0 0028 4.59v9.68a2.8 2.8 0 002.78 2.8h2.78V3.5A2.8 2.8 0 0136.35.7h-4.48z" fill="#34A853"/><path d="M31.87 22.68h17.68a2.8 2.8 0 002.78-2.8v-2.81H30.78a2.8 2.8 0 01-2.78-2.8v4.53a3.88 3.88 0 003.87 3.88z" fill="#FBBC04"/><path d="M54.02 22.69a3.9 3.9 0 003.88-3.9V9.1a2.8 2.8 0 00-2.79-2.8h-2.78v13.57a2.8 2.8 0 01-2.78 2.8h4.47z" fill="#EA4335"/></g></svg>