<svg viewBox="0 0 115 20" version="1.1" xmlns="http://www.w3.org/2000/svg" xmlns:xlink="http://www.w3.org/1999/xlink">
    <g id="Page-1" stroke="none" stroke-width="1" fill="none" fill-rule="evenodd">
        <g id="gtv">
            <path d="M38.1051,15.7286 C34.0621,15.7286 30.6699,12.4077 30.6699,8.33111 C30.6699,4.25452 34.0621,0.933594 38.1051,0.933594 C40.3336,0.933594 41.9311,1.80857 43.1341,2.96195 L41.7142,4.39372 C40.8464,3.57841 39.7025,2.94206 38.1051,2.94206 C35.1468,2.94206 32.8393,5.34824 32.8393,8.31122 C32.8393,11.2941 35.1468,13.6804 38.1051,13.6804 C40.0181,13.6804 41.1028,12.9048 41.8128,12.2088 C42.3847,11.6322 42.7594,10.7969 42.8975,9.66346 L38.1051,9.66346 L38.1051,7.63511 L44.8499,7.63511 C44.9288,7.99305 44.9485,8.43054 44.9485,8.88791 C44.9485,10.3992 44.5344,12.2685 43.213,13.6207 C41.9311,15.0127 40.2942,15.7286 38.1051,15.7286 Z M99.2254,15.4282 L99.2254,3.97403 L102.834,3.97403 L102.834,2.36328 L93.9399,2.36328 L93.9399,3.97403 L97.5687,3.97403 L97.5687,15.4282 L99.2254,15.4282 Z M108.477,15.4517 L110.212,15.4517 L114.945,2.38672 L113.092,2.38672 L109.404,12.9858 L109.325,12.9858 L105.775,2.38672 L103.921,2.38672 L108.477,15.4517 Z M50.7286,15.7242 C53.2924,15.7242 55.3829,13.7157 55.3829,10.9715 C55.3829,8.20733 53.2924,6.21875 50.7286,6.21875 C48.1647,6.21875 46.0742,8.20733 46.0742,10.9715 C46.0742,13.6958 48.1647,15.7242 50.7286,15.7242 Z M50.7286,8.08802 C52.1485,8.08802 53.3516,9.26128 53.3516,10.9715 C53.3516,12.6617 52.1288,13.8549 50.7286,13.8549 C49.3086,13.8549 48.1056,12.6617 48.1056,10.9715 C48.1056,9.26128 49.3283,8.08802 50.7286,8.08802 Z M65.8151,10.9716 C65.8151,13.7158 63.7246,15.7243 61.1607,15.7243 C58.5969,15.7243 56.5063,13.696 56.5063,10.9716 C56.5063,8.20748 58.5969,6.2189 61.1607,6.2189 C63.7246,6.19901 65.8151,8.20748 65.8151,10.9716 Z M63.7837,10.9716 C63.7837,9.26142 62.5807,8.08816 61.1607,8.08816 C59.7605,8.08816 58.5377,9.26142 58.5377,10.9716 C58.5377,12.6619 59.7407,13.855 61.1607,13.855 C62.561,13.855 63.7837,12.6619 63.7837,10.9716 Z M75.9916,15.048 L75.9916,6.49715 L74.0391,6.49715 L74.0391,7.2727 L73.9602,7.2727 C73.4869,6.7159 72.5994,6.21875 71.4753,6.21875 C69.1284,6.21875 66.959,8.30676 66.959,10.9913 C66.959,13.656 69.1087,15.7242 71.4753,15.7242 C72.5994,15.7242 73.4869,15.227 73.9602,14.6503 L74.0391,14.6503 L74.0391,15.3264 C74.0391,17.1559 73.0728,18.1303 71.5147,18.1303 C70.2328,18.1303 69.4439,17.2156 69.1284,16.4401 L67.314,17.1957 C67.8267,18.4485 69.2073,19.9996 71.495,19.9996 C73.9405,19.9996 75.9916,18.5678 75.9916,15.048 Z M71.6331,8.08802 C73.053,8.08802 74.1575,9.32093 74.1575,10.9913 C74.1575,12.6419 73.053,13.8549 71.6331,13.8549 C70.2131,13.8549 69.0101,12.6419 69.0101,10.9913 C69.0101,9.32093 70.1934,8.08802 71.6331,8.08802 Z M79.6201,1.44531 L79.6201,15.4449 L77.5493,15.4449 L77.5493,1.44531 L79.6201,1.44531 Z M89.4023,13.6163 L87.7852,12.5424 C87.2329,13.3379 86.523,13.8549 85.4777,13.8549 C84.4324,13.8549 83.6633,13.3578 83.19,12.4032 L89.501,9.77831 L89.284,9.24139 C88.8896,8.18744 87.6865,6.21875 85.241,6.21875 C82.8153,6.21875 80.8628,8.14767 80.8628,10.9715 C80.8628,13.6362 82.7955,15.7242 85.4777,15.7242 C87.6274,15.7242 88.8896,14.3918 89.4023,13.6163 Z M87.0357,9.06242 L82.8153,10.8323 C82.7758,8.98287 84.2352,8.04824 85.2805,8.04824 C86.1088,8.04824 86.7991,8.46585 87.0357,9.06242 Z" id="Shape" fill="#000000"></path>
            <path d="M19.7401,0 L6.32923,0 C5.16564,0 4.21899,0.954517 4.21899,2.12778 L4.21899,4.25556 L20.5684,4.25556 C21.732,4.25556 22.6786,5.21008 22.6786,6.38334 L22.6786,2.96298 C22.6786,1.31246 21.3573,0 19.7401,0 Z" id="Path" fill="#4285F4" fill-rule="nonzero"></path>
            <path d="M2.93856,0 C1.32136,0 0,1.33235 0,2.96298 L0,10.3008 C0,11.4741 0.946648,12.4286 2.11024,12.4286 L4.22047,12.4286 L4.22047,2.12778 C4.22047,0.954518 5.16712,0 6.33071,0 L2.93856,0 Z" id="Path" fill="#34A853" fill-rule="nonzero"></path>
            <path d="M2.93856,16.6817 L16.3494,16.6817 C17.513,16.6817 18.4597,15.7272 18.4597,14.5539 L18.4597,12.4261 L2.11024,12.4261 C0.946648,12.4261 0,11.4716 0,10.2983 L0,13.7386 C0,15.3493 1.30164,16.6817 2.93856,16.6817 Z" id="Path" fill="#FBBC04" fill-rule="nonzero"></path>
            <path d="M19.7399,16.6886 C21.3571,16.6886 22.6785,15.3563 22.6785,13.7256 L22.6785,6.38779 C22.6785,5.21453 21.7318,4.26001 20.5683,4.26001 L18.458,4.26001 L18.458,14.5609 C18.458,15.7341 17.5114,16.6886 16.3478,16.6886 L19.7399,16.6886 Z" id="Path" fill="#EA4335" fill-rule="nonzero"></path>
        </g>
    </g>
</svg>