<svg xmlns="http://www.w3.org/2000/svg" viewBox="0 0 370 110" stroke="none" stroke-linecap="round" stroke-linejoin="round" fill="#fff" fill-rule="evenodd" font-family="Roboto" font-size="14" text-anchor="middle"><path d="M118.333 46.334c0 .09-.37.166-.823.166s-.87.075-.927.167-.324.167-.593.167-.5.075-.5.166-.225.167-.5.167-.5.075-.5.167-.15.166-.334.166-.333.075-.333.167-.225.167-.5.167-.5.075-.5.166-.133.167-.297.167-.404.15-.536.333-.357.334-.5.334-.368.15-.5.333-.337.333-.456.333c-.28 0-4.044 3.765-4.044 4.045 0 .118-.15.323-.334.455s-.333.374-.333.537-.075.297-.167.297-.166.15-.166.333-.075.333-.167.333-.167.15-.167.334-.075.333-.166.333-.167.225-.167.5-.075.5-.167.5-.166.22-.166.486-.057.51-.125.542c-.2.09-.71 1.72-.71 2.276 0 .28-.075.556-.166.613-.21.13-.227 6.953-.017 7.175.082.087.187.458.234.825.102.805.483 1.916.657 1.916.07 0 .126.225.126.5s.075.5.166.5.167.225.167.5.075.5.167.5.166.106.166.235c0 .315.694 1.6.865 1.6.074 0 .135.15.135.333s.075.333.167.333.167.108.167.24c0 .302 3.74 4.095 4.038 4.095.122 0 .33.15.462.333s.373.333.536.333.297.075.297.167.15.167.333.167.334.075.334.166.15.167.333.167.333.075.333.167.15.166.334.166.333.075.333.167.146.167.323.167.37.075.427.166.286.167.5.167.407.075.407.167.295.166.656.166.704.075.76.167.474.167.927.167.823.075.823.166c0 .106 1.334.167 3.667.167L126 83c0-.09.3-.166.666-.166s.667-.075.667-.167.3-.167.667-.167.666-.075.666-.166.225-.167.5-.167.5-.075.5-.167.15-.166.334-.166.333-.075.333-.167.075-.167.167-.167.167.282.17.625.047.794.102 1l.1.375h8.628V62h-17.834v8.334h3.667l3.667.085c0 .416-2.075 2.748-2.446 2.748-.12 0-.22.075-.22.167s-.15.166-.333.166-.334.075-.334.167-.3.167-.666.167-.667.075-.667.166c0 .102-.778.167-2 .167s-2-.065-2-.167c0-.09-.22-.166-.5-.166s-.537-.075-.593-.167-.286-.167-.5-.167-.407-.075-.407-.166-.146-.167-.325-.167-.385-.1-.458-.22-.393-.402-.7-.625c-.79-.555-1.215-.988-1.493-1.53-.13-.252-.3-.458-.375-.458s-.14-.15-.14-.334-.075-.333-.167-.333-.166-.15-.166-.333-.075-.334-.167-.334-.167-.225-.167-.5-.075-.5-.166-.5-.167-.3-.167-.666-.075-.667-.167-.667c-.102 0-.166-.778-.166-2s.064-2 .166-2c.092 0 .167-.3.167-.667s.075-.666.167-.666.166-.22.166-.5.075-.537.167-.594.167-.248.167-.426.075-.324.166-.324.167-.133.167-.296.15-.405.333-.537.334-.338.334-.458c0-.303 1.435-1.71 1.745-1.71.14 0 .255-.075.255-.166s.112-.167.25-.167.25-.075.25-.167.187-.166.416-.166.417-.075.417-.167.188-.167.417-.167.416-.075.416-.166.445-.167 1-.167 1-.074 1-.167.225-.166.5-.166.5.075.5.166.445.167 1 .167 1 .074 1 .167.225.166.5.166.5.075.5.167.15.167.334.167.333.075.333.166.114.167.254.167c.31 0 1.573 1.248 1.9 1.877.13.25.3.456.375.456s.14.15.14.334c0 .325.11.333 4.916.333h4.917v-.833c0-.46-.075-.834-.167-.834s-.166-.258-.166-.573-.075-.62-.167-.677-.167-.248-.167-.426-.075-.324-.166-.324-.167-.15-.167-.333-.075-.333-.167-.333-.166-.15-.166-.334-.075-.333-.167-.333-.167-.15-.167-.333-.075-.334-.166-.334-.167-.133-.167-.296-.15-.405-.333-.537-.334-.34-.334-.465c0-.273-2.454-2.702-2.73-2.702-.108 0-.304-.15-.436-.333s-.374-.333-.537-.333-.297-.075-.297-.167-.112-.167-.25-.167-.25-.075-.25-.166-.15-.167-.333-.167S131 48.092 131 48s-.15-.166-.334-.166-.333-.075-.333-.167-.225-.167-.5-.167-.5-.075-.5-.166-.15-.167-.333-.167-.334-.075-.334-.167-.3-.166-.666-.166-.667-.075-.667-.167-.3-.167-.667-.167-.666-.075-.666-.166c0-.107-1.39-.167-3.834-.167l-3.833.167m26 13.416L144.5 73c.09 0 .166.338.166.75s.075.75.167.75.167.225.167.5.075.5.166.5.167.15.167.334.075.333.167.333.166.15.166.333.075.334.167.334.167.133.167.296.15.405.333.537.333.338.333.457c0 .282 1.76 2.043 2.043 2.043.12 0 .325.15.457.333s.357.334.5.334.368.15.5.333.374.333.537.333.297.075.297.167.15.167.333.167.333.075.333.166.225.167.5.167.5.075.5.167.225.166.5.166.5.075.5.167.3.167.667.167.667.075.667.166c0 .097.527.167 1.25.167s1.25.07 1.25.167.555.166 1.333.166 1.333-.07 1.333-.166.556-.167 1.334-.167 1.333-.07 1.333-.167c0-.09.3-.166.667-.166s.666-.075.666-.167.225-.167.5-.167.5-.075.5-.166.15-.167.334-.167.333-.075.333-.167.15-.166.333-.166.334-.075.334-.167.15-.167.333-.167.333-.075.333-.166.134-.167.297-.167.405-.15.537-.333.34-.334.46-.334c.787 0 4.206-4.35 4.206-5.35 0-.163.075-.342.167-.4s.167-.323.167-.593.075-.5.166-.5c.1 0 .167-4.64.167-13.583V46.5h-9.5v12.584l-.167 12.583c-.09 0-.166.15-.166.333s-.075.334-.167.334-.167.078-.167.174c0 .25-.777.992-1.04.992-.12 0-.33.15-.46.334-.14.195-.43.333-.703.333-.255 0-.463.075-.463.167 0 .1-.64.166-1.584.166s-1.583-.067-1.583-.166c0-.092-.225-.167-.5-.167s-.5-.075-.5-.167-.133-.166-.297-.166-.404-.15-.536-.334-.374-.333-.537-.333-.297-.113-.297-.25-.056-.25-.125-.25c-.15-.002-.54-.81-.54-1.116 0-.12-.075-.216-.167-.216-.1 0-.167-4.25-.167-12.417V46.5h-9.333v13.25m35.333 4.917v18.167h9.5V46.5h-9.5v18.167m15.834 0v18.167h8.5c5.555 0 8.5-.058 8.5-.167 0-.092.408-.167.906-.167s.954-.075 1-.166.324-.167.594-.167.5-.075.5-.167.225-.166.5-.166.5-.075.5-.167.15-.167.333-.167.333-.075.333-.166.21-.167.464-.167c.272 0 .562-.138.703-.333.132-.184.374-.334.537-.334s.296-.075.296-.166.12-.167.267-.167.476-.225.733-.5.55-.5.654-.5c.233 0 2.346-2.1 2.346-2.332 0-.094.225-.406.5-.694s.5-.617.5-.73.113-.25.25-.303.25-.17.25-.26.225-.546.5-1.012.5-.995.5-1.174.075-.326.167-.326.167-.15.167-.334.075-.333.166-.333.167-.22.167-.5.075-.537.167-.593.166-.36.166-.677.075-.573.167-.573.167-.445.167-1 .074-1 .166-1c.105 0 .167-1 .167-2.667S227.27 62 227.166 62c-.092 0-.166-.444-.166-1s-.074-1-.167-1-.167-.258-.167-.573-.075-.62-.166-.677-.167-.28-.167-.494-.14-.68-.3-1.032c-1.397-2.882-1.494-3.057-1.7-3.057-.087 0-.158-.12-.158-.266s-.225-.477-.5-.734-.5-.55-.5-.653c0-.243-2.104-2.347-2.346-2.347-.103 0-.397-.225-.654-.5s-.587-.5-.733-.5-.267-.075-.267-.167-.133-.166-.296-.166-.405-.15-.537-.334c-.14-.195-.43-.333-.703-.333-.255 0-.464-.075-.464-.167s-.15-.166-.333-.166-.333-.075-.333-.167-.225-.167-.5-.167-.5-.075-.5-.166-.225-.167-.5-.167-.5-.075-.5-.167-.445-.166-1-.166-1-.074-1-.167c0-.11-2.945-.167-8.5-.167h-8.5v18.167m35.5 0v18.167h23.666v-8.667h-13.833v-5.833h12.5v-8.667h-12.5v-4.5h13.5V46.5H231v18.167m-19.5-9c0 .092.225.167.5.167s.5.075.5.166.133.167.296.167.405.15.537.333.338.334.457.334c.282 0 2.043 1.76 2.043 2.043 0 .12.15.325.333.457s.334.41.334.62.075.38.166.38.167.183.167.406.075.454.167.5.166.357.166.667.075.6.167.667.167.946.167 2.093c0 1.216-.065 2-.167 2-.092 0-.167.3-.167.667S217.09 68 217 68s-.167.225-.167.5-.075.5-.167.5-.166.15-.166.334-.063.333-.14.333-.245.206-.375.458c-.386.748-2.878 3.042-3.304 3.042-.1 0-.182.075-.182.167s-.225.166-.5.166-.5.075-.5.167c0 .105-1.14.167-3.084.167h-3.083V55.5h3.083c1.945 0 3.084.062 3.084.167" fill="#1493db"/><path d="M27.48 3.08c-3.043.86-5.413 3.807-6.502 8.087-.634 2.493-.88 7.46-.47 9.53l.34 1.72c.516 2.613 1.66 5.68 2.68 7.197.258.383.47.777.47.875s.058.178.13.178.267.23.433.51c.767 1.298 3.026 3.302 4.437 3.935 3.98 1.787 7.65.203 9.967-4.3.628-1.22.712-1.432 1.052-2.646 1.064-3.81 1.062-9.513-.005-13.208l-.326-1.167c-1.07-3.985-5.373-9.958-7.177-9.958-.098 0-.178-.075-.178-.167S32.187 3.5 32 3.5s-.365-.066-.416-.148c-.238-.386-3.052-.572-4.114-.272M54.916 8.1c-4.154 1.127-6.828 4.834-8.076 11.2-.403 2.05-.147 7.402.475 9.95 1.434 5.877 4.456 10.324 8.438 12.42.52.274 1.075.498 1.23.498a.74.74 0 0 1 .46.177c.243.243 3.706.227 4.32-.02 1.653-.668 2.417-1.168 3.613-2.367.7-.712 1.29-1.4 1.29-1.528s.057-.258.125-.29c.308-.136 1.566-2.868 1.907-4.14 1.117-4.167 1.202-7.838.28-12.125-.613-2.853-.888-3.57-2.874-7.498-.104-.206-.245-.375-.314-.375s-.126-.095-.128-.2c-.004-.293-.72-1.172-2.08-2.552-2.7-2.73-5.896-3.89-8.667-3.14M20.68 38.472c-1.125.335-1.093.042-1.144 10.466-.03 6.284.014 9.633.132 10.073.357 1.327 1.564 2.206 4.33 3.156a23.89 23.89 0 0 1 .916.334c.184.073.784.298 1.334.5l1.333.505c.183.076 1.496.563 2.917 1.083l9.25 3.418c.183.076.633.235 1 .35s.74.26.833.315.504.204.917.328.825.275.916.334.504.208.917.333.825.275.917.333.504.21.916.334.825.274.917.333.504.21.917.333.825.275.916.334.504.208.917.332.82.288.908.363.32.138.514.138.407.05.47.114c.757.757 3.08.735 3.852-.036l.59-.59v-10.14c0-10.838.014-10.65-.83-11.724-.2-.252-.675-.67-1.057-.926-.636-.427-1.043-.584-2.78-1.074-.32-.09-.714-.23-.873-.31s-.442-.146-.627-.146a1.62 1.62 0 0 1-.628-.151c-.16-.082-.626-.24-1.04-.35s-.88-.267-1.04-.35-.436-.15-.616-.15-.372-.075-.428-.167-.282-.167-.5-.167-.444-.075-.5-.166-.287-.167-.512-.167-.54-.067-.7-.15-.852-.316-1.54-.52-1.4-.428-1.584-.498-.895-.295-1.583-.5l-1.583-.498c-.184-.068-.82-.277-1.417-.464l-10.87-3.48c-3.446-1.13-4.122-1.284-4.782-1.087M86.583 50.99c-1.928.863-3.916 4.022-4.726 7.51l-.384 1.667c-.333 1.45-.286 7.146.07 8.5 1.68 6.386 5.307 7.72 8.385 3.083.665-1.002.764-1.19 1.358-2.583 1.698-3.98 1.995-10.233.677-14.25-.447-1.366-.688-1.917-.837-1.917-.07 0-.126-.096-.126-.213 0-1.295-2.902-2.476-4.417-1.798" fill="#1c1c1c"/><path d="M28.5.667c0 .092-.3.167-.667.167s-.667.075-.667.166-.225.167-.5.167-.5.075-.5.167-.225.166-.5.166-.5.075-.5.167-.133.167-.296.167-.405.15-.537.333-.344.333-.47.333c-.4 0-2.51 1.792-2.52 2.142-.005.123-.233.435-.508.692s-.5.587-.5.733-.075.267-.167.267-.166.15-.166.333-.075.333-.167.333-.167.15-.167.334-.075.333-.166.333-.167.225-.167.5-.075.5-.167.5-.166.225-.166.5-.075.5-.167.5-.167.375-.167.833-.075.834-.166.834-.167.5-.167 1.166-.07 1.167-.167 1.167c-.106 0-.166 1.306-.166 3.583l.166 3.584c.096 0 .167.5.167 1.166s.07 1.167.167 1.167.166.375.166.833.075.834.167.834.167.3.167.666.075.667.166.667.167.225.167.5.075.5.167.5.166.15.166.333.075.334.167.334.167.225.167.5.075.5.166.5.167.15.167.333.075.333.167.333.166.134.166.297.15.405.334.537.333.373.333.536.075.297.167.297.166.113.166.252.225.486.5.774c.657.687.632.807-.166.807-.367 0-.667.075-.667.167s-.225.167-.5.167-.5.075-.5.166-.114.167-.254.167c-.33 0-2.08 1.75-2.08 2.08 0 .14-.075.253-.167.253s-.167.15-.167.334-.075.333-.166.333c-.1 0-.167 4.11-.167 12l.167 12c.09 0 .166.225.166.5s.075.5.167.5.167.116.167.258c0 .333.742 1.075 1.075 1.075.142 0 .258.075.258.167s.118.167.262.167c.365 0 .887.533.612.625-.114.038-.207.213-.207.39s-.075.32-.167.32-.167.15-.167.333-.075.334-.166.334-.167.15-.167.333-.075.333-.167.333-.166.15-.166.334-.075.333-.167.333-.167.15-.167.333-.075.334-.166.334-.167.15-.167.333-.075.333-.167.333-.166.15-.166.334-.075.333-.167.333-.167.133-.167.297-.15.404-.333.536-.333.374-.333.537-.075.297-.167.297-.167.115-.167.257-.15.418-.333.614-.333.457-.333.577-.075.218-.167.218-.167.113-.167.25-.075.25-.166.25-.167.134-.167.297-.15.405-.333.537-.334.357-.334.5-.15.368-.333.5-.333.343-.333.47-.225.44-.5.696-.5.557-.5.667-.225.4-.5.667-.5.553-.5.658c0 .294-3.526 3.68-4.304 4.133-.197.115-.505.21-.684.21s-.372.075-.43.166-.624.167-1.26.167c-.66 0-1.157.072-1.157.167 0 .1-.722.166-1.833.166C.79 82.5.5 82.54.5 82.758c0 .315.734 1.076 1.04 1.076.12 0 .33.15.46.333.14.196.43.333.703.333.255 0 .463.075.463.167s.15.167.334.167.333.075.333.166c0 .103.833.167 2.167.167s2.166-.064 2.166-.167c0-.09.225-.166.5-.166s.5-.075.5-.167.134-.167.297-.167.405-.15.537-.333.337-.333.455-.333c.377 0 5.545-4.975 5.545-5.338 0-.1.45-.622 1-1.162s1-1.06 1-1.158.3-.484.666-.862.667-.774.667-.88.15-.302.333-.434.334-.32.334-.416.15-.285.333-.417.333-.342.333-.465c0-.224.4-.702.572-.702.052 0 .095.413.095.917s-.075.917-.167.917S21 74.334 21 75s-.072 1.167-.167 1.167-.167.195-.167.433c0 .266-.192.613-.5.9-.275.257-.5.552-.5.656 0 .24-1.096 1.344-1.333 1.344-.273 0-1.333 1.123-1.333 1.41 0 .14-.075.256-.167.256s-.167.15-.167.333-.075.334-.166.334c-.1 0-.167.722-.167 1.833s-.066 1.833-.167 1.833c-.108 0-.166 2.195-.166 6.25s.058 6.25.166 6.25.167 1.028.167 2.75.062 2.75.167 2.75c.09 0 .166.15.166.334 0 .26.11.333.5.333.275 0 .5.075.5.167 0 .102.778.166 2 .166s2-.064 2-.166c0-.092.116-.167.258-.167.745 0 1.076-.742 1.076-2.41 0-.95-.068-1.59-.167-1.59-.092 0-.167-.136-.167-.302s-.15-.463-.333-.66S22 98.75 22 98.627s-.15-.328-.334-.46-.333-.374-.333-.537-.075-.296-.167-.296-.166-.225-.166-.5-.075-.5-.167-.5c-.108 0-.167-1.86-.167-5.25s.06-5.25.167-5.25c.092 0 .167-.375.167-.834s.075-.833.166-.833.167-.225.167-.5.075-.5.167-.5.166-.114.166-.254c0-.284 1.394-1.746 1.664-1.746.095 0 .408-.225.696-.5s.624-.5.748-.5S25 80.092 25 80s.08-.166.177-.166.543-.375.99-.834.867-.833.935-.833.26-.124.427-.276c.29-.263.305-.24.305.5 0 .427-.075.776-.167.776s-.166.444-.166 1-.074 1-.167 1-.167.444-.167 1-.074 1-.166 1-.167.375-.167.833-.075.834-.167.834-.166.22-.166.5-.075.536-.167.593c-.22.135-.22 2.417 0 2.417.092 0 .167.375.167.833s.075.833.166.833.167.3.167.667.075.667.167.667.166.225.166.5.075.5.167.5.167.3.167.666.075.667.166.667.167.15.167.333.075.334.167.334.166.225.166.5.075.5.167.5.167.225.167.5.075.5.166.5.167.15.167.333.075.333.167.333.166.116.166.258c0 .815.706 1.076 2.91 1.076 1.283 0 2.09-.065 2.09-.167 0-.092.115-.167.256-.167s.515-.26.833-.577c.72-.72.9-2.756.245-2.756-.184 0-.334-.075-.334-.167s-.15-.166-.333-.166-.333-.075-.333-.167-.15-.167-.334-.167-.333-.075-.333-.166-.115-.167-.256-.167c-.33 0-1.41-1.08-1.41-1.41 0-.14-.075-.256-.166-.256-.105 0-.167-1.083-.167-2.916s.062-2.917.167-2.917c.09 0 .166-.3.166-.667s.075-.666.167-.666.167-.225.167-.5.075-.5.166-.5.167-.21.167-.464c0-.272.138-.562.333-.703.184-.132.334-.34.334-.463s.45-.664 1-1.204 1-1.066 1-1.17.3-.477.666-.83.667-.723.667-.825.224-.426.498-.72l1.012-1.12c.33-.375.544-.51.6-.375.047.114.304.208.572.208s.486.075.486.167.15.166.333.166.333.075.333.167.225.167.5.167.5.075.5.166.225.167.5.167.5.075.5.167.225.166.5.166.5.075.5.167.15.167.334.167.333.075.333.166.225.167.5.167.5.075.5.167.225.166.5.166.5.075.5.167.296.167.657.167.703.075.76.166.436.167.843.167h.74v.667c0 .366.075.666.167.666s.166.333.166.74.075.787.167.844.167.473.167.926.075.824.166.824.167.408.167.906.066.948.147.998.2.73.265 1.5.186 1.42.27 1.42.15 3.537.15 8.583c0 5.61.058 8.584.167 8.584.1 0 .167.61.167 1.5s.068 1.5.166 1.5c.092 0 .167.118.167.262 0 .63.398.738 2.738.738 1.397 0 2.262-.064 2.262-.167 0-.092.116-.167.258-.167.405 0 1.075-.774 1.075-1.242 0-.233.075-.424.167-.424s.167-.375.167-.834-.075-.833-.167-.833-.167-.15-.167-.333-.075-.334-.166-.334-.167-.118-.167-.262c0-.303-.4-.738-.662-.738-.71 0-1.005-.778-1.005-2.66 0-1.116.066-1.84.167-1.84.11 0 .167-3.446.167-10.005V79.99l.577-.578c.318-.317.666-.577.773-.577s.334-.162.506-.36.368-.3.436-.228.03.167-.084.208c-.156.055-.208.79-.208 2.894 0 1.768-.062 2.82-.167 2.82s-.167 1.083-.167 2.917S58.104 90 58 90s-.167 1-.167 2.667-.062 2.667-.167 2.667c-.09 0-.166.15-.166.333s.075.333.166.333.167.225.167.5.075.5.167.5.166.15.166.334.075.333.167.333.167.225.167.5.075.5.166.5.167.15.167.333.075.334.167.334.166.3.166.666.075.667.167.667.167.112.167.25-.075.25-.167.25-.167.3-.167.667.075.666.167.666.167.375.167.834.075.833.166.833.167.15.167.333.075.334.167.334.166.115.166.255c0 .507 1.112 1.41 1.735 1.41.318 0 .625.075.682.167.134.218 1.917.218 1.917 0 0-.092.377-.167.84-.167.735 0 .9-.07 1.416-.577l.578-.578v-3.353l-.71-.704c-.392-.388-.973-.905-1.292-1.15-1.078-.83-1.497-1.258-1.497-1.53 0-.15-.075-.272-.167-.272-.103 0-.166-.945-.166-2.5s.063-2.5.166-2.5.167-.723.167-1.834c0-1.008.068-1.833.152-1.833s.2-.656.257-1.458.178-1.59.265-1.748.16-.81.16-1.45.075-1.205.167-1.262.167-.66.167-1.343c0-.716.07-1.24.166-1.24s.167-.5.167-1.167.07-1.166.167-1.166.166-.44.166-1 .075-1.037.167-1.094.167-.506.167-1 .075-.943.166-1 .167-.473.167-.926.075-.824.167-.824.166-.375.166-.833.075-.833.167-.833.167-.225.167-.5.075-.5.166-.5c.295 0 .185-.838-.125-.95-.593-.213-2.582-2.398-2.816-3.093-.053-.16-.164-.292-.245-.292s-.147-.225-.147-.5-.075-.5-.167-.5-.166-.143-.166-.32-.08-.347-.18-.38-.152-.317-.118-.638l.063-.58.2.416c.1.23.294.56.41.738.35.535 2.274 2.43 2.47 2.43.1 0 .47.3.823.667s.73.666.837.666.406.225.663.5.57.5.697.5.338.15.47.334.344.333.47.333.44.225.697.5.57.5.696.5.338.15.47.333.374.334.537.334.297.075.297.166.133.167.296.167.405.15.537.333.357.334.5.334.368.15.5.333.374.333.537.333.296.062.296.137c0 .16 1.287 1.03 1.522 1.03.088 0 .32.15.517.333s.456.334.576.334.22.075.22.166.133.167.296.167.405.15.537.333.357.334.5.334.368.15.5.333.374.333.537.333.296.075.296.167.15.167.334.167.333.075.333.166.15.167.333.167.334.075.334.167.225.166.5.166.5.075.5.167.225.167.5.167.5.075.5.166c0 .098.555.167 1.333.167s1.333-.07 1.333-.167c0-.09.225-.166.5-.166s.5-.075.5-.167.116-.167.257-.167C88.9 77.5 92 74.12 92 73.6c0-.146.075-.265.166-.265s.167-.15.167-.334.075-.333.167-.333.166-.15.166-.333.075-.334.167-.334.167-.15.167-.333.075-.333.166-.333.167-.225.167-.5.075-.5.167-.5.166-.225.166-.5.075-.5.167-.5.167-.225.167-.5.075-.5.166-.5.167-.3.167-.667.075-.667.167-.667.166-.444.166-1 .074-1 .167-1c.1 0 .167-.666.167-1.666s.066-1.667.166-1.667.167-.663.167-1.657c0-.925-.074-1.702-.167-1.76S95 57.446 95 56.584s-.075-1.6-.167-1.667-.167-.4-.167-.76-.075-.657-.166-.657-.167-.3-.167-.666-.075-.667-.167-.667-.166-.225-.166-.5-.075-.5-.167-.5-.167-.15-.167-.333-.075-.334-.166-.334-.167-.15-.167-.333-.075-.333-.167-.333-.166-.102-.166-.226-.225-.46-.5-.748-.5-.582-.5-.654c0-.195-.64-.706-.882-.706-.116 0-.32-.15-.452-.333-.14-.196-.43-.333-.703-.333-.255 0-.463-.075-.463-.167 0-.1-.61-.167-1.5-.167s-1.5.068-1.5.167-.667.167-1.667.167-1.667.066-1.667.166-.666.167-1.666.167-1.667.067-1.667.167-.61.166-1.5.166-1.5.068-1.5.167-.528.167-1.25.167h-1.25V43.75c0-2.61-.06-4.083-.167-4.083-.09 0-.166-.115-.166-.256 0-.38-1.102-1.41-1.507-1.41-.43 0-1.013-.52-.7-.625.114-.038.207-.196.207-.352s.15-.39.333-.523.333-.373.333-.536.075-.297.167-.297.167-.133.167-.297.15-.404.333-.536c.196-.14.333-.432.333-.704 0-.255.075-.463.167-.463s.167-.146.167-.323.075-.37.166-.427.167-.324.167-.593.075-.5.167-.5.166-.225.166-.5.075-.5.167-.5S75 30.46 75 30s.075-.833.166-.833c.1 0 .167-.667.167-1.667s.067-1.666.167-1.666.166-.5.166-1.167-.07-1.167-.166-1.167-.167-.666-.167-1.666-.067-1.667-.167-1.667c-.09 0-.166-.3-.166-.667s-.075-.666-.167-.666-.167-.338-.167-.75-.075-.75-.166-.75-.167-.225-.167-.5-.075-.5-.167-.5-.166-.225-.166-.5-.075-.5-.167-.5-.167-.15-.167-.334-.075-.333-.166-.333-.167-.208-.167-.463c0-.272-.138-.563-.333-.704-.184-.132-.334-.373-.334-.536s-.075-.297-.166-.297-.167-.133-.167-.297-.15-.404-.333-.536-.334-.357-.334-.5-.15-.368-.333-.5-.333-.338-.333-.457C71 10.095 68.905 8 68.623 8c-.12 0-.325-.15-.457-.333s-.357-.333-.5-.333-.368-.15-.5-.334-.373-.333-.536-.333-.297-.075-.297-.167-.15-.166-.333-.166-.334-.075-.334-.167S65.44 6 65.166 6s-.5-.075-.5-.166-.262-.167-.583-.167-.583-.075-.583-.167-.375-.166-.834-.166-.833-.075-.833-.167C61.833 5.064 61 5 59.666 5s-2.166.064-2.166.167c0 .095-.5.167-1.167.167s-1.167.07-1.167.166-.225.167-.5.167-.5.075-.5.167-.225.166-.5.166-.5.075-.5.167-.15.167-.333.167-.333.075-.333.166-.15.167-.334.167-.333.075-.333.167S51.7 7 51.536 7s-.404.15-.536.334-.375.333-.54.333c-.34 0-2.794 2.38-2.794 2.71 0 .118-.15.324-.333.456s-.333.373-.333.536-.075.297-.167.297-.167.118-.167.262c0 .252-.376.738-.57.738-.052 0-.095-.15-.095-.333S45.925 12 45.833 12s-.167-.3-.167-.666-.075-.667-.166-.667-.167-.15-.167-.333-.075-.334-.167-.334S45 9.775 45 9.5s-.075-.5-.167-.5-.167-.15-.167-.333-.075-.333-.166-.333-.167-.15-.167-.334-.075-.333-.167-.333S44 7.534 44 7.37s-.15-.404-.334-.536-.333-.344-.333-.47-.225-.44-.5-.697-.5-.554-.5-.66c0-.257-1.884-2.174-2.136-2.174-.11 0-.197-.063-.197-.14 0-.168-1.954-1.195-2.274-1.195-.124 0-.226-.075-.226-.166s-.15-.167-.334-.167-.333-.075-.333-.167-.3-.166-.667-.166S35.5.76 35.5.667C35.5.56 34.222.5 32 .5s-3.5.06-3.5.167m2.416 2.167c.057.09.238.166.403.166 1.805 0 5.654 3.894 7.332 7.417 4.963 10.417 2.47 23.176-4.996 25.56-1.385.442-5.49-.318-5.49-1.016 0-.07-.116-.127-.257-.127-.886 0-4.146-3.98-5.392-6.584l-.868-1.79c-.082-.16-.15-.404-.15-.544a1.43 1.43 0 0 0-.151-.544c-.2-.404-.7-2.305-1.043-4.04-.285-1.446-.278-7.43.01-8.667.392-1.68.548-2.248.7-2.54a1.4 1.4 0 0 0 .15-.526c0-.27.562-1.47 1.367-2.916.52-.934 2.616-2.905 3.55-3.337.458-.21.946-.447 1.083-.524.36-.2 3.626-.192 3.75.01m27.74 5.024c3.067.987 6.276 3.68 7.71 6.467.12.234.258.463.305.51.1.086 1.1 2.16 1.34 2.75.632 1.556 1.168 3.62 1.646 6.343 1.394 7.925-2.007 16.27-7.572 18.585-3.216 1.337-8.108-.607-10.884-4.326-.247-.33-.566-.732-.708-.9-.458-.51-1.802-3.06-2.307-4.38l-.51-1.333c-.222-.582-.47-1.47-.672-2.417l-.347-1.514c-.398-1.578-.342-7.303.092-9.403 1.514-7.333 6.874-12 11.91-10.392M25.04 39.103l8.46 2.723c.687.206 1.38.443 1.54.525s.404.15.544.15.385.068.544.15.852.316 1.54.52a36.19 36.19 0 0 1 1.584.497c.183.07.896.295 1.583.5s1.4.43 1.583.5a37.82 37.82 0 0 0 1.584.5c.687.205 1.4.43 1.583.5s.67.22 1.083.332.9.263 1.084.333.896.294 1.583.498 1.38.438 1.54.52a1.83 1.83 0 0 0 .699.149c.225 0 .455.075.512.167s.287.167.512.167a1.85 1.85 0 0 1 .699.147c.16.08.507.25.775.375s.78.528 1.14.894c1.292 1.314 1.206.453 1.206 12.123v10.455l-.626.627c-.653.652-2.842.927-3.488.438-.12-.09-.556-.268-.97-.392s-.82-.287-.908-.363-.295-.138-.46-.138-.45-.075-.633-.166l-.662-.334c-.182-.09-.467-.166-.634-.166s-.373-.06-.46-.133-.46-.228-.825-.344c-.698-.222-1.3-.46-1.8-.71-.16-.08-.404-.148-.544-.148s-.384-.07-.544-.153-.72-.31-1.247-.5l-1.834-.67-7.958-2.922-5.583-2.086c-.184-.074-.596-.224-.917-.334s-.752-.268-.958-.35l-.75-.3c-.207-.083-.638-.24-.96-.35-2.558-.88-3.613-1.625-4.186-2.964-.295-.686-.314-1.3-.314-10.03 0-10.67-.016-10.547 1.504-11.154.675-.27.85-.232 4.37.917M309.666 46c0 .093-.444.167-1 .167s-1 .074-1 .167-.3.166-.666.166-.667.075-.667.167-.225.167-.5.167-.5.075-.5.166-.225.167-.5.167-.5.075-.5.167-.146.166-.323.166-.37.075-.427.167-.25.167-.427.167-.323.075-.323.166-.133.167-.297.167-.404.15-.536.333-.357.334-.5.334-.368.15-.5.333-.337.333-.456.333c-.28 0-3.71 3.43-3.71 3.712 0 .118-.15.323-.333.455s-.334.374-.334.537-.075.296-.166.296-.167.15-.167.334-.075.333-.167.333-.166.15-.166.333-.075.334-.167.334-.167.15-.167.333-.075.333-.166.333-.167.225-.167.5-.075.5-.167.5-.166.22-.166.5-.075.537-.167.594-.167.398-.167.76S294.09 60 294 60c-.098 0-.167.556-.167 1.334s-.07 1.333-.167 1.333-.166.778-.166 2 .064 2 .166 2 .167.556.167 1.333.07 1.334.167 1.334c.09 0 .166.3.166.666s.075.667.167.667.167.225.167.5.075.5.166.5.167.225.167.5.075.5.167.5.166.146.166.323.075.37.167.427.167.25.167.427.075.323.166.323.167.15.167.333.075.334.167.334.166.133.166.296.15.405.334.537.333.344.333.47.225.44.5.697.5.55.5.653c0 .244 1.77 2.013 2.013 2.013.103 0 .397.225.654.5s.587.5.733.5.267.075.267.167.115.167.257.167.418.15.614.333.494.333.66.333.302.075.302.167.15.167.333.167.334.075.334.166.225.167.5.167.5.075.5.167.225.166.5.166.5.075.5.167.225.167.5.167.5.075.5.166.375.167.833.167.833.075.833.167c0 .106 1.334.166 3.667.166s3.667-.06 3.667-.166c0-.092.375-.167.833-.167s.833-.075.833-.167.263-.166.584-.166.583-.075.583-.167.225-.167.5-.167.5-.075.5-.166.15-.167.333-.167.334-.075.334-.167.225-.166.5-.166.5-.075.5-.167.133-.167.296-.167.405-.15.537-.333.357-.333.5-.333.368-.15.5-.334.342-.333.467-.333.514-.3.866-.667.725-.666.828-.666c.243 0 1.006-.763 1.006-1.006 0-.103.3-.475.666-.828s.667-.742.667-.866.15-.335.333-.467.334-.374.334-.537.075-.296.166-.296.167-.15.167-.334.075-.333.167-.333.166-.146.166-.323.075-.37.167-.427.167-.25.167-.427.075-.323.166-.323.167-.225.167-.5.075-.5.167-.5.166-.3.166-.667.075-.666.167-.666.167-.294.167-.653.082-.68.182-.714c.1-.036.22-.78.275-1.852.05-.985.155-1.83.234-1.88.184-.114.185-1.022.001-1.135-.078-.048-.2-.897-.25-1.885s-.184-1.823-.276-1.854-.165-.344-.165-.698-.075-.69-.167-.746-.167-.4-.167-.76-.075-.657-.166-.657-.167-.15-.167-.333-.075-.333-.167-.333-.166-.225-.166-.5-.075-.5-.167-.5-.167-.15-.167-.334-.075-.333-.166-.333-.167-.133-.167-.297-.15-.404-.333-.536-.334-.357-.334-.5-.15-.368-.333-.5-.333-.337-.333-.456c0-.28-3.097-3.378-3.378-3.378-.12 0-.324-.15-.456-.333s-.357-.333-.5-.333-.368-.15-.5-.334-.373-.333-.536-.333-.297-.075-.297-.167-.15-.166-.333-.166-.334-.075-.334-.167-.225-.167-.5-.167-.5-.075-.5-.166-.15-.167-.333-.167-.333-.075-.333-.167-.22-.166-.5-.166-.537-.075-.594-.167-.398-.167-.76-.167-.656-.075-.656-.166-.445-.167-1-.167-1-.074-1-.167c0-.104-1-.166-2.667-.166s-2.667.062-2.667.166m39.5.334c0 .09-.375.166-.833.166s-.833.075-.833.167-.225.167-.5.167-.5.075-.5.166-.225.167-.5.167-.5.075-.5.167-.225.166-.5.166-.5.075-.5.167-.15.167-.334.167-.333.075-.333.166-.105.167-.234.167c-.316 0-1.6.694-1.6.864 0 .075-.12.136-.267.136s-.476.225-.733.5-.55.5-.654.5c-.242 0-2.346 2.104-2.346 2.347 0 .102-.225.396-.5.653s-.5.57-.5.697-.15.338-.334.47-.333.373-.333.536-.075.297-.167.297-.166.15-.166.333-.075.334-.167.334-.167.15-.167.333-.075.333-.166.333-.167.225-.167.5-.075.5-.167.5-.166.22-.166.5-.075.537-.167.594-.167.398-.167.76-.075.656-.166.656-.167.5-.167 1.167-.07 1.167-.167 1.167c-.103 0-.166.89-.166 2.333s.063 2.333.166 2.333c.096 0 .167.5.167 1.167s.07 1.167.167 1.167.166.3.166.666.075.667.167.667.167.225.167.5.075.5.166.5.167.225.167.5.075.5.167.5.166.15.166.333.075.334.167.334.167.105.167.234c0 .315.693 1.6.864 1.6.075 0 .136.1.136.225s.225.46.5.75.5.6.5.694c0 .224 2.108 2.332 2.33 2.332.095 0 .407.225.695.5s.624.5.748.5.226.075.226.167.15.166.333.166.333.075.333.167.113.167.25.167.25.075.25.166.15.167.334.167.333.075.333.167.225.166.5.166.5.075.5.167.15.167.333.167.334.075.334.166.225.167.5.167.5.075.5.167.3.166.666.166.667.075.667.167.375.167.833.167.834.075.834.166c0 .106 1.222.167 3.333.167s3.333-.06 3.333-.167c0-.09.37-.166.824-.166s.87-.075.926-.167.4-.167.76-.167.657-.075.657-.166.225-.167.5-.167.5-.075.5-.167.15-.166.333-.166.334-.075.334-.167.15-.167.333-.167.333-.075.333-.166.15-.167.334-.167.333-.075.333-.167.15-.166.333-.166.334-.075.334-.167.12-.167.266-.167.477-.225.734-.5.55-.5.653-.5c.244 0 2.013-1.77 2.013-2.013 0-.102.225-.396.5-.653s.5-.57.5-.697.15-.338.334-.47.333-.37.333-.527.075-.333.167-.4.166-.286.166-.5.075-.406.167-.406.167-.188.167-.417.075-.417.166-.417.167-.225.167-.5.075-.5.167-.5.166-.3.166-.666.075-.667.167-.667.167-.5.167-1.167v-1.166h-9.667V69c0 .367-.075.667-.167.667s-.166.133-.166.297-.15.404-.334.536-.333.34-.333.458c0 .282-1.278 1.56-1.966 1.966-.294.173-.534.374-.534.446s-.183.13-.407.13-.453.075-.5.167-.323.167-.593.167-.5.075-.5.166c0 .102-.778.167-2 .167s-2-.065-2-.167c0-.09-.225-.166-.5-.166s-.5-.075-.5-.167-.15-.167-.333-.167-.334-.075-.334-.166-.084-.167-.188-.167-.465-.244-.804-.542-.78-.652-.98-.786-.362-.323-.363-.417-.21-.397-.463-.672c-.543-.586-1.536-2.475-1.536-2.92 0-.17-.064-.35-.143-.397s-.187-.52-.242-1.05-.178-.987-.274-1.02c-.216-.072-.234-1.364-.018-1.364.086 0 .21-.526.272-1.17s.18-1.21.26-1.26.145-.268.145-.486.075-.444.167-.5.166-.25.166-.427.075-.323.167-.323.167-.15.167-.334.075-.333.166-.333.167-.114.167-.253c0-.33 2.418-2.747 2.747-2.747.14 0 .253-.075.253-.167s.15-.166.333-.166.334-.075.334-.167.225-.167.5-.167.5-.075.5-.166.444-.167 1-.167 1-.074 1-.167.15-.166.333-.166.333.075.333.166.44.167 1 .167 1.037.075 1.094.167.286.166.5.166.406.075.406.167.146.167.324.167.37.075.426.166.213.167.347.167c.302 0 2.07 1.745 2.07 2.043 0 .12.15.325.333.457a.91.91 0 0 1 .334.703c0 .255.075.464.166.464s.167.112.167.25c0 .216.648.25 4.833.25H370v-.657c0-.36-.075-.703-.167-.76s-.167-.4-.167-.76-.075-.657-.166-.657-.167-.3-.167-.666-.075-.667-.167-.667-.166-.15-.166-.333-.075-.334-.167-.334-.167-.15-.167-.333-.075-.333-.166-.333-.167-.15-.167-.334-.075-.333-.167-.333-.166-.15-.166-.333-.075-.334-.167-.334-.167-.12-.167-.266-.225-.477-.5-.734-.5-.55-.5-.654c0-.244-1.434-1.68-1.678-1.68-.104 0-.398-.225-.655-.5s-.57-.5-.697-.5-.338-.15-.47-.333-.373-.334-.536-.334-.297-.075-.297-.166-.15-.167-.333-.167-.334-.075-.334-.167-.15-.166-.333-.166-.333-.075-.333-.167-.15-.167-.334-.167-.333-.075-.333-.166-.225-.167-.5-.167-.5-.075-.5-.167-.296-.166-.657-.166-.703-.075-.76-.167-.398-.167-.76-.167-.656-.075-.656-.166c0-.106-1.334-.167-3.667-.167s-3.667.06-3.667.167m-90.5 18.333v18.167h8.584c5.61 0 8.583-.058 8.583-.167 0-.092.375-.167.833-.167s.834-.075.834-.166.337-.167.75-.167.75-.075.75-.167.225-.166.5-.166.5-.075.5-.167.15-.167.333-.167.333-.075.333-.166.15-.167.334-.167.333-.075.333-.167.15-.166.333-.166.334-.075.334-.167.133-.167.296-.167.405-.15.537-.333.344-.333.47-.333.44-.225.697-.5.55-.5.654-.5c.244 0 1.68-1.435 1.68-1.68 0-.103.225-.398.5-.655s.5-.552.5-.657.15-.35.333-.548.334-.456.334-.576.075-.22.166-.22.167-.15.167-.333.075-.333.167-.333.166-.188.166-.417.075-.417.167-.417.167-.15.167-.333.075-.333.166-.333.167-.225.167-.5.075-.5.167-.5.166-.225.166-.5.075-.5.167-.5.167-.375.167-.834.075-.833.166-.833.167-.5.167-1.167.07-1.166.167-1.166.166-.667.166-1.667S290.6 63 290.5 63s-.167-.5-.167-1.166-.07-1.167-.167-1.167-.166-.375-.166-.833-.075-.834-.167-.834-.167-.262-.167-.583-.075-.583-.166-.583-.167-.225-.167-.5-.075-.5-.167-.5-.166-.15-.166-.334-.075-.333-.167-.333-.167-.15-.167-.333-.075-.334-.166-.334-.167-.15-.167-.333-.075-.333-.167-.333-.166-.134-.166-.297-.15-.405-.334-.537-.333-.343-.333-.47-.225-.44-.5-.696-.5-.552-.5-.655c0-.244-1.435-1.68-1.68-1.68-.103 0-.397-.225-.654-.5s-.57-.5-.697-.5-.338-.15-.47-.333-.374-.333-.537-.333-.296-.075-.296-.167-.15-.167-.334-.167-.333-.075-.333-.166-.15-.167-.333-.167-.334-.075-.334-.167-.15-.166-.333-.166-.333-.075-.333-.167-.225-.167-.5-.167-.5-.075-.5-.166-.338-.167-.75-.167-.75-.075-.75-.167-.375-.166-.834-.166-.833-.075-.833-.167c0-.11-2.972-.167-8.583-.167h-8.584v18.167M89.416 50.795c1.026.524 2.75 2.96 2.75 3.886 0 .165.067.34.15.39s.19.336.243.635l.304 1.7c.274 1.53.272 4.97-.004 6.75l-.306 2.043c-.048.344-.155.667-.237.718s-.15.276-.15.5a1.85 1.85 0 0 1-.147.699 9.89 9.89 0 0 0-.311.706c-.367.933-.593 1.437-.82 1.833-.133.23-.283.548-.334.708s-.158.292-.24.292-.148.1-.148.22c0 .346-1.7 1.99-2.486 2.404-4.672 2.46-8.23-5.902-6.325-14.875 1.373-6.475 4.893-10.24 8.06-8.622M274.5 55.667c0 .092.22.167.5.167s.536.075.593.166.252.167.433.167.492.15.69.333.458.334.58.334c.288 0 1.715 1.422 1.715 1.708 0 .12.15.326.333.458s.333.37.333.527.075.333.167.4.167.25.167.427.075.323.166.323.167.225.167.5.075.5.167.5.166.3.166.667.075.666.167.666c.1 0 .167.667.167 1.667s-.067 1.667-.167 1.667c-.092 0-.167.3-.167.666s-.075.667-.166.667-.167.225-.167.5-.075.5-.167.5-.166.15-.166.333-.075.334-.167.334-.167.133-.167.296-.15.405-.333.537-.333.338-.333.458c0 .22-1.397 1.71-1.605 1.71-.063 0-.36.187-.66.416s-.7.417-.89.417-.344.075-.344.167-.225.166-.5.166-.5.075-.5.167c0 .105-1.056.167-2.834.167h-2.833V55.5h2.833c1.778 0 2.834.062 2.834.167m39.833 0c0 .092.22.167.5.167s.537.075.593.166.286.167.5.167.407.075.407.167.112.166.25.166.25.075.25.167.114.167.253.167c.33 0 2.414 2.084 2.414 2.413 0 .14.075.253.166.253s.167.15.167.334.075.333.167.333.166.188.166.417.075.416.167.416.167.225.167.5.075.5.166.5.167.375.167.834.075.833.167.833.166.444.166 1-.074 1-.166 1-.167.375-.167.833-.075.834-.167.834-.166.3-.166.666-.075.667-.167.667-.167.15-.167.333-.075.334-.166.334-.167.12-.167.266-.225.477-.5.734-.5.553-.5.657c0 .222-.75 1.01-.96 1.01-.08 0-.288.135-.466.3s-.567.444-.865.62-.54.378-.54.45-.225.13-.5.13-.5.075-.5.167-.3.167-.667.167-.667.075-.667.166c0 .098-.555.167-1.333.167S311 74.098 311 74c0-.09-.3-.166-.667-.166s-.667-.075-.667-.167-.208-.167-.463-.167c-.272 0-.562-.137-.703-.333-.132-.183-.307-.333-.388-.333-.137 0-.475-.25-1.65-1.212-.25-.204-.456-.452-.458-.55s-.197-.36-.432-.58c-.41-.384-1.407-2.256-1.407-2.64 0-.102-.075-.185-.166-.185s-.167-.444-.167-1-.074-1-.167-1-.166-.444-.166-1 .074-1 .166-1 .167-.375.167-.833.075-.834.167-.834.166-.12.166-.266c0-.36.87-2.234 1.035-2.234.073 0 .132-.114.132-.253 0-.308 2.073-2.413 2.377-2.413.12 0 .324-.15.456-.334.14-.195.432-.333.704-.333.255 0 .463-.075.463-.167s.225-.166.5-.166.5-.075.5-.167c0-.102.778-.167 2-.167s2 .065 2 .167m-251.167.5c0 .178-.075.37-.166.427s-.167-.082-.167-.324c0-.234.075-.426.167-.426s.166.145.166.323m-.333 3.26c0 .504-.075.917-.167.917s-.166-.413-.166-.917.075-.917.166-.917.167.413.167.917m.33 3.125c.001.252-.073.458-.164.458s-.166-.318-.164-.708c.001-.52.045-.64.164-.458.09.137.162.456.164.708m149.002 31.292c0 .09-.225.166-.5.166s-.5.075-.5.167-.135.167-.3.167c-.387 0-1.533 1.045-1.533 1.397 0 .148-.075.27-.167.27s-.166.15-.166.334-.075.333-.167.333c-.103 0-.167.886-.167 2.323 0 1.37.07 2.366.167 2.427.092.057.167.272.167.48 0 .455 1.426 1.938 1.864 1.938.166 0 .302.075.302.166s.225.167.5.167.5.075.5.167.375.166.834.166.833-.075.833-.166.3-.167.667-.167.666-.075.666-.167.116-.166.258-.166c.63 0 1.742-1.655 1.742-2.59 0-.318.075-.578.167-.578.1 0 .167-.667.167-1.667s-.067-1.666-.167-1.666c-.092 0-.167-.225-.167-.5s-.075-.5-.166-.5-.167-.15-.167-.334-.075-.333-.167-.333-.166-.118-.166-.262c0-.32-.396-.738-.702-.738-.123 0-.333-.15-.465-.333-.167-.232-.43-.334-.87-.334-.347 0-.63-.075-.63-.166s-.375-.167-.833-.167-.834.075-.834.167m9.667 0c0 .09-.3.166-.667.166s-.666.075-.666.167-.116.167-.258.167c-.315 0-1.076.734-1.076 1.04 0 .12-.15.33-.333.46-.196.14-.333.43-.333.703 0 .255-.075.463-.167.463-.102 0-.167.775-.167 2 0 1.147.07 2.034.167 2.094s.167.323.167.593.075.5.166.5.167.115.167.256c0 .33 1.08 1.41 1.41 1.41.14 0 .256.075.256.166s.22.167.5.167.536.075.593.167.51.166 1 .166.907-.075.907-.166.3-.167.666-.167.667-.075.667-.167.084-.166.186-.166c.21 0 1.314-1.155 1.314-1.374 0-.842-1.314-1.14-2.026-.46-.33.317-.698.5-1 .5-.26 0-.475.075-.475.167s-.15.167-.333.167-.334-.075-.334-.167-.15-.167-.333-.167-.333-.075-.333-.166-.118-.167-.262-.167c-.337 0-.738-.4-.738-.738 0-.144-.075-.262-.167-.262s-.167-.22-.167-.5-.075-.537-.166-.593-.167-.55-.167-1.094.074-1 .167-1 .166-.225.166-.5.075-.5.167-.5.167-.118.167-.262c0-.336.4-.738.738-.738.144 0 .262-.075.262-.166s.15-.167.333-.167.333-.075.333-.167.146-.166.324-.166.37.075.426.166.275.167.485.167.618.225.906.5c.712.68 2.026.382 2.026-.46 0-.22-1.105-1.373-1.314-1.373-.102 0-.186-.075-.186-.167s-.3-.167-.667-.167-.666-.075-.666-.166-.375-.167-.834-.167-.833.075-.833.167m135.833 0c0 .09-.206.172-.458.18-.6.015-1.416.496-1.623.956-.1.2-.222.365-.292.365s-.127.145-.127.323-.075.37-.166.427-.167.436-.167.843.075.74.167.74.166.115.166.256c0 .468 1.1 1.41 1.66 1.41.28 0 .506.075.506.166s.444.167 1 .167 1 .074 1 .167.15.166.333.166.334.075.334.167.15.167.333.167a.29.29 0 0 1 .333.333c0 .183.075.333.167.333s.167.113.167.25-.075.25-.167.25-.167.15-.167.334a.29.29 0 0 1-.333.333c-.183 0-.333.075-.333.167s-.225.166-.5.166-.5.075-.5.167-.146.167-.324.167-.37-.075-.426-.167-.4-.167-.76-.167-.657-.075-.657-.166-.12-.167-.266-.167-.477-.225-.734-.5c-.734-.786-1-.674-1 .424 0 .964.476 1.743 1.066 1.743.136 0 .294.075.35.166s.398.167.76.167.656.075.656.167.408.166.907.166.953-.075 1-.166.4-.167.76-.167.657-.057.657-.126.21-.22.47-.334c2.1-.93 1.17-5.373-1.124-5.373-.18 0-.372-.075-.43-.167s-.506-.167-1-.167-.943-.075-1-.166-.216-.167-.355-.167c-.425 0-.728-.446-.728-1.07 0-.485.062-.596.333-.596.184 0 .334-.075.334-.166s.145-.167.323-.167.37-.075.427-.167.248-.166.426-.166.324.075.324.166.3.167.666.167.667.075.667.167.133.166.297.166.404.15.536.334c.486.674.834.426.834-.596 0-.955-.236-1.404-.738-1.404-.144 0-.262-.075-.262-.167s-.3-.167-.667-.167-.667-.075-.667-.166-.444-.167-1-.167-1 .074-1 .167m-253.89.277c-.138.14-.145.94-.01 1.292.083.216.4.264 1.75.264h1.65v8.5h1.667v-8.5h3V94h-3.972c-2.185 0-4.022.05-4.084.11m8.723 4.973v5.083h2v-4.5h4.5v4.5h1.666V94H119v4h-4.5v-4h-2v5.084m9.833 0v5.083H129V102.5h-5v-2.833h4.333V98H124v-2.333h5V94h-6.667v5.084m11.5 0v5.083h1.667V94h-1.667v5.084m3 0v5.083h1.667v-3.417c0-1.88.043-3.416.095-3.416.195 0 .57.485.57.738 0 .144.075.262.167.262s.167.133.167.296.15.405.333.537.333.357.333.5.15.368.334.5.333.337.333.456c0 .262.314.827.708 1.275.16.183.292.416.292.52s.13.333.292.5.398.53.528.782c.22.426.31.458 1.29.458H145V94h-1.834v3.417c0 1.88-.048 3.417-.106 3.417-.187 0-.55-.573-.555-.875-.003-.16-.08-.292-.172-.292s-.167-.098-.167-.22-.15-.38-.333-.576-.333-.457-.333-.578-.15-.328-.334-.46-.333-.374-.333-.537-.075-.297-.167-.297-.166-.133-.166-.296-.15-.405-.334-.537-.333-.357-.333-.5-.15-.368-.333-.5-.334-.342-.334-.465c0-.466-.472-.702-1.404-.702h-.93v5.084m8.833-4.25v.833h3v8.5h2v-8.5h3V94h-8v.834m8.667 4.25v5.083h7.167V102.5h-5.167v-2.833h4.5V98h-4.5v-2.333h5.167V94h-7.167v5.084m7.833 0v5.083h2V100H165c.64 0 .833.06.833.257 0 .142.15.418.333.615s.334.487.334.646.056.313.125.343.305.412.526.848.464.79.542.79.14.15.14.334c0 .296.11.333 1 .333s1-.037 1-.333c0-.184-.075-.334-.167-.334s-.166-.15-.166-.333-.075-.333-.167-.333-.167-.134-.167-.297-.15-.405-.333-.537-.333-.373-.333-.536-.075-.297-.167-.297-.167-.15-.167-.333-.075-.334-.166-.334-.167-.106-.167-.236-.093-.267-.207-.305c-.12-.04.154-.42.667-.92l.873-.85v-2.697L167.675 94h-5.51v5.084m8.41-4.873c-.044.115-.06 2.384-.036 5.04l.044 4.832 1.75.1v-3.425c0-1.884.043-3.425.095-3.425.196 0 .572.485.572.738 0 .144.075.262.166.262s.167.133.167.296.15.405.333.537.334.357.334.5.15.368.333.5.333.33.333.438c0 .288.705 1.562.865 1.562.074 0 .135.098.135.22s.15.38.334.576.333.44.333.543c0 .427.5.662 1.405.662h.928V94H177v3.417c0 3.777-.042 3.893-.834 2.333-.302-.596-.613-1.083-.69-1.083s-.142-.098-.142-.22-.15-.38-.333-.576-.334-.473-.334-.615S174.59 97 174.5 97s-.167-.098-.167-.218-.13-.364-.292-.542-.398-.53-.528-.78-.3-.46-.375-.46-.138-.118-.138-.262c0-.66-2.19-1.138-2.425-.527M180 99.084v5.083h6.833V102.5h-5.167v-2.833h4.852l-.102-1.583-4.75-.093v-2.324h5.167V94H180v5.084m7.166-4.25v.833h3.334v8.5h1.666v-8.5h3V94h-8v.834M200 99.084v5.083h2.666c1.667 0 2.667-.062 2.667-.167 0-.09.115-.166.256-.166.747 0 2.077-1.978 2.077-3.09 0-.41.075-.745.167-.745s.167-.444.167-1-.074-1-.167-1-.167-.3-.167-.666-.075-.667-.166-.667-.167-.15-.167-.333-.075-.334-.167-.334-.166-.116-.166-.257c0-.334-.743-1.076-1.076-1.076-.142 0-.258-.075-.258-.167s-.15-.166-.333-.166-.333-.075-.333-.167c0-.104-.945-.167-2.5-.167H200v5.084m27-1.167c0 2.5.06 3.917.166 3.917.092 0 .167.173.167.384 0 .45 1.007 1.616 1.397 1.616.15 0 .27.075.27.166s.225.167.5.167.5.075.5.167.444.166 1 .166 1-.074 1-.166.225-.167.5-.167.5-.075.5-.167.116-.166.257-.166c.332 0 .978-.648 1.406-1.41.31-.554.337-.896.337-4.51V94h-1.667v3.417c0 2.167-.06 3.417-.167 3.417-.09 0-.166.115-.166.255 0 .627-1.112 1.41-2 1.41s-2-.784-2-1.41c0-.14-.075-.255-.167-.255-.106 0-.167-1.25-.167-3.417V94H227v3.917m9.333 1.175v5.092l1.75-.1.046-2.875c.027-1.728.1-2.875.208-2.875.09 0 .163.15.163.333s.075.333.166.333.167.15.167.334.075.333.167.333.166.15.166.333.075.334.167.334.167.15.167.333.075.333.166.333.17.132.172.292c.027 1.477 2.662 1.08 2.662-.4 0-.123.075-.224.166-.224s.167-.15.167-.333.075-.334.167-.334.166-.15.166-.333.075-.333.167-.333.167-.15.167-.334.075-.333.166-.333.167-.15.167-.333.075-.334.167-.334c.105 0 .166 1.14.166 3.084v3.083h1.667V94h-1c-.89 0-1 .037-1 .334 0 .183-.075.333-.167.333s-.166.15-.166.333-.075.334-.167.334-.167.15-.167.333S243.09 96 243 96s-.167.15-.167.334-.075.333-.167.333-.166.15-.166.333-.075.334-.167.334-.167.15-.167.333S242.09 98 242 98s-.167.15-.167.334-.075.333-.167.333-.166.15-.166.333-.075.334-.167.334-.167.117-.167.26-.075.213-.166.156-.167-.248-.167-.426-.075-.324-.167-.324-.166-.15-.166-.333-.075-.333-.167-.333-.167-.15-.167-.334-.075-.333-.166-.333-.167-.15-.167-.333-.075-.334-.167-.334-.166-.15-.166-.333-.075-.333-.167-.333-.167-.15-.167-.334-.075-.333-.166-.333-.167-.15-.167-.333-.075-.334-.167-.334-.166-.118-.166-.262c0-.486-.45-.738-1.322-.738h-.845v5.092m10.833-.008v5.083H254V102.5h-5.167v-2.833h4.852l-.102-1.583-4.75-.093v-2.324H254V94h-6.834v5.084m7.834 0v5.083h1.666v-3.417c0-1.88.043-3.416.096-3.416.195 0 .57.485.57.738 0 .144.075.262.167.262s.166.133.166.296.15.405.334.537.333.357.333.5.15.368.333.5.334.32.334.42c0 .278.4 1.077.54 1.08.07 0 .125.113.125.25s.075.25.167.25.167.098.167.22.13.364.29.54a4.43 4.43 0 0 1 .528.782c.218.42.317.458 1.21.458H263V94h-1.667v3.417c0 1.88-.048 3.417-.107 3.417-.186 0-.55-.573-.554-.875-.003-.16-.08-.292-.172-.292s-.167-.098-.167-.22-.15-.38-.333-.576-.334-.457-.334-.578-.15-.328-.333-.46-.333-.374-.333-.537-.075-.297-.167-.297-.167-.133-.167-.296-.15-.405-.333-.537-.333-.357-.333-.5-.15-.368-.334-.5-.333-.342-.333-.465c0-.466-.472-.702-1.405-.702H255v5.084m8.7-4.292l.05.792 3.083.096v8.487h2v-8.5h3V94h-8.185l.05.792m11.8-.3c0 .28-.075.508-.167.508s-.167.146-.167.324-.075.37-.166.426-.167.286-.167.5-.075.407-.167.407-.166.225-.166.5-.075.5-.167.5-.167.146-.167.323-.075.37-.166.427-.167.282-.167.5-.075.443-.167.5-.166.324-.166.593-.075.5-.167.5-.167.15-.167.334-.075.333-.166.333-.167.225-.167.5-.075.5-.167.5-.166.225-.166.5-.075.5-.167.5-.167.225-.167.5v.5h2v-.5c0-.275.075-.5.167-.5s.167-.193.167-.43c0-.783.3-.904 2.32-.904h1.845v.5c0 .275.075.5.167.5s.167.193.167.428c0 .67.365.905 1.404.905.818 0 .93-.04.93-.333 0-.184-.075-.334-.167-.334s-.166-.225-.166-.5-.075-.5-.167-.5-.167-.15-.167-.333-.075-.333-.166-.333-.167-.225-.167-.5-.075-.5-.167-.5-.166-.22-.166-.5-.075-.537-.167-.594-.167-.246-.167-.42-.15-.586-.333-.912-.333-.737-.333-.912-.075-.365-.167-.42-.167-.212-.167-.345-.154-.598-.343-1.032c-.744-1.71-.648-1.618-1.787-1.673l-1.036-.05v.508m6.5 4.592v5.083h1.666V100h.762c.787 0 1.238.27 1.238.738 0 .144.075.262.167.262s.167.113.167.25.075.25.166.25.167.15.167.334.057.333.127.333.25.28.4.625c.632 1.448 2.473 2.1 2.473.875 0-.275-.075-.5-.167-.5s-.166-.133-.166-.297-.15-.404-.334-.536-.333-.374-.333-.537-.075-.297-.167-.297-.166-.15-.166-.333-.075-.333-.167-.333-.167-.15-.167-.334-.075-.333-.166-.333-.167-.187-.167-.417c0-.264.094-.416.258-.416.405 0 1.075-.775 1.075-1.243 0-.233.075-.424.167-.424s.167-.444.167-1-.074-1-.167-1-.167-.116-.167-.258c0-.333-.742-1.075-1.075-1.075-.142 0-.258-.075-.258-.167 0-.104-1-.167-2.667-.167H282v5.084m7.666-4.75c0 .183.075.333.167.333s.167.105.167.233.186.41.413.625.416.486.417.6.078.21.17.21.166.133.166.296.15.405.334.537.333.374.333.537.075.296.167.296.166.134.166.297.15.405.334.537.333.373.333.536.075.297.167.297c.103 0 .166.86.166 2.25v2.25h1.667v-2.25c0-1.39.064-2.25.167-2.25.09 0 .166-.133.166-.297s.15-.404.334-.536.333-.357.333-.5.15-.368.333-.5.334-.374.334-.537.075-.297.166-.297.167-.133.167-.296.15-.405.333-.537.334-.357.334-.5.15-.368.333-.5c.784-.565.44-1.167-.667-1.167-.847 0-1 .046-1 .297 0 .163-.15.405-.333.537s-.333.373-.333.536-.075.297-.167.297-.167.133-.167.297-.15.404-.333.536-.333.342-.333.466c0 .223-.4.7-.572.7-.052 0-.095-.098-.095-.22s-.15-.38-.333-.576-.334-.473-.334-.615S293.09 96 293 96s-.167-.098-.167-.218-.13-.364-.292-.542-.398-.53-.528-.78c-.316-.613-2.347-.72-2.347-.125m13.167 4.75v5.083h2.75c1.722 0 2.75-.062 2.75-.167 0-.09.114-.166.254-.166.33 0 1.746-1.415 1.746-1.746 0-.14.075-.254.167-.254s.166-.263.166-.584.075-.583.167-.583c.1 0 .167-.636.167-1.573 0-.87-.075-1.62-.167-1.677s-.167-.324-.167-.593-.075-.5-.166-.5-.167-.115-.167-.256-.26-.515-.578-.833-.693-.578-.833-.578-.256-.075-.256-.167-.15-.166-.333-.166-.333-.075-.333-.167c0-.104-.973-.167-2.584-.167h-2.583v5.084m12.042-4.834c-.115.13-.21.348-.21.483s-.075.294-.166.35-.167.286-.167.5-.075.406-.167.406-.166.225-.166.5-.075.5-.167.5-.167.146-.167.324-.075.37-.166.426-.167.286-.167.5-.075.407-.167.407-.166.22-.166.5-.075.537-.167.593-.167.25-.167.427-.075.323-.166.323-.167.225-.167.5-.075.5-.167.5-.166.225-.166.5-.075.5-.167.5-.167.15-.167.334-.075.333-.166.333-.167.225-.167.5v.5h2v-.5c0-.275.075-.5.167-.5s.166-.098.166-.217c0-.962.312-1.114 2.292-1.115 1.764-.001 1.875.018 1.875.332 0 .183.075.333.167.333s.166.225.166.5.075.5.167.5.167.15.167.334c0 .296.11.333 1 .333h1v-.5c0-.275-.075-.5-.167-.5s-.167-.15-.167-.333-.075-.334-.166-.334-.167-.225-.167-.5-.075-.5-.167-.5-.166-.225-.166-.5-.075-.5-.167-.5-.167-.145-.167-.323-.075-.37-.166-.427-.167-.28-.167-.5-.075-.443-.167-.5-.166-.25-.166-.428-.068-.456-.15-.616-.28-.608-.442-.997-.356-.71-.434-.71-.14-.225-.14-.5-.075-.5-.167-.5-.166-.225-.166-.5c0-.573-1.668-.77-2.125-.25m4.958.584v.833h3.333v8.5h1.667v-8.5h3V94h-8v.834m12.042-.59a.91.91 0 0 0-.209.498c0 .142-.075.257-.166.257s-.167.225-.167.5-.075.5-.167.5-.166.225-.166.5-.064.5-.142.5-.273.32-.433.71-.36.838-.442.997-.15.404-.15.544c0 .247-.07.424-.474 1.206a1.87 1.87 0 0 0-.193.709c0 .184-.075.335-.166.335s-.167.225-.167.5-.075.5-.167.5-.166.15-.166.334-.075.333-.167.333-.167.225-.167.5v.5h2v-.5c0-.275.075-.5.167-.5s.167-.15.167-.333.075-.334.166-.334.167-.15.167-.333c0-.314.11-.333 1.917-.333s1.916.02 1.916.333c0 .183.075.333.167.333s.167.225.167.5.075.5.166.5.167.15.167.334c0 .296.11.333 1 .333h1v-.5c0-.275-.075-.5-.167-.5s-.166-.15-.166-.333-.075-.334-.167-.334-.167-.225-.167-.5-.075-.5-.166-.5-.167-.225-.167-.5-.075-.5-.167-.5-.166-.187-.166-.416-.075-.417-.167-.417-.167-.225-.167-.5-.075-.5-.166-.5-.167-.225-.167-.5-.075-.5-.167-.5-.166-.183-.166-.407-.075-.453-.167-.5-.167-.248-.167-.426S334.59 96 334.5 96s-.167-.225-.167-.5-.07-.5-.156-.5-.18-.206-.208-.458c-.063-.547-1.68-.776-2.094-.297m5.79 4.84v5.083h3c1.89 0 3-.062 3-.167 0-.09.118-.166.262-.166 1.272 0 1.782-3.488.655-4.478-.694-.61-.718-.785-.167-1.22.37-.29.417-.452.417-1.434v-1.106L343.158 94h-5.492v5.084m11.375-4.834c-.114.13-.208.427-.208.66s-.075.424-.167.424-.166.225-.166.5-.075.5-.167.5-.167.15-.167.333S348.09 97 348 97s-.167.225-.167.5-.075.5-.167.5-.166.225-.166.5-.075.5-.167.5-.167.188-.167.417-.075.417-.166.417-.167.225-.167.5-.075.5-.167.5-.166.225-.166.5-.075.5-.167.5-.167.15-.167.333-.075.333-.166.333-.167.225-.167.5-.075.5-.167.5-.166.15-.166.334c0 .296.11.333 1 .333s1-.037 1-.333c0-.184.075-.334.166-.334s.167-.225.167-.5.075-.5.167-.5.166-.15.166-.333c0-.313.11-.333 1.792-.332 1.887.001 2.208.164 2.208 1.115 0 .12.075.217.167.217s.167.225.167.5v.5h2v-.5c0-.275-.075-.5-.167-.5s-.167-.225-.167-.5-.075-.5-.166-.5-.167-.225-.167-.5-.075-.5-.167-.5-.166-.146-.166-.323-.075-.37-.167-.427-.167-.324-.167-.593-.075-.5-.166-.5-.167-.225-.167-.5-.075-.5-.167-.5-.166-.225-.166-.5-.075-.5-.167-.5-.167-.15-.167-.334-.075-.333-.166-.333-.167-.225-.167-.5-.075-.5-.167-.5-.166-.225-.166-.5-.075-.5-.167-.5-.167-.15-.167-.333c0-.42-1.768-.49-2.125-.084m14.625 4.834v5.083h6.667V102.5h-5v-2.833h4.333V98h-4.333v-2.333h5V94h-6.667v5.084m-150.5-3.584c0 .092.225.167.5.167s.5.075.5.167.15.166.334.166c.208 0 .333.11.333.297 0 .163.15.405.333.537.232.167.334.43.334.87 0 .346.075.63.166.63s.167.22.167.5-.075.536-.167.593-.166.457-.166.9c0 .595-.08.845-.334 1.027-.183.132-.333.373-.333.536 0 .186-.125.297-.333.297-.184 0-.334.075-.334.167s-.218.166-.486.166-.53.094-.583.21c-.078.166-.117.166-.195 0-.053-.115-.28-.21-.5-.21s-.64-.225-.928-.5-.587-.5-.665-.5-.142-.225-.142-.5-.075-.5-.166-.5c-.098 0-.167-.583-.167-1.416s.07-1.417.167-1.417c.09 0 .166-.225.166-.5s.057-.5.125-.5.365-.225.658-.5c.304-.285.715-.5.958-.5.234 0 .426-.075.426-.167s.075-.166.167-.166.166.075.166.166m-46.075.576c1 1.002-.114 2.258-2.006 2.258h-.92v-2.667h1.258c1.113 0 1.305.047 1.667.41m37.83.337c.4.4.745.86.745 1s.075.254.167.254c.098 0 .167.583.167 1.417s-.07 1.416-.167 1.416c-.092 0-.167.115-.167.255s-.335.6-.745 1l-.746.745h-2.51v-6.833h2.51l.746.746m81.412-.58c0 .09.15.166.333.166.218 0 .334.11.334.32 0 .175.093.363.208.416.167.078.167.117 0 .195a.41.41 0 0 0-.208.345c0 .325-.407.724-.738.724-.144 0-.262.075-.262.167s-.5.167-1.167.167h-1.167v-2.667H285c.777 0 1.333.07 1.333.167M307.5 96c.132.184.373.334.536.334.174 0 .297.123.297.296 0 .163.15.405.333.537.232.167.334.43.334.87 0 .347.075.63.166.63s.167.146.167.323-.075.37-.167.427-.166.382-.166.723c0 .43-.103.694-.334.86-.183.132-.333.342-.333.466 0 .305-.417.7-.738.7-.144 0-.262.075-.262.167s-.556.166-1.333.166h-1.334v-6.833h1.297c1.105 0 1.332.05 1.537.333m35.09.076c.468.468.48.538.21 1.1-.285.603-.87.814-2.252.814h-1.217v-2.333h1.424c1.3 0 1.463.04 1.834.41M316 97.167c0 .275.075.5.166.5s.167.225.167.5.075.5.167.5.166.183.166.407.075.453.167.5c.43.265.066.416-1 .416-1.056 0-1.167-.03-1.167-.333 0-.183.075-.333.167-.333s.167-.225.167-.5.075-.5.166-.5.167-.15.167-.334.075-.333.167-.333.166-.225.166-.5.075-.5.167-.5.167.225.167.5m17 0c0 .275.075.5.166.5s.167.225.167.5.075.5.167.5.166.225.166.5.075.5.167.5.167.075.167.167-.5.166-1.167.166c-1.056 0-1.167-.03-1.167-.333 0-.183.075-.333.167-.333s.167-.225.167-.5.075-.5.166-.5.167-.146.167-.324.075-.37.167-.426.166-.286.166-.5.075-.407.167-.407.167.225.167.5m-56.167.24c0 .224.07.45.154.502s.203.32.263.593.18.498.263.498.153.15.153.334.075.333.167.333.167.075.167.167-.528.166-1.25.166c-1.14 0-1.25-.03-1.25-.333 0-.183.075-.333.166-.333s.167-.225.167-.5.075-.5.167-.5.166-.19.166-.424c0-.41.288-.9.542-.903.07-.004.125.176.125.4m73.43-.17c.13.13.238.43.238.667s.075.43.166.43.167.225.167.5.075.5.167.5.166.15.166.333c0 .302-.11.333-1.166.333-.667 0-1.167-.07-1.167-.166s.075-.167.167-.167.166-.225.166-.5.075-.5.167-.5.167-.225.167-.5.075-.5.166-.5.167-.15.167-.333c0-.395.106-.42.43-.096m-7.93 2.596c0 .09.13.167.292.168.703.003.914 1.474.3 2.09-.377.377-.533.41-2 .41h-1.59v-2.833h1.5c.89 0 1.5.068 1.5.167" fill="#a2a2a2"/><path d="M27.246 2.84c-.07.114.055.135.365.06.638-.153.7-.233.176-.233-.24 0-.483.078-.54.173m2.768-.113c.196.17 1.003.27.906.113-.058-.095-.302-.173-.54-.173s-.404.027-.365.06m3.053 1.158c.175.11.568.413.875.674s.555.412.553.334c-.007-.176-1.388-1.23-1.595-1.216-.083.005-.008.1.167.208M23.994 4.96l-.91.958.958-.91c.89-.846 1.035-1.006.91-1.006-.026 0-.457.432-.958.96m11.172.625c.31.32.603.583.65.583s-.17-.263-.482-.583S34.73 5 34.684 5s.17.263.482.584m-12.47.766c-.316.506-.126.574.203.072.152-.232.217-.422.146-.422s-.23.158-.35.35m13.9.9c.572.75.684.752.2.002-.207-.32-.437-.582-.5-.583s.067.26.31.58m-14.505.18c-.156.238-.245.47-.198.516s.204-.148.35-.43c.324-.627.235-.676-.153-.085m32.383.462c-.337.105-.667.246-.735.315s.275.005.764-.14c.623-.185 1.372-.247 2.51-.207.893.03 1.537.001 1.43-.066-.3-.2-3.286-.116-3.97.098m-2.147 1.02c-1.184.754-.982.758.27.004.532-.32.894-.583.804-.583s-.574.26-1.074.58m7.84-.33c.23.13.492.238.584.238s-.02-.107-.25-.238-.492-.24-.584-.24.02.108.25.24m-22.422.375c.145.298.3.54.343.54.166 0 .06-.265-.268-.666l-.34-.417.264.542M61 8.876c0 .044.303.28.673.526s1.25.984 1.958 1.643c1.104 1.03 1.172.96.116-.118-.7-.716-2.747-2.244-2.747-2.05m-10.343 1.416l-.574.625.625-.574.625-.625c0-.128-.14-.008-.676.574m-30.043.94c-.063.163-.1.422-.104.575.007.184.065.142.172-.125.088-.22.135-.48.103-.575s-.11-.04-.17.125m44.806 1.92c.336.468.645.85.687.85.114 0-.92-1.467-1.122-1.592-.097-.06.1.274.435.742m-45.14-.312a3.44 3.44 0 0 0-.096.829c.01.3.058.232.168-.24.17-.722.105-1.25-.072-.6M40.18 15c.005.138.073.4.152.584l.143.333.01-.333c.005-.184-.063-.446-.152-.584-.144-.222-.16-.222-.152 0m-20.12 2c0 .963.028 1.357.062.875a15.48 15.48 0 0 0 0-1.75c-.034-.48-.062-.087-.062.875m20.467-.583c.003.183.065.52.138.75l.134.417.005-.417a2.22 2.22 0 0 0-.139-.75l-.143-.333.005.333m6.42.814a1.73 1.73 0 0 0-.103.575c.007.184.064.142.17-.125.088-.22.135-.48.103-.575s-.108-.04-.17.125m-6 2.02l.156 1.236c.115.128.025-1.396-.113-1.902-.086-.316-.102-.07-.043.666m5.656-.493c-.058.15-.098.433-.09.632.01.256.062.198.176-.2.166-.576.098-.915-.087-.433M20.2 20.5c0 .23.06.605.133.834l.133.416v-.416a3.32 3.32 0 0 0-.133-.834l-.133-.416v.416m48.638.167c0 .137.073.363.162.5.143.222.16.222.16 0a1.1 1.1 0 0 0-.161-.5c-.144-.222-.162-.222-.162 0M46.398 23c0 1.238.027 1.744.06 1.125a26.38 26.38 0 0 0 0-2.25c-.032-.618-.06-.112-.06 1.125m22.792-.916c0 .183.064.483.143.666l.143.334v-.334c0-.183-.064-.483-.143-.666l-.143-.334v.334m-48.676.333a1.2 1.2 0 0 0 .152.583c.214.332.214-.085 0-.583l-.143-.333-.01.333m20.512 1.167l-.11 1.166-.08.667.175-.558a3.42 3.42 0 0 0 .111-1.167c-.057-.54-.068-.55-.094-.108m28.586 1.166c.053.55.124 1.032.16 1.07.12.135.027-1.242-.113-1.653-.092-.27-.108-.064-.046.583M40.687 26a7.35 7.35 0 0 1-.118.667c-.08.36-.067.376.097.12.104-.163.157-.463.117-.666s-.083-.258-.096-.12m5.844.75c-.004.275.057.65.135.834l.144.333-.008-.333a4.78 4.78 0 0 0-.136-.834l-.127-.5-.008.5m-6.28 1.084c-.063.197-.077.396-.03.44s.135-.078.197-.275.077-.396.03-.44-.135.078-.197.275m6.606.833c0 .137.065.4.144.583.1.2.143.24.143.084A1.86 1.86 0 0 0 47 28.75c-.09-.2-.144-.24-.144-.083M69.59 30.1c-.064.516-.08.976-.033 1.022s.136-.34.2-.855.08-.976.034-1.022-.136.34-.2.855m-46.398-.492c.112.347 1.393 2.233 1.517 2.234.068.001-.126-.355-.432-.8l-.85-1.208c-.162-.23-.268-.335-.235-.236m15.244 2.48c-.152.232-.218.422-.146.422.162 0 .594-.672.495-.77-.04-.04-.197.117-.35.35m30.827.184c-.062.244-.074.482-.03.528s.134-.117.195-.36.074-.482.028-.528-.133.117-.194.36M26 33.25l.988.917c.046 0-.324-.413-.822-.917l-.988-.916c-.046 0 .324.412.822.916m11.252.375c-.522.616-.617.78-.267.46.517-.474 1.276-1.417 1.14-1.417-.034 0-.428.43-.874.958m31.664.042c-.062.197-.076.396-.03.442s.134-.078.197-.275.076-.396.03-.442-.134.078-.197.275m-41.75.62c0 .145.667.605.75.518.028-.03-.13-.188-.35-.353s-.4-.24-.4-.165m2.334 1.38a1.1 1.1 0 0 0 .5.162c.222 0 .222-.018 0-.162-.138-.09-.363-.162-.5-.162-.223 0-.223.018 0 .162m1.298.363c.388.154 2.405.16 2.644.01.106-.067-.5-.122-1.37-.122s-1.432.05-1.275.113m19.035.2c0 .072.188.407.417.745s.416.554.416.482-.187-.407-.416-.744-.417-.554-.417-.483m1.33 1.938c1.4 1.94 4.5 4.166 6.185 4.428.478.074.45.05-.174-.158-1.772-.587-2.9-1.33-4.62-3.02l-1.39-1.25m-31.15.44c-.282.238-.5.52-.507.625s.084.058.18-.11.413-.448.703-.624.44-.322.332-.322-.427.193-.71.43m2.808-.086c.496.176.932.292.967.257.078-.078-1.44-.607-1.692-.6-.098.007.228.157.725.333m-3.553 1.252c-.145.38-.12 18.95.027 19.18.067.106.122-4.226.122-9.625l-.024-9.818c-.013 0-.07.12-.125.264m6.983-.097c.183.08.445.143.583.143.158 0 .127-.053-.083-.143-.184-.08-.446-.143-.584-.143-.157 0-.126.053.084.143m38.797.802c-.57.524-1.433 1.157-1.917 1.406s-.8.455-.68.456c.4.005 1.973-1.05 2.876-1.928 1.217-1.185 1.033-1.142-.28.066m-36.714-.135c.137.09.362.16.5.16.222 0 .222-.018 0-.16-.138-.09-.363-.162-.5-.162-.222 0-.222.018 0 .162m4.167 1.333a1.1 1.1 0 0 0 .5.162c.222 0 .222-.018 0-.162-.138-.09-.363-.162-.5-.162-.223 0-.223.018 0 .162m2.083.667c.46.197.622.197.5 0-.057-.092-.267-.162-.468-.155-.352.01-.353.017-.032.155M61.5 42.5l-.417.134.448.016c.247.01.495-.058.552-.15.117-.19.008-.19-.583 0m-2.725.353a5.5 5.5 0 0 0 1.5-.002c.688-.108.586-.127-.692-.125-1.173.002-1.35.03-.808.127m-16.86 1.814c.46.197.622.197.5 0-.056-.092-.267-.16-.468-.155-.352.01-.353.017-.032.155m5.334 1.667c.458.197.622.197.5 0-.057-.092-.268-.162-.47-.155-.352.01-.353.017-.03.155m3.93 1.226c.197.17 1.004.27.907.114-.06-.096-.303-.174-.542-.174s-.403.027-.365.06m1.153.338c0 .036.22.097.49.137s.453.01.407-.065c-.083-.133-.898-.2-.898-.072m1.333.39c.138.052.45.234.693.404s.504.31.58.31-.138-.187-.475-.416-.71-.41-.83-.404c-.148.01-.137.044.032.107m1.798 1.404c.118.15.36.564.535.917s.324.545.327.426c.01-.325-.43-1.11-.774-1.38-.272-.214-.28-.21-.088.036m31.595.802c-1.09.26-2.844 1.785-3.492 3.04-.382.74-.153.547.427-.356.942-1.468 1.9-2.18 3.506-2.604.81-.215.42-.285-.44-.08m1.793.237c.332.12.838.383 1.125.588s.523.327.523.273c0-.196-1.575-1.1-1.908-1.083-.22.004-.13.083.26.222M56.41 61.5l.047 4.96v-9.917c-.026-2.727-.047-.496-.047 4.958m34.55-9.018c.25.356.48.626.5.6.084-.077-.706-1.243-.844-1.245-.068-.001.082.29.334.646m-8.256 2.72c-.517 1.076-1.09 2.802-.97 2.922.037.037.193-.37.348-.903s.497-1.416.76-1.96.455-1.016.423-1.048-.286.413-.563 1m9.474-.087c.038.433.298.8.3.437.006-.2-.063-.412-.155-.468s-.16-.043-.155.03m.43 1.552c.132.72.227.854.223.32-.001-.22-.076-.515-.166-.652-.115-.176-.132-.077-.057.333m.31 4.107c0 1.536.048 2.57.106 2.3.14-.65.14-4.22.003-4.71-.06-.21-.11.873-.11 2.408m-11.558-1.492c-.123.555-.188 1.15-.144 1.323.05.194.088.117.1-.205.01-.284.1-.75.2-1.034s.156-.647.125-.806-.157.166-.28.722m-61.853.144c-.008.263.754 1.243 1.193 1.536.24.16.156.01-.218-.394-.332-.358-.686-.8-.787-.984s-.185-.254-.188-.158M80.94 61.94c-.13.955-.104 4.468.04 5.133.058.268.105-.95.105-2.71 0-3.556.003-3.5-.144-2.424m11.75 2.56a7.42 7.42 0 0 1-.113.834l-.086.416.18-.4c.1-.226.15-.6.113-.833l-.066-.423-.027.416m-62.856.167a1.1 1.1 0 0 0 .5.162c.222 0 .222-.018 0-.162-.138-.09-.363-.162-.5-.162-.222 0-.222.018 0 .162m62.52 1.61a2.71 2.71 0 0 1-.127.5c-.084.237-.06.263.1.115.114-.105.17-.33.127-.5s-.088-.222-.1-.115m-55.925.79c.84.366 1.375.456.656.1-.367-.176-.78-.323-.917-.326s-.02.094.26.216m55.592.376c-.01.107-.068.332-.127.5-.084.237-.062.263.1.115.114-.105.17-.33.127-.5s-.088-.222-.1-.115m-53.853.234c.666.302 3.052 1.18 3.417 1.26.467.1-.213-.198-1.833-.805-1.403-.525-2.326-.79-1.584-.454m43.003.502c.001.313.07.678.155.81.1.156.12-.02.058-.5-.118-.92-.216-1.065-.213-.31m-38.253 1.26a18.85 18.85 0 0 1 1.026.427c.197.094.447.14.556.105s-.287-.232-.88-.436c-1.22-.42-1.716-.487-.702-.096m38.59.062c-.008.267.583 1.977.736 2.13.138.138.11.037-.324-1.216-.223-.642-.408-1.053-.412-.914m9.268 1.122l-.286.625.335-.416c.29-.36.454-.834.3-.834-.03 0-.18.282-.34.625m-45.045-.172c.138.138 1.297.545 1.52.534.193-.01-.45-.29-1.148-.5-.265-.08-.432-.095-.372-.035m1.853.714c.057.092.267.16.468.155.352-.01.353-.017.032-.155-.46-.197-.622-.197-.5 0m1.833.667c.057.09.268.16.47.155.352-.012.353-.017.03-.155-.458-.197-.622-.197-.5 0m6.614.18c-.113.182-.448.48-.743.66s-.42.327-.278.328c.273 0 1.44-1.106 1.306-1.24-.043-.043-.17.07-.285.253m26.587.3c.307.58 1.64 2.02 1.87 2.02.07 0-.257-.394-.728-.875s-.988-1.063-1.15-1.292c-.264-.378-.263-.364.007.147m7.08.015c-.506.684-.455.806.074.177.24-.286.404-.553.364-.594s-.238.147-.438.417m-37.446.505c.056.09.267.16.468.155.352-.012.353-.017.032-.155-.46-.197-.622-.197-.5 0m1.377.284a1.81 1.81 0 0 0 .666-.003c.16-.042-.01-.074-.377-.073s-.497.036-.29.076m31.29 1.382c.057.092.268.162.47.155.352-.01.353-.017.03-.155-.458-.197-.622-.197-.5 0" fill="#a8a8a8"/><path d="M27.488 2.907c-.42.116-.907.302-1.084.414-.312.2-.312.2.012.09.786-.27 1.57-.442 2.584-.565l1.083-.13-.917-.008c-.504-.005-1.26.085-1.678.2M30.333 3c.137.09.438.156.667.148l.416-.014L31 3c-.643-.205-.985-.205-.667 0m-5.1.972c-.773.56-2.195 2.103-2.618 2.838-.47.818-.208.614.372-.3.513-.8 1.86-2.167 2.68-2.72.23-.155.372-.285.317-.3s-.392.204-.75.463m7.1-.32a.18.18 0 0 0 .178.181c.098 0 .53.235.96.523s.63.374.446.192c-.488-.486-1.583-1.105-1.583-.896m2.818 2.14c.428.435 1.11 1.242 1.513 1.792.87 1.184 1.183 1.528.757.833C36.716 7.265 34.77 5 34.484 5c-.062 0 .238.357.667.792m-13.277 2.4c-1.47 3.14-2.204 9.123-1.53 12.494l.35 1.804c.32 1.687 1.724 5.804 1.914 5.614.036-.037-.075-.396-.247-.798a27.3 27.3 0 0 1-1.513-4.899l-.34-1.72c-.665-3.36.073-9.44 1.508-12.433.173-.36.286-.68.253-.715s-.212.26-.396.654M54.75 8l-.334.144h.334A2.02 2.02 0 0 0 55.416 8l.334-.143h-.334c-.183 0-.483.065-.666.143m3.083 0a3.16 3.16 0 0 0 .75.139l.333.005L58.583 8a2.22 2.22 0 0 0-.75-.138l-.417.005.417.133m-4.816.67c-1.843 1.016-3.33 2.58-4.4 4.643-.86 1.642-1.2 2.685-1.948 5.97-1.15 5.05 1.518 16.177 4.453 18.57.155.127-.095-.332-.556-1.02-2.636-3.932-3.872-8.346-3.884-13.867-.003-1.53.072-3.18.168-3.667 1.08-5.5 3.15-8.92 6.395-10.54.65-.325 1.07-.59.93-.588s-.654.224-1.15.497m6.15-.335c.138.09.363.16.5.16.223 0 .223-.018 0-.16a1.1 1.1 0 0 0-.5-.162c-.222 0-.222.018 0 .162m1.592.64c.36.317 1.756 1.184 1.66 1.03-.13-.21-1.518-1.17-1.69-1.17-.07 0-.057.063.03.14m-23.063.1c.12.365 1.16 2.416 1.226 2.416.1 0-.18-.705-.575-1.452-.353-.668-.742-1.245-.65-.964m24.978 1.092c-.004.05.467.576 1.046 1.167s1.135 1.223 1.237 1.406.232.285.3.227-.497-.732-1.23-1.498-1.338-1.353-1.342-1.302M39 11.784c0 .094.14.538.315.986s.406 1.15.517 1.564c.296 1.093.504 1.545.384.833-.18-1.072-1.216-3.954-1.216-3.383m26.666 2.014c0 .11.057.203.125.204s.2.17.314.375c1.664 3.3 1.778 3.547 2.233 5.04.482 1.578.468 1.543.478 1.167.007-.296-.293-1.234-.986-3.084-.582-1.552-2.164-4.258-2.164-3.702m-25.26 2.62c.038.367.157 1.342.266 2.167.368 2.8.087 6.938-.652 9.583a33.94 33.94 0 0 0-.263 1l-.1.417.2-.417c1.27-2.78 1.598-8.487.715-12.417-.15-.67-.202-.78-.157-.333m28.527 5.167c.14.826.235.96.232.32-.002-.267-.08-.6-.173-.736-.122-.18-.14-.06-.06.417m.35 1.833c.054.55.125 1.03.158 1.07.128.148.03-1.42-.11-1.736-.093-.21-.11.032-.05.667m.302 3.982c0 1.558.052 2.526.115 2.167.147-.824.145-3.252-.003-4.232-.065-.43-.113.453-.112 2.065m-46.35 2.06c.304.576.754 1.166.76.996C24 30.31 23.157 29 23.057 29c-.036 0 .043.207.176.46m15.773 1.277C36.6 35.8 32.06 37.23 27.666 34.32c-.975-.647-2.603-2.294-3.103-3.14-.166-.28-.365-.51-.443-.51-.678 0 3.054 3.7 4.397 4.358 1.615.793 2.02.892 3.653.892 3.038 0 5.797-2.143 7.242-5.625.42-1.013.147-.715-.406.444m30.356.035c-.016.287-.07.774-.117 1.084-.08.514-.072.527.09.15.1-.226.15-.713.117-1.083-.05-.547-.067-.575-.09-.152m-.35 1.968c-.04.943-1.794 5.213-2.22 5.4-.07.03-.127.144-.127.253s-.456.72-1.014 1.36l-1.015 1.164 1.096-1.157c1.584-1.67 3.743-6.212 3.383-7.115-.058-.148-.095-.115-.103.094m-48.31 5.568c-.124.08.117.132.583.13.553-.004 1.907.363 4.44 1.204 2.005.665 3.684 1.17 3.732 1.122s-.017-.117-.145-.154a622.47 622.47 0 0 1-3.912-1.254c-3.62-1.168-4.278-1.315-4.7-1.047m31.708 1.022c.634.64 1.176 1.14 1.204 1.11.063-.064-2.138-2.273-2.265-2.273-.05 0 .426.523 1.06 1.162m-32.458-.537c-.593.655-.62 1.125-.62 10.428.001 10.883.04 11.1 2.146 12.06l.728.34c.07.035.125.025.125-.024s-.327-.238-.727-.42c-2.118-.964-2.123-.996-2.07-12.237l.046-9.412.38-.514c.415-.56.4-.685-.01-.222m33.88 1.78c0 .142 1.175.975 1.258.892.045-.046-.22-.282-.588-.526s-.67-.41-.67-.366M31.25 41.4l3.916 1.255 2.584.83c.855.327 2.567.836 2.772.825.248-.013-1.815-.712-5.356-1.814L31.48 41.32c-.8-.267-1.54-.48-1.667-.474s.52.26 1.437.564m32.6-.14c-.784.557-.853.654-.245.345.282-.143.6-.378.73-.52.284-.343.208-.315-.484.176m-6.924 1.063c.46.197.622.197.5 0-.056-.092-.267-.162-.468-.155-.352.01-.353.017-.032.155m1.71.34c.48.067 1.268.067 1.75 0 .713-.1.55-.122-.875-.122s-1.59.022-.875.122M40.916 44.5c.057.092.268.162.47.155.352-.01.353-.017.03-.155-.458-.197-.622-.197-.5 0m.917.228c0 .097 1.604.608 1.865.594.12-.007-.044-.107-.365-.224-.742-.27-1.5-.457-1.5-.37m2.246.766c.06.095.303.173.542.173.522 0 .462-.08-.177-.233-.3-.075-.435-.054-.365.06m1.17.34c.056.09.267.16.468.155.352-.012.353-.017.032-.155-.46-.197-.622-.197-.5 0m1 .333c.056.092.267.16.468.155.352-.01.353-.017.032-.155-.46-.197-.622-.197-.5 0m.984.307c.09.145.266.196 1.516.435.46.088.452.077-.084-.13-.873-.34-1.542-.48-1.432-.305m2.182.693c.057.092.268.16.47.155.352-.01.353-.017.03-.155-.458-.197-.622-.197-.5 0m3.417 1a1.1 1.1 0 0 0 .5.162c.222 0 .222-.018 0-.162-.138-.09-.363-.162-.5-.162-.222 0-.222.018 0 .162m1.163.467c2.285 1.567 2.17.886 2.17 12.86v10.163l-.608.608c-.335.335-.453.525-.262.423 1.09-.584 1.037.001 1.037-11.21 0-9.794-.012-10.17-.333-10.852-.482-1.023-1.77-2.313-2.276-2.282-.078.005.045.136.272.292m35.182 2.362c.327.173.88.6 1.23.95.628.63.63.63.24.08-.37-.52-1.57-1.368-1.912-1.352-.084.004.116.15.443.322m-3.82.606c-.65.555-2.024 2.375-2.024 2.678 0 .072.2-.168.444-.533.702-1.047 1.205-1.622 1.93-2.205.37-.298.6-.542.513-.542s-.477.27-.863.602m6.316 2.284c-.01.202.52 1.78.6 1.78.037 0 .016-.206-.046-.458-.134-.54-.544-1.52-.553-1.323m.688 2.28a2.22 2.22 0 0 0 .139.75l.143.333-.005-.333c-.003-.183-.065-.52-.138-.75l-.134-.417-.005.417m.39 4.583c0 1.958.047 3.06.107 2.5.138-1.297.14-3.918.001-5.083-.06-.504-.108.658-.108 2.583m-10.97-2.686c-.062.163-.11.422-.103.575.007.184.065.142.17-.124.09-.222.135-.48.104-.575s-.11-.04-.172.124m-.373 1.677c-.063.335-.077.646-.03.692s.135-.19.198-.525.076-.646.03-.692-.134.19-.197.525m-.3 2.117c-.138 1.317-.122 4.37.027 5.207.064.356.117-.9.118-2.792.003-3.847.003-3.836-.145-2.415m-56.774.583l2 .758 1.25.468c.183.074.765.29 1.292.484l1.88.704c.507.196.955.323.995.283s-.807-.393-1.88-.784l-2.287-.85c-.183-.076-.783-.302-1.333-.504l-2.133-.812c-.257-.103-.557-.184-.667-.18s.287.2.883.433m68.083 2.684c-.057.436-.174.964-.26 1.175s-.15.548-.145.75c.015.51.433-.87.574-1.895.062-.452.073-.82.024-.82s-.136.356-.193.79m-60.372.136c.145.152 1.284.57 1.54.564.19-.005-.646-.385-1.26-.574-.223-.07-.348-.065-.278.01m3.206 1.227c.366.177.78.32.916.32.285-.002-.54-.38-1.166-.537-.23-.057-.117.04.25.217m2.25.846c.137.09.362.16.5.16.222 0 .222-.018 0-.16-.138-.09-.363-.162-.5-.162-.223 0-.223.018 0 .162m43.856 1.083a2.03 2.03 0 0 0 .144.667l.143.333v-.333c0-.184-.065-.484-.143-.667l-.144-.333v.333m9.908.764c-.164.37-.262.7-.22.754s.205-.233.357-.615c.362-.903.25-1.016-.138-.14M42 69a1.1 1.1 0 0 0 .5.162c.222 0 .222-.018 0-.162-.138-.09-.363-.16-.5-.16-.223 0-.223.018 0 .16m3.666 1.334c.138.09.363.16.5.16.223 0 .223-.018 0-.16a1.1 1.1 0 0 0-.5-.162c-.222 0-.222.018 0 .162m36.34.333c0 .137.072.362.16.5.144.222.162.222.162 0a1.1 1.1 0 0 0-.162-.5c-.143-.222-.16-.222-.16 0m7.927 1.125c-.34.527-.44.753-.228.503.42-.495 1.024-1.46.912-1.46-.038 0-.346.43-.684.958m-7.6-.197c0 .737 2.73 3.23 3.115 2.846.038-.038-.148-.144-.414-.237-.68-.237-1.64-1.123-2.14-1.977-.397-.677-.56-.862-.56-.632m-31.083.74c.458.197.622.197.5 0-.057-.092-.268-.162-.47-.155-.352.01-.353.017-.03.155m2.21.62c.3.038.75.037 1-.001s.005-.07-.545-.068-.755.032-.455.07m35.397.147c-.124.14-.192.288-.152.328s.2-.077.376-.26.235-.33.152-.328-.252.12-.376.26m-2.025 1.233c-.222.143-.222.16 0 .16a1.1 1.1 0 0 0 .5-.161c.222-.144.222-.162 0-.162-.138 0-.362.073-.5.162" fill="#847c84"/></svg>