<svg id="type" enable-background="new 0 0 139.86 41" version="1.1" viewBox="0 0 139.86 41" xmlns="http://www.w3.org/2000/svg" xmlns:xlink="http://www.w3.org/1999/xlink"><path d="m129.33 0h-119.8c-0.367 0-0.729 0-1.095 2e-3 -0.306 2e-3 -0.61 8e-3 -0.919 0.013-0.665 0.016-1.339 0.057-2.004 0.176-0.669 0.118-1.291 0.318-1.901 0.627-0.598 0.307-1.145 0.705-1.618 1.179-0.479 0.474-0.875 1.023-1.179 1.621-0.311 0.609-0.508 1.234-0.625 1.903-0.12 0.663-0.162 1.333-0.179 2.002-9e-3 0.307-0.01 0.615-0.015 0.921v1.092 20.929 1.094c5e-3 0.311 6e-3 0.611 0.015 0.922 0.017 0.67 0.059 1.34 0.179 2.002 0.117 0.67 0.314 1.298 0.625 1.904 0.303 0.596 0.7 1.145 1.178 1.614 0.473 0.478 1.02 0.875 1.619 1.179 0.609 0.312 1.231 0.51 1.901 0.631 0.665 0.119 1.338 0.158 2.004 0.177 0.309 7e-3 0.613 0.011 0.919 0.011 0.366 1e-3 0.728 1e-3 1.095 1e-3h119.8c0.359 0 0.725 0 1.084-2e-3 0.305 0 0.617-4e-3 0.922-0.011 0.67-0.019 1.342-0.058 2-0.177 0.67-0.121 1.293-0.318 1.908-0.631 0.598-0.304 1.145-0.701 1.617-1.179 0.477-0.47 0.873-1.019 1.182-1.614 0.307-0.606 0.506-1.234 0.619-1.904 0.123-0.662 0.162-1.332 0.186-2.002 4e-3 -0.311 4e-3 -0.611 4e-3 -0.922 8e-3 -0.363 8e-3 -0.725 8e-3 -1.094v-20.928c0-0.366 0-0.729-8e-3 -1.092 0-0.307 0-0.614-4e-3 -0.921-0.023-0.67-0.062-1.34-0.186-2.002-0.113-0.67-0.312-1.295-0.619-1.903-0.309-0.599-0.705-1.147-1.182-1.621-0.473-0.474-1.02-0.872-1.617-1.179-0.615-0.31-1.238-0.51-1.908-0.627-0.658-0.119-1.33-0.16-2-0.177-0.305-5e-3 -0.617-0.011-0.922-0.013-0.36-1e-3 -0.725-1e-3 -1.084-1e-3z" fill="#A6A6A6"/><path d="m8.445 39.125c-0.305 0-0.602-4e-3 -0.904-0.011-0.559-0.016-1.222-0.047-1.869-0.163-0.61-0.11-1.153-0.29-1.657-0.548-0.522-0.265-0.99-0.606-1.397-1.017-0.414-0.406-0.754-0.873-1.021-1.396-0.259-0.505-0.437-1.047-0.543-1.657-0.122-0.673-0.153-1.355-0.167-1.875-6e-3 -0.211-0.015-0.913-0.015-0.913v-23.101s9e-3 -0.691 0.015-0.895c0.013-0.524 0.044-1.206 0.166-1.872 0.107-0.613 0.284-1.155 0.544-1.661 0.266-0.524 0.606-0.994 1.015-1.398 0.414-0.414 0.884-0.757 1.402-1.022 0.514-0.261 1.055-0.439 1.653-0.544 0.674-0.121 1.357-0.152 1.876-0.165l0.902-0.012h121.97l0.913 0.013c0.513 0.013 1.195 0.043 1.858 0.163 0.603 0.105 1.148 0.285 1.671 0.548 0.513 0.263 0.982 0.605 1.392 1.016 0.409 0.406 0.752 0.878 1.023 1.404 0.258 0.511 0.434 1.053 0.535 1.649 0.116 0.631 0.152 1.279 0.174 1.887 3e-3 0.283 3e-3 0.587 3e-3 0.89 8e-3 0.375 8e-3 0.732 8e-3 1.092v20.929c0 0.363 0 0.718-8e-3 1.075 0 0.325 0 0.623-4e-3 0.93-0.021 0.589-0.057 1.236-0.171 1.854-0.104 0.613-0.279 1.155-0.54 1.67-0.27 0.52-0.612 0.989-1.016 1.386-0.413 0.418-0.882 0.759-1.399 1.023-0.519 0.264-1.048 0.438-1.668 0.55-0.641 0.116-1.304 0.147-1.869 0.163-0.293 7e-3 -0.6 0.011-0.897 0.011l-1.084 2e-3 -120.89-5e-3z"/><path d="m38.917 19.741c0-0.594 0.482-1.067 1.076-1.067 0.602 0 1.084 0.473 1.084 1.067 0 0.585-0.482 1.059-1.084 1.059-0.594 0-1.076-0.473-1.076-1.059zm0.146 2.384h1.859v9.054h-1.859v-9.054zm6.811 9.054v-10.758h-3.804v-1.661h9.527v1.661h-3.795v10.757h-1.928zm13.501 0h-1.782v-1.558h-0.043c-0.516 1.084-1.42 1.661-2.806 1.661-1.971 0-3.175-1.274-3.175-3.348v-5.809h1.859v5.448c0 1.377 0.654 2.108 1.936 2.108 1.343 0 2.152-0.929 2.152-2.341v-5.215h1.859v9.054zm1.841-9.054h1.773v1.541h0.043c0.542-1.084 1.454-1.644 2.849-1.644 1.997 0 3.141 1.282 3.141 3.356v5.8h-1.868v-5.438c0-1.36-0.628-2.117-1.937-2.117-1.333 0-2.143 0.947-2.143 2.341v5.215h-1.859v-9.054zm17.366 6.394c-0.25 1.644-1.851 2.771-3.899 2.771-2.633 0-4.269-1.764-4.269-4.596 0-2.84 1.644-4.682 4.191-4.682 2.504 0 4.079 1.721 4.079 4.467v0.637h-6.394v0.112c0 1.549 0.972 2.564 2.436 2.564 1.033 0 1.841-0.49 2.091-1.273h1.765zm-6.283-2.702h4.527c-0.043-1.386-0.929-2.298-2.22-2.298-1.283 0-2.212 0.93-2.307 2.298zm11.213-3.795c2.005 0 3.442 1.11 3.485 2.711h-1.747c-0.078-0.8-0.757-1.291-1.79-1.291-1.007 0-1.678 0.465-1.678 1.17 0 0.542 0.447 0.904 1.385 1.136l1.523 0.353c1.825 0.439 2.513 1.11 2.513 2.436 0 1.635-1.549 2.754-3.761 2.754-2.134 0-3.571-1.093-3.709-2.745h1.842c0.129 0.869 0.826 1.334 1.954 1.334 1.11 0 1.807-0.457 1.807-1.179 0-0.56-0.344-0.86-1.291-1.102l-1.618-0.396c-1.635-0.396-2.461-1.23-2.461-2.487 0-1.601 1.437-2.694 3.546-2.694zm10.293 5.697c0.138 1.23 1.334 2.04 2.969 2.04 1.566 0 2.693-0.809 2.693-1.919 0-0.964-0.68-1.541-2.289-1.937l-1.609-0.387c-2.28-0.551-3.339-1.618-3.339-3.348 0-2.143 1.867-3.615 4.518-3.615 2.625 0 4.423 1.472 4.484 3.615h-1.876c-0.112-1.239-1.136-1.988-2.633-1.988s-2.521 0.757-2.521 1.859c0 0.878 0.654 1.395 2.255 1.79l1.368 0.336c2.547 0.602 3.606 1.626 3.606 3.442 0 2.323-1.85 3.778-4.793 3.778-2.754 0-4.613-1.42-4.733-3.666h1.9zm11.55-7.737v2.143h1.721v1.472h-1.721v4.992c0 0.774 0.344 1.136 1.102 1.136 0.189 0 0.49-0.026 0.611-0.043v1.463c-0.207 0.051-0.62 0.086-1.033 0.086-1.833 0-2.547-0.688-2.547-2.444v-5.189h-1.316v-1.472h1.316v-2.143h1.867zm2.629 6.67c0-2.849 1.678-4.639 4.294-4.639 2.625 0 4.294 1.79 4.294 4.639 0 2.857-1.661 4.639-4.294 4.639-2.633-1e-3 -4.294-1.782-4.294-4.639zm6.695 0c0-1.954-0.895-3.106-2.401-3.106s-2.401 1.162-2.401 3.106c0 1.962 0.895 3.107 2.401 3.107s2.401-1.145 2.401-3.107zm3.338-4.527h1.773v1.541h0.043c0.284-1.024 1.11-1.635 2.177-1.635 0.267 0 0.491 0.034 0.637 0.069v1.738c-0.146-0.061-0.473-0.112-0.834-0.112-1.196 0-1.937 0.809-1.937 2.083v5.37h-1.859v-9.054zm13.163 6.394c-0.25 1.644-1.851 2.771-3.899 2.771-2.633 0-4.269-1.764-4.269-4.596 0-2.84 1.644-4.682 4.191-4.682 2.504 0 4.079 1.721 4.079 4.467v0.637h-6.394v0.112c0 1.549 0.972 2.564 2.436 2.564 1.033 0 1.841-0.49 2.091-1.273h1.765zm-6.282-2.702h4.527c-0.043-1.386-0.929-2.298-2.22-2.298-1.283 0-2.213 0.93-2.307 2.298z" fill="#fff"/><defs><rect id="SVGID_1_" x="7.548" y="7.418" width="25.164" height="25.164"/></defs><clipPath id="SVGID_2_"><use overflow="visible" xlink:href="#SVGID_1_"/></clipPath><g clip-path="url(#SVGID_2_)"><defs><path id="SVGID_3_" d="m15.268 7.418c-0.25 0-0.5 0-0.75 2e-3 -0.253 2e-3 -0.506 4e-3 -0.759 0.011-0.552 0.015-1.108 0.047-1.653 0.145-0.553 0.099-1.068 0.262-1.571 0.518-0.494 0.252-0.946 0.58-1.338 0.972-0.393 0.392-0.721 0.844-0.973 1.338-0.256 0.503-0.418 1.018-0.518 1.572-0.098 0.545-0.13 1.101-0.145 1.653-7e-3 0.253-0.01 0.506-0.011 0.759-1e-3 0.241-2e-3 0.482-2e-3 0.723v9.777c0 0.241 0 0.482 2e-3 0.723 2e-3 0.253 4e-3 0.506 0.011 0.759 0.015 0.551 0.047 1.107 0.145 1.653 0.099 0.554 0.262 1.069 0.518 1.572 0.252 0.494 0.58 0.946 0.972 1.338s0.844 0.721 1.338 0.972c0.503 0.256 1.018 0.418 1.571 0.518 0.545 0.098 1.102 0.131 1.653 0.145 0.253 7e-3 0.506 0.01 0.759 0.011 0.25 2e-3 0.5 2e-3 0.75 2e-3h9.725c0.25 0 0.5 0 0.75-2e-3 0.253-2e-3 0.506-4e-3 0.759-0.011 0.552-0.015 1.108-0.047 1.653-0.145 0.553-0.099 1.068-0.262 1.571-0.518 0.494-0.252 0.946-0.58 1.338-0.972s0.721-0.844 0.972-1.338c0.256-0.503 0.418-1.018 0.518-1.572 0.098-0.545 0.13-1.101 0.145-1.653 7e-3 -0.253 0.01-0.506 0.011-0.759 1e-3 -0.241 2e-3 -0.483 2e-3 -0.724v-9.775c0-0.241 0-0.483-2e-3 -0.724-2e-3 -0.253-4e-3 -0.506-0.011-0.759-0.015-0.551-0.047-1.107-0.145-1.653-0.099-0.554-0.262-1.069-0.518-1.572-0.252-0.494-0.58-0.946-0.972-1.338s-0.844-0.721-1.338-0.972c-0.503-0.256-1.018-0.418-1.571-0.518-0.545-0.098-1.102-0.131-1.653-0.145-0.253-7e-3 -0.506-0.01-0.759-0.011-0.25-2e-3 -0.5-2e-3 -0.75-2e-3h-9.724z"/></defs><clipPath id="SVGID_4_"><use overflow="visible" xlink:href="#SVGID_3_"/></clipPath><linearGradient id="SVGID_5_" x1="-1238" x2="-1238" y1="-846.02" y2="-846.02" gradientTransform="matrix(0 961.02 961.02 0 8.1306e5 1.1898e6)" gradientUnits="userSpaceOnUse"><stop stop-color="#EF4DB7" offset="0"/><stop stop-color="#C643FD" offset="1"/></linearGradient><rect x="7.548" y="7.418" width="25.164" height="25.164" clip-path="url(#SVGID_4_)" fill="url(#SVGID_5_)"/></g><g clip-path="url(#SVGID_2_)"><defs><path id="SVGID_6_" d="m19.973 10.615c-0.05 0.031-0.094 0.074-0.137 0.13-7e-3 9e-3 -0.014 0.019-0.021 0.028-0.057 0.081-0.102 0.169-0.137 0.261-0.104 0.269-0.2 0.541-0.289 0.815l-1.682 5.176h4.836l-1.682-5.176c-0.089-0.274-0.186-0.546-0.289-0.815-0.035-0.092-0.08-0.181-0.137-0.261-7e-3 -0.01-0.014-0.019-0.021-0.028-0.043-0.056-0.087-0.1-0.137-0.13-0.049-0.03-0.1-0.045-0.152-0.045s-0.103 0.015-0.152 0.045"/></defs><clipPath id="SVGID_7_"><use overflow="visible" xlink:href="#SVGID_6_"/></clipPath><radialGradient id="SVGID_8_" cx="-1238.2" cy="-848.47" r=".0262" gradientTransform="matrix(717.83 0 0 -717.83 8.8883e5 -6.0903e5)" gradientUnits="userSpaceOnUse"><stop stop-color="#FBE3F8" offset="0"/><stop stop-color="#FBE3F8" offset=".745"/><stop stop-color="#FADEF6" offset=".8082"/><stop stop-color="#F9D1F0" offset=".8798"/><stop stop-color="#F6BAE7" offset=".9554"/><stop stop-color="#F5B1E3" offset=".98"/><stop stop-color="#F5B1E3" offset="1"/></radialGradient><rect x="17.707" y="10.57" width="4.836" height="6.456" clip-path="url(#SVGID_7_)" fill="url(#SVGID_8_)"/></g><g clip-path="url(#SVGID_2_)"><defs><path id="SVGID_9_" d="m20.125 24.468l4.403 3.198c0.233 0.17 0.471 0.333 0.714 0.49 0.083 0.054 0.171 0.099 0.264 0.131 0.011 4e-3 0.022 7e-3 0.034 0.011 0.068 0.02 0.129 0.029 0.188 0.025 0.057-5e-3 0.108-0.022 0.149-0.053 0.042-0.03 0.074-0.073 0.096-0.126 0.022-0.054 0.033-0.115 0.035-0.186v-0.035c-1e-3 -0.099-0.017-0.196-0.043-0.292-0.074-0.279-0.156-0.556-0.245-0.83l-1.682-5.175-3.913 2.842z"/></defs><clipPath id="SVGID_10_"><use overflow="visible" xlink:href="#SVGID_9_"/></clipPath><radialGradient id="SVGID_11_" cx="-1238.2" cy="-848.47" r=".0262" gradientTransform="matrix(717.83 0 0 -717.83 8.8883e5 -6.0903e5)" gradientUnits="userSpaceOnUse"><stop stop-color="#F9E3FB" offset="0"/><stop stop-color="#F9E3FB" offset=".7459"/><stop stop-color="#F8DEFB" offset=".8097"/><stop stop-color="#F3D0FA" offset=".8826"/><stop stop-color="#ECBAF9" offset=".9599"/><stop stop-color="#EAB2F9" offset=".981"/><stop stop-color="#EAB2F9" offset="1"/></radialGradient><rect x="20.125" y="21.625" width="5.882" height="6.701" clip-path="url(#SVGID_10_)" fill="url(#SVGID_11_)"/></g><g clip-path="url(#SVGID_2_)"><defs><path id="SVGID_12_" d="m12.265 17.026c-0.288 0-0.577 8e-3 -0.865 0.023-0.098 5e-3 -0.196 0.02-0.291 0.05-0.011 4e-3 -0.023 7e-3 -0.033 0.011-0.067 0.023-0.122 0.052-0.166 0.09-0.044 0.037-0.074 0.081-0.09 0.13s-0.017 0.102-4e-3 0.158c0.014 0.057 0.041 0.113 0.081 0.171 7e-3 0.01 0.013 0.019 0.021 0.029 0.059 0.079 0.129 0.149 0.206 0.211 0.224 0.182 0.453 0.358 0.686 0.527l4.402 3.199 1.494-4.599h-5.441z"/></defs><clipPath id="SVGID_13_"><use overflow="visible" xlink:href="#SVGID_12_"/></clipPath><radialGradient id="SVGID_14_" cx="-1238.3" cy="-848.68" r=".0262" gradientTransform="matrix(979 0 0 -979 1.2123e6 -8.3085e5)" gradientUnits="userSpaceOnUse"><stop stop-color="#FAE1F8" offset="0"/><stop stop-color="#FAE1F8" offset=".6"/><stop stop-color="#F7D6F7" offset=".85"/><stop stop-color="#F7D6F7" offset="1"/></radialGradient><rect x="10.802" y="17.026" width="6.904" height="4.599" clip-path="url(#SVGID_13_)" fill="url(#SVGID_14_)"/></g><g clip-path="url(#SVGID_2_)"><defs><path id="SVGID_15_" d="m14.531 26.801c-0.089 0.274-0.171 0.551-0.245 0.83-0.025 0.095-0.041 0.193-0.043 0.292v0.035c2e-3 0.071 0.012 0.132 0.035 0.186 0.022 0.053 0.054 0.096 0.096 0.126s0.092 0.048 0.149 0.053c0.058 5e-3 0.12-4e-3 0.188-0.025 0.011-3e-3 0.022-7e-3 0.034-0.011 0.093-0.032 0.182-0.077 0.264-0.131 0.242-0.157 0.48-0.32 0.713-0.49l4.403-3.199-2.483-1.804-1.43-1.039-1.681 5.177z"/></defs><clipPath id="SVGID_16_"><use overflow="visible" xlink:href="#SVGID_15_"/></clipPath><radialGradient id="SVGID_17_" cx="-1239.2" cy="-848.01" r=".0262" gradientTransform="matrix(696.96 0 0 -696.96 8.6369e5 -5.9099e5)" gradientUnits="userSpaceOnUse"><stop stop-color="#FAE9FC" offset="0"/><stop stop-color="#FAE9FC" offset=".669"/><stop stop-color="#F8DEFA" offset=".8118"/><stop stop-color="#F6D4F8" offset=".91"/><stop stop-color="#F6D4F8" offset="1"/></radialGradient><rect x="14.243" y="21.625" width="5.882" height="6.701" clip-path="url(#SVGID_16_)" fill="url(#SVGID_17_)"/></g><g clip-path="url(#SVGID_2_)"><defs><path id="SVGID_18_" d="m22.543 17.026l1.494 4.599 4.403-3.199c0.233-0.17 0.462-0.345 0.686-0.527 0.077-0.062 0.147-0.132 0.206-0.211 7e-3 -0.01 0.014-0.019 0.021-0.029 0.04-0.058 0.068-0.114 0.081-0.171 0.013-0.056 0.012-0.109-4e-3 -0.158s-0.046-0.093-0.09-0.13c-0.044-0.038-0.1-0.067-0.166-0.09-0.011-4e-3 -0.022-8e-3 -0.033-0.011-0.094-0.029-0.192-0.044-0.291-0.05-0.288-0.016-0.576-0.023-0.865-0.023h-5.442z"/></defs><clipPath id="SVGID_19_"><use overflow="visible" xlink:href="#SVGID_18_"/></clipPath><radialGradient id="SVGID_20_" cx="-1239.2" cy="-848.01" r=".0262" gradientTransform="matrix(696.96 0 0 -696.96 8.6369e5 -5.9099e5)" gradientUnits="userSpaceOnUse"><stop stop-color="#FAE9FB" offset="0"/><stop stop-color="#FAE9FB" offset=".68"/><stop stop-color="#F8DEF8" offset=".8132"/><stop stop-color="#F5CAF2" offset=".98"/><stop stop-color="#F5CAF2" offset="1"/></radialGradient><rect x="22.542" y="17.026" width="6.905" height="4.599" clip-path="url(#SVGID_19_)" fill="url(#SVGID_20_)"/></g><polygon points="17.707 17.026 16.212 21.625 17.642 22.664 20.125 24.468 24.037 21.625 22.543 17.026" clip-path="url(#SVGID_2_)" fill="#fff"/><g id="XMLID_1_"><g id="XMLID_2_"><g id="XMLID_7_"><g fill="#fff"><path d="m41.076 14.904c-1.691 0-2.758-1.203-2.758-3.13 0-1.902 1.08-3.126 2.75-3.126 1.356 0 2.34 0.769 2.543 1.977h-0.93c-0.232-0.719-0.798-1.112-1.613-1.112-1.104 0-1.803 0.873-1.803 2.254 0 1.406 0.703 2.274 1.823 2.274 0.976 0 1.646-0.595 1.654-1.48v-0.128h-1.539v-0.777h2.448v0.744c1e-3 1.524-1.012 2.504-2.575 2.504z"/><path d="m48.756 13.544c-0.203 0.807-0.922 1.303-1.952 1.303-1.291 0-2.08-0.885-2.08-2.324s0.806-2.353 2.076-2.353c1.253 0 2.01 0.856 2.01 2.27v0.31h-3.18v0.05c0.029 0.79 0.488 1.29 1.199 1.29 0.538 0 0.906-0.194 1.071-0.546h0.856zm-3.126-1.451h2.274c-0.021-0.707-0.451-1.167-1.108-1.167-0.658 0-1.117 0.464-1.166 1.167z"/><path d="m51.206 9.136v1.142h0.976v0.749h-0.976v2.315c0 0.472 0.194 0.678 0.637 0.678 0.136 0 0.215-8e-3 0.339-0.021v0.74c-0.145 0.024-0.31 0.045-0.484 0.045-0.988 0-1.381-0.348-1.381-1.216v-2.543h-0.715v-0.749h0.715v-1.14h0.889z"/><path d="m55.68 8.925c0-0.311 0.244-0.546 0.575-0.546s0.575 0.235 0.575 0.546c0 0.306-0.244 0.542-0.575 0.542s-0.575-0.236-0.575-0.542zm0.132 1.332h0.885v4.503h-0.885v-4.503z"/><path d="m59.334 9.136v1.142h0.976v0.749h-0.976v2.315c0 0.472 0.194 0.678 0.637 0.678 0.137 0 0.215-8e-3 0.339-0.021v0.74c-0.145 0.024-0.31 0.045-0.483 0.045-0.988 0-1.381-0.348-1.381-1.216v-2.543h-0.716v-0.749h0.716v-1.14h0.888z"/><path d="m63.701 12.506c0-1.452 0.811-2.336 2.126-2.336 1.311 0 2.121 0.885 2.121 2.336 0 1.459-0.807 2.34-2.121 2.34-1.319 1e-3 -2.126-0.88-2.126-2.34zm3.333 0c0-0.976-0.438-1.547-1.207-1.547-0.773 0-1.208 0.571-1.208 1.547 0 0.984 0.435 1.55 1.208 1.55 0.768 1e-3 1.207-0.57 1.207-1.55z"/><path d="m69.14 10.257h0.856v0.715h0.066c0.219-0.5 0.665-0.802 1.344-0.802 1.005 0 1.559 0.604 1.559 1.675v2.915h-0.889v-2.692c0-0.724-0.314-1.083-0.972-1.083s-1.075 0.438-1.075 1.141v2.634h-0.89v-4.503z"/></g></g></g></g></svg>
