<svg xmlns="http://www.w3.org/2000/svg" viewBox="0 0 982 178"><path d="M179.4 175.4007c-4.2-1.2-11.1-8.8-11.9-13.1-.3-1.8-.4-26.7-.3-55.2l.3-52 11-9c6.1-5 13.8-11.8 17.2-15.2s6.4-5.9 6.7-5.6c1.1 1.1.6 135.9-.5 138.9-1.5 4-5.7 8.2-10.4 10.4-4.3 2-7.3 2.2-12.1.8zm758.3-2c-2-1.1-3.7-2.4-3.7-2.9s1.6-2.1 3.5-3.6c7.1-5.3 9.3-11.7 11.3-32.4l.7-7.5h13l.3 6.9c.3 7.6-2 21.2-4.5 25.9-2.2 4.4-9.3 11.6-13.3 13.7-3.4 1.7-3.6 1.7-7.3-.1zm23.4-1.5c-3.7-3.1-3.9-5.4-.7-9.1 2.1-2.4 3.2-2.8 7.4-2.8 9.2 0 13.2 6.8 7.1 11.9-4.2 3.5-9.6 3.5-13.8 0zm-73-1.5c-3.3-5.3-2.6-6.3 5.4-7.2 10.7-1.3 16.5-3.6 19.2-7.6 1.3-1.9 2.3-3.8 2.3-4.2s-2.4-.9-5.2-1.1l-5.3-.3-.3-9.7-.3-9.8h-8.3c-9.6 0-10.4-.5-10.8-7.1-.3-3.9 0-4.4 1.9-4.7 2.1-.3 2.2-.8 2.5-11.5l.3-11.2h11l.3 11.3c.2 8.9.6 11.2 1.7 11.2 1.2 0 1.5-2.4 1.7-12.2l.3-12.3h7.5c7.4 0 7.5 0 7.8 2.8.3 2.4.7 2.7 4.2 2.7 4.4 0 5.6 1.2 5.1 5.5-.4 4.2-1.8 5.5-5.7 5.5-3.3 0-3.4.1-3.4 4v4h4.9c5.7 0 6.6.9 6.2 6-.4 4.9-1.7 6-6.7 6H920v12h4.8c6.6 0 7.4 1 5.5 7.4-2.2 7.3-3.8 10.1-8.6 14.8-6.1 5.9-11.5 8-22.4 8.6l-9.2.5-2-3.4zm.2-12.4c-3.8-1.6-3.8-1.4-1.3-8.5 1.1-3 1.9-6.9 2-8.6 0-4.2 2-5.6 7.2-5.2l4.3.3-.2 5.7c-.2 6.1-2.6 11.9-6.5 15.5-2.1 2-2.6 2-5.5.8zm45.1-1.8c-.2-.7-.3-11.1-.2-23.2l.3-22 4.3-.3c2.4-.2 4.9.2 5.7.8 1 .8 1.4.5 1.9-1.4.3-1.3.9-3.1 1.2-4 .5-1.3-.6-1.6-6.7-1.8l-7.4-.3-.7-4.4c-.4-2.4-.5-4.8-.2-5.2.3-.5 10.6-.9 23-.9 25 0 24.5-.2 22.8 6.9l-.9 3.6-6.8.5c-6.3.5-6.9.7-8.7 3.8l-2 3.2h5.3c6.7 0 11.2 2.6 12.1 7 1.8 9-.3 35.3-3.1 38.1-.6.6-2.3.5-4.9-.4-2.9-.9-3.8-1.7-3.6-3.2.9-7.7 1.7-23.6 1.2-26.5-.5-3.4-.7-3.5-5.5-3.8-2.7-.2-6.9.2-9.3.8-3.3.8-4.8.8-5.8-.1-1.2-1-1.4 1.3-1.4 15.3 0 11.4-.4 16.8-1.2 17.6-1.6 1.6-8.7 1.5-9.4-.1zm-931.8-25.4c-.3-.3-.6-26.7-.6-58.5 0-56.1.1-58 2-61.8 3-5.9 9-9.5 15.9-9.5 5.4 0 6.8.7 33.1 15.4l31.2 17.8c7.1 4.8 9.7 14.7 5.8 22.3-3.1 6-8.1 9.3-15 9.8-5.7.4-6 .3-21.1-8.1l-15.4-8.6-.3 26.3-.2 26.4-4.3 3.8c-4 3.6-23.3 19.7-28.3 23.6-1.2 1-2.4 1.4-2.8 1.1zm897.1-48.9c-.4-.4-.7-5.8-.7-12v-11.4l-2.7 1.1c-2.3.9-3 .6-5.6-2l-3-2.9 6.9-6.9c6.9-6.8 12.4-15.7 10.8-17.3-.8-.8-6.3 0-11.6 1.6-2.1.6-6.6-7.2-5-8.8s12.2-3.8 18.7-3.8c13.2 0 17.2 6 12 18.3-.5 1.3-.2 1.7 1.4 1.7 3.1 0 7.1 4.4 7.1 7.8 0 4.8-5.9 8.9-10.5 7.2l-2.4-.9-.6 28.4-7 .3c-3.9.1-7.4 0-7.8-.4zm31.5-1.8l-3.9-3c-.3-.3 1.9-3 4.9-5.9 9.7-9.2 12.8-17.7 13.7-36.7l.6-12.5 6.6-.3c4.5-.2 6.9.1 7.5 1 1.1 1.4.3 20.8-1.1 28.5l-.7 4.2 4.8.3 4.9.3 1 16 6 .5c6 .5 6 .5 5.7 3.4-.7 6.3-1.3 6.6-12.3 6.6-9.3 0-10.2-.2-12.4-2.5-2.1-2-2.5-3.4-2.5-7.9v-5.5l-4.6 4.9c-3.9 4.1-13.1 11.1-14.5 11-.2-.1-1.9-1.1-3.7-2.4zm-.2-27.1c-.7-.8-.9-9.8-.8-26.1l.3-24.9 4.8-.3c4.1-.3 4.9 0 5.4 1.6.4 1.8.7 1.8 4.6.4 2.6-.9 8.1-1.5 14.7-1.6 11.7-.1 15.1 1.1 17.2 6.2 1.1 3 .4 35.1-1 41.2-.8 3.4-.9 3.5-5.3 3.2-6.6-.5-6.9-1.2-5.7-12.2 1.3-12.7.7-24.8-1.2-26.1-1.3-.9-14.3-.7-18 .2-.9.2-2.1-1-3.2-3.1-1.8-3.5-1.8-3.2-1.8 18.7 0 16.1-.3 22.4-1.2 22.9-2.1 1.3-7.7 1.2-8.8-.1zm-25.6-39.9c-5.2-2.4-11.1-8.7-9.9-10.6.3-.5 4-1 8.3-1 7.6.1 7.7.1 12.5 4.4l4.9 4.4-3.5 2.6c-4.2 3.2-5.8 3.2-12.3.2z" fill="#cc0a1e"/><path d="M16 175.9007c-6.2-2.2-9.3-4.2-11.7-7.7-3.7-5.3-4-14.9-.7-19.4 1.1-1.5 16.7-15.1 34.5-30.1l42.4-35.7 27.1-22.7 40.8-34.3c30.3-25.5 29.6-25 36.6-25 10.6 0 18 8 18 19.3 0 4.6-.4 5.7-3.7 9.4-2.1 2.2-10.3 9.5-18.3 16.2l-76.5 63.8-77.3 64.2c-3.3 1.7-9.1 2.7-11.2 2zm339-2.4c-23.1-2.9-44.6-15.6-58.9-34.9-20.5-27.7-22.7-63.6-5.6-93.5 20.4-35.9 62.5-52.2 101.7-39.5 25.4 8.2 45.9 28.2 54.8 53.7 1.5 4 2.9 7.3 3.3 7.3.4-.1 10-.1 21.5-.1h20.7v-64.5h27l.3 32.2.2 32.3 21.8.2 21.7.3-.3 5.8c-.4 10.2.8 9.7-22.7 9.7H520l-.2 45.3-.3 45.2-12.8.3-12.7.3-1.1-2.8c-.7-1.8-1-17.5-.8-45.3l.2-42.5-18.8-.3c-10.4-.1-19.4-.7-20-1.2-.9-.8-1.3 1.7-1.8 9.8-1.3 23.5-10.7 43.8-27.5 59.4-18.8 17.4-44.7 25.9-69.2 22.8zm28-20.5c21.5-5.7 39.7-22.9 46.7-43.9 2.5-7.3 2.7-9.5 2.7-22.1 0-13.2-.2-14.4-3.1-22.3-6.4-16.8-17.9-29.9-32.8-37.2-23.2-11.5-47.8-10.1-68.9 4-12.7 8.6-20.9 19.4-26.4 34.9-2.4 6.8-2.7 9.1-2.7 21.1 0 12.2.3 14.3 2.8 21.7 3.6 10.5 10.6 21.1 18.6 28.6 7.1 6.5 21.3 13.9 30.1 15.6l7.5 1.5c3.6.9 19.9-.3 25.5-1.9zm278.7 20.4c-18.5-2.1-36.6-11.1-50.6-25-32.9-32.8-33.9-85.4-2.2-119.1 17.7-18.9 38.4-28 63.4-27.9 38 .1 71.3 24.9 82.5 61.3 9.2 29.9.8 63.1-21.6 85.6-14.4 14.3-31.4 22.7-51.4 25.2-9.1 1.1-10.2 1.1-20.1-.1zm23.4-19.4c42.2-8.9 65.3-51.4 49.8-91.7-7.6-19.5-24.9-34.8-45.9-40.4-8-2.1-24.3-2.3-32-.5-37.5 9.1-59.9 46.1-50.4 83.3 8.8 34.5 43.9 56.6 78.5 49.3zm96.4 20c-.5-.2-2.7-.6-4.8-1-4.9-.8-10.2-5.5-12.2-10.8-1.3-3.6-1.5-9.5-1.3-43.2l.3-39h26l.3 39.3.2 39.2h37.3c20.6 0 37.6.3 37.9.6.8.7-2.7 12.1-4.2 14-1.1 1.2-7.4 1.4-39.9 1.3-21.2 0-39-.2-39.6-.4zm-233.4-7.6c-4.9-7.4-7.4-15.1-9.5-29.5-1.8-12.3-3.8-39.3-3-40.6.7-1.1 20.1-1.1 20.8.1.3.4 1 9.3 1.6 19.7 1.1 20.2 3.2 37.8 5.4 46.2.9 3.8 1 5.4.2 6.1-.9.6-10.2 4.1-11.2 4.1-.1 0-2.1-2.7-4.3-6.1zm-93.1 3.7c-5.6-1.8-6-2.2-4.9-5.9 3.1-10.9 5.7-34.4 6-56 .2-7.1.6-11.1 1.5-11.7.7-.6 5.1-1 10.5-.8l9.4.3-.2 13c-.3 24.1-3 42.9-7.5 51.9-5.1 10.3-7.4 11.7-14.8 9.2zm389-21.4c-12.1-3.1-11.5-2.1-8.6-15.7 2.2-10.3 2.3-23.3.1-27.9-2.4-5-6.1-6.2-17.5-5.7l-14 .5-4.4.1-1.9-6.4-2-6.4 2.2-1.6c2.1-1.6 2.1-2.1 1.9-24.6l-.3-23-19.5-.2c-16.5-.2-19.6-.4-20.6-1.8-1.5-2.1-2.8-12.5-1.7-13.6.5-.5 10.1-1 21.3-1.1l20.5-.3 1-19 12.8-.3c9.6-.2 12.9.1 13.2 1 .3.7.6 4.8.8 9.1.2 5.4.8 8.2 1.8 8.8.8.5 9.6.9 19.7.8 11.5-.1 18.7.2 19.4.9 1.4 1.4 0 12.8-1.7 14.2-.9.8-8 1.2-20.2 1.3l-18.8.2v20c-.1 11 .1 20.8.3 21.8.3 1.4 1.5 1.7 8.1 1.7 16.3 0 24.5 3.2 29.2 11.3 3.5 6 3.3 17.8-.5 35.7-3.6 17-5.5 22.4-8.1 22.7-1.1.1-6.7-1.1-12.5-2.5zm-301.7-97.6c-2.8-.6-5.4-1.4-5.7-1.7s.3-6.8 1.4-14.5l2.7-20.9.8-7 8.9-.3c4.9-.2 9.5-.1 10.1.2 2.8 1-1.9 29.3-6.5 39.4-3.2 6.8-3.1 6.7-11.7 4.8zm-81-.8c-4-4.8-9.9-30.4-9.1-39.7l.3-3.6h19l1.2 11.3c.7 6.3 1.9 15.2 2.6 19.9l1.4 8.5-4.6 2c-6.5 2.8-9.5 3.2-10.8 1.6z" fill="#1a83c6"/></svg>