<svg version="1.1" viewBox="0 0 249 120" xmlns="http://www.w3.org/2000/svg"><g transform="translate(-34 -8.2)"><path d="m159 127c0-0.86 0.73-1.6 1.6-1.6 1.9 0 1.6-2.3-1-8.2-1.6-3.7-1.6-3.8 0.73-3.8 1.8 0 2.6 0.78 3.4 3.2 0.99 3.2 1.2 3.1 2.7-1.5 0.54-1.7 4.7-2.6 4.6-1-0.042 0.41-1.3 3.7-2.8 7.2-2.4 5.9-3 6.5-5.9 6.8-2.4 0.23-3.2-0.089-3.2-1.2zm-99-10c0-6.8 0.18-7.5 2-7.5s2 0.67 2 7.5-0.18 7.5-2 7.5-2-0.67-2-7.5zm8.7 6.8c-0.37-0.37-0.67-2.2-0.67-4 0-1.8-0.45-3.3-1-3.3-1.8 0-1-2.2 1.8-4.8 2.7-2.6 2.8-2.6 3.1-0.36 0.18 1.2 0.96 2.2 1.8 2.2s1.4 0.68 1.4 1.5-0.68 1.5-1.5 1.5c-0.92 0-1.5 0.93-1.5 2.4 0 1.3 0.68 2.7 1.5 3 2.5 0.97 1.7 2.6-1.3 2.6-1.6 0-3.1-0.3-3.5-0.67zm15 4e-3c-2.8-1.1-1.1-2.5 2.2-1.9 1.9 0.36 3.5 0.25 3.5-0.26 0-0.51-1.4-1.2-3-1.5-5.8-1.2-4.6-6.6 1.5-6.6 1.8 0 3.9 0.73 4.6 1.7 1.2 1.5 1 1.6-2.4 1.1-2.1-0.34-3.8-0.19-3.8 0.33 0 0.52 0.86 0.94 1.9 0.94 4.7 0 6.7 3 3.9 5.8-1.2 1.2-6.2 1.5-8.6 0.54zm12-1.8c0-2 0.5-2.5 2.5-2.5s2.5 0.5 2.5 2.5-0.5 2.5-2.5 2.5-2.5-0.5-2.5-2.5zm6.5 0.75c0.39-0.96 1.6-4.3 2.7-7.5 1.8-5.2 2.3-5.8 4.8-5.8 2.5 0 3 0.62 5.4 7.1 1.4 3.9 2.6 7.3 2.6 7.5s-1.1 0.44-2.5 0.44-2.5-0.45-2.5-1-1.4-1-3-1-3 0.45-3 1-1.2 1-2.6 1c-2.1 0-2.5-0.35-1.9-1.8zm8.8-6.2c-0.29-1.1-0.92-1.7-1.4-1.4-1.4 0.87-1 3.4 0.52 3.4 0.91 0 1.2-0.7 0.89-2zm7.7 0.49c0-7.3 0.056-7.5 2.5-7.5 2.4 0 2.5 0.17 2.5 7.5s-0.056 7.5-2.5 7.5c-2.4 0-2.5-0.17-2.5-7.5zm8.2 2.2c-1.1-2.9-1.6-5.4-1-5.6 1.8-0.67 3.9 0.81 3.9 2.8 0 2.9 1.7 2.5 2.4-0.47 0.92-3.7 4.1-3.3 5.6 0.75l1.2 3.2 0.92-3.2c0.64-2.3 1.5-3.2 2.9-3.2 2.4 0 2.4-0.55 0.077 5.5-2.2 5.9-5.6 7.4-6.7 3.1-0.82-3.3-2-3.3-2.8-0.065-1.1 4.5-4.2 3.2-6.4-2.8zm19 4.5c-0.32-0.32-0.58-1.4-0.58-2.4 0-1.2 1.2-2.1 4-2.9 2.2-0.59 4-1.3 4-1.6 0-0.3-1.8-0.25-4 0.13s-4 0.28-4-0.21c0-1.9 2.6-3.3 6-3.3 4.7 0 6 1.5 6 6.6v4.2l-5.4 0.049c-3 0.027-5.7-0.21-6-0.54zm6.9-3.3c0.34-0.55-0.057-1-0.88-1-0.82 0-1.8 0.45-2.1 1s0.057 1 0.88 1c0.82 0 1.8-0.45 2.1-1zm21 3.3c-2.8-1.1-1.1-2.5 2.2-1.9 1.9 0.36 3.5 0.25 3.5-0.26 0-0.51-1.4-1.2-3-1.5-5.8-1.2-4.6-6.6 1.5-6.6 1.8 0 3.9 0.73 4.6 1.7 1.2 1.5 1 1.6-2.4 1.1-2.1-0.34-3.8-0.19-3.8 0.33 0 0.52 0.86 0.94 1.9 0.94 4.7 0 6.7 3 3.9 5.8-1.2 1.2-6.2 1.5-8.6 0.54zm12-1.8c0-2 0.5-2.5 2.5-2.5s2.5 0.5 2.5 2.5-0.5 2.5-2.5 2.5-2.5-0.5-2.5-2.5zm9.2 0.19c-3.1-3.3-2.9-8 0.46-11 5.6-4.4 13-1.3 13 5.4 0 6.9-9 10-14 5.2zm8.3-5.2c0-3.6-0.25-4-2.5-4-2 0-2.6 0.56-2.8 2.8-0.47 4.1 0.48 5.9 3.1 5.5 1.9-0.27 2.3-0.93 2.3-4.3zm7.5 2.1v-5.4l4.8 0.043c6.1 0.056 7.2 1.1 7.2 6.4 0 3.7-0.32 4.4-1.9 4.4-1.5 0-2-0.81-2.2-3.7-0.45-5.3-2.8-5.6-2.8-0.41 0 3.7-0.24 4.1-2.5 4.1-2.4 0-2.5-0.31-2.5-5.4zm-134-6.6c0-2.3 0.44-3 2-3s2 0.67 2 3-0.44 3-2 3-2-0.67-2-3zm-42-40v-33h57v22l2.9-4c4.3-6 13-9.7 21-9.6 22 0.2 33 24 19 40-5.4 6.1-11 8.5-19 8.5-9.6 0-16-3.1-21-10l-2.3-3.2v22h-57zm52 0v-28h-47v56h47zm-44 19c0-4.3 0.45-5 11-17l11-13-22-0.57v-12h41v5.1c0 5.1-0.0022 5.1-12 18l-12 13h23v11h-42zm81-9.9c3-3 3.4-4 3.4-8.4 0-9.2-7.7-15-16-12-5.4 2.2-7.7 6.5-7 13 0.75 6.7 4.8 10 11 10 3.9 0 5.1-0.52 8-3.4zm24-8.8 0.27-23 12-0.59 19 24 0.56-24h13v47l-12-0.6-18-23-0.56 24h-14zm53-0.25v-24h38v12h-25l0.63 6.5 22 0.57v9.9h-23v7h25v11h-38zm51-16c-9.4-3.6-15-11-16-21-1.6-17 16-30 33-25 21 7.2 23 35 2.5 45-4.3 2.2-14 2.7-19 0.82zm16-6c4.9-2.1 8.1-5.1 10-10 4.9-11-1.1-22-13-26-5.7-1.5-10-0.66-16 3-8 5.1-11 14-6.9 23 4.2 9.3 16 14 26 9.8zm-18-16c0-5.7-0.11-6-2.5-6-1.6 0-2.5-0.57-2.5-1.5 0-1.2 1.8-1.5 9.9-1.5h9.9l1.7 5.2c0.96 2.9 1.9 4.8 2 4.2 0.15-0.55 0.77-2.9 1.4-5.2 0.93-3.6 1.5-4.2 3.7-4.2 1.6 0 2.4 0.45 2.1 1.2-0.26 0.69-1.5 4.1-2.7 7.5-2 5.5-2.6 6.2-4.9 6.2-2.4 0-2.9-0.7-5.1-7.1-1.3-3.9-2.6-6.6-2.8-6-0.19 0.58-1.4 1.1-2.8 1.1-2.3 0-2.4 0.32-2.4 6 0 5.7-0.11 6-2.5 6s-2.5-0.27-2.5-6zm-209-6.5v-12h9.7l1.3 6c0.7 3.3 1.6 6 2 6s1.3-2.7 2-6l1.3-6h9.7v23h-5.9l-0.59-14-1.9 7.2c-1.7 6.8-2 7.2-4.6 7.2-2.6 0-2.9-0.42-4.8-7.8l-2-7.8-0.19 16h-6zm37 6.7c0-4-0.74-5.9-4.5-12l-4.5-6.7h3.9c3.4 0 4.2 0.46 6.1 3.5 1.2 1.9 2.3 3.5 2.5 3.5s1.3-1.6 2.5-3.5c1.9-3 2.7-3.5 6.1-3.5h3.9l-4.5 6.7c-3.8 5.6-4.5 7.5-4.5 12v4.8h-7z"/></g></svg>
