<svg viewBox="-260 0 1200 842" xmlns="http://www.w3.org/2000/svg"><g fill="#FCC110" fill-rule="nonzero"><path d="M274.0229 222.0288v226.3548c0 35.4864 20.861 56.0941 56.8251 56.0941h98.7139c36.298 0 55.7404-20.6077 55.7404-56.094V222.0287h-37.5497v216.9165c0 21.0198-11.7656 30.046-34.8377 30.046h-66.7967c-22.7384 0-34.8377-9.0262-34.8377-30.046V222.0288h-37.2576zM733.2968 325.397v-47.8098c0-36.5993-21.8622-54.3219-54.2384-54.3219H542.2108V505.879h137.1397c32.2927 0 54.2384-15.909 54.2384-52.5083v-49.4585c.8223-15.5845-6.7232-30.4453-19.8596-39.1133 10.1384-7.5424 19.5675-18.0524 19.5675-39.402zm-34.2953 112.9713c0 23.163-11.098 31.8595-30.29 31.8595h-92.414v-89.8083h93.1232c18.8165 0 29.5808 9.768 29.5808 32.2304v25.7184zm0-125.6657c0 22.4624-10.4305 31.8595-29.5808 31.8595h-93.1231v-85.4394h92.4138c19.192 0 30.29 8.243 30.29 31.4885v22.0914zM257.7931 804.0722c-24.1987 0-37.049-9.6032-37.049-31.9831V593.2144H331.307l-10.8477-35.1155h-99.5066V541.283h-.2086v-20.9786h-39.5523V782.022c0 37.7532 22.2378 59.721 60.455 59.721h104.9304l-11.9325-37.7945-76.8516.1237zM42.2581 222.0288H3.3734V504.519H42.258V381.7384H164.837v-35.1155H42.258zM528.4843 558.1813l-62.5827 193.9183c-4.1722 12.9004-10.7225 43.4822-10.7225 43.4822h-5.3404s-7.1344-30.0048-11.3066-43.4822l-61.8735-193.9183H336.856l18.0238 58.3198 71.7616 223.7994h51.735l90.4112-282.0367-40.3033-.0825zM157.7024 142.5244c0 32.9723-20.6523 47.1504-49.5238 47.1504H50.1853c-28.8715 0-49.5238-14.8788-49.5238-47.8098V49.5838c0-32.9723 20.6523-47.1504 49.5238-47.1504h58.1185c28.8715 0 49.5238 13.2301 49.5238 46.1612l-.1252 93.9298zM29.533 133.4982c0 20.6077 10.931 27.738 29.4556 27.738h37.341c19.1503 0 32.7934-4.1215 32.7934-27.738V58.9398c0-23.5752-13.9351-27.7792-32.7934-27.7792h-37.341c-18.5245 0-29.4556 6.8005-29.4556 27.7792v74.5586zM588.4386 189.3039h-111.898c-30.9993 0-52.8615-14.7964-52.8615-48.016V48.8008c0-32.9723 22.196-46.4085 53.1953-46.4085h61.9987c30.9993 0 52.5278 14.178 52.5278 47.0267v28.8508l-136.806 51.7252c0 25.1414 8.8034 30.9528 34.2537 30.9528h99.5066l.0834 28.3562zm-134.094-88.613l106.3907-40.927v-5.4816c0-18.0523-8.8033-23.2042-33.6278-23.2042h-40.1364c-23.4894 0-32.6264 9.3146-32.6264 29.3041v40.3086z"/><path d="M328.8871.9084h-79.5635c-40.4285 0-69.3834 17.6814-69.3834 60.5454l1.043 443.23h39.5523l-.584-430.206c0-27.3257 15.729-36.1458 39.5522-36.1458h57.4092c25.9927 0 41.3047 8.82 41.3047 36.1459v147.7158h40.4285V61.866C398.6877 19.002 369.3156.9084 328.887.9084z"/></g></svg>