
<svg viewBox="0 0 336 88" version="1.1" xmlns="http://www.w3.org/2000/svg" xmlns:xlink="http://www.w3.org/1999/xlink">
    <g id="Page-1" stroke="none" stroke-width="1" fill="none" fill-rule="evenodd">
        <g id="Rakuten-OverDrive-Logo-01" transform="translate(-12.000000, -12.000000)">
            <path d="M49.548,31.235 C49.548,41.44 41.274,49.71 31.068,49.71 C20.856,49.71 12.589,41.44 12.589,31.235 C12.589,21.027 20.856,12.751 31.068,12.751 C41.274,12.751 49.548,21.027 49.548,31.235" id="Fill-1" fill="#1C5D84"></path>
            <path d="M28.624,25.074 L31.087,25.074 C32.782,25.074 34.167,26.452 34.167,28.15 C34.167,29.852 32.782,31.23 31.087,31.23 L28.624,31.23 L28.624,25.074 Z M28.624,41.163 L28.624,35.004 L31.293,35.004 L35.914,41.163 L40.638,41.163 L35.054,33.731 C36.794,32.482 37.937,30.451 37.937,28.15 C37.937,24.372 34.865,21.304 31.087,21.304 L24.851,21.304 L24.851,41.163 L28.624,41.163 L28.624,41.163 Z" id="Fill-2" fill="#FFFFFE"></path>
            <path d="M174.318,40.452 C173.976,41.169 173.214,42.216 171.672,42.216 C170.685,42.216 168.824,41.554 168.824,39.041 L168.824,27.555 L178.135,27.555 L178.135,21.235 L168.824,21.235 L168.824,14.6 L162.503,14.6 L162.503,21.235 L158.016,21.235 L158.016,27.555 L162.503,27.555 L162.503,39.041 C162.501,44.987 167.166,48.539 171.672,48.539 C176.284,48.539 179.34,45.399 180.474,42.106 L174.318,40.452" id="Fill-3" fill="#1B1A19"></path>
            <path d="M90.094,42.196 C86.704,42.196 83.945,38.766 83.945,34.549 C83.945,30.335 86.704,26.905 90.094,26.905 C93.488,26.905 96.249,30.335 96.249,34.549 C96.249,38.766 93.488,42.196 90.094,42.196 Z M96.249,21.235 L96.249,22.416 C94.427,21.256 92.331,20.58 90.094,20.58 C83.219,20.58 77.627,26.85 77.627,34.549 C77.627,42.25 83.219,48.516 90.094,48.516 C92.331,48.516 94.427,47.844 96.249,46.681 L96.249,47.862 L102.569,47.862 L102.569,21.235 L96.249,21.235 L96.249,21.235 Z" id="Fill-4" fill="#1B1A19"></path>
            <path d="M149.483,21.235 L149.483,36.876 C149.483,39.81 147.099,42.196 144.162,42.196 C141.229,42.196 138.842,39.81 138.842,36.876 L138.842,21.235 L132.521,21.235 L132.521,36.876 C132.521,43.295 137.744,48.516 144.162,48.516 C146.079,48.516 147.887,48.044 149.483,47.218 L149.483,47.862 L155.803,47.862 L155.803,21.235 L149.483,21.235" id="Fill-5" fill="#1B1A19"></path>
            <path d="M220.157,20.58 C218.241,20.58 216.436,21.057 214.839,21.88 L214.839,21.235 L208.519,21.235 L208.519,47.862 L214.839,47.862 L214.839,32.223 C214.839,29.286 217.224,26.899 220.157,26.899 C223.092,26.899 225.479,29.286 225.479,32.223 L225.479,47.862 L231.799,47.862 L231.799,32.223 C231.799,25.807 226.578,20.58 220.157,20.58" id="Fill-6" fill="#1B1A19"></path>
            <path d="M198.845,30.759 L188.187,30.759 C189.369,25.581 197.671,24.502 198.845,30.759 Z M205.99,34.548 C205.99,26.836 200.395,20.559 193.518,20.559 C186.523,20.559 181.044,26.705 181.044,34.548 C181.044,42.795 188.078,48.539 194.393,48.539 C197.58,48.539 201.944,47.447 205.375,42.579 L199.871,39.401 C195.203,45.103 188.699,41.232 188.051,36.409 L205.867,36.413 C205.938,35.793 205.99,35.17 205.99,34.548 L205.99,34.548 Z" id="Fill-7" fill="#1B1A19"></path>
            <polyline id="Fill-8" fill="#1B1A19" points="118.774 33.716 131.257 21.235 122.319 21.235 112.682 30.875 112.682 12.4 106.361 12.4 106.361 47.862 112.682 47.862 112.682 36.559 123.982 47.862 132.916 47.862 118.774 33.716"></polyline>
            <path d="M59.564,20.915 L63.688,20.915 C66.527,20.915 68.848,23.223 68.848,26.067 C68.848,28.918 66.527,31.226 63.688,31.226 L59.564,31.226 L59.564,20.915 Z M59.564,47.862 L59.564,37.546 L64.034,37.546 L71.774,47.862 L79.685,47.862 L70.333,35.414 C73.248,33.322 75.162,29.92 75.162,26.067 C75.162,19.739 70.017,14.6 63.688,14.6 L53.244,14.6 L53.244,47.862 L59.564,47.862 L59.564,47.862 Z" id="Fill-9" fill="#1B1A19"></path>
            <path d="M74.515,92.33 C83.929,92.33 92.678,85.645 94.373,77.947 C96.13,69.968 90.155,63.451 80.876,63.451 C71.595,63.451 62.748,69.968 60.992,77.947 C59.296,85.645 65.101,92.33 74.515,92.33 M82.458,56.259 C96.477,56.259 106.217,65.698 103.507,78.003 C100.884,89.914 87.152,99.522 72.931,99.522 C58.711,99.522 49.207,89.914 51.831,78.003 C54.543,65.698 68.438,56.259 82.458,56.259" id="Fill-10" fill="#1C5D84"></path>
            <polyline id="Fill-11" fill="#1C5D84" points="105.555 67.496 115.166 67.496 119.56 88.172 119.762 88.172 132.729 67.496 142.475 67.496 120.584 98.68 113.642 98.68 105.555 67.496"></polyline>
            <path d="M166.201,80.419 C166.302,75.418 162.499,73.285 157.759,73.285 C154.153,73.285 148.649,74.631 145.704,80.419 L166.201,80.419 Z M144.647,86.431 C144.602,88.453 147.11,92.837 153.451,92.837 C157.393,92.837 160.638,91.431 162.877,88.849 L172.224,88.849 C168.848,94.465 160.69,99.692 151.942,99.692 C140.661,99.692 134.014,92.275 136.02,83.172 C137.961,74.35 147.45,66.428 159.201,66.428 C171.353,66.428 176.519,74.801 174.787,82.666 C174.463,84.128 173.913,85.418 173.423,86.431 L144.647,86.431 L144.647,86.431 Z" id="Fill-12" fill="#1C5D84"></path>
            <path d="M180.998,67.496 L189.144,67.496 L188.537,70.249 L188.671,70.249 C190.785,68.225 192.85,66.428 197.456,66.428 L198.19,66.428 L196.595,73.677 C188.453,73.958 187.28,79.295 186.871,81.15 L183.011,98.68 L174.132,98.68 L180.998,67.496" id="Fill-13" fill="#1C5D84"></path>
            <path d="M204.221,91.488 L206.158,91.488 C211.1,91.488 214.364,91.207 218.621,89.466 C223.99,87.218 227.581,82.442 228.556,78.003 C229.446,73.958 228.219,70.136 225.535,67.777 C222.371,64.855 217.689,64.293 211.948,64.293 L210.211,64.293 L204.221,91.488 Z M202.649,57.101 L213.863,57.101 C226.016,57.101 230.684,59.854 233.097,61.933 C237.027,65.304 239.137,71.485 237.703,78.003 C236.058,85.476 229.867,92.667 221.927,95.984 C216.918,98.118 210.45,98.68 204.907,98.68 L193.492,98.68 L202.649,57.101 L202.649,57.101 Z" id="Fill-14" fill="#1C5D84"></path>
            <path d="M242.419,67.496 L250.566,67.496 L249.959,70.249 L250.092,70.249 C252.208,68.225 254.273,66.428 258.88,66.428 L259.613,66.428 L258.018,73.677 C249.877,73.958 248.701,79.295 248.294,81.15 L244.433,98.68 L235.554,98.68 L242.419,67.496" id="Fill-15" fill="#1C5D84"></path>
            <path d="M264.071,57.101 L272.952,57.101 L271.44,63.955 L262.562,63.955 L264.071,57.101 Z M261.78,67.496 L270.66,67.496 L263.794,98.68 L254.915,98.68 L261.78,67.496 L261.78,67.496 Z" id="Fill-16" fill="#1C5D84"></path>
            <polyline id="Fill-17" fill="#1C5D84" points="272.464 67.496 282.078 67.496 286.47 88.172 286.671 88.172 299.636 67.496 309.385 67.496 287.495 98.68 280.552 98.68 272.464 67.496"></polyline>
            <path d="M333.776,80.419 C333.878,75.418 330.076,73.285 325.335,73.285 C321.728,73.285 316.227,74.631 313.281,80.419 L333.776,80.419 Z M312.225,86.431 C312.182,88.453 314.686,92.837 321.027,92.837 C324.967,92.837 328.217,91.431 330.452,88.849 L339.801,88.849 C336.427,94.465 328.263,99.692 319.519,99.692 C308.236,99.692 301.59,92.275 303.593,83.172 C305.538,74.35 315.028,66.428 326.776,66.428 C338.927,66.428 344.096,74.801 342.362,82.666 C342.04,84.128 341.488,85.418 340.999,86.431 L312.225,86.431 L312.225,86.431 Z" id="Fill-18" fill="#1C5D84"></path>
            <path d="M343.998,66.542 L344.671,66.542 C344.938,66.542 345.395,66.542 345.507,65.943 C345.537,65.551 345.268,65.51 344.95,65.51 L344.191,65.51 L343.998,66.542 Z M345.141,64.903 C345.375,64.903 346.467,64.903 346.278,65.917 C346.201,66.327 345.942,66.703 345.409,66.823 L345.407,66.84 C345.896,66.984 345.936,67.292 345.86,67.768 C345.779,68.4 345.764,68.476 345.823,68.629 L345.056,68.629 C345.007,68.522 345.001,68.41 345.071,67.939 C345.156,67.352 345.067,67.19 344.551,67.139 L343.887,67.139 L343.606,68.629 L342.855,68.629 L343.555,64.903 L345.141,64.903 Z M342.1,66.738 C341.842,68.129 342.74,69.262 344.145,69.262 C345.54,69.262 346.87,68.136 347.131,66.738 C347.389,65.365 346.511,64.212 345.09,64.212 C343.658,64.212 342.358,65.365 342.1,66.738 L342.1,66.738 Z M347.908,66.738 C347.569,68.547 345.808,69.996 344.015,69.996 C342.172,69.996 340.992,68.522 341.325,66.738 C341.657,64.963 343.383,63.48 345.234,63.48 C347.063,63.48 348.238,64.956 347.908,66.738 L347.908,66.738 Z" id="Fill-19" fill="#1C5D84"></path>
        </g>
    </g>
</svg>