<svg xmlns="http://www.w3.org/2000/svg" viewBox="0 0 130 54" fill-rule="nonzero"><path d="M3 24c8.882-4.353 17.473-8.785 27-11.63C63.214 2.447 97.355 7.815 127 25c-5.16-9.74-18.835-16.327-29-19.576C74.81-1.988 49.75-1.7 27 7.348 18.535 10.714 7.848 15.987 3 24z" fill="#fb6b10"/><path d="M28.004 30.654c14.398-4.5 21.86 18.06 6.992 22.4-14.343 4.187-21.038-18.01-6.992-22.4zM0 30c4.896 0 10.783-.776 14.867 2.514C24.77 40.493 13.46 48.82 5 49v4H0zm28.06 6.03c-8.007 4.342-.775 16.08 6.882 11.942 8.274-4.47 1.193-16.323-6.882-11.942zM5 35v9c1.917-.046 4.064.09 5.856-.742 2.987-1.4 3.513-5.122.71-7.08C9.698 34.873 7.157 35.052 5 35zm42 14v4c3.953 0 10.18 1.16 13.656-1.028 3.812-2.4 4.03-8.542.116-10.944C57.94 39.29 53.246 39.603 50 39c2.747-4.982 7.908-4 13-4v-5c-2.333 0-4.67-.04-7.002.005-5.54.104-13.858 5.253-8.395 11.56 2.438 2.815 6.294 1.4 8.93 3.442 1.507 1.173.75 2.704-.74 3.393C53.288 49.56 49.7 49 47 49m20-19v23h4v-9h7v-4h-7v-5h12v-5H67m18 0v23h16v-4H90V30h-5m19 0v23h4V30h-4m7 0c1.273 3.705 4.72 7.047 5.087 11 .386 4.14-3.408 8.406-5.087 12 5.24-.174 7.387-2.01 9-7 3.083 3.774 4.882 6.606 10 7-1.558-3.615-5.258-7.905-4.842-11.985.4-3.935 3.91-7.114 4.842-11.015-5.3.41-7.23 3.193-9 8-2.743-4.445-4.5-7.576-10-8z" fill="#0c86c8"/></svg>