<svg version="1.1" viewBox="-700 0 3500 2380" xmlns="http://www.w3.org/2000/svg"><path d="m2 2e3v-205h523l538 6c9 3 13 13 10 25-3 10 0 19 6 19s11-5 11-12c0-9 3-9 12 0 20 20 31 14 24-13l-7-26 73 3c69 3 73 4 70 26-2 12 0 22 5 23 4 0 16 2 26 4 11 2 23-7 32-26l16-29h104c63 0 105 4 105 10s-4 10-10 10c-5 0-10 7-10 15 0 24 19 18 32-10 11-24 15-25 95-25 49 0 83 4 83 10 0 10-14 14-37 11-7-1-13 4-13 12 0 9 11 14 30 14 18 0 30-6 30-13 0-25 39-34 150-34h110l-6 25c-7 27 4 33 24 13 9-9 12-9 12 0 0 7 5 12 10 12 6 0 10-12 10-26 0-23 3-25 36-22s41 9 61 47c1 1 6 0 12-4 8-4 8-12 1-26-9-15-7-19 7-19 16 0 19 10 19 74 1 48-2 73-10 73-6 0-24 1-41 2l-30 3 35 12c39 14 53 53 25 76-16 14-85 22-85 10 0-4-29-10-64-14-35-3-78-14-96-23-32-15-33-15-50 8-17 21-21 22-54 12-24-7-48-8-69-2-42 12-66 4-60-21 3-11 0-20-6-20s-11 7-11 15-9 15-19 15c-22 0-30 9-36 40-3 16 2 20 24 20 16 0 45-7 64-15 47-19 81-19 98 1 9 11 22 14 47 9 24-4 39-2 52 10 17 16 20 15 39-4 16-16 34-21 77-21 49 0 55 2 44 15-7 8-20 15-29 15-13 1-12 3 4 13 11 6 49 12 85 12h65v48l1 47-111-2c-108-3-110-3-107-25 4-31-14-29-22 2-6 23-11 25-66 25-57 0-60-1-60-25 0-31-22-33-35-2-9 19-19 22-73 25-62 3-63 3-57-21 6-21 3-24-24-24-23 0-31 5-33 21-3 20-9 21-230 24-150 1-228-1-228-8 0-5 5-10 10-10 6 0 10-6 10-13 0-8-12-14-30-14-22 0-30 5-32 21-3 21-4 21-555 24l-551 2zm2098 169c0-8-7-14-15-14-15 0-21 21-9 33 10 9 24-2 24-19zm-2e3 1c0-8-7-15-15-15s-15 7-15 15 7 15 15 15 15-7 15-15zm40 0c0-8-7-15-15-15s-15 7-15 15 7 15 15 15 15-7 15-15zm40 0c0-8-7-15-15-15s-15 7-15 15 7 15 15 15 15-7 15-15zm30 0c0-8-4-15-10-15-5 0-10 7-10 15s5 15 10 15c6 0 10-7 10-15zm40 0c0-8-4-15-10-15-5 0-10 7-10 15s5 15 10 15c6 0 10-7 10-15zm40 0c0-8-4-15-10-15-5 0-10 7-10 15s5 15 10 15c6 0 10-7 10-15zm40 0c0-8-7-15-15-15-16 0-20 12-8 23 11 12 23 8 23-8zm40 0c0-8-7-15-15-15-16 0-20 12-8 23 11 12 23 8 23-8zm40 0c0-8-7-15-15-15s-15 7-15 15 7 15 15 15 15-7 15-15zm38-3c2-7-3-12-12-12s-16 7-16 16c0 17 22 14 28-4zm40 0c2-7-3-12-12-12s-16 7-16 16c0 17 22 14 28-4zm32 3c0-8-4-15-10-15-5 0-10 7-10 15s5 15 10 15c6 0 10-7 10-15zm40 0c0-8-4-15-10-15-5 0-10 7-10 15s5 15 10 15c6 0 10-7 10-15zm40 0c0-8-4-15-10-15-5 0-10 7-10 15s5 15 10 15c6 0 10-7 10-15zm40 0c0-8-4-15-10-15-5 0-10 7-10 15s5 15 10 15c6 0 10-7 10-15zm40 0c0-8-7-15-15-15-16 0-20 12-8 23 11 12 23 8 23-8zm40 0c0-8-7-15-15-15s-15 7-15 15 7 15 15 15 15-7 15-15zm40 0c0-8-7-15-15-15s-15 7-15 15 7 15 15 15 15-7 15-15zm38-3c2-7-3-12-12-12s-16 7-16 16c0 17 22 14 28-4zm32 3c0-8-4-15-10-15-5 0-10 7-10 15s5 15 10 15c6 0 10-7 10-15zm40 0c0-8-4-15-10-15-5 0-10 7-10 15s5 15 10 15c6 0 10-7 10-15zm40 0c0-8-4-15-10-15-5 0-10 7-10 15s5 15 10 15c6 0 10-7 10-15zm40 0c0-8-4-15-10-15-5 0-10 7-10 15s5 15 10 15c6 0 10-7 10-15zm40 0c0-8-7-15-15-15s-15 7-15 15 7 15 15 15 15-7 15-15zm40 0c0-8-7-15-15-15s-15 7-15 15 7 15 15 15 15-7 15-15zm38-3c2-7-3-12-12-12s-16 7-16 16c0 17 22 14 28-4zm32 3c0-8-4-15-10-15-5 0-10 7-10 15s5 15 10 15c6 0 10-7 10-15zm40 0c0-8-4-15-10-15-5 0-10 7-10 15s5 15 10 15c6 0 10-7 10-15zm120 0c0-8-4-15-10-15-5 0-10 7-10 15s5 15 10 15c6 0 10-7 10-15zm40 0c0-8-7-15-15-15s-15 7-15 15 7 15 15 15 15-7 15-15zm38-3c2-7-3-12-12-12s-16 7-16 16c0 17 22 14 28-4zm32 3c0-8-4-15-10-15-5 0-10 7-10 15s5 15 10 15c6 0 10-7 10-15zm40 0c0-8-4-15-10-15-5 0-10 7-10 15s5 15 10 15c6 0 10-7 10-15zm40 0c0-8-4-15-10-15-5 0-10 7-10 15s5 15 10 15c6 0 10-7 10-15zm40 0c0-8-4-15-10-15-5 0-10 7-10 15s5 15 10 15c6 0 10-7 10-15zm40 0c0-8-4-15-10-15-5 0-10 7-10 15s5 15 10 15c6 0 10-7 10-15zm40 0c0-8-7-15-15-15s-15 7-15 15 7 15 15 15 15-7 15-15zm38-3c2-7-3-12-12-12s-16 7-16 16c0 17 22 14 28-4zm40 0c2-7-3-12-12-12s-16 7-16 16c0 17 22 14 28-4zm112 3c0-8-4-15-10-15-5 0-10 7-10 15s5 15 10 15c6 0 10-7 10-15zm40 0c0-8-4-15-10-15-5 0-10 7-10 15s5 15 10 15c6 0 10-7 10-15zm40 0c0-8-7-15-15-15-16 0-20 12-8 23 11 12 23 8 23-8zm78-3c2-7-3-12-12-12s-16 7-16 16c0 17 22 14 28-4zm32 3c0-8-4-15-10-15-5 0-10 7-10 15s5 15 10 15c6 0 10-7 10-15zm40 0c0-8-4-15-10-15-5 0-10 7-10 15s5 15 10 15c6 0 10-7 10-15zm80 0c0-8-4-15-10-15-5 0-10 7-10 15s5 15 10 15c6 0 10-7 10-15zm40 0c0-8-4-15-10-15-5 0-10 7-10 15s5 15 10 15c6 0 10-7 10-15zm78-3c2-7-3-12-12-12s-16 7-16 16c0 17 22 14 28-4zm40 0c2-7-3-12-12-12s-16 7-16 16c0 17 22 14 28-4zm-743-121c7-12-12-24-25-16-11 7-4 25 10 25 5 0 11-4 15-9zm129-52c21-10 23-15 15-30-10-20-44-26-54-9-6 10 2 50 10 50 2 0 15-5 29-11zm501 2c10-17-34-34-51-21-7 7-11 16-8 21 7 12 51 11 59 0zm-236-33c5-13 8-24 7-24 0-1-22-5-48-8-40-6-48-5-48 8 0 10-9 16-22 17-16 0-11 5 17 14 61 20 84 18 94-7zm151-35c0-2-16-3-37-3-35 0-36 1-19 19 16 18 19 18 37 3 10-9 19-18 19-19zm-740 18c0-5-7-11-15-15-15-5-20 5-8 17 9 10 23 9 23-2zm912-15c12 0 17-8 16-23-2-24-23-32-30-12-2 6-15 12-28 13-16 1-26 8-28 20-3 16 0 18 25 11 15-4 36-8 45-9zm-257-30c11-7 33-16 50-20 26-7 27-9 12-17-9-6-22-7-28-4-5 4-38 9-72 12s-69 9-77 14c-15 8-13 9 52 13 9 1 20 4 24 9 10 10 17 9 39-7zm105-6c12-8 9-10-12-10-16 0-28 5-28 10 0 13 20 13 40 0zm-2e3 -65c0-8-7-15-15-15-16 0-20 12-8 23 11 12 23 8 23-8zm40 0c0-8-7-15-15-15s-15 7-15 15 7 15 15 15 15-7 15-15zm40 0c0-8-7-15-15-15s-15 7-15 15 7 15 15 15 15-7 15-15zm30 0c0-8-4-15-10-15-5 0-10 7-10 15s5 15 10 15c6 0 10-7 10-15zm40 0c0-8-4-15-10-15-5 0-10 7-10 15s5 15 10 15c6 0 10-7 10-15zm40 0c0-8-4-15-10-15-5 0-10 7-10 15s5 15 10 15c6 0 10-7 10-15zm40 0c0-8-7-15-15-15-16 0-20 12-8 23 11 12 23 8 23-8zm40 0c0-8-7-15-15-15-16 0-20 12-8 23 11 12 23 8 23-8zm40 0c0-8-7-15-15-15s-15 7-15 15 7 15 15 15 15-7 15-15zm38-3c2-7-3-12-12-12s-16 7-16 16c0 17 22 14 28-4zm34 3c0-5-5-11-11-13s-11 4-11 13 5 15 11 13 11-8 11-13zm38 0c0-8-4-15-10-15-5 0-10 7-10 15s5 15 10 15c6 0 10-7 10-15zm40 0c0-8-4-15-10-15-5 0-10 7-10 15s5 15 10 15c6 0 10-7 10-15zm40 0c0-8-4-15-10-15-5 0-10 7-10 15s5 15 10 15c6 0 10-7 10-15zm40 0c0-8-4-15-10-15-5 0-10 7-10 15s5 15 10 15c6 0 10-7 10-15zm40 0c0-8-7-15-15-15-16 0-20 12-8 23 11 12 23 8 23-8zm40 0c0-8-7-15-15-15s-15 7-15 15 7 15 15 15 15-7 15-15zm40 0c0-8-7-15-15-15s-15 7-15 15 7 15 15 15 15-7 15-15zm38-3c2-7-3-12-12-12s-16 7-16 16c0 17 22 14 28-4zm32 3c0-8-4-15-10-15-5 0-10 7-10 15s5 15 10 15c6 0 10-7 10-15zm40 0c0-8-4-15-10-15-5 0-10 7-10 15s5 15 10 15c6 0 10-7 10-15zm40 0c0-8-4-15-10-15-5 0-10 7-10 15s5 15 10 15c6 0 10-7 10-15zm40 0c0-8-4-15-10-15-5 0-10 7-10 15s5 15 10 15c6 0 10-7 10-15zm40 0c0-8-7-15-15-15s-15 7-15 15 7 15 15 15 15-7 15-15zm40 0c0-8-7-15-15-15s-15 7-15 15 7 15 15 15 15-7 15-15zm38-3c2-7-3-12-12-12s-16 7-16 16c0 17 22 14 28-4zm32 3c0-8-4-15-10-15-5 0-10 7-10 15s5 15 10 15c6 0 10-7 10-15zm120 0c0-8-4-15-10-15-5 0-10 7-10 15s5 15 10 15c6 0 10-7 10-15zm40 0c0-8-4-15-10-15-5 0-10 7-10 15s5 15 10 15c6 0 10-7 10-15zm40 0c0-8-7-15-15-15s-15 7-15 15 7 15 15 15 15-7 15-15zm110 0c0-8-4-15-10-15-5 0-10 7-10 15s5 15 10 15c6 0 10-7 10-15zm43-4c3-14 1-18-9-14-8 3-14 11-14 19 0 21 17 17 23-5zm37 4c0-8-4-15-10-15-5 0-10 7-10 15s5 15 10 15c6 0 10-7 10-15zm40 3c0-9 3-9 12 0 16 16 28 15 28-3 0-10-10-15-30-15s-30 5-30 15c0 8 5 15 10 15 6 0 10-5 10-12zm118-6c2-7-3-12-12-12s-16 7-16 16c0 17 22 14 28-4zm36 2c9-22 8-24-9-18-8 4-15 12-15 20 0 19 16 18 24-2zm36 1c0-8-4-15-10-15-5 0-10 7-10 15s5 15 10 15c6 0 10-7 10-15zm120 0c0-8-4-15-9-15-13 0-22 16-14 24 11 11 23 6 23-9zm40 0c0-8-7-15-15-15s-15 7-15 15 7 15 15 15 15-7 15-15zm38-3c2-7-3-12-12-12s-16 7-16 16c0 17 22 14 28-4zm32 3c0-8-4-15-10-15-5 0-10 7-10 15s5 15 10 15c6 0 10-7 10-15zm40 0c0-8-4-15-10-15-5 0-10 7-10 15s5 15 10 15c6 0 10-7 10-15zm38-2c-2-9-8-18-15-20-7-3-9 3-6 16 6 25 26 28 21 4zm122 2c0-8-7-15-15-15s-15 7-15 15 7 15 15 15 15-7 15-15zm38-3c2-7-3-12-12-12s-16 7-16 16c0 17 22 14 28-4zm-41-796c-4-10-5-21-2-24 9-9 17 6 13 25-3 17-4 17-11-1z" fill="#383434"/><path d="m473 1710c-34-11-80-59-89-94-3-12-4-104-2-204l3-181 30-31c35-37 94-54 154-46 54 7 86 27 111 69 18 29 20 51 20 212s-2 183-20 212c-10 18-30 39-44 48-30 20-120 28-163 15zm82-276c0-161-2-189-15-189s-15 28-18 180c-3 187 0 209 21 202 9-3 12-50 12-193zm1e3 267c-75-34-80-50-80-266 0-218 4-232 78-266 82-37 188-12 224 53 15 28 18 58 18 213s-3 185-18 213c-35 65-142 90-222 53zm95-90c12-24 13-340 1-360-5-8-16-11-25-8-14 6-16 31-16 190 0 101 3 187 7 190 11 12 22 8 33-12zm-1680-176v-275h140v100c0 93 1 100 20 100s20-7 20-100v-100h140v550h-140v-115c0-108-1-115-20-115s-20 7-20 115v115h-140zm760 0v-275h88c179 1 214 21 220 125 6 84-2 111-36 129-15 9-21 15-14 16 6 0 21 9 32 20 18 18 20 33 20 140v121l-125-6-5-120c-4-104-7-120-22-123-16-3-18 8-18 122v126h-140zm164-61c12-5 16-20 16-59 0-44-3-54-20-58-18-5-20 0-20 59 0 35 2 64 4 64s11-3 20-6zm206 61v-275h88c168 1 213 24 226 114 10 68-2 115-34 135l-28 17 27 16c34 19 41 49 41 174v94h-130v-106c0-107-9-144-35-144-12 0-15 22-15 125v125h-140zm180-74c15-29 12-77-6-95-25-25-34-10-34 55 0 45 3 59 15 59 8 0 19-9 25-19zm570 74v-275h88c168 1 214 24 227 115 11 69-1 113-36 134l-29 18 25 11c36 17 45 49 45 168v104h-130v-113c0-112-7-137-37-137-10 0-13 29-13 125v125h-140zm178-67c20-20 15-96-7-107-26-15-31-5-31 61 0 59 11 73 38 46zm-2058-818v-550h210v60h-140v980h141l-3 28-3 27-205 6zm2e3 521v-30l135-6 3-487 2-488h-140v-60h210l-2 548-3 547-205 6zm-1175-105c-59-27-88-57-110-109-20-49-31-357-17-510 8-95 13-113 38-150 17-24 49-51 79-66 42-22 62-26 140-26 104 0 153 20 204 82 46 56 53 110 49 391-4 272-7 290-68 349-68 66-219 85-315 39zm155-142c6-14 10-141 10-288 0-213-3-266-14-282-12-15-18-17-33-8-17 10-18 34-21 295-1 156 0 289 3 296 8 23 45 15 55-13zm559 148-165-2-62-418-62-424c0-5 51-8 114-8h114l6 38c9 55 46 438 47 486 2 84 17-14 34-219l22-252 6-53h233l-56 425-61 427c-2 2-79 2-170 0zm-1389-428v-426l183 4c160 3 186 5 216 23 69 41 76 59 79 228 2 137 1 155-17 184-28 44-71 64-157 70l-74 6v337h-230zm290-83c5-11 10-51 10-90 0-58-4-75-20-91-42-42-50-29-50 90v110h25c14 0 29-8 35-19zm1474-175c-24-24-34-43-34-66 0-118 156-158 205-53 35 74-15 153-97 153-32 0-47-7-74-34z" fill="#ed1c24"/></svg>
