<svg version="1.0" xmlns="http://www.w3.org/2000/svg" viewBox="-20 0 650 330.952178">
<g transform="translate(-149.029562,490.000000) rotate(-360.00) scale(0.095238,-0.095238)"
fill="#000000" stroke="none">
<path d="M1575 4184 l0 -960 252 0 252 0 0 320 0 320 81 0 82 -1 230 -320 230
-319 287 0 c158 0 287 1 287 4 0 2 -110 157 -244 344 -135 187 -255 354 -268
373 l-24 34 31 16 c51 26 169 142 212 208 62 96 88 184 88 302 0 76 -6 116
-24 169 -80 234 -318 416 -599 460 -44 6 -237 11 -473 11 l-400 0 0 -961z
m789 617 c66 -29 131 -90 165 -154 23 -46 27 -66 27 -142 0 -77 -4 -97 -27
-143 -34 -64 -99 -125 -165 -155 -40 -17 -71 -22 -164 -22 l-116 -1 -3 300
c-1 164 0 310 3 324 7 25 7 25 120 20 81 -4 126 -12 160 -27z"/>
<path d="M3691 4741 c-275 -60 -497 -269 -584 -551 -32 -103 -35 -304 -6 -410
59 -221 209 -404 410 -503 130 -64 199 -79 358 -79 127 0 144 3 237 35 283 97
472 310 530 599 21 102 17 238 -10 342 -39 149 -143 309 -264 407 -79 65 -229
137 -327 159 -90 20 -256 20 -344 1z m247 -376 c169 -85 232 -427 120 -648
-100 -197 -280 -203 -381 -13 -121 227 -63 571 114 664 49 27 91 26 147 -3z"/>
<path d="M4757 3974 l0 -750 252 0 252 0 0 305 0 305 312 -305 312 -305 320 0
321 0 -391 391 -392 391 326 325 326 326 0 -490 c0 -454 1 -494 21 -571 36
-144 124 -258 249 -323 109 -57 187 -74 339 -75 117 0 140 3 215 29 99 35 191
89 257 150 l48 45 115 -99 c114 -97 116 -99 170 -99 l56 0 0 750 0 751 -258 0
-257 0 0 -492 0 -492 -44 -50 c-57 -64 -131 -100 -208 -100 -82 0 -125 25
-157 89 l-27 53 -3 496 -3 496 -527 0 -527 0 -289 -289 c-159 -159 -292 -288
-297 -288 -4 0 -7 129 -7 288 l0 289 -252 0 -252 0 0 -751z"/>
<path d="M8021 4694 c-58 -58 -28 -152 54 -165 30 -4 44 0 71 23 19 16 33 38
33 51 0 18 -3 15 -15 -12 -14 -32 -50 -55 -86 -55 -29 0 -77 59 -77 94 0 43
41 85 82 85 37 0 83 -34 89 -66 l5 -24 1 24 c2 37 -43 76 -88 76 -28 0 -46 -8
-69 -31z"/>
<path d="M8055 4628 c0 -30 3 -47 6 -37 6 23 33 24 41 3 4 -9 13 -16 22 -16
13 0 13 3 4 15 -10 11 -10 21 -2 36 14 27 -10 54 -47 54 -24 0 -25 -3 -24 -55z
m56 18 c0 -6 -10 -12 -23 -14 -17 -2 -24 2 -24 14 0 12 7 16 24 14 13 -2 23
-8 23 -14z"/>
<path d="M2832 3028 c-4 -4 -7 -307 -7 -673 l0 -665 70 3 71 3 6 320 c4 303 6
323 28 363 56 104 129 146 256 146 82 0 95 -3 141 -32 40 -24 59 -46 84 -93
l31 -62 4 -324 3 -323 67 0 68 0 0 328 c0 354 -5 397 -57 484 -35 60 -95 108
-171 134 -48 17 -79 21 -151 17 -113 -5 -187 -38 -256 -114 l-47 -53 -3 271
-3 271 -63 3 c-35 2 -67 0 -71 -4z"/>
<path d="M7760 2363 l0 -672 68 0 68 0 0 672 0 672 -68 0 -68 0 0 -672z"/>
<path d="M2044 2976 c-105 -26 -204 -85 -291 -172 -130 -131 -188 -277 -188
-473 0 -196 58 -343 188 -473 241 -241 625 -252 897 -25 l71 60 -47 47 -47 47
-61 -49 c-123 -101 -233 -138 -389 -130 -81 4 -105 9 -176 43 -180 86 -289
268 -289 483 0 162 54 293 163 395 193 180 464 183 680 7 l58 -47 49 53 50 53
-40 33 c-61 52 -158 108 -229 134 -85 30 -306 38 -399 14z"/>
<path d="M4098 2645 c-70 -7 -239 -55 -249 -71 -2 -4 5 -31 16 -61 l20 -53 61
24 c124 50 275 58 367 20 86 -36 138 -117 139 -213 0 -48 -2 -55 -18 -50 -48
14 -121 26 -202 32 -236 18 -416 -65 -458 -212 -34 -116 -4 -229 81 -301 147
-126 408 -113 552 28 l45 43 0 -70 0 -70 69 0 69 0 -4 349 c-3 300 -6 355 -22
397 -60 158 -225 232 -466 208z m218 -483 c37 -6 86 -15 109 -21 l40 -11 -6
-74 c-8 -96 -39 -158 -100 -204 -128 -94 -341 -88 -420 12 -70 89 -40 220 64
274 66 34 189 44 313 24z"/>
<path d="M5117 2642 c-63 -21 -113 -54 -159 -107 -23 -26 -44 -46 -48 -46 -4
0 -6 33 -6 73 l0 74 -69 0 -68 0 0 -473 0 -472 68 0 69 0 0 265 c0 351 12 418
89 495 57 57 104 74 205 74 123 0 187 -38 235 -141 20 -45 22 -68 25 -371 l4
-322 68 0 68 0 -4 349 c-3 335 -4 351 -27 409 -29 73 -94 141 -165 175 -64 31
-215 41 -285 18z"/>
<path d="M6107 2636 c-72 -29 -126 -69 -161 -119 l-29 -43 -3 81 -3 81 -68 0
-68 0 0 -473 0 -472 68 0 69 0 0 282 c0 164 4 306 11 337 26 122 123 208 245
218 121 10 211 -34 261 -127 22 -42 23 -58 29 -374 l5 -331 71 -3 71 -3 0 308
c0 177 -5 334 -12 370 -22 120 -91 213 -193 258 -75 34 -222 39 -293 10z"/>
<path d="M7055 2643 c-298 -84 -429 -485 -250 -765 123 -192 391 -262 610
-159 60 29 166 110 166 127 0 4 -19 23 -42 42 l-43 35 -36 -32 c-21 -18 -62
-46 -92 -61 -50 -27 -65 -29 -165 -29 -94 0 -117 3 -155 23 -88 48 -162 149
-177 244 l-7 43 374 0 375 0 -1 76 c0 195 -95 358 -251 431 -58 27 -83 33
-163 35 -55 2 -115 -2 -143 -10z m248 -131 c83 -43 151 -145 168 -252 l7 -44
-307 0 -307 0 7 44 c18 110 83 202 178 250 58 30 72 32 138 28 47 -3 89 -12
116 -26z"/>
</g>
</svg>
