<svg xmlns="http://www.w3.org/2000/svg" viewBox="0 0 1476.147 311.166"><path d="M1474.51 210.653v22.676c-3.78.172-7.423.483-11.067.484-172.168.024-344.337.11-516.505-.205-10.228-.02-16.58 3.22-22.738 11.226-15.677 20.38-32.333 40-48.717 59.842-1.676 2.028-4.16 3.388-7.897 6.347-.335-4.992-.678-7.8-.685-10.6l-.05-57.926c-.03-8.218-.462-8.627-8.67-8.654l-62.44-.02v-22.7h92.81c2.617 11.883-.877 24.3 2.517 38.016 3.504-3.625 6.015-5.83 8.054-8.407 6.65-8.405 13.356-16.786 19.572-25.5 2.715-3.81 5.84-4.787 10.174-4.756l61.143.063 484.5.103zM211.647 68.975c1.58 1.376 3.284 2.635 4.726 4.145l53.226 55.875 42.234 44.135c1.655 1.715 3.91 2.853 6.193 4.477 2.142-6.72 2.647-164.02.842-174.034h-29.346V107.56c-4.496-4.073-8.446-7.242-11.923-10.865L190.292 5.542c-2.25-2.34-4.095-6.55-8.322-5.04-4.506 1.61-2.565 6.013-2.572 9.184l-.08 163.51h30.375v-103.8l1.954-.43zm500.863 68.44c.07 3.51-1.55 5.322-4.493 6.76-7.632 3.73-15.775 4.972-24.12 5.548-17.088 1.18-32.496-3.136-45.305-14.682-18.82-16.963-23.28-38.636-18.14-62.405 5.076-23.47 20.007-38.028 43.614-42.965 17.388-3.636 34.107-.888 50.023 6.898l10.993 5.493 6.812-11.822 6.468-11.83c-1.794-1.25-2.83-2.084-3.97-2.745-20.8-12.07-43.065-17.185-67.11-14.883-43.745 4.19-81.773 38.826-81.13 88.046.396 30.368 12.457 54.397 37.37 71.808 33.97 23.742 83.3 19.424 114.34-.23 3.315-2.1 3.726-4.777 3.716-8.143l-.07-62.76c-.006-2.025-.535-4.048-.81-5.997h-67.316v25.974h39.07l.057 27.936zM537.736 166.68L465.406 8.19c-1.238-2.7-3.345-6.422-5.638-6.915-4.514-.97-4.833 4.13-6.173 7.037L384.58 158.626c-2.095 4.573-3.98 9.242-6.48 15.073l25.617.07c4.12.118 6.28-1.507 7.796-5.28 3.8-9.435 8.135-18.65 11.858-28.1 1.52-3.864 3.68-5.32 7.767-5.29l55.457-.035c4.535-.057 6.698 1.712 8.29 5.737a548.49 548.49 0 0 0 11.667 27.315c.988 2.152 3.222 5.164 5.028 5.268 9.277.533 18.602.247 28.788.247-1.148-3.053-1.77-5.052-2.632-6.942zM459.003 56.634l22.6 52.556c-5.93 1.866-35.222 2.27-45.382.612l22.782-53.168zM90.44 4.618c-19.872-6.482-39.663-6.88-58.41 3.6C1 25.572-1.053 65.708 28.11 85.932c6.766 4.693 14.55 7.923 21.886 11.787 6.63 3.492 13.522 6.555 19.86 10.51 5.297 3.303 9.32 7.97 10.183 14.715 1.858 14.514-6.772 24.837-21.835 25.8-9.27.593-18.213-1.156-26.687-4.748-7.07-2.997-13.873-6.624-21.6-10.36l-9.918 26.022C13.324 168.86 27.4 173.71 42.407 175.92c15.515 2.286 30.413.472 44.353-7.355 29.26-16.43 35.428-63.582 2.288-82.69C82.326 82 75.36 78.547 68.486 74.94c-6.633-3.48-13.543-6.508-19.884-10.455-9-5.595-12.4-13.218-10.013-21.694 2.533-8.988 9.133-13.476 18.116-14.88 10.735-1.678 20.766.62 30.382 5.3l11.36 5.68 9.792-26.448c-6.25-2.782-11.838-5.87-17.8-7.814zM1241.5 120.822L1176.88 6.79c-1.42-2.467-2.048-6.605-7.482-4.98l-5.942 171.345h14.577l2.785-130.476c5.63 7.026 9.787 14.18 13.892 21.36l12.293 21.676 24.867 43.212c4.208 6.93 7.395 14.57 13.435 22.02 3.058-4.88 5.406-8.357 7.487-11.99l50.717-88.635c1.354-2.363 2.968-4.577 4.46-6.86l1.648.694 2.87 128.88h13.5c1.452-16.513-4.51-166.338-6.818-171.894-.713.162-1.877.088-2.13.53l-71.282 126.02c-1.74-2.803-3.07-4.797-4.248-6.875zM1457.95 4.716c-19.696-7-38.994-6.69-57.07 4.873-23.322 14.92-26.98 50.54-3.172 67.74 8.395 6.064 18 10.464 27.107 15.525 7.48 4.156 15.352 7.7 22.493 12.35 10.742 7.012 16.034 17.232 14 30.22-2.212 14.2-10.867 23.02-24.596 26.622-16.217 4.254-31.288.22-45.73-7.222-3.71-1.912-7.34-3.985-11.354-6.175l-6.403 12.12c19.874 12.567 40.094 18.908 62.705 14.73 11.084-2.05 20.507-7.276 28.548-15.36 14.336-14.416 18.68-48.134-5.828-64.342-10.665-7.053-22.572-12.206-33.76-18.498-6.507-3.66-13.346-7.13-18.923-11.968-15.714-13.63-12.627-37.4 5.797-47.122 7.978-4.21 16.706-6.563 25.623-4.564 9.535 2.138 18.8 5.48 29.305 8.635l6.236-10.353c-5.518-2.7-10.072-5.46-14.99-7.21zM794.793 3.63v169.562h13.95V96.66h74.293V84.042H809.22V15.93h81.836V3.63h-96.263zm325.853 169.397l-.72-12.414h-82.464V3.716h-14.16V173.03l97.343-.001zm-174.86.033h12.936V3.457h-12.936V173.06z"/></svg>