<svg xmlns="http://www.w3.org/2000/svg" xmlns:xlink="http://www.w3.org/1999/xlink" viewBox="0 0 531 226"><defs><radialGradient cx="50%" cy="50%" fx="50%" fy="50%" r="51.9639178%" gradientTransform="translate(0.500000,0.500000),scale(1.000000,0.817691),translate(-0.500000,-0.500000)" id="A"><stop stop-color="#ff7a51" offset="0%"/><stop stop-color="#e85b30" offset="100%"/></radialGradient><path d="M378.01 118.17c2.743-1.417 6.903-5.53 8.32-8.32 2.88-5.67 3.52-13.44 1.51-18.65-3.703-9.783-14.903-11.703-22.674-3.886-9.737 9.69-8.32 27.748 2.47 31.77 2.65 1.006 7.497.55 10.377-.914z" id="B"/><radialGradient cx="50%" cy="50%" fx="50%" fy="50%" r="71.5247843%" gradientTransform="translate(0.500000,0.500000),scale(0.726516,1.000000),translate(-0.500000,-0.500000)" id="C"><stop stop-color="#ff7a51" offset="0%"/><stop stop-color="#e85b30" offset="100%"/></radialGradient><radialGradient cx="50%" cy="50%" fx="50%" fy="50%" r="51.9639178%" gradientTransform="translate(0.500000,0.500000),scale(1.000000,0.822944),translate(-0.500000,-0.500000)" id="D"><stop stop-color="#ff7a51" offset="0%"/><stop stop-color="#e85b30" offset="100%"/></radialGradient><radialGradient cx="50%" cy="50%" fx="50%" fy="50%" r="51.9639178%" gradientTransform="translate(0.500000,0.500000),scale(1.000000,0.987300),translate(-0.500000,-0.500000)" id="E"><stop stop-color="#ff7a51" offset="0%"/><stop stop-color="#e85b30" offset="100%"/></radialGradient><radialGradient cx="45.051836%" cy="59.259594%" fx="45.051836%" fy="59.259594%" r="94.4031452%" gradientTransform="translate(0.450518,0.592596),scale(0.550447,1.000000),translate(-0.450518,-0.592596)" id="F"><stop stop-color="#e1397e" offset="0%"/><stop stop-color="#be1f68" offset="100%"/></radialGradient><radialGradient cx="45.051836%" cy="59.259594%" fx="45.051836%" fy="59.259594%" r="72.3841456%" gradientTransform="translate(0.450518,0.592596),scale(0.717891,1.000000),translate(-0.450518,-0.592596)" id="G"><stop stop-color="#e1397e" offset="0%"/><stop stop-color="#be1f68" offset="100%"/></radialGradient></defs><g transform="matrix(1 0 0 -1 -.046161 225.742586)" fill-rule="nonzero"><g fill="#000"><path d="M158.445 225.05c-7.314-.96-12.663-2.377-17.28-4.617-3.383-1.6-4.846-2.697-8.183-6.08-5.85-5.897-8.73-12.114-9.463-20.343l-.274-3.246h-1.6c-1.51 0-1.554.09-2.103 2.743-.823 4.343-3.29 11.154-5.074 14.126-3.063 5.03-6.766 7.59-11.52 7.954-5.12.41-10.286-1.646-13.623-5.394-1.6-1.874-3.84-6.126-3.886-7.406 0-1.874-.64-2.01-4.343-1.006-10.286 2.834-29.12 1.783-43.428-2.377-22.17-6.49-33.417-17.28-31.406-30.17.55-3.566 3.383-9.874 5.714-12.708l1.463-1.874-2.15-1.92c-2.697-2.377-4.343-5.53-5.03-9.554-1.37-8.73.274-18.468 4.57-27.017.96-1.783 1.646-3.337 1.554-3.383-.046-.046-.914-.55-1.92-1.143s-2.834-2.286-4.114-3.703c-8.09-9.097-8.41-22.217-.914-36.434 2.606-4.846 6.354-8.96 9.783-10.65 3.474-1.69 8.686-2.057 13.12-.914 3.61.914 9.6 3.61 11.886 5.394.914.686 1.69 1.143 1.783 1.05s3.017-4.71 6.446-10.194c7.68-12.25 8.87-13.897 12.526-17.234 9.006-8.366 20.89-11.886 33.05-9.737 5.85 1.006 10.514 2.606 17.417 5.85l5.577 2.697 1.6-.87c1.097-.594 2.697-.914 4.8-.914 2.697 0 3.383.183 4.8 1.234l1.6 1.234 4.114-1.143c6.217-1.69 15.817-3.383 23.13-3.977 14.537-1.19 26.926 1.6 33.554 7.59l2.33 2.103 10.24-6.446c20.388-12.937 42.697-26.148 57.234-33.966C265.233 0 265.233 0 269.53 0c7.13 0 11.886 2.057 15.13 6.537 2.24 3.063 3.11 6.583 3.063 12.16-.09 4.16-1.28 11.52-2.33 14.217-.55 1.326 5.35 2.103 16.09 2.057 7.77 0 10.24-.183 14.81-1.097 13.76-2.743 26.514-8.73 37.623-17.69 4.07-3.246 9.874-6.354 15.223-8.09 3.52-1.143 4.89-1.37 9.83-1.37 5.486-.046 5.943.046 8.914 1.463 4.297 2.01 7.726 5.577 10.057 10.47 4.297 8.96 4.89 17.69 1.69 25.463-.23.55.55-.046 1.69-1.234 5.074-5.303 13.577-7.086 19.474-4.114 4.114 2.057 8.366 7.04 10.834 12.708 2.834 6.446 5.76 17.554 6.446 24.228.183 1.783.503 3.246.686 3.246.23 0 .64-.823.96-1.83 1.6-4.937 7.726-19.474 11.154-26.468 10.697-21.714 21.53-31.908 30.674-28.89 3.063 1.006 10.79 10.286 17.646 21.257 6.537 10.423 14.857 28.663 19.886 43.61 4.25 12.617 9.326 32.366 10.88 42.33.73 4.71.32 15.406-.777 19.29-2.834 10.286-9.097 14.308-18.514 11.84-6.72-1.737-12.16-5.12-17.69-10.926-5.714-5.943-10.697-14.217-13.714-22.583l-1.737-4.89c-.41-1.097-.503-.96-1.783 1.69-1.554 3.29-4.023 6.63-7.406 10.15-1.326 1.37-2.33 2.56-2.194 2.65.09.09 3.11 1.69 6.674 3.52 8.55 4.434 10.286 5.577 11.977 7.91 2.743 3.794 3.566 6.81 3.566 12.937 0 6.857-1.05 9.92-4.663 13.76-7.314 7.77-19.703 8.457-29.348 1.554-7.27-5.166-9.19-6.263-12.754-7.406-5.257-1.646-12.25-2.286-18.88-1.69-9.143.777-12.206 1.646-19.2 5.303-16.503 8.64-37.897 14.857-50.834 14.857-11.474-.046-21.257-5.897-26.194-15.817-1.097-2.194-1.966-4.25-1.966-4.617s-.183-.686-.366-.686c-.23 0-1.234 3.063-2.24 6.857-4.206 15.268-8.823 23.086-15.497 26.103-3.52 1.646-7.36 1.417-11.794-.686-4.114-1.92-6.31-3.93-8.046-7.497-4.846-9.783-3.657-25.966 4.57-63.314 2.743-12.526 3.063-14.948 1.966-16.41-.594-.823-.777-.87-1.463-.274-1.05.87-2.743 4.25-4.07 8.137-3.29 9.646-5.99 26.97-7.45 48.045l-1.19 15.497c-.96 10.194-4.206 12.343-13.623 9.097-8.73-3.017-14.537-8.914-17.188-17.554-.823-2.65-1.19-3.2-1.83-2.926-.41.183-2.286.823-4.114 1.417-1.874.594-3.383 1.28-3.383 1.51s.73 2.194 1.554 4.343c3.063 7.77 3.017 13.668-.23 18.33-2.88 4.16-8.503 9.874-13.53 13.668-10.697 8.046-25.143 13.394-40.914 15.13-6.354.73-21.12.594-27.246-.23zm32.548-41.737c3.75-.96 10.194-3.93 10.514-4.846.183-.64-3.52-2.24-6.857-3.017-3.154-.686-9.966-1.463-12.754-1.463-2.24 0-2.24 0-2.56 1.783-.503 2.56-2.33 5.53-4.297 6.857-1.646 1.143-1.69 1.19-.64 1.51 2.01.64 12.89.09 16.594-.823zm-33.417-4.71c-.457-1.234-.96-2.24-1.097-2.24s-.777.64-1.37 1.463l-1.05 1.417 2.057.914c1.143.503 2.103.87 2.15.823.09-.046-.23-1.097-.686-2.377zm3.474-22.034c.457-1.646.73-3.93.64-5.12l-.137-2.103-2.33 3.657c-1.28 2.01-2.834 4.07-3.474 4.57s-1.143 1.05-1.143 1.19.914.366 2.01.457c1.143.09 2.377.23 2.834.274.594.046 1.006-.73 1.6-2.926zm227.976-15.45c1.28-.366 3.11-1.234 4.16-1.92 1.737-1.143 1.83-1.326 1.326-2.56-1.234-3.29-2.79-11.2-2.79-14.217v-3.337l-2.79 2.65c-3.474 3.29-6.217 4.754-9.28 4.846-1.28.046-2.33.137-2.33.23 0 .046.64 1.097 1.417 2.377 1.874 2.926 2.514 5.35 2.514 9.37v3.246h2.743c1.51 0 3.794-.32 5.03-.686zm-175.68-2.15c-.64-1.28-1.417-3.43-1.737-4.8l-.55-2.47-3.2 3.52c-1.783 1.92-3.794 3.794-4.48 4.16-.73.366-1.28.777-1.28.96 0 .137 1.554.23 3.474.137s4.343.046 5.394.274c3.657.914 3.703.87 2.377-1.783zm142.856-22.903c0-.046-.55-1.234-1.143-2.65-1.6-3.61-2.377-7.314-2.103-9.83.137-1.143.137-2.103 0-2.103-.87 0-6.354 7.91-7.406 10.606-1.463 3.886-1.326 4.023 5.12 4.023l5.53-.046zM76.25 99.017c4.39-3.703 8.87-9.51 7.36-9.51-.55 0-6.17 4.71-8.914 7.45-2.514 2.514-5.074 5.806-5.074 6.537s2.65-1.05 6.63-4.48zm314.74-31.863c.41-2.103 1.28-4.89 1.92-6.217s1.05-2.47.96-2.56-2.47 1.83-5.257 4.25c-4.89 4.25-9.874 9.69-9.874 10.834 0 .32 1.19.64 2.834.777 3.383.32 5.486 1.463 6.903 3.75l1.05 1.646.366-4.297c.183-2.377.686-6.08 1.097-8.183zm-245.118 7.223c.09-.09-.09-2.15-.41-4.526-.594-4.25-.64-4.39-1.874-4.39-.686 0-1.83-.274-2.56-.686-1.28-.64-1.28-.64-1.554.87-.137.823-.274 3.337-.366 5.53l-.137 4.023 3.383-.366c1.83-.183 3.43-.366 3.52-.457zM331.06 69.85c1.19-1.417 2.79-3.886 3.566-5.394 1.6-3.2 2.514-6.63 1.737-6.63s-13.166 5.53-16.868 7.543c-1.83 1.006-3.383 2.057-3.52 2.33-.09.32.41.686 1.143.87 2.15.55 7.27 3.246 8.366 4.39 1.006 1.05 1.097 1.05 2.24.32.64-.41 2.15-1.966 3.337-3.43zm-147.84-7.314c3.61-1.783 9.783-6.63 9.783-7.634 0-.23-.55-.777-1.19-1.234-1.19-.73-1.28-.686-4.846 2.33-3.977 3.43-8.137 5.85-10.926 6.4-1.646.274-1.783.457-1.783 1.92v1.6l2.514-.73c1.37-.366 4.297-1.554 6.446-2.65zm64.96-1.554c0-.914.137-2.01.274-2.423.183-.41.09-.73-.183-.73-.777 0-5.074 3.063-4.983 3.566.046.41 1.69.87 4.297 1.143.366.046.594-.55.594-1.554z"/><use xlink:href="#B"/></g><use fill="url(#A)" xlink:href="#B"/><path d="M108.205 205.804c3.566-2.47 3.886-3.703 3.794-15.36l-.046-10.15 2.194.96c2.88 1.28 6.49.96 9.6-.87 1.234-.73 3.75-2.926 5.623-4.937 8.41-9.05 20.206-20.754 25.69-25.554 6.766-5.943 8.594-7.954 10.56-11.566 1.874-3.383 2.15-2.47 1.783 5.806-.274 7.27-1.51 13.943-3.657 20.343-3.43 10.057-1.737 14.674 5.12 14.17 4.846-.366 6.95-3.61 6.034-9.234-.503-2.834-.457-2.97 1.326-6.537 4.206-8.457 11.703-18.24 18.743-24.457 6.126-5.394 9.417-9.006 11.977-12.846 5.12-7.77 6.4-15.36 3.75-22.446-1.83-4.846-8.64-9.326-16.046-10.47l-3.657-.55 5.21-3.43c6.903-4.57 12.617-8.87 16.228-12.25l2.97-2.79.23 3.337c.183 2.103.594 3.93 1.234 4.983l.96 1.646-1.737.503c-.96.32-2.514 1.19-3.43 1.92-1.463 1.234-1.69 1.69-1.69 3.52.046 2.65 2.33 6.17 4.8 7.314l1.737.823-1.006 1.234c-1.19 1.554-1.234 3.93-.23 12.16 2.47 19.977 8 37.074 15.726 48.685l1.92 2.79 4.07-.274c6.126-.41 6.95-1.006 10.286-7.314 5.486-10.377 10.103-22.72 13.12-34.97 2.01-8.09 2.057-9.006.457-10.286l-1.234-.96 2.56-1.143c8.09-3.703 10.514-10.926 5.21-15.406-.823-.64-2.24-1.463-3.154-1.737-.914-.32-1.69-.64-1.69-.73s.55-2.194 1.19-4.663c3.566-13.53 3.75-26.286.41-31.36-2.24-3.474-5.44-.366-8.41 8.137-1.463 4.343-2.79 11.886-2.79 16.183a51.46 51.46 0 0 1-.274 4.846l-.32 2.15-2.697-.823c-3.337-1.05-10.15-1.92-14.994-1.92h-3.61l.366-2.514c.87-6.17.09-14.08-1.69-17.554l-.73-1.417 2.057-.32c2.194-.32 6.31-2.56 9.097-4.937 17.646-14.81 33.646-28.846 34.286-30.034.457-.914.777-2.65.823-4.297 0-3.886-1.097-4.937-5.166-4.893-2.97 0-3.29.14-32.73 15.04l-31.45 16.32c-2.194 1.737-2.834 3.52-1.874 5.257.366.686 1.19 1.326 1.783 1.417s3.43-.503 6.217-1.37l6.034-1.737c1.737-.503-.23 1.92-7.817 9.463-10.103 10.103-24.594 20.89-34.88 25.966-5.35 2.606-7.68 3.2-9.28 2.33-1.05-.55-1.05-.594-.183-1.51.73-.823.87-1.737.823-5.394-.09-5.166-1.28-13.668-2.79-19.61l-1.05-4.206h4.25c2.33 0 5.806-.366 7.726-.777 4.206-.96 7.04-3.337 7.04-5.943 0-6.17-15.314-9.006-33.6-6.263-6.674 1.05-9.554 2.56-10.286 5.394-.823 3.337 1.417 5.21 7.406 6.126 1.966.274 3.75.823 3.93 1.143.23.32.366 1.37.366 2.33.046 5.12 2.697 20.8 4.39 25.69l.914 2.743-5.486.046c-5.12 0-5.53.046-6.72 1.143-3.566 3.383 1.05 8 10.103 10.194 3.977.96 4.434 1.19 4.71 2.286.137.686.55 2.286.96 3.566l.73 2.286-3.017-1.737c-6.63-3.886-13.85-6.857-19.566-8.137l-3.657-.823.41-1.83c1.874-8.366 2.79-22.857 1.92-29.988-1.097-8.96-3.566-15.36-6.446-16.73-2.33-1.097-4.89-1.05-6.126.183-1.92 1.92-2.514 4.25-2.743 10.377l-.23 5.85-1.83-2.286c-.96-1.234-2.697-3.017-3.75-3.977-4.16-3.566-17.05-8.777-24.64-10.01-5.074-.777-11.063-.41-13.988.87-3.61 1.646-8.96 7.177-14.126 14.766-13.21 19.29-18.834 26.286-29.668 36.937-9.646 9.51-13.257 14.308-15.45 20.57-4.023 11.474 1.51 20.708 12.388 20.708 2.88 0 4.114-.23 6.217-1.234 6.857-3.246 12.48-10.01 15.13-18.194 1.463-4.526 6.4-15.817 9.143-21.074C64 95.542 66.97 91.382 72.32 85.714c7.59-8.046 14.81-11.93 21.303-11.474s10.194 3.886 10.15 9.417c-.09 13.623-21.074 35.2-52.388 53.897-25.92 15.45-38.125 26.97-38.125 35.93 0 2.15.274 3.154 1.234 4.617 4.39 6.537 13.53 11.84 25.554 14.766 7.36 1.83 13.348 2.377 21.577 2.057 8.32-.32 13.394-1.326 19.748-3.886 2.377-.96 4.434-1.69 4.617-1.69.137 0 .686 1.006 1.143 2.24 2.834 7.59 7.817 14.354 11.337 15.45.914.274 3.017.41 4.71.32 2.377-.137 3.474-.457 5.03-1.554z" fill="url(#C)"/><path d="M304.4 187.3c3.52-2.15 4.663-4.39 6.903-13.53 2.88-11.886 8.274-25.326 17.554-43.93 6.81-13.714 8.87-17.006 17.463-28.114 15.13-19.566 24.228-30.4 32.914-39.177 6.126-6.17 8.23-9.554 9.19-14.674 1.51-8.046-3.52-17.37-10.926-20.343-2.514-1.006-3.61-1.143-9.097-1.143-5.303 0-6.72.137-9.6 1.143-4.206 1.417-8.503 3.61-13.44 6.766-5.76 3.703-17.097 9.19-23.04 11.154-7.223 2.377-11.84 3.246-17.37 3.246-8.366 0-12.57-1.646-17.69-6.95-4.16-4.343-7.27-5.99-11.063-5.99-3.43-.046-6.034 1.417-8.23 4.434-1.69 2.377-1.92 3.474-.87 3.84 1.19.457 3.566 6.217 4.297 10.423.41 2.24.87 5.99 1.05 8.32l.32 4.25 2.97 1.37c6.95 3.29 14.308 3.154 23.588-.457 2.103-.823 7.314-3.61 11.566-6.263 9.646-5.943 16.09-9.19 22.674-11.428 4.57-1.554 5.623-1.737 10.377-1.783 4.983 0 5.394.046 7.863 1.417 3.474 1.92 4.983 4.25 5.257 8.137.137 2.15-.046 3.43-.594 4.526-.457.823-7.27 9.83-15.13 19.977l-14.308 18.423-2.01-4.07c-2.24-4.526-6.354-9.28-10.057-11.657-4.023-2.56-7.406-3.52-12.8-3.52-5.577 0-9.966 1.006-15.77 3.657-6.4 2.926-11.566 9.143-15.406 18.606-3.474 8.503-5.943 19.61-6.263 28.023l-.183 4.8-1.92 2.01c-2.56 2.697-5.623 9.097-6.49 13.668-1.006 4.983-1.006 14.49.046 18.606 1.463 6.034 4.71 11.2 7.817 12.48 3.017 1.28 7.13-.823 8.87-4.57 1.006-2.057 1.83-11.246 2.88-31.634 1.37-26.788 2.057-31.314 5.394-36.89 2.423-4.023 6.126-7.817 9.05-9.37 4.71-2.47 12.663-1.37 16.686 2.286 2.834 2.56 3.886 5.21 3.84 9.874-.046 3.794-.09 3.977-4.16 12.57-15.908 33.69-20.206 56.96-11.337 61.622 2.47 1.326 6.95 1.234 9.19-.137z" fill="url(#D)"/><path d="M30.217 100.022c2.834-1.234 5.53-3.886 7.177-6.95 1.05-2.057 1.234-2.97 1.28-6.446 0-3.29-.23-4.526-1.097-6.31-4.71-9.51-17.646-11.337-24.548-3.474-2.606 2.926-3.566 5.99-3.337 10.65.137 2.194.55 4.39 1.05 5.44 3.52 7.223 12.068 10.33 19.474 7.086z" fill="url(#E)"/><path d="M182.216 215.77c2.15-.274 6.49-1.05 9.6-1.737 19.61-4.343 31.68-11.84 37.303-23.177 1.69-3.43 2.057-4.663 2.194-7.543.137-3.017 0-3.794-1.19-6.263-2.65-5.35-10.377-11.748-18.377-15.177-3.657-1.554-3.657-1.6-11.794-1.6-6.4 0-8.73.183-10.834.823-3.566 1.143-5.257 2.47-5.257 4.25 0 2.057 1.51 2.88 5.303 2.88 6.63 0 16.96 3.566 21.44 7.406 5.074 4.343 6.446 13.76 2.194 15.45-1.326.55-1.646.503-2.286-.137-.41-.41-.73-1.28-.73-1.92 0-1.097-.183-1.006-3.474 1.51-6.766 5.12-15.04 8.32-24.457 9.37-12.526 1.37-29.21-2.286-36.297-8.046-5.35-4.343-5.257-11.017.274-16.96 2.194-2.377 2.606-3.11 2.194-3.75-.87-1.37-1.783-1.143-5.714 1.417-4.937 3.2-8.914 7.406-10.88 11.383-1.417 2.88-1.554 3.61-1.554 7.543 0 4.937.823 7.68 3.246 10.743 1.783 2.286 5.85 5.394 8.96 6.994 10.103 5.12 27.657 7.954 40.137 6.537z" fill="url(#F)"/><path d="M376.18 175.222c11.246-2.377 20.25-6.034 28.48-11.52 8.274-5.53 17.234-6.674 32.503-4.114 4.754.823 5.714 1.143 8.64 3.017 13.028 8.41 24.73 10.15 30.766 4.48 4.57-4.25 3.703-12.16-1.92-17.69-2.423-2.377-9.874-6.31-16.686-8.777l-3.61-1.326 2.88-2.97c3.703-3.75 6.31-7.726 9.83-14.903 3.52-7.314 5.806-13.76 8.41-23.954l2.057-8.09.777 3.52c2.65 11.886 7.36 26.057 11.794 35.29 4.57 9.6 8.73 15.268 14.583 19.93 2.103 1.69 2.56 1.83 5.257 1.83 4.8 0 8.503-2.103 10.56-5.99 1.646-3.154 1.69-10.103.09-17.188-3.11-13.714-8.137-29.988-13.303-42.788-5.67-13.943-10.194-22.628-20.114-38.354-3.566-5.67-4.8-7.314-6.034-7.817-1.874-.777-3.246-.32-5.03 1.6-1.874 2.057-15.908 28.16-24.868 46.263-11.154 22.49-12.708 27.703-13.76 45.394l-.32 5.35-4.343.23c-2.423.137-4.8.41-5.257.594-.777.32-.823-.594-.823-16.137 0-33.737-1.6-52.48-5.03-59.748-2.65-5.67-6.08-8.823-9.6-8.823-3.43 0-5.85 2.15-8.64 7.68-2.057 4.07-2.88 6.994-4.07 14.4-3.52 22.263-2.01 46.308 4.206 66.148l.96 3.017-1.737.87c-4.297 2.15-13.257 5.85-18.33 7.497-6.217 2.01-12.754 2.743-15.314 1.69l-1.37-.594 1.37-3.063c5.99-13.166 2.194-22.903-10.65-27.61-10.56-3.84-21.806.594-26.88 10.65-3.383 6.72-4.8 17.966-3.11 24.823 2.377 9.646 9.783 16.046 21.166 18.286 1.326.274 6.49.41 11.52.32 7.497-.183 10.15-.41 14.948-1.417z" fill="url(#G)"/><path d="M115.702 100.754c0 1.6 1.6 4.8 2.88 5.67.914.64.914.777.137 6.126-1.143 8.09-1.143 27.29 0 31.908 1.19 4.663 2.926 8.23 4.937 10.15 2.057 1.92 1.554 2.33-2.24 1.966-2.743-.274-4.663-1.463-5.67-3.52-1.05-2.15-1.19-10.514-.32-19.93 1.097-11.794.32-16.274-2.97-16.274-1.646 0-3.794 2.47-5.67 6.49-1.554 3.383-4.617 12.754-5.257 16.228l-.366 1.83-1.326-2.423c-4.663-8.55-8.686-10.79-12.434-6.857-3.703 3.886-4.526 12.023-3.154 30.49.55 7.817.64 11.154.274 11.52-.274.32-3.383.55-7.59.64-5.806.137-7.68 0-10.514-.777-5.897-1.6-12.434-5.486-13.85-8.23-1.69-3.2-.366-8.183 3.43-12.754.914-1.143 6.354-5.806 12.16-10.423 18.56-14.81 35.794-30.08 43.474-38.583 3.52-3.886 4.07-4.297 4.07-3.246zm-46.034 50.834c-1.143 2.286-1.326 5.03-.41 6.126 1.234 1.6 3.75 2.33 4.983 1.463.274-.183.73-2.834 1.05-5.897.274-3.017.823-6.49 1.234-7.634.41-1.19.594-2.24.457-2.377-.457-.457-6.263 6.17-7.314 8.32zm66.057-42.423l1.417.503c3.29 1.234 12.023 5.897 14.903 7.954 3.61 2.606 4.71 4.57 4.25 7.59-.73 4.617-6.31 10.514-12.89 13.668-2.15 1.05-4.526 2.057-5.21 2.194-1.143.274-1.326.183-1.554-1.006-.137-.777-.41-8.046-.594-16.137l-.32-14.766zM170 102.628l4.39.41c5.35.503 14.034 1.966 17.508 3.017 3.383 1.006 4.57 2.79 4.25 6.31-.09 1.326-.55 3.11-1.006 3.93-.96 1.874-6.583 8.64-11.703 13.988l-3.84 4.07-.046-2.377c-.046-3.063-1.417-9.05-3.566-16-.96-3.017-1.737-6.217-1.737-7.13 0-1.28-.457-2.15-2.15-3.93L170 102.628zm68.297 1.646l7.13.777-.32 3.84c-.686 8.137-2.697 14.81-4.983 16.594-1.554 1.234-1.83 1.19-3.2-.183-1.874-1.874-2.743-5.623-3.017-13.074l-.274-6.766-1.417-.823c-.777-.457-1.326-.914-1.234-1.006s3.383.183 7.314.64zm-57.37 5.85c-.32 0 .32 3.11.87 3.977.366.64 2.286-.87 2.423-1.92.137-.73-.23-1.143-1.37-1.51-.823-.32-1.69-.55-1.92-.55zm-59.474-16v2.423l-1.92.503c-1.05.274-1.92.366-1.92.274 0-.137.594-1.05 1.37-2.01.73-.96 1.6-2.194 1.92-2.697.457-.823.503-.594.55 1.51z" fill="#000"/></g></svg>