
<svg viewBox="0 0 254 47" version="1.1" xmlns="http://www.w3.org/2000/svg" xmlns:xlink="http://www.w3.org/1999/xlink">
    <g id="Page-1" stroke="none" stroke-width="1" fill="none" fill-rule="evenodd">
        <g id="TELUS_2017_EN_RGB_0">
            <polyline id="Fill-1" fill="#4B286D" points="147 13.0559149 147 8 129 8 129 34 147 34 147 28.7261663 136.292624 28.7261663 136.292624 22.9637567 145.199205 22.9637567 145.199205 17.9158024 136.292624 17.9158024 136.292624 13.0559149 147 13.0559149"></polyline>
            <polyline id="Fill-2" fill="#4B286D" points="179 28.8694554 167.527633 28.8694554 167.527633 8 160 8 160 34 179 34 179 28.8694554"></polyline>
            <path d="M238.617931,17.5513961 C233.584069,16.4382883 231.823071,16.3142815 231.823071,14.3518262 C231.823071,12.5301086 234.313382,11.9622366 235.75091,11.9622366 C238.076472,11.9622366 240.811896,12.4917256 243.601565,13.8971349 L245.630781,9.16519647 C242.775815,7.63479624 239.103135,7 235.56808,7 C228.624545,7 223.968398,9.75767296 223.776527,15.1362178 C223.572601,20.0384195 227.647106,21.8768681 231.390105,22.6346869 C234.995479,23.3629802 238.6551,23.9879347 238.728433,26.0881753 C238.796744,28.0250419 237.020677,28.8537217 233.666443,28.8537217 C230.557323,28.8537217 227.673224,27.8754465 224.719811,26.665889 L223,31.8062623 C226.387384,33.2224976 229.831024,34 233.384161,34 C238.315558,34 241.910887,33.2480863 244.562932,30.8112561 C246.399272,29.1361814 247,27.1156594 247,25.1925713 C247,21.1259386 244.416266,18.8347671 238.617931,17.5513961" id="Fill-3" fill="#4B286D"></path>
            <polyline id="Fill-4" fill="#4B286D" points="119 13.1315397 119 8 96 8 96 13.1315397 103.771293 13.1315397 103.771293 34 111.221642 34 111.221642 13.1315397 119 13.1315397"></polyline>
            <path d="M204.30367,7 L204.30367,23.8493722 C204.30367,25.1698369 204.30367,25.5352229 204.221217,26.0477784 C203.987934,27.6534471 202.439417,28.5851816 199.980895,28.6166454 C198.159879,28.5882264 196.828557,28.0452222 196.205128,27.0840538 C195.892408,26.5877378 195.741579,25.7016766 195.741579,24.2868205 L195.741579,7 L188,7 L188,25.2774228 C188,27.8097511 188.334842,28.9505676 189.464052,30.3948575 C191.33635,32.7607323 194.980392,34 199.997989,34 C200.049271,34 200.10357,34 200.157868,34 C200.188034,34 200.232278,34 200.267471,34 C206.989442,34 210.453494,31.3509511 211.46003,28.8785054 C211.96179,27.6798361 212,27.1104428 212,24.6887452 L212,7 L204.30367,7" id="Fill-5" fill="#4B286D"></path>
            <path d="M99.6787308,0.00865535511 L56,8.89136245 L56,12 L56.1416039,11.9628079 C84.9944076,4.80126738 99.6787308,0.496284775 99.7980827,0.46219204 C99.9619386,0.4198344 100.017569,0.289662139 99.9953167,0.180152142 C99.9730646,0.0644434667 99.8547242,-0.0295698324 99.6787308,0.00865535511" id="Fill-6" fill="#4B286D"></path>
            <path d="M63.8255631,0.00425455554 C61.7331503,0.124825452 57.8611904,3.22180352 55.7368933,5.0642464 C47.2695964,12.3871846 40.976416,19.1212186 36.3990141,26.1731214 C26.857612,31.280943 14.6947157,36.5362398 2.61451953,40.6406325 L2.32457091,40.7392815 L0,47 L1.3271875,46.4858299 C9.01032778,43.5592454 21.8338287,38.0598175 33.4596724,31.9465741 C32.8040497,33.692361 32.4742456,35.2956549 32.4742456,36.7604419 C32.4742456,37.854548 32.6565844,38.8629592 33.0232549,39.7936469 C33.7555993,41.6291146 35.1933858,43.0251462 37.1921381,43.8203163 C40.1663534,45.0070926 44.2266305,45.0300111 48.8578373,43.6280007 C60.6899331,40.0377781 74.7230479,29.0309506 77.7789668,26.8417418 L77.892555,26.7580397 C78.0131178,26.6733412 78.0220853,26.5418093 77.9692768,26.4541213 C77.9035152,26.3534795 77.764021,26.3295646 77.6474437,26.396327 L77.4979857,26.4899937 C74.2178796,28.4500181 58.2856513,37.9123423 47.9282082,40.6924481 C42.6553281,42.1084088 38.6349065,41.3321714 37.1174091,39.2117179 C36.5913168,38.4882926 36.3382345,37.5695623 36.3382345,36.4983745 C36.3382345,34.4147899 37.3186793,31.7542585 39.212811,28.8027627 C40.9554919,27.8073055 42.5796027,26.8387525 44.045288,25.9230115 C54.1506451,20.242229 65.7914346,9.19952922 66.2856426,2.46150936 C66.2886318,2.41567249 66.2886318,2.36286044 66.2886318,2.31104485 C66.2886318,1.73310171 66.0375422,1.13024723 65.5971392,0.687821788 C65.1238553,0.205538201 64.4981243,-0.0356035921 63.8255631,0.00425455554 Z M62.6996457,3.21881416 C63.3642359,2.79133553 63.5555422,3.05738867 63.3612467,3.54166516 C63.0424029,4.31391677 61.5876778,8.97233778 50.7539618,17.8646905 C47.9282082,20.1804489 45.9165028,21.4838103 41.849251,23.890246 C48.512091,14.5484926 58.2428066,6.11550504 62.6996457,3.21881416 L62.6996457,3.21881416 Z" id="Fill-7" fill="#66CC00"></path>
            <polyline id="Fill-8" fill="#4B286D" points="55.7878238 9.04541701 10.7410345 19.125929 9 24 55.9266307 12.1224195 56 12.1038398 56 9 55.7878238 9.04541701"></polyline>
            <path d="M250.988283,10.3320449 L251.461553,10.3320449 C251.858843,10.3320449 252.225925,10.3117983 252.225925,9.85072704 C252.225925,9.46327996 251.893629,9.40438064 251.586964,9.40438064 L250.988283,9.40438064 L250.988283,10.3320449 Z M250.536983,9.03533959 L251.661113,9.03533959 C252.352252,9.03533959 252.677224,9.30958955 252.677224,9.87097368 C252.677224,10.3992269 252.344929,10.6191791 251.912852,10.6661145 L252.74405,11.9563777 L252.257964,11.9563777 L251.467045,10.7001657 L250.988283,10.7001657 L250.988283,11.9563777 L250.536983,11.9563777 L250.536983,9.03533959 Z M251.508239,12.6327996 C252.658916,12.6327996 253.5487,11.7097368 253.5487,10.4857353 C253.5487,9.2893429 252.658916,8.36720044 251.508239,8.36720044 C250.34383,8.36720044 249.454046,9.2893429 249.454046,10.4857353 C249.454046,11.7097368 250.34383,12.6327996 251.508239,12.6327996 Z M251.508239,8 C252.863054,8 254,9.07675318 254,10.4857353 C254,11.9250874 252.863054,13 251.508239,13 C250.144269,13 249,11.9250874 249,10.4857353 C249,9.07675318 250.144269,8 251.508239,8 L251.508239,8 Z" id="Fill-9" fill="#4B286D"></path>
        </g>
    </g>
</svg>