<svg version="1.1" id="Layer_1" xmlns="http://www.w3.org/2000/svg" x="0" y="0" viewBox="0 0 8083.1 1855.1" xml:space="preserve"><style>.st0{fill:#00c9ff}.st1{fill:red}.st2{fill:#21004f}</style><path class="st0" d="M3343.7 603h-48.3V491.2h-115.7V439h164zM2614.9 1422.4l-280.3-906c-4.1-14.9 2.7-24.4 17.6-24.4h123.2c12.2 0 20.3 4.1 24.4 17.6l200.4 700.1c2.7 6.8 8.1 6.8 10.8 0L2910.1 511c2.7-12.2 12.2-19 24.4-19H3055c14.9 0 21.7 9.5 17.6 24.4l-284.4 906c-4.1 12.2-12.2 17.6-24.4 17.6h-124.6c-12.1 0-20.2-5.4-24.3-17.6zM3142 1418.3V769.7c0-13.5 8.1-21.7 21.7-21.7h113.8c13.5 0 21.7 8.1 21.7 21.7v648.7c0 13.5-8.1 21.7-21.7 21.7h-113.8c-13.6-.1-21.7-8.2-21.7-21.8zM3877.7 492h113.8c13.5 0 21.7 8.1 21.7 21.7v904.6c0 13.5-8.1 21.7-21.7 21.7h-113.8c-13.5 0-21.7-8.1-21.7-21.7v-35.2c0-6.8-5.4-9.5-9.5-2.7-36.6 44.7-88 70.4-154.4 70.4-130 0-220.7-74.5-260-189.6-16.3-50.1-24.4-107-24.4-169.3 0-60.9 6.8-116.5 23-165.2 39.3-116.5 127.3-189.6 261.4-189.6 66.4 0 116.5 24.4 154.4 66.4 4.1 5.4 9.5 4.1 9.5-2.7V513.7c0-13.5 8.1-21.7 21.7-21.7zm-24.4 601.3c0-69.1-10.8-123.2-33.9-161.2-23-37.9-56.9-59.6-101.6-59.6-47.4 0-84 20.3-108.3 56.9-25.7 39.3-39.3 94.8-39.3 165.2 0 63.6 10.8 116.5 32.5 154.4 23 42 62.3 65 113.8 65 47.4 0 81.3-23 105.6-63.6 21.7-36.6 31.2-92.1 31.2-157.1zM4599.1 1243.6c8.1-12.2 19-14.9 29.8-6.8l65 51.5c9.5 8.1 13.5 17.6 5.4 29.8-51.5 81.3-143.5 132.7-262.7 132.7-146.3 0-242.4-74.5-284.4-192.3-17.6-48.8-27.1-105.6-27.1-167.9 0-59.6 2.7-102.9 14.9-143.5 33.9-127.3 140.8-209.9 285.7-209.9 181.5 0 269.5 105.6 296.6 277.6 5.4 33.9 8.1 71.8 9.5 111 0 13.5-8.1 21.7-21.7 21.7h-419.8c-5.4 0-8.1 2.7-8.1 8.1 0 24.4 2.7 44.7 8.1 59.6 19 63.6 77.2 102.9 161.2 102.9 67.7-2.7 117.8-31.1 147.6-74.5zm-304.7-276.2c-5.4 16.3-9.5 33.9-10.8 56.9-1.4 5.4 1.4 8.1 6.8 8.1h272.2c5.4 0 8.1-2.7 8.1-8.1-2.7-20.3-4.1-36.6-8.1-48.8-16.3-62.3-65-102.9-138.1-102.9-70.5 0-113.8 37.9-130.1 94.8zM4860.4 1246.3c-14.9-43.3-23-100.2-23-154.4 0-55.5 8.1-112.4 21.7-154.4 40.6-125.9 149-200.4 293.9-200.4 138.1 0 242.4 74.5 284.4 199.1 16.3 43.3 24.4 100.2 24.4 154.4 0 52.8-8.1 109.7-23 154.4-40.6 128.6-147.6 205.8-287.1 205.8-142.3 0-252-77.2-291.3-204.5zm427.9-39.2c10.8-31.1 14.9-73.1 14.9-113.8 0-44.7-5.4-85.3-13.5-113.8-20.3-67.7-71.8-107-140.8-107-69.1 0-119.2 39.3-139.5 107-8.1 28.4-13.5 69.1-13.5 113.8 0 42 5.4 85.3 13.5 113.8 20.3 67.7 71.8 108.3 142.2 108.3 66.3 0 116.4-40.6 136.7-108.3zM6108.7 955.2c90.7 43.3 135.4 117.8 135.4 222.1 0 177.4-134.1 262.7-310.1 262.7h-335.8c-13.5 0-21.7-8.1-21.7-21.7V513.7c0-13.5 8.1-21.7 21.7-21.7h325c190.9 0 307.4 79.9 307.4 255.9 0 96.1-43.3 159.8-121.9 196.4-6.7 2.8-6.7 8.2 0 10.9zm-375.1-319.6v247.8c0 5.4 2.7 8.1 8.1 8.1h181.5c96.1 0 154.4-48.8 154.4-130 0-82.6-58.2-134.1-154.4-134.1h-181.5c-5.4.1-8.1 2.8-8.1 8.2zm353.5 526.8c0-88-59.6-140.8-155.7-140.8h-189.6c-4.1 0-8.1 2.7-8.1 8.1v265.4c0 5.4 2.7 8.1 8.1 8.1H5934c94.8 0 153.1-54.2 153.1-140.8zM6343.5 1687.8v-86.7c0-13.5 4.1-21.7 9.5-21.7h8.1c105.6 0 142.2-21.7 173.3-134.1 1.4-4.1 1.4-8.1 0-10.8l-220.7-662.2c-5.4-16.3 2.7-24.4 17.6-24.4h121.9c12.2 0 20.3 5.4 24.4 17.6l132.7 448.2c2.7 6.8 8.1 6.8 10.8 0l128.6-448.2c4.1-12.2 12.2-17.6 24.4-17.6H6896c14.9 0 23 8.1 17.6 24.4l-237 705.5c-62.3 178.8-109.7 231.6-314.2 231.6h-9.5c-5.3.1-9.4-8-9.4-21.6zM7381.1 875.3h-131.4c-5.4 0-8.1 2.7-8.1 8.1V1203c0 70.4 29.8 98.9 93.4 98.9h35.2c13.5 0 21.7 8.1 21.7 21.7v90.7c0 13.5-6.8 21.7-21.7 23-21.7 0-43.3 1.4-65 1.4-130 0-212.6-32.5-214-176V883.4c0-4.1-2.7-8.1-8.1-8.1h-70.4c-13.5 0-21.7-8.1-21.7-21.7v-84c0-13.5 8.1-21.7 21.7-21.7h70.4c5.4 0 8.1-2.7 8.1-8.1V588.2c0-13.5 8.1-21.7 21.7-21.7h107c13.5 0 21.7 8.1 21.7 21.7v151.7c0 4.1 2.7 8.1 8.1 8.1h131.4c13.5 0 21.7 8.1 21.7 21.7v84c-.1 13.5-8.2 21.6-21.7 21.6zM7950.4 1243.6c8.1-12.2 19-14.9 29.8-6.8l65 51.5c9.5 8.1 13.5 17.6 5.4 29.8-51.5 81.3-143.5 132.7-262.7 132.7-146.3 0-242.4-74.5-284.4-192.3-17.6-48.8-27.1-105.6-27.1-167.9 0-59.6 2.7-102.9 14.9-143.5 33.9-127.3 140.8-209.9 285.7-209.9 181.5 0 269.5 105.6 296.6 277.6 5.4 33.9 8.1 71.8 9.5 111 0 13.5-8.1 21.7-21.7 21.7h-419.8c-5.4 0-8.1 2.7-8.1 8.1 0 24.4 2.7 44.7 8.1 59.6 19 63.6 77.2 102.9 161.2 102.9 67.7-2.7 117.8-31.1 147.6-74.5zm-304.7-276.2c-5.4 16.3-9.5 33.9-10.8 56.9-1.4 5.4 1.4 8.1 6.8 8.1h272.2c5.4 0 8.1-2.7 8.1-8.1-2.7-20.3-4.1-36.6-8.1-48.8-16.3-62.3-65-102.9-138.1-102.9-70.5 0-113.9 37.9-130.1 94.8z"/><g><path class="st1" d="M3263.7 603h-48.3V491.2h-115.7V439h164zM2534.9 1422.4l-280.3-906c-4.1-14.9 2.7-24.4 17.6-24.4h123.2c12.2 0 20.3 4.1 24.4 17.6l200.4 700.1c2.7 6.8 8.1 6.8 10.8 0L2830.1 511c2.7-12.2 12.2-19 24.4-19H2975c14.9 0 21.7 9.5 17.6 24.4l-284.4 906c-4.1 12.2-12.2 17.6-24.4 17.6h-124.6c-12.1 0-20.2-5.4-24.3-17.6zM3062 1418.3V769.7c0-13.5 8.1-21.7 21.7-21.7h113.8c13.5 0 21.7 8.1 21.7 21.7v648.7c0 13.5-8.1 21.7-21.7 21.7h-113.8c-13.6-.1-21.7-8.2-21.7-21.8zM3797.7 492h113.8c13.5 0 21.7 8.1 21.7 21.7v904.6c0 13.5-8.1 21.7-21.7 21.7h-113.8c-13.5 0-21.7-8.1-21.7-21.7v-35.2c0-6.8-5.4-9.5-9.5-2.7-36.6 44.7-88 70.4-154.4 70.4-130 0-220.7-74.5-260-189.6-16.3-50.1-24.4-107-24.4-169.3 0-60.9 6.8-116.5 23-165.2 39.3-116.5 127.3-189.6 261.4-189.6 66.4 0 116.5 24.4 154.4 66.4 4.1 5.4 9.5 4.1 9.5-2.7V513.7c0-13.5 8.1-21.7 21.7-21.7zm-24.4 601.3c0-69.1-10.8-123.2-33.9-161.2-23-37.9-56.9-59.6-101.6-59.6-47.4 0-84 20.3-108.3 56.9-25.7 39.3-39.3 94.8-39.3 165.2 0 63.6 10.8 116.5 32.5 154.4 23 42 62.3 65 113.8 65 47.4 0 81.3-23 105.6-63.6 21.7-36.6 31.2-92.1 31.2-157.1zM4519.1 1243.6c8.1-12.2 19-14.9 29.8-6.8l65 51.5c9.5 8.1 13.5 17.6 5.4 29.8-51.5 81.3-143.5 132.7-262.7 132.7-146.3 0-242.4-74.5-284.4-192.3-17.6-48.8-27.1-105.6-27.1-167.9 0-59.6 2.7-102.9 14.9-143.5 33.9-127.3 140.8-209.9 285.7-209.9 181.5 0 269.5 105.6 296.6 277.6 5.4 33.9 8.1 71.8 9.5 111 0 13.5-8.1 21.7-21.7 21.7h-419.8c-5.4 0-8.1 2.7-8.1 8.1 0 24.4 2.7 44.7 8.1 59.6 19 63.6 77.2 102.9 161.2 102.9 67.7-2.7 117.8-31.1 147.6-74.5zm-304.7-276.2c-5.4 16.3-9.5 33.9-10.8 56.9-1.4 5.4 1.4 8.1 6.8 8.1h272.2c5.4 0 8.1-2.7 8.1-8.1-2.7-20.3-4.1-36.6-8.1-48.8-16.3-62.3-65-102.9-138.1-102.9-70.5 0-113.8 37.9-130.1 94.8zM4780.4 1246.3c-14.9-43.3-23-100.2-23-154.4 0-55.5 8.1-112.4 21.7-154.4 40.6-125.9 149-200.4 293.9-200.4 138.1 0 242.4 74.5 284.4 199.1 16.3 43.3 24.4 100.2 24.4 154.4 0 52.8-8.1 109.7-23 154.4-40.6 128.6-147.6 205.8-287.1 205.8-142.3 0-252-77.2-291.3-204.5zm427.9-39.2c10.8-31.1 14.9-73.1 14.9-113.8 0-44.7-5.4-85.3-13.5-113.8-20.3-67.7-71.8-107-140.8-107-69.1 0-119.2 39.3-139.5 107-8.1 28.4-13.5 69.1-13.5 113.8 0 42 5.4 85.3 13.5 113.8 20.3 67.7 71.8 108.3 142.2 108.3 66.3 0 116.4-40.6 136.7-108.3zM6028.7 955.2c90.7 43.3 135.4 117.8 135.4 222.1 0 177.4-134.1 262.7-310.1 262.7h-335.8c-13.5 0-21.7-8.1-21.7-21.7V513.7c0-13.5 8.1-21.7 21.7-21.7h325c190.9 0 307.4 79.9 307.4 255.9 0 96.1-43.3 159.8-121.9 196.4-6.7 2.8-6.7 8.2 0 10.9zm-375.1-319.6v247.8c0 5.4 2.7 8.1 8.1 8.1h181.5c96.1 0 154.4-48.8 154.4-130 0-82.6-58.2-134.1-154.4-134.1h-181.5c-5.4.1-8.1 2.8-8.1 8.2zm353.5 526.8c0-88-59.6-140.8-155.7-140.8h-189.6c-4.1 0-8.1 2.7-8.1 8.1v265.4c0 5.4 2.7 8.1 8.1 8.1H5854c94.8 0 153.1-54.2 153.1-140.8zM6263.5 1687.8v-86.7c0-13.5 4.1-21.7 9.5-21.7h8.1c105.6 0 142.2-21.7 173.3-134.1 1.4-4.1 1.4-8.1 0-10.8l-220.7-662.2c-5.4-16.3 2.7-24.4 17.6-24.4h121.9c12.2 0 20.3 5.4 24.4 17.6l132.7 448.2c2.7 6.8 8.1 6.8 10.8 0l128.6-448.2c4.1-12.2 12.2-17.6 24.4-17.6H6816c14.9 0 23 8.1 17.6 24.4l-237 705.5c-62.3 178.8-109.7 231.6-314.2 231.6h-9.5c-5.3.1-9.4-8-9.4-21.6zM7301.1 875.3h-131.4c-5.4 0-8.1 2.7-8.1 8.1V1203c0 70.4 29.8 98.9 93.4 98.9h35.2c13.5 0 21.7 8.1 21.7 21.7v90.7c0 13.5-6.8 21.7-21.7 23-21.7 0-43.3 1.4-65 1.4-130 0-212.6-32.5-214-176V883.4c0-4.1-2.7-8.1-8.1-8.1h-70.4c-13.5 0-21.7-8.1-21.7-21.7v-84c0-13.5 8.1-21.7 21.7-21.7h70.4c5.4 0 8.1-2.7 8.1-8.1V588.2c0-13.5 8.1-21.7 21.7-21.7h107c13.5 0 21.7 8.1 21.7 21.7v151.7c0 4.1 2.7 8.1 8.1 8.1h131.4c13.5 0 21.7 8.1 21.7 21.7v84c-.1 13.5-8.2 21.6-21.7 21.6zM7870.4 1243.6c8.1-12.2 19-14.9 29.8-6.8l65 51.5c9.5 8.1 13.5 17.6 5.4 29.8-51.5 81.3-143.5 132.7-262.7 132.7-146.3 0-242.4-74.5-284.4-192.3-17.6-48.8-27.1-105.6-27.1-167.9 0-59.6 2.7-102.9 14.9-143.5 33.9-127.3 140.8-209.9 285.7-209.9 181.5 0 269.5 105.6 296.6 277.6 5.4 33.9 8.1 71.8 9.5 111 0 13.5-8.1 21.7-21.7 21.7h-419.8c-5.4 0-8.1 2.7-8.1 8.1 0 24.4 2.7 44.7 8.1 59.6 19 63.6 77.2 102.9 161.2 102.9 67.7-2.7 117.8-31.1 147.6-74.5zm-304.7-276.2c-5.4 16.3-9.5 33.9-10.8 56.9-1.4 5.4 1.4 8.1 6.8 8.1h272.2c5.4 0 8.1-2.7 8.1-8.1-2.7-20.3-4.1-36.6-8.1-48.8-16.3-62.3-65-102.9-138.1-102.9-70.5 0-113.9 37.9-130.1 94.8z"/></g><g><path class="st2" d="M3303.7 603h-48.3V491.2h-115.7V439h164zM2574.9 1422.4l-280.3-906c-4.1-14.9 2.7-24.4 17.6-24.4h123.2c12.2 0 20.3 4.1 24.4 17.6l200.4 700.1c2.7 6.8 8.1 6.8 10.8 0L2870.1 511c2.7-12.2 12.2-19 24.4-19H3015c14.9 0 21.7 9.5 17.6 24.4l-284.4 906c-4.1 12.2-12.2 17.6-24.4 17.6h-124.6c-12.1 0-20.2-5.4-24.3-17.6zM3102 1418.3V769.7c0-13.5 8.1-21.7 21.7-21.7h113.8c13.5 0 21.7 8.1 21.7 21.7v648.7c0 13.5-8.1 21.7-21.7 21.7h-113.8c-13.6-.1-21.7-8.2-21.7-21.8zM3837.7 492h113.8c13.5 0 21.7 8.1 21.7 21.7v904.6c0 13.5-8.1 21.7-21.7 21.7h-113.8c-13.5 0-21.7-8.1-21.7-21.7v-35.2c0-6.8-5.4-9.5-9.5-2.7-36.6 44.7-88 70.4-154.4 70.4-130 0-220.7-74.5-260-189.6-16.3-50.1-24.4-107-24.4-169.3 0-60.9 6.8-116.5 23-165.2 39.3-116.5 127.3-189.6 261.4-189.6 66.4 0 116.5 24.4 154.4 66.4 4.1 5.4 9.5 4.1 9.5-2.7V513.7c0-13.5 8.1-21.7 21.7-21.7zm-24.4 601.3c0-69.1-10.8-123.2-33.9-161.2-23-37.9-56.9-59.6-101.6-59.6-47.4 0-84 20.3-108.3 56.9-25.7 39.3-39.3 94.8-39.3 165.2 0 63.6 10.8 116.5 32.5 154.4 23 42 62.3 65 113.8 65 47.4 0 81.3-23 105.6-63.6 21.7-36.6 31.2-92.1 31.2-157.1zM4559.1 1243.6c8.1-12.2 19-14.9 29.8-6.8l65 51.5c9.5 8.1 13.5 17.6 5.4 29.8-51.5 81.3-143.5 132.7-262.7 132.7-146.3 0-242.4-74.5-284.4-192.3-17.6-48.8-27.1-105.6-27.1-167.9 0-59.6 2.7-102.9 14.9-143.5 33.9-127.3 140.8-209.9 285.7-209.9 181.5 0 269.5 105.6 296.6 277.6 5.4 33.9 8.1 71.8 9.5 111 0 13.5-8.1 21.7-21.7 21.7h-419.8c-5.4 0-8.1 2.7-8.1 8.1 0 24.4 2.7 44.7 8.1 59.6 19 63.6 77.2 102.9 161.2 102.9 67.7-2.7 117.8-31.1 147.6-74.5zm-304.7-276.2c-5.4 16.3-9.5 33.9-10.8 56.9-1.4 5.4 1.4 8.1 6.8 8.1h272.2c5.4 0 8.1-2.7 8.1-8.1-2.7-20.3-4.1-36.6-8.1-48.8-16.3-62.3-65-102.9-138.1-102.9-70.5 0-113.8 37.9-130.1 94.8zM4820.4 1246.3c-14.9-43.3-23-100.2-23-154.4 0-55.5 8.1-112.4 21.7-154.4 40.6-125.9 149-200.4 293.9-200.4 138.1 0 242.4 74.5 284.4 199.1 16.3 43.3 24.4 100.2 24.4 154.4 0 52.8-8.1 109.7-23 154.4-40.6 128.6-147.6 205.8-287.1 205.8-142.3 0-252-77.2-291.3-204.5zm427.9-39.2c10.8-31.1 14.9-73.1 14.9-113.8 0-44.7-5.4-85.3-13.5-113.8-20.3-67.7-71.8-107-140.8-107-69.1 0-119.2 39.3-139.5 107-8.1 28.4-13.5 69.1-13.5 113.8 0 42 5.4 85.3 13.5 113.8 20.3 67.7 71.8 108.3 142.2 108.3 66.3 0 116.4-40.6 136.7-108.3zM6068.7 955.2c90.7 43.3 135.4 117.8 135.4 222.1 0 177.4-134.1 262.7-310.1 262.7h-335.8c-13.5 0-21.7-8.1-21.7-21.7V513.7c0-13.5 8.1-21.7 21.7-21.7h325c190.9 0 307.4 79.9 307.4 255.9 0 96.1-43.3 159.8-121.9 196.4-6.7 2.8-6.7 8.2 0 10.9zm-375.1-319.6v247.8c0 5.4 2.7 8.1 8.1 8.1h181.5c96.1 0 154.4-48.8 154.4-130 0-82.6-58.2-134.1-154.4-134.1h-181.5c-5.4.1-8.1 2.8-8.1 8.2zm353.5 526.8c0-88-59.6-140.8-155.7-140.8h-189.6c-4.1 0-8.1 2.7-8.1 8.1v265.4c0 5.4 2.7 8.1 8.1 8.1H5894c94.8 0 153.1-54.2 153.1-140.8zM6303.5 1687.8v-86.7c0-13.5 4.1-21.7 9.5-21.7h8.1c105.6 0 142.2-21.7 173.3-134.1 1.4-4.1 1.4-8.1 0-10.8l-220.7-662.2c-5.4-16.3 2.7-24.4 17.6-24.4h121.9c12.2 0 20.3 5.4 24.4 17.6l132.7 448.2c2.7 6.8 8.1 6.8 10.8 0l128.6-448.2c4.1-12.2 12.2-17.6 24.4-17.6H6856c14.9 0 23 8.1 17.6 24.4l-237 705.5c-62.3 178.8-109.7 231.6-314.2 231.6h-9.5c-5.3.1-9.4-8-9.4-21.6zM7341.1 875.3h-131.4c-5.4 0-8.1 2.7-8.1 8.1V1203c0 70.4 29.8 98.9 93.4 98.9h35.2c13.5 0 21.7 8.1 21.7 21.7v90.7c0 13.5-6.8 21.7-21.7 23-21.7 0-43.3 1.4-65 1.4-130 0-212.6-32.5-214-176V883.4c0-4.1-2.7-8.1-8.1-8.1h-70.4c-13.5 0-21.7-8.1-21.7-21.7v-84c0-13.5 8.1-21.7 21.7-21.7h70.4c5.4 0 8.1-2.7 8.1-8.1V588.2c0-13.5 8.1-21.7 21.7-21.7h107c13.5 0 21.7 8.1 21.7 21.7v151.7c0 4.1 2.7 8.1 8.1 8.1h131.4c13.5 0 21.7 8.1 21.7 21.7v84c-.1 13.5-8.2 21.6-21.7 21.6zM7910.4 1243.6c8.1-12.2 19-14.9 29.8-6.8l65 51.5c9.5 8.1 13.5 17.6 5.4 29.8-51.5 81.3-143.5 132.7-262.7 132.7-146.3 0-242.4-74.5-284.4-192.3-17.6-48.8-27.1-105.6-27.1-167.9 0-59.6 2.7-102.9 14.9-143.5 33.9-127.3 140.8-209.9 285.7-209.9 181.5 0 269.5 105.6 296.6 277.6 5.4 33.9 8.1 71.8 9.5 111 0 13.5-8.1 21.7-21.7 21.7h-419.8c-5.4 0-8.1 2.7-8.1 8.1 0 24.4 2.7 44.7 8.1 59.6 19 63.6 77.2 102.9 161.2 102.9 67.7-2.7 117.8-31.1 147.6-74.5zm-304.7-276.2c-5.4 16.3-9.5 33.9-10.8 56.9-1.4 5.4 1.4 8.1 6.8 8.1h272.2c5.4 0 8.1-2.7 8.1-8.1-2.7-20.3-4.1-36.6-8.1-48.8-16.3-62.3-65-102.9-138.1-102.9-70.5 0-113.9 37.9-130.1 94.8z"/></g><g><path fill="none" d="M1251.2 1035.2H1122v193.7h258.1V970h-128.9z"/><path class="st0" d="M1380.4 840.6V711.2h-129.6v194.4H1122V711h129.2V581.5H1037c13.3 0 20 8.9 15.5 21.1l-60.1 194.5V1229H863.2v129.6h646.3v-518h-129.1zm-.3 129.5V1228.9H1122v-193.7h129.2V970h128.9v.1z"/><path class="st1" d="M911.5 581.5c-11.1 0-17.8 6.7-21.1 16.7l-17.6 65.7v-82.3H743.3V711h116.9l-112.9 421c-1.1 5.5-7.8 5.5-8.9 0L592.9 597c-3.3-10-10-15.5-21.1-15.5H418.1V711h42.5l192.3 632c3.3 10 10 15.5 21.1 15.5h128.8c11.1 0 17.8-5.6 21.1-15.5l168.6-545.9V581.5h-81z"/><path class="st2" d="M1037 581.5h-44.5v215.6l60.1-194.5c4.4-12.3-2.3-21.1-15.6-21.1z"/><g><path class="st0" d="M1893.4 101.4h93.8v217.1h-93.8z"/><path class="st2" d="M1893.4 0h93.8v101.4h-93.8z"/><path class="st1" d="M1668.7 0h224.7v101.4h-224.7z"/></g><path class="st2" d="M0 1753.8h101.4v101.4H0z"/><g><path class="st0" d="M1792.3 420v1333.8H101.4v101.3h1792.2V420z"/><path class="st1" d="M101.4 203.1h1474V101.7H0v1652.1h101.4z"/></g></g></svg>