<?xml version="1.0" encoding="UTF-8"?>
<svg viewBox="0 0 1000 1000" xmlns="http://www.w3.org/2000/svg">
<defs>
<style>.cls-1 {
        fill: #777;
      }

      .cls-1, .cls-2 {
        fill-rule: evenodd;
      }

      .cls-2 {
        fill: #0a7bff;
      }</style>
</defs>
<path class="cls-1" d="m451.02 175.52v357.5c0 7.583-7.583 14.625-15.167 14.625h-29.792a14.81 14.81 0 0 1-15.166-15.167v-356.96c0-8.126 7.583-14.626 15.166-14.626h29.251c7.583 2e-3 15.708 7.042 15.708 14.626zm320.12 106.71v144.63c0 81.793-36.292 120.79-112.13 120.79h-80.167c-7.584 0-14.084-8.667-14.084-15.708v-355.34c0-8.667 5.417-15.709 14.084-15.709h80.167c75.834 2e-3 112.13 38.459 112.13 121.34zm-60.126 15.708c0-60.125-15.166-81.792-56.875-81.792h-16.792c-6.5 0-13 5.417-13 12.458v249.17c0 8.667 5.958 14.626 14.625 14.626h15.167c41.709 0 56.875-21.126 56.875-82.335v-112.13zm228.58-122.42v357.5c0 7.583-7.584 14.625-15.167 14.625h-29.795a14.81 14.81 0 0 1-15.167-15.167v-356.96c0-8.126 7.583-14.626 15.167-14.626h29.25c7.584 2e-3 15.712 7.042 15.712 14.626z"/>
<path class="cls-1" d="m289.91 533.94c1.625 9.208-3.25 15.708-13 15.708h-29.792c-8.667 0-16.251-7.042-17.876-15.708l-46.044-263.25c-1.083-4.875-4.333-5.417-5.416-0.542l-52 263.8a19.649 19.649 0 0 1-19.5 15.708h-30.874c-9.208 0-13-7.042-11.375-15.708l76.375-355.34c2.167-10.292 8.667-15.709 18.959-15.709h42.792c10.292 0 16.25 5.417 18.417 15.167z"/>
<path class="cls-2" d="m289.98 186.06c1.625-9.208-3.25-15.708-13-15.708h-29.792c-8.667 0-16.25 7.042-17.875 15.708l-46.042 263.25c-1.083 4.875-4.333 5.417-5.417 0.542l-52-263.8a19.649 19.649 0 0 0-19.5-15.708h-30.876c-9.208 0-13 7.042-11.375 15.708l76.376 355.34c2.167 10.292 8.667 15.709 18.958 15.709h42.792c10.292 0 16.251-5.417 18.417-15.167zm150.04 356.42v-357.5c0-7.583-7.584-14.625-15.167-14.625h-29.792a14.81 14.81 0 0 0-15.167 15.167v356.96c0 8.126 7.583 14.626 15.167 14.626h29.25c7.584-2e-3 15.709-7.042 15.709-14.626zm320.12-106.71v-144.63c0-81.793-36.292-120.79-112.13-120.79h-80.167c-7.583 0-14.083 8.667-14.083 15.708v355.34c0 8.667 5.416 15.709 14.083 15.709h80.167c75.834-2e-3 112.13-38.459 112.13-121.34zm-60.125-15.708c0 60.125-15.167 81.792-56.876 81.792h-16.791c-6.5 0-13-5.417-13-12.458v-249.17c0-8.667 5.959-14.626 14.626-14.626h15.166c41.709 0 56.876 21.126 56.876 82.335v112.13zm228.58 122.42v-357.5c0-7.583-7.583-14.625-15.167-14.625h-29.796a14.811 14.811 0 0 0-15.167 15.167v356.96c0 8.126 7.584 14.626 15.167 14.626h29.251c7.583-2e-3 15.712-7.042 15.712-14.626z"/>
<path class="cls-1" d="m192.54 781.54c0-36.575-23.742-52.617-49.408-72.829l-15.721-12.516c-17-13.474-23.742-23.741-23.742-36.253 0-13.475 9.946-23.1 22.779-23.1s22.138 8.341 27.913 25.025c1.6 4.812 3.85 7.058 7.7 7.058a19.213 19.213 0 0 0 3.85-0.642l16.041-4.812c4.171-1.284 7.058-4.171 7.058-8.342 0-6.737-14.758-51.333-62.241-51.333-34.97 0-60 22.779-60 56.146 0 25.024 13.475 42.67 32.083 57.428l23.1 18.288c26.629 21.175 33.687 30.479 33.687 44.916 0 15.4-10.587 25.987-25.987 25.987-16.363 0-28.234-10.908-33.688-31.762-1.283-5.454-3.529-7.379-7.058-7.379a32.048 32.048 0 0 0-6.417 1.283l-12.833 3.85c-4.812 1.284-8.342 4.492-8.342 8.984 0 8.02 10.267 58.07 68.337 58.07 37.547 3e-3 62.889-23.418 62.889-58.067zm191.86-107.48c0-23.421-6.1-40.1-18.288-52.3-10.587-10.267-24.7-14.759-48.124-14.759h-49.729c-4.813 0-8.983 4.492-8.983 9.3v211.12a9.066 9.066 0 0 0 8.662 8.663h17c4.813 0 9.625-3.85 9.625-8.983v-74.112c0-5.775 3.529-9.625 8.983-9.625h14.438c45.883 0 66.416-21.175 66.416-69.3zm-36.9 2.246c0 25.666-9.3 34.329-37.537 34.329h-6.413c-5.775 0-8.983-3.208-8.983-8.983v-52.617c0-5.454 3.85-9.3 8.983-9.3h6.417c28.875-4e-3 37.533 8.338 37.533 36.571zm221.38 150.47-42.349-210.47c-1.284-6.1-4.813-9.3-11.229-9.3h-30.479q-9.144 0-10.588 8.663l-40.745 211.1c-0.963 4.812 1.6 9.3 7.058 9.3h16.683c5.454 0 9.625-3.529 10.908-8.983l6.1-31.442c0.642-4.171 5.454-9.625 10.588-9.625h30.473c5.775 0 9.945 3.85 11.229 9.625l6.416 31.121c0.963 5.454 4.492 9.3 10.909 9.3h17c5.46 8e-3 8.989-3.521 8.026-9.296zm-51.653-82.133c0.962 6.1-1.925 8.983-7.7 8.983h-18.288c-5.133 0-9.3-2.887-8.021-8.341l15.082-84.058c0.321-3.208 2.888-2.567 3.53-0.321zm237.09 20.212c0-5.775-3.85-9.3-9.625-9.3h-16.362c-5.454 0-9.3 3.529-9.3 8.984-0.642 28.233-9.946 42.028-27.913 42.028-19.57 0-26.308-12.512-26.308-49.408v-75.72c0-32.725 6.738-44.916 25.988-44.916 17 0 26.629 12.512 27.591 36.254a9.705 9.705 0 0 0 9.3 8.983h16.363c4.491 0 9.624-4.171 9.624-8.983 0-42.992-23.741-69.3-62.562-69.3-21.175 0-37.858 7.379-48.766 21.5-10.587 13.8-13.154 25.987-13.154 63.525v63.845c0 34.65 2.567 46.521 11.229 61.6 9.625 16.041 28.233 25.666 51.012 25.666 41.065-4e-3 62.883-26.312 62.883-74.758zm175.5 48.125c0-4.812-4.492-9.625-9.3-9.625h-50.38c-5.775 0-8.662-3.85-8.662-9.3v-51.979c0-5.133 3.529-9.625 8.662-9.625h42.991a9.181 9.181 0 0 0 8.984-8.983v-14.437c0-5.454-3.209-9.3-8.984-9.3h-42.67c-5.133 0-9.3-3.53-9.3-8.984v-40.428c0-6.1 2.887-10.588 9.3-10.588h50.37c5.775 0 8.663-3.529 8.663-8.983v-14.438c0-6.1-2.888-9.3-8.983-9.3h-85.342c-4.17 0-9.3 5.134-9.3 9.3v210.78a9.244 9.244 0 0 0 9.3 8.983h85.342a9.042 9.042 0 0 0 9.3-8.983v-14.114z"/>
</svg>
