<svg viewBox="0 0 341 71" version="1.1" xmlns="http://www.w3.org/2000/svg" xmlns:xlink="http://www.w3.org/1999/xlink">
    <g id="Page-1" stroke="none" stroke-width="1" fill="none" fill-rule="evenodd">
        <g id="vod_full_lockup" transform="translate(-67.000000, -262.000000)">
            <path d="M167.514,268.569 C168.83,268.569 169.967,268.11 170.927,267.191 C171.78,266.377 172.226,265.526 172.261,264.641 C172.295,264.042 172.064,263.448 171.566,262.864 C171.067,262.281 170.446,261.988 169.7,261.988 C168.419,261.988 167.253,262.414 166.206,263.262 C165.157,264.111 164.614,264.997 164.58,265.916 C164.509,267.686 165.487,268.569 167.514,268.569" id="Fill-1" fill="#9DA7AB"></path>
            <path d="M238.661,279.778 C238.591,281.488 238.073,283.126 237.114,284.692 C235.977,286.583 234.607,287.526 233.008,287.526 C232.293,287.526 231.742,287.134 231.353,286.349 C230.997,285.674 230.839,284.891 230.874,283.998 C230.944,282.184 231.479,280.474 232.474,278.869 C233.645,276.909 235.139,275.928 236.953,275.928 C237.52,275.928 237.958,276.332 238.258,277.131 C238.563,277.933 238.697,278.817 238.661,279.778 Z M211.977,283.663 C211.957,283.202 211.957,282.973 211.977,282.973 C212.012,281.629 212.578,280.224 213.682,278.755 C214.782,277.288 215.863,276.555 216.93,276.555 C217.746,276.555 218.137,277.031 218.1,277.984 C218.066,278.693 217.533,279.613 216.504,280.746 C215.226,282.055 213.716,283.026 211.977,283.663 Z M243.033,274.07 C241.753,272.4 239.868,271.566 237.381,271.566 C233.508,271.566 230.285,272.985 227.728,275.825 C225.342,278.38 224.242,281.188 224.42,284.24 C224.432,284.464 224.452,284.683 224.474,284.901 C224.341,284.959 224.212,285.016 224.075,285.074 C221.051,286.376 218.26,287.026 215.699,287.026 C214.421,287.026 213.459,286.583 212.82,285.697 C216.267,285.13 219.133,283.801 221.408,281.708 C223.541,279.794 224.538,277.928 224.393,276.12 C224.184,273.286 222.333,271.865 218.847,271.865 C215.08,271.865 211.807,273.287 209.032,276.132 C206.511,278.728 205.23,281.465 205.194,284.343 C205.185,284.826 205.209,285.292 205.267,285.738 C204.67,286.13 204.218,286.328 203.915,286.328 C203.237,286.328 202.813,286.19 202.638,285.905 C202.457,285.622 202.384,285.107 202.422,284.364 C202.422,284.081 202.642,282.991 203.088,281.097 C203.532,279.203 203.771,277.756 203.81,276.766 C203.878,275.314 203.593,274.199 202.955,273.42 C202.208,272.463 200.981,272.054 199.275,272.196 C197.853,272.304 196.481,272.837 195.168,273.796 C194.386,274.367 193.586,275.129 192.769,276.09 C192.483,276.34 192.216,276.571 191.967,276.784 C192.002,275.327 191.716,274.206 191.113,273.424 C190.368,272.463 189.121,272.054 187.381,272.196 C185.353,272.375 183.523,273.175 181.887,274.596 C181.177,275.203 180.553,275.913 180.021,276.731 C180.09,276.41 180.125,276.071 180.125,275.717 C180.125,274.614 179.843,273.647 179.273,272.811 C178.702,271.976 177.955,271.592 177.032,271.667 C176.5,271.701 175.486,272.413 173.993,273.796 C171.93,275.717 170.809,276.748 170.633,276.889 L171.913,278.331 C172.908,277.612 173.513,277.25 173.726,277.25 C174.117,277.25 174.274,277.57 174.207,278.208 C174.173,279.131 174.008,280.416 173.716,282.065 C173.534,283.088 173.403,283.968 173.322,284.711 C173.303,284.724 173.289,284.736 173.273,284.749 C171.993,285.804 171.105,286.328 170.608,286.328 C169.47,286.328 168.918,285.568 168.952,284.043 C169.485,280.713 169.985,277.969 170.448,275.808 C170.588,274.533 170.384,273.496 169.833,272.7 C169.281,271.904 168.42,271.557 167.248,271.664 C166.499,271.734 165.362,272.444 163.833,273.796 C163.303,274.279 162.772,274.758 162.241,275.24 C162.135,272.725 160.987,271.432 158.789,271.366 C155.497,271.259 153.267,273.119 152.1,276.943 C152.703,276.684 153.29,276.555 153.857,276.555 C155.066,276.555 155.6,277.233 155.456,278.589 C155.384,279.409 154.854,280.606 153.857,282.177 C152.861,283.749 152.114,284.534 151.618,284.534 C150.977,284.534 150.391,283.324 149.857,280.9 C149.68,280.192 149.36,278.375 148.899,275.457 C148.472,272.752 147.335,271.487 145.486,271.664 C144.701,271.734 143.527,272.444 141.965,273.796 C140.827,274.828 139.671,275.861 138.499,276.889 L139.617,278.331 C140.68,277.585 141.302,277.211 141.482,277.211 C142.296,277.211 143.057,278.492 143.77,281.046 C144.407,283.389 145.046,285.735 145.684,288.078 C146.644,290.637 147.816,291.915 149.199,291.915 C151.433,291.915 154.167,289.817 157.397,285.617 C159.664,282.696 161.134,280.23 161.81,278.208 C162.706,277.547 163.26,277.211 163.459,277.211 C164.1,277.211 164.421,277.674 164.421,278.598 C164.421,278.774 164.072,280.09 163.378,282.542 C162.685,284.992 162.321,286.805 162.287,287.978 C162.253,289.115 162.526,290.038 163.114,290.751 C163.7,291.462 164.544,291.817 165.647,291.817 C168.028,291.817 170.411,290.786 172.794,288.725 C173.006,288.538 173.212,288.348 173.412,288.157 C173.603,288.957 173.925,289.613 174.394,290.122 C175.417,291.222 177.153,291.736 179.592,291.665 C179.268,290.881 179.14,289.496 179.211,287.504 C179.316,285.299 179.887,283.183 180.919,281.159 C181.951,279.131 182.911,278.116 183.805,278.116 C184.837,278.116 185.318,278.774 185.246,280.09 C185.209,280.978 185.037,281.993 184.723,283.13 C184.408,284.268 184.233,285.407 184.199,286.544 C184.127,288.358 184.533,289.656 185.422,290.438 C186.413,291.328 188.151,291.736 190.632,291.665 C190.261,290.848 190.113,289.672 190.184,288.143 C190.289,285.976 191.023,283.735 192.378,281.425 C193.664,279.221 194.769,278.116 195.696,278.116 C196.553,278.116 196.963,278.793 196.929,280.144 C196.891,281.031 196.669,282.274 196.26,283.874 C195.852,285.473 195.629,286.84 195.594,287.978 C195.523,290.538 196.64,291.817 198.957,291.817 C201.337,291.817 203.718,290.786 206.102,288.725 C206.14,288.69 206.177,288.653 206.216,288.619 C206.298,288.76 206.383,288.9 206.473,289.038 C207.718,290.954 209.779,291.915 212.663,291.915 C216.537,291.915 220.359,290.833 224.129,288.667 C224.55,288.429 224.95,288.191 225.337,287.953 C225.574,288.433 225.853,288.883 226.179,289.296 C227.638,291.108 229.77,292.013 232.58,292.013 C235.957,292.013 238.783,290.824 241.057,288.448 C243.336,286.067 244.546,283.245 244.688,279.979 C244.795,277.566 244.246,275.596 243.033,274.07 L243.033,274.07 Z" id="Fill-2" fill="#9DA7AB"></path>
            <path d="M161.486,316.671 C161.486,314.821 160.967,313.312 159.931,312.147 C158.893,310.982 157.576,310.398 155.98,310.398 C154.353,310.398 153.003,310.997 151.935,312.196 C150.865,313.389 150.331,314.901 150.331,316.72 C150.331,318.54 150.865,320.031 151.935,321.197 C153.003,322.362 154.353,322.943 155.98,322.943 C157.576,322.943 158.893,322.362 159.931,321.197 C160.967,320.031 161.486,318.523 161.486,316.671 Z M172.978,316.72 C172.978,321.572 171.413,325.499 168.286,328.499 C165.156,331.501 161.056,333 155.98,333 C150.905,333 146.803,331.501 143.674,328.499 C140.546,325.499 138.982,321.572 138.982,316.72 C138.982,311.836 140.546,307.893 143.674,304.893 C146.803,301.892 150.905,300.391 155.98,300.391 C161.056,300.391 165.156,301.892 168.286,304.893 C171.413,307.893 172.978,311.836 172.978,316.72 L172.978,316.72 Z" id="Fill-3" fill="#2F3C47"></path>
            <polyline id="Fill-4" fill="#2F3C47" points="206.447 332.846 194.524 332.846 185.092 316.959 185.092 332.846 173.983 332.846 173.983 300.322 185.187 300.322 195.135 316.767 195.135 300.322 206.447 300.322 206.447 332.846"></polyline>
            <path d="M237.763,316.767 C237.763,314.852 237.211,313.36 236.109,312.291 C235.01,311.22 233.483,310.686 231.536,310.686 L230.244,310.686 L230.244,322.895 L231.297,322.895 C233.339,322.895 234.927,322.362 236.062,321.292 C237.194,320.223 237.763,318.715 237.763,316.767 Z M249.013,317.032 C249.013,321.635 247.593,325.328 244.752,328.11 C241.909,330.891 238.145,332.846 233.45,332.846 L219.175,332.846 L219.175,300.322 L230.674,300.322 C236.579,300.322 241.143,302.387 244.369,305.331 C247.467,308.143 249.013,312.044 249.013,317.032 L249.013,317.032 Z" id="Fill-5" fill="#2F3C47"></path>
            <polyline id="Fill-6" fill="#2F3C47" points="271.496 332.846 248.87 332.846 248.87 300.322 271.496 300.322 271.496 308.806 261.271 308.806 261.271 313.048 269.985 313.048 269.985 320.12 261.271 320.12 261.271 324.362 271.496 324.362 271.496 332.846"></polyline>
            <polyline id="Fill-7" fill="#2F3C47" points="312.314 332.846 301.781 332.846 299.866 315.857 294.979 332.846 288.086 332.846 283.105 315.857 281.238 332.846 270.705 332.846 275.827 300.322 287.08 300.322 291.531 316.384 295.986 300.322 307.144 300.322 312.314 332.846"></polyline>
            <path d="M329.216,320.884 L326.87,310.733 L324.474,320.884 L329.216,320.884 Z M344.154,332.846 L332.281,332.846 L331.129,328.306 L322.559,328.306 L321.409,332.846 L309.583,332.846 L320.404,300.322 L333.283,300.322 L344.154,332.846 L344.154,332.846 Z" id="Fill-8" fill="#2F3C47"></path>
            <polyline id="Fill-9" fill="#2F3C47" points="374.727 332.846 363.45 332.846 353.515 316.959 353.515 332.846 342.201 332.846 342.201 300.322 354.112 300.322 363.413 316.767 363.413 300.322 374.727 300.322 374.727 332.846"></polyline>
            <path d="M395.29,316.767 C395.29,314.852 394.74,313.36 393.638,312.291 C392.539,311.22 391.015,310.686 389.065,310.686 L387.774,310.686 L387.774,322.895 L388.827,322.895 C390.872,322.895 392.457,322.362 393.593,321.292 C394.724,320.223 395.29,318.715 395.29,316.767 Z M407.25,317.032 C407.25,321.635 405.122,325.328 402.283,328.11 C399.439,330.891 395.676,332.846 390.983,332.846 L376.14,332.846 L376.14,300.322 L388.205,300.322 C394.112,300.322 398.676,302.387 401.898,305.331 C404.995,308.143 407.25,312.044 407.25,317.032 L407.25,317.032 Z" id="Fill-10" fill="#2F3C47"></path>
            <polyline id="Fill-11" fill="#4FB0D7" points="111.096 298.419 127.25 307.135 127.25 307.802 111.096 299.086 111.096 298.419"></polyline>
            <polyline id="Fill-12" fill="#72C7DF" points="87.219 269.9 87.219 286.049 87.886 286.049 87.886 269.516 87.219 269.9"></polyline>
            <polyline id="Fill-13" fill="#72C7DF" points="87.553 311.02 72.474 319.118 73.048 319.45 87.553 311.687 87.553 311.02"></polyline>
            <path d="M111.098,298.752 L72.748,319.277 L93.253,331.13 C95.45,332.401 99.047,332.401 101.244,331.133 L123.253,318.41 C125.453,317.139 127.25,314.014 127.25,311.471 L127.25,307.469 L111.098,298.752" id="Fill-14" fill="#4FB0D7"></path>
            <path d="M123.259,279.087 L101.358,266.377 C99.164,265.102 95.564,265.096 93.363,266.364 L87.553,269.708 L87.553,286.049 L127.25,307.469 L127.25,286.031 C127.25,283.487 125.453,280.363 123.259,279.087" id="Fill-15" fill="#3D79B0"></path>
            <path d="M71.251,279.1 C69.05,280.368 67.25,283.487 67.25,286.031 L67.25,311.471 C67.25,314.014 69.047,317.139 71.247,318.41 L72.748,319.277 L87.553,311.353 L87.553,269.708 L71.251,279.1" id="Fill-16" fill="#72C7DF"></path>
        </g>
    </g>
</svg>