<svg version="1.1" id="Layer_1" xmlns="http://www.w3.org/2000/svg" xmlns:xlink="http://www.w3.org/1999/xlink" x="0px" y="0px"
	 viewBox="0 0 666 666" style="enable-background:new 0 0 666 666;" xml:space="preserve">
<style type="text/css">
	.st0{fill:#E42A45;}
</style>
<path class="st0" d="M176.6,374.5l32.1-83.1l27.2,0L223,324.5l18.5-3.5l11.5-29.6h27.7l-31.5,83.1h-27.9l12.3-32.6l-18.4,3.5
	l-11.2,29.1H176.6z M290.7,374.5l31.8-83.1h-27.7l-31.5,83.1H290.7z M585.6,314.1l8.5-22.6h-60l-31.5,83.1h59.6l8.6-22.1h-34.7
	l4-10.8l34.7-0.1l7.1-19.2h-34.2l3.2-8.2H585.6z M71.8,374.5h36.5l18.4-45.3l0,45.3h34.3l31.9-83.1h-26.8L147.3,340l0-46.7h-26.2
	L99.3,340v-48.6H71.8 M416,374.5l23.2-60.8h16.7l8.6-22.3h-61.9l-8.6,22.3h17.8l-23.2,60.8H416z M493.6,374.5l8.7-22.3h-24.1
	l23.1-60.8h-27.6l-31.8,83.1H493.6z M381.8,349.3c3.9-14.2-6.7-25.9-21.4-25.9l-2.8,0c-1.8,0-6.1-0.8-6.1-4.8c0-4,4.2-4.9,6.1-4.9
	l28.6,0l7.9-22.4h-41.2c-13.6,0-23.5,7.8-27.4,24.6c-3.9,16.8,8.6,28,20,28h1.3c1.7,0,5.8,0.4,5.8,4.1c0,3.7-4.1,4.8-5.8,4.8h-29.6
	l-9.2,21.9l43.2,0C368.4,374.5,378.5,361.1,381.8,349.3z"/>
</svg>
